<svg width="355" height="329" viewBox="0 0 355 329" fill="none" xmlns="http://www.w3.org/2000/svg">
<path d="M2.83865 5.67731C4.4064 5.67731 5.67731 4.4064 5.67731 2.83865C5.67731 1.27091 4.4064 0 2.83865 0C1.27091 0 0 1.27091 0 2.83865C0 4.4064 1.27091 5.67731 2.83865 5.67731Z" fill="#CFD3DF"/>
<path d="M2.83866 28.7556C1.36256 28.7556 0.19873 27.5633 0.19873 26.1156C0.19873 24.6395 1.39094 23.4757 2.83866 23.4757C4.31476 23.4757 5.47858 24.6679 5.47858 26.1156C5.50697 27.5633 4.31476 28.7556 2.83866 28.7556Z" fill="#CFD3DF"/>
<path d="M2.83863 51.8623C1.47608 51.8623 0.369019 50.7552 0.369019 49.3927C0.369019 48.0301 1.47608 46.923 2.83863 46.923C4.20119 46.923 5.30825 48.0301 5.30825 49.3927C5.30825 50.7552 4.20119 51.8623 2.83863 51.8623Z" fill="#CFD3DF"/>
<path d="M2.83864 74.9405C1.58963 74.9405 0.567749 73.9186 0.567749 72.6696C0.567749 71.4206 1.58963 70.3987 2.83864 70.3987C4.08764 70.3987 5.10953 71.4206 5.10953 72.6696C5.10953 73.9186 4.08764 74.9405 2.83864 74.9405Z" fill="#CFD3DF"/>
<path d="M2.83863 98.0472C1.70317 98.0472 0.766296 97.1105 0.766296 95.975C0.766296 94.8111 1.70317 93.9028 2.83863 93.9028C4.00248 93.9028 4.91079 94.8395 4.91079 95.975C4.93918 97.1105 4.00248 98.0472 2.83863 98.0472Z" fill="#CFD3DF"/>
<path d="M2.83868 121.126C1.78838 121.126 0.936829 120.274 0.936829 119.224C0.936829 118.173 1.78838 117.322 2.83868 117.322C3.88898 117.322 4.74053 118.173 4.74053 119.224C4.74053 120.302 3.88898 121.126 2.83868 121.126Z" fill="#CFD3DF"/>
<path d="M2.83867 144.232C1.90192 144.232 1.13538 143.466 1.13538 142.529C1.13538 141.592 1.90192 140.826 2.83867 140.826C3.77543 140.826 4.5418 141.592 4.5418 142.529C4.5418 143.466 3.77543 144.232 2.83867 144.232Z" fill="#CFD3DF"/>
<path d="M2.83868 167.339C2.01547 167.339 1.33411 166.658 1.33411 165.835C1.33411 165.011 2.01547 164.33 2.83868 164.33C3.66189 164.33 4.34307 165.011 4.34307 165.835C4.37146 166.658 3.69027 167.339 2.83868 167.339Z" fill="#CFD3DF"/>
<path d="M2.83865 190.417C2.1006 190.417 1.50439 189.821 1.50439 189.083C1.50439 188.345 2.1006 187.749 2.83865 187.749C3.5767 187.749 4.17274 188.345 4.17274 189.083C4.17274 189.821 3.5767 190.417 2.83865 190.417Z" fill="#CFD3DF"/>
<path d="M2.83866 213.523C2.21415 213.523 1.70312 213.012 1.70312 212.388C1.70312 211.763 2.21415 211.252 2.83866 211.252C3.46316 211.252 3.97401 211.763 3.97401 212.388C3.97401 213.012 3.46316 213.523 2.83866 213.523Z" fill="#CFD3DF"/>
<path d="M2.83866 236.602C2.3277 236.602 1.90186 236.176 1.90186 235.665C1.90186 235.154 2.3277 234.728 2.83866 234.728C3.34962 234.728 3.77546 235.154 3.77546 235.665C3.80385 236.176 3.378 236.602 2.83866 236.602Z" fill="#CFD3DF"/>
<path d="M2.83864 259.708C2.41284 259.708 2.07214 259.368 2.07214 258.942C2.07214 258.516 2.41284 258.175 2.83864 258.175C3.26443 258.175 3.60495 258.516 3.60495 258.942C3.60495 259.368 3.26443 259.708 2.83864 259.708Z" fill="#CFD3DF"/>
<path d="M2.83864 282.815C2.52639 282.815 2.27087 282.56 2.27087 282.247C2.27087 281.935 2.52639 281.68 2.83864 281.68C3.15089 281.68 3.4064 281.935 3.4064 282.247C3.4064 282.56 3.15089 282.815 2.83864 282.815Z" fill="#CFD3DF"/>
<path d="M2.83864 305.893C2.63994 305.893 2.4696 305.723 2.4696 305.524C2.4696 305.326 2.63994 305.155 2.83864 305.155C3.03735 305.155 3.20768 305.326 3.20768 305.524C3.23607 305.723 3.06574 305.893 2.83864 305.893Z" fill="#CFD3DF"/>
<path d="M2.83868 329C2.72513 329 2.63995 328.915 2.63995 328.801C2.63995 328.688 2.72513 328.603 2.83868 328.603C2.95223 328.603 3.03741 328.688 3.03741 328.801C3.03741 328.915 2.95223 329 2.83868 329Z" fill="#CFD3DF"/>
<path d="M23.3905 5.67731C24.9582 5.67731 26.2291 4.4064 26.2291 2.83865C26.2291 1.27091 24.9582 0 23.3905 0C21.8227 0 20.5518 1.27091 20.5518 2.83865C20.5518 4.4064 21.8227 5.67731 23.3905 5.67731Z" fill="#CFD3DF"/>
<path d="M23.3905 28.7556C21.9144 28.7556 20.7505 27.5633 20.7505 26.1156C20.7505 24.6395 21.9428 23.4757 23.3905 23.4757C24.8666 23.4757 26.0304 24.6679 26.0304 26.1156C26.0304 27.5633 24.8666 28.7556 23.3905 28.7556Z" fill="#CFD3DF"/>
<path d="M23.3905 51.8623C22.0279 51.8623 20.9208 50.7552 20.9208 49.3927C20.9208 48.0301 22.0279 46.923 23.3905 46.923C24.753 46.923 25.8601 48.0301 25.8601 49.3927C25.8601 50.7552 24.753 51.8623 23.3905 51.8623Z" fill="#CFD3DF"/>
<path d="M23.3905 74.9405C24.6447 74.9405 25.6613 73.9238 25.6613 72.6696C25.6613 71.4154 24.6447 70.3987 23.3905 70.3987C22.1363 70.3987 21.1196 71.4154 21.1196 72.6696C21.1196 73.9238 22.1363 74.9405 23.3905 74.9405Z" fill="#CFD3DF"/>
<path d="M23.3905 98.0472C22.255 98.0472 21.3183 97.1105 21.3183 95.975C21.3183 94.8111 22.255 93.9028 23.3905 93.9028C24.5543 93.9028 25.4626 94.8395 25.4626 95.975C25.4626 97.1105 24.5259 98.0472 23.3905 98.0472Z" fill="#CFD3DF"/>
<path d="M23.3905 121.126C22.3402 121.126 21.4886 120.274 21.4886 119.224C21.4886 118.173 22.3402 117.322 23.3905 117.322C24.4408 117.322 25.2923 118.173 25.2923 119.224C25.2923 120.302 24.4408 121.126 23.3905 121.126Z" fill="#CFD3DF"/>
<path d="M23.3905 144.232C24.3311 144.232 25.0936 143.47 25.0936 142.529C25.0936 141.588 24.3311 140.826 23.3905 140.826C22.4499 140.826 21.6874 141.588 21.6874 142.529C21.6874 143.47 22.4499 144.232 23.3905 144.232Z" fill="#CFD3DF"/>
<path d="M23.3905 167.339C22.5673 167.339 21.8859 166.658 21.8859 165.835C21.8859 165.011 22.5673 164.33 23.3905 164.33C24.2137 164.33 24.8949 165.011 24.8949 165.835C24.8949 166.658 24.2137 167.339 23.3905 167.339Z" fill="#CFD3DF"/>
<path d="M23.3905 190.417C22.6524 190.417 22.0562 189.821 22.0562 189.083C22.0562 188.345 22.6524 187.749 23.3905 187.749C24.1285 187.749 24.7246 188.345 24.7246 189.083C24.7246 189.821 24.1285 190.417 23.3905 190.417Z" fill="#CFD3DF"/>
<path d="M23.3905 213.523C22.766 213.523 22.2549 213.012 22.2549 212.388C22.2549 211.763 22.766 211.252 23.3905 211.252C24.015 211.252 24.526 211.763 24.526 212.388C24.526 213.012 24.015 213.523 23.3905 213.523Z" fill="#CFD3DF"/>
<path d="M23.3905 236.602C22.8795 236.602 22.4537 236.176 22.4537 235.665C22.4537 235.154 22.8795 234.728 23.3905 234.728C23.9014 234.728 24.3273 235.154 24.3273 235.665C24.3273 236.176 23.9014 236.602 23.3905 236.602Z" fill="#CFD3DF"/>
<path d="M23.3905 259.708C22.9647 259.708 22.624 259.368 22.624 258.942C22.624 258.516 22.9647 258.175 23.3905 258.175C23.8163 258.175 24.1569 258.516 24.1569 258.942C24.1569 259.368 23.8163 259.708 23.3905 259.708Z" fill="#CFD3DF"/>
<path d="M23.3905 282.815C23.704 282.815 23.9582 282.561 23.9582 282.247C23.9582 281.934 23.704 281.68 23.3905 281.68C23.0769 281.68 22.8227 281.934 22.8227 282.247C22.8227 282.561 23.0769 282.815 23.3905 282.815Z" fill="#CFD3DF"/>
<path d="M23.3905 305.893C23.1918 305.893 23.0214 305.723 23.0214 305.524C23.0214 305.326 23.1918 305.155 23.3905 305.155C23.5892 305.155 23.7595 305.326 23.7595 305.524C23.7595 305.723 23.5892 305.893 23.3905 305.893Z" fill="#CFD3DF"/>
<path d="M23.3905 329C23.277 329 23.1918 328.915 23.1918 328.801C23.1918 328.688 23.277 328.603 23.3905 328.603C23.504 328.603 23.5892 328.688 23.5892 328.801C23.5892 328.915 23.504 329 23.3905 329Z" fill="#CFD3DF"/>
<path d="M43.9423 5.67731C45.51 5.67731 46.7809 4.4064 46.7809 2.83865C46.7809 1.27091 45.51 0 43.9423 0C42.3745 0 41.1036 1.27091 41.1036 2.83865C41.1036 4.4064 42.3745 5.67731 43.9423 5.67731Z" fill="#CFD3DF"/>
<path d="M43.9423 28.7556C42.4662 28.7556 41.3024 27.5633 41.3024 26.1156C41.3024 24.6395 42.4946 23.4757 43.9423 23.4757C45.39 23.4757 46.5822 24.6679 46.5822 26.1156C46.5822 27.5633 45.39 28.7556 43.9423 28.7556Z" fill="#CFD3DF"/>
<path d="M43.9423 51.8623C42.5798 51.8623 41.4727 50.7552 41.4727 49.3927C41.4727 48.0301 42.5798 46.923 43.9423 46.923C45.3049 46.923 46.4119 48.0301 46.4119 49.3927C46.3836 50.7552 45.3049 51.8623 43.9423 51.8623Z" fill="#CFD3DF"/>
<path d="M43.9423 74.9405C45.1965 74.9405 46.2132 73.9238 46.2132 72.6696C46.2132 71.4154 45.1965 70.3987 43.9423 70.3987C42.6881 70.3987 41.6714 71.4154 41.6714 72.6696C41.6714 73.9238 42.6881 74.9405 43.9423 74.9405Z" fill="#CFD3DF"/>
<path d="M43.9423 98.0472C42.7784 98.0472 41.8701 97.1105 41.8701 95.975C41.8701 94.8111 42.8068 93.9028 43.9423 93.9028C45.0777 93.9028 46.0144 94.8395 46.0144 95.975C46.0144 97.1105 45.0777 98.0472 43.9423 98.0472Z" fill="#CFD3DF"/>
<path d="M43.9423 121.126C42.892 121.126 42.0405 120.274 42.0405 119.224C42.0405 118.173 42.892 117.322 43.9423 117.322C44.9926 117.322 45.8442 118.173 45.8442 119.224C45.8158 120.302 44.9926 121.126 43.9423 121.126Z" fill="#CFD3DF"/>
<path d="M43.9423 144.232C44.883 144.232 45.6456 143.47 45.6456 142.529C45.6456 141.588 44.883 140.826 43.9423 140.826C43.0017 140.826 42.2392 141.588 42.2392 142.529C42.2392 143.47 43.0017 144.232 43.9423 144.232Z" fill="#CFD3DF"/>
<path d="M43.9423 167.339C43.1191 167.339 42.4379 166.658 42.4379 165.835C42.4379 165.011 43.1191 164.33 43.9423 164.33C44.7655 164.33 45.4469 165.011 45.4469 165.835C45.4469 166.658 44.7655 167.339 43.9423 167.339Z" fill="#CFD3DF"/>
<path d="M43.9423 190.417C43.2042 190.417 42.6082 189.821 42.6082 189.083C42.6082 188.345 43.2042 187.749 43.9423 187.749C44.6803 187.749 45.2766 188.345 45.2766 189.083C45.2482 189.821 44.6803 190.417 43.9423 190.417Z" fill="#CFD3DF"/>
<path d="M43.9423 213.523C43.3178 213.523 42.8069 213.012 42.8069 212.388C42.8069 211.763 43.3178 211.252 43.9423 211.252C44.5668 211.252 45.0778 211.763 45.0778 212.388C45.0778 213.012 44.5668 213.523 43.9423 213.523Z" fill="#CFD3DF"/>
<path d="M43.9423 236.602C43.4313 236.602 43.0055 236.176 43.0055 235.665C43.0055 235.154 43.4313 234.728 43.9423 234.728C44.4533 234.728 44.8791 235.154 44.8791 235.665C44.8791 236.176 44.4533 236.602 43.9423 236.602Z" fill="#CFD3DF"/>
<path d="M43.9423 259.708C43.5165 259.708 43.1758 259.368 43.1758 258.942C43.1758 258.516 43.5165 258.175 43.9423 258.175C44.3681 258.175 44.7088 258.516 44.7088 258.942C44.6804 259.368 44.3397 259.708 43.9423 259.708Z" fill="#CFD3DF"/>
<path d="M43.9423 282.815C44.2558 282.815 44.51 282.561 44.51 282.247C44.51 281.934 44.2558 281.68 43.9423 281.68C43.6287 281.68 43.3745 281.934 43.3745 282.247C43.3745 282.561 43.6287 282.815 43.9423 282.815Z" fill="#CFD3DF"/>
<path d="M43.9423 305.893C43.7436 305.893 43.5732 305.723 43.5732 305.524C43.5732 305.326 43.7436 305.155 43.9423 305.155C44.141 305.155 44.3113 305.326 44.3113 305.524C44.3113 305.723 44.141 305.893 43.9423 305.893Z" fill="#CFD3DF"/>
<path d="M43.9423 329C43.8288 329 43.7436 328.915 43.7436 328.801C43.7436 328.688 43.8288 328.603 43.9423 328.603C44.0559 328.603 44.141 328.688 44.141 328.801C44.1127 328.915 44.0275 329 43.9423 329Z" fill="#CFD3DF"/>
<path d="M64.4657 5.67731C66.0335 5.67731 67.3044 4.4064 67.3044 2.83865C67.3044 1.27091 66.0335 0 64.4657 0C62.898 0 61.6271 1.27091 61.6271 2.83865C61.6271 4.4064 62.898 5.67731 64.4657 5.67731Z" fill="#CFD3DF"/>
<path d="M64.4657 28.7556C62.9896 28.7556 61.8258 27.5633 61.8258 26.1156C61.8258 24.6395 63.018 23.4757 64.4657 23.4757C65.9134 23.4757 67.1058 24.6679 67.1058 26.1156C67.1342 27.5633 65.9418 28.7556 64.4657 28.7556Z" fill="#CFD3DF"/>
<path d="M64.4657 51.8623C63.1032 51.8623 61.9961 50.7552 61.9961 49.3927C61.9961 48.0301 63.1032 46.923 64.4657 46.923C65.8283 46.923 66.9355 48.0301 66.9355 49.3927C66.9355 50.7552 65.8283 51.8623 64.4657 51.8623Z" fill="#CFD3DF"/>
<path d="M64.4657 74.9405C65.7199 74.9405 66.7368 73.9238 66.7368 72.6696C66.7368 71.4154 65.7199 70.3987 64.4657 70.3987C63.2115 70.3987 62.1948 71.4154 62.1948 72.6696C62.1948 73.9238 63.2115 74.9405 64.4657 74.9405Z" fill="#CFD3DF"/>
<path d="M64.4657 98.0472C63.3019 98.0472 62.3936 97.1105 62.3936 95.975C62.3936 94.8111 63.3303 93.9028 64.4657 93.9028C65.6012 93.9028 66.5381 94.8395 66.5381 95.975C66.5664 97.1105 65.6296 98.0472 64.4657 98.0472Z" fill="#CFD3DF"/>
<path d="M64.4657 121.126C63.4154 121.126 62.5638 120.274 62.5638 119.224C62.5638 118.173 63.4154 117.322 64.4657 117.322C65.516 117.322 66.3677 118.173 66.3677 119.224C66.3677 120.302 65.516 121.126 64.4657 121.126Z" fill="#CFD3DF"/>
<path d="M64.4657 144.232C65.4063 144.232 66.169 143.47 66.169 142.529C66.169 141.588 65.4063 140.826 64.4657 140.826C63.525 140.826 62.7626 141.588 62.7626 142.529C62.7626 143.47 63.525 144.232 64.4657 144.232Z" fill="#CFD3DF"/>
<path d="M64.4657 167.339C63.6425 167.339 62.9613 166.658 62.9613 165.835C62.9613 165.011 63.6425 164.33 64.4657 164.33C65.2889 164.33 65.9703 165.011 65.9703 165.835C65.9987 166.658 65.3173 167.339 64.4657 167.339Z" fill="#CFD3DF"/>
<path d="M64.4657 190.417C63.7277 190.417 63.1317 189.821 63.1317 189.083C63.1317 188.345 63.7277 187.749 64.4657 187.749C65.2038 187.749 65.8 188.345 65.8 189.083C65.8 189.821 65.2038 190.417 64.4657 190.417Z" fill="#CFD3DF"/>
<path d="M64.4657 213.523C63.8412 213.523 63.3304 213.012 63.3304 212.388C63.3304 211.763 63.8412 211.252 64.4657 211.252C65.0902 211.252 65.6013 211.763 65.6013 212.388C65.6013 213.012 65.1186 213.523 64.4657 213.523Z" fill="#CFD3DF"/>
<path d="M64.4657 236.602C63.9548 236.602 63.5291 236.176 63.5291 235.665C63.5291 235.154 63.9548 234.728 64.4657 234.728C64.9767 234.728 65.4025 235.154 65.4025 235.665C65.4309 236.176 65.0051 236.602 64.4657 236.602Z" fill="#CFD3DF"/>
<path d="M64.4657 259.708C64.889 259.708 65.2322 259.365 65.2322 258.942C65.2322 258.519 64.889 258.175 64.4657 258.175C64.0424 258.175 63.6994 258.519 63.6994 258.942C63.6994 259.365 64.0424 259.708 64.4657 259.708Z" fill="#CFD3DF"/>
<path d="M64.4657 282.815C64.7793 282.815 65.0335 282.561 65.0335 282.247C65.0335 281.934 64.7793 281.68 64.4657 281.68C64.1522 281.68 63.8981 281.934 63.8981 282.247C63.8981 282.561 64.1522 282.815 64.4657 282.815Z" fill="#CFD3DF"/>
<path d="M64.4657 305.893C64.267 305.893 64.0969 305.723 64.0969 305.524C64.0969 305.326 64.267 305.155 64.4657 305.155C64.6644 305.155 64.8348 305.326 64.8348 305.524C64.8632 305.723 64.6928 305.893 64.4657 305.893Z" fill="#CFD3DF"/>
<path d="M64.4657 329C64.3522 329 64.2672 328.915 64.2672 328.801C64.2672 328.688 64.3522 328.603 64.4657 328.603C64.5793 328.603 64.6644 328.688 64.6644 328.801C64.6644 328.915 64.5793 329 64.4657 329Z" fill="#CFD3DF"/>
<path d="M85.0177 5.67731C86.5855 5.67731 87.8564 4.4064 87.8564 2.83865C87.8564 1.27091 86.5855 0 85.0177 0C83.45 0 82.1791 1.27091 82.1791 2.83865C82.1791 4.4064 83.45 5.67731 85.0177 5.67731Z" fill="#CFD3DF"/>
<path d="M85.0177 28.7556C83.5416 28.7556 82.3776 27.5633 82.3776 26.1156C82.3776 24.6395 83.57 23.4757 85.0177 23.4757C86.4938 23.4757 87.6577 24.6679 87.6577 26.1156C87.686 27.5633 86.4938 28.7556 85.0177 28.7556Z" fill="#CFD3DF"/>
<path d="M85.0177 51.8623C83.6552 51.8623 82.5481 50.7552 82.5481 49.3927C82.5481 48.0301 83.6552 46.923 85.0177 46.923C86.3803 46.923 87.4873 48.0301 87.4873 49.3927C87.4873 50.7552 86.3803 51.8623 85.0177 51.8623Z" fill="#CFD3DF"/>
<path d="M85.0177 74.9405C83.7687 74.9405 82.7466 73.9186 82.7466 72.6696C82.7466 71.4206 83.7687 70.3987 85.0177 70.3987C86.2667 70.3987 87.2886 71.4206 87.2886 72.6696C87.2886 73.9186 86.2667 74.9405 85.0177 74.9405Z" fill="#CFD3DF"/>
<path d="M85.0177 98.0472C83.8822 98.0472 82.9454 97.1105 82.9454 95.975C82.9454 94.8111 83.8822 93.9028 85.0177 93.9028C86.1816 93.9028 87.0899 94.8395 87.0899 95.975C87.1183 97.1105 86.1816 98.0472 85.0177 98.0472Z" fill="#CFD3DF"/>
<path d="M85.0177 121.126C83.9674 121.126 83.1157 120.274 83.1157 119.224C83.1157 118.173 83.9674 117.322 85.0177 117.322C86.068 117.322 86.9195 118.173 86.9195 119.224C86.9195 120.302 86.068 121.126 85.0177 121.126Z" fill="#CFD3DF"/>
<path d="M85.0177 144.232C85.9583 144.232 86.7208 143.47 86.7208 142.529C86.7208 141.588 85.9583 140.826 85.0177 140.826C84.077 140.826 83.3144 141.588 83.3144 142.529C83.3144 143.47 84.077 144.232 85.0177 144.232Z" fill="#CFD3DF"/>
<path d="M85.0177 167.339C84.1945 167.339 83.5131 166.658 83.5131 165.835C83.5131 165.011 84.1945 164.33 85.0177 164.33C85.8409 164.33 86.5221 165.011 86.5221 165.835C86.5505 166.658 85.8693 167.339 85.0177 167.339Z" fill="#CFD3DF"/>
<path d="M85.0177 190.417C84.2797 190.417 83.6835 189.821 83.6835 189.083C83.6835 188.345 84.2797 187.749 85.0177 187.749C85.7558 187.749 86.3518 188.345 86.3518 189.083C86.3518 189.821 85.7558 190.417 85.0177 190.417Z" fill="#CFD3DF"/>
<path d="M85.0177 213.523C84.3932 213.523 83.8822 213.012 83.8822 212.388C83.8822 211.763 84.3932 211.252 85.0177 211.252C85.6422 211.252 86.1531 211.763 86.1531 212.388C86.1531 213.012 85.6422 213.523 85.0177 213.523Z" fill="#CFD3DF"/>
<path d="M85.0177 236.602C84.5068 236.602 84.0809 236.176 84.0809 235.665C84.0809 235.154 84.5068 234.728 85.0177 234.728C85.5287 234.728 85.9544 235.154 85.9544 235.665C85.9828 236.176 85.5571 236.602 85.0177 236.602Z" fill="#CFD3DF"/>
<path d="M85.0177 259.708C84.5919 259.708 84.2512 259.368 84.2512 258.942C84.2512 258.516 84.5919 258.175 85.0177 258.175C85.4435 258.175 85.784 258.516 85.784 258.942C85.784 259.368 85.4435 259.708 85.0177 259.708Z" fill="#CFD3DF"/>
<path d="M85.0177 282.815C84.7055 282.815 84.45 282.56 84.45 282.247C84.45 281.935 84.7055 281.68 85.0177 281.68C85.33 281.68 85.5853 281.935 85.5853 282.247C85.5853 282.56 85.33 282.815 85.0177 282.815Z" fill="#CFD3DF"/>
<path d="M85.0177 305.893C84.819 305.893 84.6487 305.723 84.6487 305.524C84.6487 305.326 84.819 305.155 85.0177 305.155C85.2164 305.155 85.3868 305.326 85.3868 305.524C85.4151 305.723 85.2448 305.893 85.0177 305.893Z" fill="#CFD3DF"/>
<path d="M85.0177 329C84.9042 329 84.819 328.915 84.819 328.801C84.819 328.688 84.9042 328.603 85.0177 328.603C85.1312 328.603 85.2162 328.688 85.2162 328.801C85.2162 328.915 85.1312 329 85.0177 329Z" fill="#CFD3DF"/>
<path d="M105.57 5.67731C107.137 5.67731 108.408 4.4064 108.408 2.83865C108.408 1.27091 107.137 0 105.57 0C104.002 0 102.731 1.27091 102.731 2.83865C102.731 4.4064 104.002 5.67731 105.57 5.67731Z" fill="#CFD3DF"/>
<path d="M105.57 28.7556C104.093 28.7556 102.93 27.5633 102.93 26.1156C102.93 24.6395 104.122 23.4757 105.57 23.4757C107.046 23.4757 108.209 24.6679 108.209 26.1156C108.209 27.5633 107.046 28.7556 105.57 28.7556Z" fill="#CFD3DF"/>
<path d="M105.57 51.8623C104.207 51.8623 103.1 50.7552 103.1 49.3927C103.1 48.0301 104.207 46.923 105.57 46.923C106.932 46.923 108.039 48.0301 108.039 49.3927C108.039 50.7552 106.932 51.8623 105.57 51.8623Z" fill="#CFD3DF"/>
<path d="M105.57 74.9405C104.321 74.9405 103.299 73.9186 103.299 72.6696C103.299 71.4206 104.321 70.3987 105.57 70.3987C106.819 70.3987 107.84 71.4206 107.84 72.6696C107.84 73.9186 106.819 74.9405 105.57 74.9405Z" fill="#CFD3DF"/>
<path d="M105.57 98.0472C104.434 98.0472 103.497 97.1105 103.497 95.975C103.497 94.8111 104.434 93.9028 105.57 93.9028C106.733 93.9028 107.642 94.8395 107.642 95.975C107.642 97.1105 106.705 98.0472 105.57 98.0472Z" fill="#CFD3DF"/>
<path d="M105.57 121.126C104.519 121.126 103.667 120.274 103.667 119.224C103.667 118.173 104.519 117.322 105.57 117.322C106.62 117.322 107.471 118.173 107.471 119.224C107.471 120.302 106.62 121.126 105.57 121.126Z" fill="#CFD3DF"/>
<path d="M105.57 144.232C104.633 144.232 103.866 143.466 103.866 142.529C103.866 141.592 104.633 140.826 105.57 140.826C106.506 140.826 107.273 141.592 107.273 142.529C107.273 143.466 106.506 144.232 105.57 144.232Z" fill="#CFD3DF"/>
<path d="M105.57 167.339C104.746 167.339 104.065 166.658 104.065 165.835C104.065 165.011 104.746 164.33 105.57 164.33C106.393 164.33 107.074 165.011 107.074 165.835C107.074 166.658 106.393 167.339 105.57 167.339Z" fill="#CFD3DF"/>
<path d="M105.569 190.417C104.831 190.417 104.235 189.821 104.235 189.083C104.235 188.345 104.831 187.749 105.569 187.749C106.308 187.749 106.904 188.345 106.904 189.083C106.904 189.821 106.308 190.417 105.569 190.417Z" fill="#CFD3DF"/>
<path d="M105.569 213.523C104.945 213.523 104.434 213.012 104.434 212.388C104.434 211.763 104.945 211.252 105.569 211.252C106.194 211.252 106.705 211.763 106.705 212.388C106.705 213.012 106.194 213.523 105.569 213.523Z" fill="#CFD3DF"/>
<path d="M105.569 236.602C105.059 236.602 104.633 236.176 104.633 235.665C104.633 235.154 105.059 234.728 105.569 234.728C106.08 234.728 106.506 235.154 106.506 235.665C106.506 236.176 106.08 236.602 105.569 236.602Z" fill="#CFD3DF"/>
<path d="M105.57 259.708C105.144 259.708 104.803 259.368 104.803 258.942C104.803 258.516 105.144 258.175 105.57 258.175C105.995 258.175 106.336 258.516 106.336 258.942C106.336 259.368 105.995 259.708 105.57 259.708Z" fill="#CFD3DF"/>
<path d="M105.569 282.815C105.257 282.815 105.002 282.56 105.002 282.247C105.002 281.935 105.257 281.68 105.569 281.68C105.882 281.68 106.137 281.935 106.137 282.247C106.137 282.56 105.882 282.815 105.569 282.815Z" fill="#CFD3DF"/>
<path d="M105.569 305.893C105.371 305.893 105.2 305.723 105.2 305.524C105.2 305.326 105.371 305.155 105.569 305.155C105.768 305.155 105.939 305.326 105.939 305.524C105.939 305.723 105.768 305.893 105.569 305.893Z" fill="#CFD3DF"/>
<path d="M105.57 329C105.456 329 105.371 328.915 105.371 328.801C105.371 328.688 105.456 328.603 105.57 328.603C105.683 328.603 105.768 328.688 105.768 328.801C105.768 328.915 105.683 329 105.57 329Z" fill="#CFD3DF"/>
<path d="M126.121 5.67731C127.689 5.67731 128.96 4.4064 128.96 2.83865C128.96 1.27091 127.689 0 126.121 0C124.554 0 123.283 1.27091 123.283 2.83865C123.283 4.4064 124.554 5.67731 126.121 5.67731Z" fill="#CFD3DF"/>
<path d="M126.121 28.7556C124.645 28.7556 123.481 27.5633 123.481 26.1156C123.481 24.6395 124.674 23.4757 126.121 23.4757C127.597 23.4757 128.761 24.6679 128.761 26.1156C128.761 27.5633 127.569 28.7556 126.121 28.7556Z" fill="#CFD3DF"/>
<path d="M126.121 51.8623C124.759 51.8623 123.652 50.7552 123.652 49.3927C123.652 48.0301 124.759 46.923 126.121 46.923C127.484 46.923 128.591 48.0301 128.591 49.3927C128.563 50.7552 127.484 51.8623 126.121 51.8623Z" fill="#CFD3DF"/>
<path d="M126.121 74.9405C124.872 74.9405 123.85 73.9186 123.85 72.6696C123.85 71.4206 124.872 70.3987 126.121 70.3987C127.37 70.3987 128.392 71.4206 128.392 72.6696C128.392 73.9186 127.37 74.9405 126.121 74.9405Z" fill="#CFD3DF"/>
<path d="M126.121 98.0472C124.958 98.0472 124.049 97.1105 124.049 95.975C124.049 94.8111 124.986 93.9028 126.121 93.9028C127.257 93.9028 128.194 94.8395 128.194 95.975C128.194 97.1105 127.257 98.0472 126.121 98.0472Z" fill="#CFD3DF"/>
<path d="M126.121 121.126C125.071 121.126 124.219 120.274 124.219 119.224C124.219 118.173 125.071 117.322 126.121 117.322C127.172 117.322 128.023 118.173 128.023 119.224C127.995 120.302 127.172 121.126 126.121 121.126Z" fill="#CFD3DF"/>
<path d="M126.121 144.232C127.062 144.232 127.824 143.47 127.824 142.529C127.824 141.588 127.062 140.826 126.121 140.826C125.181 140.826 124.418 141.588 124.418 142.529C124.418 143.47 125.181 144.232 126.121 144.232Z" fill="#CFD3DF"/>
<path d="M126.121 167.339C125.298 167.339 124.617 166.658 124.617 165.835C124.617 165.011 125.298 164.33 126.121 164.33C126.945 164.33 127.626 165.011 127.626 165.835C127.626 166.658 126.945 167.339 126.121 167.339Z" fill="#CFD3DF"/>
<path d="M126.121 190.417C125.383 190.417 124.787 189.821 124.787 189.083C124.787 188.345 125.383 187.749 126.121 187.749C126.859 187.749 127.455 188.345 127.455 189.083C127.427 189.821 126.859 190.417 126.121 190.417Z" fill="#CFD3DF"/>
<path d="M126.121 213.523C125.497 213.523 124.986 213.012 124.986 212.388C124.986 211.763 125.497 211.252 126.121 211.252C126.746 211.252 127.257 211.763 127.257 212.388C127.257 213.012 126.746 213.523 126.121 213.523Z" fill="#CFD3DF"/>
<path d="M126.121 236.602C125.61 236.602 125.185 236.176 125.185 235.665C125.185 235.154 125.61 234.728 126.121 234.728C126.632 234.728 127.058 235.154 127.058 235.665C127.058 236.176 126.632 236.602 126.121 236.602Z" fill="#CFD3DF"/>
<path d="M126.121 259.708C126.545 259.708 126.888 259.365 126.888 258.942C126.888 258.519 126.545 258.175 126.121 258.175C125.698 258.175 125.355 258.519 125.355 258.942C125.355 259.365 125.698 259.708 126.121 259.708Z" fill="#CFD3DF"/>
<path d="M126.121 282.815C125.809 282.815 125.554 282.56 125.554 282.247C125.554 281.935 125.809 281.68 126.121 281.68C126.434 281.68 126.689 281.935 126.689 282.247C126.689 282.56 126.434 282.815 126.121 282.815Z" fill="#CFD3DF"/>
<path d="M126.121 305.893C125.923 305.893 125.752 305.723 125.752 305.524C125.752 305.326 125.923 305.155 126.121 305.155C126.32 305.155 126.49 305.326 126.49 305.524C126.49 305.723 126.32 305.893 126.121 305.893Z" fill="#CFD3DF"/>
<path d="M126.121 329C126.008 329 125.923 328.915 125.923 328.801C125.923 328.688 126.008 328.603 126.121 328.603C126.235 328.603 126.32 328.688 126.32 328.801C126.292 328.915 126.206 329 126.121 329Z" fill="#CFD3DF"/>
<path d="M146.645 5.67731C148.213 5.67731 149.483 4.4064 149.483 2.83865C149.483 1.27091 148.213 0 146.645 0C145.077 0 143.806 1.27091 143.806 2.83865C143.806 4.4064 145.077 5.67731 146.645 5.67731Z" fill="#CFD3DF"/>
<path d="M146.645 28.7556C145.169 28.7556 144.005 27.5633 144.005 26.1156C144.005 24.6395 145.197 23.4757 146.645 23.4757C148.121 23.4757 149.285 24.6679 149.285 26.1156C149.313 27.5633 148.121 28.7556 146.645 28.7556Z" fill="#CFD3DF"/>
<path d="M146.645 51.8623C145.282 51.8623 144.175 50.7552 144.175 49.3927C144.175 48.0301 145.282 46.923 146.645 46.923C148.007 46.923 149.114 48.0301 149.114 49.3927C149.114 50.7552 148.007 51.8623 146.645 51.8623Z" fill="#CFD3DF"/>
<path d="M146.645 74.9405C147.899 74.9405 148.916 73.9238 148.916 72.6696C148.916 71.4154 147.899 70.3987 146.645 70.3987C145.391 70.3987 144.374 71.4154 144.374 72.6696C144.374 73.9238 145.391 74.9405 146.645 74.9405Z" fill="#CFD3DF"/>
<path d="M146.645 98.0472C145.481 98.0472 144.573 97.1105 144.573 95.975C144.573 94.8111 145.509 93.9028 146.645 93.9028C147.78 93.9028 148.717 94.8395 148.717 95.975C148.746 97.1105 147.809 98.0472 146.645 98.0472Z" fill="#CFD3DF"/>
<path d="M146.645 121.126C145.594 121.126 144.743 120.274 144.743 119.224C144.743 118.173 145.594 117.322 146.645 117.322C147.695 117.322 148.547 118.173 148.547 119.224C148.547 120.302 147.695 121.126 146.645 121.126Z" fill="#CFD3DF"/>
<path d="M146.645 144.232C147.585 144.232 148.348 143.47 148.348 142.529C148.348 141.588 147.585 140.826 146.645 140.826C145.704 140.826 144.942 141.588 144.942 142.529C144.942 143.47 145.704 144.232 146.645 144.232Z" fill="#CFD3DF"/>
<path d="M146.645 167.339C145.822 167.339 145.14 166.658 145.14 165.835C145.14 165.011 145.822 164.33 146.645 164.33C147.468 164.33 148.149 165.011 148.149 165.835C148.178 166.658 147.496 167.339 146.645 167.339Z" fill="#CFD3DF"/>
<path d="M146.645 190.417C145.907 190.417 145.311 189.821 145.311 189.083C145.311 188.345 145.907 187.749 146.645 187.749C147.383 187.749 147.979 188.345 147.979 189.083C147.979 189.821 147.383 190.417 146.645 190.417Z" fill="#CFD3DF"/>
<path d="M146.645 213.523C146.02 213.523 145.509 213.012 145.509 212.388C145.509 211.763 146.02 211.252 146.645 211.252C147.269 211.252 147.78 211.763 147.78 212.388C147.78 213.012 147.298 213.523 146.645 213.523Z" fill="#CFD3DF"/>
<path d="M146.645 236.602C146.134 236.602 145.708 236.176 145.708 235.665C145.708 235.154 146.134 234.728 146.645 234.728C147.156 234.728 147.582 235.154 147.582 235.665C147.61 236.176 147.184 236.602 146.645 236.602Z" fill="#CFD3DF"/>
<path d="M146.645 259.708C146.219 259.708 145.878 259.368 145.878 258.942C145.878 258.516 146.219 258.175 146.645 258.175C147.071 258.175 147.411 258.516 147.411 258.942C147.411 259.368 147.071 259.708 146.645 259.708Z" fill="#CFD3DF"/>
<path d="M146.645 282.815C146.958 282.815 147.213 282.561 147.213 282.247C147.213 281.934 146.958 281.68 146.645 281.68C146.331 281.68 146.077 281.934 146.077 282.247C146.077 282.561 146.331 282.815 146.645 282.815Z" fill="#CFD3DF"/>
<path d="M146.645 305.893C146.446 305.893 146.276 305.723 146.276 305.524C146.276 305.326 146.446 305.155 146.645 305.155C146.844 305.155 147.014 305.326 147.014 305.524C147.042 305.723 146.872 305.893 146.645 305.893Z" fill="#CFD3DF"/>
<path d="M146.645 329C146.531 329 146.446 328.915 146.446 328.801C146.446 328.688 146.531 328.603 146.645 328.603C146.758 328.603 146.843 328.688 146.843 328.801C146.843 328.915 146.758 329 146.645 329Z" fill="#CFD3DF"/>
<path d="M167.197 5.67731C168.764 5.67731 170.035 4.4064 170.035 2.83865C170.035 1.27091 168.764 0 167.197 0C165.629 0 164.358 1.27091 164.358 2.83865C164.358 4.4064 165.629 5.67731 167.197 5.67731Z" fill="#CFD3DF"/>
<path d="M167.197 28.7556C165.72 28.7556 164.557 27.5633 164.557 26.1156C164.557 24.6395 165.749 23.4757 167.197 23.4757C168.644 23.4757 169.837 24.6679 169.837 26.1156C169.865 27.5633 168.673 28.7556 167.197 28.7556Z" fill="#CFD3DF"/>
<path d="M167.197 51.8623C168.56 51.8623 169.666 50.7566 169.666 49.3927C169.666 48.0287 168.56 46.923 167.197 46.923C165.833 46.923 164.727 48.0287 164.727 49.3927C164.727 50.7566 165.833 51.8623 167.197 51.8623Z" fill="#CFD3DF"/>
<path d="M167.197 74.9405C168.451 74.9405 169.468 73.9238 169.468 72.6696C169.468 71.4154 168.451 70.3987 167.197 70.3987C165.942 70.3987 164.926 71.4154 164.926 72.6696C164.926 73.9238 165.942 74.9405 167.197 74.9405Z" fill="#CFD3DF"/>
<path d="M167.197 98.0472C166.061 98.0472 165.124 97.1105 165.124 95.975C165.124 94.8111 166.061 93.9028 167.197 93.9028C168.36 93.9028 169.269 94.8395 169.269 95.975C169.297 97.1105 168.36 98.0472 167.197 98.0472Z" fill="#CFD3DF"/>
<path d="M167.197 121.126C166.146 121.126 165.295 120.274 165.295 119.224C165.295 118.173 166.146 117.322 167.197 117.322C168.247 117.322 169.099 118.173 169.099 119.224C169.099 120.302 168.247 121.126 167.197 121.126Z" fill="#CFD3DF"/>
<path d="M167.197 144.232C168.137 144.232 168.9 143.47 168.9 142.529C168.9 141.588 168.137 140.826 167.197 140.826C166.256 140.826 165.494 141.588 165.494 142.529C165.494 143.47 166.256 144.232 167.197 144.232Z" fill="#CFD3DF"/>
<path d="M167.197 167.339C166.373 167.339 165.692 166.658 165.692 165.835C165.692 165.011 166.373 164.33 167.197 164.33C168.02 164.33 168.701 165.011 168.701 165.835C168.73 166.658 168.048 167.339 167.197 167.339Z" fill="#CFD3DF"/>
<path d="M167.197 190.417C166.459 190.417 165.863 189.821 165.863 189.083C165.863 188.345 166.459 187.749 167.197 187.749C167.935 187.749 168.531 188.345 168.531 189.083C168.531 189.821 167.935 190.417 167.197 190.417Z" fill="#CFD3DF"/>
<path d="M167.197 213.523C166.572 213.523 166.061 213.012 166.061 212.388C166.061 211.763 166.572 211.252 167.197 211.252C167.821 211.252 168.332 211.763 168.332 212.388C168.332 213.012 167.821 213.523 167.197 213.523Z" fill="#CFD3DF"/>
<path d="M167.197 236.602C166.686 236.602 166.26 236.176 166.26 235.665C166.26 235.154 166.686 234.728 167.197 234.728C167.708 234.728 168.133 235.154 168.133 235.665C168.162 236.176 167.736 236.602 167.197 236.602Z" fill="#CFD3DF"/>
<path d="M167.197 259.708C167.62 259.708 167.963 259.365 167.963 258.942C167.963 258.519 167.62 258.175 167.197 258.175C166.773 258.175 166.43 258.519 166.43 258.942C166.43 259.365 166.773 259.708 167.197 259.708Z" fill="#CFD3DF"/>
<path d="M167.197 282.815C167.51 282.815 167.764 282.561 167.764 282.247C167.764 281.934 167.51 281.68 167.197 281.68C166.883 281.68 166.629 281.934 166.629 282.247C166.629 282.561 166.883 282.815 167.197 282.815Z" fill="#CFD3DF"/>
<path d="M167.197 305.893C167.4 305.893 167.566 305.728 167.566 305.524C167.566 305.321 167.4 305.155 167.197 305.155C166.993 305.155 166.828 305.321 166.828 305.524C166.828 305.728 166.993 305.893 167.197 305.893Z" fill="#CFD3DF"/>
<path d="M167.197 329C167.083 329 166.998 328.915 166.998 328.801C166.998 328.688 167.083 328.603 167.197 328.603C167.31 328.603 167.395 328.688 167.395 328.801C167.395 328.915 167.31 329 167.197 329Z" fill="#CFD3DF"/>
<path d="M187.749 5.67731C189.316 5.67731 190.587 4.4064 190.587 2.83865C190.587 1.27091 189.316 0 187.749 0C186.181 0 184.91 1.27091 184.91 2.83865C184.91 4.4064 186.181 5.67731 187.749 5.67731Z" fill="#CFD3DF"/>
<path d="M187.749 28.7556C186.273 28.7556 185.109 27.5633 185.109 26.1156C185.109 24.6395 186.301 23.4757 187.749 23.4757C189.225 23.4757 190.389 24.6679 190.389 26.1156C190.389 27.5633 189.225 28.7556 187.749 28.7556Z" fill="#CFD3DF"/>
<path d="M187.749 51.8623C186.386 51.8623 185.279 50.7552 185.279 49.3927C185.279 48.0301 186.386 46.923 187.749 46.923C189.111 46.923 190.218 48.0301 190.218 49.3927C190.218 50.7552 189.111 51.8623 187.749 51.8623Z" fill="#CFD3DF"/>
<path d="M187.749 74.9405C189.003 74.9405 190.019 73.9238 190.019 72.6696C190.019 71.4154 189.003 70.3987 187.749 70.3987C186.494 70.3987 185.478 71.4154 185.478 72.6696C185.478 73.9238 186.494 74.9405 187.749 74.9405Z" fill="#CFD3DF"/>
<path d="M187.749 98.0472C186.585 98.0472 185.676 97.1105 185.676 95.975C185.676 94.8111 186.613 93.9028 187.749 93.9028C188.912 93.9028 189.821 94.8395 189.821 95.975C189.821 97.1105 188.884 98.0472 187.749 98.0472Z" fill="#CFD3DF"/>
<path d="M187.749 121.126C186.698 121.126 185.847 120.274 185.847 119.224C185.847 118.173 186.698 117.322 187.749 117.322C188.799 117.322 189.65 118.173 189.65 119.224C189.65 120.302 188.799 121.126 187.749 121.126Z" fill="#CFD3DF"/>
<path d="M187.749 144.232C188.689 144.232 189.452 143.47 189.452 142.529C189.452 141.588 188.689 140.826 187.749 140.826C186.808 140.826 186.045 141.588 186.045 142.529C186.045 143.47 186.808 144.232 187.749 144.232Z" fill="#CFD3DF"/>
<path d="M187.749 167.339C186.925 167.339 186.244 166.658 186.244 165.835C186.244 165.011 186.925 164.33 187.749 164.33C188.572 164.33 189.253 165.011 189.253 165.835C189.253 166.658 188.572 167.339 187.749 167.339Z" fill="#CFD3DF"/>
<path d="M187.749 190.417C187.011 190.417 186.414 189.821 186.414 189.083C186.414 188.345 187.011 187.749 187.749 187.749C188.487 187.749 189.083 188.345 189.083 189.083C189.083 189.821 188.487 190.417 187.749 190.417Z" fill="#CFD3DF"/>
<path d="M187.749 213.523C187.124 213.523 186.613 213.012 186.613 212.388C186.613 211.763 187.124 211.252 187.749 211.252C188.373 211.252 188.884 211.763 188.884 212.388C188.884 213.012 188.373 213.523 187.749 213.523Z" fill="#CFD3DF"/>
<path d="M187.749 236.602C187.238 236.602 186.812 236.176 186.812 235.665C186.812 235.154 187.238 234.728 187.749 234.728C188.26 234.728 188.685 235.154 188.685 235.665C188.685 236.176 188.26 236.602 187.749 236.602Z" fill="#CFD3DF"/>
<path d="M187.749 259.708C187.323 259.708 186.982 259.368 186.982 258.942C186.982 258.516 187.323 258.175 187.749 258.175C188.174 258.175 188.515 258.516 188.515 258.942C188.515 259.368 188.174 259.708 187.749 259.708Z" fill="#CFD3DF"/>
<path d="M187.749 282.815C188.062 282.815 188.316 282.561 188.316 282.247C188.316 281.934 188.062 281.68 187.749 281.68C187.435 281.68 187.181 281.934 187.181 282.247C187.181 282.561 187.435 282.815 187.749 282.815Z" fill="#CFD3DF"/>
<path d="M187.749 305.893C187.55 305.893 187.38 305.723 187.38 305.524C187.38 305.326 187.55 305.155 187.749 305.155C187.947 305.155 188.117 305.326 188.117 305.524C188.117 305.723 187.947 305.893 187.749 305.893Z" fill="#CFD3DF"/>
<path d="M187.749 329C187.635 329 187.55 328.915 187.55 328.801C187.55 328.688 187.635 328.603 187.749 328.603C187.862 328.603 187.947 328.688 187.947 328.801C187.947 328.915 187.862 329 187.749 329Z" fill="#CFD3DF"/>
<path d="M208.3 5.67731C209.868 5.67731 211.139 4.4064 211.139 2.83865C211.139 1.27091 209.868 0 208.3 0C206.733 0 205.462 1.27091 205.462 2.83865C205.462 4.4064 206.733 5.67731 208.3 5.67731Z" fill="#CFD3DF"/>
<path d="M208.3 28.7556C206.824 28.7556 205.661 27.5633 205.661 26.1156C205.661 24.6395 206.853 23.4757 208.3 23.4757C209.777 23.4757 210.94 24.6679 210.94 26.1156C210.94 27.5633 209.748 28.7556 208.3 28.7556Z" fill="#CFD3DF"/>
<path d="M208.3 51.8623C206.938 51.8623 205.831 50.7552 205.831 49.3927C205.831 48.0301 206.938 46.923 208.3 46.923C209.663 46.923 210.77 48.0301 210.77 49.3927C210.742 50.7552 209.663 51.8623 208.3 51.8623Z" fill="#CFD3DF"/>
<path d="M208.3 74.9405C209.555 74.9405 210.571 73.9238 210.571 72.6696C210.571 71.4154 209.555 70.3987 208.3 70.3987C207.046 70.3987 206.03 71.4154 206.03 72.6696C206.03 73.9238 207.046 74.9405 208.3 74.9405Z" fill="#CFD3DF"/>
<path d="M208.3 98.0472C207.137 98.0472 206.228 97.1105 206.228 95.975C206.228 94.8111 207.165 93.9028 208.3 93.9028C209.436 93.9028 210.373 94.8395 210.373 95.975C210.373 97.1105 209.436 98.0472 208.3 98.0472Z" fill="#CFD3DF"/>
<path d="M208.3 121.126C207.25 121.126 206.398 120.274 206.398 119.224C206.398 118.173 207.25 117.322 208.3 117.322C209.351 117.322 210.202 118.173 210.202 119.224C210.174 120.302 209.351 121.126 208.3 121.126Z" fill="#CFD3DF"/>
<path d="M208.3 144.232C207.364 144.232 206.597 143.466 206.597 142.529C206.597 141.592 207.364 140.826 208.3 140.826C209.237 140.826 210.004 141.592 210.004 142.529C210.004 143.466 209.237 144.232 208.3 144.232Z" fill="#CFD3DF"/>
<path d="M208.3 167.339C207.477 167.339 206.796 166.658 206.796 165.835C206.796 165.011 207.477 164.33 208.3 164.33C209.124 164.33 209.805 165.011 209.805 165.835C209.805 166.658 209.124 167.339 208.3 167.339Z" fill="#CFD3DF"/>
<path d="M208.3 190.417C207.562 190.417 206.966 189.821 206.966 189.083C206.966 188.345 207.562 187.749 208.3 187.749C209.038 187.749 209.635 188.345 209.635 189.083C209.606 189.821 209.01 190.417 208.3 190.417Z" fill="#CFD3DF"/>
<path d="M208.3 213.523C207.676 213.523 207.165 213.012 207.165 212.388C207.165 211.763 207.676 211.252 208.3 211.252C208.925 211.252 209.436 211.763 209.436 212.388C209.436 213.012 208.925 213.523 208.3 213.523Z" fill="#CFD3DF"/>
<path d="M208.3 236.602C208.818 236.602 209.237 236.182 209.237 235.665C209.237 235.147 208.818 234.728 208.3 234.728C207.783 234.728 207.364 235.147 207.364 235.665C207.364 236.182 207.783 236.602 208.3 236.602Z" fill="#CFD3DF"/>
<path d="M208.3 259.708C207.875 259.708 207.534 259.368 207.534 258.942C207.534 258.516 207.875 258.175 208.3 258.175C208.726 258.175 209.067 258.516 209.067 258.942C209.038 259.368 208.698 259.708 208.3 259.708Z" fill="#CFD3DF"/>
<path d="M208.3 282.815C208.614 282.815 208.868 282.561 208.868 282.247C208.868 281.934 208.614 281.68 208.3 281.68C207.987 281.68 207.733 281.934 207.733 282.247C207.733 282.561 207.987 282.815 208.3 282.815Z" fill="#CFD3DF"/>
<path d="M208.3 305.893C208.102 305.893 207.931 305.723 207.931 305.524C207.931 305.326 208.102 305.155 208.3 305.155C208.499 305.155 208.669 305.326 208.669 305.524C208.669 305.723 208.499 305.893 208.3 305.893Z" fill="#CFD3DF"/>
<path d="M208.3 329C208.187 329 208.102 328.915 208.102 328.801C208.102 328.688 208.187 328.603 208.3 328.603C208.414 328.603 208.499 328.688 208.499 328.801C208.471 328.915 208.386 329 208.3 329Z" fill="#CFD3DF"/>
<path d="M228.824 5.67731C230.392 5.67731 231.662 4.4064 231.662 2.83865C231.662 1.27091 230.392 0 228.824 0C227.256 0 225.985 1.27091 225.985 2.83865C225.985 4.4064 227.256 5.67731 228.824 5.67731Z" fill="#CFD3DF"/>
<path d="M228.824 28.7556C227.348 28.7556 226.184 27.5633 226.184 26.1156C226.184 24.6395 227.376 23.4757 228.824 23.4757C230.3 23.4757 231.464 24.6679 231.464 26.1156C231.492 27.5633 230.3 28.7556 228.824 28.7556Z" fill="#CFD3DF"/>
<path d="M228.824 51.8623C227.461 51.8623 226.354 50.7552 226.354 49.3927C226.354 48.0301 227.461 46.923 228.824 46.923C230.186 46.923 231.293 48.0301 231.293 49.3927C231.293 50.7552 230.186 51.8623 228.824 51.8623Z" fill="#CFD3DF"/>
<path d="M228.824 74.9405C227.575 74.9405 226.553 73.9186 226.553 72.6696C226.553 71.4206 227.575 70.3987 228.824 70.3987C230.073 70.3987 231.095 71.4206 231.095 72.6696C231.095 73.9186 230.101 74.9405 228.824 74.9405Z" fill="#CFD3DF"/>
<path d="M228.824 98.0472C227.66 98.0472 226.752 97.1105 226.752 95.975C226.752 94.8111 227.688 93.9028 228.824 93.9028C229.959 93.9028 230.896 94.8395 230.896 95.975C230.924 97.1105 229.988 98.0472 228.824 98.0472Z" fill="#CFD3DF"/>
<path d="M228.824 121.126C227.774 121.126 226.922 120.274 226.922 119.224C226.922 118.173 227.774 117.322 228.824 117.322C229.874 117.322 230.726 118.173 230.726 119.224C230.726 120.302 229.874 121.126 228.824 121.126Z" fill="#CFD3DF"/>
<path d="M228.824 144.232C227.887 144.232 227.121 143.466 227.121 142.529C227.121 141.592 227.887 140.826 228.824 140.826C229.761 140.826 230.527 141.592 230.527 142.529C230.527 143.466 229.789 144.232 228.824 144.232Z" fill="#CFD3DF"/>
<path d="M228.824 167.339C228.001 167.339 227.319 166.658 227.319 165.835C227.319 165.011 228.001 164.33 228.824 164.33C229.647 164.33 230.328 165.011 230.328 165.835C230.357 166.658 229.675 167.339 228.824 167.339Z" fill="#CFD3DF"/>
<path d="M228.824 190.417C228.086 190.417 227.49 189.821 227.49 189.083C227.49 188.345 228.086 187.749 228.824 187.749C229.562 187.749 230.158 188.345 230.158 189.083C230.158 189.821 229.562 190.417 228.824 190.417Z" fill="#CFD3DF"/>
<path d="M228.824 213.523C228.199 213.523 227.688 213.012 227.688 212.388C227.688 211.763 228.199 211.252 228.824 211.252C229.448 211.252 229.959 211.763 229.959 212.388C229.959 213.012 229.477 213.523 228.824 213.523Z" fill="#CFD3DF"/>
<path d="M228.824 236.602C228.313 236.602 227.887 236.176 227.887 235.665C227.887 235.154 228.313 234.728 228.824 234.728C229.335 234.728 229.761 235.154 229.761 235.665C229.789 236.176 229.363 236.602 228.824 236.602Z" fill="#CFD3DF"/>
<path d="M228.824 259.708C228.398 259.708 228.057 259.368 228.057 258.942C228.057 258.516 228.398 258.175 228.824 258.175C229.25 258.175 229.59 258.516 229.59 258.942C229.59 259.368 229.25 259.708 228.824 259.708Z" fill="#CFD3DF"/>
<path d="M228.824 282.815C228.511 282.815 228.256 282.56 228.256 282.247C228.256 281.935 228.511 281.68 228.824 281.68C229.136 281.68 229.392 281.935 229.392 282.247C229.392 282.56 229.164 282.815 228.824 282.815Z" fill="#CFD3DF"/>
<path d="M228.824 305.893C228.625 305.893 228.455 305.723 228.455 305.524C228.455 305.326 228.625 305.155 228.824 305.155C229.022 305.155 229.193 305.326 229.193 305.524C229.221 305.723 229.051 305.893 228.824 305.893Z" fill="#CFD3DF"/>
<path d="M228.824 329C228.71 329 228.625 328.915 228.625 328.801C228.625 328.688 228.71 328.603 228.824 328.603C228.937 328.603 229.023 328.688 229.023 328.801C229.023 328.915 228.937 329 228.824 329Z" fill="#CFD3DF"/>
<path d="M249.376 5.67731C250.943 5.67731 252.214 4.4064 252.214 2.83865C252.214 1.27091 250.943 0 249.376 0C247.808 0 246.537 1.27091 246.537 2.83865C246.537 4.4064 247.808 5.67731 249.376 5.67731Z" fill="#CFD3DF"/>
<path d="M249.376 28.7556C247.9 28.7556 246.736 27.5633 246.736 26.1156C246.736 24.6395 247.928 23.4757 249.376 23.4757C250.823 23.4757 252.016 24.6679 252.016 26.1156C252.044 27.5633 250.852 28.7556 249.376 28.7556Z" fill="#CFD3DF"/>
<path d="M249.376 51.8623C250.74 51.8623 251.845 50.7566 251.845 49.3927C251.845 48.0287 250.74 46.923 249.376 46.923C248.012 46.923 246.906 48.0287 246.906 49.3927C246.906 50.7566 248.012 51.8623 249.376 51.8623Z" fill="#CFD3DF"/>
<path d="M249.376 74.9405C248.127 74.9405 247.105 73.9186 247.105 72.6696C247.105 71.4206 248.127 70.3987 249.376 70.3987C250.625 70.3987 251.647 71.4206 251.647 72.6696C251.647 73.9186 250.625 74.9405 249.376 74.9405Z" fill="#CFD3DF"/>
<path d="M249.376 98.0472C248.24 98.0472 247.303 97.1105 247.303 95.975C247.303 94.8111 248.24 93.9028 249.376 93.9028C250.539 93.9028 251.448 94.8395 251.448 95.975C251.476 97.1105 250.539 98.0472 249.376 98.0472Z" fill="#CFD3DF"/>
<path d="M249.376 121.126C248.325 121.126 247.474 120.274 247.474 119.224C247.474 118.173 248.325 117.322 249.376 117.322C250.426 117.322 251.277 118.173 251.277 119.224C251.277 120.302 250.426 121.126 249.376 121.126Z" fill="#CFD3DF"/>
<path d="M249.376 144.232C250.316 144.232 251.079 143.47 251.079 142.529C251.079 141.588 250.316 140.826 249.376 140.826C248.435 140.826 247.672 141.588 247.672 142.529C247.672 143.47 248.435 144.232 249.376 144.232Z" fill="#CFD3DF"/>
<path d="M249.376 167.339C248.552 167.339 247.871 166.658 247.871 165.835C247.871 165.011 248.552 164.33 249.376 164.33C250.199 164.33 250.88 165.011 250.88 165.835C250.909 166.658 250.227 167.339 249.376 167.339Z" fill="#CFD3DF"/>
<path d="M249.376 190.417C248.638 190.417 248.042 189.821 248.042 189.083C248.042 188.345 248.638 187.749 249.376 187.749C250.114 187.749 250.71 188.345 250.71 189.083C250.71 189.821 250.114 190.417 249.376 190.417Z" fill="#CFD3DF"/>
<path d="M249.376 213.523C248.751 213.523 248.24 213.012 248.24 212.388C248.24 211.763 248.751 211.252 249.376 211.252C250 211.252 250.511 211.763 250.511 212.388C250.511 213.012 250 213.523 249.376 213.523Z" fill="#CFD3DF"/>
<path d="M249.376 236.602C248.865 236.602 248.439 236.176 248.439 235.665C248.439 235.154 248.865 234.728 249.376 234.728C249.887 234.728 250.312 235.154 250.312 235.665C250.341 236.176 249.915 236.602 249.376 236.602Z" fill="#CFD3DF"/>
<path d="M249.376 259.708C248.95 259.708 248.609 259.368 248.609 258.942C248.609 258.516 248.95 258.175 249.376 258.175C249.801 258.175 250.142 258.516 250.142 258.942C250.142 259.368 249.801 259.708 249.376 259.708Z" fill="#CFD3DF"/>
<path d="M249.376 282.815C249.063 282.815 248.808 282.56 248.808 282.247C248.808 281.935 249.063 281.68 249.376 281.68C249.688 281.68 249.943 281.935 249.943 282.247C249.943 282.56 249.688 282.815 249.376 282.815Z" fill="#CFD3DF"/>
<path d="M249.376 305.893C249.579 305.893 249.745 305.728 249.745 305.524C249.745 305.321 249.579 305.155 249.376 305.155C249.172 305.155 249.007 305.321 249.007 305.524C249.007 305.728 249.172 305.893 249.376 305.893Z" fill="#CFD3DF"/>
<path d="M249.376 329C249.262 329 249.177 328.915 249.177 328.801C249.177 328.688 249.262 328.603 249.376 328.603C249.489 328.603 249.574 328.688 249.574 328.801C249.574 328.915 249.489 329 249.376 329Z" fill="#CFD3DF"/>
<path d="M269.928 5.67731C271.495 5.67731 272.766 4.4064 272.766 2.83865C272.766 1.27091 271.495 0 269.928 0C268.36 0 267.089 1.27091 267.089 2.83865C267.089 4.4064 268.36 5.67731 269.928 5.67731Z" fill="#CFD3DF"/>
<path d="M269.927 28.7556C268.451 28.7556 267.287 27.5633 267.287 26.1156C267.287 24.6395 268.48 23.4757 269.927 23.4757C271.375 23.4757 272.567 24.6679 272.567 26.1156C272.567 27.5633 271.404 28.7556 269.927 28.7556Z" fill="#CFD3DF"/>
<path d="M269.928 51.8623C271.291 51.8623 272.397 50.7566 272.397 49.3927C272.397 48.0287 271.291 46.923 269.928 46.923C268.564 46.923 267.458 48.0287 267.458 49.3927C267.458 50.7566 268.564 51.8623 269.928 51.8623Z" fill="#CFD3DF"/>
<path d="M269.928 74.9405C271.182 74.9405 272.199 73.9238 272.199 72.6696C272.199 71.4154 271.182 70.3987 269.928 70.3987C268.673 70.3987 267.657 71.4154 267.657 72.6696C267.657 73.9238 268.673 74.9405 269.928 74.9405Z" fill="#CFD3DF"/>
<path d="M269.928 98.0472C268.764 98.0472 267.855 97.1105 267.855 95.975C267.855 94.8111 268.792 93.9028 269.928 93.9028C271.063 93.9028 272 94.8395 272 95.975C272 97.1105 271.063 98.0472 269.928 98.0472Z" fill="#CFD3DF"/>
<path d="M269.927 121.126C268.877 121.126 268.026 120.274 268.026 119.224C268.026 118.173 268.877 117.322 269.927 117.322C270.978 117.322 271.83 118.173 271.83 119.224C271.83 120.302 270.978 121.126 269.927 121.126Z" fill="#CFD3DF"/>
<path d="M269.927 144.232C270.868 144.232 271.631 143.47 271.631 142.529C271.631 141.588 270.868 140.826 269.927 140.826C268.987 140.826 268.224 141.588 268.224 142.529C268.224 143.47 268.987 144.232 269.927 144.232Z" fill="#CFD3DF"/>
<path d="M269.927 167.339C269.104 167.339 268.423 166.658 268.423 165.835C268.423 165.011 269.104 164.33 269.927 164.33C270.751 164.33 271.432 165.011 271.432 165.835C271.432 166.658 270.751 167.339 269.927 167.339Z" fill="#CFD3DF"/>
<path d="M269.927 190.417C269.189 190.417 268.593 189.821 268.593 189.083C268.593 188.345 269.189 187.749 269.927 187.749C270.666 187.749 271.262 188.345 271.262 189.083C271.262 189.821 270.666 190.417 269.927 190.417Z" fill="#CFD3DF"/>
<path d="M269.927 213.523C269.303 213.523 268.792 213.012 268.792 212.388C268.792 211.763 269.303 211.252 269.927 211.252C270.552 211.252 271.063 211.763 271.063 212.388C271.063 213.012 270.552 213.523 269.927 213.523Z" fill="#CFD3DF"/>
<path d="M269.927 236.602C270.445 236.602 270.864 236.182 270.864 235.665C270.864 235.147 270.445 234.728 269.927 234.728C269.41 234.728 268.991 235.147 268.991 235.665C268.991 236.182 269.41 236.602 269.927 236.602Z" fill="#CFD3DF"/>
<path d="M269.927 259.708C269.502 259.708 269.161 259.368 269.161 258.942C269.161 258.516 269.502 258.175 269.927 258.175C270.353 258.175 270.694 258.516 270.694 258.942C270.694 259.368 270.353 259.708 269.927 259.708Z" fill="#CFD3DF"/>
<path d="M269.927 282.815C270.241 282.815 270.495 282.561 270.495 282.247C270.495 281.934 270.241 281.68 269.927 281.68C269.614 281.68 269.36 281.934 269.36 282.247C269.36 282.561 269.614 282.815 269.927 282.815Z" fill="#CFD3DF"/>
<path d="M269.928 305.893C270.131 305.893 270.297 305.728 270.297 305.524C270.297 305.321 270.131 305.155 269.928 305.155C269.724 305.155 269.558 305.321 269.558 305.524C269.558 305.728 269.724 305.893 269.928 305.893Z" fill="#CFD3DF"/>
<path d="M269.927 329C269.814 329 269.729 328.915 269.729 328.801C269.729 328.688 269.814 328.603 269.927 328.603C270.041 328.603 270.126 328.688 270.126 328.801C270.126 328.915 270.041 329 269.927 329Z" fill="#CFD3DF"/>
<path d="M290.48 5.67731C292.047 5.67731 293.318 4.4064 293.318 2.83865C293.318 1.27091 292.047 0 290.48 0C288.912 0 287.641 1.27091 287.641 2.83865C287.641 4.4064 288.912 5.67731 290.48 5.67731Z" fill="#CFD3DF"/>
<path d="M290.479 28.7556C289.003 28.7556 287.839 27.5633 287.839 26.1156C287.839 24.6395 289.032 23.4757 290.479 23.4757C291.927 23.4757 293.119 24.6679 293.119 26.1156C293.119 27.5633 291.927 28.7556 290.479 28.7556Z" fill="#CFD3DF"/>
<path d="M290.479 51.8623C291.843 51.8623 292.949 50.7566 292.949 49.3927C292.949 48.0287 291.843 46.923 290.479 46.923C289.115 46.923 288.01 48.0287 288.01 49.3927C288.01 50.7566 289.115 51.8623 290.479 51.8623Z" fill="#CFD3DF"/>
<path d="M290.479 74.9405C291.734 74.9405 292.75 73.9238 292.75 72.6696C292.75 71.4154 291.734 70.3987 290.479 70.3987C289.225 70.3987 288.208 71.4154 288.208 72.6696C288.208 73.9238 289.225 74.9405 290.479 74.9405Z" fill="#CFD3DF"/>
<path d="M290.479 98.0472C289.316 98.0472 288.407 97.1105 288.407 95.975C288.407 94.8111 289.344 93.9028 290.479 93.9028C291.615 93.9028 292.552 94.8395 292.552 95.975C292.552 97.1105 291.615 98.0472 290.479 98.0472Z" fill="#CFD3DF"/>
<path d="M290.479 121.126C289.429 121.126 288.577 120.274 288.577 119.224C288.577 118.173 289.429 117.322 290.479 117.322C291.53 117.322 292.381 118.173 292.381 119.224C292.353 120.302 291.53 121.126 290.479 121.126Z" fill="#CFD3DF"/>
<path d="M290.479 144.232C291.42 144.232 292.183 143.47 292.183 142.529C292.183 141.588 291.42 140.826 290.479 140.826C289.539 140.826 288.776 141.588 288.776 142.529C288.776 143.47 289.539 144.232 290.479 144.232Z" fill="#CFD3DF"/>
<path d="M290.479 167.339C289.656 167.339 288.975 166.658 288.975 165.835C288.975 165.011 289.656 164.33 290.479 164.33C291.303 164.33 291.984 165.011 291.984 165.835C291.984 166.658 291.303 167.339 290.479 167.339Z" fill="#CFD3DF"/>
<path d="M290.479 190.417C289.741 190.417 289.145 189.821 289.145 189.083C289.145 188.345 289.741 187.749 290.479 187.749C291.217 187.749 291.813 188.345 291.813 189.083C291.785 189.821 291.189 190.417 290.479 190.417Z" fill="#CFD3DF"/>
<path d="M290.479 213.523C289.855 213.523 289.344 213.012 289.344 212.388C289.344 211.763 289.855 211.252 290.479 211.252C291.104 211.252 291.615 211.763 291.615 212.388C291.615 213.012 291.104 213.523 290.479 213.523Z" fill="#CFD3DF"/>
<path d="M290.479 236.602C289.968 236.602 289.543 236.176 289.543 235.665C289.543 235.154 289.968 234.728 290.479 234.728C290.99 234.728 291.416 235.154 291.416 235.665C291.416 236.176 290.99 236.602 290.479 236.602Z" fill="#CFD3DF"/>
<path d="M290.48 259.708C290.903 259.708 291.246 259.365 291.246 258.942C291.246 258.519 290.903 258.175 290.48 258.175C290.056 258.175 289.713 258.519 289.713 258.942C289.713 259.365 290.056 259.708 290.48 259.708Z" fill="#CFD3DF"/>
<path d="M290.48 282.815C290.793 282.815 291.047 282.561 291.047 282.247C291.047 281.934 290.793 281.68 290.48 281.68C290.166 281.68 289.912 281.934 289.912 282.247C289.912 282.561 290.166 282.815 290.48 282.815Z" fill="#CFD3DF"/>
<path d="M290.48 305.893C290.683 305.893 290.848 305.728 290.848 305.524C290.848 305.321 290.683 305.155 290.48 305.155C290.276 305.155 290.11 305.321 290.11 305.524C290.11 305.728 290.276 305.893 290.48 305.893Z" fill="#CFD3DF"/>
<path d="M290.479 329C290.366 329 290.281 328.915 290.281 328.801C290.281 328.688 290.366 328.603 290.479 328.603C290.593 328.603 290.678 328.688 290.678 328.801C290.65 328.915 290.565 329 290.479 329Z" fill="#CFD3DF"/>
<path d="M311.003 5.67731C312.571 5.67731 313.841 4.4064 313.841 2.83865C313.841 1.27091 312.571 0 311.003 0C309.435 0 308.164 1.27091 308.164 2.83865C308.164 4.4064 309.435 5.67731 311.003 5.67731Z" fill="#CFD3DF"/>
<path d="M311.003 28.7556C309.527 28.7556 308.363 27.5633 308.363 26.1156C308.363 24.6395 309.555 23.4757 311.003 23.4757C312.479 23.4757 313.643 24.6679 313.643 26.1156C313.671 27.5633 312.479 28.7556 311.003 28.7556Z" fill="#CFD3DF"/>
<path d="M311.003 51.8623C309.64 51.8623 308.533 50.7552 308.533 49.3927C308.533 48.0301 309.64 46.923 311.003 46.923C312.365 46.923 313.473 48.0301 313.473 49.3927C313.473 50.7552 312.365 51.8623 311.003 51.8623Z" fill="#CFD3DF"/>
<path d="M311.003 74.9405C309.754 74.9405 308.732 73.9186 308.732 72.6696C308.732 71.4206 309.754 70.3987 311.003 70.3987C312.252 70.3987 313.274 71.4206 313.274 72.6696C313.274 73.9186 312.28 74.9405 311.003 74.9405Z" fill="#CFD3DF"/>
<path d="M311.003 98.0472C309.867 98.0472 308.931 97.1105 308.931 95.975C308.931 94.8111 309.867 93.9028 311.003 93.9028C312.167 93.9028 313.075 94.8395 313.075 95.975C313.103 97.1105 312.167 98.0472 311.003 98.0472Z" fill="#CFD3DF"/>
<path d="M311.003 121.126C309.953 121.126 309.101 120.274 309.101 119.224C309.101 118.173 309.953 117.322 311.003 117.322C312.053 117.322 312.905 118.173 312.905 119.224C312.905 120.302 312.053 121.126 311.003 121.126Z" fill="#CFD3DF"/>
<path d="M311.003 144.232C310.066 144.232 309.3 143.466 309.3 142.529C309.3 141.592 310.066 140.826 311.003 140.826C311.94 140.826 312.706 141.592 312.706 142.529C312.706 143.466 311.968 144.232 311.003 144.232Z" fill="#CFD3DF"/>
<path d="M311.003 167.339C310.18 167.339 309.498 166.658 309.498 165.835C309.498 165.011 310.18 164.33 311.003 164.33C311.826 164.33 312.507 165.011 312.507 165.835C312.536 166.658 311.854 167.339 311.003 167.339Z" fill="#CFD3DF"/>
<path d="M311.003 190.417C310.265 190.417 309.669 189.821 309.669 189.083C309.669 188.345 310.265 187.749 311.003 187.749C311.741 187.749 312.337 188.345 312.337 189.083C312.337 189.821 311.741 190.417 311.003 190.417Z" fill="#CFD3DF"/>
<path d="M311.003 213.523C310.378 213.523 309.867 213.012 309.867 212.388C309.867 211.763 310.378 211.252 311.003 211.252C311.627 211.252 312.138 211.763 312.138 212.388C312.138 213.012 311.656 213.523 311.003 213.523Z" fill="#CFD3DF"/>
<path d="M311.003 236.602C310.492 236.602 310.066 236.176 310.066 235.665C310.066 235.154 310.492 234.728 311.003 234.728C311.514 234.728 311.94 235.154 311.94 235.665C311.968 236.176 311.542 236.602 311.003 236.602Z" fill="#CFD3DF"/>
<path d="M311.003 259.708C310.577 259.708 310.236 259.368 310.236 258.942C310.236 258.516 310.577 258.175 311.003 258.175C311.429 258.175 311.769 258.516 311.769 258.942C311.769 259.368 311.429 259.708 311.003 259.708Z" fill="#CFD3DF"/>
<path d="M311.003 282.815C310.691 282.815 310.435 282.56 310.435 282.247C310.435 281.935 310.691 281.68 311.003 281.68C311.315 281.68 311.571 281.935 311.571 282.247C311.571 282.56 311.315 282.815 311.003 282.815Z" fill="#CFD3DF"/>
<path d="M311.003 305.893C310.804 305.893 310.634 305.723 310.634 305.524C310.634 305.326 310.804 305.155 311.003 305.155C311.202 305.155 311.372 305.326 311.372 305.524C311.4 305.723 311.23 305.893 311.003 305.893Z" fill="#CFD3DF"/>
<path d="M311.003 329C310.889 329 310.804 328.915 310.804 328.801C310.804 328.688 310.889 328.603 311.003 328.603C311.116 328.603 311.202 328.688 311.202 328.801C311.202 328.915 311.116 329 311.003 329Z" fill="#CFD3DF"/>
<path d="M331.555 5.67731C333.122 5.67731 334.393 4.4064 334.393 2.83865C334.393 1.27091 333.122 0 331.555 0C329.987 0 328.716 1.27091 328.716 2.83865C328.716 4.4064 329.987 5.67731 331.555 5.67731Z" fill="#CFD3DF"/>
<path d="M331.555 28.7556C330.079 28.7556 328.915 27.5633 328.915 26.1156C328.915 24.6395 330.107 23.4757 331.555 23.4757C333.002 23.4757 334.195 24.6679 334.195 26.1156C334.223 27.5633 333.031 28.7556 331.555 28.7556Z" fill="#CFD3DF"/>
<path d="M331.555 51.8623C330.192 51.8623 329.085 50.7552 329.085 49.3927C329.085 48.0301 330.192 46.923 331.555 46.923C332.917 46.923 334.024 48.0301 334.024 49.3927C334.024 50.7552 332.917 51.8623 331.555 51.8623Z" fill="#CFD3DF"/>
<path d="M331.555 74.9405C330.306 74.9405 329.284 73.9186 329.284 72.6696C329.284 71.4206 330.306 70.3987 331.555 70.3987C332.804 70.3987 333.826 71.4206 333.826 72.6696C333.826 73.9186 332.804 74.9405 331.555 74.9405Z" fill="#CFD3DF"/>
<path d="M331.555 98.0472C330.419 98.0472 329.483 97.1105 329.483 95.975C329.483 94.8111 330.419 93.9028 331.555 93.9028C332.719 93.9028 333.627 94.8395 333.627 95.975C333.655 97.1105 332.719 98.0472 331.555 98.0472Z" fill="#CFD3DF"/>
<path d="M331.555 121.126C330.504 121.126 329.653 120.274 329.653 119.224C329.653 118.173 330.504 117.322 331.555 117.322C332.605 117.322 333.457 118.173 333.457 119.224C333.457 120.302 332.605 121.126 331.555 121.126Z" fill="#CFD3DF"/>
<path d="M331.555 144.232C330.618 144.232 329.852 143.466 329.852 142.529C329.852 141.592 330.618 140.826 331.555 140.826C332.491 140.826 333.258 141.592 333.258 142.529C333.258 143.466 332.491 144.232 331.555 144.232Z" fill="#CFD3DF"/>
<path d="M331.555 167.339C330.731 167.339 330.05 166.658 330.05 165.835C330.05 165.011 330.731 164.33 331.555 164.33C332.378 164.33 333.059 165.011 333.059 165.835C333.088 166.658 332.406 167.339 331.555 167.339Z" fill="#CFD3DF"/>
<path d="M331.555 190.417C330.817 190.417 330.221 189.821 330.221 189.083C330.221 188.345 330.817 187.749 331.555 187.749C332.293 187.749 332.889 188.345 332.889 189.083C332.889 189.821 332.293 190.417 331.555 190.417Z" fill="#CFD3DF"/>
<path d="M331.555 213.523C330.93 213.523 330.419 213.012 330.419 212.388C330.419 211.763 330.93 211.252 331.555 211.252C332.179 211.252 332.69 211.763 332.69 212.388C332.69 213.012 332.179 213.523 331.555 213.523Z" fill="#CFD3DF"/>
<path d="M331.555 236.602C331.044 236.602 330.618 236.176 330.618 235.665C330.618 235.154 331.044 234.728 331.555 234.728C332.066 234.728 332.491 235.154 332.491 235.665C332.52 236.176 332.094 236.602 331.555 236.602Z" fill="#CFD3DF"/>
<path d="M331.555 259.708C331.129 259.708 330.788 259.368 330.788 258.942C330.788 258.516 331.129 258.175 331.555 258.175C331.98 258.175 332.321 258.516 332.321 258.942C332.321 259.368 331.98 259.708 331.555 259.708Z" fill="#CFD3DF"/>
<path d="M331.555 282.815C331.242 282.815 330.987 282.56 330.987 282.247C330.987 281.935 331.242 281.68 331.555 281.68C331.867 281.68 332.122 281.935 332.122 282.247C332.122 282.56 331.867 282.815 331.555 282.815Z" fill="#CFD3DF"/>
<path d="M331.555 305.893C331.356 305.893 331.186 305.723 331.186 305.524C331.186 305.326 331.356 305.155 331.555 305.155C331.753 305.155 331.924 305.326 331.924 305.524C331.952 305.723 331.782 305.893 331.555 305.893Z" fill="#CFD3DF"/>
<path d="M331.555 329C331.441 329 331.356 328.915 331.356 328.801C331.356 328.688 331.441 328.603 331.555 328.603C331.668 328.603 331.753 328.688 331.753 328.801C331.753 328.915 331.668 329 331.555 329Z" fill="#CFD3DF"/>
<path d="M352.106 5.67731C353.674 5.67731 354.945 4.4064 354.945 2.83865C354.945 1.27091 353.674 0 352.106 0C350.539 0 349.268 1.27091 349.268 2.83865C349.268 4.4064 350.539 5.67731 352.106 5.67731Z" fill="#CFD3DF"/>
<path d="M352.106 28.7556C350.63 28.7556 349.467 27.5633 349.467 26.1156C349.467 24.6395 350.659 23.4757 352.106 23.4757C353.583 23.4757 354.746 24.6679 354.746 26.1156C354.746 27.5633 353.583 28.7556 352.106 28.7556Z" fill="#CFD3DF"/>
<path d="M352.107 51.8623C350.744 51.8623 349.637 50.7552 349.637 49.3927C349.637 48.0301 350.744 46.923 352.107 46.923C353.469 46.923 354.576 48.0301 354.576 49.3927C354.576 50.7552 353.469 51.8623 352.107 51.8623Z" fill="#CFD3DF"/>
<path d="M352.107 74.9405C353.361 74.9405 354.377 73.9238 354.377 72.6696C354.377 71.4154 353.361 70.3987 352.107 70.3987C350.852 70.3987 349.836 71.4154 349.836 72.6696C349.836 73.9238 350.852 74.9405 352.107 74.9405Z" fill="#CFD3DF"/>
<path d="M352.107 98.0472C350.943 98.0472 350.034 97.1105 350.034 95.975C350.034 94.8111 350.971 93.9028 352.107 93.9028C353.242 93.9028 354.179 94.8395 354.179 95.975C354.179 97.1105 353.242 98.0472 352.107 98.0472Z" fill="#CFD3DF"/>
<path d="M352.107 121.126C351.056 121.126 350.205 120.274 350.205 119.224C350.205 118.173 351.056 117.322 352.107 117.322C353.157 117.322 354.008 118.173 354.008 119.224C354.008 120.302 353.157 121.126 352.107 121.126Z" fill="#CFD3DF"/>
<path d="M352.107 144.232C351.17 144.232 350.403 143.466 350.403 142.529C350.403 141.592 351.17 140.826 352.107 140.826C353.043 140.826 353.81 141.592 353.81 142.529C353.81 143.466 353.043 144.232 352.107 144.232Z" fill="#CFD3DF"/>
<path d="M352.107 167.339C351.283 167.339 350.602 166.658 350.602 165.835C350.602 165.011 351.283 164.33 352.107 164.33C352.93 164.33 353.611 165.011 353.611 165.835C353.611 166.658 352.93 167.339 352.107 167.339Z" fill="#CFD3DF"/>
<path d="M352.107 190.417C351.368 190.417 350.772 189.821 350.772 189.083C350.772 188.345 351.368 187.749 352.107 187.749C352.845 187.749 353.441 188.345 353.441 189.083C353.441 189.821 352.845 190.417 352.107 190.417Z" fill="#CFD3DF"/>
<path d="M352.107 213.523C351.482 213.523 350.971 213.012 350.971 212.388C350.971 211.763 351.482 211.252 352.107 211.252C352.731 211.252 353.242 211.763 353.242 212.388C353.242 213.012 352.731 213.523 352.107 213.523Z" fill="#CFD3DF"/>
<path d="M352.106 236.602C351.596 236.602 351.17 236.176 351.17 235.665C351.17 235.154 351.596 234.728 352.106 234.728C352.617 234.728 353.043 235.154 353.043 235.665C353.043 236.176 352.617 236.602 352.106 236.602Z" fill="#CFD3DF"/>
<path d="M352.107 259.708C351.681 259.708 351.34 259.368 351.34 258.942C351.34 258.516 351.681 258.175 352.107 258.175C352.532 258.175 352.873 258.516 352.873 258.942C352.873 259.368 352.532 259.708 352.107 259.708Z" fill="#CFD3DF"/>
<path d="M352.107 282.815C352.42 282.815 352.674 282.561 352.674 282.247C352.674 281.934 352.42 281.68 352.107 281.68C351.793 281.68 351.539 281.934 351.539 282.247C351.539 282.561 351.793 282.815 352.107 282.815Z" fill="#CFD3DF"/>
<path d="M352.107 305.893C351.908 305.893 351.738 305.723 351.738 305.524C351.738 305.326 351.908 305.155 352.107 305.155C352.305 305.155 352.476 305.326 352.476 305.524C352.476 305.723 352.305 305.893 352.107 305.893Z" fill="#CFD3DF"/>
<path d="M352.107 329C351.993 329 351.908 328.915 351.908 328.801C351.908 328.688 351.993 328.603 352.107 328.603C352.22 328.603 352.305 328.688 352.305 328.801C352.305 328.915 352.22 329 352.107 329Z" fill="#CFD3DF"/>
</svg>
