<svg width="13" height="17" viewBox="0 0 13 17" fill="none" xmlns="http://www.w3.org/2000/svg">
<path fill-rule="evenodd" clip-rule="evenodd" d="M6.30053 9.19416C8.03761 9.19416 9.45026 7.79945 9.45026 6.0856C9.45026 4.37175 8.03761 2.97705 6.30053 2.97705C4.56345 2.97705 3.15079 4.37124 3.15079 6.0856C3.15079 7.79997 4.56345 9.19416 6.30053 9.19416ZM6.30053 3.49514C7.74835 3.49514 8.92531 4.65671 8.92531 6.0856C8.92531 7.5145 7.74835 8.67606 6.30053 8.67606C4.8527 8.67606 3.67574 7.5145 3.67574 6.0856C3.67574 4.65671 4.8527 3.49514 6.30053 3.49514Z" fill="#414141"/>
<path fill-rule="evenodd" clip-rule="evenodd" d="M6.29947 0C2.82531 0 0 2.75418 0 6.21762C0 9.84427 3.15026 13.5543 5.44695 16.1619C5.45535 16.1722 5.82386 16.5789 6.27953 16.5789C6.28058 16.5789 6.31785 16.5789 6.31995 16.5789C6.77508 16.5789 7.14413 16.1722 7.15253 16.1619C9.45026 13.5543 12.6 9.84479 12.6 6.21762C12.6 2.75418 9.77416 0 6.29947 0ZM6.36089 15.4821C6.34987 15.4925 6.31785 15.5153 6.29003 15.5329C6.28478 15.5189 6.24593 15.4884 6.22231 15.464C4.29834 13.2792 1.04991 9.59196 1.04991 6.21762C1.04991 3.36086 3.40539 1.03618 6.29947 1.03618C9.19513 1.03618 11.5501 3.36086 11.5501 6.21814C11.5501 9.59196 8.30166 13.2792 6.36089 15.4821Z" fill="#414141"/>
</svg>
