<svg width="18" height="13" viewBox="0 0 18 13" fill="none" xmlns="http://www.w3.org/2000/svg">
<path d="M17.4855 1.77594L16.8106 1.10107L10.5593 7.35244C9.77784 8.13386 8.46363 8.13386 7.68221 7.35244L1.43085 1.1366L0.755981 1.81146L5.40899 6.46447L0.755981 11.1175L1.43085 11.7923L6.08385 7.13933L7.00735 8.06283C7.57566 8.63113 8.32156 8.9508 9.10298 8.9508C9.8844 8.9508 10.6303 8.63113 11.1986 8.06283L12.1221 7.13933L16.7751 11.7923L17.45 11.1175L12.797 6.46447L17.4855 1.77594Z" fill="#414141"/>
<path d="M16.1713 13H2.14122C1.32428 13 0.649414 12.3251 0.649414 11.5082V1.4918C0.649414 0.674863 1.32428 0 2.14122 0H16.1713C16.9882 0 17.6631 0.674863 17.6631 1.4918V11.5082C17.6631 12.3251 16.9882 13 16.1713 13ZM2.1057 0.959016C1.82155 0.959016 1.60843 1.17213 1.60843 1.45628V11.4727C1.60843 11.7568 1.82155 11.9699 2.1057 11.9699H16.1358C16.4199 11.9699 16.633 11.7568 16.633 11.4727V1.45628C16.633 1.17213 16.4199 0.959016 16.1358 0.959016H2.1057Z" fill="#414141"/>
</svg>
