<svg width="18" height="18" viewBox="0 0 18 18" fill="none" xmlns="http://www.w3.org/2000/svg">
<path d="M10.7391 12.4174C10.7391 12.4174 12.0888 11.6448 12.4421 11.4591C12.7945 11.2728 13.1595 11.2258 13.3811 11.3611C13.7168 11.5664 16.5355 13.4415 16.7728 13.6075C17.0101 13.7738 17.1245 14.2488 16.7981 14.7141C16.4731 15.1795 14.9738 17.0195 14.3385 16.9998C13.7021 16.9792 11.0565 16.9212 6.06749 11.9308C1.0795 6.94202 1.0205 4.29564 1.00017 3.6593C0.979834 3.02329 2.81983 1.5236 3.28516 1.19826C3.75116 0.873252 4.22682 0.995587 4.39216 1.22426C4.58016 1.4846 6.43348 4.29431 6.63748 4.61631C6.77715 4.83632 6.72582 5.20332 6.53948 5.55599C6.35415 5.90933 5.58149 7.25902 5.58149 7.25902C5.58149 7.25902 6.12615 8.18804 7.96815 10.0297C9.81047 11.8718 10.7391 12.4174 10.7391 12.4174Z" stroke="#414141" stroke-miterlimit="10"/>
</svg>
