<svg width="30" height="30" viewBox="0 0 30 30" fill="none" xmlns="http://www.w3.org/2000/svg">
<circle cx="15" cy="15" r="15" fill="#3962D1"/>
<path d="M21.5811 11.2506C21.3429 11.0677 21.0366 10.9796 20.7288 11.0055C20.4211 11.0315 20.1368 11.1695 19.938 11.3893L15.0001 16.8954L10.062 11.3894C9.86378 11.1687 9.57932 11.0302 9.2712 11.0044C8.96309 10.9786 8.65655 11.0676 8.41904 11.2518C8.18153 11.436 8.03249 11.7004 8.00471 11.9867C7.97694 12.273 8.0727 12.5579 8.27093 12.7786L14.1045 19.2842C14.214 19.4061 14.3509 19.5043 14.5056 19.5716C14.6604 19.6389 14.8292 19.6738 15.0001 19.6738C15.1709 19.6738 15.3397 19.6389 15.4945 19.5716C15.6492 19.5043 15.7862 19.4061 15.8956 19.2842L21.7292 12.7786C21.9274 12.5576 22.0231 12.2726 21.9953 11.9861C21.9675 11.6996 21.8185 11.4351 21.5811 11.2506Z" fill="white"/>
</svg>
