<svg width="16" height="15" viewBox="0 0 16 15" fill="none" xmlns="http://www.w3.org/2000/svg">
<path d="M8.43953 4.41809C6.58768 4.41809 5.05328 5.92603 5.05328 7.80433C5.05328 9.68264 6.56122 11.1906 8.43953 11.1906C10.3178 11.1906 11.8258 9.65619 11.8258 7.80433C11.8258 5.95248 10.2914 4.41809 8.43953 4.41809ZM8.43953 9.97365C7.24905 9.97365 6.27022 8.99481 6.27022 7.80433C6.27022 6.61386 7.24905 5.63502 8.43953 5.63502C9.63 5.63502 10.6088 6.61386 10.6088 7.80433C10.6088 8.99481 9.63 9.97365 8.43953 9.97365Z" fill="#C6A636"/>
<path d="M11.9581 5.10592C12.3818 5.10592 12.7252 4.76244 12.7252 4.33873C12.7252 3.91502 12.3818 3.57153 11.9581 3.57153C11.5343 3.57153 11.1909 3.91502 11.1909 4.33873C11.1909 4.76244 11.5343 5.10592 11.9581 5.10592Z" fill="#C6A636"/>
<path d="M13.9422 2.35455C13.2544 1.64027 12.2755 1.2699 11.1644 1.2699H5.71467C3.41308 1.2699 1.87869 2.80429 1.87869 5.10588V10.5292C1.87869 11.6667 2.24906 12.6456 2.9898 13.3598C3.70409 14.0477 4.65647 14.3916 5.74113 14.3916H11.138C12.2755 14.3916 13.2279 14.0212 13.9157 13.3598C14.63 12.672 15.0004 11.6932 15.0004 10.5556V5.10588C15.0004 3.99477 14.63 3.04238 13.9422 2.35455ZM13.8364 10.5556C13.8364 11.3757 13.5454 12.0371 13.0692 12.4868C12.593 12.9366 11.9316 13.1747 11.138 13.1747H5.74113C4.94748 13.1747 4.2861 12.9366 3.80991 12.4868C3.33372 12.0106 3.09562 11.3493 3.09562 10.5292V5.10588C3.09562 4.31223 3.33372 3.65085 3.80991 3.17466C4.25964 2.72492 4.94748 2.48683 5.74113 2.48683H11.1909C11.9845 2.48683 12.6459 2.72492 13.1221 3.20111C13.5718 3.6773 13.8364 4.33868 13.8364 5.10588V10.5556Z" fill="#C6A636"/>
</svg>
