<svg width="418" height="306" viewBox="0 0 418 306" fill="none" xmlns="http://www.w3.org/2000/svg">
<path d="M2.6379 5.2758C4.09477 5.2758 5.2758 4.09477 5.2758 2.6379C5.2758 1.18103 4.09477 0 2.6379 0C1.18103 0 0 1.18103 0 2.6379C0 4.09477 1.18103 5.2758 2.6379 5.2758Z" fill="#CFD3DF"/>
<path d="M2.63792 26.7219C1.26621 26.7219 0.184692 25.614 0.184692 24.2687C0.184692 22.8969 1.29259 21.8154 2.63792 21.8154C4.00962 21.8154 5.09114 22.9233 5.09114 24.2687C5.11752 25.614 4.00962 26.7219 2.63792 26.7219Z" fill="#CFD3DF"/>
<path d="M2.63798 48.1945C1.37178 48.1945 0.343018 47.1657 0.343018 45.8995C0.343018 44.6333 1.37178 43.6045 2.63798 43.6045C3.90417 43.6045 4.93293 44.6333 4.93293 45.8995C4.93293 47.1657 3.90417 48.1945 2.63798 48.1945Z" fill="#CFD3DF"/>
<path d="M2.63787 69.6406C1.4772 69.6406 0.527588 68.6909 0.527588 67.5302C0.527588 66.3695 1.4772 65.4199 2.63787 65.4199C3.79855 65.4199 4.74816 66.3695 4.74816 67.5302C4.74816 68.6909 3.79855 69.6406 2.63787 69.6406Z" fill="#CFD3DF"/>
<path d="M2.63793 91.1133C1.58277 91.1133 0.712158 90.2427 0.712158 89.1876C0.712158 88.106 1.58277 87.262 2.63793 87.262C3.71947 87.262 4.56355 88.1324 4.56355 89.1876C4.58993 90.2427 3.71947 91.1133 2.63793 91.1133Z" fill="#CFD3DF"/>
<path d="M2.63795 112.559C1.66193 112.559 0.870605 111.768 0.870605 110.792C0.870605 109.816 1.66193 109.025 2.63795 109.025C3.61397 109.025 4.4053 109.816 4.4053 110.792C4.4053 111.794 3.61397 112.559 2.63795 112.559Z" fill="#CFD3DF"/>
<path d="M2.63789 134.032C1.76738 134.032 1.05505 133.32 1.05505 132.449C1.05505 131.579 1.76738 130.866 2.63789 130.866C3.5084 130.866 4.22056 131.579 4.22056 132.449C4.22056 133.32 3.5084 134.032 2.63789 134.032Z" fill="#CFD3DF"/>
<path d="M2.63791 155.504C1.87292 155.504 1.23975 154.871 1.23975 154.106C1.23975 153.341 1.87292 152.708 2.63791 152.708C3.4029 152.708 4.03591 153.341 4.03591 154.106C4.06229 154.871 3.42928 155.504 2.63791 155.504Z" fill="#CFD3DF"/>
<path d="M2.63785 176.951C1.95199 176.951 1.39795 176.397 1.39795 175.711C1.39795 175.025 1.95199 174.471 2.63785 174.471C3.3237 174.471 3.87758 175.025 3.87758 175.711C3.87758 176.397 3.3237 176.951 2.63785 176.951Z" fill="#CFD3DF"/>
<path d="M2.63787 198.423C2.05753 198.423 1.58264 197.948 1.58264 197.367C1.58264 196.787 2.05753 196.312 2.63787 196.312C3.2182 196.312 3.69293 196.787 3.69293 197.367C3.69293 197.948 3.2182 198.423 2.63787 198.423Z" fill="#CFD3DF"/>
<path d="M2.63789 219.869C2.16306 219.869 1.76733 219.473 1.76733 218.998C1.76733 218.523 2.16306 218.128 2.63789 218.128C3.11271 218.128 3.50844 218.523 3.50844 218.998C3.53482 219.473 3.13909 219.869 2.63789 219.869Z" fill="#CFD3DF"/>
<path d="M2.63782 241.341C2.24214 241.341 1.92554 241.025 1.92554 240.629C1.92554 240.233 2.24214 239.917 2.63782 239.917C3.03351 239.917 3.34994 240.233 3.34994 240.629C3.34994 241.025 3.03351 241.341 2.63782 241.341Z" fill="#CFD3DF"/>
<path d="M2.63796 262.814C2.34779 262.814 2.11035 262.576 2.11035 262.286C2.11035 261.996 2.34779 261.759 2.63796 261.759C2.92813 261.759 3.16558 261.996 3.16558 262.286C3.16558 262.576 2.92813 262.814 2.63796 262.814Z" fill="#CFD3DF"/>
<path d="M2.63786 284.26C2.45321 284.26 2.29492 284.102 2.29492 283.917C2.29492 283.732 2.45321 283.574 2.63786 283.574C2.82251 283.574 2.9808 283.732 2.9808 283.917C3.00718 284.102 2.84889 284.26 2.63786 284.26Z" fill="#CFD3DF"/>
<path d="M2.63792 305.732C2.5324 305.732 2.45325 305.653 2.45325 305.548C2.45325 305.442 2.5324 305.363 2.63792 305.363C2.74344 305.363 2.82259 305.442 2.82259 305.548C2.82259 305.653 2.74344 305.732 2.63792 305.732Z" fill="#CFD3DF"/>
<path d="M26.9138 5.2758C28.3706 5.2758 29.5517 4.09477 29.5517 2.6379C29.5517 1.18103 28.3706 0 26.9138 0C25.4569 0 24.2759 1.18103 24.2759 2.6379C24.2759 4.09477 25.4569 5.2758 26.9138 5.2758Z" fill="#CFD3DF"/>
<path d="M26.9137 26.7219C25.542 26.7219 24.4604 25.614 24.4604 24.2687C24.4604 22.8969 25.5683 21.8154 26.9137 21.8154C28.2854 21.8154 29.3669 22.9233 29.3669 24.2687C29.3669 25.614 28.2854 26.7219 26.9137 26.7219Z" fill="#CFD3DF"/>
<path d="M26.9137 48.1945C25.6475 48.1945 24.6188 47.1657 24.6188 45.8995C24.6188 44.6333 25.6475 43.6045 26.9137 43.6045C28.1799 43.6045 29.2087 44.6333 29.2087 45.8995C29.2087 47.1657 28.1799 48.1945 26.9137 48.1945Z" fill="#CFD3DF"/>
<path d="M26.9138 69.6406C28.0792 69.6406 29.024 68.6957 29.024 67.5302C29.024 66.3647 28.0792 65.4199 26.9138 65.4199C25.7483 65.4199 24.8035 66.3647 24.8035 67.5302C24.8035 68.6957 25.7483 69.6406 26.9138 69.6406Z" fill="#CFD3DF"/>
<path d="M26.9137 91.1133C25.8585 91.1133 24.988 90.2427 24.988 89.1876C24.988 88.106 25.8585 87.262 26.9137 87.262C27.9952 87.262 28.8393 88.1324 28.8393 89.1876C28.8393 90.2427 27.9688 91.1133 26.9137 91.1133Z" fill="#CFD3DF"/>
<path d="M26.9137 112.559C25.9377 112.559 25.1464 111.768 25.1464 110.792C25.1464 109.816 25.9377 109.025 26.9137 109.025C27.8897 109.025 28.6811 109.816 28.6811 110.792C28.6811 111.794 27.8897 112.559 26.9137 112.559Z" fill="#CFD3DF"/>
<path d="M26.9137 134.032C27.7879 134.032 28.4964 133.323 28.4964 132.449C28.4964 131.575 27.7879 130.866 26.9137 130.866C26.0396 130.866 25.3311 131.575 25.3311 132.449C25.3311 133.323 26.0396 134.032 26.9137 134.032Z" fill="#CFD3DF"/>
<path d="M26.9137 155.504C26.1487 155.504 25.5155 154.871 25.5155 154.106C25.5155 153.341 26.1487 152.708 26.9137 152.708C27.6787 152.708 28.3117 153.341 28.3117 154.106C28.3117 154.871 27.6787 155.504 26.9137 155.504Z" fill="#CFD3DF"/>
<path d="M26.9137 176.951C26.2279 176.951 25.6738 176.397 25.6738 175.711C25.6738 175.025 26.2279 174.471 26.9137 174.471C27.5996 174.471 28.1535 175.025 28.1535 175.711C28.1535 176.397 27.5996 176.951 26.9137 176.951Z" fill="#CFD3DF"/>
<path d="M26.9137 198.423C26.3334 198.423 25.8585 197.948 25.8585 197.367C25.8585 196.787 26.3334 196.312 26.9137 196.312C27.4941 196.312 27.969 196.787 27.969 197.367C27.969 197.948 27.4941 198.423 26.9137 198.423Z" fill="#CFD3DF"/>
<path d="M26.9138 219.869C26.4389 219.869 26.0432 219.473 26.0432 218.998C26.0432 218.523 26.4389 218.128 26.9138 218.128C27.3886 218.128 27.7843 218.523 27.7843 218.998C27.7843 219.473 27.3886 219.869 26.9138 219.869Z" fill="#CFD3DF"/>
<path d="M26.9137 241.341C26.518 241.341 26.2014 241.025 26.2014 240.629C26.2014 240.233 26.518 239.917 26.9137 239.917C27.3094 239.917 27.626 240.233 27.626 240.629C27.626 241.025 27.3094 241.341 26.9137 241.341Z" fill="#CFD3DF"/>
<path d="M26.9137 262.814C27.2051 262.814 27.4413 262.578 27.4413 262.286C27.4413 261.995 27.2051 261.759 26.9137 261.759C26.6223 261.759 26.3861 261.995 26.3861 262.286C26.3861 262.578 26.6223 262.814 26.9137 262.814Z" fill="#CFD3DF"/>
<path d="M26.9137 284.26C26.7291 284.26 26.5708 284.102 26.5708 283.917C26.5708 283.732 26.7291 283.574 26.9137 283.574C27.0984 283.574 27.2567 283.732 27.2567 283.917C27.2567 284.102 27.0984 284.26 26.9137 284.26Z" fill="#CFD3DF"/>
<path d="M26.9138 305.732C26.8083 305.732 26.7291 305.653 26.7291 305.548C26.7291 305.442 26.8083 305.363 26.9138 305.363C27.0193 305.363 27.0985 305.442 27.0985 305.548C27.0985 305.653 27.0193 305.732 26.9138 305.732Z" fill="#CFD3DF"/>
<path d="M51.1895 5.2758C52.6464 5.2758 53.8274 4.09477 53.8274 2.6379C53.8274 1.18103 52.6464 0 51.1895 0C49.7327 0 48.5516 1.18103 48.5516 2.6379C48.5516 4.09477 49.7327 5.2758 51.1895 5.2758Z" fill="#CFD3DF"/>
<path d="M51.1896 26.7219C49.8178 26.7219 48.7363 25.614 48.7363 24.2687C48.7363 22.8969 49.8442 21.8154 51.1896 21.8154C52.5349 21.8154 53.6428 22.9233 53.6428 24.2687C53.6428 25.614 52.5349 26.7219 51.1896 26.7219Z" fill="#CFD3DF"/>
<path d="M51.1896 48.1945C49.9234 48.1945 48.8947 47.1657 48.8947 45.8995C48.8947 44.6333 49.9234 43.6045 51.1896 43.6045C52.4558 43.6045 53.4846 44.6333 53.4846 45.8995C53.4582 47.1657 52.4558 48.1945 51.1896 48.1945Z" fill="#CFD3DF"/>
<path d="M51.1895 69.6406C52.355 69.6406 53.2998 68.6957 53.2998 67.5302C53.2998 66.3647 52.355 65.4199 51.1895 65.4199C50.024 65.4199 49.0792 66.3647 49.0792 67.5302C49.0792 68.6957 50.024 69.6406 51.1895 69.6406Z" fill="#CFD3DF"/>
<path d="M51.1897 91.1133C50.1081 91.1133 49.264 90.2427 49.264 89.1876C49.264 88.106 50.1345 87.262 51.1897 87.262C52.2448 87.262 53.1153 88.1324 53.1153 89.1876C53.1153 90.2427 52.2448 91.1133 51.1897 91.1133Z" fill="#CFD3DF"/>
<path d="M51.1896 112.559C50.2136 112.559 49.4222 111.768 49.4222 110.792C49.4222 109.816 50.2136 109.025 51.1896 109.025C52.1656 109.025 52.9569 109.816 52.9569 110.792C52.9306 111.794 52.1656 112.559 51.1896 112.559Z" fill="#CFD3DF"/>
<path d="M51.1896 134.032C52.0637 134.032 52.7724 133.323 52.7724 132.449C52.7724 131.575 52.0637 130.866 51.1896 130.866C50.3155 130.866 49.6069 131.575 49.6069 132.449C49.6069 133.323 50.3155 134.032 51.1896 134.032Z" fill="#CFD3DF"/>
<path d="M51.1895 155.504C50.4245 155.504 49.7915 154.871 49.7915 154.106C49.7915 153.341 50.4245 152.708 51.1895 152.708C51.9545 152.708 52.5877 153.341 52.5877 154.106C52.5877 154.871 51.9545 155.504 51.1895 155.504Z" fill="#CFD3DF"/>
<path d="M51.1896 176.951C50.5037 176.951 49.9498 176.397 49.9498 175.711C49.9498 175.025 50.5037 174.471 51.1896 174.471C51.8754 174.471 52.4295 175.025 52.4295 175.711C52.4031 176.397 51.8754 176.951 51.1896 176.951Z" fill="#CFD3DF"/>
<path d="M51.1896 198.423C50.6092 198.423 50.1345 197.948 50.1345 197.367C50.1345 196.787 50.6092 196.312 51.1896 196.312C51.7699 196.312 52.2448 196.787 52.2448 197.367C52.2448 197.948 51.7699 198.423 51.1896 198.423Z" fill="#CFD3DF"/>
<path d="M51.1895 219.869C50.7147 219.869 50.319 219.473 50.319 218.998C50.319 218.523 50.7147 218.128 51.1895 218.128C51.6643 218.128 52.0601 218.523 52.0601 218.998C52.0601 219.473 51.6643 219.869 51.1895 219.869Z" fill="#CFD3DF"/>
<path d="M51.1896 241.341C50.7939 241.341 50.4773 241.025 50.4773 240.629C50.4773 240.233 50.7939 239.917 51.1896 239.917C51.5853 239.917 51.9019 240.233 51.9019 240.629C51.8755 241.025 51.5589 241.341 51.1896 241.341Z" fill="#CFD3DF"/>
<path d="M51.1896 262.814C51.481 262.814 51.7172 262.578 51.7172 262.286C51.7172 261.995 51.481 261.759 51.1896 261.759C50.8982 261.759 50.662 261.995 50.662 262.286C50.662 262.578 50.8982 262.814 51.1896 262.814Z" fill="#CFD3DF"/>
<path d="M51.1895 284.26C51.0048 284.26 50.8466 284.102 50.8466 283.917C50.8466 283.732 51.0048 283.574 51.1895 283.574C51.3742 283.574 51.5324 283.732 51.5324 283.917C51.5324 284.102 51.3742 284.26 51.1895 284.26Z" fill="#CFD3DF"/>
<path d="M51.1896 305.732C51.084 305.732 51.0049 305.653 51.0049 305.548C51.0049 305.442 51.084 305.363 51.1896 305.363C51.2951 305.363 51.3742 305.442 51.3742 305.548C51.3478 305.653 51.2687 305.732 51.1896 305.732Z" fill="#CFD3DF"/>
<path d="M75.4653 5.2758C76.9222 5.2758 78.1032 4.09477 78.1032 2.6379C78.1032 1.18103 76.9222 0 75.4653 0C74.0084 0 72.8274 1.18103 72.8274 2.6379C72.8274 4.09477 74.0084 5.2758 75.4653 5.2758Z" fill="#CFD3DF"/>
<path d="M75.4653 26.7219C74.0936 26.7219 73.0121 25.614 73.0121 24.2687C73.0121 22.8969 74.12 21.8154 75.4653 21.8154C76.8106 21.8154 77.9187 22.9233 77.9187 24.2687C77.9451 25.614 76.837 26.7219 75.4653 26.7219Z" fill="#CFD3DF"/>
<path d="M75.4654 48.1945C74.1992 48.1945 73.1704 47.1657 73.1704 45.8995C73.1704 44.6333 74.1992 43.6045 75.4654 43.6045C76.7316 43.6045 77.7605 44.6333 77.7605 45.8995C77.7605 47.1657 76.7316 48.1945 75.4654 48.1945Z" fill="#CFD3DF"/>
<path d="M75.4654 69.6406C76.6309 69.6406 77.5758 68.6957 77.5758 67.5302C77.5758 66.3647 76.6309 65.4199 75.4654 65.4199C74.2999 65.4199 73.3551 66.3647 73.3551 67.5302C73.3551 68.6957 74.2999 69.6406 75.4654 69.6406Z" fill="#CFD3DF"/>
<path d="M75.4654 91.1133C74.3839 91.1133 73.5398 90.2427 73.5398 89.1876C73.5398 88.106 74.4102 87.262 75.4654 87.262C76.5206 87.262 77.3912 88.1324 77.3912 89.1876C77.4176 90.2427 76.5469 91.1133 75.4654 91.1133Z" fill="#CFD3DF"/>
<path d="M75.4653 112.559C74.4893 112.559 73.698 111.768 73.698 110.792C73.698 109.816 74.4893 109.025 75.4653 109.025C76.4414 109.025 77.2329 109.816 77.2329 110.792C77.2329 111.794 76.4414 112.559 75.4653 112.559Z" fill="#CFD3DF"/>
<path d="M75.4654 134.032C76.3395 134.032 77.0482 133.323 77.0482 132.449C77.0482 131.575 76.3395 130.866 75.4654 130.866C74.5912 130.866 73.8827 131.575 73.8827 132.449C73.8827 133.323 74.5912 134.032 75.4654 134.032Z" fill="#CFD3DF"/>
<path d="M75.4653 155.504C74.7003 155.504 74.0673 154.871 74.0673 154.106C74.0673 153.341 74.7003 152.708 75.4653 152.708C76.2303 152.708 76.8634 153.341 76.8634 154.106C76.8898 154.871 76.2566 155.504 75.4653 155.504Z" fill="#CFD3DF"/>
<path d="M75.4653 176.951C74.7795 176.951 74.2256 176.397 74.2256 175.711C74.2256 175.025 74.7795 174.471 75.4653 174.471C76.1512 174.471 76.7052 175.025 76.7052 175.711C76.7052 176.397 76.1512 176.951 75.4653 176.951Z" fill="#CFD3DF"/>
<path d="M75.4653 198.423C74.885 198.423 74.4103 197.948 74.4103 197.367C74.4103 196.787 74.885 196.312 75.4653 196.312C76.0457 196.312 76.5206 196.787 76.5206 197.367C76.5206 197.948 76.0721 198.423 75.4653 198.423Z" fill="#CFD3DF"/>
<path d="M75.4654 219.869C74.9905 219.869 74.595 219.473 74.595 218.998C74.595 218.523 74.9905 218.128 75.4654 218.128C75.9402 218.128 76.3359 218.523 76.3359 218.998C76.3623 219.473 75.9666 219.869 75.4654 219.869Z" fill="#CFD3DF"/>
<path d="M75.4653 241.341C75.8587 241.341 76.1776 241.022 76.1776 240.629C76.1776 240.236 75.8587 239.917 75.4653 239.917C75.0719 239.917 74.7532 240.236 74.7532 240.629C74.7532 241.022 75.0719 241.341 75.4653 241.341Z" fill="#CFD3DF"/>
<path d="M75.4653 262.814C75.7567 262.814 75.9929 262.578 75.9929 262.286C75.9929 261.995 75.7567 261.759 75.4653 261.759C75.1739 261.759 74.9379 261.995 74.9379 262.286C74.9379 262.578 75.1739 262.814 75.4653 262.814Z" fill="#CFD3DF"/>
<path d="M75.4653 284.26C75.2807 284.26 75.1226 284.102 75.1226 283.917C75.1226 283.732 75.2807 283.574 75.4653 283.574C75.65 283.574 75.8083 283.732 75.8083 283.917C75.8347 284.102 75.6764 284.26 75.4653 284.26Z" fill="#CFD3DF"/>
<path d="M75.4654 305.732C75.3599 305.732 75.2809 305.653 75.2809 305.548C75.2809 305.442 75.3599 305.363 75.4654 305.363C75.5709 305.363 75.6501 305.442 75.6501 305.548C75.6501 305.653 75.5709 305.732 75.4654 305.732Z" fill="#CFD3DF"/>
<path d="M99.7412 5.2758C101.198 5.2758 102.379 4.09477 102.379 2.6379C102.379 1.18103 101.198 0 99.7412 0C98.2843 0 97.1033 1.18103 97.1033 2.6379C97.1033 4.09477 98.2843 5.2758 99.7412 5.2758Z" fill="#CFD3DF"/>
<path d="M99.7412 26.7219C98.3695 26.7219 97.2878 25.614 97.2878 24.2687C97.2878 22.8969 98.3959 21.8154 99.7412 21.8154C101.113 21.8154 102.194 22.9233 102.194 24.2687C102.221 25.614 101.113 26.7219 99.7412 26.7219Z" fill="#CFD3DF"/>
<path d="M99.7412 48.1945C98.4751 48.1945 97.4463 47.1657 97.4463 45.8995C97.4463 44.6333 98.4751 43.6045 99.7412 43.6045C101.007 43.6045 102.036 44.6333 102.036 45.8995C102.036 47.1657 101.007 48.1945 99.7412 48.1945Z" fill="#CFD3DF"/>
<path d="M99.7412 69.6406C98.5805 69.6406 97.6307 68.6909 97.6307 67.5302C97.6307 66.3695 98.5805 65.4199 99.7412 65.4199C100.902 65.4199 101.851 66.3695 101.851 67.5302C101.851 68.6909 100.902 69.6406 99.7412 69.6406Z" fill="#CFD3DF"/>
<path d="M99.7412 91.1133C98.686 91.1133 97.8154 90.2427 97.8154 89.1876C97.8154 88.106 98.686 87.262 99.7412 87.262C100.823 87.262 101.667 88.1324 101.667 89.1876C101.693 90.2427 100.823 91.1133 99.7412 91.1133Z" fill="#CFD3DF"/>
<path d="M99.7413 112.559C98.7652 112.559 97.9738 111.768 97.9738 110.792C97.9738 109.816 98.7652 109.025 99.7413 109.025C100.717 109.025 101.509 109.816 101.509 110.792C101.509 111.794 100.717 112.559 99.7413 112.559Z" fill="#CFD3DF"/>
<path d="M99.7412 134.032C100.615 134.032 101.324 133.323 101.324 132.449C101.324 131.575 100.615 130.866 99.7412 130.866C98.867 130.866 98.1583 131.575 98.1583 132.449C98.1583 133.323 98.867 134.032 99.7412 134.032Z" fill="#CFD3DF"/>
<path d="M99.7412 155.504C98.9762 155.504 98.343 154.871 98.343 154.106C98.343 153.341 98.9762 152.708 99.7412 152.708C100.506 152.708 101.139 153.341 101.139 154.106C101.166 154.871 100.533 155.504 99.7412 155.504Z" fill="#CFD3DF"/>
<path d="M99.7412 176.951C99.0554 176.951 98.5013 176.397 98.5013 175.711C98.5013 175.025 99.0554 174.471 99.7412 174.471C100.427 174.471 100.981 175.025 100.981 175.711C100.981 176.397 100.427 176.951 99.7412 176.951Z" fill="#CFD3DF"/>
<path d="M99.7413 198.423C99.1609 198.423 98.686 197.948 98.686 197.367C98.686 196.787 99.1609 196.312 99.7413 196.312C100.322 196.312 100.796 196.787 100.796 197.367C100.796 197.948 100.322 198.423 99.7413 198.423Z" fill="#CFD3DF"/>
<path d="M99.7412 219.869C99.2663 219.869 98.8706 219.473 98.8706 218.998C98.8706 218.523 99.2663 218.128 99.7412 218.128C100.216 218.128 100.612 218.523 100.612 218.998C100.638 219.473 100.242 219.869 99.7412 219.869Z" fill="#CFD3DF"/>
<path d="M99.7412 241.341C99.3455 241.341 99.0289 241.025 99.0289 240.629C99.0289 240.233 99.3455 239.917 99.7412 239.917C100.137 239.917 100.453 240.233 100.453 240.629C100.453 241.025 100.137 241.341 99.7412 241.341Z" fill="#CFD3DF"/>
<path d="M99.7412 262.814C99.4511 262.814 99.2136 262.576 99.2136 262.286C99.2136 261.996 99.4511 261.759 99.7412 261.759C100.031 261.759 100.269 261.996 100.269 262.286C100.269 262.576 100.031 262.814 99.7412 262.814Z" fill="#CFD3DF"/>
<path d="M99.7411 284.26C99.5565 284.26 99.3982 284.102 99.3982 283.917C99.3982 283.732 99.5565 283.574 99.7411 283.574C99.9258 283.574 100.084 283.732 100.084 283.917C100.11 284.102 99.9522 284.26 99.7411 284.26Z" fill="#CFD3DF"/>
<path d="M99.7412 305.732C99.6357 305.732 99.5565 305.653 99.5565 305.548C99.5565 305.442 99.6357 305.363 99.7412 305.363C99.8467 305.363 99.9257 305.442 99.9257 305.548C99.9257 305.653 99.8467 305.732 99.7412 305.732Z" fill="#CFD3DF"/>
<path d="M124.017 5.2758C125.474 5.2758 126.655 4.09477 126.655 2.6379C126.655 1.18103 125.474 0 124.017 0C122.56 0 121.379 1.18103 121.379 2.6379C121.379 4.09477 122.56 5.2758 124.017 5.2758Z" fill="#CFD3DF"/>
<path d="M124.017 26.7219C122.645 26.7219 121.564 25.614 121.564 24.2687C121.564 22.8969 122.672 21.8154 124.017 21.8154C125.389 21.8154 126.47 22.9233 126.47 24.2687C126.47 25.614 125.389 26.7219 124.017 26.7219Z" fill="#CFD3DF"/>
<path d="M124.017 48.1945C122.751 48.1945 121.722 47.1657 121.722 45.8995C121.722 44.6333 122.751 43.6045 124.017 43.6045C125.283 43.6045 126.312 44.6333 126.312 45.8995C126.312 47.1657 125.283 48.1945 124.017 48.1945Z" fill="#CFD3DF"/>
<path d="M124.017 69.6406C122.856 69.6406 121.907 68.6909 121.907 67.5302C121.907 66.3695 122.856 65.4199 124.017 65.4199C125.178 65.4199 126.127 66.3695 126.127 67.5302C126.127 68.6909 125.178 69.6406 124.017 69.6406Z" fill="#CFD3DF"/>
<path d="M124.017 91.1133C122.962 91.1133 122.091 90.2427 122.091 89.1876C122.091 88.106 122.962 87.262 124.017 87.262C125.099 87.262 125.943 88.1324 125.943 89.1876C125.943 90.2427 125.072 91.1133 124.017 91.1133Z" fill="#CFD3DF"/>
<path d="M124.017 112.559C123.041 112.559 122.249 111.768 122.249 110.792C122.249 109.816 123.041 109.025 124.017 109.025C124.993 109.025 125.784 109.816 125.784 110.792C125.784 111.794 124.993 112.559 124.017 112.559Z" fill="#CFD3DF"/>
<path d="M124.017 134.032C123.146 134.032 122.434 133.32 122.434 132.449C122.434 131.579 123.146 130.866 124.017 130.866C124.887 130.866 125.6 131.579 125.6 132.449C125.6 133.32 124.887 134.032 124.017 134.032Z" fill="#CFD3DF"/>
<path d="M124.017 155.504C123.252 155.504 122.619 154.871 122.619 154.106C122.619 153.341 123.252 152.708 124.017 152.708C124.782 152.708 125.415 153.341 125.415 154.106C125.415 154.871 124.782 155.504 124.017 155.504Z" fill="#CFD3DF"/>
<path d="M124.017 176.951C123.331 176.951 122.777 176.397 122.777 175.711C122.777 175.025 123.331 174.471 124.017 174.471C124.703 174.471 125.257 175.025 125.257 175.711C125.257 176.397 124.703 176.951 124.017 176.951Z" fill="#CFD3DF"/>
<path d="M124.017 198.423C123.437 198.423 122.962 197.948 122.962 197.367C122.962 196.787 123.437 196.312 124.017 196.312C124.597 196.312 125.072 196.787 125.072 197.367C125.072 197.948 124.597 198.423 124.017 198.423Z" fill="#CFD3DF"/>
<path d="M124.017 219.869C123.542 219.869 123.146 219.473 123.146 218.998C123.146 218.523 123.542 218.128 124.017 218.128C124.492 218.128 124.887 218.523 124.887 218.998C124.887 219.473 124.492 219.869 124.017 219.869Z" fill="#CFD3DF"/>
<path d="M124.017 241.341C123.621 241.341 123.305 241.025 123.305 240.629C123.305 240.233 123.621 239.917 124.017 239.917C124.413 239.917 124.729 240.233 124.729 240.629C124.729 241.025 124.413 241.341 124.017 241.341Z" fill="#CFD3DF"/>
<path d="M124.017 262.814C123.727 262.814 123.489 262.576 123.489 262.286C123.489 261.996 123.727 261.759 124.017 261.759C124.307 261.759 124.545 261.996 124.545 262.286C124.545 262.576 124.307 262.814 124.017 262.814Z" fill="#CFD3DF"/>
<path d="M124.017 284.26C123.832 284.26 123.674 284.102 123.674 283.917C123.674 283.732 123.832 283.574 124.017 283.574C124.202 283.574 124.36 283.732 124.36 283.917C124.36 284.102 124.202 284.26 124.017 284.26Z" fill="#CFD3DF"/>
<path d="M124.017 305.732C123.911 305.732 123.832 305.653 123.832 305.548C123.832 305.442 123.911 305.363 124.017 305.363C124.122 305.363 124.202 305.442 124.202 305.548C124.202 305.653 124.122 305.732 124.017 305.732Z" fill="#CFD3DF"/>
<path d="M148.293 5.2758C149.75 5.2758 150.931 4.09477 150.931 2.6379C150.931 1.18103 149.75 0 148.293 0C146.836 0 145.655 1.18103 145.655 2.6379C145.655 4.09477 146.836 5.2758 148.293 5.2758Z" fill="#CFD3DF"/>
<path d="M148.293 26.7219C146.921 26.7219 145.84 25.614 145.84 24.2687C145.84 22.8969 146.947 21.8154 148.293 21.8154C149.665 21.8154 150.746 22.9233 150.746 24.2687C150.746 25.614 149.638 26.7219 148.293 26.7219Z" fill="#CFD3DF"/>
<path d="M148.293 48.1945C147.027 48.1945 145.998 47.1657 145.998 45.8995C145.998 44.6333 147.027 43.6045 148.293 43.6045C149.559 43.6045 150.588 44.6333 150.588 45.8995C150.561 47.1657 149.559 48.1945 148.293 48.1945Z" fill="#CFD3DF"/>
<path d="M148.293 69.6406C147.132 69.6406 146.182 68.6909 146.182 67.5302C146.182 66.3695 147.132 65.4199 148.293 65.4199C149.453 65.4199 150.403 66.3695 150.403 67.5302C150.403 68.6909 149.453 69.6406 148.293 69.6406Z" fill="#CFD3DF"/>
<path d="M148.293 91.1133C147.211 91.1133 146.367 90.2427 146.367 89.1876C146.367 88.106 147.238 87.262 148.293 87.262C149.348 87.262 150.218 88.1324 150.218 89.1876C150.218 90.2427 149.348 91.1133 148.293 91.1133Z" fill="#CFD3DF"/>
<path d="M148.293 112.559C147.317 112.559 146.525 111.768 146.525 110.792C146.525 109.816 147.317 109.025 148.293 109.025C149.269 109.025 150.06 109.816 150.06 110.792C150.034 111.794 149.269 112.559 148.293 112.559Z" fill="#CFD3DF"/>
<path d="M148.293 134.032C149.167 134.032 149.875 133.323 149.875 132.449C149.875 131.575 149.167 130.866 148.293 130.866C147.419 130.866 146.71 131.575 146.71 132.449C146.71 133.323 147.419 134.032 148.293 134.032Z" fill="#CFD3DF"/>
<path d="M148.293 155.504C147.528 155.504 146.895 154.871 146.895 154.106C146.895 153.341 147.528 152.708 148.293 152.708C149.058 152.708 149.691 153.341 149.691 154.106C149.691 154.871 149.058 155.504 148.293 155.504Z" fill="#CFD3DF"/>
<path d="M148.293 176.951C147.607 176.951 147.053 176.397 147.053 175.711C147.053 175.025 147.607 174.471 148.293 174.471C148.979 174.471 149.532 175.025 149.532 175.711C149.506 176.397 148.979 176.951 148.293 176.951Z" fill="#CFD3DF"/>
<path d="M148.293 198.423C147.712 198.423 147.238 197.948 147.238 197.367C147.238 196.787 147.712 196.312 148.293 196.312C148.873 196.312 149.348 196.787 149.348 197.367C149.348 197.948 148.873 198.423 148.293 198.423Z" fill="#CFD3DF"/>
<path d="M148.293 219.869C147.818 219.869 147.422 219.473 147.422 218.998C147.422 218.523 147.818 218.128 148.293 218.128C148.768 218.128 149.163 218.523 149.163 218.998C149.163 219.473 148.768 219.869 148.293 219.869Z" fill="#CFD3DF"/>
<path d="M148.293 241.341C148.686 241.341 149.005 241.022 149.005 240.629C149.005 240.236 148.686 239.917 148.293 239.917C147.899 239.917 147.58 240.236 147.58 240.629C147.58 241.022 147.899 241.341 148.293 241.341Z" fill="#CFD3DF"/>
<path d="M148.293 262.814C148.003 262.814 147.765 262.576 147.765 262.286C147.765 261.996 148.003 261.759 148.293 261.759C148.583 261.759 148.82 261.996 148.82 262.286C148.82 262.576 148.583 262.814 148.293 262.814Z" fill="#CFD3DF"/>
<path d="M148.293 284.26C148.108 284.26 147.95 284.102 147.95 283.917C147.95 283.732 148.108 283.574 148.293 283.574C148.477 283.574 148.636 283.732 148.636 283.917C148.636 284.102 148.477 284.26 148.293 284.26Z" fill="#CFD3DF"/>
<path d="M148.293 305.732C148.187 305.732 148.108 305.653 148.108 305.548C148.108 305.442 148.187 305.363 148.293 305.363C148.398 305.363 148.477 305.442 148.477 305.548C148.451 305.653 148.372 305.732 148.293 305.732Z" fill="#CFD3DF"/>
<path d="M172.569 5.2758C174.025 5.2758 175.206 4.09477 175.206 2.6379C175.206 1.18103 174.025 0 172.569 0C171.112 0 169.931 1.18103 169.931 2.6379C169.931 4.09477 171.112 5.2758 172.569 5.2758Z" fill="#CFD3DF"/>
<path d="M172.569 26.7219C171.197 26.7219 170.115 25.614 170.115 24.2687C170.115 22.8969 171.223 21.8154 172.569 21.8154C173.94 21.8154 175.022 22.9233 175.022 24.2687C175.048 25.614 173.94 26.7219 172.569 26.7219Z" fill="#CFD3DF"/>
<path d="M172.569 48.1945C171.302 48.1945 170.274 47.1657 170.274 45.8995C170.274 44.6333 171.302 43.6045 172.569 43.6045C173.835 43.6045 174.864 44.6333 174.864 45.8995C174.864 47.1657 173.835 48.1945 172.569 48.1945Z" fill="#CFD3DF"/>
<path d="M172.569 69.6406C173.734 69.6406 174.679 68.6957 174.679 67.5302C174.679 66.3647 173.734 65.4199 172.569 65.4199C171.403 65.4199 170.458 66.3647 170.458 67.5302C170.458 68.6957 171.403 69.6406 172.569 69.6406Z" fill="#CFD3DF"/>
<path d="M172.569 91.1133C171.487 91.1133 170.643 90.2427 170.643 89.1876C170.643 88.106 171.514 87.262 172.569 87.262C173.624 87.262 174.494 88.1324 174.494 89.1876C174.521 90.2427 173.65 91.1133 172.569 91.1133Z" fill="#CFD3DF"/>
<path d="M172.569 112.559C171.593 112.559 170.801 111.768 170.801 110.792C170.801 109.816 171.593 109.025 172.569 109.025C173.545 109.025 174.336 109.816 174.336 110.792C174.336 111.794 173.545 112.559 172.569 112.559Z" fill="#CFD3DF"/>
<path d="M172.569 134.032C173.443 134.032 174.151 133.323 174.151 132.449C174.151 131.575 173.443 130.866 172.569 130.866C171.695 130.866 170.986 131.575 170.986 132.449C170.986 133.323 171.695 134.032 172.569 134.032Z" fill="#CFD3DF"/>
<path d="M172.569 155.504C171.804 155.504 171.171 154.871 171.171 154.106C171.171 153.341 171.804 152.708 172.569 152.708C173.334 152.708 173.967 153.341 173.967 154.106C173.993 154.871 173.36 155.504 172.569 155.504Z" fill="#CFD3DF"/>
<path d="M172.569 176.951C171.883 176.951 171.329 176.397 171.329 175.711C171.329 175.025 171.883 174.471 172.569 174.471C173.254 174.471 173.808 175.025 173.808 175.711C173.808 176.397 173.254 176.951 172.569 176.951Z" fill="#CFD3DF"/>
<path d="M172.569 198.423C171.988 198.423 171.514 197.948 171.514 197.367C171.514 196.787 171.988 196.312 172.569 196.312C173.149 196.312 173.624 196.787 173.624 197.367C173.624 197.948 173.175 198.423 172.569 198.423Z" fill="#CFD3DF"/>
<path d="M172.569 219.869C172.094 219.869 171.698 219.473 171.698 218.998C171.698 218.523 172.094 218.128 172.569 218.128C173.043 218.128 173.439 218.523 173.439 218.998C173.466 219.473 173.07 219.869 172.569 219.869Z" fill="#CFD3DF"/>
<path d="M172.569 241.341C172.173 241.341 171.856 241.025 171.856 240.629C171.856 240.233 172.173 239.917 172.569 239.917C172.964 239.917 173.281 240.233 173.281 240.629C173.281 241.025 172.964 241.341 172.569 241.341Z" fill="#CFD3DF"/>
<path d="M172.569 262.814C172.86 262.814 173.096 262.578 173.096 262.286C173.096 261.995 172.86 261.759 172.569 261.759C172.277 261.759 172.041 261.995 172.041 262.286C172.041 262.578 172.277 262.814 172.569 262.814Z" fill="#CFD3DF"/>
<path d="M172.569 284.26C172.384 284.26 172.226 284.102 172.226 283.917C172.226 283.732 172.384 283.574 172.569 283.574C172.753 283.574 172.912 283.732 172.912 283.917C172.938 284.102 172.78 284.26 172.569 284.26Z" fill="#CFD3DF"/>
<path d="M172.569 305.732C172.463 305.732 172.384 305.653 172.384 305.548C172.384 305.442 172.463 305.363 172.569 305.363C172.674 305.363 172.753 305.442 172.753 305.548C172.753 305.653 172.674 305.732 172.569 305.732Z" fill="#CFD3DF"/>
<path d="M196.844 5.2758C198.301 5.2758 199.482 4.09477 199.482 2.6379C199.482 1.18103 198.301 0 196.844 0C195.388 0 194.207 1.18103 194.207 2.6379C194.207 4.09477 195.388 5.2758 196.844 5.2758Z" fill="#CFD3DF"/>
<path d="M196.844 26.7219C195.473 26.7219 194.391 25.614 194.391 24.2687C194.391 22.8969 195.499 21.8154 196.844 21.8154C198.19 21.8154 199.298 22.9233 199.298 24.2687C199.324 25.614 198.216 26.7219 196.844 26.7219Z" fill="#CFD3DF"/>
<path d="M196.845 48.1945C198.112 48.1945 199.139 47.167 199.139 45.8995C199.139 44.6321 198.112 43.6045 196.845 43.6045C195.577 43.6045 194.55 44.6321 194.55 45.8995C194.55 47.167 195.577 48.1945 196.845 48.1945Z" fill="#CFD3DF"/>
<path d="M196.844 69.6406C198.01 69.6406 198.955 68.6957 198.955 67.5302C198.955 66.3647 198.01 65.4199 196.844 65.4199C195.679 65.4199 194.734 66.3647 194.734 67.5302C194.734 68.6957 195.679 69.6406 196.844 69.6406Z" fill="#CFD3DF"/>
<path d="M196.845 91.1133C195.789 91.1133 194.919 90.2427 194.919 89.1876C194.919 88.106 195.789 87.262 196.845 87.262C197.926 87.262 198.77 88.1324 198.77 89.1876C198.797 90.2427 197.926 91.1133 196.845 91.1133Z" fill="#CFD3DF"/>
<path d="M196.844 112.559C195.868 112.559 195.077 111.768 195.077 110.792C195.077 109.816 195.868 109.025 196.844 109.025C197.821 109.025 198.612 109.816 198.612 110.792C198.612 111.794 197.821 112.559 196.844 112.559Z" fill="#CFD3DF"/>
<path d="M196.844 134.032C197.719 134.032 198.427 133.323 198.427 132.449C198.427 131.575 197.719 130.866 196.844 130.866C195.97 130.866 195.262 131.575 195.262 132.449C195.262 133.323 195.97 134.032 196.844 134.032Z" fill="#CFD3DF"/>
<path d="M196.845 155.504C196.08 155.504 195.447 154.871 195.447 154.106C195.447 153.341 196.08 152.708 196.845 152.708C197.61 152.708 198.243 153.341 198.243 154.106C198.269 154.871 197.636 155.504 196.845 155.504Z" fill="#CFD3DF"/>
<path d="M196.844 176.951C196.159 176.951 195.605 176.397 195.605 175.711C195.605 175.025 196.159 174.471 196.844 174.471C197.53 174.471 198.084 175.025 198.084 175.711C198.084 176.397 197.53 176.951 196.844 176.951Z" fill="#CFD3DF"/>
<path d="M196.844 198.423C196.264 198.423 195.789 197.948 195.789 197.367C195.789 196.787 196.264 196.312 196.844 196.312C197.425 196.312 197.9 196.787 197.9 197.367C197.9 197.948 197.425 198.423 196.844 198.423Z" fill="#CFD3DF"/>
<path d="M196.845 219.869C196.37 219.869 195.974 219.473 195.974 218.998C195.974 218.523 196.37 218.128 196.845 218.128C197.319 218.128 197.715 218.523 197.715 218.998C197.741 219.473 197.346 219.869 196.845 219.869Z" fill="#CFD3DF"/>
<path d="M196.844 241.341C197.238 241.341 197.557 241.022 197.557 240.629C197.557 240.236 197.238 239.917 196.844 239.917C196.451 239.917 196.132 240.236 196.132 240.629C196.132 241.022 196.451 241.341 196.844 241.341Z" fill="#CFD3DF"/>
<path d="M196.844 262.814C197.136 262.814 197.372 262.578 197.372 262.286C197.372 261.995 197.136 261.759 196.844 261.759C196.553 261.759 196.317 261.995 196.317 262.286C196.317 262.578 196.553 262.814 196.844 262.814Z" fill="#CFD3DF"/>
<path d="M196.844 284.26C197.034 284.26 197.187 284.106 197.187 283.917C197.187 283.728 197.034 283.574 196.844 283.574C196.655 283.574 196.501 283.728 196.501 283.917C196.501 284.106 196.655 284.26 196.844 284.26Z" fill="#CFD3DF"/>
<path d="M196.844 305.732C196.739 305.732 196.66 305.653 196.66 305.548C196.66 305.442 196.739 305.363 196.844 305.363C196.95 305.363 197.029 305.442 197.029 305.548C197.029 305.653 196.95 305.732 196.844 305.732Z" fill="#CFD3DF"/>
<path d="M221.12 5.2758C222.577 5.2758 223.758 4.09477 223.758 2.6379C223.758 1.18103 222.577 0 221.12 0C219.663 0 218.482 1.18103 218.482 2.6379C218.482 4.09477 219.663 5.2758 221.12 5.2758Z" fill="#CFD3DF"/>
<path d="M221.12 26.7219C219.749 26.7219 218.667 25.614 218.667 24.2687C218.667 22.8969 219.775 21.8154 221.12 21.8154C222.492 21.8154 223.574 22.9233 223.574 24.2687C223.574 25.614 222.492 26.7219 221.12 26.7219Z" fill="#CFD3DF"/>
<path d="M221.12 48.1945C219.854 48.1945 218.825 47.1657 218.825 45.8995C218.825 44.6333 219.854 43.6045 221.12 43.6045C222.387 43.6045 223.415 44.6333 223.415 45.8995C223.415 47.1657 222.387 48.1945 221.12 48.1945Z" fill="#CFD3DF"/>
<path d="M221.12 69.6406C222.286 69.6406 223.23 68.6957 223.23 67.5302C223.23 66.3647 222.286 65.4199 221.12 65.4199C219.955 65.4199 219.01 66.3647 219.01 67.5302C219.01 68.6957 219.955 69.6406 221.12 69.6406Z" fill="#CFD3DF"/>
<path d="M221.12 91.1133C220.039 91.1133 219.194 90.2427 219.194 89.1876C219.194 88.106 220.065 87.262 221.12 87.262C222.202 87.262 223.046 88.1324 223.046 89.1876C223.046 90.2427 222.175 91.1133 221.12 91.1133Z" fill="#CFD3DF"/>
<path d="M221.12 112.559C220.144 112.559 219.353 111.768 219.353 110.792C219.353 109.816 220.144 109.025 221.12 109.025C222.096 109.025 222.888 109.816 222.888 110.792C222.888 111.794 222.096 112.559 221.12 112.559Z" fill="#CFD3DF"/>
<path d="M221.12 134.032C221.994 134.032 222.703 133.323 222.703 132.449C222.703 131.575 221.994 130.866 221.12 130.866C220.246 130.866 219.537 131.575 219.537 132.449C219.537 133.323 220.246 134.032 221.12 134.032Z" fill="#CFD3DF"/>
<path d="M221.12 155.504C220.355 155.504 219.722 154.871 219.722 154.106C219.722 153.341 220.355 152.708 221.12 152.708C221.885 152.708 222.518 153.341 222.518 154.106C222.518 154.871 221.885 155.504 221.12 155.504Z" fill="#CFD3DF"/>
<path d="M221.12 176.951C220.434 176.951 219.88 176.397 219.88 175.711C219.88 175.025 220.434 174.471 221.12 174.471C221.806 174.471 222.36 175.025 222.36 175.711C222.36 176.397 221.806 176.951 221.12 176.951Z" fill="#CFD3DF"/>
<path d="M221.12 198.423C220.54 198.423 220.065 197.948 220.065 197.367C220.065 196.787 220.54 196.312 221.12 196.312C221.701 196.312 222.175 196.787 222.175 197.367C222.175 197.948 221.701 198.423 221.12 198.423Z" fill="#CFD3DF"/>
<path d="M221.12 219.869C220.645 219.869 220.25 219.473 220.25 218.998C220.25 218.523 220.645 218.128 221.12 218.128C221.595 218.128 221.99 218.523 221.99 218.998C221.99 219.473 221.595 219.869 221.12 219.869Z" fill="#CFD3DF"/>
<path d="M221.12 241.341C220.725 241.341 220.408 241.025 220.408 240.629C220.408 240.233 220.725 239.917 221.12 239.917C221.516 239.917 221.832 240.233 221.832 240.629C221.832 241.025 221.516 241.341 221.12 241.341Z" fill="#CFD3DF"/>
<path d="M221.12 262.814C221.412 262.814 221.648 262.578 221.648 262.286C221.648 261.995 221.412 261.759 221.12 261.759C220.829 261.759 220.593 261.995 220.593 262.286C220.593 262.578 220.829 262.814 221.12 262.814Z" fill="#CFD3DF"/>
<path d="M221.12 284.26C220.936 284.26 220.777 284.102 220.777 283.917C220.777 283.732 220.936 283.574 221.12 283.574C221.305 283.574 221.463 283.732 221.463 283.917C221.463 284.102 221.305 284.26 221.12 284.26Z" fill="#CFD3DF"/>
<path d="M221.12 305.732C221.015 305.732 220.936 305.653 220.936 305.548C220.936 305.442 221.015 305.363 221.12 305.363C221.226 305.363 221.305 305.442 221.305 305.548C221.305 305.653 221.226 305.732 221.12 305.732Z" fill="#CFD3DF"/>
<path d="M245.396 5.2758C246.853 5.2758 248.034 4.09477 248.034 2.6379C248.034 1.18103 246.853 0 245.396 0C243.939 0 242.758 1.18103 242.758 2.6379C242.758 4.09477 243.939 5.2758 245.396 5.2758Z" fill="#CFD3DF"/>
<path d="M245.396 26.7219C244.024 26.7219 242.943 25.614 242.943 24.2687C242.943 22.8969 244.051 21.8154 245.396 21.8154C246.768 21.8154 247.849 22.9233 247.849 24.2687C247.849 25.614 246.741 26.7219 245.396 26.7219Z" fill="#CFD3DF"/>
<path d="M245.396 48.1945C244.13 48.1945 243.101 47.1657 243.101 45.8995C243.101 44.6333 244.13 43.6045 245.396 43.6045C246.662 43.6045 247.691 44.6333 247.691 45.8995C247.665 47.1657 246.662 48.1945 245.396 48.1945Z" fill="#CFD3DF"/>
<path d="M245.396 69.6406C246.562 69.6406 247.507 68.6957 247.507 67.5302C247.507 66.3647 246.562 65.4199 245.396 65.4199C244.231 65.4199 243.286 66.3647 243.286 67.5302C243.286 68.6957 244.231 69.6406 245.396 69.6406Z" fill="#CFD3DF"/>
<path d="M245.396 91.1133C244.315 91.1133 243.47 90.2427 243.47 89.1876C243.47 88.106 244.341 87.262 245.396 87.262C246.451 87.262 247.322 88.1324 247.322 89.1876C247.322 90.2427 246.451 91.1133 245.396 91.1133Z" fill="#CFD3DF"/>
<path d="M245.396 112.559C244.42 112.559 243.629 111.768 243.629 110.792C243.629 109.816 244.42 109.025 245.396 109.025C246.372 109.025 247.164 109.816 247.164 110.792C247.137 111.794 246.372 112.559 245.396 112.559Z" fill="#CFD3DF"/>
<path d="M245.396 134.032C244.526 134.032 243.813 133.32 243.813 132.449C243.813 131.579 244.526 130.866 245.396 130.866C246.267 130.866 246.979 131.579 246.979 132.449C246.979 133.32 246.267 134.032 245.396 134.032Z" fill="#CFD3DF"/>
<path d="M245.396 155.504C244.631 155.504 243.998 154.871 243.998 154.106C243.998 153.341 244.631 152.708 245.396 152.708C246.161 152.708 246.794 153.341 246.794 154.106C246.794 154.871 246.161 155.504 245.396 155.504Z" fill="#CFD3DF"/>
<path d="M245.396 176.951C244.71 176.951 244.156 176.397 244.156 175.711C244.156 175.025 244.71 174.471 245.396 174.471C246.082 174.471 246.636 175.025 246.636 175.711C246.61 176.397 246.056 176.951 245.396 176.951Z" fill="#CFD3DF"/>
<path d="M245.396 198.423C244.816 198.423 244.341 197.948 244.341 197.367C244.341 196.787 244.816 196.312 245.396 196.312C245.976 196.312 246.451 196.787 246.451 197.367C246.451 197.948 245.976 198.423 245.396 198.423Z" fill="#CFD3DF"/>
<path d="M245.396 219.869C245.877 219.869 246.267 219.479 246.267 218.998C246.267 218.517 245.877 218.128 245.396 218.128C244.915 218.128 244.526 218.517 244.526 218.998C244.526 219.479 244.915 219.869 245.396 219.869Z" fill="#CFD3DF"/>
<path d="M245.396 241.341C245.001 241.341 244.684 241.025 244.684 240.629C244.684 240.233 245.001 239.917 245.396 239.917C245.792 239.917 246.108 240.233 246.108 240.629C246.082 241.025 245.766 241.341 245.396 241.341Z" fill="#CFD3DF"/>
<path d="M245.396 262.814C245.688 262.814 245.924 262.578 245.924 262.286C245.924 261.995 245.688 261.759 245.396 261.759C245.105 261.759 244.869 261.995 244.869 262.286C244.869 262.578 245.105 262.814 245.396 262.814Z" fill="#CFD3DF"/>
<path d="M245.396 284.26C245.212 284.26 245.053 284.102 245.053 283.917C245.053 283.732 245.212 283.574 245.396 283.574C245.581 283.574 245.739 283.732 245.739 283.917C245.739 284.102 245.581 284.26 245.396 284.26Z" fill="#CFD3DF"/>
<path d="M245.396 305.732C245.291 305.732 245.211 305.653 245.211 305.548C245.211 305.442 245.291 305.363 245.396 305.363C245.502 305.363 245.581 305.442 245.581 305.548C245.554 305.653 245.475 305.732 245.396 305.732Z" fill="#CFD3DF"/>
<path d="M269.672 5.2758C271.129 5.2758 272.31 4.09477 272.31 2.6379C272.31 1.18103 271.129 0 269.672 0C268.215 0 267.034 1.18103 267.034 2.6379C267.034 4.09477 268.215 5.2758 269.672 5.2758Z" fill="#CFD3DF"/>
<path d="M269.672 26.7219C268.3 26.7219 267.219 25.614 267.219 24.2687C267.219 22.8969 268.327 21.8154 269.672 21.8154C271.044 21.8154 272.125 22.9233 272.125 24.2687C272.152 25.614 271.044 26.7219 269.672 26.7219Z" fill="#CFD3DF"/>
<path d="M269.672 48.1945C268.406 48.1945 267.377 47.1657 267.377 45.8995C267.377 44.6333 268.406 43.6045 269.672 43.6045C270.938 43.6045 271.967 44.6333 271.967 45.8995C271.967 47.1657 270.938 48.1945 269.672 48.1945Z" fill="#CFD3DF"/>
<path d="M269.672 69.6406C268.511 69.6406 267.562 68.6909 267.562 67.5302C267.562 66.3695 268.511 65.4199 269.672 65.4199C270.832 65.4199 271.782 66.3695 271.782 67.5302C271.782 68.6909 270.859 69.6406 269.672 69.6406Z" fill="#CFD3DF"/>
<path d="M269.672 91.1133C268.59 91.1133 267.746 90.2427 267.746 89.1876C267.746 88.106 268.617 87.262 269.672 87.262C270.727 87.262 271.598 88.1324 271.598 89.1876C271.624 90.2427 270.753 91.1133 269.672 91.1133Z" fill="#CFD3DF"/>
<path d="M269.672 112.559C268.696 112.559 267.905 111.768 267.905 110.792C267.905 109.816 268.696 109.025 269.672 109.025C270.648 109.025 271.439 109.816 271.439 110.792C271.439 111.794 270.648 112.559 269.672 112.559Z" fill="#CFD3DF"/>
<path d="M269.672 134.032C268.802 134.032 268.089 133.32 268.089 132.449C268.089 131.579 268.802 130.866 269.672 130.866C270.543 130.866 271.255 131.579 271.255 132.449C271.255 133.32 270.569 134.032 269.672 134.032Z" fill="#CFD3DF"/>
<path d="M269.672 155.504C268.907 155.504 268.274 154.871 268.274 154.106C268.274 153.341 268.907 152.708 269.672 152.708C270.437 152.708 271.07 153.341 271.07 154.106C271.096 154.871 270.463 155.504 269.672 155.504Z" fill="#CFD3DF"/>
<path d="M269.672 176.951C268.986 176.951 268.432 176.397 268.432 175.711C268.432 175.025 268.986 174.471 269.672 174.471C270.358 174.471 270.912 175.025 270.912 175.711C270.912 176.397 270.358 176.951 269.672 176.951Z" fill="#CFD3DF"/>
<path d="M269.672 198.423C269.092 198.423 268.617 197.948 268.617 197.367C268.617 196.787 269.092 196.312 269.672 196.312C270.252 196.312 270.727 196.787 270.727 197.367C270.727 197.948 270.279 198.423 269.672 198.423Z" fill="#CFD3DF"/>
<path d="M269.672 219.869C269.197 219.869 268.801 219.473 268.801 218.998C268.801 218.523 269.197 218.128 269.672 218.128C270.147 218.128 270.542 218.523 270.542 218.998C270.569 219.473 270.173 219.869 269.672 219.869Z" fill="#CFD3DF"/>
<path d="M269.672 241.341C269.276 241.341 268.959 241.025 268.959 240.629C268.959 240.233 269.276 239.917 269.672 239.917C270.067 239.917 270.384 240.233 270.384 240.629C270.384 241.025 270.067 241.341 269.672 241.341Z" fill="#CFD3DF"/>
<path d="M269.672 262.814C269.382 262.814 269.144 262.576 269.144 262.286C269.144 261.996 269.382 261.759 269.672 261.759C269.962 261.759 270.2 261.996 270.2 262.286C270.2 262.576 269.988 262.814 269.672 262.814Z" fill="#CFD3DF"/>
<path d="M269.672 284.26C269.487 284.26 269.329 284.102 269.329 283.917C269.329 283.732 269.487 283.574 269.672 283.574C269.857 283.574 270.015 283.732 270.015 283.917C270.041 284.102 269.883 284.26 269.672 284.26Z" fill="#CFD3DF"/>
<path d="M269.672 305.732C269.566 305.732 269.487 305.653 269.487 305.548C269.487 305.442 269.566 305.363 269.672 305.363C269.777 305.363 269.857 305.442 269.857 305.548C269.857 305.653 269.777 305.732 269.672 305.732Z" fill="#CFD3DF"/>
<path d="M293.948 5.2758C295.405 5.2758 296.586 4.09477 296.586 2.6379C296.586 1.18103 295.405 0 293.948 0C292.491 0 291.31 1.18103 291.31 2.6379C291.31 4.09477 292.491 5.2758 293.948 5.2758Z" fill="#CFD3DF"/>
<path d="M293.948 26.7219C292.576 26.7219 291.495 25.614 291.495 24.2687C291.495 22.8969 292.603 21.8154 293.948 21.8154C295.293 21.8154 296.401 22.9233 296.401 24.2687C296.427 25.614 295.32 26.7219 293.948 26.7219Z" fill="#CFD3DF"/>
<path d="M293.948 48.1945C295.215 48.1945 296.243 47.167 296.243 45.8995C296.243 44.6321 295.215 43.6045 293.948 43.6045C292.68 43.6045 291.653 44.6321 291.653 45.8995C291.653 47.167 292.68 48.1945 293.948 48.1945Z" fill="#CFD3DF"/>
<path d="M293.948 69.6406C292.787 69.6406 291.837 68.6909 291.837 67.5302C291.837 66.3695 292.787 65.4199 293.948 65.4199C295.108 65.4199 296.058 66.3695 296.058 67.5302C296.058 68.6909 295.108 69.6406 293.948 69.6406Z" fill="#CFD3DF"/>
<path d="M293.948 91.1133C292.892 91.1133 292.022 90.2427 292.022 89.1876C292.022 88.106 292.892 87.262 293.948 87.262C295.029 87.262 295.873 88.1324 295.873 89.1876C295.9 90.2427 295.029 91.1133 293.948 91.1133Z" fill="#CFD3DF"/>
<path d="M293.948 112.559C292.972 112.559 292.18 111.768 292.18 110.792C292.18 109.816 292.972 109.025 293.948 109.025C294.924 109.025 295.715 109.816 295.715 110.792C295.715 111.794 294.924 112.559 293.948 112.559Z" fill="#CFD3DF"/>
<path d="M293.948 134.032C294.822 134.032 295.531 133.323 295.531 132.449C295.531 131.575 294.822 130.866 293.948 130.866C293.074 130.866 292.365 131.575 292.365 132.449C292.365 133.323 293.074 134.032 293.948 134.032Z" fill="#CFD3DF"/>
<path d="M293.948 155.504C293.183 155.504 292.55 154.871 292.55 154.106C292.55 153.341 293.183 152.708 293.948 152.708C294.713 152.708 295.346 153.341 295.346 154.106C295.372 154.871 294.739 155.504 293.948 155.504Z" fill="#CFD3DF"/>
<path d="M293.948 176.951C293.262 176.951 292.708 176.397 292.708 175.711C292.708 175.025 293.262 174.471 293.948 174.471C294.634 174.471 295.188 175.025 295.188 175.711C295.188 176.397 294.634 176.951 293.948 176.951Z" fill="#CFD3DF"/>
<path d="M293.948 198.423C293.367 198.423 292.893 197.948 292.893 197.367C292.893 196.787 293.367 196.312 293.948 196.312C294.528 196.312 295.003 196.787 295.003 197.367C295.003 197.948 294.528 198.423 293.948 198.423Z" fill="#CFD3DF"/>
<path d="M293.948 219.869C293.473 219.869 293.077 219.473 293.077 218.998C293.077 218.523 293.473 218.128 293.948 218.128C294.423 218.128 294.818 218.523 294.818 218.998C294.845 219.473 294.449 219.869 293.948 219.869Z" fill="#CFD3DF"/>
<path d="M293.948 241.341C293.552 241.341 293.236 241.025 293.236 240.629C293.236 240.233 293.552 239.917 293.948 239.917C294.343 239.917 294.66 240.233 294.66 240.629C294.66 241.025 294.343 241.341 293.948 241.341Z" fill="#CFD3DF"/>
<path d="M293.948 262.814C293.658 262.814 293.42 262.576 293.42 262.286C293.42 261.996 293.658 261.759 293.948 261.759C294.238 261.759 294.475 261.996 294.475 262.286C294.475 262.576 294.238 262.814 293.948 262.814Z" fill="#CFD3DF"/>
<path d="M293.948 284.26C294.137 284.26 294.291 284.106 294.291 283.917C294.291 283.728 294.137 283.574 293.948 283.574C293.758 283.574 293.605 283.728 293.605 283.917C293.605 284.106 293.758 284.26 293.948 284.26Z" fill="#CFD3DF"/>
<path d="M293.948 305.732C293.842 305.732 293.763 305.653 293.763 305.548C293.763 305.442 293.842 305.363 293.948 305.363C294.053 305.363 294.133 305.442 294.133 305.548C294.133 305.653 294.053 305.732 293.948 305.732Z" fill="#CFD3DF"/>
<path d="M318.224 5.2758C319.68 5.2758 320.861 4.09477 320.861 2.6379C320.861 1.18103 319.68 0 318.224 0C316.767 0 315.586 1.18103 315.586 2.6379C315.586 4.09477 316.767 5.2758 318.224 5.2758Z" fill="#CFD3DF"/>
<path d="M318.223 26.7219C316.852 26.7219 315.77 25.614 315.77 24.2687C315.77 22.8969 316.878 21.8154 318.223 21.8154C319.569 21.8154 320.677 22.9233 320.677 24.2687C320.677 25.614 319.595 26.7219 318.223 26.7219Z" fill="#CFD3DF"/>
<path d="M318.223 48.1945C319.491 48.1945 320.518 47.167 320.518 45.8995C320.518 44.6321 319.491 43.6045 318.223 43.6045C316.956 43.6045 315.928 44.6321 315.928 45.8995C315.928 47.167 316.956 48.1945 318.223 48.1945Z" fill="#CFD3DF"/>
<path d="M318.224 69.6406C319.389 69.6406 320.334 68.6957 320.334 67.5302C320.334 66.3647 319.389 65.4199 318.224 65.4199C317.058 65.4199 316.113 66.3647 316.113 67.5302C316.113 68.6957 317.058 69.6406 318.224 69.6406Z" fill="#CFD3DF"/>
<path d="M318.223 91.1133C317.142 91.1133 316.298 90.2427 316.298 89.1876C316.298 88.106 317.168 87.262 318.223 87.262C319.279 87.262 320.149 88.1324 320.149 89.1876C320.149 90.2427 319.279 91.1133 318.223 91.1133Z" fill="#CFD3DF"/>
<path d="M318.223 112.559C317.247 112.559 316.456 111.768 316.456 110.792C316.456 109.816 317.247 109.025 318.223 109.025C319.199 109.025 319.991 109.816 319.991 110.792C319.991 111.794 319.199 112.559 318.223 112.559Z" fill="#CFD3DF"/>
<path d="M318.224 134.032C319.098 134.032 319.806 133.323 319.806 132.449C319.806 131.575 319.098 130.866 318.224 130.866C317.349 130.866 316.641 131.575 316.641 132.449C316.641 133.323 317.349 134.032 318.224 134.032Z" fill="#CFD3DF"/>
<path d="M318.223 155.504C317.458 155.504 316.825 154.871 316.825 154.106C316.825 153.341 317.458 152.708 318.223 152.708C318.988 152.708 319.622 153.341 319.622 154.106C319.622 154.871 318.988 155.504 318.223 155.504Z" fill="#CFD3DF"/>
<path d="M318.224 176.951C317.538 176.951 316.984 176.397 316.984 175.711C316.984 175.025 317.538 174.471 318.224 174.471C318.909 174.471 319.464 175.025 319.464 175.711C319.464 176.397 318.909 176.951 318.224 176.951Z" fill="#CFD3DF"/>
<path d="M318.224 198.423C317.643 198.423 317.168 197.948 317.168 197.367C317.168 196.787 317.643 196.312 318.224 196.312C318.804 196.312 319.279 196.787 319.279 197.367C319.279 197.948 318.804 198.423 318.224 198.423Z" fill="#CFD3DF"/>
<path d="M318.223 219.869C318.704 219.869 319.094 219.479 319.094 218.998C319.094 218.517 318.704 218.128 318.223 218.128C317.743 218.128 317.353 218.517 317.353 218.998C317.353 219.479 317.743 219.869 318.223 219.869Z" fill="#CFD3DF"/>
<path d="M318.223 241.341C317.828 241.341 317.511 241.025 317.511 240.629C317.511 240.233 317.828 239.917 318.223 239.917C318.619 239.917 318.936 240.233 318.936 240.629C318.936 241.025 318.619 241.341 318.223 241.341Z" fill="#CFD3DF"/>
<path d="M318.223 262.814C318.515 262.814 318.751 262.578 318.751 262.286C318.751 261.995 318.515 261.759 318.223 261.759C317.932 261.759 317.696 261.995 317.696 262.286C317.696 262.578 317.932 262.814 318.223 262.814Z" fill="#CFD3DF"/>
<path d="M318.224 284.26C318.413 284.26 318.566 284.106 318.566 283.917C318.566 283.728 318.413 283.574 318.224 283.574C318.034 283.574 317.881 283.728 317.881 283.917C317.881 284.106 318.034 284.26 318.224 284.26Z" fill="#CFD3DF"/>
<path d="M318.223 305.732C318.118 305.732 318.039 305.653 318.039 305.548C318.039 305.442 318.118 305.363 318.223 305.363C318.329 305.363 318.408 305.442 318.408 305.548C318.408 305.653 318.329 305.732 318.223 305.732Z" fill="#CFD3DF"/>
<path d="M342.499 5.2758C343.956 5.2758 345.137 4.09477 345.137 2.6379C345.137 1.18103 343.956 0 342.499 0C341.042 0 339.861 1.18103 339.861 2.6379C339.861 4.09477 341.042 5.2758 342.499 5.2758Z" fill="#CFD3DF"/>
<path d="M342.499 26.7219C341.128 26.7219 340.046 25.614 340.046 24.2687C340.046 22.8969 341.154 21.8154 342.499 21.8154C343.845 21.8154 344.953 22.9233 344.953 24.2687C344.953 25.614 343.845 26.7219 342.499 26.7219Z" fill="#CFD3DF"/>
<path d="M342.499 48.1945C343.767 48.1945 344.794 47.167 344.794 45.8995C344.794 44.6321 343.767 43.6045 342.499 43.6045C341.232 43.6045 340.204 44.6321 340.204 45.8995C340.204 47.167 341.232 48.1945 342.499 48.1945Z" fill="#CFD3DF"/>
<path d="M342.499 69.6406C343.665 69.6406 344.609 68.6957 344.609 67.5302C344.609 66.3647 343.665 65.4199 342.499 65.4199C341.334 65.4199 340.389 66.3647 340.389 67.5302C340.389 68.6957 341.334 69.6406 342.499 69.6406Z" fill="#CFD3DF"/>
<path d="M342.499 91.1133C341.417 91.1133 340.573 90.2427 340.573 89.1876C340.573 88.106 341.444 87.262 342.499 87.262C343.554 87.262 344.425 88.1324 344.425 89.1876C344.425 90.2427 343.554 91.1133 342.499 91.1133Z" fill="#CFD3DF"/>
<path d="M342.499 112.559C341.523 112.559 340.732 111.768 340.732 110.792C340.732 109.816 341.523 109.025 342.499 109.025C343.475 109.025 344.267 109.816 344.267 110.792C344.24 111.794 343.475 112.559 342.499 112.559Z" fill="#CFD3DF"/>
<path d="M342.499 134.032C343.373 134.032 344.082 133.323 344.082 132.449C344.082 131.575 343.373 130.866 342.499 130.866C341.625 130.866 340.917 131.575 340.917 132.449C340.917 133.323 341.625 134.032 342.499 134.032Z" fill="#CFD3DF"/>
<path d="M342.499 155.504C341.734 155.504 341.101 154.871 341.101 154.106C341.101 153.341 341.734 152.708 342.499 152.708C343.264 152.708 343.897 153.341 343.897 154.106C343.897 154.871 343.264 155.504 342.499 155.504Z" fill="#CFD3DF"/>
<path d="M342.499 176.951C341.813 176.951 341.259 176.397 341.259 175.711C341.259 175.025 341.813 174.471 342.499 174.471C343.185 174.471 343.739 175.025 343.739 175.711C343.713 176.397 343.159 176.951 342.499 176.951Z" fill="#CFD3DF"/>
<path d="M342.499 198.423C341.919 198.423 341.444 197.948 341.444 197.367C341.444 196.787 341.919 196.312 342.499 196.312C343.079 196.312 343.554 196.787 343.554 197.367C343.554 197.948 343.079 198.423 342.499 198.423Z" fill="#CFD3DF"/>
<path d="M342.499 219.869C342.024 219.869 341.629 219.473 341.629 218.998C341.629 218.523 342.024 218.128 342.499 218.128C342.974 218.128 343.37 218.523 343.37 218.998C343.37 219.473 342.974 219.869 342.499 219.869Z" fill="#CFD3DF"/>
<path d="M342.499 241.341C342.893 241.341 343.212 241.022 343.212 240.629C343.212 240.236 342.893 239.917 342.499 239.917C342.106 239.917 341.787 240.236 341.787 240.629C341.787 241.022 342.106 241.341 342.499 241.341Z" fill="#CFD3DF"/>
<path d="M342.499 262.814C342.791 262.814 343.027 262.578 343.027 262.286C343.027 261.995 342.791 261.759 342.499 261.759C342.208 261.759 341.972 261.995 341.972 262.286C341.972 262.578 342.208 262.814 342.499 262.814Z" fill="#CFD3DF"/>
<path d="M342.499 284.26C342.689 284.26 342.842 284.106 342.842 283.917C342.842 283.728 342.689 283.574 342.499 283.574C342.31 283.574 342.156 283.728 342.156 283.917C342.156 284.106 342.31 284.26 342.499 284.26Z" fill="#CFD3DF"/>
<path d="M342.499 305.732C342.394 305.732 342.314 305.653 342.314 305.548C342.314 305.442 342.394 305.363 342.499 305.363C342.605 305.363 342.684 305.442 342.684 305.548C342.657 305.653 342.578 305.732 342.499 305.732Z" fill="#CFD3DF"/>
<path d="M366.775 5.2758C368.232 5.2758 369.413 4.09477 369.413 2.6379C369.413 1.18103 368.232 0 366.775 0C365.318 0 364.137 1.18103 364.137 2.6379C364.137 4.09477 365.318 5.2758 366.775 5.2758Z" fill="#CFD3DF"/>
<path d="M366.775 26.7219C365.404 26.7219 364.322 25.614 364.322 24.2687C364.322 22.8969 365.43 21.8154 366.775 21.8154C368.147 21.8154 369.228 22.9233 369.228 24.2687C369.255 25.614 368.147 26.7219 366.775 26.7219Z" fill="#CFD3DF"/>
<path d="M366.775 48.1945C365.509 48.1945 364.48 47.1657 364.48 45.8995C364.48 44.6333 365.509 43.6045 366.775 43.6045C368.041 43.6045 369.07 44.6333 369.07 45.8995C369.07 47.1657 368.041 48.1945 366.775 48.1945Z" fill="#CFD3DF"/>
<path d="M366.775 69.6406C365.615 69.6406 364.665 68.6909 364.665 67.5302C364.665 66.3695 365.615 65.4199 366.775 65.4199C367.936 65.4199 368.886 66.3695 368.886 67.5302C368.886 68.6909 367.962 69.6406 366.775 69.6406Z" fill="#CFD3DF"/>
<path d="M366.775 91.1133C365.72 91.1133 364.85 90.2427 364.85 89.1876C364.85 88.106 365.72 87.262 366.775 87.262C367.857 87.262 368.701 88.1324 368.701 89.1876C368.727 90.2427 367.857 91.1133 366.775 91.1133Z" fill="#CFD3DF"/>
<path d="M366.775 112.559C365.799 112.559 365.008 111.768 365.008 110.792C365.008 109.816 365.799 109.025 366.775 109.025C367.751 109.025 368.543 109.816 368.543 110.792C368.543 111.794 367.751 112.559 366.775 112.559Z" fill="#CFD3DF"/>
<path d="M366.775 134.032C365.905 134.032 365.192 133.32 365.192 132.449C365.192 131.579 365.905 130.866 366.775 130.866C367.646 130.866 368.358 131.579 368.358 132.449C368.358 133.32 367.672 134.032 366.775 134.032Z" fill="#CFD3DF"/>
<path d="M366.775 155.504C366.01 155.504 365.377 154.871 365.377 154.106C365.377 153.341 366.01 152.708 366.775 152.708C367.54 152.708 368.173 153.341 368.173 154.106C368.199 154.871 367.566 155.504 366.775 155.504Z" fill="#CFD3DF"/>
<path d="M366.775 176.951C366.089 176.951 365.535 176.397 365.535 175.711C365.535 175.025 366.089 174.471 366.775 174.471C367.461 174.471 368.015 175.025 368.015 175.711C368.015 176.397 367.461 176.951 366.775 176.951Z" fill="#CFD3DF"/>
<path d="M366.775 198.423C366.195 198.423 365.72 197.948 365.72 197.367C365.72 196.787 366.195 196.312 366.775 196.312C367.356 196.312 367.83 196.787 367.83 197.367C367.83 197.948 367.382 198.423 366.775 198.423Z" fill="#CFD3DF"/>
<path d="M366.775 219.869C366.3 219.869 365.905 219.473 365.905 218.998C365.905 218.523 366.3 218.128 366.775 218.128C367.25 218.128 367.646 218.523 367.646 218.998C367.672 219.473 367.276 219.869 366.775 219.869Z" fill="#CFD3DF"/>
<path d="M366.775 241.341C366.379 241.341 366.063 241.025 366.063 240.629C366.063 240.233 366.379 239.917 366.775 239.917C367.171 239.917 367.487 240.233 367.487 240.629C367.487 241.025 367.171 241.341 366.775 241.341Z" fill="#CFD3DF"/>
<path d="M366.775 262.814C366.485 262.814 366.248 262.576 366.248 262.286C366.248 261.996 366.485 261.759 366.775 261.759C367.065 261.759 367.303 261.996 367.303 262.286C367.303 262.576 367.065 262.814 366.775 262.814Z" fill="#CFD3DF"/>
<path d="M366.775 284.26C366.59 284.26 366.432 284.102 366.432 283.917C366.432 283.732 366.59 283.574 366.775 283.574C366.96 283.574 367.118 283.732 367.118 283.917C367.144 284.102 366.986 284.26 366.775 284.26Z" fill="#CFD3DF"/>
<path d="M366.775 305.732C366.67 305.732 366.591 305.653 366.591 305.548C366.591 305.442 366.67 305.363 366.775 305.363C366.881 305.363 366.96 305.442 366.96 305.548C366.96 305.653 366.881 305.732 366.775 305.732Z" fill="#CFD3DF"/>
<path d="M391.051 5.2758C392.508 5.2758 393.689 4.09477 393.689 2.6379C393.689 1.18103 392.508 0 391.051 0C389.594 0 388.413 1.18103 388.413 2.6379C388.413 4.09477 389.594 5.2758 391.051 5.2758Z" fill="#CFD3DF"/>
<path d="M391.051 26.7219C389.679 26.7219 388.598 25.614 388.598 24.2687C388.598 22.8969 389.706 21.8154 391.051 21.8154C392.396 21.8154 393.504 22.9233 393.504 24.2687C393.53 25.614 392.423 26.7219 391.051 26.7219Z" fill="#CFD3DF"/>
<path d="M391.051 48.1945C389.785 48.1945 388.756 47.1657 388.756 45.8995C388.756 44.6333 389.785 43.6045 391.051 43.6045C392.317 43.6045 393.346 44.6333 393.346 45.8995C393.346 47.1657 392.317 48.1945 391.051 48.1945Z" fill="#CFD3DF"/>
<path d="M391.051 69.6406C389.89 69.6406 388.941 68.6909 388.941 67.5302C388.941 66.3695 389.89 65.4199 391.051 65.4199C392.212 65.4199 393.161 66.3695 393.161 67.5302C393.161 68.6909 392.212 69.6406 391.051 69.6406Z" fill="#CFD3DF"/>
<path d="M391.051 91.1133C389.996 91.1133 389.125 90.2427 389.125 89.1876C389.125 88.106 389.996 87.262 391.051 87.262C392.132 87.262 392.976 88.1324 392.976 89.1876C393.003 90.2427 392.132 91.1133 391.051 91.1133Z" fill="#CFD3DF"/>
<path d="M391.051 112.559C390.075 112.559 389.284 111.768 389.284 110.792C389.284 109.816 390.075 109.025 391.051 109.025C392.027 109.025 392.818 109.816 392.818 110.792C392.818 111.794 392.027 112.559 391.051 112.559Z" fill="#CFD3DF"/>
<path d="M391.051 134.032C390.18 134.032 389.468 133.32 389.468 132.449C389.468 131.579 390.18 130.866 391.051 130.866C391.921 130.866 392.634 131.579 392.634 132.449C392.634 133.32 391.921 134.032 391.051 134.032Z" fill="#CFD3DF"/>
<path d="M391.051 155.504C390.286 155.504 389.653 154.871 389.653 154.106C389.653 153.341 390.286 152.708 391.051 152.708C391.816 152.708 392.449 153.341 392.449 154.106C392.476 154.871 391.842 155.504 391.051 155.504Z" fill="#CFD3DF"/>
<path d="M391.051 176.951C390.365 176.951 389.811 176.397 389.811 175.711C389.811 175.025 390.365 174.471 391.051 174.471C391.737 174.471 392.291 175.025 392.291 175.711C392.291 176.397 391.737 176.951 391.051 176.951Z" fill="#CFD3DF"/>
<path d="M391.051 198.423C390.47 198.423 389.996 197.948 389.996 197.367C389.996 196.787 390.47 196.312 391.051 196.312C391.631 196.312 392.106 196.787 392.106 197.367C392.106 197.948 391.631 198.423 391.051 198.423Z" fill="#CFD3DF"/>
<path d="M391.051 219.869C390.576 219.869 390.18 219.473 390.18 218.998C390.18 218.523 390.576 218.128 391.051 218.128C391.526 218.128 391.922 218.523 391.922 218.998C391.948 219.473 391.552 219.869 391.051 219.869Z" fill="#CFD3DF"/>
<path d="M391.051 241.341C390.655 241.341 390.339 241.025 390.339 240.629C390.339 240.233 390.655 239.917 391.051 239.917C391.447 239.917 391.763 240.233 391.763 240.629C391.763 241.025 391.447 241.341 391.051 241.341Z" fill="#CFD3DF"/>
<path d="M391.051 262.814C390.761 262.814 390.523 262.576 390.523 262.286C390.523 261.996 390.761 261.759 391.051 261.759C391.341 261.759 391.579 261.996 391.579 262.286C391.579 262.576 391.341 262.814 391.051 262.814Z" fill="#CFD3DF"/>
<path d="M391.051 284.26C390.866 284.26 390.708 284.102 390.708 283.917C390.708 283.732 390.866 283.574 391.051 283.574C391.236 283.574 391.394 283.732 391.394 283.917C391.42 284.102 391.262 284.26 391.051 284.26Z" fill="#CFD3DF"/>
<path d="M391.051 305.732C390.945 305.732 390.866 305.653 390.866 305.548C390.866 305.442 390.945 305.363 391.051 305.363C391.156 305.363 391.236 305.442 391.236 305.548C391.236 305.653 391.156 305.732 391.051 305.732Z" fill="#CFD3DF"/>
<path d="M415.327 5.2758C416.784 5.2758 417.965 4.09477 417.965 2.6379C417.965 1.18103 416.784 0 415.327 0C413.87 0 412.689 1.18103 412.689 2.6379C412.689 4.09477 413.87 5.2758 415.327 5.2758Z" fill="#CFD3DF"/>
<path d="M415.327 26.7219C413.955 26.7219 412.874 25.614 412.874 24.2687C412.874 22.8969 413.981 21.8154 415.327 21.8154C416.698 21.8154 417.78 22.9233 417.78 24.2687C417.78 25.614 416.698 26.7219 415.327 26.7219Z" fill="#CFD3DF"/>
<path d="M415.327 48.1945C414.061 48.1945 413.032 47.1657 413.032 45.8995C413.032 44.6333 414.061 43.6045 415.327 43.6045C416.593 43.6045 417.622 44.6333 417.622 45.8995C417.622 47.1657 416.593 48.1945 415.327 48.1945Z" fill="#CFD3DF"/>
<path d="M415.327 69.6406C416.493 69.6406 417.437 68.6957 417.437 67.5302C417.437 66.3647 416.493 65.4199 415.327 65.4199C414.162 65.4199 413.217 66.3647 413.217 67.5302C413.217 68.6957 414.162 69.6406 415.327 69.6406Z" fill="#CFD3DF"/>
<path d="M415.327 91.1133C414.245 91.1133 413.401 90.2427 413.401 89.1876C413.401 88.106 414.272 87.262 415.327 87.262C416.382 87.262 417.253 88.1324 417.253 89.1876C417.253 90.2427 416.382 91.1133 415.327 91.1133Z" fill="#CFD3DF"/>
<path d="M415.327 112.559C414.351 112.559 413.56 111.768 413.56 110.792C413.56 109.816 414.351 109.025 415.327 109.025C416.303 109.025 417.094 109.816 417.094 110.792C417.094 111.794 416.303 112.559 415.327 112.559Z" fill="#CFD3DF"/>
<path d="M415.327 134.032C414.456 134.032 413.744 133.32 413.744 132.449C413.744 131.579 414.456 130.866 415.327 130.866C416.197 130.866 416.91 131.579 416.91 132.449C416.91 133.32 416.197 134.032 415.327 134.032Z" fill="#CFD3DF"/>
<path d="M415.327 155.504C414.562 155.504 413.929 154.871 413.929 154.106C413.929 153.341 414.562 152.708 415.327 152.708C416.092 152.708 416.725 153.341 416.725 154.106C416.725 154.871 416.092 155.504 415.327 155.504Z" fill="#CFD3DF"/>
<path d="M415.327 176.951C414.641 176.951 414.087 176.397 414.087 175.711C414.087 175.025 414.641 174.471 415.327 174.471C416.013 174.471 416.567 175.025 416.567 175.711C416.567 176.397 416.013 176.951 415.327 176.951Z" fill="#CFD3DF"/>
<path d="M415.327 198.423C414.747 198.423 414.272 197.948 414.272 197.367C414.272 196.787 414.747 196.312 415.327 196.312C415.907 196.312 416.382 196.787 416.382 197.367C416.382 197.948 415.907 198.423 415.327 198.423Z" fill="#CFD3DF"/>
<path d="M415.327 219.869C414.852 219.869 414.456 219.473 414.456 218.998C414.456 218.523 414.852 218.128 415.327 218.128C415.802 218.128 416.197 218.523 416.197 218.998C416.197 219.473 415.802 219.869 415.327 219.869Z" fill="#CFD3DF"/>
<path d="M415.327 241.341C414.931 241.341 414.615 241.025 414.615 240.629C414.615 240.233 414.931 239.917 415.327 239.917C415.723 239.917 416.039 240.233 416.039 240.629C416.039 241.025 415.723 241.341 415.327 241.341Z" fill="#CFD3DF"/>
<path d="M415.327 262.814C415.618 262.814 415.855 262.578 415.855 262.286C415.855 261.995 415.618 261.759 415.327 261.759C415.036 261.759 414.799 261.995 414.799 262.286C414.799 262.578 415.036 262.814 415.327 262.814Z" fill="#CFD3DF"/>
<path d="M415.327 284.26C415.142 284.26 414.984 284.102 414.984 283.917C414.984 283.732 415.142 283.574 415.327 283.574C415.511 283.574 415.67 283.732 415.67 283.917C415.67 284.102 415.511 284.26 415.327 284.26Z" fill="#CFD3DF"/>
<path d="M415.327 305.732C415.221 305.732 415.142 305.653 415.142 305.548C415.142 305.442 415.221 305.363 415.327 305.363C415.432 305.363 415.511 305.442 415.511 305.548C415.511 305.653 415.432 305.732 415.327 305.732Z" fill="#CFD3DF"/>
</svg>
