<svg width="51" height="71" viewBox="0 0 51 71" fill="none" xmlns="http://www.w3.org/2000/svg">
<path d="M19.9975 55.2376H16.9175V58.4166H15.2895V50.7166H16.9175V53.8076H19.9975V50.7166H21.6255V58.4166H19.9975V55.2376ZM30.3931 59.7806H29.2381L29.0621 58.4166H23.6721L23.4961 59.7806H22.3411V56.9866H23.2321C23.2907 56.9059 23.3824 56.7299 23.5071 56.4586C23.6317 56.1873 23.7564 55.7986 23.8811 55.2926C24.0057 54.7866 24.1121 54.1596 24.2001 53.4116C24.2954 52.6563 24.3357 51.7579 24.3211 50.7166H29.3371V56.9866H30.3931V59.7806ZM27.7091 56.9866V52.1466H25.8391C25.7951 53.4079 25.6814 54.4419 25.4981 55.2486C25.3221 56.0553 25.1424 56.6346 24.9591 56.9866H27.7091ZM36.713 58.0866C36.471 58.2553 36.152 58.3763 35.756 58.4496C35.36 58.5303 34.953 58.5706 34.535 58.5706C34.0437 58.5706 33.5707 58.4973 33.116 58.3506C32.6687 58.2039 32.269 57.9693 31.917 57.6466C31.5723 57.3239 31.2973 56.9096 31.092 56.4036C30.8867 55.8976 30.784 55.2853 30.784 54.5666C30.784 53.8186 30.9013 53.1916 31.136 52.6856C31.3707 52.1723 31.6713 51.7616 32.038 51.4536C32.4047 51.1383 32.8117 50.9109 33.259 50.7716C33.7063 50.6323 34.1463 50.5626 34.579 50.5626C35.0557 50.5626 35.4553 50.5919 35.778 50.6506C36.108 50.7093 36.3793 50.7789 36.592 50.8596L36.273 52.2236C36.0897 52.1429 35.8733 52.0843 35.624 52.0476C35.382 52.0109 35.074 51.9926 34.7 51.9926C34.37 51.9926 34.0693 52.0476 33.798 52.1576C33.534 52.2603 33.3067 52.4179 33.116 52.6306C32.9253 52.8433 32.775 53.1109 32.665 53.4336C32.5623 53.7563 32.511 54.1339 32.511 54.5666C32.511 54.9479 32.5587 55.2963 32.654 55.6116C32.7493 55.9269 32.8923 56.1983 33.083 56.4256C33.2737 56.6529 33.5157 56.8289 33.809 56.9536C34.1023 57.0783 34.4433 57.1406 34.832 57.1406C35.1913 57.1406 35.492 57.1076 35.734 57.0416C35.9833 56.9756 36.2033 56.8913 36.394 56.7886L36.713 58.0866Z" fill="#4B64C0"/>
<path d="M25.3275 70.1022C25.1461 70.1022 24.995 70.072 24.8137 70.0118C24.4208 69.8611 24.0278 69.6802 23.6651 69.5295C17.3786 66.6362 12.6637 60.5182 10.0342 51.8082C8.06963 45.3585 7.94873 39.8131 7.94873 39.572C7.94873 38.8486 8.46253 38.2459 9.1879 38.1856C11.9383 37.8842 18.648 34.9909 23.514 31.9771C23.8465 31.7661 24.2092 31.5552 24.5719 31.3141C25.0252 31.0127 25.6297 31.0127 26.0831 31.3141C26.4457 31.5552 26.7782 31.7661 27.1409 31.9771C32.0372 34.9608 38.7166 37.8842 41.467 38.1856C42.1924 38.276 42.7062 38.8788 42.7062 39.572C42.7062 39.7227 42.6155 43.3694 41.5577 48.1916C41.4065 48.945 40.6509 49.3971 39.8953 49.2464C39.1397 49.0957 38.6864 48.3422 38.8375 47.5888C39.5024 44.6051 39.7442 42.0735 39.8651 40.6871C36.3289 39.8432 30.3748 37.2212 25.6901 34.3279C25.5692 34.2676 25.4483 34.1772 25.3275 34.1169C25.2066 34.1772 25.0857 34.2676 24.9648 34.3279C20.2499 37.2212 14.326 39.8432 10.7898 40.6871C10.9409 42.616 11.364 46.6545 12.7241 51.0848C14.3864 56.57 17.8622 63.8032 24.8439 67.0281C24.995 67.1185 25.1763 67.1787 25.3577 67.239C25.539 67.1787 25.6902 67.0883 25.8715 67.0281C30.7073 64.7978 34.4248 60.4579 36.9334 54.0987C37.2054 53.3754 38.0215 53.0438 38.7166 53.3151C39.442 53.5863 39.7745 54.4001 39.5025 55.0932C36.7219 62.1155 32.5207 66.9678 27.02 69.5295C26.6573 69.7104 26.2644 69.8611 25.8715 70.0118C25.6599 70.072 25.5088 70.1022 25.3275 70.1022Z" fill="#4B64C0"/>
<path d="M49.6274 21.0368H31.3117C30.5561 21.0368 29.9214 20.4039 29.9214 19.6504V1.38643C29.9214 0.813792 30.2539 0.331575 30.7677 0.120605C31.2815 -0.0903655 31.886 0.030189 32.2789 0.421991L50.5945 18.686C50.9874 19.0778 51.1083 19.6806 50.8967 20.1929C50.6852 20.7053 50.2016 21.0368 49.6274 21.0368ZM32.702 18.2641H46.2725L32.702 4.73181V18.2641Z" fill="#4B64C0"/>
<path d="M49.6276 65.6116H39.0795C38.3239 65.6116 37.6892 64.9787 37.6892 64.2252C37.6892 63.4717 38.3239 62.8388 39.0795 62.8388H48.2373V20.223L30.7377 2.77275H2.78062V19.801C2.78062 20.5545 2.14592 21.1874 1.39033 21.1874C0.634731 21.1874 0 20.5545 0 19.801V1.38637C0 0.632909 0.634731 0 1.39033 0H31.3119C31.6746 0 32.0373 0.150694 32.2791 0.391802L50.5947 18.6557C50.8668 18.927 50.9877 19.2585 50.9877 19.6202V64.2252C51.0179 65.0088 50.3832 65.6116 49.6276 65.6116Z" fill="#4B64C0"/>
<path d="M11.2735 65.6116H1.39033C0.634731 65.6116 0 64.9787 0 64.2252V30.8617C0 30.1083 0.634731 29.4753 1.39033 29.4753C2.14593 29.4753 2.78062 30.1083 2.78062 30.8617V62.869H11.2735C12.0291 62.869 12.6638 63.5019 12.6638 64.2553C12.6638 65.0088 12.0291 65.6116 11.2735 65.6116Z" fill="#4B64C0"/>
<path d="M25.5089 63.7129C26.8776 63.7129 27.9872 62.6064 27.9872 61.2415C27.9872 59.8766 26.8776 58.7701 25.5089 58.7701C24.1401 58.7701 23.0305 59.8766 23.0305 61.2415C23.0305 62.6064 24.1401 63.7129 25.5089 63.7129Z" fill="#4B64C0"/>
</svg>
