<svg width="83" height="82" viewBox="0 0 83 82" fill="none" xmlns="http://www.w3.org/2000/svg">
<path d="M61.1178 32.1726C58.9701 31.4963 57.0861 30.031 55.9935 27.8517C53.8457 23.6436 55.579 18.4961 59.799 16.392C64.0191 14.2503 69.1811 15.9787 71.2911 20.1868C72.2708 22.1031 72.4215 24.2447 71.9317 26.1609L67.9754 24.8459C68.1638 23.9066 68.0507 22.9297 67.5986 22.0279C66.5059 19.8487 63.8684 18.9845 61.683 20.0741C59.4976 21.1637 58.631 23.7938 59.7237 25.9731C60.2889 27.1003 61.3062 27.8893 62.4366 28.2274L61.1178 32.1726Z" fill="#4B64C0"/>
<path d="M51.623 39.7622C51.1709 39.7622 50.7941 39.7246 50.4926 39.6495C50.0028 39.5368 49.5507 39.1986 49.3246 38.7477L42.4293 25.1088C42.2032 24.6579 42.1656 24.0944 42.3916 23.6435C42.8815 22.5163 44.4263 20.788 46.7247 19.5481C48.8348 18.4209 50.6057 15.3399 51.4723 13.837C51.6984 13.4237 51.8868 13.1231 52.0375 12.8977C52.7534 11.8832 54.7504 9.32825 57.8777 7.52476C58.7067 7.03631 59.7617 7.33689 60.2515 8.16349C60.7414 8.99009 60.4399 10.0421 59.611 10.5306C57.0488 11.9959 55.4286 14.1 54.8634 14.9266C54.7881 15.0017 54.6373 15.3399 54.449 15.6029C53.4316 17.3688 51.3216 21.0134 48.3826 22.5914C47.2146 23.2302 46.4233 23.9441 45.9712 24.4701L51.9621 36.3431C52.6404 36.3055 53.7331 36.0801 54.9011 35.5541C57.9531 34.1639 62.1355 34.6147 64.1325 34.8402C64.4339 34.8777 64.8107 34.9153 64.9237 34.9153C66.8454 34.9529 73.3639 34.6523 76.5666 29.0915C76.6043 29.054 76.6419 28.9788 76.6796 28.9412C76.7927 28.7534 79.8447 24.3949 78.3375 18.4584C78.1491 17.6694 77.8477 16.8804 77.4332 16.0913C77.0187 15.3023 76.5666 14.5884 76.0768 13.9497C72.1958 9.17796 66.6947 9.06524 66.657 9.06524C65.715 9.06524 64.9237 8.27621 64.9614 7.33689C64.9614 6.39757 65.7527 5.64612 66.6947 5.64612C66.9961 5.64612 73.8537 5.79641 78.752 11.8081C79.4302 12.6347 80.0331 13.574 80.5229 14.5509C81.0504 15.5653 81.4272 16.5798 81.6909 17.6318C83.5372 24.7331 80.0707 30.1436 79.5432 30.895C75.3608 38.0714 67.2598 38.4472 64.8484 38.372C64.5846 38.372 64.2455 38.3344 63.7557 38.2593C62.0601 38.0714 58.5183 37.6581 56.3329 38.6726C54.5997 39.4616 52.9041 39.7622 51.623 39.7622Z" fill="#4B64C0"/>
<path d="M47.8169 39.9125C45.4432 39.9125 43.1824 38.635 42.052 36.3807L40.168 32.661C39.3768 31.1205 39.2637 29.3922 39.7912 27.7766C40.3188 26.161 41.4868 24.8084 42.994 24.0569L43.4838 23.7939C43.8983 23.6061 44.3505 23.5685 44.8026 23.6812C45.2548 23.8315 45.5938 24.1321 45.8199 24.5454L51.9617 36.6813C52.3761 37.5454 52.037 38.5599 51.2081 39.0107L50.7182 39.2738C49.7762 39.687 48.7966 39.9125 47.8169 39.9125ZM43.6345 27.8142C43.4085 28.1147 43.1824 28.4529 43.0693 28.7911C42.8056 29.5425 42.881 30.3691 43.2201 31.0454L45.104 34.7651C45.6692 35.8547 46.7996 36.4558 47.9676 36.3807L43.6345 27.8142Z" fill="#4B64C0"/>
<path d="M53.4313 81.7684H22.3837C21.9315 81.7684 21.4794 81.5806 21.1402 81.2424C20.8011 80.9043 20.6504 80.4534 20.6504 79.9649C20.6881 78.7251 20.8765 74.066 21.0272 71.2105C20.7635 71.2481 20.462 71.2857 20.1606 71.3232C19.2186 71.436 18.352 70.7972 18.239 69.8203C18.1259 68.881 18.7665 68.0168 19.7461 67.9041C21.2533 67.7162 21.8938 67.6035 22.1199 67.5284C22.4213 67.3781 22.7605 67.3029 23.0996 67.3405C24.0039 67.4532 24.6821 68.2798 24.6067 69.1816C24.5691 69.4822 24.3807 74.2915 24.2299 78.2742H51.4719C50.7184 73.277 49.0605 61.0659 50.4546 56.5572C51.0575 54.5658 52.2255 52.7999 53.8834 51.4473C57.4629 48.479 60.2512 44.6466 61.9091 40.3258C62.2482 39.424 63.2655 39.0107 64.1321 39.3489C65.0364 39.687 65.4509 40.7015 65.1118 41.5657C63.2278 46.4126 60.1005 50.771 56.0688 54.1149C54.9761 55.0167 54.1472 56.219 53.7327 57.5716C52.527 61.5543 54.3732 74.9302 55.1645 79.7771C55.2399 80.2655 55.0892 80.7915 54.7877 81.1673C54.4109 81.543 53.9211 81.7684 53.4313 81.7684ZM21.1779 68.5428C21.1403 68.618 21.1403 68.6931 21.1026 68.7683C21.1403 68.6931 21.1779 68.618 21.1779 68.5428Z" fill="#4B64C0"/>
<path d="M8.5933 72.3004C8.4049 72.3004 8.25419 72.3004 8.10348 72.3004C7.23686 72.2628 6.48327 71.8871 5.95576 71.2484C4.71235 69.7079 5.08915 67.1154 5.65433 63.8841C5.72969 63.3581 5.88041 62.7194 5.91809 62.3436C5.57898 61.5546 5.69201 60.6153 5.84273 59.7135C5.88041 59.5257 5.91809 59.2627 5.91809 59.0372C4.37325 58.1355 4.33556 56.0314 4.33556 54.4533C4.10949 54.3031 3.5443 54.0776 3.20519 53.9273C2.1125 53.4764 0.756049 52.9504 0.190862 51.5602C-0.56272 49.7567 0.906756 47.1642 4.75003 41.641C5.31521 40.8144 5.91809 39.9502 6.10649 39.6497C6.40792 39.0861 6.10649 36.9068 5.23987 34.8779C4.97612 34.2392 4.75004 33.2247 5.42827 28.3403C5.80506 25.5974 6.52096 22.8922 7.61365 20.2997C7.99044 19.4355 9.00778 19.0222 9.8744 19.3604C10.741 19.7361 11.1555 20.7506 10.8164 21.6147C9.8744 23.9067 9.19616 26.3113 8.89473 28.7911C8.4049 32.323 8.48026 33.375 8.51794 33.6004C8.97009 34.6525 10.5526 38.8231 9.23385 41.2653C8.9701 41.7162 8.51796 42.4301 7.68902 43.5948C6.67168 45.0601 4.0718 48.8174 3.61965 50.2828C3.88341 50.4331 4.33557 50.6209 4.59932 50.7336C5.84273 51.2221 7.91508 52.0487 7.91508 54.3782C7.91508 54.7163 7.91509 55.6557 7.99044 56.1441C9.83672 56.7453 9.4976 59.0748 9.34688 60.202C9.3092 60.465 9.27153 60.8031 9.23385 61.0286C9.64832 61.78 9.45993 62.7945 9.12082 64.5228C8.93242 65.4997 8.51795 67.9044 8.66866 68.8813C9.686 68.8813 11.4946 68.7686 13.793 68.5807C14.735 68.5056 15.6016 69.1819 15.677 70.1588C15.7523 71.0981 15.0741 71.9623 14.0945 72.0374C12.2859 72.1501 10.0251 72.3004 8.5933 72.3004Z" fill="#4B64C0"/>
<path d="M15.4513 12.4844C15.0368 12.4844 14.5846 12.3341 14.2455 11.9959C13.5673 11.3572 13.5296 10.2676 14.1702 9.55371C20.1235 3.27909 28.5259 -0.215162 37.1921 0.0102734C42.3541 0.122991 47.4408 1.58833 51.8869 4.18084C52.7159 4.66928 52.9796 5.72131 52.4898 6.54791C52 7.3745 50.9449 7.63751 50.116 7.14907C46.1597 4.81957 41.6759 3.5421 37.1167 3.42938C29.4302 3.24152 21.9697 6.32247 16.6947 11.8832C16.3932 12.3341 15.9411 12.4844 15.4513 12.4844Z" fill="#4B64C0"/>
</svg>
