<svg width="9" height="5" viewBox="0 0 9 5" fill="none" xmlns="http://www.w3.org/2000/svg">
<path d="M8.7307 0.144477C8.57759 0.0390008 8.38066 -0.0117804 8.18282 0.00319604C7.98498 0.0181725 7.80226 0.0976928 7.67446 0.224433L4.50004 3.39839L1.32558 0.224486C1.19814 0.0972477 1.01528 0.0174062 0.817201 0.00252569C0.619126 -0.0123548 0.422071 0.0389443 0.269384 0.145138C0.116698 0.251332 0.0208876 0.403721 0.00303085 0.568783C-0.0148259 0.733844 0.0467336 0.898056 0.174167 1.02529L3.92433 4.77539C3.99468 4.8457 4.08272 4.90225 4.1822 4.94107C4.28168 4.97988 4.39019 5 4.50004 5C4.60989 5 4.71839 4.97988 4.81788 4.94107C4.91736 4.90225 5.00539 4.8457 5.07574 4.77539L8.82591 1.02524C8.9533 0.897874 9.01482 0.733582 8.99697 0.568444C8.97912 0.403306 8.88335 0.250822 8.7307 0.144477Z" fill="#888987"/>
</svg>
