<svg width="344" height="264" viewBox="0 0 344 264" fill="none" xmlns="http://www.w3.org/2000/svg">
<path d="M4.52655 3.73257C4.52655 2.4826 3.51325 1.4693 2.26328 1.4693C1.0133 1.4693 0 2.4826 0 3.73257C0 4.98255 1.0133 5.99585 2.26328 5.99585C3.51325 5.99585 4.52655 4.98255 4.52655 3.73257Z" fill="#4B64C0"/>
<path d="M4.36826 22.2914C4.36826 23.4683 3.41769 24.3962 2.26342 24.3962C1.08651 24.3962 0.158569 23.4457 0.158569 22.2914C0.158569 21.1145 1.10915 20.1865 2.26342 20.1865C3.44032 20.1865 4.36826 21.1145 4.36826 22.2914Z" fill="#4B64C0"/>
<path d="M4.23204 40.8503C4.23204 41.9367 3.34936 42.8193 2.26299 42.8193C1.17662 42.8193 0.293945 41.9367 0.293945 40.8503C0.293945 39.7639 1.17662 38.8813 2.26299 38.8813C3.34936 38.9039 4.23204 39.7639 4.23204 40.8503Z" fill="#4B64C0"/>
<path d="M4.07375 59.4318C4.07375 58.4319 3.26311 57.6212 2.26313 57.6212C1.26316 57.6212 0.452515 58.4319 0.452515 59.4318C0.452515 60.4318 1.26316 61.2424 2.26313 61.2424C3.26311 61.2424 4.07375 60.4318 4.07375 59.4318Z" fill="#4B64C0"/>
<path d="M3.91553 77.9906C3.91553 78.896 3.16865 79.6428 2.26334 79.6428C1.35802 79.6428 0.611145 78.896 0.611145 77.9906C0.611145 77.0853 1.35802 76.3385 2.26334 76.3385C3.16865 76.3385 3.91553 77.0627 3.91553 77.9906Z" fill="#4B64C0"/>
<path d="M3.77986 96.5495C3.77986 97.3869 3.10088 98.0659 2.26347 98.0659C1.42606 98.0659 0.74707 97.3869 0.74707 96.5495C0.74707 95.7121 1.42606 95.0331 2.26347 95.0331C3.10088 95.0331 3.77986 95.7121 3.77986 96.5495Z" fill="#4B64C0"/>
<path d="M3.62101 115.108C3.62101 114.358 3.01304 113.75 2.26305 113.75C1.51307 113.75 0.90509 114.358 0.90509 115.108C0.90509 115.858 1.51307 116.466 2.26305 116.466C3.01304 116.466 3.62101 115.858 3.62101 115.108Z" fill="#4B64C0"/>
<path d="M3.46273 133.667C3.46273 134.324 2.91954 134.867 2.26319 134.867C1.60684 134.867 1.06366 134.324 1.06366 133.667C1.06366 133.011 1.60684 132.468 2.26319 132.468C2.94218 132.468 3.46273 133.011 3.46273 133.667Z" fill="#4B64C0"/>
<path d="M3.32707 152.249C3.32707 152.837 2.85178 153.312 2.26333 153.312C1.67488 153.312 1.19958 152.837 1.19958 152.249C1.19958 151.66 1.67488 151.185 2.26333 151.185C2.85178 151.185 3.32707 151.66 3.32707 152.249Z" fill="#4B64C0"/>
<path d="M3.16884 170.808C3.16884 170.308 2.76352 169.902 2.26353 169.902C1.76354 169.902 1.35822 170.308 1.35822 170.808C1.35822 171.308 1.76354 171.713 2.26353 171.713C2.76352 171.713 3.16884 171.308 3.16884 170.808Z" fill="#4B64C0"/>
<path d="M3.01 189.366C3.01 189.774 2.67051 190.113 2.26312 190.113C1.85573 190.113 1.51624 189.774 1.51624 189.366C1.51624 188.959 1.85573 188.62 2.26312 188.62C2.67051 188.62 3.01 188.959 3.01 189.366Z" fill="#4B64C0"/>
<path d="M2.87433 207.925C2.87433 208.265 2.60274 208.536 2.26325 208.536C1.92375 208.536 1.65216 208.265 1.65216 207.925C1.65216 207.586 1.92375 207.314 2.26325 207.314C2.60274 207.337 2.87433 207.608 2.87433 207.925Z" fill="#4B64C0"/>
<path d="M2.71604 226.507C2.71604 226.257 2.51338 226.054 2.26339 226.054C2.01339 226.054 1.81073 226.257 1.81073 226.507C1.81073 226.757 2.01339 226.959 2.26339 226.959C2.51338 226.959 2.71604 226.757 2.71604 226.507Z" fill="#4B64C0"/>
<path d="M2.55776 245.066C2.55776 245.224 2.42196 245.36 2.26353 245.36C2.1051 245.36 1.9693 245.224 1.9693 245.066C1.9693 244.907 2.1051 244.771 2.26353 244.771C2.42196 244.771 2.55776 244.907 2.55776 245.066Z" fill="#4B64C0"/>
<path d="M2.42153 263.625C2.42153 263.715 2.35363 263.783 2.2631 263.783C2.17257 263.783 2.10468 263.715 2.10468 263.625C2.10468 263.534 2.17257 263.466 2.2631 263.466C2.35363 263.489 2.42153 263.557 2.42153 263.625Z" fill="#4B64C0"/>
<path d="M24.4512 3.64615C24.4512 2.39618 23.4379 1.38287 22.188 1.38287C20.938 1.38287 19.9247 2.39618 19.9247 3.64615C19.9247 4.89612 20.938 5.90942 22.188 5.90942C23.4379 5.90942 24.4512 4.89612 24.4512 3.64615Z" fill="#4B64C0"/>
<path d="M24.2929 22.205C24.2929 23.3819 23.3424 24.3098 22.1881 24.3098C21.0112 24.3098 20.0833 23.3593 20.0833 22.205C20.0833 21.0281 21.0338 20.1001 22.1881 20.1001C23.3424 20.1001 24.2929 21.0281 24.2929 22.205Z" fill="#4B64C0"/>
<path d="M24.1567 40.7639C24.1567 41.8502 23.2741 42.7329 22.1877 42.7329C21.1013 42.7329 20.2186 41.8502 20.2186 40.7639C20.2186 39.6775 21.1013 38.7948 22.1877 38.7948C23.2741 38.8175 24.1567 39.6775 24.1567 40.7639Z" fill="#4B64C0"/>
<path d="M23.9984 59.3454C23.9984 60.3413 23.1837 61.156 22.1878 61.156C21.192 61.156 20.3772 60.3413 20.3772 59.3454C20.3772 58.3496 21.192 57.5348 22.1878 57.5348C23.1837 57.5122 23.9984 58.3269 23.9984 59.3454Z" fill="#4B64C0"/>
<path d="M23.8401 77.9042C23.8401 78.8095 23.0933 79.5564 22.188 79.5564C21.26 79.5564 20.5358 78.8095 20.5358 77.9042C20.5358 76.9989 21.2827 76.252 22.188 76.252C23.0933 76.2294 23.8401 76.9763 23.8401 77.9042Z" fill="#4B64C0"/>
<path d="M23.7045 96.4631C23.7045 97.3005 23.0255 97.9795 22.1881 97.9795C21.3507 97.9795 20.6717 97.3005 20.6717 96.4631C20.6717 95.6257 21.3507 94.9467 22.1881 94.9467C23.0255 94.9467 23.7045 95.6257 23.7045 96.4631Z" fill="#4B64C0"/>
<path d="M23.5456 115.022C23.5456 115.769 22.9346 116.38 22.1877 116.38C21.4408 116.38 20.8297 115.769 20.8297 115.022C20.8297 114.275 21.4408 113.664 22.1877 113.664C22.9346 113.664 23.5456 114.275 23.5456 115.022Z" fill="#4B64C0"/>
<path d="M23.3874 133.581C23.3874 134.237 22.8442 134.78 22.1879 134.78C21.5315 134.78 20.9883 134.237 20.9883 133.581C20.9883 132.924 21.5315 132.381 22.1879 132.381C22.8442 132.381 23.3874 132.924 23.3874 133.581Z" fill="#4B64C0"/>
<path d="M23.2518 152.162C23.2518 152.751 22.7765 153.226 22.188 153.226C21.5996 153.226 21.1243 152.751 21.1243 152.162C21.1243 151.574 21.5996 151.099 22.188 151.099C22.7765 151.099 23.2518 151.574 23.2518 152.162Z" fill="#4B64C0"/>
<path d="M23.0935 170.721C23.0935 171.219 22.6861 171.626 22.1882 171.626C21.6902 171.626 21.2828 171.219 21.2828 170.721C21.2828 170.223 21.6902 169.816 22.1882 169.816C22.6861 169.816 23.0935 170.223 23.0935 170.721Z" fill="#4B64C0"/>
<path d="M22.9346 189.28C22.9346 189.687 22.5951 190.027 22.1877 190.027C21.7804 190.027 21.4409 189.687 21.4409 189.28C21.4409 188.873 21.7804 188.533 22.1877 188.533C22.5951 188.533 22.9346 188.873 22.9346 189.28Z" fill="#4B64C0"/>
<path d="M22.799 207.839C22.799 208.178 22.5274 208.45 22.1879 208.45C21.8484 208.45 21.5768 208.178 21.5768 207.839C21.5768 207.499 21.8484 207.228 22.1879 207.228C22.5274 207.25 22.799 207.522 22.799 207.839Z" fill="#4B64C0"/>
<path d="M22.6407 226.42C22.6407 226.669 22.437 226.873 22.188 226.873C21.9391 226.873 21.7354 226.669 21.7354 226.42C21.7354 226.171 21.9391 225.968 22.188 225.968C22.437 225.968 22.6407 226.171 22.6407 226.42Z" fill="#4B64C0"/>
<path d="M22.4819 244.979C22.4819 245.138 22.3461 245.273 22.1877 245.273C22.0292 245.273 21.8934 245.138 21.8934 244.979C21.8934 244.821 22.0292 244.685 22.1877 244.685C22.3461 244.685 22.4819 244.821 22.4819 244.979Z" fill="#4B64C0"/>
<path d="M22.3462 263.538C22.3462 263.629 22.2783 263.697 22.1878 263.697C22.0973 263.697 22.0294 263.629 22.0294 263.538C22.0294 263.448 22.0973 263.38 22.1878 263.38C22.2783 263.402 22.3462 263.47 22.3462 263.538Z" fill="#4B64C0"/>
<path d="M44.3759 3.56021C44.3759 2.31024 43.3626 1.29694 42.1126 1.29694C40.8626 1.29694 39.8493 2.31024 39.8493 3.56021C39.8493 4.81018 40.8626 5.82349 42.1126 5.82349C43.3626 5.82349 44.3759 4.81018 44.3759 3.56021Z" fill="#4B64C0"/>
<path d="M44.2176 22.119C44.2176 23.296 43.267 24.2239 42.1127 24.2239C40.9358 24.2239 40.0079 23.2733 40.0079 22.119C40.0079 20.9421 40.9585 20.0142 42.1127 20.0142C43.267 20.0142 44.2176 20.9421 44.2176 22.119Z" fill="#4B64C0"/>
<path d="M44.0592 40.6779C44.0592 41.7643 43.1766 42.647 42.0902 42.647C41.0038 42.647 40.1212 41.7643 40.1212 40.6779C40.1212 39.5916 41.0038 38.7089 42.0902 38.7089C43.1766 38.7315 44.0592 39.5916 44.0592 40.6779Z" fill="#4B64C0"/>
<path d="M43.9231 59.2595C43.9231 58.2595 43.1124 57.4488 42.1124 57.4488C41.1125 57.4488 40.3018 58.2595 40.3018 59.2595C40.3018 60.2595 41.1125 61.0701 42.1124 61.0701C43.1124 61.0701 43.9231 60.2595 43.9231 59.2595Z" fill="#4B64C0"/>
<path d="M43.7648 77.8183C43.7648 78.7236 43.0179 79.4705 42.1126 79.4705C41.1846 79.4705 40.4604 78.7236 40.4604 77.8183C40.4604 76.913 41.2073 76.1661 42.1126 76.1661C43.0179 76.1435 43.7648 76.8903 43.7648 77.8183Z" fill="#4B64C0"/>
<path d="M43.6065 96.3772C43.6065 97.2146 42.9275 97.8936 42.0901 97.8936C41.2526 97.8936 40.5737 97.2146 40.5737 96.3772C40.5737 95.5398 41.2526 94.8608 42.0901 94.8608C42.9275 94.8608 43.6065 95.5398 43.6065 96.3772Z" fill="#4B64C0"/>
<path d="M43.4703 114.936C43.4703 114.186 42.8623 113.578 42.1124 113.578C41.3624 113.578 40.7544 114.186 40.7544 114.936C40.7544 115.686 41.3624 116.294 42.1124 116.294C42.8623 116.294 43.4703 115.686 43.4703 114.936Z" fill="#4B64C0"/>
<path d="M43.312 133.495C43.312 134.151 42.7688 134.694 42.1125 134.694C41.4561 134.694 40.913 134.151 40.913 133.495C40.913 132.838 41.4561 132.295 42.1125 132.295C42.7688 132.295 43.312 132.838 43.312 133.495Z" fill="#4B64C0"/>
<path d="M43.1537 152.076C43.1537 152.665 42.6784 153.14 42.09 153.14C41.5015 153.14 41.0262 152.665 41.0262 152.076C41.0262 151.488 41.5015 151.013 42.09 151.013C42.6784 151.013 43.1537 151.488 43.1537 152.076Z" fill="#4B64C0"/>
<path d="M43.0181 170.635C43.0181 170.135 42.6128 169.73 42.1128 169.73C41.6128 169.73 41.2075 170.135 41.2075 170.635C41.2075 171.135 41.6128 171.541 42.1128 171.541C42.6128 171.541 43.0181 171.135 43.0181 170.635Z" fill="#4B64C0"/>
<path d="M42.8592 189.194C42.8592 189.601 42.5198 189.941 42.1124 189.941C41.705 189.941 41.3655 189.601 41.3655 189.194C41.3655 188.787 41.705 188.447 42.1124 188.447C42.5198 188.447 42.8592 188.787 42.8592 189.194Z" fill="#4B64C0"/>
<path d="M42.7009 207.753C42.7009 208.092 42.4293 208.364 42.0898 208.364C41.7503 208.364 41.4788 208.092 41.4788 207.753C41.4788 207.413 41.7503 207.142 42.0898 207.142C42.4293 207.142 42.7009 207.436 42.7009 207.753Z" fill="#4B64C0"/>
<path d="M42.5653 226.334C42.5653 226.084 42.3627 225.882 42.1127 225.882C41.8627 225.882 41.66 226.084 41.66 226.334C41.66 226.584 41.8627 226.787 42.1127 226.787C42.3627 226.787 42.5653 226.584 42.5653 226.334Z" fill="#4B64C0"/>
<path d="M42.407 244.893C42.407 245.052 42.2713 245.188 42.1128 245.188C41.9544 245.188 41.8186 245.052 41.8186 244.893C41.8186 244.735 41.9544 244.599 42.1128 244.599C42.2713 244.599 42.407 244.735 42.407 244.893Z" fill="#4B64C0"/>
<path d="M42.2482 263.452C42.2482 263.543 42.1803 263.611 42.0898 263.611C41.9992 263.611 41.9313 263.543 41.9313 263.452C41.9313 263.362 41.9992 263.294 42.0898 263.294C42.1803 263.316 42.2482 263.384 42.2482 263.452Z" fill="#4B64C0"/>
<path d="M64.3005 3.47305C64.3005 2.22308 63.2872 1.20978 62.0372 1.20978C60.7872 1.20978 59.7739 2.22308 59.7739 3.47305C59.7739 4.72303 60.7872 5.73633 62.0372 5.73633C63.2872 5.73633 64.3005 4.72303 64.3005 3.47305Z" fill="#4B64C0"/>
<path d="M64.1649 22.0319C64.1649 23.2088 63.2143 24.1367 62.06 24.1367C60.8831 24.1367 59.9552 23.1862 59.9552 22.0319C59.9552 20.855 60.9058 19.927 62.06 19.927C63.2143 19.927 64.1649 20.855 64.1649 22.0319Z" fill="#4B64C0"/>
<path d="M64.006 40.5908C64.006 41.6771 63.1234 42.5598 62.037 42.5598C60.9506 42.5598 60.0679 41.6771 60.0679 40.5908C60.0679 39.5044 60.9506 38.6217 62.037 38.6217C63.1234 38.6444 64.006 39.5044 64.006 40.5908Z" fill="#4B64C0"/>
<path d="M63.8477 59.1723C63.8477 58.1723 63.0371 57.3617 62.0371 57.3617C61.0372 57.3617 60.2265 58.1723 60.2265 59.1723C60.2265 60.1723 61.0372 60.9829 62.0371 60.9829C63.0371 60.9829 63.8477 60.1723 63.8477 59.1723Z" fill="#4B64C0"/>
<path d="M63.7121 77.7311C63.7121 78.6364 62.9652 79.3833 62.0599 79.3833C61.1546 79.3833 60.4077 78.6364 60.4077 77.7311C60.4077 76.8258 61.1546 76.0789 62.0599 76.0789C62.9652 76.0789 63.7121 76.8032 63.7121 77.7311Z" fill="#4B64C0"/>
<path d="M63.5538 96.29C63.5538 97.1274 62.8748 97.8064 62.0374 97.8064C61.2 97.8064 60.521 97.1274 60.521 96.29C60.521 95.4526 61.2 94.7736 62.0374 94.7736C62.8748 94.7736 63.5538 95.4526 63.5538 96.29Z" fill="#4B64C0"/>
<path d="M63.395 114.849C63.395 114.099 62.787 113.491 62.037 113.491C61.287 113.491 60.679 114.099 60.679 114.849C60.679 115.599 61.287 116.207 62.037 116.207C62.787 116.207 63.395 115.599 63.395 114.849Z" fill="#4B64C0"/>
<path d="M63.2594 133.408C63.2594 134.064 62.7162 134.607 62.0598 134.607C61.4035 134.607 60.8603 134.064 60.8603 133.408C60.8603 132.751 61.4035 132.208 62.0598 132.208C62.7162 132.208 63.2594 132.751 63.2594 133.408Z" fill="#4B64C0"/>
<path d="M63.101 151.989C63.101 151.402 62.6248 150.925 62.0373 150.925C61.4498 150.925 60.9736 151.402 60.9736 151.989C60.9736 152.577 61.4498 153.053 62.0373 153.053C62.6248 153.053 63.101 152.577 63.101 151.989Z" fill="#4B64C0"/>
<path d="M62.9428 170.548C62.9428 170.048 62.5374 169.643 62.0375 169.643C61.5375 169.643 61.1321 170.048 61.1321 170.548C61.1321 171.048 61.5375 171.453 62.0375 171.453C62.5374 171.453 62.9428 171.048 62.9428 170.548Z" fill="#4B64C0"/>
<path d="M62.8066 189.107C62.8066 189.514 62.4671 189.854 62.0597 189.854C61.6523 189.854 61.3128 189.514 61.3128 189.107C61.3128 188.7 61.6523 188.36 62.0597 188.36C62.4671 188.36 62.8066 188.7 62.8066 189.107Z" fill="#4B64C0"/>
<path d="M62.6483 207.666C62.6483 208.005 62.3767 208.277 62.0372 208.277C61.6977 208.277 61.4261 208.005 61.4261 207.666C61.4261 207.326 61.6977 207.055 62.0372 207.055C62.3767 207.055 62.6483 207.349 62.6483 207.666Z" fill="#4B64C0"/>
<path d="M62.49 226.247C62.49 225.997 62.2873 225.794 62.0373 225.794C61.7873 225.794 61.5847 225.997 61.5847 226.247C61.5847 226.497 61.7873 226.7 62.0373 226.7C62.2873 226.7 62.49 226.497 62.49 226.247Z" fill="#4B64C0"/>
<path d="M62.3317 244.806C62.3317 244.644 62.2 244.512 62.0375 244.512C61.875 244.512 61.7433 244.644 61.7433 244.806C61.7433 244.969 61.875 245.1 62.0375 245.1C62.2 245.1 62.3317 244.969 62.3317 244.806Z" fill="#4B64C0"/>
<path d="M62.1955 263.365C62.1955 263.456 62.1276 263.523 62.0371 263.523C61.9466 263.523 61.8787 263.456 61.8787 263.365C61.8787 263.274 61.9466 263.207 62.0371 263.207C62.1276 263.229 62.1955 263.297 62.1955 263.365Z" fill="#4B64C0"/>
<path d="M84.2252 3.38687C84.2252 2.1369 83.2119 1.1236 81.9619 1.1236C80.7119 1.1236 79.6986 2.1369 79.6986 3.38687C79.6986 4.63684 80.7119 5.65015 81.9619 5.65015C83.2119 5.65015 84.2252 4.63684 84.2252 3.38687Z" fill="#4B64C0"/>
<path d="M84.0669 21.9457C84.0669 23.1226 83.1163 24.0505 81.962 24.0505C80.7851 24.0505 79.8572 23.1 79.8572 21.9457C79.8572 20.7688 80.8078 19.8408 81.962 19.8408C83.1389 19.8408 84.0669 20.7688 84.0669 21.9457Z" fill="#4B64C0"/>
<path d="M83.9307 40.5046C83.9307 41.591 83.048 42.4736 81.9616 42.4736C80.8752 42.4736 79.9926 41.591 79.9926 40.5046C79.9926 39.4182 80.8752 38.5356 81.9616 38.5356C83.048 38.5582 83.9307 39.4182 83.9307 40.5046Z" fill="#4B64C0"/>
<path d="M83.7724 59.0861C83.7724 58.0862 82.9617 57.2755 81.9618 57.2755C80.9618 57.2755 80.1511 58.0862 80.1511 59.0861C80.1511 60.0861 80.9618 60.8967 81.9618 60.8967C82.9617 60.8967 83.7724 60.0861 83.7724 59.0861Z" fill="#4B64C0"/>
<path d="M83.6141 77.6449C83.6141 76.7325 82.8744 75.9928 81.9619 75.9928C81.0494 75.9928 80.3097 76.7325 80.3097 77.6449C80.3097 78.5574 81.0494 79.2971 81.9619 79.2971C82.8744 79.2971 83.6141 78.5574 83.6141 77.6449Z" fill="#4B64C0"/>
<path d="M83.4785 96.2038C83.4785 97.0412 82.7995 97.7202 81.9621 97.7202C81.1247 97.7202 80.4457 97.0412 80.4457 96.2038C80.4457 95.3664 81.1247 94.6874 81.9621 94.6874C82.7995 94.6874 83.4785 95.3664 83.4785 96.2038Z" fill="#4B64C0"/>
<path d="M83.3196 114.763C83.3196 114.013 82.7116 113.405 81.9616 113.405C81.2116 113.405 80.6036 114.013 80.6036 114.763C80.6036 115.513 81.2116 116.121 81.9616 116.121C82.7116 116.121 83.3196 115.513 83.3196 114.763Z" fill="#4B64C0"/>
<path d="M83.1614 133.321C83.1614 133.978 82.6182 134.521 81.9619 134.521C81.3055 134.521 80.7623 133.978 80.7623 133.321C80.7623 132.665 81.3055 132.122 81.9619 132.122C82.6182 132.122 83.1614 132.665 83.1614 133.321Z" fill="#4B64C0"/>
<path d="M83.0257 151.903C83.0257 152.492 82.5504 152.967 81.9619 152.967C81.3735 152.967 80.8982 152.492 80.8982 151.903C80.8982 151.315 81.3735 150.839 81.9619 150.839C82.5504 150.839 83.0257 151.315 83.0257 151.903Z" fill="#4B64C0"/>
<path d="M82.8674 170.462C82.8674 169.962 82.4621 169.557 81.9621 169.557C81.4621 169.557 81.0568 169.962 81.0568 170.462C81.0568 170.962 81.4621 171.367 81.9621 171.367C82.4621 171.367 82.8674 170.962 82.8674 170.462Z" fill="#4B64C0"/>
<path d="M82.7086 189.021C82.7086 189.428 82.3691 189.768 81.9617 189.768C81.5543 189.768 81.2148 189.428 81.2148 189.021C81.2148 188.613 81.5543 188.274 81.9617 188.274C82.3691 188.274 82.7086 188.613 82.7086 189.021Z" fill="#4B64C0"/>
<path d="M82.5729 207.58C82.5729 207.919 82.3013 208.191 81.9618 208.191C81.6223 208.191 81.3507 207.919 81.3507 207.58C81.3507 207.24 81.6223 206.969 81.9618 206.969C82.3013 206.969 82.5729 207.263 82.5729 207.58Z" fill="#4B64C0"/>
<path d="M82.4146 226.161C82.4146 225.911 82.2119 225.708 81.9619 225.708C81.7119 225.708 81.5093 225.911 81.5093 226.161C81.5093 226.411 81.7119 226.614 81.9619 226.614C82.2119 226.614 82.4146 226.411 82.4146 226.161Z" fill="#4B64C0"/>
<path d="M82.2564 244.72C82.2564 244.557 82.1247 244.426 81.9622 244.426C81.7997 244.426 81.668 244.557 81.668 244.72C81.668 244.882 81.7997 245.014 81.9622 245.014C82.1247 245.014 82.2564 244.882 82.2564 244.72Z" fill="#4B64C0"/>
<path d="M82.1202 263.279C82.1202 263.369 82.0523 263.437 81.9618 263.437C81.8712 263.437 81.8033 263.369 81.8033 263.279C81.8033 263.188 81.8712 263.12 81.9618 263.12C82.0523 263.143 82.1202 263.211 82.1202 263.279Z" fill="#4B64C0"/>
<path d="M104.15 3.30093C104.15 2.05096 103.137 1.03766 101.887 1.03766C100.637 1.03766 99.6234 2.05096 99.6234 3.30093C99.6234 4.55091 100.637 5.56421 101.887 5.56421C103.137 5.56421 104.15 4.55091 104.15 3.30093Z" fill="#4B64C0"/>
<path d="M103.992 21.8598C103.992 23.0367 103.041 23.9646 101.887 23.9646C100.71 23.9646 99.782 23.014 99.782 21.8598C99.782 20.6829 100.733 19.7549 101.887 19.7549C103.041 19.7549 103.992 20.6829 103.992 21.8598Z" fill="#4B64C0"/>
<path d="M103.833 40.4187C103.833 41.505 102.951 42.3877 101.864 42.3877C100.778 42.3877 99.8953 41.505 99.8953 40.4187C99.8953 39.3323 100.778 38.4496 101.864 38.4496C102.973 38.4723 103.833 39.3323 103.833 40.4187Z" fill="#4B64C0"/>
<path d="M103.697 59C103.697 58 102.887 57.1893 101.887 57.1893C100.887 57.1893 100.076 58 100.076 59C100.076 59.9999 100.887 60.8105 101.887 60.8105C102.887 60.8105 103.697 59.9999 103.697 59Z" fill="#4B64C0"/>
<path d="M103.539 77.5588C103.539 76.6463 102.799 75.9066 101.887 75.9066C100.974 75.9066 100.234 76.6463 100.234 77.5588C100.234 78.4712 100.974 79.2109 101.887 79.2109C102.799 79.2109 103.539 78.4712 103.539 77.5588Z" fill="#4B64C0"/>
<path d="M103.381 96.1179C103.381 96.9553 102.702 97.6343 101.864 97.6343C101.027 97.6343 100.348 96.9553 100.348 96.1179C100.348 95.2805 101.027 94.6015 101.864 94.6015C102.724 94.6015 103.381 95.2805 103.381 96.1179Z" fill="#4B64C0"/>
<path d="M103.244 114.677C103.244 113.927 102.636 113.319 101.886 113.319C101.136 113.319 100.528 113.927 100.528 114.677C100.528 115.427 101.136 116.035 101.886 116.035C102.636 116.035 103.244 115.427 103.244 114.677Z" fill="#4B64C0"/>
<path d="M103.086 133.235C103.086 133.892 102.543 134.435 101.887 134.435C101.23 134.435 100.687 133.892 100.687 133.235C100.687 132.579 101.23 132.036 101.887 132.036C102.543 132.036 103.086 132.579 103.086 133.235Z" fill="#4B64C0"/>
<path d="M102.95 151.817C102.95 152.405 102.475 152.881 101.887 152.881C101.298 152.881 100.823 152.405 100.823 151.817C100.823 151.229 101.298 150.753 101.887 150.753C102.475 150.753 102.95 151.229 102.95 151.817Z" fill="#4B64C0"/>
<path d="M102.792 170.376C102.792 169.876 102.387 169.471 101.887 169.471C101.387 169.471 100.982 169.876 100.982 170.376C100.982 170.876 101.387 171.281 101.887 171.281C102.387 171.281 102.792 170.876 102.792 170.376Z" fill="#4B64C0"/>
<path d="M102.633 188.935C102.633 189.342 102.294 189.682 101.886 189.682C101.479 189.682 101.14 189.342 101.14 188.935C101.14 188.527 101.479 188.188 101.886 188.188C102.294 188.188 102.633 188.527 102.633 188.935Z" fill="#4B64C0"/>
<path d="M102.498 207.494C102.498 207.833 102.226 208.105 101.887 208.105C101.547 208.105 101.276 207.833 101.276 207.494C101.276 207.154 101.547 206.882 101.887 206.882C102.226 206.905 102.498 207.177 102.498 207.494Z" fill="#4B64C0"/>
<path d="M102.339 226.075C102.339 225.825 102.137 225.622 101.887 225.622C101.637 225.622 101.434 225.825 101.434 226.075C101.434 226.325 101.637 226.528 101.887 226.528C102.137 226.528 102.339 226.325 102.339 226.075Z" fill="#4B64C0"/>
<path d="M102.181 244.634C102.181 244.792 102.045 244.928 101.887 244.928C101.728 244.928 101.593 244.792 101.593 244.634C101.593 244.475 101.728 244.34 101.887 244.34C102.045 244.34 102.181 244.475 102.181 244.634Z" fill="#4B64C0"/>
<path d="M102.045 263.193C102.045 263.283 101.977 263.351 101.886 263.351C101.796 263.351 101.728 263.283 101.728 263.193C101.728 263.102 101.796 263.034 101.886 263.034C101.977 263.057 102.045 263.125 102.045 263.193Z" fill="#4B64C0"/>
<path d="M124.074 3.21426C124.074 1.96429 123.061 0.950988 121.811 0.950988C120.561 0.950988 119.548 1.96429 119.548 3.21426C119.548 4.46424 120.561 5.47754 121.811 5.47754C123.061 5.47754 124.074 4.46424 124.074 3.21426Z" fill="#4B64C0"/>
<path d="M123.916 21.7731C123.916 22.95 122.966 23.8779 121.811 23.8779C120.634 23.8779 119.706 22.9274 119.706 21.7731C119.706 20.5962 120.657 19.6682 121.811 19.6682C122.966 19.6682 123.916 20.5962 123.916 21.7731Z" fill="#4B64C0"/>
<path d="M123.758 40.3317C123.758 41.4181 122.875 42.3008 121.789 42.3008C120.702 42.3008 119.82 41.4181 119.82 40.3317C119.82 39.2454 120.702 38.3627 121.789 38.3627C122.875 38.3853 123.758 39.2454 123.758 40.3317Z" fill="#4B64C0"/>
<path d="M123.622 58.9135C123.622 59.9094 122.807 60.7241 121.811 60.7241C120.815 60.7241 120 59.9094 120 58.9135C120 57.9177 120.815 57.1029 121.811 57.1029C122.807 57.0803 123.622 57.8951 123.622 58.9135Z" fill="#4B64C0"/>
<path d="M123.463 77.4721C123.463 78.3774 122.717 79.1243 121.811 79.1243C120.906 79.1243 120.159 78.3774 120.159 77.4721C120.159 76.5668 120.906 75.8199 121.811 75.8199C122.717 75.7973 123.463 76.5441 123.463 77.4721Z" fill="#4B64C0"/>
<path d="M123.305 96.031C123.305 96.8684 122.626 97.5474 121.789 97.5474C120.951 97.5474 120.272 96.8684 120.272 96.031C120.272 95.1936 120.951 94.5146 121.789 94.5146C122.626 94.5146 123.305 95.1936 123.305 96.031Z" fill="#4B64C0"/>
<path d="M123.169 114.59C123.169 115.337 122.558 115.948 121.811 115.948C121.064 115.948 120.453 115.337 120.453 114.59C120.453 113.843 121.064 113.232 121.811 113.232C122.558 113.232 123.169 113.843 123.169 114.59Z" fill="#4B64C0"/>
<path d="M123.011 133.149C123.011 133.805 122.467 134.348 121.811 134.348C121.155 134.348 120.612 133.805 120.612 133.149C120.612 132.492 121.155 131.949 121.811 131.949C122.467 131.949 123.011 132.492 123.011 133.149Z" fill="#4B64C0"/>
<path d="M122.852 151.73C122.852 152.319 122.377 152.794 121.789 152.794C121.2 152.794 120.725 152.319 120.725 151.73C120.725 151.142 121.2 150.667 121.789 150.667C122.377 150.667 122.852 151.142 122.852 151.73Z" fill="#4B64C0"/>
<path d="M122.717 170.289C122.717 170.787 122.309 171.194 121.811 171.194C121.313 171.194 120.906 170.787 120.906 170.289C120.906 169.791 121.313 169.384 121.811 169.384C122.309 169.384 122.717 169.791 122.717 170.289Z" fill="#4B64C0"/>
<path d="M122.558 188.848C122.558 189.255 122.218 189.595 121.811 189.595C121.404 189.595 121.064 189.255 121.064 188.848C121.064 188.441 121.404 188.101 121.811 188.101C122.218 188.101 122.558 188.441 122.558 188.848Z" fill="#4B64C0"/>
<path d="M122.4 207.407C122.4 207.746 122.128 208.018 121.788 208.018C121.449 208.018 121.177 207.746 121.177 207.407C121.177 207.067 121.449 206.796 121.788 206.796C122.128 206.818 122.4 207.09 122.4 207.407Z" fill="#4B64C0"/>
<path d="M122.264 225.988C122.264 226.237 122.06 226.441 121.811 226.441C121.562 226.441 121.359 226.237 121.359 225.988C121.359 225.739 121.562 225.536 121.811 225.536C122.06 225.536 122.264 225.739 122.264 225.988Z" fill="#4B64C0"/>
<path d="M122.106 244.547C122.106 244.706 121.97 244.841 121.811 244.841C121.653 244.841 121.517 244.706 121.517 244.547C121.517 244.389 121.653 244.253 121.811 244.253C121.97 244.253 122.106 244.389 122.106 244.547Z" fill="#4B64C0"/>
<path d="M121.947 263.106C121.947 263.197 121.879 263.265 121.788 263.265C121.698 263.265 121.63 263.197 121.63 263.106C121.63 263.016 121.698 262.948 121.788 262.948C121.879 262.97 121.947 263.038 121.947 263.106Z" fill="#4B64C0"/>
<path d="M143.999 3.12735C143.999 1.87738 142.986 0.864074 141.736 0.864074C140.486 0.864074 139.473 1.87738 139.473 3.12735C139.473 4.37732 140.486 5.39062 141.736 5.39062C142.986 5.39062 143.999 4.37732 143.999 3.12735Z" fill="#4B64C0"/>
<path d="M143.864 21.6862C143.864 22.8631 142.913 23.791 141.759 23.791C140.582 23.791 139.654 22.8405 139.654 21.6862C139.654 20.5093 140.604 19.5813 141.759 19.5813C142.913 19.5813 143.864 20.5093 143.864 21.6862Z" fill="#4B64C0"/>
<path d="M143.705 40.2448C143.705 41.3312 142.822 42.2139 141.736 42.2139C140.649 42.2139 139.766 41.3312 139.766 40.2448C139.766 39.1585 140.649 38.2758 141.736 38.2758C142.822 38.2984 143.705 39.1585 143.705 40.2448Z" fill="#4B64C0"/>
<path d="M143.546 58.8266C143.546 57.8266 142.736 57.016 141.736 57.016C140.736 57.016 139.925 57.8266 139.925 58.8266C139.925 59.8266 140.736 60.6372 141.736 60.6372C142.736 60.6372 143.546 59.8266 143.546 58.8266Z" fill="#4B64C0"/>
<path d="M143.411 77.3854C143.411 78.2907 142.664 79.0376 141.759 79.0376C140.831 79.0376 140.106 78.2907 140.106 77.3854C140.106 76.4801 140.853 75.7332 141.759 75.7332C142.664 75.7106 143.411 76.4575 143.411 77.3854Z" fill="#4B64C0"/>
<path d="M143.252 95.9441C143.252 96.7815 142.573 97.4604 141.736 97.4604C140.899 97.4604 140.22 96.7815 140.22 95.9441C140.22 95.1066 140.899 94.4277 141.736 94.4277C142.573 94.4277 143.252 95.1066 143.252 95.9441Z" fill="#4B64C0"/>
<path d="M143.094 114.503C143.094 113.753 142.486 113.145 141.736 113.145C140.986 113.145 140.378 113.753 140.378 114.503C140.378 115.253 140.986 115.861 141.736 115.861C142.486 115.861 143.094 115.253 143.094 114.503Z" fill="#4B64C0"/>
<path d="M142.958 133.062C142.958 133.718 142.415 134.261 141.758 134.261C141.102 134.261 140.559 133.718 140.559 133.062C140.559 132.406 141.102 131.862 141.758 131.862C142.415 131.862 142.958 132.406 142.958 133.062Z" fill="#4B64C0"/>
<path d="M142.8 151.643C142.8 152.232 142.324 152.707 141.736 152.707C141.147 152.707 140.672 152.232 140.672 151.643C140.672 151.055 141.147 150.58 141.736 150.58C142.324 150.58 142.8 151.055 142.8 151.643Z" fill="#4B64C0"/>
<path d="M142.641 170.202C142.641 169.702 142.236 169.297 141.736 169.297C141.236 169.297 140.831 169.702 140.831 170.202C140.831 170.702 141.236 171.108 141.736 171.108C142.236 171.108 142.641 170.702 142.641 170.202Z" fill="#4B64C0"/>
<path d="M142.505 188.761C142.505 189.169 142.166 189.508 141.758 189.508C141.351 189.508 141.011 189.169 141.011 188.761C141.011 188.354 141.351 188.014 141.758 188.014C142.166 188.014 142.505 188.354 142.505 188.761Z" fill="#4B64C0"/>
<path d="M142.347 207.32C142.347 207.659 142.075 207.931 141.736 207.931C141.396 207.931 141.125 207.659 141.125 207.32C141.125 206.98 141.396 206.709 141.736 206.709C142.075 206.732 142.347 207.003 142.347 207.32Z" fill="#4B64C0"/>
<path d="M142.189 225.901C142.189 225.651 141.986 225.449 141.736 225.449C141.486 225.449 141.283 225.651 141.283 225.901C141.283 226.151 141.486 226.354 141.736 226.354C141.986 226.354 142.189 226.151 142.189 225.901Z" fill="#4B64C0"/>
<path d="M142.052 244.46C142.052 244.619 141.917 244.755 141.758 244.755C141.6 244.755 141.464 244.619 141.464 244.46C141.464 244.302 141.6 244.166 141.758 244.166C141.917 244.166 142.052 244.302 142.052 244.46Z" fill="#4B64C0"/>
<path d="M141.894 263.019C141.894 263.11 141.826 263.178 141.736 263.178C141.645 263.178 141.577 263.11 141.577 263.019C141.577 262.929 141.645 262.861 141.736 262.861C141.826 262.883 141.894 262.951 141.894 263.019Z" fill="#4B64C0"/>
<path d="M163.924 3.04117C163.924 1.7912 162.91 0.777892 161.66 0.777892C160.411 0.777892 159.397 1.7912 159.397 3.04117C159.397 4.29114 160.411 5.30444 161.66 5.30444C162.91 5.30444 163.924 4.29114 163.924 3.04117Z" fill="#4B64C0"/>
<path d="M163.765 21.6C163.765 22.7769 162.815 23.7048 161.661 23.7048C160.484 23.7048 159.556 22.7543 159.556 21.6C159.556 20.4231 160.506 19.4951 161.661 19.4951C162.838 19.4951 163.765 20.4231 163.765 21.6Z" fill="#4B64C0"/>
<path d="M163.629 40.1586C163.629 41.245 162.747 42.1277 161.66 42.1277C160.574 42.1277 159.691 41.245 159.691 40.1586C159.691 39.0723 160.574 38.1896 161.66 38.1896C162.747 38.2122 163.629 39.0723 163.629 40.1586Z" fill="#4B64C0"/>
<path d="M163.471 58.7402C163.471 57.7402 162.66 56.9296 161.66 56.9296C160.66 56.9296 159.85 57.7402 159.85 58.7402C159.85 59.7402 160.66 60.5508 161.66 60.5508C162.66 60.5508 163.471 59.7402 163.471 58.7402Z" fill="#4B64C0"/>
<path d="M163.313 77.299C163.313 78.2043 162.566 78.9512 161.66 78.9512C160.755 78.9512 160.008 78.2043 160.008 77.299C160.008 76.3937 160.755 75.6468 161.66 75.6468C162.566 75.6468 163.313 76.371 163.313 77.299Z" fill="#4B64C0"/>
<path d="M163.177 95.8581C163.177 96.6955 162.498 97.3745 161.661 97.3745C160.823 97.3745 160.144 96.6955 160.144 95.8581C160.144 95.0207 160.823 94.3417 161.661 94.3417C162.498 94.3417 163.177 95.0207 163.177 95.8581Z" fill="#4B64C0"/>
<path d="M163.018 114.417C163.018 113.667 162.41 113.059 161.66 113.059C160.91 113.059 160.302 113.667 160.302 114.417C160.302 115.167 160.91 115.775 161.66 115.775C162.41 115.775 163.018 115.167 163.018 114.417Z" fill="#4B64C0"/>
<path d="M162.86 132.976C162.86 133.632 162.317 134.175 161.66 134.175C161.004 134.175 160.461 133.632 160.461 132.976C160.461 132.319 161.004 131.776 161.66 131.776C162.339 131.776 162.86 132.319 162.86 132.976Z" fill="#4B64C0"/>
<path d="M162.724 151.557C162.724 150.97 162.248 150.493 161.661 150.493C161.073 150.493 160.597 150.97 160.597 151.557C160.597 152.145 161.073 152.621 161.661 152.621C162.248 152.621 162.724 152.145 162.724 151.557Z" fill="#4B64C0"/>
<path d="M162.566 170.116C162.566 169.616 162.161 169.211 161.661 169.211C161.161 169.211 160.755 169.616 160.755 170.116C160.755 170.616 161.161 171.021 161.661 171.021C162.161 171.021 162.566 170.616 162.566 170.116Z" fill="#4B64C0"/>
<path d="M162.407 188.675C162.407 189.082 162.068 189.422 161.66 189.422C161.253 189.422 160.913 189.082 160.913 188.675C160.913 188.267 161.253 187.928 161.66 187.928C162.068 187.928 162.407 188.267 162.407 188.675Z" fill="#4B64C0"/>
<path d="M162.271 207.234C162.271 207.573 162 207.845 161.66 207.845C161.321 207.845 161.049 207.573 161.049 207.234C161.049 206.894 161.321 206.623 161.66 206.623C162 206.623 162.271 206.917 162.271 207.234Z" fill="#4B64C0"/>
<path d="M162.113 225.815C162.113 225.565 161.911 225.363 161.661 225.363C161.411 225.363 161.208 225.565 161.208 225.815C161.208 226.065 161.411 226.268 161.661 226.268C161.911 226.268 162.113 226.065 162.113 225.815Z" fill="#4B64C0"/>
<path d="M161.955 244.374C161.955 244.533 161.819 244.668 161.661 244.668C161.502 244.668 161.366 244.533 161.366 244.374C161.366 244.216 161.502 244.08 161.661 244.08C161.819 244.08 161.955 244.216 161.955 244.374Z" fill="#4B64C0"/>
<path d="M161.819 262.933C161.819 263.024 161.751 263.091 161.66 263.091C161.57 263.091 161.502 263.024 161.502 262.933C161.502 262.842 161.57 262.775 161.66 262.775C161.751 262.797 161.819 262.865 161.819 262.933Z" fill="#4B64C0"/>
<path d="M183.848 2.9545C183.848 1.70453 182.835 0.691222 181.585 0.691222C180.335 0.691222 179.322 1.70453 179.322 2.9545C179.322 4.20447 180.335 5.21777 181.585 5.21777C182.835 5.21777 183.848 4.20447 183.848 2.9545Z" fill="#4B64C0"/>
<path d="M183.69 21.5133C183.69 22.6902 182.74 23.6182 181.585 23.6182C180.409 23.6182 179.481 22.6676 179.481 21.5133C179.481 20.3364 180.431 19.4085 181.585 19.4085C182.74 19.4085 183.69 20.3364 183.69 21.5133Z" fill="#4B64C0"/>
<path d="M183.554 40.072C183.554 41.1583 182.671 42.041 181.585 42.041C180.499 42.041 179.616 41.1583 179.616 40.072C179.616 38.9856 180.499 38.1029 181.585 38.1029C182.671 38.1256 183.554 38.9856 183.554 40.072Z" fill="#4B64C0"/>
<path d="M183.396 58.6538C183.396 57.6538 182.585 56.8431 181.585 56.8431C180.585 56.8431 179.775 57.6538 179.775 58.6538C179.775 59.6537 180.585 60.4644 181.585 60.4644C182.585 60.4644 183.396 59.6537 183.396 58.6538Z" fill="#4B64C0"/>
<path d="M183.237 77.2123C183.237 76.2998 182.498 75.5601 181.585 75.5601C180.673 75.5601 179.933 76.2998 179.933 77.2123C179.933 78.1248 180.673 78.8645 181.585 78.8645C182.498 78.8645 183.237 78.1248 183.237 77.2123Z" fill="#4B64C0"/>
<path d="M183.079 95.7712C183.079 96.6086 182.4 97.2876 181.563 97.2876C180.725 97.2876 180.046 96.6086 180.046 95.7712C180.046 94.9338 180.725 94.2548 181.563 94.2548C182.423 94.2548 183.079 94.9338 183.079 95.7712Z" fill="#4B64C0"/>
<path d="M182.943 114.33C182.943 113.58 182.335 112.972 181.585 112.972C180.835 112.972 180.227 113.58 180.227 114.33C180.227 115.08 180.835 115.688 181.585 115.688C182.335 115.688 182.943 115.08 182.943 114.33Z" fill="#4B64C0"/>
<path d="M182.785 132.889C182.785 133.545 182.242 134.089 181.585 134.089C180.929 134.089 180.386 133.545 180.386 132.889C180.386 132.233 180.929 131.689 181.585 131.689C182.242 131.689 182.785 132.233 182.785 132.889Z" fill="#4B64C0"/>
<path d="M182.649 151.471C182.649 150.883 182.173 150.407 181.585 150.407C180.998 150.407 180.522 150.883 180.522 151.471C180.522 152.058 180.998 152.534 181.585 152.534C182.173 152.534 182.649 152.058 182.649 151.471Z" fill="#4B64C0"/>
<path d="M182.491 170.029C182.491 169.529 182.085 169.124 181.585 169.124C181.086 169.124 180.68 169.529 180.68 170.029C180.68 170.529 181.086 170.935 181.585 170.935C182.085 170.935 182.491 170.529 182.491 170.029Z" fill="#4B64C0"/>
<path d="M182.332 188.588C182.332 188.996 181.992 189.335 181.585 189.335C181.178 189.335 180.838 188.996 180.838 188.588C180.838 188.181 181.178 187.841 181.585 187.841C181.992 187.841 182.332 188.181 182.332 188.588Z" fill="#4B64C0"/>
<path d="M182.196 207.147C182.196 207.487 181.925 207.758 181.585 207.758C181.246 207.758 180.974 207.487 180.974 207.147C180.974 206.808 181.246 206.536 181.585 206.536C181.925 206.536 182.196 206.83 182.196 207.147Z" fill="#4B64C0"/>
<path d="M182.038 225.729C182.038 225.479 181.835 225.276 181.585 225.276C181.335 225.276 181.133 225.479 181.133 225.729C181.133 225.978 181.335 226.181 181.585 226.181C181.835 226.181 182.038 225.978 182.038 225.729Z" fill="#4B64C0"/>
<path d="M181.879 244.287C181.879 244.125 181.748 243.993 181.585 243.993C181.423 243.993 181.291 244.125 181.291 244.287C181.291 244.45 181.423 244.582 181.585 244.582C181.748 244.582 181.879 244.45 181.879 244.287Z" fill="#4B64C0"/>
<path d="M181.721 262.846C181.721 262.937 181.653 263.005 181.562 263.005C181.472 263.005 181.404 262.937 181.404 262.846C181.404 262.756 181.472 262.688 181.562 262.688C181.676 262.711 181.721 262.778 181.721 262.846Z" fill="#4B64C0"/>
<path d="M203.773 2.86856C203.773 1.61859 202.76 0.605285 201.51 0.605285C200.26 0.605285 199.246 1.61859 199.246 2.86856C199.246 4.11853 200.26 5.13184 201.51 5.13184C202.76 5.13184 203.773 4.11853 203.773 2.86856Z" fill="#4B64C0"/>
<path d="M203.615 21.4274C203.615 22.6043 202.664 23.5322 201.51 23.5322C200.333 23.5322 199.405 22.5817 199.405 21.4274C199.405 20.2505 200.356 19.3225 201.51 19.3225C202.664 19.3225 203.615 20.2505 203.615 21.4274Z" fill="#4B64C0"/>
<path d="M203.456 39.9863C203.456 41.0727 202.574 41.9553 201.487 41.9553C200.401 41.9553 199.518 41.0727 199.518 39.9863C199.518 38.8999 200.401 38.0172 201.487 38.0172C202.574 38.0399 203.456 38.8999 203.456 39.9863Z" fill="#4B64C0"/>
<path d="M203.32 58.5678C203.32 57.5678 202.51 56.7572 201.51 56.7572C200.51 56.7572 199.699 57.5678 199.699 58.5678C199.699 59.5678 200.51 60.3784 201.51 60.3784C202.51 60.3784 203.32 59.5678 203.32 58.5678Z" fill="#4B64C0"/>
<path d="M203.162 77.1266C203.162 76.2141 202.422 75.4744 201.51 75.4744C200.597 75.4744 199.858 76.2141 199.858 77.1266C199.858 78.0391 200.597 78.7788 201.51 78.7788C202.422 78.7788 203.162 78.0391 203.162 77.1266Z" fill="#4B64C0"/>
<path d="M203.004 95.6855C203.004 96.5229 202.325 97.2019 201.487 97.2019C200.65 97.2019 199.971 96.5229 199.971 95.6855C199.971 94.8481 200.65 94.1691 201.487 94.1691C202.325 94.1691 203.004 94.8481 203.004 95.6855Z" fill="#4B64C0"/>
<path d="M202.868 114.244C202.868 113.494 202.26 112.886 201.51 112.886C200.76 112.886 200.152 113.494 200.152 114.244C200.152 114.994 200.76 115.602 201.51 115.602C202.26 115.602 202.868 114.994 202.868 114.244Z" fill="#4B64C0"/>
<path d="M202.709 132.803C202.709 133.46 202.166 134.003 201.51 134.003C200.853 134.003 200.31 133.46 200.31 132.803C200.31 132.147 200.853 131.604 201.51 131.604C202.166 131.604 202.709 132.147 202.709 132.803Z" fill="#4B64C0"/>
<path d="M202.551 151.385C202.551 151.973 202.076 152.448 201.487 152.448C200.899 152.448 200.423 151.973 200.423 151.385C200.423 150.796 200.899 150.321 201.487 150.321C202.076 150.321 202.551 150.796 202.551 151.385Z" fill="#4B64C0"/>
<path d="M202.415 169.944C202.415 169.444 202.01 169.038 201.51 169.038C201.01 169.038 200.605 169.444 200.605 169.944C200.605 170.444 201.01 170.849 201.51 170.849C202.01 170.849 202.415 170.444 202.415 169.944Z" fill="#4B64C0"/>
<path d="M202.256 188.502C202.256 188.91 201.917 189.249 201.51 189.249C201.102 189.249 200.763 188.91 200.763 188.502C200.763 188.095 201.102 187.755 201.51 187.755C201.917 187.755 202.256 188.095 202.256 188.502Z" fill="#4B64C0"/>
<path d="M202.098 207.061C202.098 207.401 201.827 207.672 201.487 207.672C201.148 207.672 200.876 207.401 200.876 207.061C200.876 206.722 201.148 206.45 201.487 206.45C201.827 206.473 202.098 206.744 202.098 207.061Z" fill="#4B64C0"/>
<path d="M201.963 225.643C201.963 225.393 201.76 225.19 201.51 225.19C201.26 225.19 201.057 225.393 201.057 225.643C201.057 225.893 201.26 226.095 201.51 226.095C201.76 226.095 201.963 225.893 201.963 225.643Z" fill="#4B64C0"/>
<path d="M201.804 244.202C201.804 244.36 201.668 244.496 201.51 244.496C201.352 244.496 201.216 244.36 201.216 244.202C201.216 244.043 201.352 243.907 201.51 243.907C201.668 243.907 201.804 244.043 201.804 244.202Z" fill="#4B64C0"/>
<path d="M201.645 262.761C201.645 262.851 201.577 262.919 201.487 262.919C201.396 262.919 201.328 262.851 201.328 262.761C201.328 262.67 201.396 262.602 201.487 262.602C201.577 262.625 201.645 262.693 201.645 262.761Z" fill="#4B64C0"/>
<path d="M223.698 2.78165C223.698 1.53167 222.685 0.518371 221.435 0.518371C220.185 0.518371 219.171 1.53167 219.171 2.78165C219.171 4.03162 220.185 5.04492 221.435 5.04492C222.685 5.04492 223.698 4.03162 223.698 2.78165Z" fill="#4B64C0"/>
<path d="M223.562 21.3405C223.562 22.5174 222.612 23.4453 221.457 23.4453C220.28 23.4453 219.352 22.4948 219.352 21.3405C219.352 20.1636 220.303 19.2356 221.457 19.2356C222.612 19.2356 223.562 20.1636 223.562 21.3405Z" fill="#4B64C0"/>
<path d="M223.404 39.8996C223.404 40.986 222.521 41.8687 221.435 41.8687C220.348 41.8687 219.466 40.986 219.466 39.8996C219.466 38.8132 220.348 37.9306 221.435 37.9306C222.521 37.9532 223.404 38.8132 223.404 39.8996Z" fill="#4B64C0"/>
<path d="M223.245 58.4809C223.245 57.4809 222.434 56.6703 221.434 56.6703C220.434 56.6703 219.624 57.4809 219.624 58.4809C219.624 59.4809 220.434 60.2915 221.434 60.2915C222.434 60.2915 223.245 59.4809 223.245 58.4809Z" fill="#4B64C0"/>
<path d="M223.109 77.0397C223.109 77.945 222.363 78.6919 221.457 78.6919C220.552 78.6919 219.805 77.945 219.805 77.0397C219.805 76.1344 220.552 75.3875 221.457 75.3875C222.363 75.3649 223.109 76.1118 223.109 77.0397Z" fill="#4B64C0"/>
<path d="M222.951 95.5986C222.951 96.436 222.272 97.115 221.435 97.115C220.597 97.115 219.918 96.436 219.918 95.5986C219.918 94.7612 220.597 94.0822 221.435 94.0822C222.272 94.0822 222.951 94.7612 222.951 95.5986Z" fill="#4B64C0"/>
<path d="M222.792 114.157C222.792 114.904 222.181 115.515 221.434 115.515C220.687 115.515 220.076 114.904 220.076 114.157C220.076 113.411 220.687 112.799 221.434 112.799C222.181 112.799 222.792 113.411 222.792 114.157Z" fill="#4B64C0"/>
<path d="M222.657 132.716C222.657 133.373 222.113 133.916 221.457 133.916C220.801 133.916 220.258 133.373 220.258 132.716C220.258 132.06 220.801 131.517 221.457 131.517C222.113 131.517 222.657 132.06 222.657 132.716Z" fill="#4B64C0"/>
<path d="M222.498 151.298C222.498 151.886 222.023 152.362 221.435 152.362C220.846 152.362 220.371 151.886 220.371 151.298C220.371 150.709 220.846 150.234 221.435 150.234C222.023 150.234 222.498 150.709 222.498 151.298Z" fill="#4B64C0"/>
<path d="M222.34 169.857C222.34 170.355 221.933 170.762 221.435 170.762C220.937 170.762 220.529 170.355 220.529 169.857C220.529 169.359 220.937 168.951 221.435 168.951C221.933 168.951 222.34 169.359 222.34 169.857Z" fill="#4B64C0"/>
<path d="M222.204 188.415C222.204 188.823 221.864 189.162 221.457 189.162C221.05 189.162 220.71 188.823 220.71 188.415C220.71 188.008 221.05 187.669 221.457 187.669C221.864 187.669 222.204 188.008 222.204 188.415Z" fill="#4B64C0"/>
<path d="M222.046 206.974C222.046 207.314 221.774 207.585 221.434 207.585C221.095 207.585 220.823 207.314 220.823 206.974C220.823 206.635 221.095 206.363 221.434 206.363C221.774 206.386 222.046 206.658 222.046 206.974Z" fill="#4B64C0"/>
<path d="M221.887 225.556C221.887 225.306 221.685 225.103 221.435 225.103C221.185 225.103 220.982 225.306 220.982 225.556C220.982 225.806 221.185 226.008 221.435 226.008C221.685 226.008 221.887 225.806 221.887 225.556Z" fill="#4B64C0"/>
<path d="M221.752 244.115C221.752 244.273 221.616 244.409 221.457 244.409C221.299 244.409 221.163 244.273 221.163 244.115C221.163 243.956 221.299 243.82 221.457 243.82C221.616 243.82 221.752 243.956 221.752 244.115Z" fill="#4B64C0"/>
<path d="M221.593 262.674C221.593 262.764 221.525 262.832 221.434 262.832C221.344 262.832 221.276 262.764 221.276 262.674C221.276 262.583 221.344 262.515 221.434 262.515C221.525 262.538 221.593 262.606 221.593 262.674Z" fill="#4B64C0"/>
<path d="M243.622 2.69546C243.622 1.44549 242.609 0.432189 241.359 0.432189C240.109 0.432189 239.096 1.44549 239.096 2.69546C239.096 3.94544 240.109 4.95874 241.359 4.95874C242.609 4.95874 243.622 3.94544 243.622 2.69546Z" fill="#4B64C0"/>
<path d="M243.464 21.2543C243.464 22.4312 242.514 23.3591 241.359 23.3591C240.182 23.3591 239.255 22.4086 239.255 21.2543C239.255 20.0774 240.205 19.1494 241.359 19.1494C242.536 19.1494 243.464 20.0774 243.464 21.2543Z" fill="#4B64C0"/>
<path d="M243.328 39.8132C243.328 40.8996 242.445 41.7822 241.359 41.7822C240.273 41.7822 239.39 40.8996 239.39 39.8132C239.39 38.7268 240.273 37.8441 241.359 37.8441C242.445 37.8668 243.328 38.7268 243.328 39.8132Z" fill="#4B64C0"/>
<path d="M243.17 58.3947C243.17 59.3906 242.355 60.2053 241.359 60.2053C240.363 60.2053 239.548 59.3906 239.548 58.3947C239.548 57.3989 240.363 56.5841 241.359 56.5841C242.355 56.5615 243.17 57.3763 243.17 58.3947Z" fill="#4B64C0"/>
<path d="M243.011 76.9535C243.011 77.8588 242.265 78.6057 241.359 78.6057C240.454 78.6057 239.707 77.8588 239.707 76.9535C239.707 76.0482 240.454 75.3013 241.359 75.3013C242.265 75.3013 243.011 76.0256 243.011 76.9535Z" fill="#4B64C0"/>
<path d="M242.876 95.5124C242.876 96.3498 242.197 97.0288 241.359 97.0288C240.522 97.0288 239.843 96.3498 239.843 95.5124C239.843 94.675 240.522 93.996 241.359 93.996C242.197 93.996 242.876 94.675 242.876 95.5124Z" fill="#4B64C0"/>
<path d="M242.717 114.071C242.717 113.321 242.109 112.713 241.359 112.713C240.609 112.713 240.001 113.321 240.001 114.071C240.001 114.821 240.609 115.429 241.359 115.429C242.109 115.429 242.717 114.821 242.717 114.071Z" fill="#4B64C0"/>
<path d="M242.559 132.63C242.559 133.286 242.015 133.83 241.359 133.83C240.703 133.83 240.16 133.286 240.16 132.63C240.16 131.974 240.703 131.431 241.359 131.431C242.038 131.431 242.559 131.974 242.559 132.63Z" fill="#4B64C0"/>
<path d="M242.423 151.212C242.423 151.8 241.948 152.275 241.359 152.275C240.771 152.275 240.296 151.8 240.296 151.212C240.296 150.623 240.771 150.148 241.359 150.148C241.948 150.148 242.423 150.623 242.423 151.212Z" fill="#4B64C0"/>
<path d="M242.265 169.77C242.265 169.27 241.859 168.865 241.359 168.865C240.859 168.865 240.454 169.27 240.454 169.77C240.454 170.27 240.859 170.676 241.359 170.676C241.859 170.676 242.265 170.27 242.265 169.77Z" fill="#4B64C0"/>
<path d="M242.106 188.329C242.106 188.737 241.766 189.076 241.359 189.076C240.952 189.076 240.612 188.737 240.612 188.329C240.612 187.922 240.952 187.582 241.359 187.582C241.766 187.582 242.106 187.922 242.106 188.329Z" fill="#4B64C0"/>
<path d="M241.97 206.888C241.97 207.228 241.699 207.499 241.359 207.499C241.02 207.499 240.748 207.228 240.748 206.888C240.748 206.549 241.02 206.277 241.359 206.277C241.699 206.3 241.97 206.571 241.97 206.888Z" fill="#4B64C0"/>
<path d="M241.812 225.47C241.812 225.719 241.608 225.922 241.359 225.922C241.11 225.922 240.907 225.719 240.907 225.47C240.907 225.221 241.11 225.017 241.359 225.017C241.608 225.017 241.812 225.221 241.812 225.47Z" fill="#4B64C0"/>
<path d="M241.654 244.029C241.654 244.187 241.518 244.323 241.359 244.323C241.201 244.323 241.065 244.187 241.065 244.029C241.065 243.87 241.201 243.734 241.359 243.734C241.518 243.734 241.654 243.87 241.654 244.029Z" fill="#4B64C0"/>
<path d="M241.517 262.587C241.517 262.678 241.45 262.746 241.359 262.746C241.268 262.746 241.201 262.678 241.201 262.587C241.201 262.497 241.268 262.429 241.359 262.429C241.45 262.452 241.517 262.52 241.517 262.587Z" fill="#4B64C0"/>
<path d="M263.547 2.60904C263.547 1.35907 262.534 0.345763 261.284 0.345763C260.034 0.345763 259.021 1.35907 259.021 2.60904C259.021 3.85901 260.034 4.87231 261.284 4.87231C262.534 4.87231 263.547 3.85901 263.547 2.60904Z" fill="#4B64C0"/>
<path d="M263.389 21.1679C263.389 22.3448 262.438 23.2727 261.284 23.2727C260.107 23.2727 259.179 22.3221 259.179 21.1679C259.179 19.991 260.13 19.063 261.284 19.063C262.438 19.063 263.389 19.991 263.389 21.1679Z" fill="#4B64C0"/>
<path d="M263.23 39.7268C263.23 40.8131 262.348 41.6958 261.261 41.6958C260.175 41.6958 259.292 40.8131 259.292 39.7268C259.292 38.6404 260.175 37.7577 261.261 37.7577C262.37 37.7804 263.23 38.6404 263.23 39.7268Z" fill="#4B64C0"/>
<path d="M263.094 58.3083C263.094 57.3083 262.284 56.4977 261.284 56.4977C260.284 56.4977 259.473 57.3083 259.473 58.3083C259.473 59.3083 260.284 60.1189 261.284 60.1189C262.284 60.1189 263.094 59.3083 263.094 58.3083Z" fill="#4B64C0"/>
<path d="M262.936 76.8671C262.936 77.7724 262.189 78.5193 261.284 78.5193C260.356 78.5193 259.632 77.7724 259.632 76.8671C259.632 75.9618 260.379 75.2149 261.284 75.2149C262.189 75.1923 262.936 75.9392 262.936 76.8671Z" fill="#4B64C0"/>
<path d="M262.778 95.426C262.778 96.2634 262.099 96.9424 261.261 96.9424C260.424 96.9424 259.745 96.2634 259.745 95.426C259.745 94.5886 260.424 93.9096 261.261 93.9096C262.121 93.9096 262.778 94.5886 262.778 95.426Z" fill="#4B64C0"/>
<path d="M262.642 113.985C262.642 113.235 262.034 112.627 261.284 112.627C260.534 112.627 259.926 113.235 259.926 113.985C259.926 114.735 260.534 115.343 261.284 115.343C262.034 115.343 262.642 114.735 262.642 113.985Z" fill="#4B64C0"/>
<path d="M262.483 132.544C262.483 133.2 261.94 133.743 261.284 133.743C260.627 133.743 260.084 133.2 260.084 132.544C260.084 131.887 260.627 131.344 261.284 131.344C261.94 131.344 262.483 131.887 262.483 132.544Z" fill="#4B64C0"/>
<path d="M262.325 151.125C262.325 151.714 261.85 152.189 261.261 152.189C260.673 152.189 260.198 151.714 260.198 151.125C260.198 150.537 260.673 150.061 261.261 150.061C261.872 150.061 262.325 150.537 262.325 151.125Z" fill="#4B64C0"/>
<path d="M262.189 169.684C262.189 169.184 261.784 168.779 261.284 168.779C260.784 168.779 260.379 169.184 260.379 169.684C260.379 170.184 260.784 170.589 261.284 170.589C261.784 170.589 262.189 170.184 262.189 169.684Z" fill="#4B64C0"/>
<path d="M262.03 188.243C262.03 188.65 261.691 188.99 261.284 188.99C260.876 188.99 260.537 188.65 260.537 188.243C260.537 187.835 260.876 187.496 261.284 187.496C261.691 187.496 262.03 187.835 262.03 188.243Z" fill="#4B64C0"/>
<path d="M261.872 206.802C261.872 207.141 261.601 207.413 261.261 207.413C260.922 207.413 260.65 207.141 260.65 206.802C260.65 206.462 260.922 206.191 261.261 206.191C261.623 206.213 261.872 206.485 261.872 206.802Z" fill="#4B64C0"/>
<path d="M261.737 225.383C261.737 225.133 261.534 224.93 261.284 224.93C261.034 224.93 260.831 225.133 260.831 225.383C260.831 225.633 261.034 225.836 261.284 225.836C261.534 225.836 261.737 225.633 261.737 225.383Z" fill="#4B64C0"/>
<path d="M261.578 243.942C261.578 244.101 261.442 244.236 261.284 244.236C261.126 244.236 260.99 244.101 260.99 243.942C260.99 243.784 261.126 243.648 261.284 243.648C261.442 243.648 261.578 243.784 261.578 243.942Z" fill="#4B64C0"/>
<path d="M261.419 262.501C261.419 262.592 261.351 262.659 261.261 262.659C261.17 262.659 261.103 262.592 261.103 262.501C261.103 262.41 261.17 262.343 261.261 262.343C261.351 262.365 261.419 262.433 261.419 262.501Z" fill="#4B64C0"/>
<path d="M283.472 2.52261C283.472 1.27264 282.458 0.259337 281.208 0.259337C279.958 0.259337 278.945 1.27264 278.945 2.52261C278.945 3.77259 279.958 4.78589 281.208 4.78589C282.458 4.78589 283.472 3.77259 283.472 2.52261Z" fill="#4B64C0"/>
<path d="M283.313 21.0814C283.313 22.2584 282.363 23.1863 281.209 23.1863C280.032 23.1863 279.104 22.2357 279.104 21.0814C279.104 19.9045 280.054 18.9766 281.209 18.9766C282.363 18.9766 283.313 19.9045 283.313 21.0814Z" fill="#4B64C0"/>
<path d="M283.155 39.6403C283.155 40.7267 282.272 41.6094 281.186 41.6094C280.1 41.6094 279.217 40.7267 279.217 39.6403C279.217 38.554 280.1 37.6713 281.186 37.6713C282.272 37.6713 283.155 38.554 283.155 39.6403Z" fill="#4B64C0"/>
<path d="M283.019 58.2219C283.019 57.2219 282.208 56.4113 281.208 56.4113C280.208 56.4113 279.398 57.2219 279.398 58.2219C279.398 59.2219 280.208 60.0325 281.208 60.0325C282.208 60.0325 283.019 59.2219 283.019 58.2219Z" fill="#4B64C0"/>
<path d="M282.861 76.7807C282.861 75.8682 282.121 75.1285 281.208 75.1285C280.296 75.1285 279.556 75.8682 279.556 76.7807C279.556 77.6932 280.296 78.4329 281.208 78.4329C282.121 78.4329 282.861 77.6932 282.861 76.7807Z" fill="#4B64C0"/>
<path d="M282.702 95.3396C282.702 96.177 282.023 96.856 281.186 96.856C280.349 96.856 279.67 96.177 279.67 95.3396C279.67 94.5022 280.349 93.8232 281.186 93.8232C282.023 93.8232 282.702 94.5022 282.702 95.3396Z" fill="#4B64C0"/>
<path d="M282.566 113.898C282.566 113.148 281.958 112.54 281.208 112.54C280.458 112.54 279.85 113.148 279.85 113.898C279.85 114.648 280.458 115.256 281.208 115.256C281.958 115.256 282.566 114.648 282.566 113.898Z" fill="#4B64C0"/>
<path d="M282.408 132.457C282.408 133.114 281.865 133.657 281.208 133.657C280.552 133.657 280.009 133.114 280.009 132.457C280.009 131.801 280.552 131.258 281.208 131.258C281.865 131.258 282.408 131.801 282.408 132.457Z" fill="#4B64C0"/>
<path d="M282.272 151.039C282.272 150.451 281.796 149.975 281.209 149.975C280.621 149.975 280.145 150.451 280.145 151.039C280.145 151.626 280.621 152.103 281.209 152.103C281.796 152.103 282.272 151.626 282.272 151.039Z" fill="#4B64C0"/>
<path d="M282.114 169.598C282.114 169.098 281.709 168.692 281.209 168.692C280.709 168.692 280.303 169.098 280.303 169.598C280.303 170.098 280.709 170.503 281.209 170.503C281.709 170.503 282.114 170.098 282.114 169.598Z" fill="#4B64C0"/>
<path d="M281.955 188.156C281.955 188.564 281.616 188.903 281.208 188.903C280.801 188.903 280.461 188.564 280.461 188.156C280.461 187.749 280.801 187.41 281.208 187.41C281.616 187.41 281.955 187.749 281.955 188.156Z" fill="#4B64C0"/>
<path d="M281.797 206.715C281.797 207.055 281.525 207.326 281.186 207.326C280.846 207.326 280.575 207.055 280.575 206.715C280.575 206.376 280.846 206.104 281.186 206.104C281.525 206.127 281.797 206.398 281.797 206.715Z" fill="#4B64C0"/>
<path d="M281.661 225.297C281.661 225.047 281.459 224.844 281.209 224.844C280.959 224.844 280.756 225.047 280.756 225.297C280.756 225.547 280.959 225.749 281.209 225.749C281.459 225.749 281.661 225.547 281.661 225.297Z" fill="#4B64C0"/>
<path d="M281.503 243.856C281.503 243.693 281.371 243.561 281.209 243.561C281.046 243.561 280.915 243.693 280.915 243.856C280.915 244.018 281.046 244.15 281.209 244.15C281.371 244.15 281.503 244.018 281.503 243.856Z" fill="#4B64C0"/>
<path d="M281.344 262.415C281.344 262.505 281.276 262.573 281.186 262.573C281.095 262.573 281.027 262.505 281.027 262.415C281.027 262.324 281.095 262.256 281.186 262.256C281.276 262.279 281.344 262.347 281.344 262.415Z" fill="#4B64C0"/>
<path d="M303.396 2.43594C303.396 1.18597 302.383 0.172668 301.133 0.172668C299.883 0.172668 298.87 1.18597 298.87 2.43594C298.87 3.68592 299.883 4.69922 301.133 4.69922C302.383 4.69922 303.396 3.68592 303.396 2.43594Z" fill="#4B64C0"/>
<path d="M303.261 20.9948C303.261 22.1717 302.31 23.0996 301.156 23.0996C299.979 23.0996 299.051 22.1491 299.051 20.9948C299.051 19.8179 300.002 18.8899 301.156 18.8899C302.31 18.8899 303.261 19.8179 303.261 20.9948Z" fill="#4B64C0"/>
<path d="M303.102 39.5537C303.102 40.64 302.219 41.5227 301.133 41.5227C300.046 41.5227 299.164 40.64 299.164 39.5537C299.164 38.4673 300.046 37.5846 301.133 37.5846C302.219 37.6073 303.102 38.4673 303.102 39.5537Z" fill="#4B64C0"/>
<path d="M302.944 58.1352C302.944 57.1352 302.133 56.3246 301.133 56.3246C300.133 56.3246 299.322 57.1352 299.322 58.1352C299.322 59.1352 300.133 59.9458 301.133 59.9458C302.133 59.9458 302.944 59.1352 302.944 58.1352Z" fill="#4B64C0"/>
<path d="M302.808 76.694C302.808 77.5993 302.061 78.3462 301.156 78.3462C300.251 78.3462 299.504 77.5993 299.504 76.694C299.504 75.7887 300.251 75.0418 301.156 75.0418C302.061 75.0418 302.808 75.7661 302.808 76.694Z" fill="#4B64C0"/>
<path d="M302.65 95.2529C302.65 96.0903 301.971 96.7693 301.133 96.7693C300.296 96.7693 299.617 96.0903 299.617 95.2529C299.617 94.4155 300.296 93.7365 301.133 93.7365C301.971 93.7365 302.65 94.4155 302.65 95.2529Z" fill="#4B64C0"/>
<path d="M302.491 113.812C302.491 113.062 301.883 112.454 301.133 112.454C300.383 112.454 299.775 113.062 299.775 113.812C299.775 114.562 300.383 115.17 301.133 115.17C301.883 115.17 302.491 114.562 302.491 113.812Z" fill="#4B64C0"/>
<path d="M302.355 132.371C302.355 133.027 301.812 133.57 301.156 133.57C300.499 133.57 299.956 133.027 299.956 132.371C299.956 131.714 300.499 131.171 301.156 131.171C301.812 131.171 302.355 131.714 302.355 132.371Z" fill="#4B64C0"/>
<path d="M302.197 150.952C302.197 151.541 301.722 152.016 301.133 152.016C300.545 152.016 300.069 151.541 300.069 150.952C300.069 150.364 300.545 149.888 301.133 149.888C301.722 149.888 302.197 150.364 302.197 150.952Z" fill="#4B64C0"/>
<path d="M302.039 169.511C302.039 169.011 301.633 168.606 301.133 168.606C300.633 168.606 300.228 169.011 300.228 169.511C300.228 170.011 300.633 170.416 301.133 170.416C301.633 170.416 302.039 170.011 302.039 169.511Z" fill="#4B64C0"/>
<path d="M301.903 188.07C301.903 188.477 301.563 188.817 301.156 188.817C300.748 188.817 300.409 188.477 300.409 188.07C300.409 187.662 300.748 187.323 301.156 187.323C301.563 187.323 301.903 187.662 301.903 188.07Z" fill="#4B64C0"/>
<path d="M301.744 206.629C301.744 206.968 301.473 207.24 301.133 207.24C300.794 207.24 300.522 206.968 300.522 206.629C300.522 206.289 300.794 206.018 301.133 206.018C301.473 206.04 301.744 206.312 301.744 206.629Z" fill="#4B64C0"/>
<path d="M301.586 225.21C301.586 224.96 301.383 224.757 301.133 224.757C300.883 224.757 300.681 224.96 300.681 225.21C300.681 225.46 300.883 225.663 301.133 225.663C301.383 225.663 301.586 225.46 301.586 225.21Z" fill="#4B64C0"/>
<path d="M301.45 243.769C301.45 243.927 301.314 244.063 301.156 244.063C300.997 244.063 300.861 243.927 300.861 243.769C300.861 243.611 300.997 243.475 301.156 243.475C301.314 243.475 301.45 243.611 301.45 243.769Z" fill="#4B64C0"/>
<path d="M301.291 262.328C301.291 262.418 301.224 262.486 301.133 262.486C301.042 262.486 300.975 262.418 300.975 262.328C300.975 262.237 301.042 262.169 301.133 262.169C301.224 262.169 301.291 262.26 301.291 262.328Z" fill="#4B64C0"/>
<path d="M323.321 2.34952C323.321 1.09954 322.308 0.0862417 321.058 0.0862417C319.808 0.0862417 318.795 1.09954 318.795 2.34952C318.795 3.59949 319.808 4.61279 321.058 4.61279C322.308 4.61279 323.321 3.59949 323.321 2.34952Z" fill="#4B64C0"/>
<path d="M323.163 20.9084C323.163 22.0853 322.212 23.0132 321.058 23.0132C319.881 23.0132 318.953 22.0626 318.953 20.9084C318.953 19.7315 319.904 18.8035 321.058 18.8035C322.235 18.8035 323.163 19.7315 323.163 20.9084Z" fill="#4B64C0"/>
<path d="M323.027 39.4675C323.027 40.5539 322.144 41.4365 321.058 41.4365C319.972 41.4365 319.089 40.5539 319.089 39.4675C319.089 38.3811 319.972 37.4984 321.058 37.4984C322.144 37.5211 323.027 38.3811 323.027 39.4675Z" fill="#4B64C0"/>
<path d="M322.868 58.0488C322.868 57.0488 322.058 56.2382 321.058 56.2382C320.058 56.2382 319.247 57.0488 319.247 58.0488C319.247 59.0488 320.058 59.8594 321.058 59.8594C322.058 59.8594 322.868 59.0488 322.868 58.0488Z" fill="#4B64C0"/>
<path d="M322.71 76.6076C322.71 77.5129 321.963 78.2598 321.058 78.2598C320.153 78.2598 319.406 77.5129 319.406 76.6076C319.406 75.7023 320.153 74.9554 321.058 74.9554C321.963 74.9554 322.71 75.6796 322.71 76.6076Z" fill="#4B64C0"/>
<path d="M322.574 95.1665C322.574 96.0039 321.895 96.6829 321.058 96.6829C320.221 96.6829 319.542 96.0039 319.542 95.1665C319.542 94.3291 320.221 93.6501 321.058 93.6501C321.895 93.6501 322.574 94.3291 322.574 95.1665Z" fill="#4B64C0"/>
<path d="M322.416 113.725C322.416 112.975 321.808 112.367 321.058 112.367C320.308 112.367 319.7 112.975 319.7 113.725C319.7 114.475 320.308 115.083 321.058 115.083C321.808 115.083 322.416 114.475 322.416 113.725Z" fill="#4B64C0"/>
<path d="M322.257 132.284C322.257 132.94 321.714 133.484 321.058 133.484C320.401 133.484 319.858 132.94 319.858 132.284C319.858 131.628 320.401 131.085 321.058 131.085C321.737 131.085 322.257 131.628 322.257 132.284Z" fill="#4B64C0"/>
<path d="M322.122 150.866C322.122 151.454 321.646 151.929 321.058 151.929C320.469 151.929 319.994 151.454 319.994 150.866C319.994 150.277 320.469 149.802 321.058 149.802C321.646 149.802 322.122 150.277 322.122 150.866Z" fill="#4B64C0"/>
<path d="M321.963 169.425C321.963 168.925 321.558 168.519 321.058 168.519C320.558 168.519 320.153 168.925 320.153 169.425C320.153 169.924 320.558 170.33 321.058 170.33C321.558 170.33 321.963 169.924 321.963 169.425Z" fill="#4B64C0"/>
<path d="M321.804 187.983C321.804 188.391 321.465 188.73 321.058 188.73C320.65 188.73 320.311 188.391 320.311 187.983C320.311 187.576 320.65 187.236 321.058 187.236C321.465 187.236 321.804 187.576 321.804 187.983Z" fill="#4B64C0"/>
<path d="M321.669 206.542C321.669 206.882 321.397 207.153 321.058 207.153C320.718 207.153 320.447 206.882 320.447 206.542C320.447 206.203 320.718 205.931 321.058 205.931C321.397 205.954 321.669 206.225 321.669 206.542Z" fill="#4B64C0"/>
<path d="M321.511 225.124C321.511 224.874 321.308 224.671 321.058 224.671C320.808 224.671 320.605 224.874 320.605 225.124C320.605 225.374 320.808 225.576 321.058 225.576C321.308 225.576 321.511 225.374 321.511 225.124Z" fill="#4B64C0"/>
<path d="M321.352 243.683C321.352 243.841 321.216 243.977 321.058 243.977C320.899 243.977 320.763 243.841 320.763 243.683C320.763 243.524 320.899 243.388 321.058 243.388C321.216 243.388 321.352 243.524 321.352 243.683Z" fill="#4B64C0"/>
<path d="M321.216 262.241C321.216 262.332 321.148 262.4 321.058 262.4C320.967 262.4 320.899 262.332 320.899 262.241C320.899 262.151 320.967 262.083 321.058 262.083C321.148 262.083 321.216 262.174 321.216 262.241Z" fill="#4B64C0"/>
<path d="M343.246 2.26309C343.246 1.01312 342.232 -0.000184059 340.982 -0.000184059C339.732 -0.000184059 338.719 1.01312 338.719 2.26309C338.719 3.51306 339.732 4.52637 340.982 4.52637C342.232 4.52637 343.246 3.51306 343.246 2.26309Z" fill="#4B64C0"/>
<path d="M343.087 20.8219C343.087 21.9988 342.137 22.9268 340.983 22.9268C339.806 22.9268 338.878 21.9762 338.878 20.8219C338.878 19.645 339.828 18.7171 340.983 18.7171C342.137 18.7171 343.087 19.645 343.087 20.8219Z" fill="#4B64C0"/>
<path d="M342.929 39.3808C342.929 40.4672 342.046 41.3499 340.96 41.3499C339.874 41.3499 338.991 40.4672 338.991 39.3808C338.991 38.2944 339.874 37.4118 340.96 37.4118C342.069 37.4344 342.929 38.2944 342.929 39.3808Z" fill="#4B64C0"/>
<path d="M342.793 57.9624C342.793 58.9582 341.978 59.7729 340.982 59.7729C339.987 59.7729 339.172 58.9582 339.172 57.9624C339.172 56.9665 339.987 56.1517 340.982 56.1517C341.978 56.1291 342.793 56.9439 342.793 57.9624Z" fill="#4B64C0"/>
<path d="M342.635 76.5212C342.635 77.4265 341.888 78.1733 340.983 78.1733C340.077 78.1733 339.33 77.4265 339.33 76.5212C339.33 75.6158 340.077 74.869 340.983 74.869C341.888 74.8463 342.635 75.5932 342.635 76.5212Z" fill="#4B64C0"/>
<path d="M342.476 95.08C342.476 95.9175 341.797 96.5964 340.96 96.5964C340.123 96.5964 339.444 95.9175 339.444 95.08C339.444 94.2426 340.123 93.5637 340.96 93.5637C341.82 93.5637 342.476 94.2426 342.476 95.08Z" fill="#4B64C0"/>
<path d="M342.34 113.639C342.34 114.386 341.729 114.997 340.982 114.997C340.235 114.997 339.624 114.386 339.624 113.639C339.624 112.892 340.235 112.281 340.982 112.281C341.729 112.281 342.34 112.892 342.34 113.639Z" fill="#4B64C0"/>
<path d="M342.182 132.198C342.182 132.854 341.639 133.397 340.982 133.397C340.326 133.397 339.783 132.854 339.783 132.198C339.783 131.541 340.326 130.998 340.982 130.998C341.639 130.998 342.182 131.541 342.182 132.198Z" fill="#4B64C0"/>
<path d="M342.024 150.779C342.024 151.368 341.548 151.843 340.96 151.843C340.371 151.843 339.896 151.368 339.896 150.779C339.896 150.191 340.371 149.716 340.96 149.716C341.571 149.716 342.024 150.191 342.024 150.779Z" fill="#4B64C0"/>
<path d="M341.888 169.338C341.888 169.836 341.481 170.243 340.983 170.243C340.485 170.243 340.077 169.836 340.077 169.338C340.077 168.84 340.485 168.433 340.983 168.433C341.481 168.433 341.888 168.84 341.888 169.338Z" fill="#4B64C0"/>
<path d="M341.729 187.897C341.729 188.304 341.39 188.644 340.982 188.644C340.575 188.644 340.235 188.304 340.235 187.897C340.235 187.49 340.575 187.15 340.982 187.15C341.39 187.15 341.729 187.49 341.729 187.897Z" fill="#4B64C0"/>
<path d="M341.571 206.456C341.571 206.795 341.299 207.067 340.96 207.067C340.62 207.067 340.349 206.795 340.349 206.456C340.349 206.116 340.62 205.845 340.96 205.845C341.322 205.867 341.571 206.139 341.571 206.456Z" fill="#4B64C0"/>
<path d="M341.435 225.037C341.435 225.286 341.232 225.49 340.983 225.49C340.734 225.49 340.53 225.286 340.53 225.037C340.53 224.788 340.734 224.585 340.983 224.585C341.232 224.585 341.435 224.788 341.435 225.037Z" fill="#4B64C0"/>
<path d="M341.277 243.596C341.277 243.755 341.141 243.89 340.983 243.89C340.824 243.89 340.688 243.755 340.688 243.596C340.688 243.438 340.824 243.302 340.983 243.302C341.141 243.302 341.277 243.438 341.277 243.596Z" fill="#4B64C0"/>
<path d="M341.118 262.155C341.118 262.246 341.05 262.313 340.96 262.313C340.869 262.313 340.801 262.246 340.801 262.155C340.801 262.065 340.869 261.997 340.96 261.997C341.05 262.019 341.118 262.087 341.118 262.155Z" fill="#4B64C0"/>
</svg>
