<svg width="221" height="342" viewBox="0 0 221 342" fill="none" xmlns="http://www.w3.org/2000/svg">
<path d="M10.4091 339.616C10.4091 340.652 9.56787 341.493 8.5325 341.493C7.49712 341.493 6.65582 340.652 6.65582 339.616C6.65582 338.581 7.49712 337.74 8.5325 337.74C9.56787 337.74 10.4091 338.581 10.4091 339.616Z" fill="#93949B"/>
<path d="M27.9457 339.616C27.9457 340.565 27.1691 341.342 26.22 341.342C25.271 341.342 24.4944 340.565 24.4944 339.616C24.4944 338.667 25.271 337.891 26.22 337.891C27.1691 337.891 27.9457 338.667 27.9457 339.616Z" fill="#93949B"/>
<path d="M45.504 339.616C45.504 340.479 44.7921 341.191 43.9293 341.191C43.0449 341.191 42.3547 340.479 42.3547 339.616C42.3547 338.732 43.0665 338.042 43.9293 338.042C44.7921 338.02 45.504 338.732 45.504 339.616Z" fill="#93949B"/>
<path d="M63.0407 339.616C63.0407 340.414 62.3935 341.062 61.5954 341.062C60.7973 341.062 60.1503 340.414 60.1503 339.616C60.1503 338.818 60.7973 338.171 61.5954 338.171C62.4151 338.171 63.0407 338.818 63.0407 339.616Z" fill="#93949B"/>
<path d="M80.599 339.616C80.599 340.328 80.0166 340.911 79.3048 340.911C78.593 340.911 78.0106 340.328 78.0106 339.616C78.0106 338.905 78.593 338.322 79.3048 338.322C80.0166 338.322 80.599 338.905 80.599 339.616Z" fill="#93949B"/>
<path d="M98.1573 339.616C98.1573 340.242 97.6396 340.76 97.0141 340.76C96.3885 340.76 95.8708 340.242 95.8708 339.616C95.8708 338.991 96.3885 338.473 97.0141 338.473C97.6396 338.452 98.1573 338.969 98.1573 339.616Z" fill="#93949B"/>
<path d="M115.694 339.616C115.694 340.177 115.241 340.63 114.68 340.63C114.119 340.63 113.666 340.177 113.666 339.616C113.666 339.055 114.119 338.602 114.68 338.602C115.241 338.602 115.694 339.055 115.694 339.616Z" fill="#93949B"/>
<path d="M133.252 339.616C133.252 340.091 132.863 340.479 132.389 340.479C131.914 340.479 131.526 340.091 131.526 339.616C131.526 339.142 131.914 338.754 132.389 338.754C132.863 338.754 133.252 339.142 133.252 339.616Z" fill="#93949B"/>
<path d="M150.789 339.616C150.789 340.005 150.465 340.328 150.077 340.328C149.688 340.328 149.365 340.005 149.365 339.616C149.365 339.228 149.688 338.904 150.077 338.904C150.465 338.883 150.789 339.206 150.789 339.616Z" fill="#93949B"/>
<path d="M168.347 339.616C168.347 339.94 168.088 340.199 167.764 340.199C167.441 340.199 167.182 339.94 167.182 339.616C167.182 339.293 167.441 339.034 167.764 339.034C168.088 339.034 168.347 339.293 168.347 339.616Z" fill="#93949B"/>
<path d="M185.905 339.616C185.905 339.853 185.711 340.047 185.474 340.047C185.236 340.047 185.042 339.853 185.042 339.616C185.042 339.379 185.236 339.185 185.474 339.185C185.711 339.185 185.905 339.379 185.905 339.616Z" fill="#93949B"/>
<path d="M203.442 339.616C203.442 339.767 203.312 339.897 203.161 339.897C203.01 339.897 202.881 339.767 202.881 339.616C202.881 339.465 203.01 339.336 203.161 339.336C203.312 339.314 203.442 339.444 203.442 339.616Z" fill="#93949B"/>
<path d="M221 339.616C221 339.702 220.935 339.767 220.849 339.767C220.763 339.767 220.698 339.702 220.698 339.616C220.698 339.53 220.763 339.465 220.849 339.465C220.935 339.465 221 339.53 221 339.616Z" fill="#93949B"/>
<path d="M10.4091 319.766C10.4091 320.801 9.56787 321.642 8.5325 321.642C7.49712 321.642 6.65582 320.801 6.65582 319.766C6.65582 318.73 7.49712 317.889 8.5325 317.889C9.56787 317.889 10.4091 318.73 10.4091 319.766Z" fill="#93949B"/>
<path d="M27.9457 319.766C27.9457 318.813 27.1731 318.04 26.22 318.04C25.267 318.04 24.4944 318.813 24.4944 319.766C24.4944 320.719 25.267 321.491 26.22 321.491C27.1731 321.491 27.9457 320.719 27.9457 319.766Z" fill="#93949B"/>
<path d="M45.504 319.766C45.504 320.629 44.7921 321.34 43.9293 321.34C43.0449 321.34 42.3547 320.629 42.3547 319.766C42.3547 318.881 43.0665 318.191 43.9293 318.191C44.7921 318.191 45.504 318.903 45.504 319.766Z" fill="#93949B"/>
<path d="M63.0407 319.766C63.0407 320.564 62.3935 321.211 61.5954 321.211C60.7973 321.211 60.1503 320.564 60.1503 319.766C60.1503 318.968 60.7973 318.32 61.5954 318.32C62.4151 318.32 63.0407 318.968 63.0407 319.766Z" fill="#93949B"/>
<path d="M80.599 319.766C80.599 319.051 80.0196 318.471 79.3048 318.471C78.59 318.471 78.0106 319.051 78.0106 319.766C78.0106 320.48 78.59 321.06 79.3048 321.06C80.0196 321.06 80.599 320.48 80.599 319.766Z" fill="#93949B"/>
<path d="M98.1573 319.766C98.1573 320.391 97.6396 320.909 97.0141 320.909C96.3885 320.909 95.8708 320.391 95.8708 319.766C95.8708 319.14 96.3885 318.622 97.0141 318.622C97.6396 318.622 98.1573 319.14 98.1573 319.766Z" fill="#93949B"/>
<path d="M115.694 319.766C115.694 320.326 115.241 320.779 114.68 320.779C114.119 320.779 113.666 320.326 113.666 319.766C113.666 319.205 114.119 318.752 114.68 318.752C115.241 318.752 115.694 319.205 115.694 319.766Z" fill="#93949B"/>
<path d="M133.252 319.766C133.252 320.24 132.863 320.629 132.389 320.629C131.914 320.629 131.526 320.24 131.526 319.766C131.526 319.291 131.914 318.903 132.389 318.903C132.863 318.903 133.252 319.291 133.252 319.766Z" fill="#93949B"/>
<path d="M150.789 319.766C150.789 320.154 150.465 320.478 150.077 320.478C149.688 320.478 149.365 320.154 149.365 319.766C149.365 319.377 149.688 319.054 150.077 319.054C150.465 319.054 150.789 319.377 150.789 319.766Z" fill="#93949B"/>
<path d="M168.347 319.765C168.347 320.089 168.088 320.348 167.764 320.348C167.441 320.348 167.182 320.089 167.182 319.765C167.182 319.442 167.441 319.183 167.764 319.183C168.088 319.183 168.347 319.442 168.347 319.765Z" fill="#93949B"/>
<path d="M185.905 319.765C185.905 319.527 185.712 319.334 185.474 319.334C185.235 319.334 185.042 319.527 185.042 319.765C185.042 320.004 185.235 320.197 185.474 320.197C185.712 320.197 185.905 320.004 185.905 319.765Z" fill="#93949B"/>
<path d="M203.442 319.766C203.442 319.917 203.312 320.046 203.161 320.046C203.01 320.046 202.881 319.917 202.881 319.766C202.881 319.615 203.01 319.485 203.161 319.485C203.312 319.485 203.442 319.615 203.442 319.766Z" fill="#93949B"/>
<path d="M221 319.765C221 319.852 220.935 319.917 220.849 319.917C220.763 319.917 220.698 319.852 220.698 319.765C220.698 319.679 220.763 319.614 220.849 319.614C220.935 319.614 221 319.679 221 319.765Z" fill="#93949B"/>
<path d="M10.4091 299.915C10.4091 300.951 9.56787 301.792 8.5325 301.792C7.49712 301.792 6.65582 300.951 6.65582 299.915C6.65582 298.88 7.49712 298.039 8.5325 298.039C9.56787 298.06 10.4091 298.88 10.4091 299.915Z" fill="#93949B"/>
<path d="M27.9457 299.915C27.9457 298.962 27.1731 298.19 26.22 298.19C25.267 298.19 24.4944 298.962 24.4944 299.915C24.4944 300.868 25.267 301.641 26.22 301.641C27.1731 301.641 27.9457 300.868 27.9457 299.915Z" fill="#93949B"/>
<path d="M45.504 299.915C45.504 300.8 44.7921 301.49 43.9293 301.49C43.0449 301.49 42.3547 300.778 42.3547 299.915C42.3547 299.052 43.0665 298.341 43.9293 298.341C44.7921 298.341 45.504 299.052 45.504 299.915Z" fill="#93949B"/>
<path d="M63.0407 299.915C63.0407 300.713 62.3935 301.36 61.5954 301.36C60.7973 301.36 60.1503 300.713 60.1503 299.915C60.1503 299.117 60.7973 298.47 61.5954 298.47C62.4151 298.492 63.0407 299.117 63.0407 299.915Z" fill="#93949B"/>
<path d="M80.599 299.915C80.599 299.2 80.0196 298.621 79.3048 298.621C78.59 298.621 78.0106 299.2 78.0106 299.915C78.0106 300.63 78.59 301.209 79.3048 301.209C80.0196 301.209 80.599 300.63 80.599 299.915Z" fill="#93949B"/>
<path d="M98.1573 299.915C98.1573 300.541 97.6396 301.058 97.0141 301.058C96.3885 301.058 95.8708 300.541 95.8708 299.915C95.8708 299.29 96.3885 298.772 97.0141 298.772C97.6396 298.772 98.1573 299.29 98.1573 299.915Z" fill="#93949B"/>
<path d="M115.694 299.915C115.694 300.476 115.241 300.929 114.68 300.929C114.119 300.929 113.666 300.476 113.666 299.915C113.666 299.355 114.119 298.901 114.68 298.901C115.241 298.923 115.694 299.355 115.694 299.915Z" fill="#93949B"/>
<path d="M133.252 299.915C133.252 300.39 132.863 300.778 132.389 300.778C131.914 300.778 131.526 300.39 131.526 299.915C131.526 299.441 131.914 299.052 132.389 299.052C132.863 299.052 133.252 299.441 133.252 299.915Z" fill="#93949B"/>
<path d="M150.789 299.915C150.789 300.304 150.465 300.627 150.077 300.627C149.688 300.627 149.365 300.304 149.365 299.915C149.365 299.527 149.688 299.203 150.077 299.203C150.465 299.203 150.789 299.527 150.789 299.915Z" fill="#93949B"/>
<path d="M168.347 299.915C168.347 300.239 168.088 300.498 167.764 300.498C167.441 300.498 167.182 300.239 167.182 299.915C167.182 299.592 167.441 299.333 167.764 299.333C168.088 299.354 168.347 299.613 168.347 299.915Z" fill="#93949B"/>
<path d="M185.905 299.915C185.905 299.677 185.712 299.484 185.474 299.484C185.235 299.484 185.042 299.677 185.042 299.915C185.042 300.154 185.235 300.347 185.474 300.347C185.712 300.347 185.905 300.154 185.905 299.915Z" fill="#93949B"/>
<path d="M203.442 299.915C203.442 300.066 203.312 300.196 203.161 300.196C203.01 300.196 202.881 300.066 202.881 299.915C202.881 299.764 203.01 299.635 203.161 299.635C203.312 299.635 203.442 299.764 203.442 299.915Z" fill="#93949B"/>
<path d="M221 299.915C221 300.001 220.935 300.066 220.849 300.066C220.763 300.066 220.698 300.001 220.698 299.915C220.698 299.829 220.763 299.764 220.849 299.764C220.935 299.786 221 299.85 221 299.915Z" fill="#93949B"/>
<path d="M10.4091 280.065C10.4091 281.1 9.56787 281.942 8.5325 281.942C7.49712 281.942 6.65582 281.1 6.65582 280.065C6.65582 279.03 7.49712 278.188 8.5325 278.188C9.56787 278.188 10.4091 279.03 10.4091 280.065Z" fill="#93949B"/>
<path d="M27.9457 280.065C27.9457 279.112 27.1731 278.339 26.22 278.339C25.267 278.339 24.4944 279.112 24.4944 280.065C24.4944 281.018 25.267 281.791 26.22 281.791C27.1731 281.791 27.9457 281.018 27.9457 280.065Z" fill="#93949B"/>
<path d="M45.504 280.065C45.504 280.949 44.7921 281.639 43.9293 281.639C43.0449 281.639 42.3547 280.928 42.3547 280.065C42.3547 279.202 43.0665 278.49 43.9293 278.49C44.7921 278.469 45.504 279.18 45.504 280.065Z" fill="#93949B"/>
<path d="M63.0407 280.065C63.0407 280.863 62.3935 281.51 61.5954 281.51C60.7973 281.51 60.1503 280.863 60.1503 280.065C60.1503 279.267 60.7973 278.62 61.5954 278.62C62.4151 278.62 63.0407 279.267 63.0407 280.065Z" fill="#93949B"/>
<path d="M80.599 280.065C80.599 279.35 80.0196 278.771 79.3048 278.771C78.59 278.771 78.0106 279.35 78.0106 280.065C78.0106 280.78 78.59 281.359 79.3048 281.359C80.0196 281.359 80.599 280.78 80.599 280.065Z" fill="#93949B"/>
<path d="M98.1573 280.065C98.1573 280.691 97.6396 281.208 97.0141 281.208C96.3885 281.208 95.8708 280.691 95.8708 280.065C95.8708 279.44 96.3885 278.922 97.0141 278.922C97.6396 278.9 98.1573 279.418 98.1573 280.065Z" fill="#93949B"/>
<path d="M115.694 280.065C115.694 280.626 115.241 281.079 114.68 281.079C114.119 281.079 113.666 280.626 113.666 280.065C113.666 279.504 114.119 279.051 114.68 279.051C115.241 279.051 115.694 279.504 115.694 280.065Z" fill="#93949B"/>
<path d="M133.252 280.065C133.252 280.539 132.863 280.928 132.389 280.928C131.914 280.928 131.526 280.539 131.526 280.065C131.526 279.59 131.914 279.202 132.389 279.202C132.863 279.202 133.252 279.569 133.252 280.065Z" fill="#93949B"/>
<path d="M150.789 280.065C150.789 280.453 150.465 280.776 150.077 280.776C149.688 280.776 149.365 280.453 149.365 280.065C149.365 279.676 149.688 279.353 150.077 279.353C150.465 279.331 150.789 279.655 150.789 280.065Z" fill="#93949B"/>
<path d="M168.347 280.065C168.347 279.743 168.086 279.482 167.764 279.482C167.443 279.482 167.182 279.743 167.182 280.065C167.182 280.387 167.443 280.647 167.764 280.647C168.086 280.647 168.347 280.387 168.347 280.065Z" fill="#93949B"/>
<path d="M185.905 280.065C185.905 279.827 185.712 279.633 185.474 279.633C185.235 279.633 185.042 279.827 185.042 280.065C185.042 280.303 185.235 280.496 185.474 280.496C185.712 280.496 185.905 280.303 185.905 280.065Z" fill="#93949B"/>
<path d="M203.442 280.065C203.442 280.216 203.312 280.345 203.161 280.345C203.01 280.345 202.881 280.216 202.881 280.065C202.881 279.914 203.01 279.785 203.161 279.785C203.312 279.763 203.442 279.892 203.442 280.065Z" fill="#93949B"/>
<path d="M221 280.065C221 280.151 220.935 280.216 220.849 280.216C220.763 280.216 220.698 280.151 220.698 280.065C220.698 279.979 220.763 279.914 220.849 279.914C220.935 279.914 221 279.979 221 280.065Z" fill="#93949B"/>
<path d="M10.4091 260.213C10.4091 261.249 9.56787 262.09 8.5325 262.09C7.49712 262.09 6.65582 261.249 6.65582 260.213C6.65582 259.178 7.49712 258.337 8.5325 258.337C9.56787 258.337 10.4091 259.178 10.4091 260.213Z" fill="#93949B"/>
<path d="M27.9457 260.214C27.9457 261.163 27.1691 261.939 26.22 261.939C25.271 261.939 24.4944 261.163 24.4944 260.214C24.4944 259.265 25.271 258.488 26.22 258.488C27.1691 258.488 27.9457 259.265 27.9457 260.214Z" fill="#93949B"/>
<path d="M45.504 260.213C45.504 261.076 44.7921 261.788 43.9293 261.788C43.0449 261.788 42.3547 261.076 42.3547 260.213C42.3547 259.329 43.0665 258.639 43.9293 258.639C44.7921 258.617 45.504 259.329 45.504 260.213Z" fill="#93949B"/>
<path d="M63.0407 260.214C63.0407 261.012 62.3935 261.659 61.5954 261.659C60.7973 261.659 60.1503 261.012 60.1503 260.214C60.1503 259.416 60.7973 258.768 61.5954 258.768C62.4151 258.768 63.0407 259.416 63.0407 260.214Z" fill="#93949B"/>
<path d="M80.599 260.214C80.599 259.499 80.0196 258.919 79.3048 258.919C78.59 258.919 78.0106 259.499 78.0106 260.214C78.0106 260.928 78.59 261.508 79.3048 261.508C80.0196 261.508 80.599 260.928 80.599 260.214Z" fill="#93949B"/>
<path d="M98.1573 260.214C98.1573 260.839 97.6396 261.357 97.0141 261.357C96.3885 261.357 95.8708 260.839 95.8708 260.214C95.8708 259.588 96.3885 259.071 97.0141 259.071C97.6396 259.049 98.1573 259.567 98.1573 260.214Z" fill="#93949B"/>
<path d="M115.694 260.214C115.694 260.774 115.241 261.228 114.68 261.228C114.119 261.228 113.666 260.774 113.666 260.214C113.666 259.653 114.119 259.2 114.68 259.2C115.241 259.2 115.694 259.653 115.694 260.214Z" fill="#93949B"/>
<path d="M133.252 260.214C133.252 260.688 132.863 261.076 132.389 261.076C131.914 261.076 131.526 260.688 131.526 260.214C131.526 259.739 131.914 259.351 132.389 259.351C132.863 259.351 133.252 259.739 133.252 260.214Z" fill="#93949B"/>
<path d="M150.789 260.214C150.789 260.602 150.465 260.926 150.077 260.926C149.688 260.926 149.365 260.602 149.365 260.214C149.365 259.826 149.688 259.502 150.077 259.502C150.465 259.481 150.789 259.804 150.789 260.214Z" fill="#93949B"/>
<path d="M168.347 260.214C168.347 260.537 168.088 260.796 167.764 260.796C167.441 260.796 167.182 260.537 167.182 260.214C167.182 259.89 167.441 259.631 167.764 259.631C168.088 259.631 168.347 259.89 168.347 260.214Z" fill="#93949B"/>
<path d="M185.905 260.214C185.905 260.451 185.711 260.645 185.474 260.645C185.236 260.645 185.042 260.451 185.042 260.214C185.042 259.976 185.236 259.782 185.474 259.782C185.711 259.782 185.905 259.976 185.905 260.214Z" fill="#93949B"/>
<path d="M203.442 260.214C203.442 260.365 203.312 260.494 203.161 260.494C203.01 260.494 202.881 260.365 202.881 260.214C202.881 260.063 203.01 259.933 203.161 259.933C203.312 259.912 203.442 260.041 203.442 260.214Z" fill="#93949B"/>
<path d="M221 260.214C221 260.3 220.935 260.365 220.849 260.365C220.763 260.365 220.698 260.3 220.698 260.214C220.698 260.127 220.763 260.063 220.849 260.063C220.935 260.063 221 260.127 221 260.214Z" fill="#93949B"/>
<path d="M10.4091 240.364C10.4091 241.399 9.56787 242.24 8.5325 242.24C7.49712 242.24 6.65582 241.399 6.65582 240.364C6.65582 239.328 7.49712 238.487 8.5325 238.487C9.56787 238.487 10.4091 239.328 10.4091 240.364Z" fill="#93949B"/>
<path d="M27.9457 240.364C27.9457 241.313 27.1691 242.089 26.22 242.089C25.271 242.089 24.4944 241.313 24.4944 240.364C24.4944 239.414 25.271 238.638 26.22 238.638C27.1691 238.638 27.9457 239.414 27.9457 240.364Z" fill="#93949B"/>
<path d="M45.504 240.364C45.504 241.226 44.7921 241.938 43.9293 241.938C43.0449 241.938 42.3547 241.226 42.3547 240.364C42.3547 239.479 43.0665 238.789 43.9293 238.789C44.7921 238.789 45.504 239.501 45.504 240.364Z" fill="#93949B"/>
<path d="M63.0407 240.363C63.0407 241.162 62.3935 241.809 61.5954 241.809C60.7973 241.809 60.1503 241.162 60.1503 240.363C60.1503 239.565 60.7973 238.918 61.5954 238.918C62.4151 238.918 63.0407 239.565 63.0407 240.363Z" fill="#93949B"/>
<path d="M80.599 240.363C80.599 241.075 80.0166 241.658 79.3048 241.658C78.593 241.658 78.0106 241.075 78.0106 240.363C78.0106 239.651 78.593 239.069 79.3048 239.069C80.0166 239.069 80.599 239.651 80.599 240.363Z" fill="#93949B"/>
<path d="M98.1573 240.364C98.1573 240.989 97.6396 241.507 97.0141 241.507C96.3885 241.507 95.8708 240.989 95.8708 240.364C95.8708 239.738 96.3885 239.22 97.0141 239.22C97.6396 239.22 98.1573 239.738 98.1573 240.364Z" fill="#93949B"/>
<path d="M115.694 240.363C115.694 240.924 115.241 241.377 114.68 241.377C114.119 241.377 113.666 240.924 113.666 240.363C113.666 239.803 114.119 239.35 114.68 239.35C115.241 239.35 115.694 239.803 115.694 240.363Z" fill="#93949B"/>
<path d="M133.252 240.364C133.252 240.838 132.863 241.227 132.389 241.227C131.914 241.227 131.526 240.838 131.526 240.364C131.526 239.889 131.914 239.501 132.389 239.501C132.863 239.501 133.252 239.889 133.252 240.364Z" fill="#93949B"/>
<path d="M150.789 240.364C150.789 240.752 150.465 241.075 150.077 241.075C149.688 241.075 149.365 240.752 149.365 240.364C149.365 239.975 149.688 239.652 150.077 239.652C150.465 239.652 150.789 239.975 150.789 240.364Z" fill="#93949B"/>
<path d="M168.347 240.363C168.347 240.687 168.088 240.946 167.764 240.946C167.441 240.946 167.182 240.687 167.182 240.363C167.182 240.04 167.441 239.781 167.764 239.781C168.088 239.781 168.347 240.04 168.347 240.363Z" fill="#93949B"/>
<path d="M185.905 240.364C185.905 240.601 185.711 240.795 185.474 240.795C185.236 240.795 185.042 240.601 185.042 240.364C185.042 240.126 185.236 239.932 185.474 239.932C185.711 239.932 185.905 240.126 185.905 240.364Z" fill="#93949B"/>
<path d="M203.442 240.363C203.442 240.514 203.312 240.644 203.161 240.644C203.01 240.644 202.881 240.514 202.881 240.363C202.881 240.213 203.01 240.083 203.161 240.083C203.312 240.083 203.442 240.213 203.442 240.363Z" fill="#93949B"/>
<path d="M221 240.363C221 240.45 220.935 240.514 220.849 240.514C220.763 240.514 220.698 240.45 220.698 240.363C220.698 240.277 220.763 240.212 220.849 240.212C220.935 240.212 221 240.277 221 240.363Z" fill="#93949B"/>
<path d="M10.4091 220.513C10.4091 221.549 9.56787 222.39 8.5325 222.39C7.49712 222.39 6.65582 221.549 6.65582 220.513C6.65582 219.478 7.49712 218.637 8.5325 218.637C9.56787 218.658 10.4091 219.478 10.4091 220.513Z" fill="#93949B"/>
<path d="M27.9457 220.513C27.9457 221.462 27.1691 222.239 26.22 222.239C25.271 222.239 24.4944 221.462 24.4944 220.513C24.4944 219.564 25.271 218.788 26.22 218.788C27.1691 218.788 27.9457 219.564 27.9457 220.513Z" fill="#93949B"/>
<path d="M45.504 220.513C45.504 221.397 44.7921 222.088 43.9293 222.088C43.0449 222.088 42.3547 221.376 42.3547 220.513C42.3547 219.65 43.0665 218.938 43.9293 218.938C44.7921 218.938 45.504 219.65 45.504 220.513Z" fill="#93949B"/>
<path d="M63.0407 220.513C63.0407 221.311 62.3935 221.958 61.5954 221.958C60.7973 221.958 60.1503 221.311 60.1503 220.513C60.1503 219.715 60.7973 219.068 61.5954 219.068C62.4151 219.09 63.0407 219.715 63.0407 220.513Z" fill="#93949B"/>
<path d="M80.599 220.513C80.599 219.798 80.0196 219.219 79.3048 219.219C78.59 219.219 78.0106 219.798 78.0106 220.513C78.0106 221.228 78.59 221.807 79.3048 221.807C80.0196 221.807 80.599 221.228 80.599 220.513Z" fill="#93949B"/>
<path d="M98.1573 220.513C98.1573 221.139 97.6396 221.656 97.0141 221.656C96.3885 221.656 95.8708 221.139 95.8708 220.513C95.8708 219.888 96.3885 219.37 97.0141 219.37C97.6396 219.37 98.1573 219.888 98.1573 220.513Z" fill="#93949B"/>
<path d="M115.694 220.513C115.694 221.074 115.241 221.527 114.68 221.527C114.119 221.527 113.666 221.074 113.666 220.513C113.666 219.952 114.119 219.499 114.68 219.499C115.241 219.521 115.694 219.952 115.694 220.513Z" fill="#93949B"/>
<path d="M133.252 220.513C133.252 220.988 132.863 221.376 132.389 221.376C131.914 221.376 131.526 220.988 131.526 220.513C131.526 220.038 131.914 219.65 132.389 219.65C132.863 219.65 133.252 220.038 133.252 220.513Z" fill="#93949B"/>
<path d="M150.789 220.513C150.789 220.902 150.465 221.225 150.077 221.225C149.688 221.225 149.365 220.902 149.365 220.513C149.365 220.125 149.688 219.801 150.077 219.801C150.465 219.801 150.789 220.125 150.789 220.513Z" fill="#93949B"/>
<path d="M168.347 220.513C168.347 220.191 168.086 219.931 167.764 219.931C167.443 219.931 167.182 220.191 167.182 220.513C167.182 220.835 167.443 221.095 167.764 221.095C168.086 221.095 168.347 220.835 168.347 220.513Z" fill="#93949B"/>
<path d="M185.905 220.513C185.905 220.75 185.711 220.944 185.474 220.944C185.236 220.944 185.042 220.75 185.042 220.513C185.042 220.276 185.236 220.081 185.474 220.081C185.711 220.081 185.905 220.276 185.905 220.513Z" fill="#93949B"/>
<path d="M203.442 220.513C203.442 220.664 203.312 220.794 203.161 220.794C203.01 220.794 202.881 220.664 202.881 220.513C202.881 220.362 203.01 220.233 203.161 220.233C203.312 220.233 203.442 220.362 203.442 220.513Z" fill="#93949B"/>
<path d="M221 220.513C221 220.599 220.935 220.664 220.849 220.664C220.763 220.664 220.698 220.599 220.698 220.513C220.698 220.427 220.763 220.362 220.849 220.362C220.935 220.384 221 220.448 221 220.513Z" fill="#93949B"/>
<path d="M10.4091 200.663C10.4091 201.698 9.56787 202.539 8.5325 202.539C7.49712 202.539 6.65582 201.698 6.65582 200.663C6.65582 199.627 7.49712 198.786 8.5325 198.786C9.56787 198.786 10.4091 199.627 10.4091 200.663Z" fill="#93949B"/>
<path d="M27.9457 200.662C27.9457 199.709 27.1731 198.937 26.22 198.937C25.267 198.937 24.4944 199.709 24.4944 200.662C24.4944 201.615 25.267 202.388 26.22 202.388C27.1731 202.388 27.9457 201.615 27.9457 200.662Z" fill="#93949B"/>
<path d="M45.504 200.662C45.504 201.547 44.7921 202.237 43.9293 202.237C43.0449 202.237 42.3547 201.525 42.3547 200.662C42.3547 199.8 43.0665 199.088 43.9293 199.088C44.7921 199.066 45.504 199.778 45.504 200.662Z" fill="#93949B"/>
<path d="M63.0407 200.663C63.0407 201.461 62.3935 202.108 61.5954 202.108C60.7973 202.108 60.1503 201.461 60.1503 200.663C60.1503 199.865 60.7973 199.217 61.5954 199.217C62.4151 199.217 63.0407 199.865 63.0407 200.663Z" fill="#93949B"/>
<path d="M80.599 200.662C80.599 199.948 80.0196 199.368 79.3048 199.368C78.59 199.368 78.0106 199.948 78.0106 200.662C78.0106 201.377 78.59 201.957 79.3048 201.957C80.0196 201.957 80.599 201.377 80.599 200.662Z" fill="#93949B"/>
<path d="M98.1573 200.662C98.1573 201.288 97.6396 201.806 97.0141 201.806C96.3885 201.806 95.8708 201.288 95.8708 200.662C95.8708 200.037 96.3885 199.519 97.0141 199.519C97.6396 199.498 98.1573 200.015 98.1573 200.662Z" fill="#93949B"/>
<path d="M115.694 200.663C115.694 201.223 115.241 201.676 114.68 201.676C114.119 201.676 113.666 201.223 113.666 200.663C113.666 200.102 114.119 199.649 114.68 199.649C115.241 199.649 115.694 200.102 115.694 200.663Z" fill="#93949B"/>
<path d="M133.252 200.662C133.252 201.137 132.863 201.525 132.389 201.525C131.914 201.525 131.526 201.137 131.526 200.662C131.526 200.188 131.914 199.8 132.389 199.8C132.863 199.8 133.252 200.166 133.252 200.662Z" fill="#93949B"/>
<path d="M150.789 200.662C150.789 201.051 150.465 201.374 150.077 201.374C149.688 201.374 149.365 201.051 149.365 200.662C149.365 200.274 149.688 199.951 150.077 199.951C150.465 199.929 150.789 200.253 150.789 200.662Z" fill="#93949B"/>
<path d="M168.347 200.663C168.347 200.986 168.088 201.245 167.764 201.245C167.441 201.245 167.182 200.986 167.182 200.663C167.182 200.339 167.441 200.08 167.764 200.08C168.088 200.08 168.347 200.339 168.347 200.663Z" fill="#93949B"/>
<path d="M185.905 200.662C185.905 200.424 185.712 200.231 185.474 200.231C185.235 200.231 185.042 200.424 185.042 200.662C185.042 200.901 185.235 201.094 185.474 201.094C185.712 201.094 185.905 200.901 185.905 200.662Z" fill="#93949B"/>
<path d="M203.442 200.663C203.442 200.814 203.312 200.943 203.161 200.943C203.01 200.943 202.881 200.814 202.881 200.663C202.881 200.512 203.01 200.382 203.161 200.382C203.312 200.361 203.442 200.49 203.442 200.663Z" fill="#93949B"/>
<path d="M221 200.662C221 200.749 220.935 200.813 220.849 200.813C220.763 200.813 220.698 200.749 220.698 200.662C220.698 200.576 220.763 200.511 220.849 200.511C220.935 200.511 221 200.576 221 200.662Z" fill="#93949B"/>
<path d="M10.4091 180.812C10.4091 179.776 9.56892 178.936 8.5325 178.936C7.49607 178.936 6.65582 179.776 6.65582 180.812C6.65582 181.849 7.49607 182.689 8.5325 182.689C9.56892 182.689 10.4091 181.849 10.4091 180.812Z" fill="#93949B"/>
<path d="M27.9457 180.812C27.9457 179.859 27.1731 179.086 26.22 179.086C25.267 179.086 24.4944 179.859 24.4944 180.812C24.4944 181.765 25.267 182.538 26.22 182.538C27.1731 182.538 27.9457 181.765 27.9457 180.812Z" fill="#93949B"/>
<path d="M45.504 180.812C45.504 181.675 44.7921 182.386 43.9293 182.386C43.0449 182.386 42.3547 181.675 42.3547 180.812C42.3547 179.928 43.0665 179.237 43.9293 179.237C44.7921 179.216 45.504 179.928 45.504 180.812Z" fill="#93949B"/>
<path d="M63.0407 180.812C63.0407 181.61 62.3935 182.257 61.5954 182.257C60.7973 182.257 60.1503 181.61 60.1503 180.812C60.1503 180.014 60.7973 179.367 61.5954 179.367C62.4151 179.367 63.0407 180.014 63.0407 180.812Z" fill="#93949B"/>
<path d="M80.599 180.812C80.599 180.097 80.0196 179.518 79.3048 179.518C78.59 179.518 78.0106 180.097 78.0106 180.812C78.0106 181.527 78.59 182.106 79.3048 182.106C80.0196 182.106 80.599 181.527 80.599 180.812Z" fill="#93949B"/>
<path d="M98.1573 180.812C98.1573 181.437 97.6396 181.955 97.0141 181.955C96.3885 181.955 95.8708 181.437 95.8708 180.812C95.8708 180.186 96.3885 179.669 97.0141 179.669C97.6396 179.647 98.1573 180.165 98.1573 180.812Z" fill="#93949B"/>
<path d="M115.694 180.812C115.694 181.373 115.241 181.826 114.68 181.826C114.119 181.826 113.666 181.373 113.666 180.812C113.666 180.251 114.119 179.798 114.68 179.798C115.241 179.798 115.694 180.251 115.694 180.812Z" fill="#93949B"/>
<path d="M133.252 180.812C133.252 181.287 132.863 181.675 132.389 181.675C131.914 181.675 131.526 181.287 131.526 180.812C131.526 180.338 131.914 179.949 132.389 179.949C132.863 179.949 133.252 180.338 133.252 180.812Z" fill="#93949B"/>
<path d="M150.789 180.812C150.789 181.2 150.465 181.524 150.077 181.524C149.688 181.524 149.365 181.2 149.365 180.812C149.365 180.424 149.688 180.1 150.077 180.1C150.465 180.079 150.789 180.402 150.789 180.812Z" fill="#93949B"/>
<path d="M168.347 180.812C168.347 180.49 168.086 180.23 167.764 180.23C167.443 180.23 167.182 180.49 167.182 180.812C167.182 181.134 167.443 181.394 167.764 181.394C168.086 181.394 168.347 181.134 168.347 180.812Z" fill="#93949B"/>
<path d="M185.905 180.812C185.905 180.574 185.712 180.381 185.474 180.381C185.235 180.381 185.042 180.574 185.042 180.812C185.042 181.05 185.235 181.243 185.474 181.243C185.712 181.243 185.905 181.05 185.905 180.812Z" fill="#93949B"/>
<path d="M203.442 180.812C203.442 180.657 203.316 180.532 203.161 180.532C203.006 180.532 202.881 180.657 202.881 180.812C202.881 180.967 203.006 181.093 203.161 181.093C203.316 181.093 203.442 180.967 203.442 180.812Z" fill="#93949B"/>
<path d="M221 180.812C221 180.898 220.935 180.963 220.849 180.963C220.763 180.963 220.698 180.898 220.698 180.812C220.698 180.726 220.763 180.661 220.849 180.661C220.935 180.661 221 180.726 221 180.812Z" fill="#93949B"/>
<path d="M10.4091 160.961C10.4091 161.997 9.56787 162.838 8.5325 162.838C7.49712 162.838 6.65582 161.997 6.65582 160.961C6.65582 159.926 7.49712 159.085 8.5325 159.085C9.56787 159.085 10.4091 159.926 10.4091 160.961Z" fill="#93949B"/>
<path d="M27.9457 160.962C27.9457 160.008 27.1731 159.236 26.22 159.236C25.267 159.236 24.4944 160.008 24.4944 160.962C24.4944 161.915 25.267 162.687 26.22 162.687C27.1731 162.687 27.9457 161.915 27.9457 160.962Z" fill="#93949B"/>
<path d="M45.504 160.961C45.504 161.846 44.7921 162.536 43.9293 162.536C43.0449 162.536 42.3547 161.824 42.3547 160.961C42.3547 160.077 43.0665 159.387 43.9293 159.387C44.7921 159.387 45.504 160.099 45.504 160.961Z" fill="#93949B"/>
<path d="M63.0407 160.961C63.0407 161.759 62.3935 162.407 61.5954 162.407C60.7973 162.407 60.1503 161.759 60.1503 160.961C60.1503 160.163 60.7973 159.516 61.5954 159.516C62.4151 159.516 63.0407 160.163 63.0407 160.961Z" fill="#93949B"/>
<path d="M80.599 160.962C80.599 160.247 80.0196 159.667 79.3048 159.667C78.59 159.667 78.0106 160.247 78.0106 160.962C78.0106 161.676 78.59 162.256 79.3048 162.256C80.0196 162.256 80.599 161.676 80.599 160.962Z" fill="#93949B"/>
<path d="M98.1573 160.961C98.1573 161.587 97.6396 162.105 97.0141 162.105C96.3885 162.105 95.8708 161.587 95.8708 160.961C95.8708 160.336 96.3885 159.818 97.0141 159.818C97.6396 159.818 98.1573 160.336 98.1573 160.961Z" fill="#93949B"/>
<path d="M115.694 160.962C115.694 161.522 115.241 161.975 114.68 161.975C114.119 161.975 113.666 161.522 113.666 160.962C113.666 160.401 114.119 159.948 114.68 159.948C115.241 159.948 115.694 160.401 115.694 160.962Z" fill="#93949B"/>
<path d="M133.252 160.961C133.252 161.436 132.863 161.824 132.389 161.824C131.914 161.824 131.526 161.436 131.526 160.961C131.526 160.487 131.914 160.099 132.389 160.099C132.863 160.099 133.252 160.487 133.252 160.961Z" fill="#93949B"/>
<path d="M150.789 160.961C150.789 161.35 150.465 161.673 150.077 161.673C149.688 161.673 149.365 161.35 149.365 160.961C149.365 160.573 149.688 160.25 150.077 160.25C150.465 160.25 150.789 160.573 150.789 160.961Z" fill="#93949B"/>
<path d="M168.347 160.962C168.347 161.285 168.088 161.544 167.764 161.544C167.441 161.544 167.182 161.285 167.182 160.962C167.182 160.638 167.441 160.379 167.764 160.379C168.088 160.379 168.347 160.638 168.347 160.962Z" fill="#93949B"/>
<path d="M185.905 160.962C185.905 160.723 185.712 160.53 185.474 160.53C185.235 160.53 185.042 160.723 185.042 160.962C185.042 161.2 185.235 161.393 185.474 161.393C185.712 161.393 185.905 161.2 185.905 160.962Z" fill="#93949B"/>
<path d="M203.442 160.961C203.442 161.112 203.312 161.242 203.161 161.242C203.01 161.242 202.881 161.112 202.881 160.961C202.881 160.81 203.01 160.681 203.161 160.681C203.312 160.681 203.442 160.81 203.442 160.961Z" fill="#93949B"/>
<path d="M221 160.961C221 161.048 220.935 161.112 220.849 161.112C220.763 161.112 220.698 161.048 220.698 160.961C220.698 160.875 220.763 160.81 220.849 160.81C220.935 160.81 221 160.875 221 160.961Z" fill="#93949B"/>
<path d="M10.4091 141.111C10.4091 142.146 9.56787 142.987 8.5325 142.987C7.49712 142.987 6.65582 142.146 6.65582 141.111C6.65582 140.075 7.49712 139.234 8.5325 139.234C9.56787 139.256 10.4091 140.075 10.4091 141.111Z" fill="#93949B"/>
<path d="M27.9457 141.111C27.9457 140.158 27.1731 139.385 26.22 139.385C25.267 139.385 24.4944 140.158 24.4944 141.111C24.4944 142.064 25.267 142.836 26.22 142.836C27.1731 142.836 27.9457 142.064 27.9457 141.111Z" fill="#93949B"/>
<path d="M45.504 141.111C45.504 141.995 44.7921 142.686 43.9293 142.686C43.0449 142.686 42.3547 141.974 42.3547 141.111C42.3547 140.248 43.0665 139.536 43.9293 139.536C44.7921 139.536 45.504 140.248 45.504 141.111Z" fill="#93949B"/>
<path d="M63.0407 141.111C63.0407 141.909 62.3935 142.556 61.5954 142.556C60.7973 142.556 60.1503 141.909 60.1503 141.111C60.1503 140.313 60.7973 139.666 61.5954 139.666C62.4151 139.687 63.0407 140.313 63.0407 141.111Z" fill="#93949B"/>
<path d="M80.599 141.111C80.599 141.823 80.0166 142.405 79.3048 142.405C78.593 142.405 78.0106 141.823 78.0106 141.111C78.0106 140.399 78.593 139.817 79.3048 139.817C80.0166 139.817 80.599 140.399 80.599 141.111Z" fill="#93949B"/>
<path d="M98.1573 141.111C98.1573 141.736 97.6396 142.254 97.0141 142.254C96.3885 142.254 95.8708 141.736 95.8708 141.111C95.8708 140.485 96.3885 139.968 97.0141 139.968C97.6396 139.968 98.1573 140.485 98.1573 141.111Z" fill="#93949B"/>
<path d="M115.694 141.111C115.694 141.671 115.241 142.125 114.68 142.125C114.119 142.125 113.666 141.671 113.666 141.111C113.666 140.55 114.119 140.097 114.68 140.097C115.241 140.118 115.694 140.571 115.694 141.111Z" fill="#93949B"/>
<path d="M133.252 141.111C133.252 141.585 132.863 141.974 132.389 141.974C131.914 141.974 131.526 141.585 131.526 141.111C131.526 140.636 131.914 140.248 132.389 140.248C132.863 140.248 133.252 140.636 133.252 141.111Z" fill="#93949B"/>
<path d="M150.789 141.111C150.789 140.718 150.47 140.399 150.077 140.399C149.684 140.399 149.365 140.718 149.365 141.111C149.365 141.504 149.684 141.823 150.077 141.823C150.47 141.823 150.789 141.504 150.789 141.111Z" fill="#93949B"/>
<path d="M168.347 141.111C168.347 141.434 168.088 141.693 167.764 141.693C167.441 141.693 167.182 141.434 167.182 141.111C167.182 140.787 167.441 140.528 167.764 140.528C168.088 140.55 168.347 140.809 168.347 141.111Z" fill="#93949B"/>
<path d="M185.905 141.111C185.905 140.872 185.712 140.679 185.474 140.679C185.235 140.679 185.042 140.872 185.042 141.111C185.042 141.349 185.235 141.542 185.474 141.542C185.712 141.542 185.905 141.349 185.905 141.111Z" fill="#93949B"/>
<path d="M203.442 141.111C203.442 141.262 203.312 141.391 203.161 141.391C203.01 141.391 202.881 141.262 202.881 141.111C202.881 140.96 203.01 140.83 203.161 140.83C203.312 140.83 203.442 140.96 203.442 141.111Z" fill="#93949B"/>
<path d="M221 141.111C221 141.197 220.935 141.262 220.849 141.262C220.763 141.262 220.698 141.197 220.698 141.111C220.698 141.024 220.763 140.96 220.849 140.96C220.935 140.981 221 141.046 221 141.111Z" fill="#93949B"/>
<path d="M10.4091 121.26C10.4091 122.296 9.56787 123.137 8.5325 123.137C7.49712 123.137 6.65582 122.296 6.65582 121.26C6.65582 120.225 7.49712 119.384 8.5325 119.384C9.56787 119.384 10.4091 120.225 10.4091 121.26Z" fill="#93949B"/>
<path d="M27.9457 121.26C27.9457 122.209 27.1691 122.986 26.22 122.986C25.271 122.986 24.4944 122.209 24.4944 121.26C24.4944 120.311 25.271 119.535 26.22 119.535C27.1691 119.535 27.9457 120.29 27.9457 121.26Z" fill="#93949B"/>
<path d="M45.504 121.26C45.504 122.145 44.7921 122.835 43.9293 122.835C43.0449 122.835 42.3547 122.123 42.3547 121.26C42.3547 120.397 43.0665 119.686 43.9293 119.686C44.7921 119.664 45.504 120.376 45.504 121.26Z" fill="#93949B"/>
<path d="M63.0407 121.26C63.0407 122.058 62.3935 122.705 61.5954 122.705C60.7973 122.705 60.1503 122.058 60.1503 121.26C60.1503 120.462 60.7973 119.815 61.5954 119.815C62.4151 119.815 63.0407 120.462 63.0407 121.26Z" fill="#93949B"/>
<path d="M80.599 121.26C80.599 121.972 80.0166 122.554 79.3048 122.554C78.593 122.554 78.0106 121.972 78.0106 121.26C78.0106 120.548 78.593 119.966 79.3048 119.966C80.0166 119.966 80.599 120.527 80.599 121.26Z" fill="#93949B"/>
<path d="M98.1573 121.26C98.1573 121.886 97.6396 122.404 97.0141 122.404C96.3885 122.404 95.8708 121.886 95.8708 121.26C95.8708 120.635 96.3885 120.117 97.0141 120.117C97.6396 120.096 98.1573 120.613 98.1573 121.26Z" fill="#93949B"/>
<path d="M115.694 121.26C115.694 121.821 115.241 122.274 114.68 122.274C114.119 122.274 113.666 121.821 113.666 121.26C113.666 120.699 114.119 120.246 114.68 120.246C115.241 120.246 115.694 120.699 115.694 121.26Z" fill="#93949B"/>
<path d="M133.252 121.26C133.252 121.735 132.863 122.123 132.389 122.123C131.914 122.123 131.526 121.735 131.526 121.26C131.526 120.786 131.914 120.397 132.389 120.397C132.863 120.397 133.252 120.764 133.252 121.26Z" fill="#93949B"/>
<path d="M150.789 121.26C150.789 121.649 150.465 121.972 150.077 121.972C149.688 121.972 149.365 121.649 149.365 121.26C149.365 120.872 149.688 120.548 150.077 120.548C150.465 120.527 150.789 120.85 150.789 121.26Z" fill="#93949B"/>
<path d="M168.347 121.26C168.347 121.584 168.088 121.843 167.764 121.843C167.441 121.843 167.182 121.584 167.182 121.26C167.182 120.937 167.441 120.678 167.764 120.678C168.088 120.678 168.347 120.937 168.347 121.26Z" fill="#93949B"/>
<path d="M185.905 121.26C185.905 121.498 185.711 121.692 185.474 121.692C185.236 121.692 185.042 121.498 185.042 121.26C185.042 121.023 185.236 120.829 185.474 120.829C185.711 120.829 185.905 121.002 185.905 121.26Z" fill="#93949B"/>
<path d="M203.442 121.26C203.442 121.411 203.312 121.541 203.161 121.541C203.01 121.541 202.881 121.411 202.881 121.26C202.881 121.109 203.01 120.98 203.161 120.98C203.312 120.958 203.442 121.088 203.442 121.26Z" fill="#93949B"/>
<path d="M221 121.26C221 121.346 220.935 121.411 220.849 121.411C220.763 121.411 220.698 121.346 220.698 121.26C220.698 121.174 220.763 121.109 220.849 121.109C220.935 121.109 221 121.174 221 121.26Z" fill="#93949B"/>
<path d="M10.4091 101.41C10.4091 100.373 9.56892 99.5329 8.5325 99.5329C7.49607 99.5329 6.65582 100.373 6.65582 101.41C6.65582 102.446 7.49607 103.286 8.5325 103.286C9.56892 103.286 10.4091 102.446 10.4091 101.41Z" fill="#93949B"/>
<path d="M27.9457 101.41C27.9457 102.359 27.1691 103.135 26.22 103.135C25.271 103.135 24.4944 102.359 24.4944 101.41C24.4944 100.46 25.271 99.6839 26.22 99.6839C27.1691 99.6839 27.9457 100.46 27.9457 101.41Z" fill="#93949B"/>
<path d="M45.504 101.409C45.504 102.272 44.7921 102.984 43.9293 102.984C43.0449 102.984 42.3547 102.272 42.3547 101.409C42.3547 100.525 43.0665 99.8347 43.9293 99.8347C44.7921 99.8131 45.504 100.525 45.504 101.409Z" fill="#93949B"/>
<path d="M63.0407 101.409C63.0407 102.207 62.3935 102.854 61.5954 102.854C60.7973 102.854 60.1503 102.207 60.1503 101.409C60.1503 100.611 60.7973 99.9641 61.5954 99.9641C62.4151 99.9641 63.0407 100.611 63.0407 101.409Z" fill="#93949B"/>
<path d="M80.599 101.409C80.599 100.695 80.0196 100.115 79.3048 100.115C78.59 100.115 78.0106 100.695 78.0106 101.409C78.0106 102.124 78.59 102.704 79.3048 102.704C80.0196 102.704 80.599 102.124 80.599 101.409Z" fill="#93949B"/>
<path d="M98.1573 101.409C98.1573 102.035 97.6396 102.553 97.0141 102.553C96.3885 102.553 95.8708 102.035 95.8708 101.409C95.8708 100.784 96.3885 100.266 97.0141 100.266C97.6396 100.245 98.1573 100.762 98.1573 101.409Z" fill="#93949B"/>
<path d="M115.694 101.409C115.694 101.97 115.241 102.423 114.68 102.423C114.119 102.423 113.666 101.97 113.666 101.409C113.666 100.848 114.119 100.395 114.68 100.395C115.241 100.395 115.694 100.848 115.694 101.409Z" fill="#93949B"/>
<path d="M133.252 101.409C133.252 101.884 132.863 102.272 132.389 102.272C131.914 102.272 131.526 101.884 131.526 101.409C131.526 100.935 131.914 100.547 132.389 100.547C132.863 100.547 133.252 100.935 133.252 101.409Z" fill="#93949B"/>
<path d="M150.789 101.41C150.789 101.798 150.465 102.121 150.077 102.121C149.688 102.121 149.365 101.798 149.365 101.41C149.365 101.021 149.688 100.698 150.077 100.698C150.465 100.676 150.789 101 150.789 101.41Z" fill="#93949B"/>
<path d="M168.347 101.41C168.347 101.733 168.088 101.992 167.764 101.992C167.441 101.992 167.182 101.733 167.182 101.41C167.182 101.086 167.441 100.827 167.764 100.827C168.088 100.827 168.347 101.086 168.347 101.41Z" fill="#93949B"/>
<path d="M185.905 101.409C185.905 101.647 185.711 101.841 185.474 101.841C185.236 101.841 185.042 101.647 185.042 101.409C185.042 101.172 185.236 100.978 185.474 100.978C185.711 100.978 185.905 101.172 185.905 101.409Z" fill="#93949B"/>
<path d="M203.442 101.41C203.442 101.255 203.316 101.129 203.161 101.129C203.006 101.129 202.881 101.255 202.881 101.41C202.881 101.564 203.006 101.69 203.161 101.69C203.316 101.69 203.442 101.564 203.442 101.41Z" fill="#93949B"/>
<path d="M221 101.409C221 101.496 220.935 101.56 220.849 101.56C220.763 101.56 220.698 101.496 220.698 101.409C220.698 101.323 220.763 101.258 220.849 101.258C220.935 101.258 221 101.323 221 101.409Z" fill="#93949B"/>
<path d="M10.4091 81.5591C10.4091 80.5226 9.56892 79.6825 8.5325 79.6825C7.49607 79.6825 6.65582 80.5226 6.65582 81.5591C6.65582 82.5955 7.49607 83.4357 8.5325 83.4357C9.56892 83.4357 10.4091 82.5955 10.4091 81.5591Z" fill="#93949B"/>
<path d="M27.9457 81.5589C27.9457 80.6059 27.1731 79.8332 26.22 79.8332C25.267 79.8332 24.4944 80.6059 24.4944 81.5589C24.4944 82.512 25.267 83.2845 26.22 83.2845C27.1731 83.2845 27.9457 82.512 27.9457 81.5589Z" fill="#93949B"/>
<path d="M45.504 81.5588C45.504 82.4432 44.7921 83.1334 43.9293 83.1334C43.0449 83.1334 42.3547 82.4216 42.3547 81.5588C42.3547 80.696 43.0665 79.9841 43.9293 79.9841C44.7921 79.9841 45.504 80.696 45.504 81.5588Z" fill="#93949B"/>
<path d="M63.0407 81.5591C63.0407 82.3572 62.3935 83.0043 61.5954 83.0043C60.7973 83.0043 60.1503 82.3572 60.1503 81.5591C60.1503 80.761 60.7973 80.1138 61.5954 80.1138C62.4151 80.1138 63.0407 80.761 63.0407 81.5591Z" fill="#93949B"/>
<path d="M80.599 81.559C80.599 80.8442 80.0196 80.2647 79.3048 80.2647C78.59 80.2647 78.0106 80.8442 78.0106 81.559C78.0106 82.2738 78.59 82.8531 79.3048 82.8531C80.0196 82.8531 80.599 82.2738 80.599 81.559Z" fill="#93949B"/>
<path d="M98.1573 81.5589C98.1573 82.1844 97.6396 82.702 97.0141 82.702C96.3885 82.702 95.8708 82.1844 95.8708 81.5589C95.8708 80.9333 96.3885 80.4156 97.0141 80.4156C97.6396 80.4156 98.1573 80.9333 98.1573 81.5589Z" fill="#93949B"/>
<path d="M115.694 81.559C115.694 82.1198 115.241 82.5728 114.68 82.5728C114.119 82.5728 113.666 82.1198 113.666 81.559C113.666 80.9982 114.119 80.5451 114.68 80.5451C115.241 80.5451 115.694 80.9982 115.694 81.559Z" fill="#93949B"/>
<path d="M133.252 81.5589C133.252 82.0334 132.863 82.4216 132.389 82.4216C131.914 82.4216 131.526 82.0334 131.526 81.5589C131.526 81.0844 131.914 80.696 132.389 80.696C132.863 80.696 133.252 81.0844 133.252 81.5589Z" fill="#93949B"/>
<path d="M150.789 81.5589C150.789 81.1658 150.47 80.847 150.077 80.847C149.684 80.847 149.365 81.1658 149.365 81.5589C149.365 81.952 149.684 82.2706 150.077 82.2706C150.47 82.2706 150.789 81.952 150.789 81.5589Z" fill="#93949B"/>
<path d="M168.347 81.559C168.347 81.8826 168.088 82.1414 167.764 82.1414C167.441 82.1414 167.182 81.8826 167.182 81.559C167.182 81.2355 167.441 80.9766 167.764 80.9766C168.088 80.9766 168.347 81.2355 168.347 81.559Z" fill="#93949B"/>
<path d="M185.905 81.5589C185.905 81.3207 185.712 81.1275 185.474 81.1275C185.235 81.1275 185.042 81.3207 185.042 81.5589C185.042 81.7972 185.235 81.9902 185.474 81.9902C185.712 81.9902 185.905 81.7972 185.905 81.5589Z" fill="#93949B"/>
<path d="M203.442 81.5591C203.442 81.4042 203.316 81.2786 203.161 81.2786C203.006 81.2786 202.881 81.4042 202.881 81.5591C202.881 81.7139 203.006 81.8395 203.161 81.8395C203.316 81.8395 203.442 81.7139 203.442 81.5591Z" fill="#93949B"/>
<path d="M221 81.559C221 81.6452 220.935 81.71 220.849 81.71C220.763 81.71 220.698 81.6452 220.698 81.559C220.698 81.4727 220.763 81.4079 220.849 81.4079C220.935 81.4079 221 81.4727 221 81.559Z" fill="#93949B"/>
<path d="M10.4091 61.7085C10.4091 60.672 9.56892 59.8319 8.5325 59.8319C7.49607 59.8319 6.65582 60.672 6.65582 61.7085C6.65582 62.7449 7.49607 63.5852 8.5325 63.5852C9.56892 63.5852 10.4091 62.7449 10.4091 61.7085Z" fill="#93949B"/>
<path d="M27.9457 61.7084C27.9457 60.7553 27.1731 59.9828 26.22 59.9828C25.267 59.9828 24.4944 60.7553 24.4944 61.7084C24.4944 62.6614 25.267 63.4341 26.22 63.4341C27.1731 63.4341 27.9457 62.6614 27.9457 61.7084Z" fill="#93949B"/>
<path d="M45.504 61.7085C45.504 62.5929 44.7921 63.2832 43.9293 63.2832C43.0449 63.2832 42.3547 62.5713 42.3547 61.7085C42.3547 60.8457 43.0665 60.1339 43.9293 60.1339C44.7921 60.1339 45.504 60.8457 45.504 61.7085Z" fill="#93949B"/>
<path d="M63.0407 61.7085C63.0407 62.5066 62.3935 63.1538 61.5954 63.1538C60.7973 63.1538 60.1503 62.5066 60.1503 61.7085C60.1503 60.9104 60.7973 60.2633 61.5954 60.2633C62.4151 60.2849 63.0407 60.9104 63.0407 61.7085Z" fill="#93949B"/>
<path d="M80.599 61.7084C80.599 60.9936 80.0196 60.4142 79.3048 60.4142C78.59 60.4142 78.0106 60.9936 78.0106 61.7084C78.0106 62.4232 78.59 63.0027 79.3048 63.0027C80.0196 63.0027 80.599 62.4232 80.599 61.7084Z" fill="#93949B"/>
<path d="M98.1573 61.7085C98.1573 62.3341 97.6396 62.8518 97.0141 62.8518C96.3885 62.8518 95.8708 62.3341 95.8708 61.7085C95.8708 61.083 96.3885 60.5654 97.0141 60.5654C97.6396 60.5654 98.1573 61.083 98.1573 61.7085Z" fill="#93949B"/>
<path d="M115.694 61.7085C115.694 62.2694 115.241 62.7224 114.68 62.7224C114.119 62.7224 113.666 62.2694 113.666 61.7085C113.666 61.1477 114.119 60.6948 114.68 60.6948C115.241 60.7164 115.694 61.1693 115.694 61.7085Z" fill="#93949B"/>
<path d="M133.252 61.7084C133.252 62.183 132.863 62.5713 132.389 62.5713C131.914 62.5713 131.526 62.183 131.526 61.7084C131.526 61.2339 131.914 60.8457 132.389 60.8457C132.863 60.8457 133.252 61.2339 133.252 61.7084Z" fill="#93949B"/>
<path d="M150.789 61.7086C150.789 62.0968 150.465 62.4204 150.077 62.4204C149.688 62.4204 149.365 62.0968 149.365 61.7086C149.365 61.3203 149.688 60.9968 150.077 60.9968C150.465 60.9968 150.789 61.3203 150.789 61.7086Z" fill="#93949B"/>
<path d="M168.347 61.7083C168.347 61.3867 168.086 61.126 167.764 61.126C167.443 61.126 167.182 61.3867 167.182 61.7083C167.182 62.03 167.443 62.2908 167.764 62.2908C168.086 62.2908 168.347 62.03 168.347 61.7083Z" fill="#93949B"/>
<path d="M185.905 61.7087C185.905 61.4704 185.712 61.2774 185.474 61.2774C185.235 61.2774 185.042 61.4704 185.042 61.7087C185.042 61.947 185.235 62.1401 185.474 62.1401C185.712 62.1401 185.905 61.947 185.905 61.7087Z" fill="#93949B"/>
<path d="M203.442 61.7086C203.442 61.5537 203.316 61.4283 203.161 61.4283C203.006 61.4283 202.881 61.5537 202.881 61.7086C202.881 61.8635 203.006 61.989 203.161 61.989C203.316 61.989 203.442 61.8635 203.442 61.7086Z" fill="#93949B"/>
<path d="M221 61.7084C221 61.7946 220.935 61.8594 220.849 61.8594C220.763 61.8594 220.698 61.7946 220.698 61.7084C220.698 61.6221 220.763 61.5575 220.849 61.5575C220.935 61.5791 221 61.6437 221 61.7084Z" fill="#93949B"/>
<path d="M10.4091 41.8578C10.4091 42.8931 9.56787 43.7344 8.5325 43.7344C7.49712 43.7344 6.65582 42.8931 6.65582 41.8578C6.65582 40.8224 7.49712 39.9812 8.5325 39.9812C9.56787 39.9812 10.4091 40.8224 10.4091 41.8578Z" fill="#93949B"/>
<path d="M27.9457 41.8579C27.9457 42.807 27.1691 43.5835 26.22 43.5835C25.271 43.5835 24.4944 42.807 24.4944 41.8579C24.4944 40.9088 25.271 40.1323 26.22 40.1323C27.1691 40.1323 27.9457 40.8872 27.9457 41.8579Z" fill="#93949B"/>
<path d="M45.504 41.8578C45.504 42.7206 44.7921 43.4324 43.9293 43.4324C43.0449 43.4324 42.3547 42.7206 42.3547 41.8578C42.3547 40.9734 43.0665 40.2832 43.9293 40.2832C44.7921 40.2616 45.504 40.9734 45.504 41.8578Z" fill="#93949B"/>
<path d="M63.0407 41.858C63.0407 42.6562 62.3935 43.3032 61.5954 43.3032C60.7973 43.3032 60.1503 42.6562 60.1503 41.858C60.1503 41.0599 60.7973 40.4129 61.5954 40.4129C62.4151 40.4129 63.0407 41.0599 63.0407 41.858Z" fill="#93949B"/>
<path d="M80.599 41.8578C80.599 42.5696 80.0166 43.1521 79.3048 43.1521C78.593 43.1521 78.0106 42.5696 78.0106 41.8578C78.0106 41.146 78.593 40.5636 79.3048 40.5636C80.0166 40.5636 80.599 41.1244 80.599 41.8578Z" fill="#93949B"/>
<path d="M98.1573 41.8579C98.1573 42.4835 97.6396 43.0012 97.0141 43.0012C96.3885 43.0012 95.8708 42.4835 95.8708 41.8579C95.8708 41.2324 96.3885 40.7148 97.0141 40.7148C97.6396 40.6932 98.1573 41.2108 98.1573 41.8579Z" fill="#93949B"/>
<path d="M115.694 41.8577C115.694 42.4185 115.241 42.8716 114.68 42.8716C114.119 42.8716 113.666 42.4185 113.666 41.8577C113.666 41.2969 114.119 40.844 114.68 40.844C115.241 40.844 115.694 41.2969 115.694 41.8577Z" fill="#93949B"/>
<path d="M133.252 41.8581C133.252 42.3326 132.863 42.7209 132.389 42.7209C131.914 42.7209 131.526 42.3326 131.526 41.8581C131.526 41.3835 131.914 40.9953 132.389 40.9953C132.863 40.9953 133.252 41.362 133.252 41.8581Z" fill="#93949B"/>
<path d="M150.789 41.858C150.789 42.2462 150.465 42.5698 150.077 42.5698C149.688 42.5698 149.365 42.2462 149.365 41.858C149.365 41.4697 149.688 41.1461 150.077 41.1461C150.465 41.1245 150.789 41.4481 150.789 41.858Z" fill="#93949B"/>
<path d="M168.347 41.8577C168.347 42.1813 168.088 42.4402 167.764 42.4402C167.441 42.4402 167.182 42.1813 167.182 41.8577C167.182 41.5342 167.441 41.2753 167.764 41.2753C168.088 41.2753 168.347 41.5342 168.347 41.8577Z" fill="#93949B"/>
<path d="M185.905 41.8581C185.905 42.0954 185.711 42.2896 185.474 42.2896C185.236 42.2896 185.042 42.0954 185.042 41.8581C185.042 41.6208 185.236 41.4267 185.474 41.4267C185.711 41.4267 185.905 41.6208 185.905 41.8581Z" fill="#93949B"/>
<path d="M203.442 41.8578C203.442 42.0088 203.312 42.1382 203.161 42.1382C203.01 42.1382 202.881 42.0088 202.881 41.8578C202.881 41.7068 203.01 41.5773 203.161 41.5773C203.312 41.5558 203.442 41.6852 203.442 41.8578Z" fill="#93949B"/>
<path d="M221 41.8578C221 41.9441 220.935 42.0088 220.849 42.0088C220.763 42.0088 220.698 41.9441 220.698 41.8578C220.698 41.7715 220.763 41.7068 220.849 41.7068C220.935 41.7068 221 41.7715 221 41.8578Z" fill="#93949B"/>
<path d="M10.4091 22.0077C10.4091 23.043 9.56787 23.8843 8.5325 23.8843C7.49712 23.8843 6.65582 23.043 6.65582 22.0077C6.65582 20.9723 7.49712 20.1311 8.5325 20.1311C9.56787 20.1311 10.4091 20.9723 10.4091 22.0077Z" fill="#93949B"/>
<path d="M27.9457 22.0076C27.9457 22.9566 27.1691 23.7332 26.22 23.7332C25.271 23.7332 24.4944 22.9566 24.4944 22.0076C24.4944 21.0585 25.271 20.282 26.22 20.282C27.1691 20.282 27.9457 21.0585 27.9457 22.0076Z" fill="#93949B"/>
<path d="M45.504 22.0074C45.504 22.8703 44.7921 23.582 43.9293 23.582C43.0449 23.582 42.3547 22.8703 42.3547 22.0074C42.3547 21.1231 43.0665 20.4328 43.9293 20.4328C44.7921 20.4113 45.504 21.1231 45.504 22.0074Z" fill="#93949B"/>
<path d="M63.0407 22.0075C63.0407 22.8056 62.3935 23.4526 61.5954 23.4526C60.7973 23.4526 60.1503 22.8056 60.1503 22.0075C60.1503 21.2094 60.7973 20.5623 61.5954 20.5623C62.4151 20.5623 63.0407 21.2094 63.0407 22.0075Z" fill="#93949B"/>
<path d="M80.599 22.0076C80.599 22.7194 80.0166 23.3018 79.3048 23.3018C78.593 23.3018 78.0106 22.7194 78.0106 22.0076C78.0106 21.2958 78.593 20.7134 79.3048 20.7134C80.0166 20.7134 80.599 21.2958 80.599 22.0076Z" fill="#93949B"/>
<path d="M98.1573 22.0076C98.1573 22.6331 97.6396 23.1509 97.0141 23.1509C96.3885 23.1509 95.8708 22.6331 95.8708 22.0076C95.8708 21.382 96.3885 20.8643 97.0141 20.8643C97.6396 20.8427 98.1573 21.3605 98.1573 22.0076Z" fill="#93949B"/>
<path d="M115.694 22.0075C115.694 22.5683 115.241 23.0212 114.68 23.0212C114.119 23.0212 113.666 22.5683 113.666 22.0075C113.666 21.4467 114.119 20.9938 114.68 20.9938C115.241 20.9938 115.694 21.4467 115.694 22.0075Z" fill="#93949B"/>
<path d="M133.252 22.0077C133.252 22.4823 132.863 22.8706 132.389 22.8706C131.914 22.8706 131.526 22.4823 131.526 22.0077C131.526 21.5332 131.914 21.1449 132.389 21.1449C132.863 21.1449 133.252 21.5332 133.252 22.0077Z" fill="#93949B"/>
<path d="M150.789 22.0076C150.789 22.3959 150.465 22.7195 150.077 22.7195C149.688 22.7195 149.365 22.3959 149.365 22.0076C149.365 21.6194 149.688 21.2958 150.077 21.2958C150.465 21.2742 150.789 21.5978 150.789 22.0076Z" fill="#93949B"/>
<path d="M168.347 22.0074C168.347 22.331 168.088 22.5898 167.764 22.5898C167.441 22.5898 167.182 22.331 167.182 22.0074C167.182 21.6838 167.441 21.425 167.764 21.425C168.088 21.425 168.347 21.6838 168.347 22.0074Z" fill="#93949B"/>
<path d="M185.905 22.0078C185.905 22.245 185.711 22.4392 185.474 22.4392C185.236 22.4392 185.042 22.245 185.042 22.0078C185.042 21.7705 185.236 21.5763 185.474 21.5763C185.711 21.5763 185.905 21.7705 185.905 22.0078Z" fill="#93949B"/>
<path d="M203.442 22.0077C203.442 22.1587 203.312 22.2881 203.161 22.2881C203.01 22.2881 202.881 22.1587 202.881 22.0077C202.881 21.8567 203.01 21.7272 203.161 21.7272C203.312 21.7057 203.442 21.8351 203.442 22.0077Z" fill="#93949B"/>
<path d="M221 22.0077C221 22.094 220.935 22.1587 220.849 22.1587C220.763 22.1587 220.698 22.094 220.698 22.0077C220.698 21.9214 220.763 21.8567 220.849 21.8567C220.935 21.8567 221 21.9214 221 22.0077Z" fill="#93949B"/>
<path d="M10.4091 2.15708C10.4091 3.19246 9.56787 4.03369 8.5325 4.03369C7.49712 4.03369 6.65582 3.19246 6.65582 2.15708C6.65582 1.12171 7.49712 0.280478 8.5325 0.280478C9.56787 0.280478 10.4091 1.12171 10.4091 2.15708Z" fill="#93949B"/>
<path d="M27.9457 2.15697C27.9457 1.20393 27.1731 0.43137 26.22 0.43137C25.267 0.43137 24.4944 1.20393 24.4944 2.15697C24.4944 3.11001 25.267 3.88257 26.22 3.88257C27.1731 3.88257 27.9457 3.11001 27.9457 2.15697Z" fill="#93949B"/>
<path d="M45.504 2.15685C45.504 3.04124 44.7921 3.73145 43.9293 3.73145C43.0449 3.73145 42.3547 3.01967 42.3547 2.15685C42.3547 1.29404 43.0665 0.582264 43.9293 0.582264C44.7921 0.582264 45.504 1.29404 45.504 2.15685Z" fill="#93949B"/>
<path d="M63.0407 2.15712C63.0407 2.95522 62.3935 3.60229 61.5954 3.60229C60.7973 3.60229 60.1503 2.95522 60.1503 2.15712C60.1503 1.35902 60.7973 0.711946 61.5954 0.711946C62.4151 0.711946 63.0407 1.35902 63.0407 2.15712Z" fill="#93949B"/>
<path d="M80.599 2.15701C80.599 2.86883 80.0166 3.45117 79.3048 3.45117C78.593 3.45117 78.0106 2.86883 78.0106 2.15701C78.0106 1.44519 78.593 0.862708 79.3048 0.862708C80.0166 0.862708 80.599 1.44519 80.599 2.15701Z" fill="#93949B"/>
<path d="M98.1573 2.15689C98.1573 2.78243 97.6396 3.30005 97.0141 3.30005C96.3885 3.30005 95.8708 2.78243 95.8708 2.15689C95.8708 1.53135 96.3885 1.0136 97.0141 1.0136C97.6396 1.0136 98.1573 1.53135 98.1573 2.15689Z" fill="#93949B"/>
<path d="M115.694 2.15716C115.694 2.71798 115.241 3.1709 114.68 3.1709C114.119 3.1709 113.666 2.71798 113.666 2.15716C113.666 1.59633 114.119 1.14328 114.68 1.14328C115.241 1.14328 115.694 1.59633 115.694 2.15716Z" fill="#93949B"/>
<path d="M133.252 2.15704C133.252 2.63159 132.863 3.01978 132.389 3.01978C131.914 3.01978 131.526 2.63159 131.526 2.15704C131.526 1.68249 131.914 1.29418 132.389 1.29418C132.863 1.29418 133.252 1.68249 133.252 2.15704Z" fill="#93949B"/>
<path d="M150.789 2.15704C150.789 2.5453 150.465 2.8689 150.077 2.8689C149.688 2.8689 149.365 2.5453 149.365 2.15704C149.365 1.76877 149.688 1.44518 150.077 1.44518C150.465 1.44518 150.789 1.76877 150.789 2.15704Z" fill="#93949B"/>
<path d="M168.347 2.15706C168.347 2.48062 168.088 2.7395 167.764 2.7395C167.441 2.7395 167.182 2.48062 167.182 2.15706C167.182 1.83351 167.441 1.57462 167.764 1.57462C168.088 1.57462 168.347 1.83351 168.347 2.15706Z" fill="#93949B"/>
<path d="M185.905 2.15695C185.905 1.91869 185.712 1.72551 185.474 1.72551C185.235 1.72551 185.042 1.91869 185.042 2.15695C185.042 2.39521 185.235 2.58838 185.474 2.58838C185.712 2.58838 185.905 2.39521 185.905 2.15695Z" fill="#93949B"/>
<path d="M203.442 2.15708C203.442 2.30807 203.312 2.4375 203.161 2.4375C203.01 2.4375 202.881 2.30807 202.881 2.15708C202.881 2.00608 203.01 1.87665 203.161 1.87665C203.312 1.87665 203.442 2.00608 203.442 2.15708Z" fill="#93949B"/>
<path d="M221 2.15685C221 2.24313 220.935 2.30786 220.849 2.30786C220.763 2.30786 220.698 2.24313 220.698 2.15685C220.698 2.07057 220.763 2.00585 220.849 2.00585C220.935 2.00585 221 2.07057 221 2.15685Z" fill="#93949B"/>
</svg>
