<svg width="383" height="396" viewBox="0 0 383 396" fill="none" xmlns="http://www.w3.org/2000/svg">
<path d="M6.60123 393.501C6.60123 392.12 5.1235 391.001 3.30062 391.001C1.47774 391.001 0 392.12 0 393.501C0 394.881 1.47774 396 3.30062 396C5.1235 396 6.60123 394.881 6.60123 393.501Z" fill="#CFD3DF"/>
<path d="M33.4352 393.501C33.4352 394.8 32.049 395.825 30.3657 395.825C28.6494 395.825 27.2961 394.775 27.2961 393.501C27.2961 392.201 28.6824 391.176 30.3657 391.176C32.049 391.151 33.4352 392.201 33.4352 393.501Z" fill="#CFD3DF"/>
<path d="M60.3025 393.501C60.3025 394.7 59.0152 395.675 57.4309 395.675C55.8467 395.675 54.5593 394.7 54.5593 393.501C54.5593 392.301 55.8467 391.326 57.4309 391.326C59.0152 391.326 60.3025 392.301 60.3025 393.501Z" fill="#CFD3DF"/>
<path d="M87.1362 393.501C87.1362 394.6 85.9479 395.5 84.4957 395.5C83.0434 395.5 81.8552 394.6 81.8552 393.501C81.8552 392.401 83.0434 391.501 84.4957 391.501C85.9479 391.501 87.1362 392.401 87.1362 393.501Z" fill="#CFD3DF"/>
<path d="M114.004 393.501C114.004 394.5 112.914 395.325 111.594 395.325C110.241 395.325 109.185 394.5 109.185 393.501C109.185 392.476 110.274 391.676 111.594 391.676C112.914 391.651 114.004 392.476 114.004 393.501Z" fill="#CFD3DF"/>
<path d="M140.838 393.501C140.838 394.426 139.847 395.175 138.626 395.175C137.405 395.175 136.415 394.426 136.415 393.501C136.415 392.576 137.405 391.826 138.626 391.826C139.88 391.826 140.838 392.576 140.838 393.501Z" fill="#CFD3DF"/>
<path d="M167.705 393.501C167.705 394.325 166.813 395 165.724 395C164.635 395 163.744 394.325 163.744 393.501C163.744 392.676 164.635 392.001 165.724 392.001C166.813 392.001 167.705 392.676 167.705 393.501Z" fill="#CFD3DF"/>
<path d="M194.572 393.501C194.572 394.226 193.779 394.825 192.822 394.825C191.865 394.825 191.073 394.226 191.073 393.501C191.073 392.776 191.865 392.176 192.822 392.176C193.779 392.151 194.572 392.751 194.572 393.501Z" fill="#CFD3DF"/>
<path d="M221.406 393.501C221.406 394.151 220.713 394.676 219.855 394.676C218.997 394.676 218.303 394.151 218.303 393.501C218.303 392.851 218.997 392.326 219.855 392.326C220.713 392.326 221.406 392.851 221.406 393.501Z" fill="#CFD3DF"/>
<path d="M248.272 393.501C248.272 394.051 247.678 394.5 246.952 394.5C246.226 394.5 245.632 394.051 245.632 393.501C245.632 392.951 246.226 392.501 246.952 392.501C247.678 392.501 248.272 392.951 248.272 393.501Z" fill="#CFD3DF"/>
<path d="M275.106 393.501C275.106 393.951 274.611 394.325 274.017 394.325C273.423 394.325 272.928 393.951 272.928 393.501C272.928 393.051 273.423 392.676 274.017 392.676C274.611 392.651 275.106 393.026 275.106 393.501Z" fill="#CFD3DF"/>
<path d="M301.974 393.501C301.974 393.876 301.577 394.176 301.082 394.176C300.587 394.176 300.191 393.876 300.191 393.501C300.191 393.126 300.587 392.826 301.082 392.826C301.577 392.826 301.974 393.126 301.974 393.501Z" fill="#CFD3DF"/>
<path d="M328.84 393.501C328.84 393.776 328.543 394.001 328.18 394.001C327.817 394.001 327.52 393.776 327.52 393.501C327.52 393.226 327.817 393.001 328.18 393.001C328.543 393.001 328.84 393.226 328.84 393.501Z" fill="#CFD3DF"/>
<path d="M355.674 393.501C355.674 393.676 355.476 393.826 355.245 393.826C355.014 393.826 354.816 393.676 354.816 393.501C354.816 393.326 355.014 393.176 355.245 393.176C355.476 393.151 355.674 393.301 355.674 393.501Z" fill="#CFD3DF"/>
<path d="M382.541 393.501C382.541 393.601 382.442 393.676 382.31 393.676C382.178 393.676 382.079 393.601 382.079 393.501C382.079 393.401 382.178 393.326 382.31 393.326C382.442 393.326 382.541 393.401 382.541 393.501Z" fill="#CFD3DF"/>
<path d="M6.60123 370.501C6.60123 369.12 5.1235 368.001 3.30062 368.001C1.47774 368.001 0 369.12 0 370.501C0 371.881 1.47774 373 3.30062 373C5.1235 373 6.60123 371.881 6.60123 370.501Z" fill="#CFD3DF"/>
<path d="M33.4352 370.501C33.4352 371.8 32.049 372.825 30.3657 372.825C28.6494 372.825 27.2961 371.775 27.2961 370.501C27.2961 369.201 28.6824 368.176 30.3657 368.176C32.049 368.176 33.4352 369.201 33.4352 370.501Z" fill="#CFD3DF"/>
<path d="M60.3025 370.501C60.3025 371.7 59.0152 372.675 57.4309 372.675C55.8467 372.675 54.5593 371.7 54.5593 370.501C54.5593 369.301 55.8467 368.326 57.4309 368.326C59.0152 368.326 60.3025 369.301 60.3025 370.501Z" fill="#CFD3DF"/>
<path d="M87.1362 370.501C87.1362 369.396 85.954 368.501 84.4957 368.501C83.0374 368.501 81.8552 369.396 81.8552 370.501C81.8552 371.605 83.0374 372.5 84.4957 372.5C85.954 372.5 87.1362 371.605 87.1362 370.501Z" fill="#CFD3DF"/>
<path d="M114.004 370.501C114.004 371.5 112.914 372.325 111.594 372.325C110.241 372.325 109.185 371.5 109.185 370.501C109.185 369.476 110.274 368.676 111.594 368.676C112.914 368.676 114.004 369.501 114.004 370.501Z" fill="#CFD3DF"/>
<path d="M140.838 370.501C140.838 371.425 139.847 372.175 138.626 372.175C137.405 372.175 136.415 371.425 136.415 370.501C136.415 369.576 137.405 368.826 138.626 368.826C139.88 368.826 140.838 369.576 140.838 370.501Z" fill="#CFD3DF"/>
<path d="M167.705 370.501C167.705 369.673 166.818 369.001 165.724 369.001C164.631 369.001 163.744 369.673 163.744 370.501C163.744 371.329 164.631 372 165.724 372C166.818 372 167.705 371.329 167.705 370.501Z" fill="#CFD3DF"/>
<path d="M194.572 370.501C194.572 371.225 193.779 371.825 192.822 371.825C191.865 371.825 191.073 371.225 191.073 370.501C191.073 369.776 191.865 369.176 192.822 369.176C193.779 369.176 194.572 369.776 194.572 370.501Z" fill="#CFD3DF"/>
<path d="M221.406 370.501C221.406 371.15 220.713 371.675 219.855 371.675C218.997 371.675 218.303 371.15 218.303 370.501C218.303 369.851 218.997 369.326 219.855 369.326C220.713 369.326 221.406 369.851 221.406 370.501Z" fill="#CFD3DF"/>
<path d="M248.272 370.501C248.272 371.051 247.678 371.5 246.952 371.5C246.226 371.5 245.632 371.051 245.632 370.501C245.632 369.951 246.226 369.501 246.952 369.501C247.678 369.501 248.272 369.951 248.272 370.501Z" fill="#CFD3DF"/>
<path d="M275.106 370.501C275.106 370.951 274.611 371.325 274.017 371.325C273.423 371.325 272.928 370.951 272.928 370.501C272.928 370.051 273.423 369.676 274.017 369.676C274.611 369.676 275.106 370.051 275.106 370.501Z" fill="#CFD3DF"/>
<path d="M301.974 370.501C301.974 370.876 301.577 371.176 301.082 371.176C300.587 371.176 300.191 370.876 300.191 370.501C300.191 370.126 300.587 369.826 301.082 369.826C301.577 369.826 301.974 370.126 301.974 370.501Z" fill="#CFD3DF"/>
<path d="M328.84 370.501C328.84 370.225 328.545 370.001 328.18 370.001C327.816 370.001 327.52 370.225 327.52 370.501C327.52 370.777 327.816 371 328.18 371C328.545 371 328.84 370.777 328.84 370.501Z" fill="#CFD3DF"/>
<path d="M355.674 370.501C355.674 370.676 355.476 370.826 355.245 370.826C355.014 370.826 354.816 370.676 354.816 370.501C354.816 370.326 355.014 370.176 355.245 370.176C355.476 370.176 355.674 370.326 355.674 370.501Z" fill="#CFD3DF"/>
<path d="M382.541 370.501C382.541 370.601 382.442 370.676 382.31 370.676C382.178 370.676 382.079 370.601 382.079 370.501C382.079 370.401 382.178 370.326 382.31 370.326C382.442 370.326 382.541 370.401 382.541 370.501Z" fill="#CFD3DF"/>
<path d="M6.60123 347.5C6.60123 346.12 5.1235 345.001 3.30062 345.001C1.47774 345.001 0 346.12 0 347.5C0 348.881 1.47774 350 3.30062 350C5.1235 350 6.60123 348.881 6.60123 347.5Z" fill="#CFD3DF"/>
<path d="M33.4352 347.501C33.4352 348.8 32.049 349.825 30.3657 349.825C28.6494 349.825 27.2961 348.775 27.2961 347.501C27.2961 346.226 28.6824 345.176 30.3657 345.176C32.049 345.176 33.4352 346.226 33.4352 347.501Z" fill="#CFD3DF"/>
<path d="M60.3025 347.5C60.3025 348.7 59.0152 349.675 57.4309 349.675C55.8467 349.675 54.5593 348.7 54.5593 347.5C54.5593 346.301 55.8467 345.326 57.4309 345.326C59.0152 345.351 60.3025 346.301 60.3025 347.5Z" fill="#CFD3DF"/>
<path d="M87.1362 347.501C87.1362 346.396 85.954 345.501 84.4957 345.501C83.0374 345.501 81.8552 346.396 81.8552 347.501C81.8552 348.605 83.0374 349.5 84.4957 349.5C85.954 349.5 87.1362 348.605 87.1362 347.501Z" fill="#CFD3DF"/>
<path d="M114.004 347.501C114.004 348.525 112.914 349.325 111.594 349.325C110.241 349.325 109.185 348.5 109.185 347.501C109.185 346.501 110.274 345.676 111.594 345.676C112.914 345.676 114.004 346.501 114.004 347.501Z" fill="#CFD3DF"/>
<path d="M140.838 347.501C140.838 348.425 139.847 349.175 138.626 349.175C137.405 349.175 136.415 348.425 136.415 347.501C136.415 346.576 137.405 345.826 138.626 345.826C139.88 345.851 140.838 346.576 140.838 347.501Z" fill="#CFD3DF"/>
<path d="M167.705 347.5C167.705 346.672 166.818 346.001 165.724 346.001C164.631 346.001 163.744 346.672 163.744 347.5C163.744 348.329 164.631 349 165.724 349C166.818 349 167.705 348.329 167.705 347.5Z" fill="#CFD3DF"/>
<path d="M194.572 347.501C194.572 348.225 193.779 348.825 192.822 348.825C191.865 348.825 191.073 348.225 191.073 347.501C191.073 346.776 191.865 346.176 192.822 346.176C193.779 346.176 194.572 346.776 194.572 347.501Z" fill="#CFD3DF"/>
<path d="M221.406 347.5C221.406 348.15 220.713 348.675 219.855 348.675C218.997 348.675 218.303 348.15 218.303 347.5C218.303 346.851 218.997 346.326 219.855 346.326C220.713 346.351 221.406 346.851 221.406 347.5Z" fill="#CFD3DF"/>
<path d="M248.272 347.501C248.272 348.05 247.678 348.5 246.952 348.5C246.226 348.5 245.632 348.05 245.632 347.501C245.632 346.951 246.226 346.501 246.952 346.501C247.678 346.501 248.272 346.951 248.272 347.501Z" fill="#CFD3DF"/>
<path d="M275.106 347.501C275.106 347.951 274.611 348.325 274.017 348.325C273.423 348.325 272.928 347.951 272.928 347.501C272.928 347.051 273.423 346.676 274.017 346.676C274.611 346.676 275.106 347.051 275.106 347.501Z" fill="#CFD3DF"/>
<path d="M301.974 347.5C301.974 347.875 301.577 348.175 301.082 348.175C300.587 348.175 300.191 347.875 300.191 347.5C300.191 347.126 300.587 346.826 301.082 346.826C301.577 346.851 301.974 347.151 301.974 347.5Z" fill="#CFD3DF"/>
<path d="M328.84 347.501C328.84 347.225 328.545 347.001 328.18 347.001C327.816 347.001 327.52 347.225 327.52 347.501C327.52 347.777 327.816 348 328.18 348C328.545 348 328.84 347.777 328.84 347.501Z" fill="#CFD3DF"/>
<path d="M355.674 347.501C355.674 347.675 355.476 347.825 355.245 347.825C355.014 347.825 354.816 347.675 354.816 347.501C354.816 347.326 355.014 347.176 355.245 347.176C355.476 347.176 355.674 347.326 355.674 347.501Z" fill="#CFD3DF"/>
<path d="M382.541 347.501C382.541 347.601 382.442 347.676 382.31 347.676C382.178 347.676 382.079 347.601 382.079 347.501C382.079 347.401 382.178 347.326 382.31 347.326C382.442 347.351 382.541 347.426 382.541 347.501Z" fill="#CFD3DF"/>
<path d="M6.60123 324.5C6.60123 323.12 5.1235 322.001 3.30062 322.001C1.47774 322.001 0 323.12 0 324.5C0 325.881 1.47774 327 3.30062 327C5.1235 327 6.60123 325.881 6.60123 324.5Z" fill="#CFD3DF"/>
<path d="M33.4352 324.5C33.4352 325.8 32.049 326.825 30.3657 326.825C28.6494 326.825 27.2961 325.775 27.2961 324.5C27.2961 323.226 28.6824 322.176 30.3657 322.176C32.049 322.151 33.4352 323.201 33.4352 324.5Z" fill="#CFD3DF"/>
<path d="M60.3025 324.5C60.3025 325.7 59.0152 326.675 57.4309 326.675C55.8467 326.675 54.5593 325.7 54.5593 324.5C54.5593 323.301 55.8467 322.326 57.4309 322.326C59.0152 322.326 60.3025 323.301 60.3025 324.5Z" fill="#CFD3DF"/>
<path d="M87.1362 324.501C87.1362 323.396 85.954 322.501 84.4957 322.501C83.0374 322.501 81.8552 323.396 81.8552 324.501C81.8552 325.605 83.0374 326.5 84.4957 326.5C85.954 326.5 87.1362 325.605 87.1362 324.501Z" fill="#CFD3DF"/>
<path d="M114.004 324.501C114.004 325.525 112.914 326.325 111.594 326.325C110.241 326.325 109.185 325.5 109.185 324.501C109.185 323.501 110.274 322.676 111.594 322.676C112.914 322.651 114.004 323.476 114.004 324.501Z" fill="#CFD3DF"/>
<path d="M140.838 324.501C140.838 325.425 139.847 326.175 138.626 326.175C137.405 326.175 136.415 325.425 136.415 324.501C136.415 323.576 137.405 322.826 138.626 322.826C139.88 322.826 140.838 323.576 140.838 324.501Z" fill="#CFD3DF"/>
<path d="M167.705 324.5C167.705 323.672 166.818 323.001 165.724 323.001C164.631 323.001 163.744 323.672 163.744 324.5C163.744 325.329 164.631 326 165.724 326C166.818 326 167.705 325.329 167.705 324.5Z" fill="#CFD3DF"/>
<path d="M194.572 324.5C194.572 325.225 193.779 325.825 192.822 325.825C191.865 325.825 191.073 325.225 191.073 324.5C191.073 323.776 191.865 323.176 192.822 323.176C193.779 323.151 194.572 323.751 194.572 324.5Z" fill="#CFD3DF"/>
<path d="M221.406 324.5C221.406 325.15 220.713 325.675 219.855 325.675C218.997 325.675 218.303 325.15 218.303 324.5C218.303 323.851 218.997 323.326 219.855 323.326C220.713 323.326 221.406 323.851 221.406 324.5Z" fill="#CFD3DF"/>
<path d="M248.272 324.501C248.272 325.05 247.678 325.5 246.952 325.5C246.226 325.5 245.632 325.05 245.632 324.501C245.632 323.951 246.226 323.501 246.952 323.501C247.678 323.501 248.272 323.926 248.272 324.501Z" fill="#CFD3DF"/>
<path d="M275.106 324.501C275.106 324.95 274.611 325.325 274.017 325.325C273.423 325.325 272.928 324.95 272.928 324.501C272.928 324.051 273.423 323.676 274.017 323.676C274.611 323.651 275.106 324.026 275.106 324.501Z" fill="#CFD3DF"/>
<path d="M301.974 324.5C301.974 324.128 301.574 323.825 301.082 323.825C300.59 323.825 300.191 324.128 300.191 324.5C300.191 324.873 300.59 325.175 301.082 325.175C301.574 325.175 301.974 324.873 301.974 324.5Z" fill="#CFD3DF"/>
<path d="M328.84 324.501C328.84 324.224 328.545 324.001 328.18 324.001C327.816 324.001 327.52 324.224 327.52 324.501C327.52 324.777 327.816 325 328.18 325C328.545 325 328.84 324.777 328.84 324.501Z" fill="#CFD3DF"/>
<path d="M355.674 324.5C355.674 324.675 355.476 324.825 355.245 324.825C355.014 324.825 354.816 324.675 354.816 324.5C354.816 324.325 355.014 324.176 355.245 324.176C355.476 324.151 355.674 324.3 355.674 324.5Z" fill="#CFD3DF"/>
<path d="M382.541 324.5C382.541 324.6 382.442 324.675 382.31 324.675C382.178 324.675 382.079 324.6 382.079 324.5C382.079 324.401 382.178 324.326 382.31 324.326C382.442 324.326 382.541 324.401 382.541 324.5Z" fill="#CFD3DF"/>
<path d="M6.60123 301.5C6.60123 300.12 5.1235 299.001 3.30062 299.001C1.47774 299.001 0 300.12 0 301.5C0 302.881 1.47774 304 3.30062 304C5.1235 304 6.60123 302.881 6.60123 301.5Z" fill="#CFD3DF"/>
<path d="M33.4352 301.5C33.4352 302.8 32.049 303.825 30.3657 303.825C28.6494 303.825 27.2961 302.775 27.2961 301.5C27.2961 300.201 28.6824 299.176 30.3657 299.176C32.049 299.151 33.4352 300.201 33.4352 301.5Z" fill="#CFD3DF"/>
<path d="M60.3025 301.5C60.3025 302.7 59.0152 303.675 57.4309 303.675C55.8467 303.675 54.5593 302.7 54.5593 301.5C54.5593 300.301 55.8467 299.326 57.4309 299.326C59.0152 299.326 60.3025 300.301 60.3025 301.5Z" fill="#CFD3DF"/>
<path d="M87.1362 301.5C87.1362 302.6 85.9479 303.5 84.4957 303.5C83.0434 303.5 81.8552 302.6 81.8552 301.5C81.8552 300.401 83.0434 299.501 84.4957 299.501C85.9479 299.501 87.1362 300.401 87.1362 301.5Z" fill="#CFD3DF"/>
<path d="M114.004 301.5C114.004 302.5 112.914 303.325 111.594 303.325C110.241 303.325 109.185 302.5 109.185 301.5C109.185 300.476 110.274 299.676 111.594 299.676C112.914 299.651 114.004 300.476 114.004 301.5Z" fill="#CFD3DF"/>
<path d="M140.838 301.5C140.838 302.425 139.847 303.175 138.626 303.175C137.405 303.175 136.415 302.425 136.415 301.5C136.415 300.576 137.405 299.826 138.626 299.826C139.88 299.826 140.838 300.576 140.838 301.5Z" fill="#CFD3DF"/>
<path d="M167.705 301.5C167.705 300.672 166.818 300.001 165.724 300.001C164.631 300.001 163.744 300.672 163.744 301.5C163.744 302.329 164.631 303 165.724 303C166.818 303 167.705 302.329 167.705 301.5Z" fill="#CFD3DF"/>
<path d="M194.572 301.501C194.572 302.225 193.779 302.825 192.822 302.825C191.865 302.825 191.073 302.225 191.073 301.501C191.073 300.776 191.865 300.176 192.822 300.176C193.779 300.151 194.572 300.751 194.572 301.501Z" fill="#CFD3DF"/>
<path d="M221.406 301.5C221.406 302.15 220.713 302.675 219.855 302.675C218.997 302.675 218.303 302.15 218.303 301.5C218.303 300.851 218.997 300.326 219.855 300.326C220.713 300.326 221.406 300.851 221.406 301.5Z" fill="#CFD3DF"/>
<path d="M248.272 301.5C248.272 302.05 247.678 302.5 246.952 302.5C246.226 302.5 245.632 302.05 245.632 301.5C245.632 300.951 246.226 300.501 246.952 300.501C247.678 300.501 248.272 300.951 248.272 301.5Z" fill="#CFD3DF"/>
<path d="M275.106 301.5C275.106 301.95 274.611 302.325 274.017 302.325C273.423 302.325 272.928 301.95 272.928 301.5C272.928 301.051 273.423 300.676 274.017 300.676C274.611 300.651 275.106 301.026 275.106 301.5Z" fill="#CFD3DF"/>
<path d="M301.974 301.5C301.974 301.875 301.577 302.175 301.082 302.175C300.587 302.175 300.191 301.875 300.191 301.5C300.191 301.126 300.587 300.826 301.082 300.826C301.577 300.826 301.974 301.126 301.974 301.5Z" fill="#CFD3DF"/>
<path d="M328.84 301.5C328.84 301.775 328.543 302 328.18 302C327.817 302 327.52 301.775 327.52 301.5C327.52 301.225 327.817 301.001 328.18 301.001C328.543 301.001 328.84 301.225 328.84 301.5Z" fill="#CFD3DF"/>
<path d="M355.674 301.501C355.674 301.675 355.476 301.825 355.245 301.825C355.014 301.825 354.816 301.675 354.816 301.501C354.816 301.326 355.014 301.176 355.245 301.176C355.476 301.151 355.674 301.301 355.674 301.501Z" fill="#CFD3DF"/>
<path d="M382.541 301.5C382.541 301.6 382.442 301.675 382.31 301.675C382.178 301.675 382.079 301.6 382.079 301.5C382.079 301.4 382.178 301.326 382.31 301.326C382.442 301.326 382.541 301.4 382.541 301.5Z" fill="#CFD3DF"/>
<path d="M6.60123 278.5C6.60123 277.12 5.1235 276.001 3.30062 276.001C1.47774 276.001 0 277.12 0 278.5C0 279.881 1.47774 281 3.30062 281C5.1235 281 6.60123 279.881 6.60123 278.5Z" fill="#CFD3DF"/>
<path d="M33.4352 278.5C33.4352 279.8 32.049 280.825 30.3657 280.825C28.6494 280.825 27.2961 279.775 27.2961 278.5C27.2961 277.201 28.6824 276.176 30.3657 276.176C32.049 276.176 33.4352 277.201 33.4352 278.5Z" fill="#CFD3DF"/>
<path d="M60.3025 278.5C60.3025 279.7 59.0152 280.675 57.4309 280.675C55.8467 280.675 54.5593 279.7 54.5593 278.5C54.5593 277.301 55.8467 276.326 57.4309 276.326C59.0152 276.326 60.3025 277.301 60.3025 278.5Z" fill="#CFD3DF"/>
<path d="M87.1362 278.5C87.1362 279.6 85.9479 280.5 84.4957 280.5C83.0434 280.5 81.8552 279.6 81.8552 278.5C81.8552 277.401 83.0434 276.501 84.4957 276.501C85.9479 276.501 87.1362 277.401 87.1362 278.5Z" fill="#CFD3DF"/>
<path d="M114.004 278.5C114.004 279.5 112.914 280.325 111.594 280.325C110.241 280.325 109.185 279.5 109.185 278.5C109.185 277.476 110.274 276.676 111.594 276.676C112.914 276.676 114.004 277.501 114.004 278.5Z" fill="#CFD3DF"/>
<path d="M140.838 278.5C140.838 279.425 139.847 280.175 138.626 280.175C137.405 280.175 136.415 279.425 136.415 278.5C136.415 277.576 137.405 276.826 138.626 276.826C139.88 276.826 140.838 277.576 140.838 278.5Z" fill="#CFD3DF"/>
<path d="M167.705 278.5C167.705 279.325 166.813 280 165.724 280C164.635 280 163.744 279.325 163.744 278.5C163.744 277.676 164.635 277.001 165.724 277.001C166.813 277.001 167.705 277.676 167.705 278.5Z" fill="#CFD3DF"/>
<path d="M194.572 278.5C194.572 279.225 193.779 279.825 192.822 279.825C191.865 279.825 191.073 279.225 191.073 278.5C191.073 277.775 191.865 277.176 192.822 277.176C193.779 277.176 194.572 277.775 194.572 278.5Z" fill="#CFD3DF"/>
<path d="M221.406 278.5C221.406 279.15 220.713 279.675 219.855 279.675C218.997 279.675 218.303 279.15 218.303 278.5C218.303 277.851 218.997 277.326 219.855 277.326C220.713 277.326 221.406 277.851 221.406 278.5Z" fill="#CFD3DF"/>
<path d="M248.272 278.5C248.272 279.05 247.678 279.5 246.952 279.5C246.226 279.5 245.632 279.05 245.632 278.5C245.632 277.95 246.226 277.501 246.952 277.501C247.678 277.501 248.272 277.95 248.272 278.5Z" fill="#CFD3DF"/>
<path d="M275.106 278.5C275.106 278.95 274.611 279.325 274.017 279.325C273.423 279.325 272.928 278.95 272.928 278.5C272.928 278.051 273.423 277.676 274.017 277.676C274.611 277.676 275.106 278.051 275.106 278.5Z" fill="#CFD3DF"/>
<path d="M301.974 278.5C301.974 278.875 301.577 279.175 301.082 279.175C300.587 279.175 300.191 278.875 300.191 278.5C300.191 278.125 300.587 277.825 301.082 277.825C301.577 277.825 301.974 278.125 301.974 278.5Z" fill="#CFD3DF"/>
<path d="M328.84 278.5C328.84 278.775 328.543 279 328.18 279C327.817 279 327.52 278.775 327.52 278.5C327.52 278.225 327.817 278 328.18 278C328.543 278 328.84 278.225 328.84 278.5Z" fill="#CFD3DF"/>
<path d="M355.674 278.5C355.674 278.675 355.476 278.825 355.245 278.825C355.014 278.825 354.816 278.675 354.816 278.5C354.816 278.325 355.014 278.175 355.245 278.175C355.476 278.175 355.674 278.325 355.674 278.5Z" fill="#CFD3DF"/>
<path d="M382.541 278.5C382.541 278.6 382.442 278.675 382.31 278.675C382.178 278.675 382.079 278.6 382.079 278.5C382.079 278.4 382.178 278.325 382.31 278.325C382.442 278.325 382.541 278.4 382.541 278.5Z" fill="#CFD3DF"/>
<path d="M6.60123 255.5C6.60123 254.12 5.1235 253.001 3.30062 253.001C1.47774 253.001 0 254.12 0 255.5C0 256.881 1.47774 258 3.30062 258C5.1235 258 6.60123 256.881 6.60123 255.5Z" fill="#CFD3DF"/>
<path d="M33.4352 255.5C33.4352 256.8 32.049 257.824 30.3657 257.824C28.6494 257.824 27.2961 256.775 27.2961 255.5C27.2961 254.201 28.6824 253.176 30.3657 253.176C32.049 253.176 33.4352 254.226 33.4352 255.5Z" fill="#CFD3DF"/>
<path d="M60.3025 255.5C60.3025 256.7 59.0152 257.675 57.4309 257.675C55.8467 257.675 54.5593 256.7 54.5593 255.5C54.5593 254.301 55.8467 253.326 57.4309 253.326C59.0152 253.351 60.3025 254.301 60.3025 255.5Z" fill="#CFD3DF"/>
<path d="M87.1362 255.5C87.1362 256.6 85.9479 257.5 84.4957 257.5C83.0434 257.5 81.8552 256.6 81.8552 255.5C81.8552 254.4 83.0434 253.501 84.4957 253.501C85.9479 253.501 87.1362 254.4 87.1362 255.5Z" fill="#CFD3DF"/>
<path d="M114.004 255.5C114.004 256.525 112.914 257.325 111.594 257.325C110.241 257.325 109.185 256.5 109.185 255.5C109.185 254.501 110.274 253.676 111.594 253.676C112.914 253.676 114.004 254.501 114.004 255.5Z" fill="#CFD3DF"/>
<path d="M140.838 255.5C140.838 256.425 139.847 257.175 138.626 257.175C137.405 257.175 136.415 256.425 136.415 255.5C136.415 254.575 137.405 253.826 138.626 253.826C139.88 253.851 140.838 254.575 140.838 255.5Z" fill="#CFD3DF"/>
<path d="M167.705 255.5C167.705 254.672 166.818 254.001 165.724 254.001C164.631 254.001 163.744 254.672 163.744 255.5C163.744 256.328 164.631 257 165.724 257C166.818 257 167.705 256.328 167.705 255.5Z" fill="#CFD3DF"/>
<path d="M194.572 255.5C194.572 256.225 193.779 256.825 192.822 256.825C191.865 256.825 191.073 256.225 191.073 255.5C191.073 254.775 191.865 254.176 192.822 254.176C193.779 254.176 194.572 254.775 194.572 255.5Z" fill="#CFD3DF"/>
<path d="M221.406 255.5C221.406 256.15 220.713 256.675 219.855 256.675C218.997 256.675 218.303 256.15 218.303 255.5C218.303 254.851 218.997 254.326 219.855 254.326C220.713 254.351 221.406 254.851 221.406 255.5Z" fill="#CFD3DF"/>
<path d="M248.272 255.5C248.272 256.05 247.678 256.5 246.952 256.5C246.226 256.5 245.632 256.05 245.632 255.5C245.632 254.95 246.226 254.5 246.952 254.5C247.678 254.5 248.272 254.95 248.272 255.5Z" fill="#CFD3DF"/>
<path d="M275.106 255.5C275.106 255.95 274.611 256.325 274.017 256.325C273.423 256.325 272.928 255.95 272.928 255.5C272.928 255.05 273.423 254.675 274.017 254.675C274.611 254.675 275.106 255.05 275.106 255.5Z" fill="#CFD3DF"/>
<path d="M301.974 255.5C301.974 255.128 301.574 254.825 301.082 254.825C300.59 254.825 300.191 255.128 300.191 255.5C300.191 255.873 300.59 256.175 301.082 256.175C301.574 256.175 301.974 255.873 301.974 255.5Z" fill="#CFD3DF"/>
<path d="M328.84 255.5C328.84 255.775 328.543 256 328.18 256C327.817 256 327.52 255.775 327.52 255.5C327.52 255.225 327.817 255 328.18 255C328.543 255 328.84 255.225 328.84 255.5Z" fill="#CFD3DF"/>
<path d="M355.674 255.5C355.674 255.675 355.476 255.825 355.245 255.825C355.014 255.825 354.816 255.675 354.816 255.5C354.816 255.325 355.014 255.175 355.245 255.175C355.476 255.175 355.674 255.325 355.674 255.5Z" fill="#CFD3DF"/>
<path d="M382.541 255.5C382.541 255.6 382.442 255.675 382.31 255.675C382.178 255.675 382.079 255.6 382.079 255.5C382.079 255.4 382.178 255.325 382.31 255.325C382.442 255.35 382.541 255.425 382.541 255.5Z" fill="#CFD3DF"/>
<path d="M6.60123 232.5C6.60123 231.12 5.1235 230.001 3.30062 230.001C1.47774 230.001 0 231.12 0 232.5C0 233.881 1.47774 235 3.30062 235C5.1235 235 6.60123 233.881 6.60123 232.5Z" fill="#CFD3DF"/>
<path d="M33.4352 232.5C33.4352 233.8 32.049 234.824 30.3657 234.824C28.6494 234.824 27.2961 233.775 27.2961 232.5C27.2961 231.201 28.6824 230.176 30.3657 230.176C32.049 230.151 33.4352 231.201 33.4352 232.5Z" fill="#CFD3DF"/>
<path d="M60.3025 232.5C60.3025 233.7 59.0152 234.675 57.4309 234.675C55.8467 234.675 54.5593 233.7 54.5593 232.5C54.5593 231.301 55.8467 230.326 57.4309 230.326C59.0152 230.326 60.3025 231.301 60.3025 232.5Z" fill="#CFD3DF"/>
<path d="M87.1362 232.5C87.1362 231.396 85.954 230.501 84.4957 230.501C83.0374 230.501 81.8552 231.396 81.8552 232.5C81.8552 233.604 83.0374 234.5 84.4957 234.5C85.954 234.5 87.1362 233.604 87.1362 232.5Z" fill="#CFD3DF"/>
<path d="M114.004 232.5C114.004 233.525 112.914 234.324 111.594 234.324C110.241 234.324 109.185 233.5 109.185 232.5C109.185 231.5 110.274 230.675 111.594 230.675C112.914 230.65 114.004 231.475 114.004 232.5Z" fill="#CFD3DF"/>
<path d="M140.838 232.5C140.838 233.425 139.847 234.175 138.626 234.175C137.405 234.175 136.415 233.425 136.415 232.5C136.415 231.575 137.405 230.825 138.626 230.825C139.88 230.825 140.838 231.575 140.838 232.5Z" fill="#CFD3DF"/>
<path d="M167.705 232.5C167.705 231.672 166.818 231 165.724 231C164.631 231 163.744 231.672 163.744 232.5C163.744 233.328 164.631 234 165.724 234C166.818 234 167.705 233.328 167.705 232.5Z" fill="#CFD3DF"/>
<path d="M194.572 232.5C194.572 233.225 193.779 233.825 192.822 233.825C191.865 233.825 191.073 233.225 191.073 232.5C191.073 231.775 191.865 231.175 192.822 231.175C193.779 231.15 194.572 231.75 194.572 232.5Z" fill="#CFD3DF"/>
<path d="M221.406 232.5C221.406 233.15 220.713 233.675 219.855 233.675C218.997 233.675 218.303 233.15 218.303 232.5C218.303 231.85 218.997 231.325 219.855 231.325C220.713 231.325 221.406 231.85 221.406 232.5Z" fill="#CFD3DF"/>
<path d="M248.272 232.5C248.272 233.05 247.678 233.5 246.952 233.5C246.226 233.5 245.632 233.05 245.632 232.5C245.632 231.95 246.226 231.5 246.952 231.5C247.678 231.5 248.272 231.925 248.272 232.5Z" fill="#CFD3DF"/>
<path d="M275.106 232.5C275.106 232.95 274.611 233.325 274.017 233.325C273.423 233.325 272.928 232.95 272.928 232.5C272.928 232.05 273.423 231.675 274.017 231.675C274.611 231.65 275.106 232.025 275.106 232.5Z" fill="#CFD3DF"/>
<path d="M301.974 232.5C301.974 232.875 301.577 233.175 301.082 233.175C300.587 233.175 300.191 232.875 300.191 232.5C300.191 232.125 300.587 231.825 301.082 231.825C301.577 231.825 301.974 232.125 301.974 232.5Z" fill="#CFD3DF"/>
<path d="M328.84 232.5C328.84 232.224 328.545 232 328.18 232C327.816 232 327.52 232.224 327.52 232.5C327.52 232.776 327.816 233 328.18 233C328.545 233 328.84 232.776 328.84 232.5Z" fill="#CFD3DF"/>
<path d="M355.674 232.5C355.674 232.675 355.476 232.825 355.245 232.825C355.014 232.825 354.816 232.675 354.816 232.5C354.816 232.325 355.014 232.175 355.245 232.175C355.476 232.15 355.674 232.3 355.674 232.5Z" fill="#CFD3DF"/>
<path d="M382.541 232.5C382.541 232.6 382.442 232.675 382.31 232.675C382.178 232.675 382.079 232.6 382.079 232.5C382.079 232.4 382.178 232.325 382.31 232.325C382.442 232.325 382.541 232.4 382.541 232.5Z" fill="#CFD3DF"/>
<path d="M6.60123 209.5C6.60123 208.12 5.1235 207.001 3.30062 207.001C1.47774 207.001 0 208.12 0 209.5C0 210.88 1.47774 211.999 3.30062 211.999C5.1235 211.999 6.60123 210.88 6.60123 209.5Z" fill="#CFD3DF"/>
<path d="M33.4352 209.5C33.4352 210.8 32.049 211.824 30.3657 211.824C28.6494 211.824 27.2961 210.775 27.2961 209.5C27.2961 208.225 28.6824 207.175 30.3657 207.175C32.049 207.15 33.4352 208.2 33.4352 209.5Z" fill="#CFD3DF"/>
<path d="M60.3025 209.5C60.3025 208.299 59.0169 207.326 57.4309 207.326C55.845 207.326 54.5593 208.299 54.5593 209.5C54.5593 210.701 55.845 211.674 57.4309 211.674C59.0169 211.674 60.3025 210.701 60.3025 209.5Z" fill="#CFD3DF"/>
<path d="M87.1362 209.5C87.1362 208.396 85.954 207.501 84.4957 207.501C83.0374 207.501 81.8552 208.396 81.8552 209.5C81.8552 210.604 83.0374 211.5 84.4957 211.5C85.954 211.5 87.1362 210.604 87.1362 209.5Z" fill="#CFD3DF"/>
<path d="M114.004 209.5C114.004 210.5 112.914 211.324 111.594 211.324C110.241 211.324 109.185 210.5 109.185 209.5C109.185 208.475 110.274 207.675 111.594 207.675C112.914 207.65 114.004 208.475 114.004 209.5Z" fill="#CFD3DF"/>
<path d="M140.838 209.5C140.838 210.425 139.847 211.175 138.626 211.175C137.405 211.175 136.415 210.425 136.415 209.5C136.415 208.575 137.405 207.825 138.626 207.825C139.88 207.825 140.838 208.575 140.838 209.5Z" fill="#CFD3DF"/>
<path d="M167.705 209.5C167.705 208.672 166.818 208 165.724 208C164.631 208 163.744 208.672 163.744 209.5C163.744 210.328 164.631 211 165.724 211C166.818 211 167.705 210.328 167.705 209.5Z" fill="#CFD3DF"/>
<path d="M194.572 209.5C194.572 210.225 193.779 210.824 192.822 210.824C191.865 210.824 191.073 210.225 191.073 209.5C191.073 208.775 191.865 208.175 192.822 208.175C193.779 208.15 194.572 208.75 194.572 209.5Z" fill="#CFD3DF"/>
<path d="M221.406 209.5C221.406 210.15 220.713 210.675 219.855 210.675C218.997 210.675 218.303 210.15 218.303 209.5C218.303 208.85 218.997 208.325 219.855 208.325C220.713 208.325 221.406 208.85 221.406 209.5Z" fill="#CFD3DF"/>
<path d="M248.272 209.5C248.272 210.05 247.678 210.5 246.952 210.5C246.226 210.5 245.632 210.05 245.632 209.5C245.632 208.95 246.226 208.5 246.952 208.5C247.678 208.5 248.272 208.95 248.272 209.5Z" fill="#CFD3DF"/>
<path d="M275.106 209.5C275.106 209.95 274.611 210.325 274.017 210.325C273.423 210.325 272.928 209.95 272.928 209.5C272.928 209.05 273.423 208.675 274.017 208.675C274.611 208.65 275.106 209.025 275.106 209.5Z" fill="#CFD3DF"/>
<path d="M301.974 209.5C301.974 209.127 301.574 208.825 301.082 208.825C300.59 208.825 300.191 209.127 300.191 209.5C300.191 209.873 300.59 210.175 301.082 210.175C301.574 210.175 301.974 209.873 301.974 209.5Z" fill="#CFD3DF"/>
<path d="M328.84 209.5C328.84 209.224 328.545 209 328.18 209C327.816 209 327.52 209.224 327.52 209.5C327.52 209.776 327.816 210 328.18 210C328.545 210 328.84 209.776 328.84 209.5Z" fill="#CFD3DF"/>
<path d="M355.674 209.5C355.674 209.321 355.482 209.175 355.245 209.175C355.008 209.175 354.816 209.321 354.816 209.5C354.816 209.679 355.008 209.825 355.245 209.825C355.482 209.825 355.674 209.679 355.674 209.5Z" fill="#CFD3DF"/>
<path d="M382.541 209.5C382.541 209.6 382.442 209.675 382.31 209.675C382.178 209.675 382.079 209.6 382.079 209.5C382.079 209.4 382.178 209.325 382.31 209.325C382.442 209.325 382.541 209.4 382.541 209.5Z" fill="#CFD3DF"/>
<path d="M6.60123 186.5C6.60123 185.12 5.1235 184.001 3.30062 184.001C1.47774 184.001 0 185.12 0 186.5C0 187.88 1.47774 188.999 3.30062 188.999C5.1235 188.999 6.60123 187.88 6.60123 186.5Z" fill="#CFD3DF"/>
<path d="M33.4352 186.5C33.4352 187.8 32.049 188.824 30.3657 188.824C28.6494 188.824 27.2961 187.775 27.2961 186.5C27.2961 185.2 28.6824 184.176 30.3657 184.176C32.049 184.176 33.4352 185.2 33.4352 186.5Z" fill="#CFD3DF"/>
<path d="M60.3025 186.5C60.3025 187.7 59.0152 188.675 57.4309 188.675C55.8467 188.675 54.5593 187.7 54.5593 186.5C54.5593 185.3 55.8467 184.326 57.4309 184.326C59.0152 184.326 60.3025 185.3 60.3025 186.5Z" fill="#CFD3DF"/>
<path d="M87.1362 186.5C87.1362 185.396 85.954 184.501 84.4957 184.501C83.0374 184.501 81.8552 185.396 81.8552 186.5C81.8552 187.604 83.0374 188.5 84.4957 188.5C85.954 188.5 87.1362 187.604 87.1362 186.5Z" fill="#CFD3DF"/>
<path d="M114.004 186.5C114.004 187.525 112.914 188.324 111.594 188.324C110.241 188.324 109.185 187.5 109.185 186.5C109.185 185.475 110.274 184.675 111.594 184.675C112.914 184.675 114.004 185.5 114.004 186.5Z" fill="#CFD3DF"/>
<path d="M140.838 186.5C140.838 187.425 139.847 188.175 138.626 188.175C137.405 188.175 136.415 187.425 136.415 186.5C136.415 185.575 137.405 184.825 138.626 184.825C139.88 184.825 140.838 185.575 140.838 186.5Z" fill="#CFD3DF"/>
<path d="M167.705 186.5C167.705 185.672 166.818 185 165.724 185C164.631 185 163.744 185.672 163.744 186.5C163.744 187.328 164.631 188 165.724 188C166.818 188 167.705 187.328 167.705 186.5Z" fill="#CFD3DF"/>
<path d="M194.572 186.5C194.572 187.225 193.779 187.825 192.822 187.825C191.865 187.825 191.073 187.225 191.073 186.5C191.073 185.775 191.865 185.175 192.822 185.175C193.779 185.175 194.572 185.775 194.572 186.5Z" fill="#CFD3DF"/>
<path d="M221.406 186.5C221.406 187.15 220.713 187.675 219.855 187.675C218.997 187.675 218.303 187.15 218.303 186.5C218.303 185.85 218.997 185.325 219.855 185.325C220.713 185.325 221.406 185.85 221.406 186.5Z" fill="#CFD3DF"/>
<path d="M248.272 186.5C248.272 187.05 247.678 187.5 246.952 187.5C246.226 187.5 245.632 187.05 245.632 186.5C245.632 185.95 246.226 185.5 246.952 185.5C247.678 185.5 248.272 185.95 248.272 186.5Z" fill="#CFD3DF"/>
<path d="M275.106 186.5C275.106 186.95 274.611 187.325 274.017 187.325C273.423 187.325 272.928 186.95 272.928 186.5C272.928 186.05 273.423 185.675 274.017 185.675C274.611 185.675 275.106 186.05 275.106 186.5Z" fill="#CFD3DF"/>
<path d="M301.974 186.5C301.974 186.875 301.577 187.175 301.082 187.175C300.587 187.175 300.191 186.875 300.191 186.5C300.191 186.125 300.587 185.825 301.082 185.825C301.577 185.825 301.974 186.125 301.974 186.5Z" fill="#CFD3DF"/>
<path d="M328.84 186.5C328.84 186.224 328.545 186 328.18 186C327.816 186 327.52 186.224 327.52 186.5C327.52 186.776 327.816 187 328.18 187C328.545 187 328.84 186.776 328.84 186.5Z" fill="#CFD3DF"/>
<path d="M355.674 186.5C355.674 186.675 355.476 186.825 355.245 186.825C355.014 186.825 354.816 186.675 354.816 186.5C354.816 186.325 355.014 186.175 355.245 186.175C355.476 186.175 355.674 186.325 355.674 186.5Z" fill="#CFD3DF"/>
<path d="M382.541 186.5C382.541 186.6 382.442 186.675 382.31 186.675C382.178 186.675 382.079 186.6 382.079 186.5C382.079 186.4 382.178 186.325 382.31 186.325C382.442 186.325 382.541 186.4 382.541 186.5Z" fill="#CFD3DF"/>
<path d="M6.60123 163.5C6.60123 162.119 5.1235 161 3.30062 161C1.47774 161 0 162.119 0 163.5C0 164.88 1.47774 165.999 3.30062 165.999C5.1235 165.999 6.60123 164.88 6.60123 163.5Z" fill="#CFD3DF"/>
<path d="M33.4352 163.5C33.4352 164.8 32.049 165.824 30.3657 165.824C28.6494 165.824 27.2961 164.775 27.2961 163.5C27.2961 162.2 28.6824 161.176 30.3657 161.176C32.049 161.176 33.4352 162.225 33.4352 163.5Z" fill="#CFD3DF"/>
<path d="M60.3025 163.5C60.3025 164.699 59.0152 165.674 57.4309 165.674C55.8467 165.674 54.5593 164.699 54.5593 163.5C54.5593 162.3 55.8467 161.325 57.4309 161.325C59.0152 161.35 60.3025 162.3 60.3025 163.5Z" fill="#CFD3DF"/>
<path d="M87.1362 163.5C87.1362 162.395 85.954 161.5 84.4957 161.5C83.0374 161.5 81.8552 162.395 81.8552 163.5C81.8552 164.604 83.0374 165.499 84.4957 165.499C85.954 165.499 87.1362 164.604 87.1362 163.5Z" fill="#CFD3DF"/>
<path d="M114.004 163.5C114.004 164.525 112.914 165.324 111.594 165.324C110.241 165.324 109.185 164.5 109.185 163.5C109.185 162.5 110.274 161.675 111.594 161.675C112.914 161.675 114.004 162.5 114.004 163.5Z" fill="#CFD3DF"/>
<path d="M140.838 163.5C140.838 164.424 139.847 165.174 138.626 165.174C137.405 165.174 136.415 164.424 136.415 163.5C136.415 162.575 137.405 161.825 138.626 161.825C139.88 161.85 140.838 162.575 140.838 163.5Z" fill="#CFD3DF"/>
<path d="M167.705 163.5C167.705 164.325 166.813 165 165.724 165C164.635 165 163.744 164.325 163.744 163.5C163.744 162.675 164.635 162 165.724 162C166.813 162 167.705 162.675 167.705 163.5Z" fill="#CFD3DF"/>
<path d="M194.572 163.5C194.572 164.225 193.779 164.824 192.822 164.824C191.865 164.824 191.073 164.225 191.073 163.5C191.073 162.775 191.865 162.175 192.822 162.175C193.779 162.175 194.572 162.775 194.572 163.5Z" fill="#CFD3DF"/>
<path d="M221.406 163.5C221.406 164.15 220.713 164.675 219.855 164.675C218.997 164.675 218.303 164.15 218.303 163.5C218.303 162.85 218.997 162.325 219.855 162.325C220.713 162.35 221.406 162.875 221.406 163.5Z" fill="#CFD3DF"/>
<path d="M248.272 163.5C248.272 164.05 247.678 164.5 246.952 164.5C246.226 164.5 245.632 164.05 245.632 163.5C245.632 162.95 246.226 162.5 246.952 162.5C247.678 162.5 248.272 162.95 248.272 163.5Z" fill="#CFD3DF"/>
<path d="M275.106 163.5C275.106 163.044 274.619 162.675 274.017 162.675C273.416 162.675 272.928 163.044 272.928 163.5C272.928 163.955 273.416 164.325 274.017 164.325C274.619 164.325 275.106 163.955 275.106 163.5Z" fill="#CFD3DF"/>
<path d="M301.974 163.5C301.974 163.875 301.577 164.175 301.082 164.175C300.587 164.175 300.191 163.875 300.191 163.5C300.191 163.125 300.587 162.825 301.082 162.825C301.577 162.85 301.974 163.15 301.974 163.5Z" fill="#CFD3DF"/>
<path d="M328.84 163.5C328.84 163.224 328.545 163 328.18 163C327.816 163 327.52 163.224 327.52 163.5C327.52 163.776 327.816 164 328.18 164C328.545 164 328.84 163.776 328.84 163.5Z" fill="#CFD3DF"/>
<path d="M355.674 163.5C355.674 163.675 355.476 163.825 355.245 163.825C355.014 163.825 354.816 163.675 354.816 163.5C354.816 163.325 355.014 163.175 355.245 163.175C355.476 163.175 355.674 163.325 355.674 163.5Z" fill="#CFD3DF"/>
<path d="M382.541 163.5C382.541 163.6 382.442 163.675 382.31 163.675C382.178 163.675 382.079 163.6 382.079 163.5C382.079 163.4 382.178 163.325 382.31 163.325C382.442 163.35 382.541 163.425 382.541 163.5Z" fill="#CFD3DF"/>
<path d="M6.60123 140.5C6.60123 139.119 5.1235 138 3.30062 138C1.47774 138 0 139.119 0 140.5C0 141.88 1.47774 142.999 3.30062 142.999C5.1235 142.999 6.60123 141.88 6.60123 140.5Z" fill="#CFD3DF"/>
<path d="M33.4352 140.5C33.4352 141.8 32.049 142.824 30.3657 142.824C28.6494 142.824 27.2961 141.775 27.2961 140.5C27.2961 139.2 28.6824 138.176 30.3657 138.176C32.049 138.151 33.4352 139.2 33.4352 140.5Z" fill="#CFD3DF"/>
<path d="M60.3025 140.5C60.3025 141.699 59.0152 142.674 57.4309 142.674C55.8467 142.674 54.5593 141.699 54.5593 140.5C54.5593 139.3 55.8467 138.325 57.4309 138.325C59.0152 138.325 60.3025 139.3 60.3025 140.5Z" fill="#CFD3DF"/>
<path d="M87.1362 140.5C87.1362 141.6 85.9479 142.499 84.4957 142.499C83.0434 142.499 81.8552 141.6 81.8552 140.5C81.8552 139.4 83.0434 138.5 84.4957 138.5C85.9479 138.5 87.1362 139.375 87.1362 140.5Z" fill="#CFD3DF"/>
<path d="M114.004 140.5C114.004 141.525 112.914 142.324 111.594 142.324C110.241 142.324 109.185 141.5 109.185 140.5C109.185 139.5 110.274 138.675 111.594 138.675C112.914 138.65 114.004 139.475 114.004 140.5Z" fill="#CFD3DF"/>
<path d="M140.838 140.5C140.838 141.425 139.847 142.174 138.626 142.174C137.405 142.174 136.415 141.425 136.415 140.5C136.415 139.575 137.405 138.825 138.626 138.825C139.88 138.825 140.838 139.575 140.838 140.5Z" fill="#CFD3DF"/>
<path d="M167.705 140.5C167.705 141.325 166.813 141.999 165.724 141.999C164.635 141.999 163.744 141.325 163.744 140.5C163.744 139.675 164.635 139 165.724 139C166.813 139 167.705 139.65 167.705 140.5Z" fill="#CFD3DF"/>
<path d="M194.572 140.5C194.572 141.224 193.779 141.824 192.822 141.824C191.865 141.824 191.073 141.224 191.073 140.5C191.073 139.775 191.865 139.175 192.822 139.175C193.779 139.15 194.572 139.75 194.572 140.5Z" fill="#CFD3DF"/>
<path d="M221.406 140.5C221.406 141.15 220.713 141.674 219.855 141.674C218.997 141.674 218.303 141.15 218.303 140.5C218.303 139.85 218.997 139.325 219.855 139.325C220.713 139.325 221.406 139.85 221.406 140.5Z" fill="#CFD3DF"/>
<path d="M248.272 140.5C248.272 141.05 247.678 141.5 246.952 141.5C246.226 141.5 245.632 141.05 245.632 140.5C245.632 139.95 246.226 139.5 246.952 139.5C247.678 139.5 248.272 139.925 248.272 140.5Z" fill="#CFD3DF"/>
<path d="M275.106 140.5C275.106 140.95 274.611 141.325 274.017 141.325C273.423 141.325 272.928 140.95 272.928 140.5C272.928 140.05 273.423 139.675 274.017 139.675C274.611 139.65 275.106 140.025 275.106 140.5Z" fill="#CFD3DF"/>
<path d="M301.974 140.5C301.974 140.875 301.577 141.175 301.082 141.175C300.587 141.175 300.191 140.875 300.191 140.5C300.191 140.125 300.587 139.825 301.082 139.825C301.577 139.825 301.974 140.125 301.974 140.5Z" fill="#CFD3DF"/>
<path d="M328.84 140.5C328.84 140.775 328.543 141 328.18 141C327.817 141 327.52 140.775 327.52 140.5C327.52 140.225 327.817 140 328.18 140C328.543 140 328.84 140.2 328.84 140.5Z" fill="#CFD3DF"/>
<path d="M355.674 140.5C355.674 140.675 355.476 140.825 355.245 140.825C355.014 140.825 354.816 140.675 354.816 140.5C354.816 140.325 355.014 140.175 355.245 140.175C355.476 140.15 355.674 140.3 355.674 140.5Z" fill="#CFD3DF"/>
<path d="M382.541 140.5C382.541 140.6 382.442 140.675 382.31 140.675C382.178 140.675 382.079 140.6 382.079 140.5C382.079 140.4 382.178 140.325 382.31 140.325C382.442 140.325 382.541 140.4 382.541 140.5Z" fill="#CFD3DF"/>
<path d="M6.60123 117.5C6.60123 116.119 5.1235 115 3.30062 115C1.47774 115 0 116.119 0 117.5C0 118.88 1.47774 119.999 3.30062 119.999C5.1235 119.999 6.60123 118.88 6.60123 117.5Z" fill="#CFD3DF"/>
<path d="M33.4352 117.5C33.4352 118.799 32.049 119.824 30.3657 119.824C28.6494 119.824 27.2961 118.774 27.2961 117.5C27.2961 116.225 28.6824 115.175 30.3657 115.175C32.049 115.15 33.4352 116.2 33.4352 117.5Z" fill="#CFD3DF"/>
<path d="M60.3025 117.5C60.3025 116.299 59.0169 115.325 57.4309 115.325C55.845 115.325 54.5593 116.299 54.5593 117.5C54.5593 118.701 55.845 119.674 57.4309 119.674C59.0169 119.674 60.3025 118.701 60.3025 117.5Z" fill="#CFD3DF"/>
<path d="M87.1362 117.5C87.1362 118.599 85.9479 119.499 84.4957 119.499C83.0434 119.499 81.8552 118.599 81.8552 117.5C81.8552 116.4 83.0434 115.5 84.4957 115.5C85.9479 115.5 87.1362 116.4 87.1362 117.5Z" fill="#CFD3DF"/>
<path d="M114.004 117.5C114.004 118.499 112.914 119.324 111.594 119.324C110.241 119.324 109.185 118.499 109.185 117.5C109.185 116.475 110.274 115.675 111.594 115.675C112.914 115.65 114.004 116.475 114.004 117.5Z" fill="#CFD3DF"/>
<path d="M140.838 117.5C140.838 118.424 139.847 119.174 138.626 119.174C137.405 119.174 136.415 118.424 136.415 117.5C136.415 116.575 137.405 115.825 138.626 115.825C139.88 115.825 140.838 116.575 140.838 117.5Z" fill="#CFD3DF"/>
<path d="M167.705 117.5C167.705 116.672 166.818 116 165.724 116C164.631 116 163.744 116.672 163.744 117.5C163.744 118.328 164.631 118.999 165.724 118.999C166.818 118.999 167.705 118.328 167.705 117.5Z" fill="#CFD3DF"/>
<path d="M194.572 117.5C194.572 118.224 193.779 118.824 192.822 118.824C191.865 118.824 191.073 118.224 191.073 117.5C191.073 116.775 191.865 116.175 192.822 116.175C193.779 116.15 194.572 116.75 194.572 117.5Z" fill="#CFD3DF"/>
<path d="M221.406 117.5C221.406 118.15 220.713 118.674 219.855 118.674C218.997 118.674 218.303 118.15 218.303 117.5C218.303 116.85 218.997 116.325 219.855 116.325C220.713 116.325 221.406 116.85 221.406 117.5Z" fill="#CFD3DF"/>
<path d="M248.272 117.5C248.272 118.049 247.678 118.499 246.952 118.499C246.226 118.499 245.632 118.049 245.632 117.5C245.632 116.95 246.226 116.5 246.952 116.5C247.678 116.5 248.272 116.95 248.272 117.5Z" fill="#CFD3DF"/>
<path d="M275.106 117.5C275.106 117.95 274.611 118.324 274.017 118.324C273.423 118.324 272.928 117.95 272.928 117.5C272.928 117.05 273.423 116.675 274.017 116.675C274.611 116.65 275.106 117.025 275.106 117.5Z" fill="#CFD3DF"/>
<path d="M301.974 117.5C301.974 117.875 301.577 118.174 301.082 118.174C300.587 118.174 300.191 117.875 300.191 117.5C300.191 117.125 300.587 116.825 301.082 116.825C301.577 116.825 301.974 117.125 301.974 117.5Z" fill="#CFD3DF"/>
<path d="M328.84 117.5C328.84 117.775 328.543 118 328.18 118C327.817 118 327.52 117.775 327.52 117.5C327.52 117.225 327.817 117 328.18 117C328.543 117 328.84 117.225 328.84 117.5Z" fill="#CFD3DF"/>
<path d="M355.674 117.5C355.674 117.32 355.482 117.175 355.245 117.175C355.008 117.175 354.816 117.32 354.816 117.5C354.816 117.679 355.008 117.825 355.245 117.825C355.482 117.825 355.674 117.679 355.674 117.5Z" fill="#CFD3DF"/>
<path d="M382.541 117.5C382.541 117.6 382.442 117.675 382.31 117.675C382.178 117.675 382.079 117.6 382.079 117.5C382.079 117.4 382.178 117.325 382.31 117.325C382.442 117.325 382.541 117.4 382.541 117.5Z" fill="#CFD3DF"/>
<path d="M6.60123 94.4995C6.60123 93.1192 5.1235 92.0002 3.30062 92.0002C1.47774 92.0002 0 93.1192 0 94.4995C0 95.8798 1.47774 96.9988 3.30062 96.9988C5.1235 96.9988 6.60123 95.8798 6.60123 94.4995Z" fill="#CFD3DF"/>
<path d="M33.4352 94.4997C33.4352 95.7993 32.049 96.824 30.3657 96.824C28.6494 96.824 27.2961 95.7743 27.2961 94.4997C27.2961 93.225 28.6824 92.1754 30.3657 92.1754C32.049 92.1754 33.4352 93.2 33.4352 94.4997Z" fill="#CFD3DF"/>
<path d="M60.3025 94.4997C60.3025 93.2988 59.0169 92.3254 57.4309 92.3254C55.845 92.3254 54.5593 93.2988 54.5593 94.4997C54.5593 95.7006 55.845 96.6741 57.4309 96.6741C59.0169 96.6741 60.3025 95.7006 60.3025 94.4997Z" fill="#CFD3DF"/>
<path d="M87.1362 94.4996C87.1362 93.3954 85.954 92.5001 84.4957 92.5001C83.0374 92.5001 81.8552 93.3954 81.8552 94.4996C81.8552 95.6039 83.0374 96.499 84.4957 96.499C85.954 96.499 87.1362 95.6039 87.1362 94.4996Z" fill="#CFD3DF"/>
<path d="M114.004 94.4996C114.004 95.5243 112.914 96.324 111.594 96.324C110.241 96.324 109.185 95.4993 109.185 94.4996C109.185 93.4998 110.274 92.675 111.594 92.675C112.914 92.675 114.004 93.4998 114.004 94.4996Z" fill="#CFD3DF"/>
<path d="M140.838 94.4996C140.838 95.4243 139.847 96.1741 138.626 96.1741C137.405 96.1741 136.415 95.4243 136.415 94.4996C136.415 93.5749 137.405 92.825 138.626 92.825C139.88 92.825 140.838 93.5749 140.838 94.4996Z" fill="#CFD3DF"/>
<path d="M167.705 94.4995C167.705 93.6713 166.818 92.9999 165.724 92.9999C164.631 92.9999 163.744 93.6713 163.744 94.4995C163.744 95.3277 164.631 95.999 165.724 95.999C166.818 95.999 167.705 95.3277 167.705 94.4995Z" fill="#CFD3DF"/>
<path d="M194.572 94.4997C194.572 95.2245 193.779 95.8242 192.822 95.8242C191.865 95.8242 191.073 95.2245 191.073 94.4997C191.073 93.7749 191.865 93.175 192.822 93.175C193.779 93.175 194.572 93.7749 194.572 94.4997Z" fill="#CFD3DF"/>
<path d="M221.406 94.4997C221.406 95.1495 220.713 95.6743 219.855 95.6743C218.997 95.6743 218.303 95.1495 218.303 94.4997C218.303 93.8499 218.997 93.325 219.855 93.325C220.713 93.325 221.406 93.8499 221.406 94.4997Z" fill="#CFD3DF"/>
<path d="M248.272 94.4997C248.272 95.0495 247.678 95.4993 246.952 95.4993C246.226 95.4993 245.632 95.0495 245.632 94.4997C245.632 93.9498 246.226 93.4999 246.952 93.4999C247.678 93.4999 248.272 93.9498 248.272 94.4997Z" fill="#CFD3DF"/>
<path d="M275.106 94.4996C275.106 94.0441 274.619 93.6748 274.017 93.6748C273.416 93.6748 272.928 94.0441 272.928 94.4996C272.928 94.9551 273.416 95.3242 274.017 95.3242C274.619 95.3242 275.106 94.9551 275.106 94.4996Z" fill="#CFD3DF"/>
<path d="M301.974 94.4996C301.974 94.8745 301.577 95.1743 301.082 95.1743C300.587 95.1743 300.191 94.8745 300.191 94.4996C300.191 94.1247 300.587 93.8248 301.082 93.8248C301.577 93.8248 301.974 94.1247 301.974 94.4996Z" fill="#CFD3DF"/>
<path d="M328.84 94.4995C328.84 94.2235 328.545 93.9997 328.18 93.9997C327.816 93.9997 327.52 94.2235 327.52 94.4995C327.52 94.7756 327.816 94.9993 328.18 94.9993C328.545 94.9993 328.84 94.7756 328.84 94.4995Z" fill="#CFD3DF"/>
<path d="M355.674 94.4995C355.674 94.3201 355.482 94.1746 355.245 94.1746C355.008 94.1746 354.816 94.3201 354.816 94.4995C354.816 94.679 355.008 94.8245 355.245 94.8245C355.482 94.8245 355.674 94.679 355.674 94.4995Z" fill="#CFD3DF"/>
<path d="M382.541 94.4996C382.541 94.5996 382.442 94.6746 382.31 94.6746C382.178 94.6746 382.079 94.5996 382.079 94.4996C382.079 94.3996 382.178 94.3246 382.31 94.3246C382.442 94.3246 382.541 94.3996 382.541 94.4996Z" fill="#CFD3DF"/>
<path d="M6.60123 71.4995C6.60123 70.1192 5.1235 69.0002 3.30062 69.0002C1.47774 69.0002 0 70.1192 0 71.4995C0 72.8798 1.47774 73.9988 3.30062 73.9988C5.1235 73.9988 6.60123 72.8798 6.60123 71.4995Z" fill="#CFD3DF"/>
<path d="M33.4352 71.4995C33.4352 72.7991 32.049 73.824 30.3657 73.824C28.6494 73.824 27.2961 72.7741 27.2961 71.4995C27.2961 70.2249 28.6824 69.1752 30.3657 69.1752C32.049 69.1752 33.4352 70.2249 33.4352 71.4995Z" fill="#CFD3DF"/>
<path d="M60.3025 71.4996C60.3025 70.2987 59.0169 69.3252 57.4309 69.3252C55.845 69.3252 54.5593 70.2987 54.5593 71.4996C54.5593 72.7004 55.845 73.6741 57.4309 73.6741C59.0169 73.6741 60.3025 72.7004 60.3025 71.4996Z" fill="#CFD3DF"/>
<path d="M87.1362 71.4995C87.1362 70.3952 85.954 69.5001 84.4957 69.5001C83.0374 69.5001 81.8552 70.3952 81.8552 71.4995C81.8552 72.6037 83.0374 73.499 84.4957 73.499C85.954 73.499 87.1362 72.6037 87.1362 71.4995Z" fill="#CFD3DF"/>
<path d="M114.004 71.4996C114.004 72.5243 112.914 73.3242 111.594 73.3242C110.241 73.3242 109.185 72.4994 109.185 71.4996C109.185 70.4999 110.274 69.6752 111.594 69.6752C112.914 69.6752 114.004 70.4999 114.004 71.4996Z" fill="#CFD3DF"/>
<path d="M140.838 71.4994C140.838 72.4242 139.847 73.1741 138.626 73.1741C137.405 73.1741 136.415 72.4242 136.415 71.4994C136.415 70.5747 137.405 69.825 138.626 69.825C139.88 69.85 140.838 70.5747 140.838 71.4994Z" fill="#CFD3DF"/>
<path d="M167.705 71.4994C167.705 70.6712 166.818 69.9999 165.724 69.9999C164.631 69.9999 163.744 70.6712 163.744 71.4994C163.744 72.3276 164.631 72.999 165.724 72.999C166.818 72.999 167.705 72.3276 167.705 71.4994Z" fill="#CFD3DF"/>
<path d="M194.572 71.4995C194.572 72.2243 193.779 72.8242 192.822 72.8242C191.865 72.8242 191.073 72.2243 191.073 71.4995C191.073 70.7747 191.865 70.175 192.822 70.175C193.779 70.175 194.572 70.7747 194.572 71.4995Z" fill="#CFD3DF"/>
<path d="M221.406 71.4996C221.406 72.1494 220.713 72.6743 219.855 72.6743C218.997 72.6743 218.303 72.1494 218.303 71.4996C218.303 70.8498 218.997 70.325 219.855 70.325C220.713 70.35 221.406 70.8748 221.406 71.4996Z" fill="#CFD3DF"/>
<path d="M248.272 71.4995C248.272 72.0493 247.678 72.4993 246.952 72.4993C246.226 72.4993 245.632 72.0493 245.632 71.4995C245.632 70.9497 246.226 70.4999 246.952 70.4999C247.678 70.4999 248.272 70.9497 248.272 71.4995Z" fill="#CFD3DF"/>
<path d="M275.106 71.4994C275.106 71.9493 274.611 72.3242 274.017 72.3242C273.423 72.3242 272.928 71.9493 272.928 71.4994C272.928 71.0495 273.423 70.6748 274.017 70.6748C274.611 70.6748 275.106 71.0495 275.106 71.4994Z" fill="#CFD3DF"/>
<path d="M301.974 71.4995C301.974 71.1268 301.574 70.8248 301.082 70.8248C300.59 70.8248 300.191 71.1268 300.191 71.4995C300.191 71.8721 300.59 72.1743 301.082 72.1743C301.574 72.1743 301.974 71.8721 301.974 71.4995Z" fill="#CFD3DF"/>
<path d="M328.84 71.4996C328.84 71.2236 328.545 70.9999 328.18 70.9999C327.816 70.9999 327.52 71.2236 327.52 71.4996C327.52 71.7757 327.816 71.9995 328.18 71.9995C328.545 71.9995 328.84 71.7757 328.84 71.4996Z" fill="#CFD3DF"/>
<path d="M355.674 71.4995C355.674 71.3201 355.482 71.1748 355.245 71.1748C355.008 71.1748 354.816 71.3201 354.816 71.4995C354.816 71.679 355.008 71.8245 355.245 71.8245C355.482 71.8245 355.674 71.679 355.674 71.4995Z" fill="#CFD3DF"/>
<path d="M382.541 71.4996C382.541 71.5996 382.442 71.6746 382.31 71.6746C382.178 71.6746 382.079 71.5996 382.079 71.4996C382.079 71.3996 382.178 71.3248 382.31 71.3248C382.442 71.3498 382.541 71.4246 382.541 71.4996Z" fill="#CFD3DF"/>
<path d="M6.60123 48.4993C6.60123 47.119 5.1235 46 3.30062 46C1.47774 46 0 47.119 0 48.4993C0 49.8796 1.47774 50.9985 3.30062 50.9985C5.1235 50.9985 6.60123 49.8796 6.60123 48.4993Z" fill="#CFD3DF"/>
<path d="M33.4352 48.4994C33.4352 49.799 32.049 50.8237 30.3657 50.8237C28.6494 50.8237 27.2961 49.7741 27.2961 48.4994C27.2961 47.1998 28.6824 46.1751 30.3657 46.1751C32.049 46.1501 33.4352 47.1998 33.4352 48.4994Z" fill="#CFD3DF"/>
<path d="M60.3025 48.4995C60.3025 49.6991 59.0152 50.6738 57.4309 50.6738C55.8467 50.6738 54.5593 49.6991 54.5593 48.4995C54.5593 47.2998 55.8467 46.3251 57.4309 46.3251C59.0152 46.3251 60.3025 47.2998 60.3025 48.4995Z" fill="#CFD3DF"/>
<path d="M87.1362 48.4994C87.1362 49.5991 85.9479 50.4988 84.4957 50.4988C83.0434 50.4988 81.8552 49.5991 81.8552 48.4994C81.8552 47.3997 83.0434 46.5 84.4957 46.5C85.9479 46.5 87.1362 47.3747 87.1362 48.4994Z" fill="#CFD3DF"/>
<path d="M114.004 48.4993C114.004 49.499 112.914 50.3237 111.594 50.3237C110.241 50.3237 109.185 49.499 109.185 48.4993C109.185 47.4746 110.274 46.6749 111.594 46.6749C112.914 46.6499 114.004 47.4746 114.004 48.4993Z" fill="#CFD3DF"/>
<path d="M140.838 48.4994C140.838 49.4241 139.847 50.1738 138.626 50.1738C137.405 50.1738 136.415 49.4241 136.415 48.4994C136.415 47.5746 137.405 46.8249 138.626 46.8249C139.88 46.8249 140.838 47.5746 140.838 48.4994Z" fill="#CFD3DF"/>
<path d="M167.705 48.4994C167.705 49.3241 166.813 49.999 165.724 49.999C164.635 49.999 163.744 49.3241 163.744 48.4994C163.744 47.6746 164.635 46.9999 165.724 46.9999C166.813 46.9999 167.705 47.6496 167.705 48.4994Z" fill="#CFD3DF"/>
<path d="M194.572 48.4993C194.572 49.2241 193.779 49.824 192.822 49.824C191.865 49.824 191.073 49.2241 191.073 48.4993C191.073 47.7745 191.865 47.1748 192.822 47.1748C193.779 47.1498 194.572 47.7495 194.572 48.4993Z" fill="#CFD3DF"/>
<path d="M221.406 48.4993C221.406 49.1491 220.713 49.6741 219.855 49.6741C218.997 49.6741 218.303 49.1491 218.303 48.4993C218.303 47.8495 218.997 47.3247 219.855 47.3247C220.713 47.3247 221.406 47.8495 221.406 48.4993Z" fill="#CFD3DF"/>
<path d="M248.272 48.4995C248.272 49.0493 247.678 49.4993 246.952 49.4993C246.226 49.4993 245.632 49.0493 245.632 48.4995C245.632 47.9497 246.226 47.4999 246.952 47.4999C247.678 47.4999 248.272 47.9247 248.272 48.4995Z" fill="#CFD3DF"/>
<path d="M275.106 48.4994C275.106 48.9493 274.611 49.3242 274.017 49.3242C273.423 49.3242 272.928 48.9493 272.928 48.4994C272.928 48.0495 273.423 47.6746 274.017 47.6746C274.611 47.6496 275.106 48.0246 275.106 48.4994Z" fill="#CFD3DF"/>
<path d="M301.974 48.4995C301.974 48.8744 301.577 49.1743 301.082 49.1743C300.587 49.1743 300.191 48.8744 300.191 48.4995C300.191 48.1246 300.587 47.8246 301.082 47.8246C301.577 47.8246 301.974 48.1246 301.974 48.4995Z" fill="#CFD3DF"/>
<path d="M328.84 48.4994C328.84 48.7743 328.543 48.9993 328.18 48.9993C327.817 48.9993 327.52 48.7743 327.52 48.4994C327.52 48.2245 327.817 47.9995 328.18 47.9995C328.543 47.9995 328.84 48.2245 328.84 48.4994Z" fill="#CFD3DF"/>
<path d="M355.674 48.4993C355.674 48.6743 355.476 48.8242 355.245 48.8242C355.014 48.8242 354.816 48.6743 354.816 48.4993C354.816 48.3244 355.014 48.1744 355.245 48.1744C355.476 48.1494 355.674 48.2994 355.674 48.4993Z" fill="#CFD3DF"/>
<path d="M382.541 48.4993C382.541 48.5993 382.442 48.6743 382.31 48.6743C382.178 48.6743 382.079 48.5993 382.079 48.4993C382.079 48.3994 382.178 48.3244 382.31 48.3244C382.442 48.3244 382.541 48.3994 382.541 48.4993Z" fill="#CFD3DF"/>
<path d="M6.60123 25.4993C6.60123 24.119 5.1235 23 3.30062 23C1.47774 23 0 24.119 0 25.4993C0 26.8796 1.47774 27.9985 3.30062 27.9985C5.1235 27.9985 6.60123 26.8796 6.60123 25.4993Z" fill="#CFD3DF"/>
<path d="M33.4352 25.4994C33.4352 26.799 32.049 27.8237 30.3657 27.8237C28.6494 27.8237 27.2961 26.7741 27.2961 25.4994C27.2961 24.2248 28.6824 23.1751 30.3657 23.1751C32.049 23.1501 33.4352 24.1998 33.4352 25.4994Z" fill="#CFD3DF"/>
<path d="M60.3025 25.4995C60.3025 26.6991 59.0152 27.6738 57.4309 27.6738C55.8467 27.6738 54.5593 26.6991 54.5593 25.4995C54.5593 24.2998 55.8467 23.3251 57.4309 23.3251C59.0152 23.3251 60.3025 24.2998 60.3025 25.4995Z" fill="#CFD3DF"/>
<path d="M87.1362 25.4994C87.1362 26.5991 85.9479 27.4988 84.4957 27.4988C83.0434 27.4988 81.8552 26.5991 81.8552 25.4994C81.8552 24.3997 83.0434 23.5 84.4957 23.5C85.9479 23.5 87.1362 24.3997 87.1362 25.4994Z" fill="#CFD3DF"/>
<path d="M114.004 25.4993C114.004 26.499 112.914 27.3237 111.594 27.3237C110.241 27.3237 109.185 26.499 109.185 25.4993C109.185 24.4746 110.274 23.6749 111.594 23.6749C112.914 23.6499 114.004 24.4746 114.004 25.4993Z" fill="#CFD3DF"/>
<path d="M140.838 25.4994C140.838 26.4241 139.847 27.1738 138.626 27.1738C137.405 27.1738 136.415 26.4241 136.415 25.4994C136.415 24.5746 137.405 23.8249 138.626 23.8249C139.88 23.8249 140.838 24.5746 140.838 25.4994Z" fill="#CFD3DF"/>
<path d="M167.705 25.4993C167.705 26.324 166.813 26.9988 165.724 26.9988C164.635 26.9988 163.744 26.324 163.744 25.4993C163.744 24.6745 164.635 23.9998 165.724 23.9998C166.813 23.9998 167.705 24.6745 167.705 25.4993Z" fill="#CFD3DF"/>
<path d="M194.572 25.4993C194.572 26.2241 193.779 26.824 192.822 26.824C191.865 26.824 191.073 26.2241 191.073 25.4993C191.073 24.7745 191.865 24.1746 192.822 24.1746C193.779 24.1496 194.572 24.7495 194.572 25.4993Z" fill="#CFD3DF"/>
<path d="M221.406 25.4995C221.406 26.1493 220.713 26.6741 219.855 26.6741C218.997 26.6741 218.303 26.1493 218.303 25.4995C218.303 24.8497 218.997 24.3249 219.855 24.3249C220.713 24.3249 221.406 24.8497 221.406 25.4995Z" fill="#CFD3DF"/>
<path d="M248.272 25.4993C248.272 26.0491 247.678 26.499 246.952 26.499C246.226 26.499 245.632 26.0491 245.632 25.4993C245.632 24.9494 246.226 24.4995 246.952 24.4995C247.678 24.4995 248.272 24.9494 248.272 25.4993Z" fill="#CFD3DF"/>
<path d="M275.106 25.4994C275.106 25.9493 274.611 26.3242 274.017 26.3242C273.423 26.3242 272.928 25.9493 272.928 25.4994C272.928 25.0495 273.423 24.6746 274.017 24.6746C274.611 24.6496 275.106 25.0246 275.106 25.4994Z" fill="#CFD3DF"/>
<path d="M301.974 25.4992C301.974 25.8741 301.577 26.1741 301.082 26.1741C300.587 26.1741 300.191 25.8741 300.191 25.4992C300.191 25.1243 300.587 24.8244 301.082 24.8244C301.577 24.8244 301.974 25.1243 301.974 25.4992Z" fill="#CFD3DF"/>
<path d="M328.84 25.4994C328.84 25.7743 328.543 25.9993 328.18 25.9993C327.817 25.9993 327.52 25.7743 327.52 25.4994C327.52 25.2245 327.817 24.9995 328.18 24.9995C328.543 24.9995 328.84 25.2245 328.84 25.4994Z" fill="#CFD3DF"/>
<path d="M355.674 25.4995C355.674 25.6745 355.476 25.8245 355.245 25.8245C355.014 25.8245 354.816 25.6745 354.816 25.4995C354.816 25.3246 355.014 25.1746 355.245 25.1746C355.476 25.1496 355.674 25.2996 355.674 25.4995Z" fill="#CFD3DF"/>
<path d="M382.541 25.4993C382.541 25.5993 382.442 25.6743 382.31 25.6743C382.178 25.6743 382.079 25.5993 382.079 25.4993C382.079 25.3994 382.178 25.3244 382.31 25.3244C382.442 25.3244 382.541 25.3994 382.541 25.4993Z" fill="#CFD3DF"/>
<path d="M6.60123 2.49926C6.60123 1.11895 5.1235 -1.04904e-05 3.30062 -1.04904e-05C1.47774 -1.04904e-05 0 1.11895 0 2.49926C0 3.87957 1.47774 4.99854 3.30062 4.99854C5.1235 4.99854 6.60123 3.87957 6.60123 2.49926Z" fill="#CFD3DF"/>
<path d="M33.4352 2.49918C33.4352 3.7988 32.049 4.82349 30.3657 4.82349C28.6494 4.82349 27.2961 3.77381 27.2961 2.49918C27.2961 1.19956 28.6824 0.174876 30.3657 0.174876C32.049 0.174876 33.4352 1.19956 33.4352 2.49918Z" fill="#CFD3DF"/>
<path d="M60.3025 2.49923C60.3025 3.69888 59.0152 4.67358 57.4309 4.67358C55.8467 4.67358 54.5593 3.69888 54.5593 2.49923C54.5593 1.29958 55.8467 0.324875 57.4309 0.324875C59.0152 0.324875 60.3025 1.29958 60.3025 2.49923Z" fill="#CFD3DF"/>
<path d="M87.1362 2.49915C87.1362 1.3949 85.954 0.49976 84.4957 0.49976C83.0374 0.49976 81.8552 1.3949 81.8552 2.49915C81.8552 3.6034 83.0374 4.49854 84.4957 4.49854C85.954 4.49854 87.1362 3.6034 87.1362 2.49915Z" fill="#CFD3DF"/>
<path d="M114.004 2.49931C114.004 3.52401 112.914 4.32373 111.594 4.32373C110.241 4.32373 109.185 3.49902 109.185 2.49931C109.185 1.4996 110.274 0.67489 111.594 0.67489C112.914 0.67489 114.004 1.4996 114.004 2.49931Z" fill="#CFD3DF"/>
<path d="M140.838 2.49936C140.838 3.42409 139.847 4.17383 138.626 4.17383C137.405 4.17383 136.415 3.42409 136.415 2.49936C136.415 1.57463 137.405 0.824888 138.626 0.824888C139.88 0.824888 140.838 1.57463 140.838 2.49936Z" fill="#CFD3DF"/>
<path d="M167.705 2.49928C167.705 3.32404 166.813 3.99878 165.724 3.99878C164.635 3.99878 163.744 3.32404 163.744 2.49928C163.744 1.67452 164.635 0.999621 165.724 0.999621C166.813 0.999621 167.705 1.67452 167.705 2.49928Z" fill="#CFD3DF"/>
<path d="M194.572 2.4992C194.572 3.22398 193.779 3.82373 192.822 3.82373C191.865 3.82373 191.073 3.22398 191.073 2.4992C191.073 1.77441 191.865 1.17451 192.822 1.17451C193.779 1.17451 194.572 1.77441 194.572 2.4992Z" fill="#CFD3DF"/>
<path d="M221.406 2.49924C221.406 3.14905 220.713 3.67383 219.855 3.67383C218.997 3.67383 218.303 3.14905 218.303 2.49924C218.303 1.84943 218.997 1.32451 219.855 1.32451C220.713 1.32451 221.406 1.84943 221.406 2.49924Z" fill="#CFD3DF"/>
<path d="M248.272 2.49941C248.272 3.04925 247.678 3.49902 246.952 3.49902C246.226 3.49902 245.632 3.04925 245.632 2.49941C245.632 1.94957 246.226 1.49964 246.952 1.49964C247.678 1.49964 248.272 1.94957 248.272 2.49941Z" fill="#CFD3DF"/>
<path d="M275.106 2.49917C275.106 2.94904 274.611 3.32397 274.017 3.32397C273.423 3.32397 272.928 2.94904 272.928 2.49917C272.928 2.0493 273.423 1.67437 274.017 1.67437C274.611 1.67437 275.106 2.0493 275.106 2.49917Z" fill="#CFD3DF"/>
<path d="M301.974 2.49922C301.974 2.87411 301.577 3.17407 301.082 3.17407C300.587 3.17407 300.191 2.87411 300.191 2.49922C300.191 2.12433 300.587 1.82437 301.082 1.82437C301.577 1.82437 301.974 2.12433 301.974 2.49922Z" fill="#CFD3DF"/>
<path d="M328.84 2.49914C328.84 2.22308 328.545 1.99925 328.18 1.99925C327.816 1.99925 327.52 2.22308 327.52 2.49914C327.52 2.7752 327.816 2.99902 328.18 2.99902C328.545 2.99902 328.84 2.7752 328.84 2.49914Z" fill="#CFD3DF"/>
<path d="M355.674 2.4993C355.674 2.67425 355.476 2.82422 355.245 2.82422C355.014 2.82422 354.816 2.67425 354.816 2.4993C354.816 2.32435 355.014 2.17438 355.245 2.17438C355.476 2.17438 355.674 2.32435 355.674 2.4993Z" fill="#CFD3DF"/>
<path d="M382.541 2.49935C382.541 2.59932 382.442 2.67432 382.31 2.67432C382.178 2.67432 382.079 2.59932 382.079 2.49935C382.079 2.39938 382.178 2.32438 382.31 2.32438C382.442 2.32438 382.541 2.39938 382.541 2.49935Z" fill="#CFD3DF"/>
</svg>
