<svg width="10" height="6" viewBox="0 0 10 6" fill="none" xmlns="http://www.w3.org/2000/svg">
<path d="M9.70078 0.173372C9.53065 0.046801 9.31184 -0.0141365 9.09202 0.00383524C8.8722 0.0218069 8.66918 0.117231 8.52718 0.26932L5.00004 4.07806L1.47286 0.269383C1.33127 0.116697 1.12808 0.0208875 0.908001 0.00303083C0.687918 -0.0148258 0.468968 0.0467332 0.299316 0.174166C0.129664 0.301598 0.0232084 0.484466 0.00336761 0.682539C-0.0164732 0.880613 0.0519262 1.07767 0.193519 1.23035L4.36037 5.73047C4.43854 5.81483 4.53635 5.88271 4.64689 5.92928C4.75743 5.97586 4.87799 6 5.00004 6C5.1221 6 5.24266 5.97586 5.3532 5.92928C5.46373 5.88271 5.56155 5.81483 5.63971 5.73047L9.80657 1.23029C9.94811 1.07745 10.0165 0.880299 9.99663 0.682133C9.9768 0.483967 9.87039 0.300986 9.70078 0.173372Z" fill="#464646"/>
</svg>
