<svg width="352" height="364" viewBox="0 0 352 364" fill="none" xmlns="http://www.w3.org/2000/svg">
<g opacity="0.2">
<path d="M345.191 2.29485C345.191 3.56227 346.548 4.58971 348.221 4.58971C349.895 4.58971 351.252 3.56227 351.252 2.29485C351.252 1.02744 349.895 0 348.221 0C346.548 0 345.191 1.02744 345.191 2.29485Z" fill="#CFD3DF"/>
<path d="M320.551 2.29472C320.551 1.1014 321.824 0.160522 323.37 0.160522C324.946 0.160522 326.188 1.12434 326.188 2.29472C326.188 3.48804 324.915 4.42892 323.37 4.42892C321.824 4.45187 320.551 3.48804 320.551 2.29472Z" fill="#CFD3DF"/>
<path d="M295.882 2.29497C295.882 1.19344 297.064 0.298462 298.518 0.298462C299.973 0.298462 301.155 1.19344 301.155 2.29497C301.155 3.3965 299.973 4.29148 298.518 4.29148C297.064 4.29148 295.882 3.3965 295.882 2.29497Z" fill="#CFD3DF"/>
<path d="M271.242 2.29496C271.242 1.28523 272.334 0.459106 273.667 0.459106C275.001 0.459106 276.092 1.28523 276.092 2.29496C276.092 3.3047 275.001 4.13082 273.667 4.13082C272.334 4.13082 271.242 3.3047 271.242 2.29496Z" fill="#CFD3DF"/>
<path d="M246.573 2.29472C246.573 1.37678 247.573 0.619385 248.785 0.619385C250.028 0.619385 250.997 1.37678 250.997 2.29472C250.997 3.23561 249.997 3.96992 248.785 3.96992C247.573 3.99287 246.573 3.23561 246.573 2.29472Z" fill="#CFD3DF"/>
<path d="M221.934 2.29484C221.934 1.44574 222.843 0.757324 223.964 0.757324C225.085 0.757324 225.995 1.44574 225.995 2.29484C225.995 3.14393 225.085 3.83235 223.964 3.83235C222.812 3.83235 221.934 3.14393 221.934 2.29484Z" fill="#CFD3DF"/>
<path d="M197.264 2.29497C197.264 1.53766 198.082 0.917969 199.082 0.917969C200.082 0.917969 200.9 1.53766 200.9 2.29497C200.9 3.05227 200.082 3.67182 199.082 3.67182C198.082 3.67182 197.264 3.05227 197.264 2.29497Z" fill="#CFD3DF"/>
<path d="M172.594 2.29459C172.594 1.62908 173.321 1.07825 174.2 1.07825C175.079 1.07825 175.806 1.62908 175.806 2.29459C175.806 2.96009 175.079 3.51079 174.2 3.51079C173.321 3.53374 172.594 2.98304 172.594 2.29459Z" fill="#CFD3DF"/>
<path d="M147.955 2.29472C147.955 1.69806 148.591 1.21606 149.379 1.21606C150.167 1.21606 150.804 1.69806 150.804 2.29472C150.804 2.89138 150.167 3.37323 149.379 3.37323C148.591 3.37323 147.955 2.89138 147.955 2.29472Z" fill="#CFD3DF"/>
<path d="M123.286 2.29483C123.286 1.78996 123.832 1.37683 124.498 1.37683C125.165 1.37683 125.711 1.78996 125.711 2.29483C125.711 2.7997 125.165 3.21269 124.498 3.21269C123.832 3.21269 123.286 2.7997 123.286 2.29483Z" fill="#CFD3DF"/>
<path d="M98.6467 2.29482C98.6467 1.88174 99.1013 1.53748 99.6468 1.53748C100.192 1.53748 100.647 1.88174 100.647 2.29482C100.647 2.70789 100.192 3.05216 99.6468 3.05216C99.1013 3.07511 98.6467 2.73084 98.6467 2.29482Z" fill="#CFD3DF"/>
<path d="M73.9772 2.29495C73.9772 1.95072 74.3409 1.67529 74.7955 1.67529C75.2501 1.67529 75.6138 1.95072 75.6138 2.29495C75.6138 2.63918 75.2501 2.91446 74.7955 2.91446C74.3409 2.91446 73.9772 2.63918 73.9772 2.29495Z" fill="#CFD3DF"/>
<path d="M49.3075 2.29469C49.3075 2.04226 49.5802 1.83569 49.9136 1.83569C50.247 1.83569 50.5198 2.04226 50.5198 2.29469C50.5198 2.54713 50.247 2.75369 49.9136 2.75369C49.5802 2.75369 49.3075 2.54713 49.3075 2.29469Z" fill="#CFD3DF"/>
<path d="M24.6681 2.29468C24.6681 2.13404 24.8499 1.99634 25.0621 1.99634C25.2742 1.99634 25.4561 2.13404 25.4561 2.29468C25.4561 2.45532 25.2742 2.59302 25.0621 2.59302C24.8499 2.61597 24.6681 2.47827 24.6681 2.29468Z" fill="#CFD3DF"/>
<path d="M-0.000507956 2.29481C-0.000507956 2.20302 0.0904339 2.13416 0.21166 2.13416C0.332886 2.13416 0.423828 2.20302 0.423828 2.29481C0.423828 2.38661 0.332886 2.45547 0.21166 2.45547C0.0904339 2.45547 -0.000507956 2.38661 -0.000507956 2.29481Z" fill="#CFD3DF"/>
<path d="M345.191 23.4136C345.191 24.681 346.548 25.7085 348.221 25.7085C349.895 25.7085 351.252 24.681 351.252 23.4136C351.252 22.1462 349.895 21.1188 348.221 21.1188C346.548 21.1188 345.191 22.1462 345.191 23.4136Z" fill="#CFD3DF"/>
<path d="M320.551 23.4137C320.551 22.2204 321.824 21.2795 323.37 21.2795C324.946 21.2795 326.188 22.2434 326.188 23.4137C326.188 24.6071 324.915 25.5479 323.37 25.5479C321.824 25.5479 320.551 24.6071 320.551 23.4137Z" fill="#CFD3DF"/>
<path d="M295.882 23.4139C295.882 22.3123 297.064 21.4174 298.518 21.4174C299.973 21.4174 301.155 22.3123 301.155 23.4139C301.155 24.5154 299.973 25.4104 298.518 25.4104C297.064 25.4104 295.882 24.5154 295.882 23.4139Z" fill="#CFD3DF"/>
<path d="M271.242 23.4139C271.242 24.4278 272.328 25.2497 273.667 25.2497C275.006 25.2497 276.092 24.4278 276.092 23.4139C276.092 22.3999 275.006 21.578 273.667 21.578C272.328 21.578 271.242 22.3999 271.242 23.4139Z" fill="#CFD3DF"/>
<path d="M246.573 23.4138C246.573 22.4959 247.573 21.7386 248.785 21.7386C250.028 21.7386 250.997 22.4959 250.997 23.4138C250.997 24.3547 249.997 25.089 248.785 25.089C247.573 25.089 246.573 24.3318 246.573 23.4138Z" fill="#CFD3DF"/>
<path d="M221.934 23.4137C221.934 22.5646 222.843 21.8762 223.964 21.8762C225.085 21.8762 225.995 22.5646 225.995 23.4137C225.995 24.2628 225.085 24.9512 223.964 24.9512C222.812 24.9512 221.934 24.2628 221.934 23.4137Z" fill="#CFD3DF"/>
<path d="M197.264 23.4137C197.264 24.1742 198.078 24.7906 199.082 24.7906C200.086 24.7906 200.9 24.1742 200.9 23.4137C200.9 22.6533 200.086 22.0369 199.082 22.0369C198.078 22.0369 197.264 22.6533 197.264 23.4137Z" fill="#CFD3DF"/>
<path d="M172.594 23.4138C172.594 22.7483 173.321 22.1975 174.2 22.1975C175.079 22.1975 175.806 22.7483 175.806 23.4138C175.806 24.0794 175.079 24.63 174.2 24.63C173.321 24.63 172.594 24.0794 172.594 23.4138Z" fill="#CFD3DF"/>
<path d="M147.955 23.414C147.955 22.8173 148.591 22.3353 149.379 22.3353C150.167 22.3353 150.804 22.8173 150.804 23.414C150.804 24.0106 150.167 24.4925 149.379 24.4925C148.591 24.4925 147.955 24.0106 147.955 23.414Z" fill="#CFD3DF"/>
<path d="M123.286 23.4137C123.286 22.9089 123.832 22.4957 124.498 22.4957C125.165 22.4957 125.711 22.9089 125.711 23.4137C125.711 23.9186 125.165 24.3317 124.498 24.3317C123.832 24.3317 123.286 23.9186 123.286 23.4137Z" fill="#CFD3DF"/>
<path d="M98.6467 23.4137C98.6467 23.0006 99.1013 22.6564 99.6468 22.6564C100.192 22.6564 100.647 23.0006 100.647 23.4137C100.647 23.8268 100.192 24.1711 99.6468 24.1711C99.1013 24.1711 98.6467 23.8268 98.6467 23.4137Z" fill="#CFD3DF"/>
<path d="M73.9772 23.4138C73.9772 23.0696 74.3409 22.7942 74.7955 22.7942C75.2501 22.7942 75.6138 23.0696 75.6138 23.4138C75.6138 23.7581 75.2501 24.0335 74.7955 24.0335C74.3409 24.0335 73.9772 23.7581 73.9772 23.4138Z" fill="#CFD3DF"/>
<path d="M49.3075 23.4138C49.3075 23.6673 49.5789 23.8728 49.9136 23.8728C50.2484 23.8728 50.5198 23.6673 50.5198 23.4138C50.5198 23.1604 50.2484 22.9548 49.9136 22.9548C49.5789 22.9548 49.3075 23.1604 49.3075 23.4138Z" fill="#CFD3DF"/>
<path d="M24.6681 23.4136C24.6681 23.2529 24.8499 23.1152 25.0621 23.1152C25.2742 23.1152 25.4561 23.2529 25.4561 23.4136C25.4561 23.5742 25.2742 23.7119 25.0621 23.7119C24.8499 23.7119 24.6681 23.5742 24.6681 23.4136Z" fill="#CFD3DF"/>
<path d="M-0.000507956 23.4137C-0.000507956 23.3219 0.0904339 23.2531 0.21166 23.2531C0.332886 23.2531 0.423828 23.3219 0.423828 23.4137C0.423828 23.5055 0.332886 23.5744 0.21166 23.5744C0.0904339 23.5744 -0.000507956 23.5055 -0.000507956 23.4137Z" fill="#CFD3DF"/>
<path d="M345.191 44.5324C345.191 45.7998 346.548 46.8273 348.221 46.8273C349.895 46.8273 351.252 45.7998 351.252 44.5324C351.252 43.265 349.895 42.2375 348.221 42.2375C346.548 42.2375 345.191 43.265 345.191 44.5324Z" fill="#CFD3DF"/>
<path d="M320.551 44.5321C320.551 43.3388 321.824 42.3979 323.37 42.3979C324.946 42.3979 326.188 43.3618 326.188 44.5321C326.188 45.7025 324.915 46.6663 323.37 46.6663C321.824 46.6663 320.551 45.7025 320.551 44.5321Z" fill="#CFD3DF"/>
<path d="M295.882 44.5325C295.882 43.431 297.064 42.536 298.518 42.536C299.973 42.536 301.155 43.431 301.155 44.5325C301.155 45.6341 299.973 46.529 298.518 46.529C297.064 46.5061 295.882 45.6341 295.882 44.5325Z" fill="#CFD3DF"/>
<path d="M271.242 44.5323C271.242 45.5462 272.328 46.3681 273.667 46.3681C275.006 46.3681 276.092 45.5462 276.092 44.5323C276.092 43.5183 275.006 42.6964 273.667 42.6964C272.328 42.6964 271.242 43.5183 271.242 44.5323Z" fill="#CFD3DF"/>
<path d="M246.573 44.5323C246.573 43.5914 247.573 42.8571 248.785 42.8571C250.028 42.8571 250.997 43.6143 250.997 44.5323C250.997 45.4502 249.997 46.2075 248.785 46.2075C247.573 46.2075 246.573 45.4502 246.573 44.5323Z" fill="#CFD3DF"/>
<path d="M221.934 44.5324C221.934 43.6833 222.843 42.9949 223.964 42.9949C225.085 42.9949 225.995 43.6833 225.995 44.5324C225.995 45.3815 225.085 46.0699 223.964 46.0699C222.812 46.047 221.934 45.3815 221.934 44.5324Z" fill="#CFD3DF"/>
<path d="M197.264 44.5324C197.264 45.2928 198.078 45.9094 199.082 45.9094C200.086 45.9094 200.9 45.2928 200.9 44.5324C200.9 43.7719 200.086 43.1555 199.082 43.1555C198.078 43.1555 197.264 43.7719 197.264 44.5324Z" fill="#CFD3DF"/>
<path d="M172.594 44.5321C172.594 43.8666 173.321 43.3159 174.2 43.3159C175.079 43.3159 175.806 43.8666 175.806 44.5321C175.806 45.1976 175.079 45.7485 174.2 45.7485C173.321 45.7485 172.594 45.1976 172.594 44.5321Z" fill="#CFD3DF"/>
<path d="M147.955 44.5325C147.955 43.9358 148.591 43.454 149.379 43.454C150.167 43.454 150.804 43.9358 150.804 44.5325C150.804 45.1292 150.167 45.6111 149.379 45.6111C148.591 45.5882 147.955 45.1292 147.955 44.5325Z" fill="#CFD3DF"/>
<path d="M123.286 44.5322C123.286 44.0274 123.832 43.6144 124.498 43.6144C125.165 43.6144 125.711 44.0274 125.711 44.5322C125.711 45.0371 125.165 45.4502 124.498 45.4502C123.832 45.4502 123.286 45.0371 123.286 44.5322Z" fill="#CFD3DF"/>
<path d="M98.6467 44.5321C98.6467 44.119 99.1013 43.7748 99.6468 43.7748C100.192 43.7748 100.647 44.119 100.647 44.5321C100.647 44.9452 100.192 45.2895 99.6468 45.2895C99.1013 45.2895 98.6467 44.9452 98.6467 44.5321Z" fill="#CFD3DF"/>
<path d="M73.9772 44.5325C73.9772 44.1883 74.3409 43.9128 74.7955 43.9128C75.2501 43.9128 75.6138 44.1883 75.6138 44.5325C75.6138 44.8767 75.2501 45.1522 74.7955 45.1522C74.3409 45.1292 73.9772 44.8538 73.9772 44.5325Z" fill="#CFD3DF"/>
<path d="M49.3075 44.5322C49.3075 44.7857 49.5789 44.9912 49.9136 44.9912C50.2484 44.9912 50.5198 44.7857 50.5198 44.5322C50.5198 44.2788 50.2484 44.0732 49.9136 44.0732C49.5789 44.0732 49.3075 44.2788 49.3075 44.5322Z" fill="#CFD3DF"/>
<path d="M24.6681 44.5322C24.6681 44.3716 24.8499 44.2339 25.0621 44.2339C25.2742 44.2339 25.4561 44.3716 25.4561 44.5322C25.4561 44.6929 25.2742 44.8306 25.0621 44.8306C24.8499 44.8306 24.6681 44.6929 24.6681 44.5322Z" fill="#CFD3DF"/>
<path d="M-0.000507956 44.5324C-0.000507956 44.4406 0.0904339 44.3717 0.21166 44.3717C0.332886 44.3717 0.423828 44.4406 0.423828 44.5324C0.423828 44.6242 0.332886 44.693 0.21166 44.693C0.0904339 44.6701 -0.000507956 44.6012 -0.000507956 44.5324Z" fill="#CFD3DF"/>
<path d="M345.191 65.6512C345.191 66.9186 346.548 67.946 348.221 67.946C349.895 67.946 351.252 66.9186 351.252 65.6512C351.252 64.3838 349.895 63.3563 348.221 63.3563C346.548 63.3563 345.191 64.3838 345.191 65.6512Z" fill="#CFD3DF"/>
<path d="M320.551 65.651C320.551 64.4577 321.824 63.5168 323.37 63.5168C324.946 63.5168 326.188 64.4807 326.188 65.651C326.188 66.8214 324.915 67.7854 323.37 67.7854C321.824 67.8083 320.551 66.8444 320.551 65.651Z" fill="#CFD3DF"/>
<path d="M295.882 65.6512C295.882 64.5496 297.064 63.6547 298.518 63.6547C299.973 63.6547 301.155 64.5496 301.155 65.6512C301.155 66.7527 299.973 67.6478 298.518 67.6478C297.064 67.6478 295.882 66.7527 295.882 65.6512Z" fill="#CFD3DF"/>
<path d="M271.242 65.6509C271.242 66.6648 272.328 67.4869 273.667 67.4869C275.006 67.4869 276.092 66.6648 276.092 65.6509C276.092 64.637 275.006 63.8151 273.667 63.8151C272.328 63.8151 271.242 64.637 271.242 65.6509Z" fill="#CFD3DF"/>
<path d="M246.573 65.6509C246.573 64.71 247.573 63.9757 248.785 63.9757C250.028 63.9757 250.997 64.733 250.997 65.6509C250.997 66.5688 249.997 67.3262 248.785 67.3262C247.573 67.3492 246.573 66.5918 246.573 65.6509Z" fill="#CFD3DF"/>
<path d="M221.934 65.651C221.934 64.8019 222.843 64.1135 223.964 64.1135C225.085 64.1135 225.995 64.8019 225.995 65.651C225.995 66.5001 225.085 67.1887 223.964 67.1887C222.812 67.1887 221.934 66.5001 221.934 65.651Z" fill="#CFD3DF"/>
<path d="M197.264 65.6511C197.264 66.4116 198.078 67.0281 199.082 67.0281C200.086 67.0281 200.9 66.4116 200.9 65.6511C200.9 64.8907 200.086 64.2743 199.082 64.2743C198.078 64.2743 197.264 64.8907 197.264 65.6511Z" fill="#CFD3DF"/>
<path d="M172.594 65.6511C172.594 64.9856 173.321 64.4349 174.2 64.4349C175.079 64.4349 175.806 64.9856 175.806 65.6511C175.806 66.3166 175.079 66.8675 174.2 66.8675C173.321 66.8904 172.594 66.3396 172.594 65.6511Z" fill="#CFD3DF"/>
<path d="M147.955 65.6513C147.955 65.0546 148.591 64.5728 149.379 64.5728C150.167 64.5728 150.804 65.0546 150.804 65.6513C150.804 66.2479 150.167 66.7299 149.379 66.7299C148.591 66.7299 147.955 66.2479 147.955 65.6513Z" fill="#CFD3DF"/>
<path d="M123.286 65.651C123.286 65.1461 123.832 64.7332 124.498 64.7332C125.165 64.7332 125.711 65.1461 125.711 65.651C125.711 66.1559 125.165 66.569 124.498 66.569C123.832 66.569 123.286 66.1788 123.286 65.651Z" fill="#CFD3DF"/>
<path d="M98.6467 65.651C98.6467 65.2379 99.1013 64.8938 99.6468 64.8938C100.192 64.8938 100.647 65.2379 100.647 65.651C100.647 66.0641 100.192 66.4083 99.6468 66.4083C99.1013 66.4313 98.6467 66.087 98.6467 65.651Z" fill="#CFD3DF"/>
<path d="M73.9772 65.6511C73.9772 65.9933 74.3436 66.2708 74.7955 66.2708C75.2474 66.2708 75.6138 65.9933 75.6138 65.6511C75.6138 65.3089 75.2474 65.0316 74.7955 65.0316C74.3436 65.0316 73.9772 65.3089 73.9772 65.6511Z" fill="#CFD3DF"/>
<path d="M49.3075 65.6511C49.3075 65.9046 49.5789 66.1101 49.9136 66.1101C50.2484 66.1101 50.5198 65.9046 50.5198 65.6511C50.5198 65.3976 50.2484 65.1923 49.9136 65.1923C49.5789 65.1923 49.3075 65.3976 49.3075 65.6511Z" fill="#CFD3DF"/>
<path d="M24.6681 65.6511C24.6681 65.4905 24.8499 65.3529 25.0621 65.3529C25.2742 65.3529 25.4561 65.4905 25.4561 65.6511C25.4561 65.8117 25.2742 65.9494 25.0621 65.9494C24.8499 65.9724 24.6681 65.8347 24.6681 65.6511Z" fill="#CFD3DF"/>
<path d="M-0.000507956 65.651C-0.000507956 65.5592 0.0904339 65.4905 0.21166 65.4905C0.332886 65.4905 0.423828 65.5592 0.423828 65.651C0.423828 65.7428 0.332886 65.8117 0.21166 65.8117C0.0904339 65.8117 -0.000507956 65.7428 -0.000507956 65.651Z" fill="#CFD3DF"/>
<path d="M345.191 86.77C345.191 88.0374 346.548 89.0649 348.221 89.0649C349.895 89.0649 351.252 88.0374 351.252 86.77C351.252 85.5026 349.895 84.4752 348.221 84.4752C346.548 84.4752 345.191 85.5026 345.191 86.77Z" fill="#CFD3DF"/>
<path d="M320.551 86.77C320.551 85.5766 321.824 84.6356 323.37 84.6356C324.946 84.6356 326.188 85.5996 326.188 86.77C326.188 87.9633 324.915 88.9042 323.37 88.9042C321.824 88.9271 320.551 87.9633 320.551 86.77Z" fill="#CFD3DF"/>
<path d="M295.882 86.7703C295.882 85.6687 297.064 84.7737 298.518 84.7737C299.973 84.7737 301.155 85.6687 301.155 86.7703C301.155 87.8718 299.973 88.7668 298.518 88.7668C297.064 88.7668 295.882 87.8718 295.882 86.7703Z" fill="#CFD3DF"/>
<path d="M271.242 86.7701C271.242 85.7603 272.334 84.9341 273.667 84.9341C275.001 84.9341 276.092 85.7603 276.092 86.7701C276.092 87.7798 275.001 88.6059 273.667 88.6059C272.334 88.6059 271.242 87.7798 271.242 86.7701Z" fill="#CFD3DF"/>
<path d="M246.573 86.7701C246.573 85.8521 247.573 85.0947 248.785 85.0947C250.028 85.0947 250.997 85.8521 250.997 86.7701C250.997 87.711 249.997 88.4453 248.785 88.4453C247.573 88.4682 246.573 87.711 246.573 86.7701Z" fill="#CFD3DF"/>
<path d="M221.934 86.7703C221.934 85.9212 222.843 85.2326 223.964 85.2326C225.085 85.2326 225.995 85.9212 225.995 86.7703C225.995 87.6194 225.085 88.3078 223.964 88.3078C222.812 88.3078 221.934 87.6194 221.934 86.7703Z" fill="#CFD3DF"/>
<path d="M197.264 86.7702C197.264 87.5307 198.078 88.1471 199.082 88.1471C200.086 88.1471 200.9 87.5307 200.9 86.7702C200.9 86.0098 200.086 85.3932 199.082 85.3932C198.078 85.3932 197.264 86.0098 197.264 86.7702Z" fill="#CFD3DF"/>
<path d="M172.594 86.7699C172.594 86.1044 173.321 85.5536 174.2 85.5536C175.079 85.5536 175.806 86.1044 175.806 86.7699C175.806 87.4354 175.079 87.9861 174.2 87.9861C173.321 88.0091 172.594 87.4584 172.594 86.7699Z" fill="#CFD3DF"/>
<path d="M147.955 86.7704C147.955 86.1737 148.591 85.6917 149.379 85.6917C150.167 85.6917 150.804 86.1737 150.804 86.7704C150.804 87.367 150.167 87.8489 149.379 87.8489C148.591 87.8489 147.955 87.367 147.955 86.7704Z" fill="#CFD3DF"/>
<path d="M123.286 86.7701C123.286 86.2652 123.832 85.8521 124.498 85.8521C125.165 85.8521 125.711 86.2652 125.711 86.7701C125.711 87.275 125.165 87.688 124.498 87.688C123.832 87.688 123.286 87.275 123.286 86.7701Z" fill="#CFD3DF"/>
<path d="M98.6467 86.7701C98.6467 86.357 99.1013 86.0128 99.6468 86.0128C100.192 86.0128 100.647 86.357 100.647 86.7701C100.647 87.1832 100.192 87.5273 99.6468 87.5273C99.1013 87.5502 98.6467 87.2061 98.6467 86.7701Z" fill="#CFD3DF"/>
<path d="M73.9772 86.7702C73.9772 86.426 74.3409 86.1506 74.7955 86.1506C75.2501 86.1506 75.6138 86.426 75.6138 86.7702C75.6138 87.1145 75.2501 87.3897 74.7955 87.3897C74.3409 87.3897 73.9772 87.1145 73.9772 86.7702Z" fill="#CFD3DF"/>
<path d="M49.3075 86.7702C49.3075 86.5178 49.5802 86.3112 49.9136 86.3112C50.247 86.3112 50.5198 86.5178 50.5198 86.7702C50.5198 87.0227 50.247 87.2291 49.9136 87.2291C49.5802 87.2291 49.3075 87.0227 49.3075 86.7702Z" fill="#CFD3DF"/>
<path d="M24.6681 86.77C24.6681 86.6093 24.8499 86.4716 25.0621 86.4716C25.2742 86.4716 25.4561 86.6093 25.4561 86.77C25.4561 86.9306 25.2742 87.0683 25.0621 87.0683C24.8499 87.0913 24.6681 86.9535 24.6681 86.77Z" fill="#CFD3DF"/>
<path d="M-0.000507956 86.7701C-0.000507956 86.6783 0.0904339 86.6094 0.21166 86.6094C0.332886 86.6094 0.423828 86.6783 0.423828 86.7701C0.423828 86.8619 0.332886 86.9306 0.21166 86.9306C0.0904339 86.9306 -0.000507956 86.8619 -0.000507956 86.7701Z" fill="#CFD3DF"/>
<path d="M345.191 107.889C345.191 109.157 346.548 110.184 348.221 110.184C349.895 110.184 351.252 109.157 351.252 107.889C351.252 106.622 349.895 105.595 348.221 105.595C346.548 105.595 345.191 106.622 345.191 107.889Z" fill="#CFD3DF"/>
<path d="M320.551 107.889C320.551 106.696 321.824 105.755 323.37 105.755C324.946 105.755 326.188 106.719 326.188 107.889C326.188 109.083 324.915 110.023 323.37 110.023C321.824 110.023 320.551 109.083 320.551 107.889Z" fill="#CFD3DF"/>
<path d="M295.882 107.89C295.882 106.788 297.064 105.893 298.518 105.893C299.973 105.893 301.155 106.788 301.155 107.89C301.155 108.991 299.973 109.886 298.518 109.886C297.064 109.886 295.882 108.991 295.882 107.89Z" fill="#CFD3DF"/>
<path d="M271.242 107.889C271.242 106.88 272.334 106.053 273.667 106.053C275.001 106.053 276.092 106.88 276.092 107.889C276.092 108.899 275.001 109.725 273.667 109.725C272.334 109.725 271.242 108.899 271.242 107.889Z" fill="#CFD3DF"/>
<path d="M246.573 107.889C246.573 106.972 247.573 106.214 248.785 106.214C250.028 106.214 250.997 106.972 250.997 107.889C250.997 108.83 249.997 109.565 248.785 109.565C247.573 109.565 246.573 108.807 246.573 107.889Z" fill="#CFD3DF"/>
<path d="M221.934 107.889C221.934 107.04 222.843 106.352 223.964 106.352C225.085 106.352 225.995 107.04 225.995 107.889C225.995 108.738 225.085 109.427 223.964 109.427C222.812 109.427 221.934 108.738 221.934 107.889Z" fill="#CFD3DF"/>
<path d="M197.264 107.889C197.264 107.132 198.082 106.512 199.082 106.512C200.082 106.512 200.9 107.132 200.9 107.889C200.9 108.647 200.082 109.266 199.082 109.266C198.082 109.266 197.264 108.647 197.264 107.889Z" fill="#CFD3DF"/>
<path d="M172.594 107.889C172.594 107.224 173.321 106.673 174.2 106.673C175.079 106.673 175.806 107.224 175.806 107.889C175.806 108.555 175.079 109.106 174.2 109.106C173.321 109.106 172.594 108.555 172.594 107.889Z" fill="#CFD3DF"/>
<path d="M147.955 107.889C147.955 107.293 148.591 106.811 149.379 106.811C150.167 106.811 150.804 107.293 150.804 107.889C150.804 108.486 150.167 108.968 149.379 108.968C148.591 108.968 147.955 108.486 147.955 107.889Z" fill="#CFD3DF"/>
<path d="M123.286 107.889C123.286 107.385 123.832 106.971 124.498 106.971C125.165 106.971 125.711 107.385 125.711 107.889C125.711 108.394 125.165 108.807 124.498 108.807C123.832 108.807 123.286 108.394 123.286 107.889Z" fill="#CFD3DF"/>
<path d="M98.6467 107.889C98.6467 107.476 99.1013 107.132 99.6468 107.132C100.192 107.132 100.647 107.476 100.647 107.889C100.647 108.302 100.192 108.646 99.6468 108.646C99.1013 108.646 98.6467 108.302 98.6467 107.889Z" fill="#CFD3DF"/>
<path d="M73.9772 107.89C73.9772 107.545 74.3409 107.27 74.7955 107.27C75.2501 107.27 75.6138 107.545 75.6138 107.89C75.6138 108.234 75.2501 108.509 74.7955 108.509C74.3409 108.509 73.9772 108.234 73.9772 107.89Z" fill="#CFD3DF"/>
<path d="M49.3075 107.889C49.3075 107.637 49.5802 107.43 49.9136 107.43C50.247 107.43 50.5198 107.637 50.5198 107.889C50.5198 108.142 50.247 108.348 49.9136 108.348C49.5802 108.348 49.3075 108.142 49.3075 107.889Z" fill="#CFD3DF"/>
<path d="M24.6681 107.889C24.6681 107.729 24.8499 107.591 25.0621 107.591C25.2742 107.591 25.4561 107.729 25.4561 107.889C25.4561 108.05 25.2742 108.188 25.0621 108.188C24.8499 108.188 24.6681 108.05 24.6681 107.889Z" fill="#CFD3DF"/>
<path d="M-0.000507956 107.889C-0.000507956 107.798 0.0904339 107.729 0.21166 107.729C0.332886 107.729 0.423828 107.798 0.423828 107.889C0.423828 107.981 0.332886 108.05 0.21166 108.05C0.0904339 108.05 -0.000507956 107.981 -0.000507956 107.889Z" fill="#CFD3DF"/>
<path d="M345.191 129.008C345.191 130.276 346.548 131.303 348.221 131.303C349.895 131.303 351.252 130.276 351.252 129.008C351.252 127.741 349.895 126.713 348.221 126.713C346.548 126.713 345.191 127.741 345.191 129.008Z" fill="#CFD3DF"/>
<path d="M320.551 129.008C320.551 127.815 321.824 126.874 323.37 126.874C324.946 126.874 326.188 127.838 326.188 129.008C326.188 130.202 324.915 131.142 323.37 131.142C321.824 131.142 320.551 130.179 320.551 129.008Z" fill="#CFD3DF"/>
<path d="M295.882 129.008C295.882 127.907 297.064 127.012 298.518 127.012C299.973 127.012 301.155 127.907 301.155 129.008C301.155 130.11 299.973 131.005 298.518 131.005C297.064 130.982 295.882 130.11 295.882 129.008Z" fill="#CFD3DF"/>
<path d="M271.242 129.008C271.242 127.999 272.334 127.172 273.667 127.172C275.001 127.172 276.092 127.999 276.092 129.008C276.092 130.018 275.001 130.844 273.667 130.844C272.334 130.844 271.242 130.018 271.242 129.008Z" fill="#CFD3DF"/>
<path d="M246.573 129.008C246.573 128.067 247.573 127.333 248.785 127.333C250.028 127.333 250.997 128.09 250.997 129.008C250.997 129.926 249.997 130.683 248.785 130.683C247.573 130.683 246.573 129.926 246.573 129.008Z" fill="#CFD3DF"/>
<path d="M221.934 129.008C221.934 128.159 222.843 127.471 223.964 127.471C225.085 127.471 225.995 128.159 225.995 129.008C225.995 129.857 225.085 130.546 223.964 130.546C222.812 130.523 221.934 129.857 221.934 129.008Z" fill="#CFD3DF"/>
<path d="M197.264 129.008C197.264 129.769 198.078 130.385 199.082 130.385C200.086 130.385 200.9 129.769 200.9 129.008C200.9 128.248 200.086 127.631 199.082 127.631C198.078 127.631 197.264 128.248 197.264 129.008Z" fill="#CFD3DF"/>
<path d="M172.594 129.008C172.594 128.343 173.321 127.792 174.2 127.792C175.079 127.792 175.806 128.343 175.806 129.008C175.806 129.674 175.079 130.224 174.2 130.224C173.321 130.224 172.594 129.674 172.594 129.008Z" fill="#CFD3DF"/>
<path d="M147.955 129.008C147.955 128.412 148.591 127.93 149.379 127.93C150.167 127.93 150.804 128.412 150.804 129.008C150.804 129.605 150.167 130.087 149.379 130.087C148.591 130.064 147.955 129.605 147.955 129.008Z" fill="#CFD3DF"/>
<path d="M123.286 129.008C123.286 128.503 123.832 128.09 124.498 128.09C125.165 128.09 125.711 128.503 125.711 129.008C125.711 129.513 125.165 129.926 124.498 129.926C123.832 129.926 123.286 129.513 123.286 129.008Z" fill="#CFD3DF"/>
<path d="M98.6467 129.008C98.6467 128.595 99.1013 128.251 99.6468 128.251C100.192 128.251 100.647 128.595 100.647 129.008C100.647 129.421 100.192 129.766 99.6468 129.766C99.1013 129.766 98.6467 129.421 98.6467 129.008Z" fill="#CFD3DF"/>
<path d="M73.9772 129.008C73.9772 129.351 74.3436 129.628 74.7955 129.628C75.2474 129.628 75.6138 129.351 75.6138 129.008C75.6138 128.666 75.2474 128.389 74.7955 128.389C74.3436 128.389 73.9772 128.666 73.9772 129.008Z" fill="#CFD3DF"/>
<path d="M49.3075 129.008C49.3075 128.756 49.5802 128.549 49.9136 128.549C50.247 128.549 50.5198 128.756 50.5198 129.008C50.5198 129.261 50.247 129.467 49.9136 129.467C49.5802 129.467 49.3075 129.261 49.3075 129.008Z" fill="#CFD3DF"/>
<path d="M24.6681 129.008C24.6681 128.847 24.8499 128.71 25.0621 128.71C25.2742 128.71 25.4561 128.847 25.4561 129.008C25.4561 129.169 25.2742 129.306 25.0621 129.306C24.8499 129.306 24.6681 129.169 24.6681 129.008Z" fill="#CFD3DF"/>
<path d="M-0.000507956 129.008C-0.000507956 128.916 0.0904339 128.848 0.21166 128.848C0.332886 128.848 0.423828 128.916 0.423828 129.008C0.423828 129.1 0.332886 129.169 0.21166 129.169C0.0904339 129.146 -0.000507956 129.077 -0.000507956 129.008Z" fill="#CFD3DF"/>
<path d="M345.191 150.127C345.191 151.394 346.548 152.422 348.221 152.422C349.895 152.422 351.252 151.394 351.252 150.127C351.252 148.86 349.895 147.832 348.221 147.832C346.548 147.832 345.191 148.86 345.191 150.127Z" fill="#CFD3DF"/>
<path d="M320.551 150.127C320.551 148.934 321.824 147.993 323.37 147.993C324.946 147.993 326.188 148.957 326.188 150.127C326.188 151.32 324.915 152.261 323.37 152.261C321.824 152.284 320.551 151.32 320.551 150.127Z" fill="#CFD3DF"/>
<path d="M295.882 150.127C295.882 149.026 297.064 148.131 298.518 148.131C299.973 148.131 301.155 149.026 301.155 150.127C301.155 151.229 299.973 152.124 298.518 152.124C297.064 152.124 295.882 151.229 295.882 150.127Z" fill="#CFD3DF"/>
<path d="M271.242 150.127C271.242 151.141 272.328 151.963 273.667 151.963C275.006 151.963 276.092 151.141 276.092 150.127C276.092 149.113 275.006 148.291 273.667 148.291C272.328 148.291 271.242 149.113 271.242 150.127Z" fill="#CFD3DF"/>
<path d="M246.573 150.127C246.573 149.186 247.573 148.452 248.785 148.452C250.028 148.452 250.997 149.209 250.997 150.127C250.997 151.045 249.997 151.802 248.785 151.802C247.573 151.825 246.573 151.068 246.573 150.127Z" fill="#CFD3DF"/>
<path d="M221.934 150.127C221.934 149.278 222.843 148.589 223.964 148.589C225.085 148.589 225.995 149.278 225.995 150.127C225.995 150.976 225.085 151.665 223.964 151.665C222.812 151.665 221.934 150.976 221.934 150.127Z" fill="#CFD3DF"/>
<path d="M197.264 150.127C197.264 150.888 198.078 151.504 199.082 151.504C200.086 151.504 200.9 150.888 200.9 150.127C200.9 149.367 200.086 148.75 199.082 148.75C198.078 148.75 197.264 149.367 197.264 150.127Z" fill="#CFD3DF"/>
<path d="M172.594 150.127C172.594 149.461 173.321 148.911 174.2 148.911C175.079 148.911 175.806 149.461 175.806 150.127C175.806 150.792 175.079 151.343 174.2 151.343C173.321 151.366 172.594 150.815 172.594 150.127Z" fill="#CFD3DF"/>
<path d="M147.955 150.127C147.955 149.53 148.591 149.049 149.379 149.049C150.167 149.049 150.804 149.53 150.804 150.127C150.804 150.724 150.167 151.206 149.379 151.206C148.591 151.206 147.955 150.724 147.955 150.127Z" fill="#CFD3DF"/>
<path d="M123.286 150.127C123.286 149.622 123.832 149.209 124.498 149.209C125.165 149.209 125.711 149.622 125.711 150.127C125.711 150.632 125.165 151.045 124.498 151.045C123.832 151.045 123.286 150.655 123.286 150.127Z" fill="#CFD3DF"/>
<path d="M98.6467 150.127C98.6467 149.714 99.1013 149.37 99.6468 149.37C100.192 149.37 100.647 149.714 100.647 150.127C100.647 150.54 100.192 150.884 99.6468 150.884C99.1013 150.907 98.6467 150.563 98.6467 150.127Z" fill="#CFD3DF"/>
<path d="M73.9772 150.127C73.9772 149.783 74.3409 149.507 74.7955 149.507C75.2501 149.507 75.6138 149.783 75.6138 150.127C75.6138 150.471 75.2501 150.747 74.7955 150.747C74.3409 150.747 73.9772 150.471 73.9772 150.127Z" fill="#CFD3DF"/>
<path d="M49.3075 150.127C49.3075 150.381 49.5789 150.586 49.9136 150.586C50.2484 150.586 50.5198 150.381 50.5198 150.127C50.5198 149.874 50.2484 149.668 49.9136 149.668C49.5789 149.668 49.3075 149.874 49.3075 150.127Z" fill="#CFD3DF"/>
<path d="M24.6681 150.127C24.6681 149.966 24.8499 149.829 25.0621 149.829C25.2742 149.829 25.4561 149.966 25.4561 150.127C25.4561 150.288 25.2742 150.425 25.0621 150.425C24.8499 150.448 24.6681 150.311 24.6681 150.127Z" fill="#CFD3DF"/>
<path d="M-0.000507956 150.127C-0.000507956 150.035 0.0904339 149.966 0.21166 149.966C0.332886 149.966 0.423828 150.035 0.423828 150.127C0.423828 150.219 0.332886 150.288 0.21166 150.288C0.0904339 150.288 -0.000507956 150.219 -0.000507956 150.127Z" fill="#CFD3DF"/>
<path d="M345.191 171.246C345.191 172.513 346.548 173.541 348.221 173.541C349.895 173.541 351.252 172.513 351.252 171.246C351.252 169.978 349.895 168.951 348.221 168.951C346.548 168.951 345.191 169.978 345.191 171.246Z" fill="#CFD3DF"/>
<path d="M320.551 171.246C320.551 170.053 321.824 169.112 323.37 169.112C324.946 169.112 326.188 170.076 326.188 171.246C326.188 172.416 324.915 173.38 323.37 173.38C321.824 173.403 320.551 172.439 320.551 171.246Z" fill="#CFD3DF"/>
<path d="M295.882 171.246C295.882 172.349 297.062 173.243 298.518 173.243C299.974 173.243 301.155 172.349 301.155 171.246C301.155 170.143 299.974 169.25 298.518 169.25C297.062 169.25 295.882 170.143 295.882 171.246Z" fill="#CFD3DF"/>
<path d="M271.242 171.246C271.242 172.26 272.328 173.082 273.667 173.082C275.006 173.082 276.092 172.26 276.092 171.246C276.092 170.232 275.006 169.41 273.667 169.41C272.328 169.41 271.242 170.232 271.242 171.246Z" fill="#CFD3DF"/>
<path d="M246.573 171.246C246.573 170.328 247.573 169.571 248.785 169.571C250.028 169.571 250.997 170.328 250.997 171.246C250.997 172.187 249.997 172.921 248.785 172.921C247.573 172.944 246.573 172.187 246.573 171.246Z" fill="#CFD3DF"/>
<path d="M221.934 171.246C221.934 170.397 222.843 169.708 223.964 169.708C225.085 169.708 225.995 170.397 225.995 171.246C225.995 172.095 225.085 172.784 223.964 172.784C222.812 172.784 221.934 172.095 221.934 171.246Z" fill="#CFD3DF"/>
<path d="M197.264 171.246C197.264 172.006 198.078 172.623 199.082 172.623C200.086 172.623 200.9 172.006 200.9 171.246C200.9 170.485 200.086 169.869 199.082 169.869C198.078 169.869 197.264 170.485 197.264 171.246Z" fill="#CFD3DF"/>
<path d="M172.594 171.246C172.594 170.58 173.321 170.03 174.2 170.03C175.079 170.03 175.806 170.58 175.806 171.246C175.806 171.911 175.079 172.462 174.2 172.462C173.321 172.485 172.594 171.934 172.594 171.246Z" fill="#CFD3DF"/>
<path d="M147.955 171.246C147.955 170.649 148.591 170.168 149.379 170.168C150.167 170.168 150.804 170.649 150.804 171.246C150.804 171.843 150.167 172.325 149.379 172.325C148.591 172.325 147.955 171.843 147.955 171.246Z" fill="#CFD3DF"/>
<path d="M123.286 171.246C123.286 170.741 123.832 170.328 124.498 170.328C125.165 170.328 125.711 170.741 125.711 171.246C125.711 171.751 125.165 172.164 124.498 172.164C123.832 172.164 123.286 171.751 123.286 171.246Z" fill="#CFD3DF"/>
<path d="M98.6467 171.246C98.6467 170.833 99.1013 170.489 99.6468 170.489C100.192 170.489 100.647 170.833 100.647 171.246C100.647 171.659 100.192 172.003 99.6468 172.003C99.1013 172.026 98.6467 171.682 98.6467 171.246Z" fill="#CFD3DF"/>
<path d="M73.9772 171.246C73.9772 171.588 74.3436 171.866 74.7955 171.866C75.2474 171.866 75.6138 171.588 75.6138 171.246C75.6138 170.904 75.2474 170.626 74.7955 170.626C74.3436 170.626 73.9772 170.904 73.9772 171.246Z" fill="#CFD3DF"/>
<path d="M49.3075 171.246C49.3075 171.499 49.5789 171.705 49.9136 171.705C50.2484 171.705 50.5198 171.499 50.5198 171.246C50.5198 170.992 50.2484 170.787 49.9136 170.787C49.5789 170.787 49.3075 170.992 49.3075 171.246Z" fill="#CFD3DF"/>
<path d="M24.6681 171.246C24.6681 171.411 24.8445 171.544 25.0621 171.544C25.2796 171.544 25.4561 171.411 25.4561 171.246C25.4561 171.081 25.2796 170.947 25.0621 170.947C24.8445 170.947 24.6681 171.081 24.6681 171.246Z" fill="#CFD3DF"/>
<path d="M-0.000507956 171.246C-0.000507956 171.154 0.0904339 171.085 0.21166 171.085C0.332886 171.085 0.423828 171.154 0.423828 171.246C0.423828 171.338 0.332886 171.406 0.21166 171.406C0.0904339 171.406 -0.000507956 171.338 -0.000507956 171.246Z" fill="#CFD3DF"/>
<path d="M345.191 192.365C345.191 193.632 346.548 194.66 348.221 194.66C349.895 194.66 351.252 193.632 351.252 192.365C351.252 191.097 349.895 190.07 348.221 190.07C346.548 190.07 345.191 191.097 345.191 192.365Z" fill="#CFD3DF"/>
<path d="M320.551 192.365C320.551 191.171 321.824 190.23 323.37 190.23C324.946 190.23 326.188 191.194 326.188 192.365C326.188 193.558 324.915 194.499 323.37 194.499C321.824 194.499 320.551 193.558 320.551 192.365Z" fill="#CFD3DF"/>
<path d="M295.882 192.365C295.882 191.263 297.064 190.368 298.518 190.368C299.973 190.368 301.155 191.263 301.155 192.365C301.155 193.466 299.973 194.361 298.518 194.361C297.064 194.361 295.882 193.466 295.882 192.365Z" fill="#CFD3DF"/>
<path d="M271.242 192.365C271.242 193.379 272.328 194.201 273.667 194.201C275.006 194.201 276.092 193.379 276.092 192.365C276.092 191.351 275.006 190.529 273.667 190.529C272.328 190.529 271.242 191.351 271.242 192.365Z" fill="#CFD3DF"/>
<path d="M246.573 192.365C246.573 191.424 247.573 190.689 248.785 190.689C250.028 190.689 250.997 191.447 250.997 192.365C250.997 193.306 249.997 194.04 248.785 194.04C247.573 194.04 246.573 193.283 246.573 192.365Z" fill="#CFD3DF"/>
<path d="M221.934 192.365C221.934 191.516 222.843 190.827 223.964 190.827C225.085 190.827 225.995 191.516 225.995 192.365C225.995 193.214 225.085 193.902 223.964 193.902C222.812 193.902 221.934 193.214 221.934 192.365Z" fill="#CFD3DF"/>
<path d="M197.264 192.365C197.264 193.125 198.078 193.742 199.082 193.742C200.086 193.742 200.9 193.125 200.9 192.365C200.9 191.604 200.086 190.988 199.082 190.988C198.078 190.988 197.264 191.604 197.264 192.365Z" fill="#CFD3DF"/>
<path d="M172.594 192.365C172.594 191.699 173.321 191.148 174.2 191.148C175.079 191.148 175.806 191.699 175.806 192.365C175.806 193.03 175.079 193.581 174.2 193.581C173.321 193.581 172.594 193.03 172.594 192.365Z" fill="#CFD3DF"/>
<path d="M147.955 192.365C147.955 191.768 148.591 191.286 149.379 191.286C150.167 191.286 150.804 191.768 150.804 192.365C150.804 192.962 150.167 193.443 149.379 193.443C148.591 193.443 147.955 192.962 147.955 192.365Z" fill="#CFD3DF"/>
<path d="M123.286 192.365C123.286 191.86 123.832 191.447 124.498 191.447C125.165 191.447 125.711 191.86 125.711 192.365C125.711 192.87 125.165 193.283 124.498 193.283C123.832 193.283 123.286 192.87 123.286 192.365Z" fill="#CFD3DF"/>
<path d="M98.6467 192.365C98.6467 191.952 99.1013 191.607 99.6468 191.607C100.192 191.607 100.647 191.952 100.647 192.365C100.647 192.778 100.192 193.122 99.6468 193.122C99.1013 193.122 98.6467 192.778 98.6467 192.365Z" fill="#CFD3DF"/>
<path d="M73.9772 192.365C73.9772 192.021 74.3409 191.745 74.7955 191.745C75.2501 191.745 75.6138 192.021 75.6138 192.365C75.6138 192.709 75.2501 192.984 74.7955 192.984C74.3409 192.984 73.9772 192.709 73.9772 192.365Z" fill="#CFD3DF"/>
<path d="M49.3075 192.365C49.3075 192.618 49.5789 192.824 49.9136 192.824C50.2484 192.824 50.5198 192.618 50.5198 192.365C50.5198 192.111 50.2484 191.906 49.9136 191.906C49.5789 191.906 49.3075 192.111 49.3075 192.365Z" fill="#CFD3DF"/>
<path d="M24.6681 192.365C24.6681 192.204 24.8499 192.066 25.0621 192.066C25.2742 192.066 25.4561 192.204 25.4561 192.365C25.4561 192.525 25.2742 192.663 25.0621 192.663C24.8499 192.663 24.6681 192.525 24.6681 192.365Z" fill="#CFD3DF"/>
<path d="M-0.000507956 192.365C-0.000507956 192.273 0.0904339 192.204 0.21166 192.204C0.332886 192.204 0.423828 192.273 0.423828 192.365C0.423828 192.456 0.332886 192.525 0.21166 192.525C0.0904339 192.525 -0.000507956 192.456 -0.000507956 192.365Z" fill="#CFD3DF"/>
<path d="M345.191 213.483C345.191 214.751 346.548 215.778 348.221 215.778C349.895 215.778 351.252 214.751 351.252 213.483C351.252 212.216 349.895 211.189 348.221 211.189C346.548 211.189 345.191 212.216 345.191 213.483Z" fill="#CFD3DF"/>
<path d="M320.551 213.483C320.551 212.29 321.824 211.349 323.37 211.349C324.946 211.349 326.188 212.313 326.188 213.483C326.188 214.676 324.915 215.617 323.37 215.617C321.824 215.617 320.551 214.653 320.551 213.483Z" fill="#CFD3DF"/>
<path d="M295.882 213.484C295.882 212.382 297.064 211.487 298.518 211.487C299.973 211.487 301.155 212.382 301.155 213.484C301.155 214.585 299.973 215.48 298.518 215.48C297.064 215.457 295.882 214.585 295.882 213.484Z" fill="#CFD3DF"/>
<path d="M271.242 213.483C271.242 214.497 272.328 215.319 273.667 215.319C275.006 215.319 276.092 214.497 276.092 213.483C276.092 212.47 275.006 211.648 273.667 211.648C272.328 211.648 271.242 212.47 271.242 213.483Z" fill="#CFD3DF"/>
<path d="M246.573 213.483C246.573 212.542 247.573 211.808 248.785 211.808C250.028 211.808 250.997 212.565 250.997 213.483C250.997 214.401 249.997 215.159 248.785 215.159C247.573 215.159 246.573 214.401 246.573 213.483Z" fill="#CFD3DF"/>
<path d="M221.934 213.484C221.934 212.634 222.843 211.946 223.964 211.946C225.085 211.946 225.995 212.634 225.995 213.484C225.995 214.333 225.085 215.021 223.964 215.021C222.812 214.998 221.934 214.333 221.934 213.484Z" fill="#CFD3DF"/>
<path d="M197.264 213.483C197.264 212.726 198.082 212.106 199.082 212.106C200.082 212.106 200.9 212.726 200.9 213.483C200.9 214.24 200.082 214.86 199.082 214.86C198.082 214.86 197.264 214.24 197.264 213.483Z" fill="#CFD3DF"/>
<path d="M172.594 213.483C172.594 212.818 173.321 212.267 174.2 212.267C175.079 212.267 175.806 212.818 175.806 213.483C175.806 214.149 175.079 214.699 174.2 214.699C173.321 214.699 172.594 214.149 172.594 213.483Z" fill="#CFD3DF"/>
<path d="M147.955 213.483C147.955 212.887 148.591 212.405 149.379 212.405C150.167 212.405 150.804 212.887 150.804 213.483C150.804 214.08 150.167 214.562 149.379 214.562C148.591 214.539 147.955 214.057 147.955 213.483Z" fill="#CFD3DF"/>
<path d="M123.286 213.483C123.286 212.978 123.832 212.565 124.498 212.565C125.165 212.565 125.711 212.978 125.711 213.483C125.711 213.988 125.165 214.401 124.498 214.401C123.832 214.401 123.286 213.988 123.286 213.483Z" fill="#CFD3DF"/>
<path d="M98.6467 213.483C98.6467 213.901 99.0945 214.24 99.6468 214.24C100.199 214.24 100.647 213.901 100.647 213.483C100.647 213.065 100.199 212.726 99.6468 212.726C99.0945 212.726 98.6467 213.065 98.6467 213.483Z" fill="#CFD3DF"/>
<path d="M73.9772 213.483C73.9772 213.139 74.3409 212.864 74.7955 212.864C75.2501 212.864 75.6138 213.139 75.6138 213.483C75.6138 213.828 75.2501 214.103 74.7955 214.103C74.3409 214.08 73.9772 213.805 73.9772 213.483Z" fill="#CFD3DF"/>
<path d="M49.3075 213.483C49.3075 213.737 49.5789 213.942 49.9136 213.942C50.2484 213.942 50.5198 213.737 50.5198 213.483C50.5198 213.23 50.2484 213.024 49.9136 213.024C49.5789 213.024 49.3075 213.23 49.3075 213.483Z" fill="#CFD3DF"/>
<path d="M24.6681 213.483C24.6681 213.323 24.8499 213.185 25.0621 213.185C25.2742 213.185 25.4561 213.323 25.4561 213.483C25.4561 213.644 25.2742 213.782 25.0621 213.782C24.8499 213.782 24.6681 213.644 24.6681 213.483Z" fill="#CFD3DF"/>
<path d="M-0.000507956 213.483C-0.000507956 213.392 0.0904339 213.323 0.21166 213.323C0.332886 213.323 0.423828 213.392 0.423828 213.483C0.423828 213.575 0.332886 213.644 0.21166 213.644C0.0904339 213.621 -0.000507956 213.552 -0.000507956 213.483Z" fill="#CFD3DF"/>
<path d="M345.191 234.602C345.191 235.87 346.548 236.897 348.221 236.897C349.895 236.897 351.252 235.87 351.252 234.602C351.252 233.335 349.895 232.307 348.221 232.307C346.548 232.307 345.191 233.335 345.191 234.602Z" fill="#CFD3DF"/>
<path d="M320.551 234.602C320.551 233.409 321.824 232.468 323.37 232.468C324.946 232.468 326.188 233.432 326.188 234.602C326.188 235.795 324.915 236.736 323.37 236.736C321.824 236.759 320.551 235.795 320.551 234.602Z" fill="#CFD3DF"/>
<path d="M295.882 234.602C295.882 233.501 297.064 232.606 298.518 232.606C299.973 232.606 301.155 233.501 301.155 234.602C301.155 235.704 299.973 236.599 298.518 236.599C297.064 236.599 295.882 235.704 295.882 234.602Z" fill="#CFD3DF"/>
<path d="M271.242 234.602C271.242 233.592 272.334 232.766 273.667 232.766C275.001 232.766 276.092 233.592 276.092 234.602C276.092 235.612 275.001 236.438 273.667 236.438C272.334 236.438 271.242 235.635 271.242 234.602Z" fill="#CFD3DF"/>
<path d="M246.573 234.602C246.573 233.661 247.573 232.927 248.785 232.927C250.028 232.927 250.997 233.684 250.997 234.602C250.997 235.52 249.997 236.277 248.785 236.277C247.573 236.3 246.573 235.543 246.573 234.602Z" fill="#CFD3DF"/>
<path d="M221.934 234.602C221.934 233.753 222.843 233.065 223.964 233.065C225.085 233.065 225.995 233.753 225.995 234.602C225.995 235.451 225.085 236.14 223.964 236.14C222.812 236.14 221.934 235.451 221.934 234.602Z" fill="#CFD3DF"/>
<path d="M197.264 234.602C197.264 233.845 198.082 233.225 199.082 233.225C200.082 233.225 200.9 233.845 200.9 234.602C200.9 235.36 200.082 235.979 199.082 235.979C198.082 235.979 197.264 235.383 197.264 234.602Z" fill="#CFD3DF"/>
<path d="M172.594 234.602C172.594 233.937 173.321 233.386 174.2 233.386C175.079 233.386 175.806 233.937 175.806 234.602C175.806 235.268 175.079 235.819 174.2 235.819C173.321 235.842 172.594 235.291 172.594 234.602Z" fill="#CFD3DF"/>
<path d="M147.955 234.603C147.955 234.006 148.591 233.524 149.379 233.524C150.167 233.524 150.804 234.006 150.804 234.603C150.804 235.199 150.167 235.681 149.379 235.681C148.591 235.681 147.955 235.199 147.955 234.603Z" fill="#CFD3DF"/>
<path d="M123.286 234.602C123.286 234.097 123.832 233.684 124.498 233.684C125.165 233.684 125.711 234.097 125.711 234.602C125.711 235.107 125.165 235.52 124.498 235.52C123.832 235.52 123.286 235.13 123.286 234.602Z" fill="#CFD3DF"/>
<path d="M98.6467 234.602C98.6467 234.189 99.1013 233.845 99.6468 233.845C100.192 233.845 100.647 234.189 100.647 234.602C100.647 235.015 100.192 235.359 99.6468 235.359C99.1013 235.382 98.6467 235.038 98.6467 234.602Z" fill="#CFD3DF"/>
<path d="M73.9772 234.603C73.9772 234.258 74.3409 233.983 74.7955 233.983C75.2501 233.983 75.6138 234.258 75.6138 234.603C75.6138 234.947 75.2501 235.222 74.7955 235.222C74.3409 235.222 73.9772 234.947 73.9772 234.603Z" fill="#CFD3DF"/>
<path d="M49.3075 234.602C49.3075 234.35 49.5802 234.143 49.9136 234.143C50.247 234.143 50.5198 234.35 50.5198 234.602C50.5198 234.855 50.247 235.061 49.9136 235.061C49.5802 235.061 49.3075 234.878 49.3075 234.602Z" fill="#CFD3DF"/>
<path d="M24.6681 234.602C24.6681 234.442 24.8499 234.304 25.0621 234.304C25.2742 234.304 25.4561 234.442 25.4561 234.602C25.4561 234.763 25.2742 234.901 25.0621 234.901C24.8499 234.924 24.6681 234.786 24.6681 234.602Z" fill="#CFD3DF"/>
<path d="M-0.000507956 234.602C-0.000507956 234.511 0.0904339 234.442 0.21166 234.442C0.332886 234.442 0.423828 234.511 0.423828 234.602C0.423828 234.694 0.332886 234.763 0.21166 234.763C0.0904339 234.763 -0.000507956 234.694 -0.000507956 234.602Z" fill="#CFD3DF"/>
<path d="M345.191 255.721C345.191 256.989 346.548 258.016 348.221 258.016C349.895 258.016 351.252 256.989 351.252 255.721C351.252 254.454 349.895 253.426 348.221 253.426C346.548 253.426 345.191 254.454 345.191 255.721Z" fill="#CFD3DF"/>
<path d="M320.551 255.721C320.551 254.528 321.824 253.587 323.37 253.587C324.946 253.587 326.188 254.551 326.188 255.721C326.188 256.891 324.915 257.855 323.37 257.855C321.824 257.878 320.551 256.914 320.551 255.721Z" fill="#CFD3DF"/>
<path d="M295.882 255.721C295.882 256.824 297.062 257.718 298.518 257.718C299.974 257.718 301.155 256.824 301.155 255.721C301.155 254.619 299.974 253.725 298.518 253.725C297.062 253.725 295.882 254.619 295.882 255.721Z" fill="#CFD3DF"/>
<path d="M271.242 255.721C271.242 254.711 272.334 253.885 273.667 253.885C275.001 253.885 276.092 254.711 276.092 255.721C276.092 256.731 275.001 257.557 273.667 257.557C272.334 257.557 271.242 256.731 271.242 255.721Z" fill="#CFD3DF"/>
<path d="M246.573 255.721C246.573 254.803 247.573 254.046 248.785 254.046C250.028 254.046 250.997 254.803 250.997 255.721C250.997 256.662 249.997 257.397 248.785 257.397C247.573 257.42 246.573 256.662 246.573 255.721Z" fill="#CFD3DF"/>
<path d="M221.934 255.721C221.934 254.872 222.843 254.184 223.964 254.184C225.085 254.184 225.995 254.872 225.995 255.721C225.995 256.57 225.085 257.259 223.964 257.259C222.812 257.259 221.934 256.57 221.934 255.721Z" fill="#CFD3DF"/>
<path d="M197.264 255.721C197.264 256.482 198.078 257.098 199.082 257.098C200.086 257.098 200.9 256.482 200.9 255.721C200.9 254.961 200.086 254.344 199.082 254.344C198.078 254.344 197.264 254.961 197.264 255.721Z" fill="#CFD3DF"/>
<path d="M172.594 255.721C172.594 255.056 173.321 254.505 174.2 254.505C175.079 254.505 175.806 255.056 175.806 255.721C175.806 256.387 175.079 256.937 174.2 256.937C173.321 256.96 172.594 256.41 172.594 255.721Z" fill="#CFD3DF"/>
<path d="M147.955 255.721C147.955 255.125 148.591 254.643 149.379 254.643C150.167 254.643 150.804 255.125 150.804 255.721C150.804 256.318 150.167 256.8 149.379 256.8C148.591 256.8 147.955 256.318 147.955 255.721Z" fill="#CFD3DF"/>
<path d="M123.286 255.721C123.286 255.216 123.832 254.803 124.498 254.803C125.165 254.803 125.711 255.216 125.711 255.721C125.711 256.226 125.165 256.639 124.498 256.639C123.832 256.639 123.286 256.226 123.286 255.721Z" fill="#CFD3DF"/>
<path d="M98.6467 255.721C98.6467 255.308 99.1013 254.964 99.6468 254.964C100.192 254.964 100.647 255.308 100.647 255.721C100.647 256.134 100.192 256.478 99.6468 256.478C99.1013 256.501 98.6467 256.157 98.6467 255.721Z" fill="#CFD3DF"/>
<path d="M73.9772 255.721C73.9772 255.377 74.3409 255.102 74.7955 255.102C75.2501 255.102 75.6138 255.377 75.6138 255.721C75.6138 256.065 75.2501 256.341 74.7955 256.341C74.3409 256.341 73.9772 256.065 73.9772 255.721Z" fill="#CFD3DF"/>
<path d="M49.3075 255.721C49.3075 255.469 49.5802 255.262 49.9136 255.262C50.247 255.262 50.5198 255.469 50.5198 255.721C50.5198 255.974 50.247 256.18 49.9136 256.18C49.5802 256.18 49.3075 255.974 49.3075 255.721Z" fill="#CFD3DF"/>
<path d="M24.6681 255.721C24.6681 255.886 24.8445 256.019 25.0621 256.019C25.2796 256.019 25.4561 255.886 25.4561 255.721C25.4561 255.556 25.2796 255.423 25.0621 255.423C24.8445 255.423 24.6681 255.556 24.6681 255.721Z" fill="#CFD3DF"/>
<path d="M-0.000507956 255.721C-0.000507956 255.629 0.0904339 255.56 0.21166 255.56C0.332886 255.56 0.423828 255.629 0.423828 255.721C0.423828 255.813 0.332886 255.882 0.21166 255.882C0.0904339 255.882 -0.000507956 255.813 -0.000507956 255.721Z" fill="#CFD3DF"/>
<path d="M345.191 276.841C345.191 278.108 346.548 279.135 348.221 279.135C349.895 279.135 351.252 278.108 351.252 276.841C351.252 275.573 349.895 274.546 348.221 274.546C346.548 274.546 345.191 275.573 345.191 276.841Z" fill="#CFD3DF"/>
<path d="M320.551 276.84C320.551 275.647 321.824 274.706 323.37 274.706C324.946 274.706 326.188 275.67 326.188 276.84C326.188 278.011 324.915 278.974 323.37 278.974C321.824 278.974 320.551 278.034 320.551 276.84Z" fill="#CFD3DF"/>
<path d="M295.882 276.84C295.882 277.943 297.062 278.837 298.518 278.837C299.974 278.837 301.155 277.943 301.155 276.84C301.155 275.738 299.974 274.844 298.518 274.844C297.062 274.844 295.882 275.738 295.882 276.84Z" fill="#CFD3DF"/>
<path d="M271.242 276.84C271.242 277.854 272.328 278.676 273.667 278.676C275.006 278.676 276.092 277.854 276.092 276.84C276.092 275.826 275.006 275.004 273.667 275.004C272.328 275.004 271.242 275.826 271.242 276.84Z" fill="#CFD3DF"/>
<path d="M246.573 276.84C246.573 275.899 247.573 275.165 248.785 275.165C250.028 275.165 250.997 275.922 250.997 276.84C250.997 277.758 249.997 278.516 248.785 278.516C247.573 278.516 246.573 277.758 246.573 276.84Z" fill="#CFD3DF"/>
<path d="M221.934 276.84C221.934 275.991 222.843 275.303 223.964 275.303C225.085 275.303 225.995 275.991 225.995 276.84C225.995 277.69 225.085 278.378 223.964 278.378C222.812 278.378 221.934 277.69 221.934 276.84Z" fill="#CFD3DF"/>
<path d="M197.264 276.84C197.264 277.601 198.078 278.217 199.082 278.217C200.086 278.217 200.9 277.601 200.9 276.84C200.9 276.08 200.086 275.464 199.082 275.464C198.078 275.464 197.264 276.08 197.264 276.84Z" fill="#CFD3DF"/>
<path d="M172.594 276.84C172.594 276.175 173.321 275.624 174.2 275.624C175.079 275.624 175.806 276.175 175.806 276.84C175.806 277.506 175.079 278.057 174.2 278.057C173.321 278.057 172.594 277.506 172.594 276.84Z" fill="#CFD3DF"/>
<path d="M147.955 276.84C147.955 276.244 148.591 275.762 149.379 275.762C150.167 275.762 150.804 276.244 150.804 276.84C150.804 277.437 150.167 277.919 149.379 277.919C148.591 277.919 147.955 277.437 147.955 276.84Z" fill="#CFD3DF"/>
<path d="M123.286 276.84C123.286 276.335 123.832 275.922 124.498 275.922C125.165 275.922 125.711 276.335 125.711 276.84C125.711 277.345 125.165 277.758 124.498 277.758C123.832 277.758 123.286 277.345 123.286 276.84Z" fill="#CFD3DF"/>
<path d="M98.6467 276.84C98.6467 277.259 99.0945 277.598 99.6468 277.598C100.199 277.598 100.647 277.259 100.647 276.84C100.647 276.422 100.199 276.083 99.6468 276.083C99.0945 276.083 98.6467 276.422 98.6467 276.84Z" fill="#CFD3DF"/>
<path d="M73.9772 276.84C73.9772 276.496 74.3409 276.221 74.7955 276.221C75.2501 276.221 75.6138 276.496 75.6138 276.84C75.6138 277.185 75.2501 277.46 74.7955 277.46C74.3409 277.46 73.9772 277.185 73.9772 276.84Z" fill="#CFD3DF"/>
<path d="M49.3075 276.84C49.3075 277.094 49.5789 277.299 49.9136 277.299C50.2484 277.299 50.5198 277.094 50.5198 276.84C50.5198 276.587 50.2484 276.382 49.9136 276.382C49.5789 276.382 49.3075 276.587 49.3075 276.84Z" fill="#CFD3DF"/>
<path d="M24.6681 276.84C24.6681 277.005 24.8445 277.139 25.0621 277.139C25.2796 277.139 25.4561 277.005 25.4561 276.84C25.4561 276.676 25.2796 276.542 25.0621 276.542C24.8445 276.542 24.6681 276.676 24.6681 276.84Z" fill="#CFD3DF"/>
<path d="M-0.000507956 276.84C-0.000507956 276.749 0.0904339 276.68 0.21166 276.68C0.332886 276.68 0.423828 276.749 0.423828 276.84C0.423828 276.932 0.332886 277.001 0.21166 277.001C0.0904339 277.001 -0.000507956 276.932 -0.000507956 276.84Z" fill="#CFD3DF"/>
<path d="M345.191 297.959C345.191 299.227 346.548 300.254 348.221 300.254C349.895 300.254 351.252 299.227 351.252 297.959C351.252 296.692 349.895 295.664 348.221 295.664C346.548 295.664 345.191 296.692 345.191 297.959Z" fill="#CFD3DF"/>
<path d="M320.551 297.959C320.551 296.766 321.824 295.825 323.37 295.825C324.946 295.825 326.188 296.789 326.188 297.959C326.188 299.13 324.915 300.093 323.37 300.093C321.824 300.093 320.551 299.13 320.551 297.959Z" fill="#CFD3DF"/>
<path d="M295.882 297.959C295.882 299.062 297.062 299.956 298.518 299.956C299.974 299.956 301.155 299.062 301.155 297.959C301.155 296.857 299.974 295.963 298.518 295.963C297.062 295.963 295.882 296.857 295.882 297.959Z" fill="#CFD3DF"/>
<path d="M271.242 297.959C271.242 298.973 272.328 299.795 273.667 299.795C275.006 299.795 276.092 298.973 276.092 297.959C276.092 296.945 275.006 296.123 273.667 296.123C272.328 296.123 271.242 296.945 271.242 297.959Z" fill="#CFD3DF"/>
<path d="M246.573 297.959C246.573 297.019 247.573 296.284 248.785 296.284C250.028 296.284 250.997 297.041 250.997 297.959C250.997 298.877 249.997 299.635 248.785 299.635C247.573 299.635 246.573 298.877 246.573 297.959Z" fill="#CFD3DF"/>
<path d="M221.934 297.96C221.934 297.11 222.843 296.422 223.964 296.422C225.085 296.422 225.995 297.11 225.995 297.96C225.995 298.809 225.085 299.497 223.964 299.497C222.812 299.474 221.934 298.809 221.934 297.96Z" fill="#CFD3DF"/>
<path d="M197.264 297.96C197.264 298.72 198.078 299.336 199.082 299.336C200.086 299.336 200.9 298.72 200.9 297.96C200.9 297.199 200.086 296.583 199.082 296.583C198.078 296.583 197.264 297.199 197.264 297.96Z" fill="#CFD3DF"/>
<path d="M172.594 297.959C172.594 297.294 173.321 296.743 174.2 296.743C175.079 296.743 175.806 297.294 175.806 297.959C175.806 298.625 175.079 299.175 174.2 299.175C173.321 299.175 172.594 298.625 172.594 297.959Z" fill="#CFD3DF"/>
<path d="M147.955 297.959C147.955 297.363 148.591 296.881 149.379 296.881C150.167 296.881 150.804 297.363 150.804 297.959C150.804 298.556 150.167 299.038 149.379 299.038C148.591 299.015 147.955 298.533 147.955 297.959Z" fill="#CFD3DF"/>
<path d="M123.286 297.959C123.286 297.455 123.832 297.041 124.498 297.041C125.165 297.041 125.711 297.455 125.711 297.959C125.711 298.464 125.165 298.877 124.498 298.877C123.832 298.877 123.286 298.464 123.286 297.959Z" fill="#CFD3DF"/>
<path d="M98.6467 297.959C98.6467 297.546 99.1013 297.202 99.6468 297.202C100.192 297.202 100.647 297.546 100.647 297.959C100.647 298.373 100.192 298.717 99.6468 298.717C99.1013 298.717 98.6467 298.373 98.6467 297.959Z" fill="#CFD3DF"/>
<path d="M73.9772 297.96C73.9772 298.302 74.3436 298.579 74.7955 298.579C75.2474 298.579 75.6138 298.302 75.6138 297.96C75.6138 297.617 75.2474 297.34 74.7955 297.34C74.3436 297.34 73.9772 297.617 73.9772 297.96Z" fill="#CFD3DF"/>
<path d="M49.3075 297.959C49.3075 298.213 49.5789 298.418 49.9136 298.418C50.2484 298.418 50.5198 298.213 50.5198 297.959C50.5198 297.706 50.2484 297.5 49.9136 297.5C49.5789 297.5 49.3075 297.706 49.3075 297.959Z" fill="#CFD3DF"/>
<path d="M24.6681 297.959C24.6681 298.124 24.8445 298.257 25.0621 298.257C25.2796 298.257 25.4561 298.124 25.4561 297.959C25.4561 297.795 25.2796 297.661 25.0621 297.661C24.8445 297.661 24.6681 297.795 24.6681 297.959Z" fill="#CFD3DF"/>
<path d="M-0.000507956 297.959C-0.000507956 297.868 0.0904339 297.799 0.21166 297.799C0.332886 297.799 0.423828 297.868 0.423828 297.959C0.423828 298.051 0.332886 298.12 0.21166 298.12C0.0904339 298.097 -0.000507956 298.028 -0.000507956 297.959Z" fill="#CFD3DF"/>
<path d="M345.191 319.078C345.191 320.345 346.548 321.373 348.221 321.373C349.895 321.373 351.252 320.345 351.252 319.078C351.252 317.811 349.895 316.783 348.221 316.783C346.548 316.783 345.191 317.811 345.191 319.078Z" fill="#CFD3DF"/>
<path d="M320.551 319.078C320.551 317.884 321.824 316.944 323.37 316.944C324.946 316.944 326.188 317.907 326.188 319.078C326.188 320.271 324.915 321.212 323.37 321.212C321.824 321.235 320.551 320.271 320.551 319.078Z" fill="#CFD3DF"/>
<path d="M295.882 319.078C295.882 317.976 297.064 317.081 298.518 317.081C299.973 317.081 301.155 317.976 301.155 319.078C301.155 320.179 299.973 321.074 298.518 321.074C297.064 321.074 295.882 320.179 295.882 319.078Z" fill="#CFD3DF"/>
<path d="M271.242 319.078C271.242 318.068 272.334 317.242 273.667 317.242C275.001 317.242 276.092 318.068 276.092 319.078C276.092 320.088 275.001 320.914 273.667 320.914C272.334 320.914 271.242 320.111 271.242 319.078Z" fill="#CFD3DF"/>
<path d="M246.573 319.078C246.573 318.16 247.573 317.403 248.785 317.403C250.028 317.403 250.997 318.16 250.997 319.078C250.997 320.019 249.997 320.753 248.785 320.753C247.573 320.776 246.573 320.019 246.573 319.078Z" fill="#CFD3DF"/>
<path d="M221.934 319.078C221.934 318.229 222.843 317.541 223.964 317.541C225.085 317.541 225.995 318.229 225.995 319.078C225.995 319.927 225.085 320.616 223.964 320.616C222.812 320.616 221.934 319.927 221.934 319.078Z" fill="#CFD3DF"/>
<path d="M197.264 319.078C197.264 318.321 198.082 317.701 199.082 317.701C200.082 317.701 200.9 318.321 200.9 319.078C200.9 319.835 200.082 320.455 199.082 320.455C198.082 320.455 197.264 319.858 197.264 319.078Z" fill="#CFD3DF"/>
<path d="M172.594 319.078C172.594 318.412 173.321 317.862 174.2 317.862C175.079 317.862 175.806 318.412 175.806 319.078C175.806 319.743 175.079 320.294 174.2 320.294C173.321 320.317 172.594 319.766 172.594 319.078Z" fill="#CFD3DF"/>
<path d="M147.955 319.078C147.955 318.481 148.591 317.999 149.379 317.999C150.167 317.999 150.804 318.481 150.804 319.078C150.804 319.675 150.167 320.157 149.379 320.157C148.591 320.157 147.955 319.675 147.955 319.078Z" fill="#CFD3DF"/>
<path d="M123.286 319.078C123.286 318.573 123.832 318.16 124.498 318.16C125.165 318.16 125.711 318.573 125.711 319.078C125.711 319.583 125.165 319.996 124.498 319.996C123.832 319.996 123.286 319.606 123.286 319.078Z" fill="#CFD3DF"/>
<path d="M98.6467 319.078C98.6467 318.665 99.1013 318.32 99.6468 318.32C100.192 318.32 100.647 318.665 100.647 319.078C100.647 319.491 100.192 319.835 99.6468 319.835C99.1013 319.858 98.6467 319.514 98.6467 319.078Z" fill="#CFD3DF"/>
<path d="M73.9772 319.078C73.9772 318.734 74.3409 318.458 74.7955 318.458C75.2501 318.458 75.6138 318.734 75.6138 319.078C75.6138 319.422 75.2501 319.698 74.7955 319.698C74.3409 319.698 73.9772 319.422 73.9772 319.078Z" fill="#CFD3DF"/>
<path d="M49.3075 319.078C49.3075 318.826 49.5802 318.619 49.9136 318.619C50.247 318.619 50.5198 318.826 50.5198 319.078C50.5198 319.33 50.247 319.537 49.9136 319.537C49.5802 319.537 49.3075 319.33 49.3075 319.078Z" fill="#CFD3DF"/>
<path d="M24.6681 319.078C24.6681 318.917 24.8499 318.78 25.0621 318.78C25.2742 318.78 25.4561 318.917 25.4561 319.078C25.4561 319.239 25.2742 319.376 25.0621 319.376C24.8499 319.399 24.6681 319.262 24.6681 319.078Z" fill="#CFD3DF"/>
<path d="M-0.000507956 319.078C-0.000507956 318.986 0.0904339 318.917 0.21166 318.917C0.332886 318.917 0.423828 318.986 0.423828 319.078C0.423828 319.17 0.332886 319.239 0.21166 319.239C0.0904339 319.239 -0.000507956 319.17 -0.000507956 319.078Z" fill="#CFD3DF"/>
<path d="M345.191 340.197C345.191 341.464 346.548 342.492 348.221 342.492C349.895 342.492 351.252 341.464 351.252 340.197C351.252 338.93 349.895 337.902 348.221 337.902C346.548 337.902 345.191 338.93 345.191 340.197Z" fill="#CFD3DF"/>
<path d="M320.551 340.197C320.551 339.003 321.824 338.062 323.37 338.062C324.946 338.062 326.188 339.026 326.188 340.197C326.188 341.367 324.915 342.331 323.37 342.331C321.824 342.354 320.551 341.39 320.551 340.197Z" fill="#CFD3DF"/>
<path d="M295.882 340.197C295.882 339.095 297.064 338.2 298.518 338.2C299.973 338.2 301.155 339.095 301.155 340.197C301.155 341.298 299.973 342.193 298.518 342.193C297.064 342.193 295.882 341.298 295.882 340.197Z" fill="#CFD3DF"/>
<path d="M271.242 340.197C271.242 339.187 272.334 338.361 273.667 338.361C275.001 338.361 276.092 339.187 276.092 340.197C276.092 341.206 275.001 342.033 273.667 342.033C272.334 342.033 271.242 341.206 271.242 340.197Z" fill="#CFD3DF"/>
<path d="M246.573 340.197C246.573 339.279 247.573 338.522 248.785 338.522C250.028 338.522 250.997 339.279 250.997 340.197C250.997 341.138 249.997 341.872 248.785 341.872C247.573 341.895 246.573 341.138 246.573 340.197Z" fill="#CFD3DF"/>
<path d="M221.934 340.197C221.934 339.348 222.843 338.659 223.964 338.659C225.085 338.659 225.995 339.348 225.995 340.197C225.995 341.046 225.085 341.734 223.964 341.734C222.812 341.734 221.934 341.046 221.934 340.197Z" fill="#CFD3DF"/>
<path d="M197.264 340.197C197.264 339.44 198.082 338.82 199.082 338.82C200.082 338.82 200.9 339.44 200.9 340.197C200.9 340.954 200.082 341.574 199.082 341.574C198.082 341.574 197.264 340.954 197.264 340.197Z" fill="#CFD3DF"/>
<path d="M172.594 340.197C172.594 339.531 173.321 338.98 174.2 338.98C175.079 338.98 175.806 339.531 175.806 340.197C175.806 340.862 175.079 341.413 174.2 341.413C173.321 341.436 172.594 340.885 172.594 340.197Z" fill="#CFD3DF"/>
<path d="M147.955 340.197C147.955 339.6 148.591 339.118 149.379 339.118C150.167 339.118 150.804 339.6 150.804 340.197C150.804 340.793 150.167 341.275 149.379 341.275C148.591 341.275 147.955 340.793 147.955 340.197Z" fill="#CFD3DF"/>
<path d="M123.286 340.197C123.286 339.692 123.832 339.279 124.498 339.279C125.165 339.279 125.711 339.692 125.711 340.197C125.711 340.702 125.165 341.115 124.498 341.115C123.832 341.115 123.286 340.702 123.286 340.197Z" fill="#CFD3DF"/>
<path d="M98.6467 340.197C98.6467 339.784 99.1013 339.439 99.6468 339.439C100.192 339.439 100.647 339.784 100.647 340.197C100.647 340.61 100.192 340.954 99.6468 340.954C99.1013 340.977 98.6467 340.633 98.6467 340.197Z" fill="#CFD3DF"/>
<path d="M73.9772 340.197C73.9772 339.853 74.3409 339.577 74.7955 339.577C75.2501 339.577 75.6138 339.853 75.6138 340.197C75.6138 340.541 75.2501 340.817 74.7955 340.817C74.3409 340.817 73.9772 340.541 73.9772 340.197Z" fill="#CFD3DF"/>
<path d="M49.3075 340.197C49.3075 339.944 49.5802 339.738 49.9136 339.738C50.247 339.738 50.5198 339.944 50.5198 340.197C50.5198 340.449 50.247 340.656 49.9136 340.656C49.5802 340.656 49.3075 340.449 49.3075 340.197Z" fill="#CFD3DF"/>
<path d="M24.6681 340.197C24.6681 340.036 24.8499 339.898 25.0621 339.898C25.2742 339.898 25.4561 340.036 25.4561 340.197C25.4561 340.357 25.2742 340.495 25.0621 340.495C24.8499 340.518 24.6681 340.38 24.6681 340.197Z" fill="#CFD3DF"/>
<path d="M-0.000507956 340.197C-0.000507956 340.105 0.0904339 340.036 0.21166 340.036C0.332886 340.036 0.423828 340.105 0.423828 340.197C0.423828 340.289 0.332886 340.358 0.21166 340.358C0.0904339 340.358 -0.000507956 340.289 -0.000507956 340.197Z" fill="#CFD3DF"/>
<path d="M345.191 361.316C345.191 362.583 346.548 363.611 348.221 363.611C349.895 363.611 351.252 362.583 351.252 361.316C351.252 360.048 349.895 359.021 348.221 359.021C346.548 359.021 345.191 360.048 345.191 361.316Z" fill="#CFD3DF"/>
<path d="M320.551 361.316C320.551 360.123 321.824 359.182 323.37 359.182C324.946 359.182 326.188 360.145 326.188 361.316C326.188 362.509 324.915 363.45 323.37 363.45C321.824 363.45 320.551 362.509 320.551 361.316Z" fill="#CFD3DF"/>
<path d="M295.882 361.316C295.882 360.214 297.064 359.319 298.518 359.319C299.973 359.319 301.155 360.214 301.155 361.316C301.155 362.417 299.973 363.312 298.518 363.312C297.064 363.312 295.882 362.417 295.882 361.316Z" fill="#CFD3DF"/>
<path d="M271.242 361.316C271.242 362.33 272.328 363.152 273.667 363.152C275.006 363.152 276.092 362.33 276.092 361.316C276.092 360.302 275.006 359.48 273.667 359.48C272.328 359.48 271.242 360.302 271.242 361.316Z" fill="#CFD3DF"/>
<path d="M246.573 361.316C246.573 360.375 247.573 359.641 248.785 359.641C250.028 359.641 250.997 360.398 250.997 361.316C250.997 362.234 249.997 362.991 248.785 362.991C247.573 362.991 246.573 362.234 246.573 361.316Z" fill="#CFD3DF"/>
<path d="M221.934 361.316C221.934 360.467 222.843 359.778 223.964 359.778C225.085 359.778 225.995 360.467 225.995 361.316C225.995 362.165 225.085 362.853 223.964 362.853C222.812 362.853 221.934 362.165 221.934 361.316Z" fill="#CFD3DF"/>
<path d="M197.264 361.316C197.264 360.559 198.082 359.939 199.082 359.939C200.082 359.939 200.9 360.559 200.9 361.316C200.9 362.073 200.082 362.693 199.082 362.693C198.082 362.693 197.264 362.073 197.264 361.316Z" fill="#CFD3DF"/>
<path d="M172.594 361.316C172.594 360.65 173.321 360.1 174.2 360.1C175.079 360.1 175.806 360.65 175.806 361.316C175.806 361.981 175.079 362.532 174.2 362.532C173.321 362.532 172.594 361.981 172.594 361.316Z" fill="#CFD3DF"/>
<path d="M147.955 361.316C147.955 360.719 148.591 360.237 149.379 360.237C150.167 360.237 150.804 360.719 150.804 361.316C150.804 361.913 150.167 362.395 149.379 362.395C148.591 362.395 147.955 361.913 147.955 361.316Z" fill="#CFD3DF"/>
<path d="M123.286 361.316C123.286 360.811 123.832 360.398 124.498 360.398C125.165 360.398 125.711 360.811 125.711 361.316C125.711 361.821 125.165 362.234 124.498 362.234C123.832 362.234 123.286 361.821 123.286 361.316Z" fill="#CFD3DF"/>
<path d="M98.6467 361.316C98.6467 360.903 99.1013 360.559 99.6468 360.559C100.192 360.559 100.647 360.903 100.647 361.316C100.647 361.729 100.192 362.073 99.6468 362.073C99.1013 362.073 98.6467 361.729 98.6467 361.316Z" fill="#CFD3DF"/>
<path d="M73.9772 361.316C73.9772 360.972 74.3409 360.696 74.7955 360.696C75.2501 360.696 75.6138 360.972 75.6138 361.316C75.6138 361.66 75.2501 361.936 74.7955 361.936C74.3409 361.936 73.9772 361.66 73.9772 361.316Z" fill="#CFD3DF"/>
<path d="M49.3075 361.316C49.3075 361.569 49.5789 361.775 49.9136 361.775C50.2484 361.775 50.5198 361.569 50.5198 361.316C50.5198 361.063 50.2484 360.857 49.9136 360.857C49.5789 360.857 49.3075 361.063 49.3075 361.316Z" fill="#CFD3DF"/>
<path d="M24.6681 361.316C24.6681 361.155 24.8499 361.017 25.0621 361.017C25.2742 361.017 25.4561 361.155 25.4561 361.316C25.4561 361.476 25.2742 361.614 25.0621 361.614C24.8499 361.614 24.6681 361.476 24.6681 361.316Z" fill="#CFD3DF"/>
<path d="M-0.000507956 361.316C-0.000507956 361.224 0.0904339 361.155 0.21166 361.155C0.332886 361.155 0.423828 361.224 0.423828 361.316C0.423828 361.408 0.332886 361.477 0.21166 361.477C0.0904339 361.477 -0.000507956 361.408 -0.000507956 361.316Z" fill="#CFD3DF"/>
</g>
</svg>
