<svg width="371" height="365" viewBox="0 0 371 365" fill="none" xmlns="http://www.w3.org/2000/svg">
<g opacity="0.1">
<path opacity="0.5" d="M365 182.5C365 283.29 283.29 365 182.5 365C81.7099 365 0 283.29 0 182.5C0 81.7099 81.7099 0 182.5 0C283.29 0 365 81.7099 365 182.5Z" fill="url(#paint0_radial_252_644)"/>
<path d="M102.816 20.2917C102.761 20.2736 102.689 20.3098 102.562 20.3459C102.165 20.4906 101.568 20.7981 101.477 20.8523C101.387 20.9247 100.356 21.7747 100.338 21.7928C100.284 21.847 100.211 21.9013 100.248 21.9194C100.248 21.9194 100.754 22.1364 102.237 21.0874C103.087 20.5268 102.997 20.3098 102.816 20.2917Z" fill="url(#paint1_radial_252_644)"/>
<path d="M100.41 19.3333C100.374 19.2972 100.338 19.3333 100.302 19.3514C100.049 19.4419 99.4879 19.7131 99.3794 19.7674C99.2708 19.8397 99.1623 19.9482 99.1985 19.9844C99.2528 20.0206 99.4879 19.9302 99.723 19.8036C99.8315 19.7674 100.374 19.4057 100.41 19.3333Z" fill="url(#paint2_radial_252_644)"/>
<path d="M104.805 17.3802C105.239 17.2897 105.239 17.2897 105.673 17.0908C105.709 17.0727 106.107 16.9099 106.74 16.5844C106.74 16.5844 107.463 16.2046 107.572 16.1142C107.518 16.0961 107.518 16.0961 107.409 16.1323C107.373 16.1503 104.733 17.0908 102.309 18.3929L103.665 17.8685C104.027 17.7057 104.389 17.4706 104.805 17.3802Z" fill="url(#paint3_radial_252_644)"/>
<path d="M101.966 18.9899C101.948 18.9899 101.929 18.9718 101.911 18.9718C101.966 18.9176 102.002 18.8995 102.978 18.4835C103.322 18.3388 103.774 18.1399 104.027 18.0133C104.064 17.9952 104.136 17.959 104.172 17.9229C104.1 17.9229 104.027 17.9409 103.955 17.959C101.061 18.8995 98.8007 20.4006 98.4209 20.7261C98.656 20.7803 101.749 19.2612 101.929 19.1346C101.929 19.0803 101.966 19.0261 101.966 18.9899Z" fill="url(#paint4_radial_252_644)"/>
<path d="M104.913 18.7003C104.968 18.6641 105.04 18.6279 105.094 18.5737C105.203 18.4833 105.275 18.3928 105.366 18.3024C105.528 18.1396 105.727 17.9949 105.89 17.8322C105.999 17.7418 105.999 17.7237 105.999 17.7056C105.981 17.6875 105.981 17.6875 105.908 17.7056C105.311 17.9045 104.299 18.646 104.244 18.7364C104.244 18.7364 104.244 18.7365 104.244 18.7545C104.335 18.8088 104.335 18.8088 104.082 19.1705C104.154 19.1524 104.913 18.7003 104.913 18.7003Z" fill="url(#paint5_radial_252_644)"/>
<path d="M97.6613 24.0354C97.607 24.0174 97.5347 24.0535 97.4804 24.0716C97.2091 24.144 96.9921 24.2525 96.9921 24.2525C96.3048 24.5961 95.491 25.1929 95.4548 25.2653C95.4548 25.2653 95.4548 25.2833 95.4729 25.2833C95.5995 25.2833 96.9017 24.7589 97.4442 24.361C97.607 24.2344 97.8059 24.0535 97.6613 24.0354Z" fill="url(#paint6_radial_252_644)"/>
<path d="M98.9635 27.0198C98.8911 26.9655 98.8188 26.9113 98.439 26.9836C98.3666 27.0017 98.2943 27.0017 98.2219 27.0198C97.589 27.1464 96.956 27.273 96.3411 27.3996C95.5634 27.5623 93.0676 28.756 92.724 29.2443C92.724 29.2624 92.7421 29.2804 92.7421 29.2985C92.941 29.3709 93.1761 29.2624 93.3751 29.389C93.6825 29.606 93.5921 29.7326 93.5197 29.8411C93.4112 30.0219 91.7474 31.2518 91.2952 31.4869C91.1144 31.5954 91.0782 31.5773 90.9878 31.5773C90.8612 31.089 91.458 30.9262 91.458 30.5103C91.1505 30.5645 89.5952 31.3784 89.4144 31.8124C89.3963 31.8667 89.3782 31.9209 89.3782 31.9752C89.4686 32.3369 89.6675 32.6624 89.7399 33.0241C89.7761 33.1688 89.8665 33.2954 89.8665 33.4582C89.8665 33.7295 89.7037 33.9827 89.7399 34.2539C89.758 34.2901 89.758 34.3624 89.7941 34.3986C90.2644 34.8869 94.4783 32.4273 95.6357 31.2698C95.8889 31.0166 96.6304 29.5517 96.1421 29.5698C95.6177 29.5879 95.1474 29.8411 94.641 29.9677C95.6177 29.2985 96.7389 28.8464 97.7156 28.1953C97.7156 28.1591 98.9635 27.1102 98.9635 27.0198Z" fill="url(#paint7_radial_252_644)"/>
<path d="M86.8824 26.8388C88.7091 26.0249 90.2644 24.7228 92.0549 23.8366C90.2463 24.976 90.2463 24.976 90.1559 25.0845L96.3049 21.5759C96.4315 21.5036 96.6124 21.3951 96.7932 21.16C96.7209 21.1419 96.6305 21.178 96.5581 21.1961C95.2379 21.7749 86.5388 26.459 84.6941 27.9782C85.6164 27.8697 86.1952 27.1101 86.9909 26.7303C86.9548 26.7845 86.9005 26.8207 86.8824 26.8388Z" fill="url(#paint8_radial_252_644)"/>
<path d="M86.9005 39.806C86.8824 39.806 86.8462 39.806 86.81 39.8241C86.7196 39.8603 86.593 39.9145 86.3941 40.0773C85.5983 40.6922 85.0015 41.5241 84.1334 42.0667C82.6866 42.9529 82.2525 43.2242 82.1802 43.4231C82.1983 43.4231 82.1983 43.4412 82.2163 43.4593C82.3249 43.4774 82.4334 43.4593 82.777 43.3869C83.3195 43.2784 83.3919 43.2784 83.5004 43.3508C83.6993 43.4774 83.6451 43.7848 83.8983 43.8753C83.9706 43.9114 84.3685 43.8572 84.7664 43.7848C87.2622 43.3146 88.293 42.3018 88.293 42.2837C88.5643 41.9401 87.8771 40.6741 87.8771 40.656C87.6058 40.1135 86.9728 39.806 86.9005 39.806Z" fill="url(#paint9_radial_252_644)"/>
<path d="M90.3911 29.2803C90.3369 29.2803 90.2102 29.2803 89.9571 29.3526C88.6187 29.7143 87.6602 30.5462 87.606 30.6548L87.624 30.6728C87.7506 30.6728 87.8953 30.6005 88.0219 30.6548C88.0581 30.7452 88.0581 30.7633 87.9315 31.0346C87.8592 31.1973 87.6421 31.6314 87.9134 31.559C88.3655 31.4324 89.6858 30.2569 89.8485 30.1303C90.4996 29.5516 90.6624 29.3164 90.3911 29.2803Z" fill="url(#paint10_radial_252_644)"/>
<path d="M149.82 5.11817C148.933 6.22138 146.6 6.83629 145.352 7.17991C145.298 7.198 138.95 9.02462 138.679 9.40442C136.925 11.7555 141.319 12.5151 141.374 12.497C152.279 11.7013 152.424 11.8098 153.183 12.4789C153.238 12.5332 158.302 18.1578 156.656 21.2323C155.987 22.4802 155.987 22.5163 156.023 22.6972C156.149 23.3483 156.927 23.4025 157.162 23.9632C157.506 24.8132 157.162 25.7898 157.632 26.6217C159.061 26.2781 160.219 24.7951 161.937 25.5547C164.867 26.8568 163.51 29.208 163.492 29.226C162.298 30.6548 160.11 30.5824 159.025 32.192C158.428 33.0782 157.849 35.4836 158.302 36.9123C158.501 37.5815 167.037 52.0137 171.106 53.3882C169.062 23.3845 167.561 9.74804 165.482 3.27346C167.344 8.97037 168.845 20.1652 171.106 53.3882C181.324 55.3414 181.523 55.1063 182.174 54.3648C183.259 53.153 185.104 43.821 185.122 43.7305C185.394 42.3561 184.67 40.9092 185.448 39.5709C185.864 38.8837 185.918 38.8656 188.468 38.0879C196.516 35.6464 196.516 35.6464 196.715 34.1272C196.932 32.5538 197.059 31.6857 198.505 30.9442C202.014 29.1718 206.047 28.9186 209.556 27.11C210.984 26.3685 212.558 25.8983 213.878 24.9579C213.914 24.9398 214.565 24.4515 213.751 23.4025C212.558 21.8653 210.731 20.961 209.592 19.3876C208.85 18.3748 208.887 17.0907 208.38 16.0056C207.783 14.7215 208.055 14.3779 208.778 13.6545C209.773 12.6417 209.085 12.2438 207.042 11.0321C200.368 7.08949 200.314 6.99906 199.735 6.11287C199.771 6.02244 199.808 5.91393 199.844 5.84159C199.952 5.80542 200.079 5.75116 200.187 5.71499C198.234 3.79793 194.273 5.31711 193.333 1.70003C193.134 1.59152 192.863 1.46492 192.664 1.37449C192.7 1.21172 192.754 0.97661 192.809 0.813841C192.899 0.795755 193.008 0.759583 193.08 0.741497C192.212 0.614899 189.68 0.470216 189.644 0.452131C187.962 0.361704 185.81 0.723417 185.412 0.795758C183.947 1.06704 182.717 0.0904271 181.306 0.0542563C179.335 -0.0180854 174.976 -0.0180854 173.258 0.0542563C170.075 0.23511 170.075 0.235107 169.695 0.488303C169.695 0.488303 169.695 0.488303 169.677 0.488303C166.205 0.669157 166.205 0.669154 164.541 0.994692C164.505 0.994692 164.469 0.976611 164.451 1.01278C164.451 1.03087 164.469 1.03086 164.487 1.03086C164.523 1.03086 164.559 1.04895 164.595 1.04895C166.621 1.19364 166.621 1.19363 167.236 1.3564C167.073 1.37449 167.073 1.37449 164.794 1.33832C163.872 1.32023 163.51 1.32023 162.425 1.42875C154.287 2.33302 148.445 4.9554 148.391 4.99158C148.644 5.13626 148.644 5.13626 149.82 5.11817Z" fill="url(#paint11_radial_252_644)"/>
<path d="M119.02 39.5347C119.436 38.4315 119.255 37.9251 118.478 38.0517C118.459 38.0517 116.126 38.6666 115.71 39.7156C115.475 40.3124 116.434 41.8678 116.814 42.1029C117.754 42.6997 119.002 39.5709 119.02 39.5347Z" fill="url(#paint12_radial_252_644)"/>
<path d="M135.55 6.65554C135.044 6.87256 134.501 7.05342 133.977 7.25236C135.659 6.85448 141.048 5.37147 141.916 5.13636C138.299 6.33 135.442 7.28853 132.403 7.92152C131.698 8.0662 131.481 8.24706 131.21 8.446C131.21 8.64494 130.92 9.69389 130.396 10.1641C128.786 9.67581 124.608 12.0993 124.446 12.2439C124.807 12.4067 125.241 12.3344 125.603 12.5514C125.585 12.6056 125.567 12.678 125.549 12.7322C126.091 12.6599 126.29 12.6418 128.081 11.9727C125.006 13.6546 124.645 13.2567 124.409 12.9854C122.076 13.0397 121.95 13.9259 121.877 14.3599C120.557 15.228 118.821 15.3185 117.664 16.4759C117.7 16.5302 117.736 16.5844 117.772 16.6387C118.152 16.6568 118.405 16.6749 120.847 16.1866C122.637 15.8248 124.229 14.5589 126.2 14.9929C126.055 15.3365 126.055 15.3365 125.639 15.644C126.959 15.8972 131.155 13.8716 130.757 12.8408C130.613 12.8046 130.432 12.7503 130.287 12.7322C130.595 12.2982 133.38 10.5258 133.995 10.3811C137.738 9.47687 139.059 8.0662 139.095 7.75875C139.041 7.74067 138.968 7.72258 138.896 7.68641C142.368 6.78214 143.96 6.36618 145.027 5.64276C144.756 5.62467 144.756 5.62467 144.141 5.73319C144.177 5.7151 152.008 3.29165 152.406 3.16505C150.38 3.45442 150.254 3.47251 149.494 3.52676C151.429 3.00228 153.437 2.71292 155.372 2.22461C153.491 2.22461 150.344 2.62249 150.326 2.62249C150.254 2.64058 142.712 3.92464 141.084 4.53955C141.157 4.62998 141.283 4.73849 141.392 4.79274C141.084 4.88317 140.813 4.9736 140.017 4.86509C139.457 4.79274 132.982 6.36617 132.313 7.18002C132.656 7.36087 132.747 7.39704 135.55 6.65554Z" fill="url(#paint13_radial_252_644)"/>
<path d="M105.221 19.7132C105.076 19.9302 104.968 20.1653 104.805 20.3643C104.57 20.6355 104.534 20.6536 103.738 21.2866C103.81 21.0877 103.919 20.8164 104.009 20.6175C104.046 20.509 104.1 20.4185 104.1 20.31C104.028 20.2738 103.376 20.3462 102.689 21.0515C102.762 21.0515 102.834 21.0515 102.906 21.0334C102.906 21.0515 102.906 21.0877 102.906 21.1058C102.129 21.7568 101.08 21.8654 100.212 22.3537C100.338 22.426 100.483 22.2632 100.627 22.3537C100.519 22.5707 100.519 22.5707 100.537 22.6249C100.7 22.6792 100.7 22.6792 103.196 21.8654C102.4 22.2994 100.302 23.475 100.139 23.9814C100.157 23.9994 100.157 23.9994 100.157 24.0175C100.175 24.0175 102.997 22.9686 103.358 22.7696C103.593 22.6249 103.593 22.6249 105.203 21.2324C105.221 21.2505 105.257 21.3228 105.203 21.4856C105.203 21.5036 105.185 21.5217 105.185 21.5217C105.926 20.8164 105.926 20.8164 107.844 19.2249C108.26 18.8813 108.296 18.8632 108.35 18.7547C108.223 18.7185 108.223 18.7185 108.061 18.7547C108.042 18.7547 105.547 19.4962 105.294 19.6408C105.257 19.677 105.239 19.6951 105.221 19.7132Z" fill="url(#paint14_radial_252_644)"/>
<path d="M132.566 39.7155C133.724 39.6251 136.292 42.8443 136.328 42.8805C136.943 43.6762 137.576 44.5082 138.154 44.3997C139.764 44.0922 142.169 37.9612 142.188 37.8889C142.242 37.708 142.296 37.4368 142.296 37.2378L130.559 34.5793C130.884 34.3261 131.21 34.0729 134.031 32.825C135.279 32.2824 135.894 31.9931 135.84 31.6856C135.749 30.8537 131.626 26.9291 129.618 26.6036C128.732 26.4589 127.792 26.7302 126.923 26.3142C126.001 25.8621 126.128 24.3791 124.88 24.2887C123.722 24.1982 121.263 25.1206 119.454 25.8078C117.628 26.4951 117.609 26.4951 117.32 26.477C117.193 26.1876 117.067 25.8802 116.958 23.2035C116.217 22.9142 113.902 23.312 113.197 23.4386C109.67 24.2706 99.1261 33.0963 101.097 34.4527C103.069 35.791 109.815 34.4165 110.737 33.9644C110.592 33.4037 110.52 33.0239 113.468 32.6984C115.964 32.4271 116.343 31.8122 116.597 31.4143C117.212 31.7399 118.821 33.1324 118.821 33.1324C119.689 34.0548 120.051 35.3027 120.847 36.2612C121.859 37.4729 124.193 37.3463 124.211 39.5708C124.211 39.6251 123.704 44.5986 116.759 46.6784C114.68 47.2933 112.419 47.1848 110.448 48.2338C109.579 48.704 109.543 50.1689 109.797 50.3859C110.176 50.7296 111.406 50.8742 115.059 49.6444C117.845 48.704 117.845 48.704 122.818 50.8742C122.42 51.2902 122.42 51.2902 120.413 52.0498C121.516 53.0083 129.998 54.7807 131.734 53.8222C131.662 53.5509 131.662 53.5509 131.228 53.3519C131.011 53.2434 131.011 53.2434 127.231 49.7349C130.179 50.0604 131.101 50.4221 132.783 51.5615C133.109 51.7785 133.344 51.9413 133.507 51.887C134.447 51.5977 136.038 48.0348 135.261 47.2391C133.615 45.521 130.541 45.7561 129.6 43.0794C128.786 40.9092 132.53 39.7155 132.566 39.7155Z" fill="url(#paint15_radial_252_644)"/>
<path d="M94.189 22.9864C94.2975 23.0588 94.9486 22.7513 95.4911 22.4077C95.5996 22.3354 95.7805 22.2269 95.8167 22.1726H95.7986C95.7624 22.1726 95.7443 22.1726 95.7262 22.1907C95.473 22.2811 94.2071 22.8779 94.189 22.9864Z" fill="url(#paint16_radial_252_644)"/>
<path d="M159.17 29.6059L160.96 29.2442C160.96 29.2442 161.43 29.0452 161.539 28.7016C161.611 28.4846 161.539 28.3399 161.449 28.2314C161.286 27.9601 160.96 27.8697 160.779 27.6346C160.653 27.4899 160.653 27.3452 160.653 27.2729C160.653 27.2548 160.635 27.2186 160.617 27.2005C160.617 27.2005 160.382 27.0558 159.749 27.1282C158.953 27.309 156.656 28.6293 157.904 29.4069C158.193 29.5516 158.681 29.6963 159.17 29.6059Z" fill="url(#paint17_radial_252_644)"/>
<path d="M123.994 23.4026C124.012 23.4026 124.012 23.3845 124.03 23.3664C123.849 23.077 121.353 22.3355 119.508 22.6249C117.899 22.8962 118.405 23.9813 118.767 24.2887C119.997 25.3015 123.957 23.4206 123.994 23.4026Z" fill="url(#paint18_radial_252_644)"/>
<path d="M111.388 14.9929C110.882 15.1918 110.032 15.5354 109.851 15.6801C109.941 15.6801 110.014 15.6439 110.086 15.6258C110.882 15.3727 111.677 15.4269 111.677 15.4269C111.605 15.7163 111.207 15.6982 111.153 15.9876C111.261 16.1322 112.6 15.5716 112.708 15.5173C113.197 15.2641 114.77 13.8897 114.77 13.6184C114.553 13.546 114.39 13.7269 114.191 13.7269C114.372 13.3833 114.806 13.4013 115.023 13.112C114.987 13.0939 114.987 13.0939 114.879 13.1301C113.468 13.6003 111.587 14.4503 111.352 14.6131C111.659 14.7035 111.949 14.4684 112.256 14.5046C112.31 14.6312 112.148 14.7216 111.388 14.9929Z" fill="url(#paint19_radial_252_644)"/>
<path d="M104.588 22.4802C104.244 22.7153 104.136 22.8058 104.66 23.1313C105.112 23.4026 106.234 23.1494 107.21 22.3355C107.771 21.8653 108.91 20.6898 108.386 20.6355C108.332 20.6355 108.241 20.6536 108.169 20.6717C107.264 20.9249 104.751 22.3898 104.588 22.4802Z" fill="url(#paint20_radial_252_644)"/>
<path d="M120.015 14.0524C120.015 14.0343 119.997 14.0343 119.997 14.0162C119.961 14.0162 119.906 14.0343 119.87 14.0343C119.834 14.0524 119.798 14.0524 119.762 14.0705C119.038 14.2875 118.333 14.5769 117.61 14.7939C116.778 15.0471 115.909 15.2099 115.078 15.4812C114.481 15.662 114.119 15.7886 113.992 15.879C114.228 15.9333 116.651 15.5354 117.953 15.1556C118.604 14.9748 118.912 14.8482 119.798 14.2333C119.87 14.179 119.943 14.1247 120.015 14.0524Z" fill="url(#paint21_radial_252_644)"/>
<path d="M113.956 15.3183C113.974 15.3183 113.974 15.3364 113.974 15.3364C114.246 15.3002 116.741 14.2512 117.465 13.9257C117.79 13.781 117.845 13.7268 117.845 13.5821C117.845 13.4193 117.61 13.4916 117.591 13.347C117.591 13.2746 117.646 13.2023 117.591 13.1299C117.591 13.1299 117.591 13.1119 117.573 13.0938C117.573 13.0938 117.537 13.0395 117.465 13.0214C117.338 12.9853 117.284 13.0033 117.121 13.0395C117.031 13.0757 116.904 13.148 116.741 13.2565C116.199 13.6363 115.837 14.2693 115.168 14.5044C114.39 14.83 114.119 14.9385 113.956 15.3183Z" fill="url(#paint22_radial_252_644)"/>
<path d="M119.762 11.5747C121.534 10.6885 121.534 10.6704 121.57 10.6343C121.498 10.6343 121.444 10.6524 121.389 10.6704C121.371 10.6704 119.599 11.2492 119.093 11.4843C118.496 11.7737 118.713 11.9726 118.713 11.9726C118.821 12.0269 119.237 11.8279 119.762 11.5747Z" fill="url(#paint23_radial_252_644)"/>
<path d="M123.578 10.7427C124.337 10.5076 124.572 10.4533 124.826 10.5618C124.826 10.5799 124.826 10.6161 124.807 10.6523C124.59 10.7969 124.337 10.8693 123.596 11.1044C121.552 11.7555 121.028 11.9906 120.901 12.0629C120.449 12.3523 120.395 12.8948 120.594 12.9853C120.648 13.0034 120.648 13.0034 121.95 12.6236C122.474 12.4789 123.017 12.6055 123.541 12.4065C124.807 11.9544 125.875 11.1225 127.104 10.5799C127.864 10.2363 128.696 10.1459 129.437 9.76607C129.492 9.74799 129.564 9.69373 129.6 9.65756C129.564 9.62139 129.564 9.62139 129.003 9.49479C129.003 9.4767 128.985 9.45862 128.985 9.44054C129.112 9.36819 129.238 9.31394 129.365 9.2416C130.414 8.75329 130.414 8.71712 130.432 8.60861C130.324 8.57244 130.197 8.60861 130.088 8.53626C130.251 8.31924 130.649 8.2469 130.559 7.86711C130.776 7.59582 131.137 7.50539 131.336 7.23411C131.264 7.23411 131.174 7.21603 131.119 7.23411C129.853 7.54156 125.26 9.27777 124.807 9.56713C125.061 9.6033 125.278 9.49479 125.513 9.45862C125.169 9.74798 124.229 9.96501 123.813 10.0554C122.42 10.3629 121.715 11.1586 121.715 11.1767C121.878 11.2491 123.397 10.7969 123.578 10.7427Z" fill="url(#paint24_radial_252_644)"/>
<path d="M109.019 22.5524C109.127 22.5524 121.932 21.2322 125.314 17.8683C126.236 16.964 123.976 16.8193 123.939 16.8193C122.764 16.7832 117.013 18.7726 115.819 19.2428C114.752 19.6768 113.92 18.6821 114.155 18.4289C114.264 18.3204 114.426 18.2662 114.824 18.1396C116.904 17.5608 115.873 16.8917 115.656 16.8917C115.114 16.8555 114.662 17.181 114.137 17.2534C113.522 17.3257 112.943 17.1087 112.347 17.163C112.166 17.181 111.569 17.2534 111.171 17.3619C110.846 17.4885 109.851 18.5374 109.851 18.7906C110.104 18.7906 110.122 18.7906 110.647 18.6098C111.207 18.4109 112.003 18.1396 112.166 18.2481C112.491 18.447 111.46 19.7492 111.406 19.8034C110.773 20.3822 109.905 20.5992 109.326 21.2503C108.205 22.5705 108.657 22.5524 109.019 22.5524Z" fill="url(#paint25_radial_252_644)"/>
<path d="M370.336 186.363C370.046 181.281 369.811 174.462 369.287 169.398C369.07 167.879 368.853 166.469 368.654 165.166C367.442 161.133 367.333 160.482 364.946 146.231C364.982 146.285 365.018 146.358 365.037 146.412C359.195 127.006 359.195 127.006 359.086 126.066C359.123 126.102 359.141 126.12 359.159 126.156C357.097 120.08 356.157 118.018 353.353 111.959L347.096 99.7153C345.378 97.4366 343.37 95.4291 340.422 93.5482C343.171 95.3025 345.378 97.2919 347.096 99.7153C344.69 95.7727 341.598 90.4556 339.048 86.6396C328.07 71.6468 327.853 71.3755 321.053 64.0509L313.782 56.6901L313.764 56.672C313.493 56.4188 313.222 56.1656 312.932 55.9305C313.24 56.3465 313.366 56.5093 316.387 59.6561C315.844 59.3487 315.374 58.9146 314.868 58.5529C315.718 60.1083 317.255 60.9764 318.448 62.17C318.358 62.2243 318.25 62.2966 318.177 62.3509C313.095 58.2093 308.791 53.2358 303.673 49.1666C306.241 50.7581 308.248 53.1273 311.033 54.3933C310.382 53.1996 302.588 46.4718 297.469 43.3792C293.78 41.1547 293.382 40.7749 293.002 40.4313C293.219 40.5037 293.491 40.5941 293.689 40.7026C293.292 40.3771 293.057 40.1962 292.044 39.5813C291.971 39.6356 291.863 39.726 291.772 39.7983C291.447 39.6717 290.814 39.4366 288.354 37.7728C288.571 37.8632 288.861 37.9536 289.078 38.026C288.662 37.0493 284.158 34.9876 283.833 34.8972C284.032 35.4036 284.032 35.4036 284.791 36.2898C283.236 35.7472 282.44 34.1014 280.885 33.5408C281.174 34.2461 281.952 34.5897 282.241 35.2951C281.681 36.5249 281.681 36.5249 281.771 37.2845C281.916 38.4057 285.533 44.7899 285.569 44.8442C288.264 48.9857 288.155 50.4326 288.137 50.5953C287.613 54.4475 287.613 54.4475 285.497 55.9667C284.719 56.5273 284.737 56.7986 285.153 57.8114C285.207 57.9561 290.868 71.2127 296.095 68.7893C297.777 68.0116 296.945 65.2264 296.529 63.8881C296.963 64.1956 306.331 73.5096 308.067 76.4394C308.899 77.832 309.677 79.1522 311.124 79.1522C311.413 78.6277 311.558 74.9564 310.654 73.2564C308.574 69.3861 309.044 68.952 310.093 67.9754C310.129 67.0531 310.021 66.6913 307.308 64.9009C305.427 63.653 305.427 63.653 302.877 59.5295C301.9 57.9561 303.51 55.9848 302.081 54.4837C298.319 50.5772 298.319 50.5772 298.211 50.3602C298.139 50.2155 298.066 50.0166 297.994 49.8719C298.048 49.7815 298.12 49.673 298.175 49.5825C299.567 50.0528 304.233 53.1273 304.577 54.0858C304.468 54.1039 304.306 54.1039 304.197 54.122C307.814 62.2062 307.814 62.2062 311.232 65.3892C314.216 68.1744 318.756 67.7584 321.776 70.5074C321.252 70.435 320.818 70.1457 320.347 69.9648C320.257 70.0191 320.148 70.0914 320.058 70.1457C320.239 70.5074 320.492 70.8148 320.709 71.1584C318.973 70.6521 317.291 69.8925 315.482 69.6574C317.472 72.3883 320.293 74.4138 321.849 77.5064C319.895 77.4341 319.769 74.5947 317.653 74.7575C317.598 74.8479 317.508 74.9926 317.436 75.083C317.454 75.1192 319.823 79.4416 320.058 79.749C320.384 80.1469 321.975 82.1906 321.867 83.1129C320.673 83.0044 320.673 83.0044 320.438 83.0587C320.275 83.4204 320.221 83.8363 320.058 84.2161C320.112 84.2885 320.203 84.397 320.257 84.4874H320.221C314.705 84.1076 314.705 84.1076 314.669 84.6321C314.452 84.7768 314.144 84.9576 313.909 85.1023C312.77 84.4332 311.323 84.0353 309.804 83.7278L312.462 84.198C312.01 83.8544 310.816 82.9682 308.664 83.0767C307.941 83.1129 307.76 83.131 305.716 80.7618C304.215 79.0437 302.425 76.5298 302.533 74.3596C302.569 73.4734 301.231 69.7116 300.218 69.6031C300.092 69.6031 297.234 69.585 297.723 70.9776C297.94 71.5744 301.593 77.9767 304.197 80.9969C305.246 82.2086 305.3 82.3714 305.337 82.4618C305.21 82.6065 305.174 82.6427 304.396 82.7874C303.854 82.8778 303.112 83.0044 302.551 83.0948C302.389 83.3119 302.172 83.6193 302.009 83.8544C299.079 83.764 299.079 83.764 298.283 84.5598C298.428 85.3555 298.717 86.8385 299.694 89.5694C299.549 89.8226 299.368 90.1482 299.224 90.4013C296.782 90.3471 296.782 90.3471 295.408 90.8535C295.426 90.9801 295.426 90.9801 296.475 93.5663C295.914 93.9461 295.082 94.3621 294.413 94.5791C294.395 95.1759 294.232 95.9897 293.979 96.5323C291.176 96.3876 290.724 96.0621 289.494 95.1578C289.801 95.7004 290.253 96.3876 290.615 96.8759C290.525 97.1472 290.416 97.527 290.326 97.7983C289.765 98.0334 288.987 98.3228 288.39 98.4674C287.034 97.5993 287.034 97.5993 284.828 97.527C284.719 97.7802 284.556 98.1238 284.43 98.377C284.972 98.8653 285.714 99.5164 286.274 100.005C286.039 100.167 285.75 100.384 285.515 100.547C298.681 104.201 296.619 117.439 296.547 117.566C290.416 117.132 284.502 115.287 278.389 114.672C278.697 115.196 279.167 115.866 279.565 116.3C279.547 116.462 280.234 132.812 282.332 133.427C281.771 138.472 281.771 138.472 281.663 138.943C285.931 138.617 286.817 138.545 288.644 138.961C289.349 141.836 289.349 141.836 289.385 141.909L299.386 138.599C302.153 138.255 302.841 134.765 301.34 132.414C302.931 125.849 303.004 125.813 307.127 124.185C307.181 118.886 307.181 118.886 307.633 118.524C309.532 116.933 311.015 119.465 312.806 119.483C314.433 116.607 315.772 114.726 318.322 116.915C318.448 117.023 332.392 133.029 333.767 137.532C334.798 140.914 334.327 140.986 328.432 141.8C329.589 143.753 333.152 146.846 333.17 146.864C333.676 145.273 332.682 143.735 332.971 142.144C333.242 142.18 333.586 142.216 333.839 142.252C334.581 141.149 334.87 139.847 335.557 138.726C334.689 135.669 334.689 135.669 334.707 134.566C334.979 134.494 335.322 134.403 335.593 134.331C335.955 134.819 336.425 135.47 336.787 135.959C336.498 134.53 336.498 134.53 331.777 128.851C331.85 128.58 331.922 128.218 331.994 127.947C329.77 126.952 328.016 126.174 322.12 114.093C322.409 113.641 322.988 113.153 323.476 112.972L336.877 128.724C336.932 128.797 336.932 128.797 340.911 140.281L345.161 150.011C345.233 149.45 345.287 148.691 345.287 148.13C345.287 145.815 344.401 143.681 343.949 141.456C342.502 134.24 342.502 134.24 343.207 133.698C344.491 133.969 347.204 135.597 347.783 137.695C348.054 137.206 348.38 136.519 348.561 135.977C348.85 135.959 349.23 135.94 349.519 135.922C350.405 129.339 345.703 123.66 346.517 117.077C346.987 116.915 347.747 116.951 348.217 117.168C348.109 117.403 347.946 117.747 347.837 117.982C348.669 118.958 348.995 119.193 349.971 119.772C350.243 120.93 350.243 120.93 349.935 122.72C350.803 123.697 351.201 124.945 351.943 125.993C355.108 124.167 350.387 120.911 351.328 118.253C352.738 117.945 352.974 118.416 353.389 119.501C353.245 119.754 353.064 120.098 352.919 120.351C353.408 121.147 353.408 121.147 354.149 123.968C353.986 124.203 353.787 124.492 353.625 124.727C355.921 130.37 361.076 134.747 360.877 141.475C360.642 141.601 360.316 141.782 360.081 141.909C357.35 140.082 357.495 134.005 353.046 135.181C353.01 135.705 352.738 136.411 352.377 136.809C351.852 136.628 351.129 136.429 350.604 136.302C350.713 136.809 351.075 137.442 351.454 137.803C350.442 138.671 349.067 138.147 347.964 138.689C347.873 139.286 347.819 140.118 347.855 140.715C348.109 140.787 348.452 140.896 348.705 140.968C349.139 144.332 349.971 150.59 354.113 154.098C354.312 153.899 354.565 153.646 354.746 153.447C354.746 153.176 354.728 152.814 354.71 152.543C356.066 153.682 356.5 155.563 358.074 156.522C358.273 155.997 358.435 155.256 358.49 154.695C358.869 155.075 359.484 155.509 359.991 155.708C360.678 168.458 360.786 170.411 359.394 173.847C357.567 173.703 357.26 173.305 356.681 171.514C356.175 171.533 355.469 171.804 355.126 172.166C349.031 171.713 349.592 162.87 343.225 162.761C342.05 164.877 342.972 167.319 342.158 169.489C341.887 169.597 341.562 169.742 341.29 169.851C339.97 168.892 326.008 156.178 324.995 154.514C324.688 153.99 325.104 153.067 325.429 152.543C326.189 151.331 326.189 151.331 325.61 143.808C324.091 142.813 323.784 142.65 322.861 142.144C321.631 143.084 321.631 143.084 316.513 141.909C316.097 142.325 315.573 142.921 315.265 143.446C308.628 140.86 303.257 148.13 296.656 145.851C295.932 145.797 295.806 145.779 295.679 145.779C293.816 146.159 293.183 146.285 291.139 143.862C290.778 143.609 290.76 143.609 290.76 143.609C290.506 143.826 290.145 144.097 289.928 144.35C288.68 145.869 289.62 148.022 288.409 149.541C286.889 151.44 284.068 151.403 282.657 153.465C282.241 154.08 282.44 155.165 282.404 155.907C281.988 163.919 281.988 163.919 279.818 164.968C277.883 165.908 274.537 168.494 274.139 169.145C272.927 171.08 264.084 186.435 264.084 186.435C263.722 190.54 266.435 193.995 266.507 197.992C266.561 201.355 261.769 202.947 263.288 206.853C265.567 212.695 268.714 218.103 271.408 223.745C272.548 226.114 281.048 234.235 282.657 234.09C290.669 233.33 298.392 230.328 306.584 231.196C306.856 231.233 307.163 231.45 307.362 231.612C308.845 232.842 307.778 235.085 309.225 236.333C310.636 237.562 312.48 236.948 314.072 237.454C315.121 240.637 315.121 240.637 313.819 243.711C327.6 246.262 336.299 248.576 342.574 251.633C336.389 248.631 327.455 246.225 313.819 243.711C310.183 252.248 310.183 252.248 310.744 254.689C311.612 258.542 312.824 263.804 307.905 275.379C305.644 280.696 301.303 284.621 298.319 289.45C295.534 293.935 295.227 299.396 292.641 303.972C282.639 321.786 282.35 322.076 280.74 323.739C279.655 324.861 279.058 325.476 277.919 328.062C283.037 329.653 289.078 325.548 291.049 324.192L298.989 318.603L309.026 310.591C311.287 308.222 312.643 305.148 315.066 302.905C317.834 300.337 321.541 299.107 324.29 296.485C330.837 290.227 336.914 277.784 337.547 276.247C340.079 270.062 348.742 260.585 351.31 257.854C355.343 253.369 360.768 241.614 362.125 237.002C361.094 236.658 361.094 236.658 359.285 237.056C358.887 236.495 358.887 236.495 359.719 229.135C360.027 226.404 359.412 223.727 359.376 221.014C359.231 213.979 360.606 206.962 359.973 199.909L358.11 177.682C358.562 178.369 358.562 178.369 359.014 181.588C359.484 181.19 359.882 180.413 360.027 179.798C364.584 196.563 359.756 213.382 360.298 230.165C362.143 229.297 362.143 229.297 362.957 229.478C367.822 218.989 367.822 218.989 368.057 217.632C368.003 217.922 367.948 218.32 367.912 218.627C368.021 218.084 368.147 217.343 368.238 216.782L368.328 216.167L368.853 212.297C369.07 210.525 369.341 208.3 369.757 202.278C369.739 202.603 369.739 202.893 369.721 203.182C370.01 197.901 370.354 191.372 370.336 186.363ZM369.196 205.804C368.834 205.045 368.834 205.045 369.106 198.733C368.925 200.741 368.925 200.741 368.816 201.609C368.346 187.936 368.545 186.688 368.816 184.97C369.612 186.182 369.938 196.273 369.811 202.097C369.558 204.484 369.449 204.846 369.196 205.804Z" fill="url(#paint26_radial_252_644)"/>
<path d="M359.9 140.27C359.954 140.506 360.026 140.795 360.081 141.03L361.003 145.099C360.985 145.027 360.967 144.955 360.949 144.9C361.274 147.324 361.745 149.711 362.233 152.098C360.84 143.146 360.316 141.319 358.254 133.868C357.874 132.711 357.531 131.626 357.205 130.613C359.339 137.919 359.412 138.227 360.316 142.079C360.171 141.464 360.026 140.867 359.9 140.27Z" fill="url(#paint27_radial_252_644)"/>
<path d="M356.626 128.714C356.717 128.949 356.807 129.184 356.898 129.401C356.627 128.533 356.265 127.665 356.084 126.779C356.192 127.068 356.283 127.358 356.373 127.647L354.203 121.227L354.221 121.317C353.95 120.612 353.896 120.467 353.805 120.359C354.655 122.89 355.704 126.092 357.169 130.613C357.024 130.034 356.844 129.401 356.626 128.714Z" fill="url(#paint28_radial_252_644)"/>
<path d="M363.481 159.929C363.21 157.289 362.721 154.685 362.215 152.098C362.522 154.106 362.884 156.493 363.318 159.351C363.372 159.55 363.427 159.73 363.481 159.929Z" fill="url(#paint29_radial_252_644)"/>
<path d="M259.453 74.2044C259.435 74.2587 259.417 74.3129 259.381 74.3672C258.694 75.7055 258.206 78.2555 258.206 78.2917C258.025 79.3226 258.097 79.8109 258.441 80.2269C259.019 80.9322 261.75 80.6428 263.722 79.3587C264.228 79.0332 264.68 78.6715 265.205 78.4002C265.82 78.0928 266.651 78.3098 267.14 77.6406C267.411 77.2608 267.303 76.3747 266.814 75.0363C266.561 74.3491 266.272 73.915 265.964 73.481C265.458 72.7214 265.422 72.4501 265.765 71.6544C265.91 71.3107 266.145 70.7501 265.964 70.0448C265.783 69.3394 265.241 68.8692 264.825 68.5798C264.626 68.4352 264.318 68.2724 264.083 68.1639C263.45 67.8745 262.763 67.7117 262.13 67.4224C261.678 67.2053 261.515 67.0426 261.443 66.9522C261.389 66.8979 261.37 66.8798 261.316 66.8979C261.135 66.9341 257.03 67.9649 259.616 69.4118C259.779 69.5022 259.869 69.5565 260.231 69.5926C260.141 69.6831 259.978 69.7554 259.851 69.8096C258.151 70.6416 257.753 71.0575 257.356 71.4554C257.084 71.7448 256.777 72.215 256.903 72.9746C257.012 73.2459 257.157 73.6076 257.826 73.9512C258.332 74.1502 258.911 74.0597 259.453 74.2044Z" fill="url(#paint30_radial_252_644)"/>
<path d="M88.8175 25.9527C88.8175 25.9527 88.8356 25.9346 88.8175 25.9527C88.8356 25.9346 88.8356 25.9346 88.8175 25.9527C88.4196 26.1516 85.1462 28.0506 84.9834 28.2676C85.1643 28.2676 85.327 28.2676 88.8175 25.9527Z" fill="url(#paint31_radial_252_644)"/>
<path d="M346.101 151.556C346.137 151.556 346.155 151.52 346.191 151.52C346.173 151.502 346.191 151.465 346.173 151.447C346.155 151.429 344.6 149.422 344.6 149.422C344.328 149.114 344.021 149.024 343.912 148.988C343.406 148.861 342.882 148.879 342.375 148.698C341.489 148.355 341.489 148.355 341.417 148.373C341.019 148.391 340.892 148.735 341.145 149.15C341.688 150.037 345.16 151.863 346.101 151.556Z" fill="url(#paint32_radial_252_644)"/>
<path d="M313.022 127.05C313.348 127.394 314.035 127.231 314.162 127.846C314.288 128.407 314.053 128.985 314.216 129.546C314.343 129.998 314.668 130.088 314.813 130.125C315.193 130.215 317.092 129.6 317.128 128.081C317.128 127.918 317.11 127.683 317.092 127.502C317.001 126.869 316.766 126.272 316.658 125.621C316.567 124.934 316.603 124.247 316.513 123.578C316.35 122.511 315.97 122.384 315.591 122.33C314.976 122.348 313.493 122.909 312.968 123.885C312.643 124.464 312.552 126.544 313.022 127.05Z" fill="url(#paint33_radial_252_644)"/>
<path d="M303.546 126.743C303.564 126.743 304.324 125.875 304.324 125.838C304.396 125.531 303.853 125.278 302.913 125.169C301.882 125.079 300.236 125.296 300.887 126.037C301.249 126.453 302.587 127.014 303.148 126.996C303.311 126.96 303.401 126.869 303.546 126.743Z" fill="url(#paint34_radial_252_644)"/>
<path d="M313.005 118.134C312.842 118.279 312.697 118.405 312.751 118.749C312.769 118.876 312.896 119.111 313.023 119.273C313.041 119.292 314.506 121.028 314.614 121.064C314.958 120.901 314.65 118.279 314.343 116.922C314.343 116.904 313.873 114.842 313.583 114.644C313.565 114.644 313.547 114.644 313.547 114.644C313.529 114.662 313.475 114.716 313.457 114.861C313.439 114.897 313.439 114.951 313.421 114.987C313.312 115.638 313.529 116.289 313.529 116.94C313.547 117.664 313.24 117.935 313.005 118.134Z" fill="url(#paint35_radial_252_644)"/>
<path d="M352.214 156.222C352.214 156.222 353.082 156.385 353.154 156.312C353.281 156.167 353.462 154.214 353.462 154.196C353.462 154.16 353.462 154.106 353.462 154.07C353.462 153.853 353.407 153.834 353.353 153.834C353.1 153.834 352.883 153.997 352.63 153.997C352.467 153.997 352.268 153.925 352.105 153.816C351.888 153.672 351.725 153.437 351.472 153.328C351.273 153.238 351.183 153.346 351.147 153.4C350.911 153.708 351.165 155.227 351.762 155.914C351.942 156.131 352.123 156.204 352.214 156.222Z" fill="url(#paint36_radial_252_644)"/>
<path d="M70.3885 39.6976C70.4066 39.7157 70.4427 39.7519 70.4608 39.77C70.5332 39.77 70.6236 39.7338 70.6779 39.6795C71.7268 38.9561 72.6311 38.0699 73.662 37.3465C75.5428 36.0444 77.5684 34.9412 79.4312 33.6028C79.8653 33.2954 79.8653 33.2954 80.4078 32.2645C80.3897 32.2283 80.3716 32.1922 80.3536 32.156C79.7025 32.3007 79.2142 32.7528 78.6535 33.0422C79.1237 32.6262 79.1238 32.6262 79.1961 32.3007C79.178 32.2826 79.1418 32.2645 79.1238 32.2645C79.0514 32.2826 78.961 32.3007 78.9067 32.3369C76.5918 33.3135 76.5918 33.3135 66.3916 41.687C65.5054 42.4285 64.8001 43.0073 64.0586 44.5264C64.0948 44.5445 64.1309 44.5626 64.149 44.5626C66.5906 43.387 68.3087 41.3072 70.3885 39.6976Z" fill="url(#paint37_radial_252_644)"/>
<path d="M84.712 30.0039C84.9652 30.0219 85.779 29.5698 86.5748 29.1358C89.7216 27.3634 91.3493 26.6761 91.3493 26.6761C92.3621 26.2783 93.4291 26.007 94.4057 25.5006C95.1834 25.1027 98.0952 23.0591 98.1313 23.041C98.692 22.6431 98.7281 22.5888 98.8005 22.4803C98.3845 22.4442 97.9143 22.7154 97.9143 22.7154C97.0281 23.2218 96.2505 23.9272 95.3643 24.4336C96.4675 23.3484 97.7515 22.4622 98.8367 21.3409C98.8005 21.3409 98.7462 21.359 98.7101 21.359C98.6739 21.3771 95.0206 23.258 94.9121 23.7644C94.8217 24.1442 94.3334 25.0665 91.5482 25.7176C91.5302 25.6995 91.5121 25.6814 91.494 25.6634C91.5663 25.5729 91.6387 25.5006 91.711 25.4283C91.7291 25.4102 91.7653 25.374 91.7834 25.3559C92.1631 24.9399 93.4472 24.6868 92.9227 24.108C92.8504 24.1261 85.3811 27.7251 85.3269 28.7741C85.363 28.7921 85.363 28.7921 88.9439 26.8208C88.5822 27.4176 87.9131 27.6166 87.4067 28.0145C87.4971 28.0145 87.5152 28.0145 88.4014 27.5442C88.6365 27.4176 89.0886 27.1825 89.9748 26.857C89.161 27.4176 86.5024 28.8102 85.0013 29.4794C84.4226 29.6602 84.4045 29.9677 84.712 30.0039Z" fill="url(#paint38_radial_252_644)"/>
<path d="M63.9321 48.5051C64.4747 48.6317 64.8907 48.1615 65.3971 48.1796C65.4332 48.2157 65.4513 48.2519 65.4694 48.27C65.2343 48.9211 64.6194 49.2828 64.3119 49.8615C64.9268 49.8615 69.9546 47.637 72.794 45.3402C73.7164 44.5986 74.0781 44.2912 74.6025 44.1103C74.6387 44.1284 74.6749 44.1646 74.7111 44.1827C74.4759 44.6348 74.476 44.6348 74.4398 44.7253C74.6749 44.9604 76.5919 45.3763 76.5919 45.3763C78.3824 44.7795 78.3824 44.7795 80.1186 42.8263C80.1729 42.7539 80.1909 42.7359 80.209 42.7178C80.0282 42.6816 80.0282 42.6816 78.3643 43.5678C78.5452 42.971 80.2994 41.6507 81.4931 41.7231C81.9271 41.7412 81.9995 41.7231 82.1622 41.5965C82.1803 41.5965 83.0846 40.7645 82.9218 40.023C81.9814 39.4986 81.5835 38.4496 82.0899 37.8347C82.524 37.2921 86.3942 32.5538 86.3038 32.174C86.123 32.0835 85.924 32.0474 85.7432 31.9931C85.7251 31.9389 85.6889 31.8665 85.6708 31.8123C85.6527 31.8303 85.6347 31.8303 85.6166 31.8484C83.8261 33.3676 82.6144 35.4655 80.5165 36.6591C80.3175 35.791 81.2037 35.5198 81.4569 34.9049C81.4027 34.8687 81.3484 34.8325 81.2941 34.7964C80.4803 35.1038 79.7931 35.7187 78.9069 35.9176C79.142 35.5379 79.576 35.2847 79.775 34.8687C79.7569 34.8325 79.7207 34.7963 79.6845 34.7783C78.5271 35.1219 77.6409 36.0442 76.5196 36.4602C77.2068 35.5017 78.3462 35.0676 79.142 34.2176C78.4367 34.29 69.2673 40.222 69.4844 41.3252C69.5929 41.3794 69.7376 41.4518 69.8461 41.506C69.6652 41.7954 69.6652 41.8135 68.5801 42.4646C66.7535 43.5678 66.6811 43.7848 66.6811 44.0561C66.7716 44.1103 66.9162 44.1284 67.0247 44.0923C68.0375 43.8933 68.8695 43.2061 69.8822 42.9891C70.6057 42.8263 71.311 43.1518 72.0344 42.9891C70.7504 43.9838 69.0322 44.4901 68.3088 44.7072C63.5343 46.1721 63.0821 48.2881 63.9321 48.5051Z" fill="url(#paint39_radial_252_644)"/>
<path d="M105.908 57.2042C106.053 56.8063 105.655 56.8244 105.33 56.8606C105.311 56.8606 103.937 57.1138 103.575 57.5478C103.069 58.1627 103.195 59.0308 103.412 59.2117C103.937 59.6457 105.691 57.7648 105.908 57.2042Z" fill="url(#paint40_radial_252_644)"/>
<path d="M103.557 53.8402C103.611 53.8221 103.81 53.7136 103.883 53.5689C104.045 53.2434 103.792 52.7189 103.611 52.5561C103.304 52.2668 102.906 52.104 102.617 51.7965C102.11 51.2721 101.857 50.5487 101.278 50.0965C101.188 50.0242 101.061 49.9518 100.971 49.8976C100.392 49.5359 99.6688 49.6082 99.09 49.2465C98.7283 49.0114 98.7102 48.505 98.3485 48.288C98.3124 48.2699 98.24 48.2699 98.1858 48.288C97.6613 48.5412 95.8708 51.055 95.7985 51.1455C95.5634 51.471 95.274 51.9231 95.057 52.2487L93.1038 55.4136C94.2612 55.5041 94.2612 55.5041 94.3516 56.1009C94.4602 56.8424 94.4602 56.8424 94.5687 56.8243C94.7314 56.7881 95.0389 56.5349 95.6719 56.0104C96.5762 55.2328 98.1134 53.9487 99.9039 53.7498C101.152 53.6232 102.345 54.2743 103.557 53.8402Z" fill="url(#paint41_radial_252_644)"/>
<path d="M100.356 56.0105C100.338 56.0105 97.7698 56.5711 96.9198 57.2222C96.4134 57.602 96.3411 58.6871 96.6304 58.9041C97.173 59.302 100.392 57.385 100.989 56.4807C101.17 56.1732 101.206 55.8658 100.356 56.0105Z" fill="url(#paint42_radial_252_644)"/>
<path d="M93.7368 200.603C92.7602 201.001 93.3208 202.539 93.9177 202.756C94.3336 202.9 96.8656 203.389 96.8113 202.322C96.7932 201.689 95.0209 200.332 93.7368 200.603Z" fill="url(#paint43_radial_252_644)"/>
<path d="M271.281 73.5173C271.101 73.5354 271.137 73.6439 271.173 73.8248L272.403 73.9152C271.752 73.6078 271.48 73.5173 271.281 73.5173Z" fill="url(#paint44_radial_252_644)"/>
<path d="M152.026 86.5387C153.202 85.0014 153.708 83.9886 153.563 83.5003C153.491 83.4822 153.419 83.4461 153.346 83.4642C152.713 83.6812 150.995 85.128 149.675 86.7557C148.083 88.727 146.98 91.0419 145.425 93.0133C144.593 94.0622 143.417 94.8218 142.64 95.925C142.332 96.3591 142.585 96.4676 142.712 96.5399C142.911 96.6484 142.911 96.6484 147.667 97.0282C150.38 97.2452 152.37 97.4804 154.486 98.0591C154.721 98.1314 155.046 98.2399 155.299 98.258C156.077 98.3123 156.873 97.5346 157.614 98.3304C157.994 98.7283 158.03 99.4336 158.048 99.9219C158.067 100.428 158.32 100.483 158.464 100.464C159.224 100.374 160.164 98.9091 160.255 97.6793C160.4 95.6899 158.88 92.5792 157.361 90.9515C156.565 90.1015 156.565 90.1015 153.78 90.6983C152.93 90.8792 152.749 90.6983 152.55 89.993C152.171 88.6547 151.845 88.4196 151.339 88.1483C151.067 88.0036 151.067 87.9132 151.194 87.6419C151.393 87.2802 151.755 86.8642 152.026 86.5387Z" fill="url(#paint45_radial_252_644)"/>
<path d="M262.926 61.8159C263.071 62.7926 262.329 63.6968 262.727 64.6734C263.016 64.782 263.649 64.7096 264.969 63.7149C265.458 63.3532 265.874 63.0277 266.199 63.2085C267.556 63.95 265.982 65.4149 266.452 66.482C267.393 68.6341 268.496 68.9235 269.889 69.2852C272.077 69.8639 272.366 69.9363 272.764 70.2076C272.837 70.5512 272.638 70.9129 272.819 71.2565C273.415 72.3055 274.446 73.0108 274.971 74.114C275.242 75.2534 273.868 74.5843 272.855 74.114C272.421 73.9151 272.421 73.9151 271.191 73.8066C271.679 75.2353 273.289 75.9226 273.614 77.4779C273.795 78.3099 273.018 78.7439 271.896 79.2865C271.607 79.4311 271.155 79.6482 271.317 79.9737C271.408 80.1546 271.896 80.7152 274.555 80.6429C275.676 80.6067 278.027 80.5524 278.099 81.312C278.154 82.0174 277.611 81.9993 276.815 81.9993C276.038 81.9812 275.785 82.1982 275.495 82.4876C274.916 83.0121 274.844 83.8259 274.338 84.3866C273.723 85.0919 272.873 85.5079 272.24 86.1951C272.24 86.2674 272.258 86.3579 272.276 86.4121C272.638 86.5025 272.638 86.5025 277.72 85.8515C280.288 85.5259 282.892 85.7249 285.46 85.3632C285.478 85.3632 285.533 85.3632 285.551 85.3451L289.964 83.844C290 83.8078 290 83.7355 290.018 83.6993C289.095 82.795 287.938 83.5908 286.925 83.2472C286.455 81.9088 287.685 80.6971 287.178 79.3769C286.274 77.0077 285.334 77.0439 284.592 77.08C282.874 77.1705 281.717 74.7832 281.717 74.747C281.735 74.7108 281.753 74.6747 281.771 74.6385C281.879 74.6023 281.879 74.6023 283.218 74.9098C283.833 75.1268 284.646 75.4162 284.592 75.1087C284.592 75.0906 284.574 75.0726 284.574 75.0545C284.484 74.9279 284.339 74.7108 283.869 74.3491C281.789 72.7395 279.185 71.9438 277.286 70.0629C276.381 69.1586 275.712 68.0192 274.609 67.3139C272.692 66.0841 270.938 65.8309 270.051 65.7947H270.033C271.155 64.8 272.638 59.8446 269.617 59.718C269.075 59.7 268.442 59.7723 268.044 59.8265C266.145 60.0797 265.783 60.1159 265.783 59.6276C265.747 58.6329 267.465 56.752 266.073 56.6797C266.037 56.6797 262.311 56.752 261.768 58.0723C261.714 58.1989 261.786 58.3797 261.805 58.5063C261.913 59.6999 262.727 60.6404 262.926 61.8159Z" fill="url(#paint46_radial_252_644)"/>
<path d="M16.7109 110.484C17.1992 109.363 17.4524 108.169 17.9045 107.048C18.1758 106.378 18.4833 105.709 18.7365 105.04C18.7726 104.968 18.7907 104.859 18.8269 104.787C18.845 104.769 19.0258 104.154 18.7184 104.226C18.6641 104.244 18.6099 104.281 18.5737 104.299C17.5609 105.112 16.4215 110.357 16.6205 110.665C16.6566 110.592 16.6928 110.52 16.7109 110.484Z" fill="url(#paint47_radial_252_644)"/>
<path d="M238.547 36.9847C238.547 36.9123 238.565 36.84 238.547 36.7677C238.33 36.3879 237.733 35.7006 237.009 35.4113C236.883 35.357 236.72 35.3027 236.612 35.2666C235.545 34.9772 234.387 35.2304 233.32 34.7964C232.56 34.4889 232.018 33.7474 231.114 33.8017C230.083 34.0548 229.106 34.4889 228.057 34.724C227.063 34.9591 225.995 34.9049 225.001 35.2304C224.368 35.4474 224.82 36.2251 224.332 36.5145C223.807 36.8219 223.246 36.2432 222.722 36.5506C222.65 36.6049 222.541 36.6591 222.451 36.7134C222.252 37.5996 223.048 38.6305 222.071 39.4081C221.763 39.2815 219.503 37.4187 219.123 36.7134C218.273 35.1038 214.674 34.1091 213.661 34.9049C213.951 35.7187 214.945 35.5378 215.379 36.1347C215.09 37.3102 213.697 37.1294 213.119 37.9613C213.444 38.1964 214.584 38.0336 215.217 37.9251C216.338 37.7262 219.865 38.9379 217.893 40.5656C218.743 41.5965 219.865 40.7284 220.805 40.9997C221.8 41.2709 221.8 41.6507 221.818 42.5188C222.053 42.7178 222.252 42.8082 224.223 42.5912C225.525 42.4465 225.959 42.4284 226.375 42.4465C227.316 42.5188 228.202 42.9348 229.142 42.9891C229.251 42.9891 229.414 43.0071 229.54 43.0071C229.884 43.0071 230.336 42.989 232.958 42.3561C235.328 41.7773 238.963 39.1549 238.782 38.3773C238.673 37.8709 238.239 37.5453 238.095 37.057C238.257 36.9666 238.257 36.9666 238.547 36.9847Z" fill="url(#paint48_radial_252_644)"/>
<path d="M96.9561 196.353C97.987 197.71 104.498 198.198 104.624 197.438C104.679 197.022 96.3412 187.419 96.2508 187.347C95.4008 186.75 92.7965 184.959 87.9858 185.936C85.3091 186.822 83.4282 188.649 83.4102 188.703C83.7538 189.029 85.8155 188.721 87.4975 187.763C89.9028 186.388 91.5124 187.148 91.6752 187.582C91.5486 187.817 91.2231 188.161 90.4454 187.726C90.4092 187.745 90.3911 187.763 90.355 187.799C90.4454 188.956 92.3805 189.445 93.6646 189.77C96.0157 190.367 96.1785 190.873 96.6668 192.356C96.9019 193.098 97.0646 193.55 97.553 194.183C97.8966 194.617 98.1498 194.925 98.1679 195.178C98.2402 195.973 97.3359 195.937 96.9561 196.353Z" fill="url(#paint49_radial_252_644)"/>
<path d="M107.319 204.347C107.988 204.727 107.464 205.975 108.422 206.065C110.086 206.228 109.905 203.985 111.316 203.841C111.479 203.823 111.623 203.841 112.112 203.913C114.662 204.347 119.056 204.474 119.074 204.474C119.291 204.437 119.436 204.401 119.436 204.202C119.472 203.461 118.857 202.846 119.056 202.086C119.653 199.717 107.536 198.668 106.776 198.795C106.577 198.849 106.559 198.867 106.469 198.939C106.469 199.12 106.469 199.12 106.65 199.283C108.44 200.929 107.861 202.864 107.771 202.936C107.536 203.135 106.577 202.973 105.239 202.756C102.798 202.358 102.544 202.43 102.418 202.484C102.436 202.52 102.454 202.593 102.508 202.629C104.009 203.515 105.818 203.479 107.319 204.347Z" fill="url(#paint50_radial_252_644)"/>
<path d="M131.734 91.7293C130.685 92.1091 133.073 93.2666 133.561 93.5017C136.69 94.9666 137.775 93.3751 137.793 93.357C138.173 92.507 132.892 91.5304 131.734 91.7293Z" fill="url(#paint51_radial_252_644)"/>
<path d="M327.581 286.69C324.145 291.121 324.055 291.157 321.812 291.953C319.967 292.604 319.389 293.454 316.622 297.487C315.247 299.495 314.741 299.892 313.366 300.959C309.207 304.215 303.582 311.395 303.419 311.992C304.92 312.01 304.92 312.01 310.653 306.53C315.319 302.063 319.425 297.053 323.892 292.387C323.874 292.514 323.874 292.514 323.476 293.165C323.657 293.038 323.657 293.038 324.073 292.495C325.122 291.175 328.341 286.817 328.865 285.261C328.829 285.243 328.793 285.225 328.757 285.207C328.431 285.605 328.431 285.605 327.581 286.69Z" fill="url(#paint52_radial_252_644)"/>
<path d="M211.527 254.227C211.292 252.961 212.992 251.206 211.382 250.393C210.225 249.814 209.104 250.664 207.964 250.411C204.257 249.597 201.833 246.396 198.289 245.292C193.008 243.665 187.564 242.724 182.211 241.386C179.1 240.247 178.829 236.648 176.912 234.586C173.638 232.452 171.197 228.997 167.797 227.062C163.329 224.512 157.831 225.38 153.419 222.704C149.91 220.57 147.577 216.971 143.815 215.162C143.273 214.891 142.495 214.656 141.898 214.565C123.74 211.834 109.399 209.682 107.789 224.06C102.4 220.226 88.5643 226.285 89.8303 217.35C90.608 211.943 88.293 207.946 88.2749 207.946C84.061 205.812 79.7929 208.036 75.5428 207.747C76.9354 203.117 76.9354 203.117 75.9226 200.947C77.7673 196.661 77.7673 196.661 78.4365 192.754C77.6407 192.049 70.5693 186.352 69.0501 202.321C66.6086 202.159 65.0533 205.577 62.25 203.985C55.7031 200.242 53.4786 195.485 52.7371 192.971C51.8147 189.879 54.419 187.455 54.3467 184.525C54.3105 182.663 51.7966 181.74 52.4477 179.606C53.2977 176.839 58.4159 171.631 59.6095 170.708C61.7436 169.062 70.0448 170.925 70.1172 170.961C70.3342 170.781 70.6417 170.527 70.8587 170.346C70.2257 169.641 69.2853 169.406 68.5618 168.845C68.6161 168.574 68.6884 168.212 68.7608 167.941C70.4246 166.983 83.6089 165.843 83.6632 165.861C89.3058 168.882 85.8696 176.803 91.2952 179.95C97.6794 173.204 87.4249 167.218 88.5462 160.418C89.7218 153.382 96.757 151.755 100.682 147.269C100.591 147.251 100.591 147.251 100.591 147.269C100.428 147.071 100.193 146.817 100.012 146.618C100.049 146.365 100.085 146.022 100.121 145.768C100.374 145.696 100.7 145.606 100.935 145.533C100.971 145.226 101.007 144.828 101.043 144.52C100.79 144.43 100.483 144.303 100.229 144.213L101.532 131.318C101.64 133.217 101.622 139.022 101.622 139.041C102.237 138.643 102.237 138.643 102.779 130.161C103.25 131.065 104.064 131.77 104.281 132.819C105.438 130.83 105.058 128.225 106.831 126.489C106.867 126.435 114.463 122.33 115.023 122.366C115.729 115.71 115.729 115.71 119.454 112.22C120.087 112.256 120.087 112.256 130.92 105.98C130.812 106.216 130.667 106.505 130.559 106.74C131.119 106.957 131.897 107.156 132.512 107.138C132.512 107.427 132.512 107.789 132.512 108.078C126.236 112.527 126.236 112.527 126.164 113.829C130.414 113.902 143.472 106.306 141.139 100.428C139.348 101.64 139.276 103.846 138.191 105.474C136.798 105.076 135.659 104.769 134.718 104.479C135.659 104.28 136.382 103.268 136.382 103.268C136.382 103.25 136.4 103.231 136.4 103.213C136.4 103.213 136.382 103.195 136.382 103.177C136.31 103.159 136.274 103.159 136.02 103.195C134.339 103.467 133.38 103.087 133.036 102.924C132.204 102.508 132.078 102.02 132.132 101.314C132.15 101.043 132.114 101.025 132.078 101.007C132.06 101.007 132.042 101.025 132.024 101.043C131.933 101.188 131.409 102.508 131.897 103.485C130.269 102.725 129.998 101.893 129.347 99.9218C127.81 99.3612 127.719 99.2346 127.068 98.4388C129.365 97.8058 131.011 97.3718 131.499 95.0749C130.324 93.9174 130.324 93.9174 113.992 104.136C125.242 92.4344 125.242 92.4344 136.78 88.944C139.402 90.7344 151.212 84.8928 153.021 81.6194C152.442 80.1906 152.442 80.1906 153.292 78.0927C153.129 77.8395 152.93 77.514 152.768 77.2789C151.827 77.0799 150.887 76.8629 149.928 76.682C149.114 76.682 149.114 76.682 149.096 76.682C148.517 76.7363 146.781 76.9171 143.689 78.9246C143.58 78.6895 143.435 78.3821 143.345 78.147C144.285 76.8086 144.738 76.6278 148.228 75.2714C141.446 75.8501 134.827 76.4108 127.556 77.1523C134.248 76.4469 140.054 75.9224 148.264 75.2533C148.445 75.1629 148.716 75.0363 148.807 74.8735C148.97 74.4575 146.239 72.1064 142.802 73.0107C142.025 73.2096 142.025 73.2096 141.627 73.083C141.392 72.4139 141.934 71.6905 141.446 71.0394C140.795 70.1713 139.511 70.4064 138.878 69.5202C138.607 69.1585 138.788 68.833 139.312 68.1096C140.072 67.0606 140.072 67.0606 138.408 64.1127C134.248 56.6796 134.248 56.6796 132.223 60.5679C131.897 61.1647 132.711 61.7977 132.186 62.3946C131.59 63.0818 130.504 62.4488 129.944 63.2265C128.642 64.9989 128.642 64.9989 128.28 65.1074C126.019 65.7946 124.446 63.968 122.474 63.5339C122.131 62.919 122.909 58.886 124.102 57.9275C122.945 57.5477 121.733 58.1083 120.575 57.6743C120.304 57.5838 120.141 57.3849 119.78 56.7881C119.653 56.5891 119.382 56.1008 116.542 55.1604C115.909 54.9434 115.765 54.9614 115.276 55.0157C112.672 55.721 109.887 55.1423 107.355 56.1913C107.807 58.5966 104.841 60.7669 106.849 63.2988C106.469 64.4744 104.932 64.8723 104.841 66.2648C104.751 67.8744 106.378 68.8149 106.433 70.3521C106.433 70.4245 106.559 76.6278 102.96 77.4597C102.183 77.6406 100.392 78.2012 100.772 79.5214C100.591 79.7385 100.501 79.8289 99.7954 80.3715C98.8368 83.9705 101.224 88.4737 97.1006 91.3312C95.8166 89.3599 93.5378 88.7993 91.7473 87.5333C92.7059 84.6939 92.308 83.663 91.7654 82.3609C92.0367 82.1438 92.5069 81.746 92.7782 81.5289C92.742 81.3842 92.7782 81.0768 92.742 80.914C92.4346 80.8778 92.0186 80.8417 91.7112 80.8417C90.0292 79.214 87.9675 80.6789 86.1589 80.1906C84.3142 79.6842 83.3557 77.8214 81.5833 77.1884C81.2759 77.0799 80.8599 76.9714 80.5525 76.9171C78.9248 76.6459 77.7854 77.8395 76.3747 78.2374C75.8864 77.8395 75.8864 77.8395 75.2715 74.132C75.0545 72.8479 75.0545 72.8479 72.0161 72.6128C71.3289 68.6702 80.9142 61.5626 85.0196 58.5243C84.5493 57.2764 83.1748 57.8189 82.3972 57.204C90.3728 55.7934 90.3728 55.7934 94.8942 50.9465C91.8016 51.489 91.1686 51.5976 88.6547 50.1688C91.6207 49.1018 95.4368 50.9646 97.6974 47.4922C97.4623 47.3294 97.1006 47.2028 96.8293 47.1847C96.8474 47.1666 98.3123 45.3762 99.8677 46.3709C105.04 44.5081 105.04 44.5081 106.397 43.3144C106.686 43.0612 107.048 42.6634 107.247 42.3378C107.807 41.3974 106.885 40.3846 107.391 39.4442C107.843 38.5761 108.947 38.6665 109.543 38.0154C109.887 37.5814 109.941 37.0388 110.176 36.5686C110.122 36.5324 105.782 32.0834 104.317 38.3771C101.64 39.9144 99.7049 46.19 96.4496 43.2783C96.7389 41.3431 100.645 40.0952 98.8187 38.1782C96.7389 38.9558 95.907 41.0538 94.3697 42.4102C94.008 41.3612 96.124 38.6122 96.1421 38.5761C96.0336 38.5399 96.0336 38.5399 94.1708 38.4675C97.3719 33.2951 97.3719 33.2951 97.39 32.6621C97.2453 32.5536 97.0464 32.4089 96.9017 32.3004C98.7283 29.461 98.7283 29.461 107.283 24.4333C106.686 24.3609 106.686 24.3609 105.727 24.5418C98.873 26.1514 89.6133 38.992 89.559 39.1186C89.6313 39.2633 89.7218 39.4442 89.7941 39.6069C90.5175 39.6069 91.2409 39.4442 91.9644 39.408C92.0005 39.5346 92.0367 39.7154 92.0729 39.8601C90.5537 40.6197 90.3186 40.7463 89.6133 41.4155C89.5952 41.7772 89.5952 41.7772 89.5952 41.7772C89.5952 41.7772 89.5952 41.7772 89.6133 41.7772C89.7399 41.8133 89.9207 41.8495 90.0473 41.8676C88.5824 44.3815 85.3994 45.2315 84.2057 47.9986C83.0844 46.8411 83.0844 46.8411 85.1823 44.5985C83.9887 44.2911 83.9887 44.2911 80.0822 47.3656C79.8652 47.5283 78.5631 48.3603 73.7523 48.1432C73.4449 47.6911 73.4991 47.0943 73.1736 46.6422C69.2852 47.6369 68.1278 49.8975 65.8128 54.4008C65.3788 53.2614 66.3916 52.321 66.2469 51.2359C64.149 51.5795 62.4309 53.2976 60.134 52.954C61.0925 52.0135 62.6479 51.6699 63.0096 50.1146C62.883 50.0422 62.7383 49.9699 62.6117 49.8975C62.0873 50.1869 62.0149 50.2231 60.5319 50.0603C60.3691 49.8252 60.0979 49.5177 59.8808 49.3369C58.8138 49.5539 58.217 50.4582 57.385 51.0369C57.5297 50.7475 57.7829 50.3677 57.9819 50.1146C57.4031 50.5305 57.4031 50.5305 56.4808 51.4348C56.9691 50.422 56.9691 50.422 58.434 48.5954C55.902 50.9284 55.902 50.9284 51.2541 54.871C51.236 54.871 51.236 54.871 51.236 54.871C52.7009 53.4784 54.2924 52.1944 55.7754 50.8199C55.7574 50.838 52.4477 53.3157 48.3062 57.4392C48.4508 57.186 48.6679 56.8604 48.8487 56.6434C46.2806 59.519 42.8624 63.3531 40.3124 66.2287C29.2441 80.6427 29.0271 80.914 24.144 89.0525L24.1802 88.9801C24.2525 88.8716 24.3611 88.7088 24.4334 88.6003C21.1238 96.8292 21.1238 96.8292 20.7259 99.0899C20.5089 99.7409 20.2376 100.609 20.0206 101.26C20.1652 101.513 20.3642 101.839 20.5269 102.092C19.4961 105.384 19.4961 105.384 18.3567 111.008C18.0854 112.346 18.3929 113.576 18.8088 114.806C18.6461 114.752 18.3929 114.68 17.9769 114.661C17.796 114.643 17.6875 114.607 17.6152 114.535C17.5609 114.481 17.5248 114.444 17.4163 114.047C17.362 113.848 17.1631 113.16 16.9822 113.124C16.9822 113.124 16.9822 113.124 16.9641 113.142C16.9641 113.16 16.5482 115.077 17.0184 116.669C17.3982 117.971 18.3205 117.79 18.3386 117.79C18.5737 117.718 18.8088 117.483 18.9535 117.121C19.0801 116.814 19.0982 116.47 19.0982 116.307C19.1163 116.09 19.062 115.891 19.0439 115.674C19.0439 115.656 19.0439 115.638 19.0439 115.602C19.4961 116.868 19.9482 118.152 19.8759 119.508C19.4237 119.255 18.8269 118.93 18.3567 118.713C12.8406 125.585 10.9055 160.074 14.5949 166.512C15.0652 166.585 15.0652 166.585 23.077 182.988C22.4983 182.988 21.7568 183.024 21.178 183.042C22.1546 185.068 29.208 194.183 29.2622 194.255C29.9133 193.315 30.5644 192.338 27.3271 187.727C25.8441 185.629 24.1802 183.259 21.3589 171.793C24.9036 174.379 25.2653 176.061 25.7355 178.214C26.0792 179.733 26.459 181.451 27.1281 182.536C28.575 184.833 30.3473 186.913 31.8846 189.155C33.874 192.067 37.274 193.677 38.9379 196.878C40.2943 199.446 39.6432 202.882 42.4103 204.835C42.7901 205.107 43.3869 205.306 43.8029 205.486C44.5806 205.794 45.5753 206.355 46.3891 206.553C49.2285 207.295 52.1583 207.747 55.0158 208.434C57.9457 209.14 61.0564 207.458 63.932 209.104C70.5151 212.847 70.5151 212.847 72.8119 213.1C73.1555 213.137 73.6257 213.191 73.9694 213.245C84.2961 214.692 88.5824 227.478 99.9039 227.08C104.932 218.671 108.042 228.762 109.146 233.483C109.489 234.966 109.489 234.966 106.668 241.187C106.632 241.296 103.901 252.49 105.076 254.588C105.257 254.932 105.51 255.402 105.727 255.728C109.435 261.244 124.681 276.309 124.807 276.417C128.533 279.637 133.579 280.36 137.485 283.181C140.469 285.334 142.712 289.547 143.779 295.064C143.833 295.317 149.675 321.504 159.839 335.81C172.734 353.95 185.195 351.942 185.321 351.906C173.313 345.721 173.313 345.721 174.452 340.639C172.788 338.866 172.788 338.866 169.641 330.185C170.13 330.023 170.13 330.023 172.39 330.095C172.372 329.86 172.372 329.86 169.641 326.062C171.739 324.181 171.739 324.181 171.594 322.698C171.757 322.608 171.956 322.463 172.119 322.373C175.845 323.512 177.092 320.437 176.134 319.027L175.031 317.489C183.513 317.254 187.112 296.745 187.148 296.546C188.36 293.924 191.561 292.369 192.881 291.826C195.883 290.578 195.937 287.052 198.053 285.117C199.012 284.248 199.862 284.23 200.585 284.321C201.833 284.484 201.924 284.484 202.086 283.326C202.43 280.758 202.195 278.172 202.322 275.586C202.394 274.139 201.544 272.656 202.502 271.263C203.606 269.635 204.022 269.039 203.244 267.953C203.099 267.755 202.937 267.447 202.882 267.212C209.972 264.626 212.504 256.939 212.504 256.867C212.504 256.777 212.522 256.668 212.504 256.578C212.377 255.692 211.69 255.077 211.527 254.227ZM33.6208 93.8994C36.1347 93.0855 38.7751 92.2898 41.506 91.5483C38.7932 92.3078 36.1528 93.0855 33.6208 93.8994ZM114.083 240.228C117.284 239.831 120.539 239.433 123.976 239.035C120.811 239.415 117.555 239.813 114.083 240.228ZM185.972 285.153C185.846 283.905 185.412 279.818 184.761 272.601C185.159 276.815 185.556 281.011 185.99 285.424C185.99 285.334 185.972 285.243 185.972 285.153ZM182.554 245.889C182.572 246.124 182.59 246.359 182.608 246.576C182.59 246.359 182.572 246.124 182.554 245.889Z" fill="url(#paint53_radial_252_644)"/>
<path d="M123.361 205.27C122.384 205.921 123.65 207.187 124.844 207.385C125.694 207.53 128.407 207.15 128.515 206.879C128.588 206.734 128.371 206.409 126.363 205.776C124.139 205.071 123.813 205.161 123.361 205.27Z" fill="url(#paint54_radial_252_644)"/>
</g>
<defs>
<radialGradient id="paint0_radial_252_644" cx="0" cy="0" r="1" gradientUnits="userSpaceOnUse" gradientTransform="translate(182.494 179.42) scale(186.752)">
<stop offset="0.6222" stop-color="#FAFFFF"/>
<stop offset="0.6877" stop-color="#F6FBFB"/>
<stop offset="0.7539" stop-color="#EAEFEF"/>
<stop offset="0.8205" stop-color="#D7DBDB"/>
<stop offset="0.8873" stop-color="#BCBEBE"/>
<stop offset="0.9537" stop-color="#999A9A"/>
<stop offset="1" stop-color="#7C7C7C"/>
</radialGradient>
<radialGradient id="paint1_radial_252_644" cx="0" cy="0" r="1" gradientUnits="userSpaceOnUse" gradientTransform="translate(219.693 77.2053) scale(592.637 592.638)">
<stop offset="0.0672" stop-color="#007CFF"/>
<stop offset="1" stop-color="#FAFFFF"/>
</radialGradient>
<radialGradient id="paint2_radial_252_644" cx="0" cy="0" r="1" gradientUnits="userSpaceOnUse" gradientTransform="translate(219.688 77.2016) scale(592.611 592.608)">
<stop offset="0.0672" stop-color="#007CFF"/>
<stop offset="1" stop-color="#FAFFFF"/>
</radialGradient>
<radialGradient id="paint3_radial_252_644" cx="0" cy="0" r="1" gradientUnits="userSpaceOnUse" gradientTransform="translate(219.688 77.2059) scale(592.619)">
<stop offset="0.0672" stop-color="#007CFF"/>
<stop offset="1" stop-color="#FAFFFF"/>
</radialGradient>
<radialGradient id="paint4_radial_252_644" cx="0" cy="0" r="1" gradientUnits="userSpaceOnUse" gradientTransform="translate(219.691 77.2095) scale(592.636 592.636)">
<stop offset="0.0672" stop-color="#007CFF"/>
<stop offset="1" stop-color="#FAFFFF"/>
</radialGradient>
<radialGradient id="paint5_radial_252_644" cx="0" cy="0" r="1" gradientUnits="userSpaceOnUse" gradientTransform="translate(219.693 77.2031) scale(592.63 592.632)">
<stop offset="0.0672" stop-color="#007CFF"/>
<stop offset="1" stop-color="#FAFFFF"/>
</radialGradient>
<radialGradient id="paint6_radial_252_644" cx="0" cy="0" r="1" gradientUnits="userSpaceOnUse" gradientTransform="translate(219.692 77.2047) scale(592.631 592.629)">
<stop offset="0.0672" stop-color="#007CFF"/>
<stop offset="1" stop-color="#FAFFFF"/>
</radialGradient>
<radialGradient id="paint7_radial_252_644" cx="0" cy="0" r="1" gradientUnits="userSpaceOnUse" gradientTransform="translate(219.693 77.2068) scale(592.64 592.639)">
<stop offset="0.0672" stop-color="#007CFF"/>
<stop offset="1" stop-color="#FAFFFF"/>
</radialGradient>
<radialGradient id="paint8_radial_252_644" cx="0" cy="0" r="1" gradientUnits="userSpaceOnUse" gradientTransform="translate(219.692 77.2069) scale(592.638 592.639)">
<stop offset="0.0672" stop-color="#007CFF"/>
<stop offset="1" stop-color="#FAFFFF"/>
</radialGradient>
<radialGradient id="paint9_radial_252_644" cx="0" cy="0" r="1" gradientUnits="userSpaceOnUse" gradientTransform="translate(219.691 77.2076) scale(592.631 592.631)">
<stop offset="0.0672" stop-color="#007CFF"/>
<stop offset="1" stop-color="#FAFFFF"/>
</radialGradient>
<radialGradient id="paint10_radial_252_644" cx="0" cy="0" r="1" gradientUnits="userSpaceOnUse" gradientTransform="translate(219.691 77.2053) scale(592.627 592.626)">
<stop offset="0.0672" stop-color="#007CFF"/>
<stop offset="1" stop-color="#FAFFFF"/>
</radialGradient>
<radialGradient id="paint11_radial_252_644" cx="0" cy="0" r="1" gradientUnits="userSpaceOnUse" gradientTransform="translate(219.691 77.2068) scale(592.634)">
<stop offset="0.0672" stop-color="#003261"/>
<stop offset="1" stop-color="#FAFFFF"/>
</radialGradient>
<radialGradient id="paint12_radial_252_644" cx="0" cy="0" r="1" gradientUnits="userSpaceOnUse" gradientTransform="translate(219.69 77.2071) scale(592.624 592.626)">
<stop offset="0.0672" stop-color="#007CFF"/>
<stop offset="1" stop-color="#FAFFFF"/>
</radialGradient>
<radialGradient id="paint13_radial_252_644" cx="0" cy="0" r="1" gradientUnits="userSpaceOnUse" gradientTransform="translate(219.691 77.207) scale(592.632)">
<stop offset="0.0672" stop-color="#007CFF"/>
<stop offset="1" stop-color="#FAFFFF"/>
</radialGradient>
<radialGradient id="paint14_radial_252_644" cx="0" cy="0" r="1" gradientUnits="userSpaceOnUse" gradientTransform="translate(219.691 77.2075) scale(592.632)">
<stop offset="0.0672" stop-color="#007CFF"/>
<stop offset="1" stop-color="#FAFFFF"/>
</radialGradient>
<radialGradient id="paint15_radial_252_644" cx="0" cy="0" r="1" gradientUnits="userSpaceOnUse" gradientTransform="translate(219.691 77.2066) scale(592.634)">
<stop offset="0.0672" stop-color="#007CFF"/>
<stop offset="1" stop-color="#FAFFFF"/>
</radialGradient>
<radialGradient id="paint16_radial_252_644" cx="0" cy="0" r="1" gradientUnits="userSpaceOnUse" gradientTransform="translate(219.695 77.2027) scale(592.64 592.634)">
<stop offset="0.0672" stop-color="#007CFF"/>
<stop offset="1" stop-color="#FAFFFF"/>
</radialGradient>
<radialGradient id="paint17_radial_252_644" cx="0" cy="0" r="1" gradientUnits="userSpaceOnUse" gradientTransform="translate(219.692 77.2075) scale(592.637 592.64)">
<stop offset="0.0672" stop-color="#007CFF"/>
<stop offset="1" stop-color="#FAFFFF"/>
</radialGradient>
<radialGradient id="paint18_radial_252_644" cx="0" cy="0" r="1" gradientUnits="userSpaceOnUse" gradientTransform="translate(219.692 77.2082) scale(592.64 592.639)">
<stop offset="0.0672" stop-color="#007CFF"/>
<stop offset="1" stop-color="#FAFFFF"/>
</radialGradient>
<radialGradient id="paint19_radial_252_644" cx="0" cy="0" r="1" gradientUnits="userSpaceOnUse" gradientTransform="translate(219.691 77.2065) scale(592.63 592.63)">
<stop offset="0.0672" stop-color="#007CFF"/>
<stop offset="1" stop-color="#FAFFFF"/>
</radialGradient>
<radialGradient id="paint20_radial_252_644" cx="0" cy="0" r="1" gradientUnits="userSpaceOnUse" gradientTransform="translate(219.693 77.206) scale(592.638 592.639)">
<stop offset="0.0672" stop-color="#007CFF"/>
<stop offset="1" stop-color="#FAFFFF"/>
</radialGradient>
<radialGradient id="paint21_radial_252_644" cx="0" cy="0" r="1" gradientUnits="userSpaceOnUse" gradientTransform="translate(219.691 77.2098) scale(592.639 592.64)">
<stop offset="0.0672" stop-color="#007CFF"/>
<stop offset="1" stop-color="#FAFFFF"/>
</radialGradient>
<radialGradient id="paint22_radial_252_644" cx="0" cy="0" r="1" gradientUnits="userSpaceOnUse" gradientTransform="translate(219.693 77.2096) scale(592.647 592.646)">
<stop offset="0.0672" stop-color="#007CFF"/>
<stop offset="1" stop-color="#FAFFFF"/>
</radialGradient>
<radialGradient id="paint23_radial_252_644" cx="0" cy="0" r="1" gradientUnits="userSpaceOnUse" gradientTransform="translate(219.691 77.2128) scale(592.648 592.649)">
<stop offset="0.0672" stop-color="#007CFF"/>
<stop offset="1" stop-color="#FAFFFF"/>
</radialGradient>
<radialGradient id="paint24_radial_252_644" cx="0" cy="0" r="1" gradientUnits="userSpaceOnUse" gradientTransform="translate(219.691 77.2071) scale(592.635 592.634)">
<stop offset="0.0672" stop-color="#007CFF"/>
<stop offset="1" stop-color="#FAFFFF"/>
</radialGradient>
<radialGradient id="paint25_radial_252_644" cx="0" cy="0" r="1" gradientUnits="userSpaceOnUse" gradientTransform="translate(219.692 77.2066) scale(592.634)">
<stop offset="0.0672" stop-color="#007CFF"/>
<stop offset="1" stop-color="#FAFFFF"/>
</radialGradient>
<radialGradient id="paint26_radial_252_644" cx="0" cy="0" r="1" gradientUnits="userSpaceOnUse" gradientTransform="translate(225.027 83.0228) scale(592.633)">
<stop offset="0.0672" stop-color="#003261"/>
<stop offset="1" stop-color="#FAFFFF"/>
</radialGradient>
<radialGradient id="paint27_radial_252_644" cx="0" cy="0" r="1" gradientUnits="userSpaceOnUse" gradientTransform="translate(219.69 77.2064) scale(592.639)">
<stop offset="0.0672" stop-color="#007CFF"/>
<stop offset="1" stop-color="#FAFFFF"/>
</radialGradient>
<radialGradient id="paint28_radial_252_644" cx="0" cy="0" r="1" gradientUnits="userSpaceOnUse" gradientTransform="translate(219.694 77.2067) scale(592.622 592.622)">
<stop offset="0.0672" stop-color="#007CFF"/>
<stop offset="1" stop-color="#FAFFFF"/>
</radialGradient>
<radialGradient id="paint29_radial_252_644" cx="0" cy="0" r="1" gradientUnits="userSpaceOnUse" gradientTransform="translate(219.7 77.2082) scale(592.602 592.605)">
<stop offset="0.0672" stop-color="#007CFF"/>
<stop offset="1" stop-color="#FAFFFF"/>
</radialGradient>
<radialGradient id="paint30_radial_252_644" cx="0" cy="0" r="1" gradientUnits="userSpaceOnUse" gradientTransform="translate(219.691 77.2068) scale(592.627 592.627)">
<stop offset="0.0672" stop-color="#007CFF"/>
<stop offset="1" stop-color="#FAFFFF"/>
</radialGradient>
<radialGradient id="paint31_radial_252_644" cx="0" cy="0" r="1" gradientUnits="userSpaceOnUse" gradientTransform="translate(219.69 77.2076) scale(592.629 592.627)">
<stop offset="0.0672" stop-color="#007CFF"/>
<stop offset="1" stop-color="#FAFFFF"/>
</radialGradient>
<radialGradient id="paint32_radial_252_644" cx="0" cy="0" r="1" gradientUnits="userSpaceOnUse" gradientTransform="translate(219.693 77.2061) scale(592.628 592.627)">
<stop offset="0.0672" stop-color="#007CFF"/>
<stop offset="1" stop-color="#FAFFFF"/>
</radialGradient>
<radialGradient id="paint33_radial_252_644" cx="0" cy="0" r="1" gradientUnits="userSpaceOnUse" gradientTransform="translate(219.691 77.2068) scale(592.635 592.634)">
<stop offset="0.0672" stop-color="#007CFF"/>
<stop offset="1" stop-color="#FAFFFF"/>
</radialGradient>
<radialGradient id="paint34_radial_252_644" cx="0" cy="0" r="1" gradientUnits="userSpaceOnUse" gradientTransform="translate(219.692 77.2062) scale(592.634 592.636)">
<stop offset="0.0672" stop-color="#007CFF"/>
<stop offset="1" stop-color="#FAFFFF"/>
</radialGradient>
<radialGradient id="paint35_radial_252_644" cx="0" cy="0" r="1" gradientUnits="userSpaceOnUse" gradientTransform="translate(219.693 77.206) scale(592.625 592.625)">
<stop offset="0.0672" stop-color="#007CFF"/>
<stop offset="1" stop-color="#FAFFFF"/>
</radialGradient>
<radialGradient id="paint36_radial_252_644" cx="0" cy="0" r="1" gradientUnits="userSpaceOnUse" gradientTransform="translate(219.693 77.2061) scale(592.628 592.63)">
<stop offset="0.0672" stop-color="#007CFF"/>
<stop offset="1" stop-color="#FAFFFF"/>
</radialGradient>
<radialGradient id="paint37_radial_252_644" cx="0" cy="0" r="1" gradientUnits="userSpaceOnUse" gradientTransform="translate(219.692 77.2073) scale(592.636 592.636)">
<stop offset="0.0672" stop-color="#007CFF"/>
<stop offset="1" stop-color="#FAFFFF"/>
</radialGradient>
<radialGradient id="paint38_radial_252_644" cx="0" cy="0" r="1" gradientUnits="userSpaceOnUse" gradientTransform="translate(219.691 77.2072) scale(592.634)">
<stop offset="0.0672" stop-color="#007CFF"/>
<stop offset="1" stop-color="#FAFFFF"/>
</radialGradient>
<radialGradient id="paint39_radial_252_644" cx="0" cy="0" r="1" gradientUnits="userSpaceOnUse" gradientTransform="translate(219.691 77.2067) scale(592.631)">
<stop offset="0.0672" stop-color="#007CFF"/>
<stop offset="1" stop-color="#FAFFFF"/>
</radialGradient>
<radialGradient id="paint40_radial_252_644" cx="0" cy="0" r="1" gradientUnits="userSpaceOnUse" gradientTransform="translate(219.691 77.207) scale(592.634 592.633)">
<stop offset="0.0672" stop-color="#007CFF"/>
<stop offset="1" stop-color="#FAFFFF"/>
</radialGradient>
<radialGradient id="paint41_radial_252_644" cx="0" cy="0" r="1" gradientUnits="userSpaceOnUse" gradientTransform="translate(219.691 77.2065) scale(592.63 592.63)">
<stop offset="0.0672" stop-color="#007CFF"/>
<stop offset="1" stop-color="#FAFFFF"/>
</radialGradient>
<radialGradient id="paint42_radial_252_644" cx="0" cy="0" r="1" gradientUnits="userSpaceOnUse" gradientTransform="translate(219.69 77.2069) scale(592.628 592.627)">
<stop offset="0.0672" stop-color="#007CFF"/>
<stop offset="1" stop-color="#FAFFFF"/>
</radialGradient>
<radialGradient id="paint43_radial_252_644" cx="0" cy="0" r="1" gradientUnits="userSpaceOnUse" gradientTransform="translate(219.695 77.2085) scale(592.639 592.639)">
<stop offset="0.0672" stop-color="#007CFF"/>
<stop offset="1" stop-color="#FAFFFF"/>
</radialGradient>
<radialGradient id="paint44_radial_252_644" cx="0" cy="0" r="1" gradientUnits="userSpaceOnUse" gradientTransform="translate(219.689 77.2066) scale(592.66 592.661)">
<stop offset="0.0672" stop-color="#007CFF"/>
<stop offset="1" stop-color="#FAFFFF"/>
</radialGradient>
<radialGradient id="paint45_radial_252_644" cx="0" cy="0" r="1" gradientUnits="userSpaceOnUse" gradientTransform="translate(219.691 77.2068) scale(592.632 592.633)">
<stop offset="0.0672" stop-color="#007CFF"/>
<stop offset="1" stop-color="#FAFFFF"/>
</radialGradient>
<radialGradient id="paint46_radial_252_644" cx="0" cy="0" r="1" gradientUnits="userSpaceOnUse" gradientTransform="translate(219.691 77.2068) scale(592.631)">
<stop offset="0.0672" stop-color="#007CFF"/>
<stop offset="1" stop-color="#FAFFFF"/>
</radialGradient>
<radialGradient id="paint47_radial_252_644" cx="0" cy="0" r="1" gradientUnits="userSpaceOnUse" gradientTransform="translate(219.692 77.2066) scale(592.636 592.637)">
<stop offset="0.0672" stop-color="#007CFF"/>
<stop offset="1" stop-color="#FAFFFF"/>
</radialGradient>
<radialGradient id="paint48_radial_252_644" cx="0" cy="0" r="1" gradientUnits="userSpaceOnUse" gradientTransform="translate(219.691 77.2072) scale(592.638 592.638)">
<stop offset="0.0672" stop-color="#007CFF"/>
<stop offset="1" stop-color="#FAFFFF"/>
</radialGradient>
<radialGradient id="paint49_radial_252_644" cx="0" cy="0" r="1" gradientUnits="userSpaceOnUse" gradientTransform="translate(219.691 77.2063) scale(592.633)">
<stop offset="0.0672" stop-color="#003261"/>
<stop offset="1" stop-color="#FAFFFF"/>
</radialGradient>
<radialGradient id="paint50_radial_252_644" cx="0" cy="0" r="1" gradientUnits="userSpaceOnUse" gradientTransform="translate(219.692 77.207) scale(592.635 592.633)">
<stop offset="0.0672" stop-color="#003261"/>
<stop offset="1" stop-color="#FAFFFF"/>
</radialGradient>
<radialGradient id="paint51_radial_252_644" cx="0" cy="0" r="1" gradientUnits="userSpaceOnUse" gradientTransform="translate(219.69 77.2071) scale(592.627 592.629)">
<stop offset="0.0672" stop-color="#003261"/>
<stop offset="1" stop-color="#FAFFFF"/>
</radialGradient>
<radialGradient id="paint52_radial_252_644" cx="0" cy="0" r="1" gradientUnits="userSpaceOnUse" gradientTransform="translate(219.692 77.2061) scale(592.634 592.634)">
<stop offset="0.0672" stop-color="#003261"/>
<stop offset="1" stop-color="#FAFFFF"/>
</radialGradient>
<radialGradient id="paint53_radial_252_644" cx="0" cy="0" r="1" gradientUnits="userSpaceOnUse" gradientTransform="translate(219.691 77.2069) scale(592.633)">
<stop offset="0.0672" stop-color="#003261"/>
<stop offset="1" stop-color="#FAFFFF"/>
</radialGradient>
<radialGradient id="paint54_radial_252_644" cx="0" cy="0" r="1" gradientUnits="userSpaceOnUse" gradientTransform="translate(219.692 77.2082) scale(592.629 592.628)">
<stop offset="0.0672" stop-color="#007CFF"/>
<stop offset="1" stop-color="#FAFFFF"/>
</radialGradient>
</defs>
</svg>
