<svg width="6" height="8" viewBox="0 0 6 8" fill="none" xmlns="http://www.w3.org/2000/svg">
<path d="M0.173372 0.23938C0.046801 0.375479 -0.0141365 0.550525 0.00383524 0.726382C0.0218069 0.90224 0.117231 1.06466 0.26932 1.17826L4.07806 3.99997L0.269383 6.82171C0.116697 6.93498 0.0208875 7.09753 0.00303083 7.2736C-0.0148258 7.44967 0.0467332 7.62483 0.174166 7.76055C0.301598 7.89627 0.484466 7.98143 0.682539 7.99731C0.880613 8.01318 1.07767 7.95846 1.23035 7.84519L5.73047 4.5117C5.81483 4.44917 5.88271 4.37092 5.92928 4.28249C5.97586 4.19406 6 4.09761 6 3.99997C6 3.90232 5.97586 3.80587 5.92928 3.71744C5.88271 3.62901 5.81483 3.55076 5.73047 3.48823L1.23029 0.154748C1.07745 0.041513 0.880299 -0.013175 0.682133 0.00269318C0.483967 0.0185614 0.300986 0.103688 0.173372 0.23938Z" fill="white"/>
</svg>
