<svg width="317" height="306" viewBox="0 0 317 306" fill="none" xmlns="http://www.w3.org/2000/svg">
<path d="M-1.25883 5.2758C0.19804 5.2758 1.37907 4.09477 1.37907 2.6379C1.37907 1.18103 0.19804 0 -1.25883 0C-2.7157 0 -3.89673 1.18103 -3.89673 2.6379C-3.89673 4.09477 -2.7157 5.2758 -1.25883 5.2758Z" fill="#CFD3DF"/>
<path d="M-1.25877 26.7219C-2.63048 26.7219 -3.71216 25.614 -3.71216 24.2687C-3.71216 22.8969 -2.6041 21.8154 -1.25877 21.8154C0.112935 21.8154 1.19445 22.9233 1.19445 24.2687C1.22083 25.614 0.112935 26.7219 -1.25877 26.7219Z" fill="#CFD3DF"/>
<path d="M-1.25875 48.1945C-2.52494 48.1945 -3.55371 47.1657 -3.55371 45.8995C-3.55371 44.6333 -2.52494 43.6045 -1.25875 43.6045C0.00743809 43.6045 1.03621 44.6333 1.03621 45.8995C1.03621 47.1657 0.00743809 48.1945 -1.25875 48.1945Z" fill="#CFD3DF"/>
<path d="M-1.25869 69.6406C-2.41937 69.6406 -3.36914 68.6909 -3.36914 67.5302C-3.36914 66.3695 -2.41937 65.4199 -1.25869 65.4199C-0.0980183 65.4199 0.851593 66.3695 0.851593 67.5302C0.851593 68.6909 -0.0980183 69.6406 -1.25869 69.6406Z" fill="#CFD3DF"/>
<path d="M-1.2588 91.1133C-2.31395 91.1133 -3.18457 90.2427 -3.18457 89.1876C-3.18457 88.106 -2.31395 87.262 -1.2588 87.262C-0.177257 87.262 0.666818 88.1324 0.666818 89.1876C0.693197 90.2427 -0.177257 91.1133 -1.2588 91.1133Z" fill="#CFD3DF"/>
<path d="M-1.25886 112.559C-2.23488 112.559 -3.02637 111.768 -3.02637 110.792C-3.02637 109.816 -2.23488 109.025 -1.25886 109.025C-0.282837 109.025 0.508487 109.816 0.508487 110.792C0.508487 111.794 -0.282837 112.559 -1.25886 112.559Z" fill="#CFD3DF"/>
<path d="M-1.25872 134.032C-0.384595 134.032 0.323957 133.323 0.323957 132.449C0.323957 131.575 -0.384595 130.866 -1.25872 130.866C-2.13284 130.866 -2.84155 131.575 -2.84155 132.449C-2.84155 133.323 -2.13284 134.032 -1.25872 134.032Z" fill="#CFD3DF"/>
<path d="M-1.25882 155.504C-2.02381 155.504 -2.65698 154.871 -2.65698 154.106C-2.65698 153.341 -2.02381 152.708 -1.25882 152.708C-0.493829 152.708 0.139183 153.341 0.139183 154.106C0.165562 154.871 -0.46745 155.504 -1.25882 155.504Z" fill="#CFD3DF"/>
<path d="M23.017 5.2758C24.4739 5.2758 25.6549 4.09477 25.6549 2.6379C25.6549 1.18103 24.4739 0 23.017 0C21.5602 0 20.3792 1.18103 20.3792 2.6379C20.3792 4.09477 21.5602 5.2758 23.017 5.2758Z" fill="#CFD3DF"/>
<path d="M23.0169 26.7219C21.6452 26.7219 20.5637 25.614 20.5637 24.2687C20.5637 22.8969 21.6716 21.8154 23.0169 21.8154C24.3887 21.8154 25.4702 22.9233 25.4702 24.2687C25.4702 25.614 24.3887 26.7219 23.0169 26.7219Z" fill="#CFD3DF"/>
<path d="M23.0171 48.1945C21.7509 48.1945 20.7222 47.1657 20.7222 45.8995C20.7222 44.6333 21.7509 43.6045 23.0171 43.6045C24.2833 43.6045 25.3121 44.6333 25.3121 45.8995C25.3121 47.1657 24.2833 48.1945 23.0171 48.1945Z" fill="#CFD3DF"/>
<path d="M23.017 69.6406C21.8563 69.6406 20.9067 68.6909 20.9067 67.5302C20.9067 66.3695 21.8563 65.4199 23.017 65.4199C24.1777 65.4199 25.1273 66.3695 25.1273 67.5302C25.1273 68.6909 24.1777 69.6406 23.017 69.6406Z" fill="#CFD3DF"/>
<path d="M23.0171 91.1133C21.9619 91.1133 21.0913 90.2427 21.0913 89.1876C21.0913 88.106 21.9619 87.262 23.0171 87.262C24.0986 87.262 24.9427 88.1324 24.9427 89.1876C24.9427 90.2427 24.0722 91.1133 23.0171 91.1133Z" fill="#CFD3DF"/>
<path d="M23.017 112.559C22.041 112.559 21.2495 111.768 21.2495 110.792C21.2495 109.816 22.041 109.025 23.017 109.025C23.993 109.025 24.7844 109.816 24.7844 110.792C24.7844 111.794 23.993 112.559 23.017 112.559Z" fill="#CFD3DF"/>
<path d="M23.0169 134.032C22.1464 134.032 21.4341 133.32 21.4341 132.449C21.4341 131.579 22.1464 130.866 23.0169 130.866C23.8874 130.866 24.5996 131.579 24.5996 132.449C24.5996 133.32 23.8874 134.032 23.0169 134.032Z" fill="#CFD3DF"/>
<path d="M23.0171 155.504C22.2521 155.504 21.6189 154.871 21.6189 154.106C21.6189 153.341 22.2521 152.708 23.0171 152.708C23.7821 152.708 24.4151 153.341 24.4151 154.106C24.4151 154.871 23.7821 155.504 23.0171 155.504Z" fill="#CFD3DF"/>
<path d="M23.017 176.951C22.3311 176.951 21.7771 176.397 21.7771 175.711C21.7771 175.025 22.3311 174.471 23.017 174.471C23.7028 174.471 24.2567 175.025 24.2567 175.711C24.2567 176.397 23.7028 176.951 23.017 176.951Z" fill="#CFD3DF"/>
<path d="M23.0171 198.423C22.4368 198.423 21.9619 197.948 21.9619 197.367C21.9619 196.787 22.4368 196.312 23.0171 196.312C23.5975 196.312 24.0722 196.787 24.0722 197.367C24.0722 197.948 23.5975 198.423 23.0171 198.423Z" fill="#CFD3DF"/>
<path d="M23.017 219.869C22.5422 219.869 22.1465 219.473 22.1465 218.998C22.1465 218.523 22.5422 218.128 23.017 218.128C23.4919 218.128 23.8874 218.523 23.8874 218.998C23.8874 219.473 23.4919 219.869 23.017 219.869Z" fill="#CFD3DF"/>
<path d="M23.017 241.341C22.6213 241.341 22.3047 241.025 22.3047 240.629C22.3047 240.233 22.6213 239.917 23.017 239.917C23.4127 239.917 23.7291 240.233 23.7291 240.629C23.7291 241.025 23.4127 241.341 23.017 241.341Z" fill="#CFD3DF"/>
<path d="M23.0171 262.814C22.7269 262.814 22.4895 262.576 22.4895 262.286C22.4895 261.996 22.7269 261.759 23.0171 261.759C23.3073 261.759 23.5447 261.996 23.5447 262.286C23.5447 262.576 23.3073 262.814 23.0171 262.814Z" fill="#CFD3DF"/>
<path d="M23.017 284.26C22.8324 284.26 22.6741 284.102 22.6741 283.917C22.6741 283.732 22.8324 283.574 23.017 283.574C23.2017 283.574 23.36 283.732 23.36 283.917C23.36 284.102 23.2017 284.26 23.017 284.26Z" fill="#CFD3DF"/>
<path d="M23.0169 305.732C22.9114 305.732 22.8323 305.653 22.8323 305.548C22.8323 305.442 22.9114 305.363 23.0169 305.363C23.1225 305.363 23.2016 305.442 23.2016 305.548C23.2016 305.653 23.1225 305.732 23.0169 305.732Z" fill="#CFD3DF"/>
<path d="M47.2927 5.2758C48.7496 5.2758 49.9306 4.09477 49.9306 2.6379C49.9306 1.18103 48.7496 0 47.2927 0C45.8358 0 44.6548 1.18103 44.6548 2.6379C44.6548 4.09477 45.8358 5.2758 47.2927 5.2758Z" fill="#CFD3DF"/>
<path d="M47.2926 26.7219C45.9209 26.7219 44.8394 25.614 44.8394 24.2687C44.8394 22.8969 45.9473 21.8154 47.2926 21.8154C48.6643 21.8154 49.7458 22.9233 49.7458 24.2687C49.7458 25.614 48.6379 26.7219 47.2926 26.7219Z" fill="#CFD3DF"/>
<path d="M47.2925 48.1945C46.0263 48.1945 44.9976 47.1657 44.9976 45.8995C44.9976 44.6333 46.0263 43.6045 47.2925 43.6045C48.5587 43.6045 49.5875 44.6333 49.5875 45.8995C49.5611 47.1657 48.5587 48.1945 47.2925 48.1945Z" fill="#CFD3DF"/>
<path d="M47.2927 69.6406C46.132 69.6406 45.1824 68.6909 45.1824 67.5302C45.1824 66.3695 46.132 65.4199 47.2927 65.4199C48.4533 65.4199 49.4029 66.3695 49.4029 67.5302C49.4029 68.6909 48.4533 69.6406 47.2927 69.6406Z" fill="#CFD3DF"/>
<path d="M47.2926 91.1133C46.211 91.1133 45.3669 90.2427 45.3669 89.1876C45.3669 88.106 46.2374 87.262 47.2926 87.262C48.3477 87.262 49.2182 88.1324 49.2182 89.1876C49.2182 90.2427 48.3477 91.1133 47.2926 91.1133Z" fill="#CFD3DF"/>
<path d="M47.2927 112.559C46.3167 112.559 45.5254 111.768 45.5254 110.792C45.5254 109.816 46.3167 109.025 47.2927 109.025C48.2688 109.025 49.0601 109.816 49.0601 110.792C49.0337 111.794 48.2688 112.559 47.2927 112.559Z" fill="#CFD3DF"/>
<path d="M47.2926 134.032C48.1668 134.032 48.8753 133.323 48.8753 132.449C48.8753 131.575 48.1668 130.866 47.2926 130.866C46.4185 130.866 45.71 131.575 45.71 132.449C45.71 133.323 46.4185 134.032 47.2926 134.032Z" fill="#CFD3DF"/>
<path d="M47.2927 155.504C46.5277 155.504 45.8945 154.871 45.8945 154.106C45.8945 153.341 46.5277 152.708 47.2927 152.708C48.0577 152.708 48.6907 153.341 48.6907 154.106C48.6907 154.871 48.0577 155.504 47.2927 155.504Z" fill="#CFD3DF"/>
<path d="M47.2926 176.951C46.6068 176.951 46.0527 176.397 46.0527 175.711C46.0527 175.025 46.6068 174.471 47.2926 174.471C47.9785 174.471 48.5324 175.025 48.5324 175.711C48.506 176.397 47.9785 176.951 47.2926 176.951Z" fill="#CFD3DF"/>
<path d="M47.2925 198.423C46.7122 198.423 46.2373 197.948 46.2373 197.367C46.2373 196.787 46.7122 196.312 47.2925 196.312C47.8729 196.312 48.3478 196.787 48.3478 197.367C48.3478 197.948 47.8729 198.423 47.2925 198.423Z" fill="#CFD3DF"/>
<path d="M47.2927 219.869C46.8178 219.869 46.4221 219.473 46.4221 218.998C46.4221 218.523 46.8178 218.128 47.2927 218.128C47.7675 218.128 48.1632 218.523 48.1632 218.998C48.1632 219.473 47.7675 219.869 47.2927 219.869Z" fill="#CFD3DF"/>
<path d="M47.2926 241.341C47.686 241.341 48.0049 241.022 48.0049 240.629C48.0049 240.236 47.686 239.917 47.2926 239.917C46.8993 239.917 46.5803 240.236 46.5803 240.629C46.5803 241.022 46.8993 241.341 47.2926 241.341Z" fill="#CFD3DF"/>
<path d="M47.2927 262.814C47.0026 262.814 46.7651 262.576 46.7651 262.286C46.7651 261.996 47.0026 261.759 47.2927 261.759C47.5829 261.759 47.8204 261.996 47.8204 262.286C47.8204 262.576 47.5829 262.814 47.2927 262.814Z" fill="#CFD3DF"/>
<path d="M47.2926 284.26C47.108 284.26 46.9497 284.102 46.9497 283.917C46.9497 283.732 47.108 283.574 47.2926 283.574C47.4773 283.574 47.6356 283.732 47.6356 283.917C47.6356 284.102 47.4773 284.26 47.2926 284.26Z" fill="#CFD3DF"/>
<path d="M47.2926 305.732C47.1871 305.732 47.1079 305.653 47.1079 305.548C47.1079 305.442 47.1871 305.363 47.2926 305.363C47.3981 305.363 47.4773 305.442 47.4773 305.548C47.4509 305.653 47.3717 305.732 47.2926 305.732Z" fill="#CFD3DF"/>
<path d="M71.5686 5.2758C73.0254 5.2758 74.2065 4.09477 74.2065 2.6379C74.2065 1.18103 73.0254 0 71.5686 0C70.1117 0 68.9307 1.18103 68.9307 2.6379C68.9307 4.09477 70.1117 5.2758 71.5686 5.2758Z" fill="#CFD3DF"/>
<path d="M71.5685 26.7219C70.1968 26.7219 69.1152 25.614 69.1152 24.2687C69.1152 22.8969 70.2231 21.8154 71.5685 21.8154C72.9402 21.8154 74.0217 22.9233 74.0217 24.2687C74.0481 25.614 72.9402 26.7219 71.5685 26.7219Z" fill="#CFD3DF"/>
<path d="M71.5686 48.1945C70.3024 48.1945 69.2737 47.1657 69.2737 45.8995C69.2737 44.6333 70.3024 43.6045 71.5686 43.6045C72.8348 43.6045 73.8636 44.6333 73.8636 45.8995C73.8636 47.1657 72.8348 48.1945 71.5686 48.1945Z" fill="#CFD3DF"/>
<path d="M71.5685 69.6406C72.734 69.6406 73.6788 68.6957 73.6788 67.5302C73.6788 66.3647 72.734 65.4199 71.5685 65.4199C70.403 65.4199 69.4583 66.3647 69.4583 67.5302C69.4583 68.6957 70.403 69.6406 71.5685 69.6406Z" fill="#CFD3DF"/>
<path d="M71.5687 91.1133C70.4871 91.1133 69.6431 90.2427 69.6431 89.1876C69.6431 88.106 70.5135 87.262 71.5687 87.262C72.6238 87.262 73.4945 88.1324 73.4945 89.1876C73.5208 90.2427 72.6502 91.1133 71.5687 91.1133Z" fill="#CFD3DF"/>
<path d="M71.5686 112.559C70.5926 112.559 69.8013 111.768 69.8013 110.792C69.8013 109.816 70.5926 109.025 71.5686 109.025C72.5446 109.025 73.3361 109.816 73.3361 110.792C73.3361 111.794 72.5446 112.559 71.5686 112.559Z" fill="#CFD3DF"/>
<path d="M71.5685 134.032C72.4426 134.032 73.1513 133.323 73.1513 132.449C73.1513 131.575 72.4426 130.866 71.5685 130.866C70.6944 130.866 69.9858 131.575 69.9858 132.449C69.9858 133.323 70.6944 134.032 71.5685 134.032Z" fill="#CFD3DF"/>
<path d="M71.5684 155.504C70.8034 155.504 70.1704 154.871 70.1704 154.106C70.1704 153.341 70.8034 152.708 71.5684 152.708C72.3334 152.708 72.9666 153.341 72.9666 154.106C72.993 154.871 72.3598 155.504 71.5684 155.504Z" fill="#CFD3DF"/>
<path d="M71.5686 176.951C70.8827 176.951 70.3289 176.397 70.3289 175.711C70.3289 175.025 70.8827 174.471 71.5686 174.471C72.2544 174.471 72.8085 175.025 72.8085 175.711C72.8085 176.397 72.2544 176.951 71.5686 176.951Z" fill="#CFD3DF"/>
<path d="M71.5685 198.423C70.9882 198.423 70.5134 197.948 70.5134 197.367C70.5134 196.787 70.9882 196.312 71.5685 196.312C72.1488 196.312 72.6237 196.787 72.6237 197.367C72.6237 197.948 72.1752 198.423 71.5685 198.423Z" fill="#CFD3DF"/>
<path d="M71.5686 219.869C71.0938 219.869 70.6982 219.473 70.6982 218.998C70.6982 218.523 71.0938 218.128 71.5686 218.128C72.0435 218.128 72.4392 218.523 72.4392 218.998C72.4656 219.473 72.0698 219.869 71.5686 219.869Z" fill="#CFD3DF"/>
<path d="M71.5686 241.341C71.1729 241.341 70.8564 241.025 70.8564 240.629C70.8564 240.233 71.1729 239.917 71.5686 239.917C71.9643 239.917 72.2809 240.233 72.2809 240.629C72.2809 241.025 71.9643 241.341 71.5686 241.341Z" fill="#CFD3DF"/>
<path d="M71.5686 262.814C71.86 262.814 72.0962 262.578 72.0962 262.286C72.0962 261.995 71.86 261.759 71.5686 261.759C71.2773 261.759 71.041 261.995 71.041 262.286C71.041 262.578 71.2773 262.814 71.5686 262.814Z" fill="#CFD3DF"/>
<path d="M71.5685 284.26C71.3839 284.26 71.2256 284.102 71.2256 283.917C71.2256 283.732 71.3839 283.574 71.5685 283.574C71.7532 283.574 71.9115 283.732 71.9115 283.917C71.9378 284.102 71.7796 284.26 71.5685 284.26Z" fill="#CFD3DF"/>
<path d="M71.5685 305.732C71.4629 305.732 71.3838 305.653 71.3838 305.548C71.3838 305.442 71.4629 305.363 71.5685 305.363C71.674 305.363 71.7531 305.442 71.7531 305.548C71.7531 305.653 71.674 305.732 71.5685 305.732Z" fill="#CFD3DF"/>
<path d="M95.8444 5.2758C97.3013 5.2758 98.4823 4.09477 98.4823 2.6379C98.4823 1.18103 97.3013 0 95.8444 0C94.3876 0 93.2065 1.18103 93.2065 2.6379C93.2065 4.09477 94.3876 5.2758 95.8444 5.2758Z" fill="#CFD3DF"/>
<path d="M95.8446 26.7219C94.4729 26.7219 93.3914 25.614 93.3914 24.2687C93.3914 22.8969 94.4993 21.8154 95.8446 21.8154C97.1899 21.8154 98.298 22.9233 98.298 24.2687C98.3243 25.614 97.2163 26.7219 95.8446 26.7219Z" fill="#CFD3DF"/>
<path d="M95.8445 48.1945C97.112 48.1945 98.1395 47.167 98.1395 45.8995C98.1395 44.6321 97.112 43.6045 95.8445 43.6045C94.577 43.6045 93.5496 44.6321 93.5496 45.8995C93.5496 47.167 94.577 48.1945 95.8445 48.1945Z" fill="#CFD3DF"/>
<path d="M95.8444 69.6406C97.0099 69.6406 97.9549 68.6957 97.9549 67.5302C97.9549 66.3647 97.0099 65.4199 95.8444 65.4199C94.6789 65.4199 93.7341 66.3647 93.7341 67.5302C93.7341 68.6957 94.6789 69.6406 95.8444 69.6406Z" fill="#CFD3DF"/>
<path d="M95.8446 91.1133C94.7894 91.1133 93.9189 90.2427 93.9189 89.1876C93.9189 88.106 94.7894 87.262 95.8446 87.262C96.9261 87.262 97.7703 88.1324 97.7703 89.1876C97.7967 90.2427 96.9261 91.1133 95.8446 91.1133Z" fill="#CFD3DF"/>
<path d="M95.8445 112.559C94.8685 112.559 94.0771 111.768 94.0771 110.792C94.0771 109.816 94.8685 109.025 95.8445 109.025C96.8205 109.025 97.612 109.816 97.612 110.792C97.612 111.794 96.8205 112.559 95.8445 112.559Z" fill="#CFD3DF"/>
<path d="M95.8444 134.032C96.7185 134.032 97.4272 133.323 97.4272 132.449C97.4272 131.575 96.7185 130.866 95.8444 130.866C94.9703 130.866 94.2617 131.575 94.2617 132.449C94.2617 133.323 94.9703 134.032 95.8444 134.032Z" fill="#CFD3DF"/>
<path d="M95.8445 155.504C95.0795 155.504 94.4465 154.871 94.4465 154.106C94.4465 153.341 95.0795 152.708 95.8445 152.708C96.6095 152.708 97.2427 153.341 97.2427 154.106C97.2691 154.871 96.6359 155.504 95.8445 155.504Z" fill="#CFD3DF"/>
<path d="M95.8445 176.951C95.1586 176.951 94.6047 176.397 94.6047 175.711C94.6047 175.025 95.1586 174.471 95.8445 174.471C96.5303 174.471 97.0844 175.025 97.0844 175.711C97.0844 176.397 96.5303 176.951 95.8445 176.951Z" fill="#CFD3DF"/>
<path d="M95.8444 198.423C95.264 198.423 94.7893 197.948 94.7893 197.367C94.7893 196.787 95.264 196.312 95.8444 196.312C96.4247 196.312 96.8996 196.787 96.8996 197.367C96.8996 197.948 96.4247 198.423 95.8444 198.423Z" fill="#CFD3DF"/>
<path d="M95.8445 219.869C95.3697 219.869 94.9741 219.473 94.9741 218.998C94.9741 218.523 95.3697 218.128 95.8445 218.128C96.3193 218.128 96.7151 218.523 96.7151 218.998C96.7414 219.473 96.3457 219.869 95.8445 219.869Z" fill="#CFD3DF"/>
<path d="M95.8444 241.341C96.2378 241.341 96.5567 241.022 96.5567 240.629C96.5567 240.236 96.2378 239.917 95.8444 239.917C95.4511 239.917 95.1323 240.236 95.1323 240.629C95.1323 241.022 95.4511 241.341 95.8444 241.341Z" fill="#CFD3DF"/>
<path d="M95.8446 262.814C96.136 262.814 96.3722 262.578 96.3722 262.286C96.3722 261.995 96.136 261.759 95.8446 261.759C95.5532 261.759 95.3171 261.995 95.3171 262.286C95.3171 262.578 95.5532 262.814 95.8446 262.814Z" fill="#CFD3DF"/>
<path d="M95.8444 284.26C96.0338 284.26 96.1873 284.106 96.1873 283.917C96.1873 283.728 96.0338 283.574 95.8444 283.574C95.655 283.574 95.5015 283.728 95.5015 283.917C95.5015 284.106 95.655 284.26 95.8444 284.26Z" fill="#CFD3DF"/>
<path d="M95.8444 305.732C95.7389 305.732 95.6599 305.653 95.6599 305.548C95.6599 305.442 95.7389 305.363 95.8444 305.363C95.9499 305.363 96.0291 305.442 96.0291 305.548C96.0291 305.653 95.9499 305.732 95.8444 305.732Z" fill="#CFD3DF"/>
<path d="M120.12 5.2758C121.577 5.2758 122.758 4.09477 122.758 2.6379C122.758 1.18103 121.577 0 120.12 0C118.663 0 117.482 1.18103 117.482 2.6379C117.482 4.09477 118.663 5.2758 120.12 5.2758Z" fill="#CFD3DF"/>
<path d="M120.12 26.7219C118.749 26.7219 117.667 25.614 117.667 24.2687C117.667 22.8969 118.775 21.8154 120.12 21.8154C121.492 21.8154 122.574 22.9233 122.574 24.2687C122.574 25.614 121.492 26.7219 120.12 26.7219Z" fill="#CFD3DF"/>
<path d="M120.12 48.1945C118.854 48.1945 117.825 47.1657 117.825 45.8995C117.825 44.6333 118.854 43.6045 120.12 43.6045C121.387 43.6045 122.415 44.6333 122.415 45.8995C122.415 47.1657 121.387 48.1945 120.12 48.1945Z" fill="#CFD3DF"/>
<path d="M120.12 69.6406C121.286 69.6406 122.23 68.6957 122.23 67.5302C122.23 66.3647 121.286 65.4199 120.12 65.4199C118.955 65.4199 118.01 66.3647 118.01 67.5302C118.01 68.6957 118.955 69.6406 120.12 69.6406Z" fill="#CFD3DF"/>
<path d="M120.12 91.1133C119.039 91.1133 118.195 90.2427 118.195 89.1876C118.195 88.106 119.065 87.262 120.12 87.262C121.202 87.262 122.046 88.1324 122.046 89.1876C122.046 90.2427 121.176 91.1133 120.12 91.1133Z" fill="#CFD3DF"/>
<path d="M120.12 112.559C119.144 112.559 118.353 111.768 118.353 110.792C118.353 109.816 119.144 109.025 120.12 109.025C121.096 109.025 121.888 109.816 121.888 110.792C121.888 111.794 121.096 112.559 120.12 112.559Z" fill="#CFD3DF"/>
<path d="M120.12 134.032C120.995 134.032 121.703 133.323 121.703 132.449C121.703 131.575 120.995 130.866 120.12 130.866C119.246 130.866 118.538 131.575 118.538 132.449C118.538 133.323 119.246 134.032 120.12 134.032Z" fill="#CFD3DF"/>
<path d="M120.12 155.504C119.355 155.504 118.722 154.871 118.722 154.106C118.722 153.341 119.355 152.708 120.12 152.708C120.885 152.708 121.518 153.341 121.518 154.106C121.518 154.871 120.885 155.504 120.12 155.504Z" fill="#CFD3DF"/>
<path d="M120.12 176.951C119.434 176.951 118.88 176.397 118.88 175.711C118.88 175.025 119.434 174.471 120.12 174.471C120.806 174.471 121.36 175.025 121.36 175.711C121.36 176.397 120.806 176.951 120.12 176.951Z" fill="#CFD3DF"/>
<path d="M120.12 198.423C119.54 198.423 119.065 197.948 119.065 197.367C119.065 196.787 119.54 196.312 120.12 196.312C120.701 196.312 121.175 196.787 121.175 197.367C121.175 197.948 120.701 198.423 120.12 198.423Z" fill="#CFD3DF"/>
<path d="M120.12 219.869C119.645 219.869 119.25 219.473 119.25 218.998C119.25 218.523 119.645 218.128 120.12 218.128C120.595 218.128 120.991 218.523 120.991 218.998C120.991 219.473 120.595 219.869 120.12 219.869Z" fill="#CFD3DF"/>
<path d="M120.12 241.341C119.725 241.341 119.408 241.025 119.408 240.629C119.408 240.233 119.725 239.917 120.12 239.917C120.516 239.917 120.832 240.233 120.832 240.629C120.832 241.025 120.516 241.341 120.12 241.341Z" fill="#CFD3DF"/>
<path d="M120.12 262.814C120.412 262.814 120.648 262.578 120.648 262.286C120.648 261.995 120.412 261.759 120.12 261.759C119.829 261.759 119.593 261.995 119.593 262.286C119.593 262.578 119.829 262.814 120.12 262.814Z" fill="#CFD3DF"/>
<path d="M120.12 284.26C119.936 284.26 119.777 284.102 119.777 283.917C119.777 283.732 119.936 283.574 120.12 283.574C120.305 283.574 120.463 283.732 120.463 283.917C120.463 284.102 120.305 284.26 120.12 284.26Z" fill="#CFD3DF"/>
<path d="M120.12 305.732C120.015 305.732 119.936 305.653 119.936 305.548C119.936 305.442 120.015 305.363 120.12 305.363C120.226 305.363 120.305 305.442 120.305 305.548C120.305 305.653 120.226 305.732 120.12 305.732Z" fill="#CFD3DF"/>
<path d="M144.396 5.2758C145.853 5.2758 147.034 4.09477 147.034 2.6379C147.034 1.18103 145.853 0 144.396 0C142.939 0 141.758 1.18103 141.758 2.6379C141.758 4.09477 142.939 5.2758 144.396 5.2758Z" fill="#CFD3DF"/>
<path d="M144.396 26.7219C143.025 26.7219 141.943 25.614 141.943 24.2687C141.943 22.8969 143.051 21.8154 144.396 21.8154C145.768 21.8154 146.85 22.9233 146.85 24.2687C146.85 25.614 145.742 26.7219 144.396 26.7219Z" fill="#CFD3DF"/>
<path d="M144.396 48.1945C143.13 48.1945 142.101 47.1657 142.101 45.8995C142.101 44.6333 143.13 43.6045 144.396 43.6045C145.662 43.6045 146.691 44.6333 146.691 45.8995C146.665 47.1657 145.662 48.1945 144.396 48.1945Z" fill="#CFD3DF"/>
<path d="M144.396 69.6406C145.562 69.6406 146.506 68.6957 146.506 67.5302C146.506 66.3647 145.562 65.4199 144.396 65.4199C143.231 65.4199 142.286 66.3647 142.286 67.5302C142.286 68.6957 143.231 69.6406 144.396 69.6406Z" fill="#CFD3DF"/>
<path d="M144.396 91.1133C143.315 91.1133 142.47 90.2427 142.47 89.1876C142.47 88.106 143.341 87.262 144.396 87.262C145.451 87.262 146.322 88.1324 146.322 89.1876C146.322 90.2427 145.451 91.1133 144.396 91.1133Z" fill="#CFD3DF"/>
<path d="M144.396 112.559C143.42 112.559 142.629 111.768 142.629 110.792C142.629 109.816 143.42 109.025 144.396 109.025C145.372 109.025 146.164 109.816 146.164 110.792C146.137 111.794 145.372 112.559 144.396 112.559Z" fill="#CFD3DF"/>
<path d="M144.396 134.032C143.526 134.032 142.813 133.32 142.813 132.449C142.813 131.579 143.526 130.866 144.396 130.866C145.267 130.866 145.979 131.579 145.979 132.449C145.979 133.32 145.267 134.032 144.396 134.032Z" fill="#CFD3DF"/>
<path d="M144.396 155.504C143.631 155.504 142.998 154.871 142.998 154.106C142.998 153.341 143.631 152.708 144.396 152.708C145.161 152.708 145.794 153.341 145.794 154.106C145.794 154.871 145.161 155.504 144.396 155.504Z" fill="#CFD3DF"/>
<path d="M144.396 176.951C143.71 176.951 143.156 176.397 143.156 175.711C143.156 175.025 143.71 174.471 144.396 174.471C145.082 174.471 145.636 175.025 145.636 175.711C145.61 176.397 145.056 176.951 144.396 176.951Z" fill="#CFD3DF"/>
<path d="M144.396 198.423C143.816 198.423 143.341 197.948 143.341 197.367C143.341 196.787 143.816 196.312 144.396 196.312C144.977 196.312 145.451 196.787 145.451 197.367C145.451 197.948 144.977 198.423 144.396 198.423Z" fill="#CFD3DF"/>
<path d="M144.396 219.869C144.877 219.869 145.267 219.479 145.267 218.998C145.267 218.517 144.877 218.128 144.396 218.128C143.915 218.128 143.526 218.517 143.526 218.998C143.526 219.479 143.915 219.869 144.396 219.869Z" fill="#CFD3DF"/>
<path d="M144.396 241.341C144.001 241.341 143.684 241.025 143.684 240.629C143.684 240.233 144.001 239.917 144.396 239.917C144.792 239.917 145.108 240.233 145.108 240.629C145.082 241.025 144.766 241.341 144.396 241.341Z" fill="#CFD3DF"/>
<path d="M144.396 262.814C144.688 262.814 144.924 262.578 144.924 262.286C144.924 261.995 144.688 261.759 144.396 261.759C144.105 261.759 143.869 261.995 143.869 262.286C143.869 262.578 144.105 262.814 144.396 262.814Z" fill="#CFD3DF"/>
<path d="M144.396 284.26C144.212 284.26 144.053 284.102 144.053 283.917C144.053 283.732 144.212 283.574 144.396 283.574C144.581 283.574 144.739 283.732 144.739 283.917C144.739 284.102 144.581 284.26 144.396 284.26Z" fill="#CFD3DF"/>
<path d="M144.396 305.732C144.291 305.732 144.212 305.653 144.212 305.548C144.212 305.442 144.291 305.363 144.396 305.363C144.502 305.363 144.581 305.442 144.581 305.548C144.555 305.653 144.475 305.732 144.396 305.732Z" fill="#CFD3DF"/>
<path d="M168.672 5.2758C170.129 5.2758 171.31 4.09477 171.31 2.6379C171.31 1.18103 170.129 0 168.672 0C167.215 0 166.034 1.18103 166.034 2.6379C166.034 4.09477 167.215 5.2758 168.672 5.2758Z" fill="#CFD3DF"/>
<path d="M168.672 26.7219C167.3 26.7219 166.219 25.614 166.219 24.2687C166.219 22.8969 167.326 21.8154 168.672 21.8154C170.043 21.8154 171.125 22.9233 171.125 24.2687C171.151 25.614 170.043 26.7219 168.672 26.7219Z" fill="#CFD3DF"/>
<path d="M168.672 48.1945C167.406 48.1945 166.377 47.1657 166.377 45.8995C166.377 44.6333 167.406 43.6045 168.672 43.6045C169.938 43.6045 170.967 44.6333 170.967 45.8995C170.967 47.1657 169.938 48.1945 168.672 48.1945Z" fill="#CFD3DF"/>
<path d="M168.672 69.6406C167.511 69.6406 166.562 68.6909 166.562 67.5302C166.562 66.3695 167.511 65.4199 168.672 65.4199C169.832 65.4199 170.782 66.3695 170.782 67.5302C170.782 68.6909 169.859 69.6406 168.672 69.6406Z" fill="#CFD3DF"/>
<path d="M168.672 91.1133C167.59 91.1133 166.746 90.2427 166.746 89.1876C166.746 88.106 167.617 87.262 168.672 87.262C169.727 87.262 170.597 88.1324 170.597 89.1876C170.624 90.2427 169.753 91.1133 168.672 91.1133Z" fill="#CFD3DF"/>
<path d="M168.672 112.559C167.696 112.559 166.905 111.768 166.905 110.792C166.905 109.816 167.696 109.025 168.672 109.025C169.648 109.025 170.439 109.816 170.439 110.792C170.439 111.794 169.648 112.559 168.672 112.559Z" fill="#CFD3DF"/>
<path d="M168.672 134.032C167.801 134.032 167.089 133.32 167.089 132.449C167.089 131.579 167.801 130.866 168.672 130.866C169.542 130.866 170.254 131.579 170.254 132.449C170.254 133.32 169.569 134.032 168.672 134.032Z" fill="#CFD3DF"/>
<path d="M168.672 155.504C167.907 155.504 167.274 154.871 167.274 154.106C167.274 153.341 167.907 152.708 168.672 152.708C169.437 152.708 170.07 153.341 170.07 154.106C170.096 154.871 169.463 155.504 168.672 155.504Z" fill="#CFD3DF"/>
<path d="M168.672 176.951C167.986 176.951 167.432 176.397 167.432 175.711C167.432 175.025 167.986 174.471 168.672 174.471C169.358 174.471 169.912 175.025 169.912 175.711C169.912 176.397 169.358 176.951 168.672 176.951Z" fill="#CFD3DF"/>
<path d="M168.672 198.423C168.092 198.423 167.617 197.948 167.617 197.367C167.617 196.787 168.092 196.312 168.672 196.312C169.252 196.312 169.727 196.787 169.727 197.367C169.727 197.948 169.279 198.423 168.672 198.423Z" fill="#CFD3DF"/>
<path d="M168.672 219.869C168.197 219.869 167.801 219.473 167.801 218.998C167.801 218.523 168.197 218.128 168.672 218.128C169.147 218.128 169.542 218.523 169.542 218.998C169.569 219.473 169.173 219.869 168.672 219.869Z" fill="#CFD3DF"/>
<path d="M168.672 241.341C168.276 241.341 167.959 241.025 167.959 240.629C167.959 240.233 168.276 239.917 168.672 239.917C169.067 239.917 169.384 240.233 169.384 240.629C169.384 241.025 169.067 241.341 168.672 241.341Z" fill="#CFD3DF"/>
<path d="M168.672 262.814C168.382 262.814 168.144 262.576 168.144 262.286C168.144 261.996 168.382 261.759 168.672 261.759C168.962 261.759 169.2 261.996 169.2 262.286C169.2 262.576 168.988 262.814 168.672 262.814Z" fill="#CFD3DF"/>
<path d="M168.672 284.26C168.487 284.26 168.329 284.102 168.329 283.917C168.329 283.732 168.487 283.574 168.672 283.574C168.856 283.574 169.015 283.732 169.015 283.917C169.041 284.102 168.883 284.26 168.672 284.26Z" fill="#CFD3DF"/>
<path d="M168.672 305.732C168.566 305.732 168.487 305.653 168.487 305.548C168.487 305.442 168.566 305.363 168.672 305.363C168.777 305.363 168.857 305.442 168.857 305.548C168.857 305.653 168.777 305.732 168.672 305.732Z" fill="#CFD3DF"/>
<path d="M192.948 5.2758C194.405 5.2758 195.586 4.09477 195.586 2.6379C195.586 1.18103 194.405 0 192.948 0C191.491 0 190.31 1.18103 190.31 2.6379C190.31 4.09477 191.491 5.2758 192.948 5.2758Z" fill="#CFD3DF"/>
<path d="M192.948 26.7219C191.576 26.7219 190.495 25.614 190.495 24.2687C190.495 22.8969 191.603 21.8154 192.948 21.8154C194.293 21.8154 195.401 22.9233 195.401 24.2687C195.427 25.614 194.32 26.7219 192.948 26.7219Z" fill="#CFD3DF"/>
<path d="M192.948 48.1945C194.215 48.1945 195.243 47.167 195.243 45.8995C195.243 44.6321 194.215 43.6045 192.948 43.6045C191.68 43.6045 190.653 44.6321 190.653 45.8995C190.653 47.167 191.68 48.1945 192.948 48.1945Z" fill="#CFD3DF"/>
<path d="M192.948 69.6406C191.787 69.6406 190.837 68.6909 190.837 67.5302C190.837 66.3695 191.787 65.4199 192.948 65.4199C194.108 65.4199 195.058 66.3695 195.058 67.5302C195.058 68.6909 194.108 69.6406 192.948 69.6406Z" fill="#CFD3DF"/>
<path d="M192.948 91.1133C191.892 91.1133 191.022 90.2427 191.022 89.1876C191.022 88.106 191.892 87.262 192.948 87.262C194.029 87.262 194.873 88.1324 194.873 89.1876C194.9 90.2427 194.029 91.1133 192.948 91.1133Z" fill="#CFD3DF"/>
<path d="M192.948 112.559C191.972 112.559 191.18 111.768 191.18 110.792C191.18 109.816 191.972 109.025 192.948 109.025C193.924 109.025 194.715 109.816 194.715 110.792C194.715 111.794 193.924 112.559 192.948 112.559Z" fill="#CFD3DF"/>
<path d="M192.948 134.032C193.822 134.032 194.531 133.323 194.531 132.449C194.531 131.575 193.822 130.866 192.948 130.866C192.074 130.866 191.365 131.575 191.365 132.449C191.365 133.323 192.074 134.032 192.948 134.032Z" fill="#CFD3DF"/>
<path d="M192.948 155.504C192.183 155.504 191.55 154.871 191.55 154.106C191.55 153.341 192.183 152.708 192.948 152.708C193.713 152.708 194.346 153.341 194.346 154.106C194.372 154.871 193.739 155.504 192.948 155.504Z" fill="#CFD3DF"/>
<path d="M192.948 176.951C192.262 176.951 191.708 176.397 191.708 175.711C191.708 175.025 192.262 174.471 192.948 174.471C193.634 174.471 194.188 175.025 194.188 175.711C194.188 176.397 193.634 176.951 192.948 176.951Z" fill="#CFD3DF"/>
<path d="M192.948 198.423C192.367 198.423 191.893 197.948 191.893 197.367C191.893 196.787 192.367 196.312 192.948 196.312C193.528 196.312 194.003 196.787 194.003 197.367C194.003 197.948 193.528 198.423 192.948 198.423Z" fill="#CFD3DF"/>
<path d="M192.948 219.869C192.473 219.869 192.077 219.473 192.077 218.998C192.077 218.523 192.473 218.128 192.948 218.128C193.423 218.128 193.818 218.523 193.818 218.998C193.845 219.473 193.449 219.869 192.948 219.869Z" fill="#CFD3DF"/>
<path d="M192.948 241.341C192.552 241.341 192.236 241.025 192.236 240.629C192.236 240.233 192.552 239.917 192.948 239.917C193.343 239.917 193.66 240.233 193.66 240.629C193.66 241.025 193.343 241.341 192.948 241.341Z" fill="#CFD3DF"/>
<path d="M192.948 262.814C192.658 262.814 192.42 262.576 192.42 262.286C192.42 261.996 192.658 261.759 192.948 261.759C193.238 261.759 193.475 261.996 193.475 262.286C193.475 262.576 193.238 262.814 192.948 262.814Z" fill="#CFD3DF"/>
<path d="M192.948 284.26C193.137 284.26 193.291 284.106 193.291 283.917C193.291 283.728 193.137 283.574 192.948 283.574C192.758 283.574 192.605 283.728 192.605 283.917C192.605 284.106 192.758 284.26 192.948 284.26Z" fill="#CFD3DF"/>
<path d="M192.948 305.732C192.842 305.732 192.763 305.653 192.763 305.548C192.763 305.442 192.842 305.363 192.948 305.363C193.053 305.363 193.132 305.442 193.132 305.548C193.132 305.653 193.053 305.732 192.948 305.732Z" fill="#CFD3DF"/>
<path d="M217.224 5.2758C218.68 5.2758 219.861 4.09477 219.861 2.6379C219.861 1.18103 218.68 0 217.224 0C215.767 0 214.586 1.18103 214.586 2.6379C214.586 4.09477 215.767 5.2758 217.224 5.2758Z" fill="#CFD3DF"/>
<path d="M217.223 26.7219C215.852 26.7219 214.77 25.614 214.77 24.2687C214.77 22.8969 215.878 21.8154 217.223 21.8154C218.569 21.8154 219.677 22.9233 219.677 24.2687C219.677 25.614 218.595 26.7219 217.223 26.7219Z" fill="#CFD3DF"/>
<path d="M217.224 48.1945C218.491 48.1945 219.519 47.167 219.519 45.8995C219.519 44.6321 218.491 43.6045 217.224 43.6045C215.956 43.6045 214.929 44.6321 214.929 45.8995C214.929 47.167 215.956 48.1945 217.224 48.1945Z" fill="#CFD3DF"/>
<path d="M217.224 69.6406C218.389 69.6406 219.334 68.6957 219.334 67.5302C219.334 66.3647 218.389 65.4199 217.224 65.4199C216.058 65.4199 215.113 66.3647 215.113 67.5302C215.113 68.6957 216.058 69.6406 217.224 69.6406Z" fill="#CFD3DF"/>
<path d="M217.223 91.1133C216.142 91.1133 215.298 90.2427 215.298 89.1876C215.298 88.106 216.168 87.262 217.223 87.262C218.279 87.262 219.149 88.1324 219.149 89.1876C219.149 90.2427 218.279 91.1133 217.223 91.1133Z" fill="#CFD3DF"/>
<path d="M217.224 112.559C216.248 112.559 215.456 111.768 215.456 110.792C215.456 109.816 216.248 109.025 217.224 109.025C218.2 109.025 218.991 109.816 218.991 110.792C218.991 111.794 218.2 112.559 217.224 112.559Z" fill="#CFD3DF"/>
<path d="M217.224 134.032C218.098 134.032 218.806 133.323 218.806 132.449C218.806 131.575 218.098 130.866 217.224 130.866C216.349 130.866 215.641 131.575 215.641 132.449C215.641 133.323 216.349 134.032 217.224 134.032Z" fill="#CFD3DF"/>
<path d="M217.223 155.504C216.458 155.504 215.825 154.871 215.825 154.106C215.825 153.341 216.458 152.708 217.223 152.708C217.988 152.708 218.622 153.341 218.622 154.106C218.622 154.871 217.988 155.504 217.223 155.504Z" fill="#CFD3DF"/>
<path d="M217.224 176.951C216.538 176.951 215.984 176.397 215.984 175.711C215.984 175.025 216.538 174.471 217.224 174.471C217.909 174.471 218.464 175.025 218.464 175.711C218.464 176.397 217.909 176.951 217.224 176.951Z" fill="#CFD3DF"/>
<path d="M217.224 198.423C216.643 198.423 216.168 197.948 216.168 197.367C216.168 196.787 216.643 196.312 217.224 196.312C217.804 196.312 218.279 196.787 218.279 197.367C218.279 197.948 217.804 198.423 217.224 198.423Z" fill="#CFD3DF"/>
<path d="M217.223 219.869C217.704 219.869 218.094 219.479 218.094 218.998C218.094 218.517 217.704 218.128 217.223 218.128C216.743 218.128 216.353 218.517 216.353 218.998C216.353 219.479 216.743 219.869 217.223 219.869Z" fill="#CFD3DF"/>
<path d="M217.224 241.341C216.828 241.341 216.511 241.025 216.511 240.629C216.511 240.233 216.828 239.917 217.224 239.917C217.619 239.917 217.936 240.233 217.936 240.629C217.936 241.025 217.619 241.341 217.224 241.341Z" fill="#CFD3DF"/>
<path d="M217.223 262.814C217.515 262.814 217.751 262.578 217.751 262.286C217.751 261.995 217.515 261.759 217.223 261.759C216.932 261.759 216.696 261.995 216.696 262.286C216.696 262.578 216.932 262.814 217.223 262.814Z" fill="#CFD3DF"/>
<path d="M217.224 284.26C217.413 284.26 217.566 284.106 217.566 283.917C217.566 283.728 217.413 283.574 217.224 283.574C217.034 283.574 216.881 283.728 216.881 283.917C216.881 284.106 217.034 284.26 217.224 284.26Z" fill="#CFD3DF"/>
<path d="M217.223 305.732C217.118 305.732 217.039 305.653 217.039 305.548C217.039 305.442 217.118 305.363 217.223 305.363C217.329 305.363 217.408 305.442 217.408 305.548C217.408 305.653 217.329 305.732 217.223 305.732Z" fill="#CFD3DF"/>
<path d="M241.499 5.2758C242.956 5.2758 244.137 4.09477 244.137 2.6379C244.137 1.18103 242.956 0 241.499 0C240.042 0 238.861 1.18103 238.861 2.6379C238.861 4.09477 240.042 5.2758 241.499 5.2758Z" fill="#CFD3DF"/>
<path d="M241.499 26.7219C240.128 26.7219 239.046 25.614 239.046 24.2687C239.046 22.8969 240.154 21.8154 241.499 21.8154C242.845 21.8154 243.953 22.9233 243.953 24.2687C243.953 25.614 242.845 26.7219 241.499 26.7219Z" fill="#CFD3DF"/>
<path d="M241.499 48.1945C242.767 48.1945 243.794 47.167 243.794 45.8995C243.794 44.6321 242.767 43.6045 241.499 43.6045C240.232 43.6045 239.204 44.6321 239.204 45.8995C239.204 47.167 240.232 48.1945 241.499 48.1945Z" fill="#CFD3DF"/>
<path d="M241.499 69.6406C242.665 69.6406 243.609 68.6957 243.609 67.5302C243.609 66.3647 242.665 65.4199 241.499 65.4199C240.334 65.4199 239.389 66.3647 239.389 67.5302C239.389 68.6957 240.334 69.6406 241.499 69.6406Z" fill="#CFD3DF"/>
<path d="M241.499 91.1133C240.418 91.1133 239.573 90.2427 239.573 89.1876C239.573 88.106 240.444 87.262 241.499 87.262C242.554 87.262 243.425 88.1324 243.425 89.1876C243.425 90.2427 242.554 91.1133 241.499 91.1133Z" fill="#CFD3DF"/>
<path d="M241.499 112.559C240.523 112.559 239.732 111.768 239.732 110.792C239.732 109.816 240.523 109.025 241.499 109.025C242.475 109.025 243.267 109.816 243.267 110.792C243.24 111.794 242.475 112.559 241.499 112.559Z" fill="#CFD3DF"/>
<path d="M241.499 134.032C242.373 134.032 243.082 133.323 243.082 132.449C243.082 131.575 242.373 130.866 241.499 130.866C240.625 130.866 239.917 131.575 239.917 132.449C239.917 133.323 240.625 134.032 241.499 134.032Z" fill="#CFD3DF"/>
<path d="M241.499 155.504C240.734 155.504 240.101 154.871 240.101 154.106C240.101 153.341 240.734 152.708 241.499 152.708C242.264 152.708 242.897 153.341 242.897 154.106C242.897 154.871 242.264 155.504 241.499 155.504Z" fill="#CFD3DF"/>
<path d="M241.499 176.951C240.813 176.951 240.259 176.397 240.259 175.711C240.259 175.025 240.813 174.471 241.499 174.471C242.185 174.471 242.739 175.025 242.739 175.711C242.713 176.397 242.159 176.951 241.499 176.951Z" fill="#CFD3DF"/>
<path d="M241.499 198.423C240.919 198.423 240.444 197.948 240.444 197.367C240.444 196.787 240.919 196.312 241.499 196.312C242.08 196.312 242.554 196.787 242.554 197.367C242.554 197.948 242.08 198.423 241.499 198.423Z" fill="#CFD3DF"/>
<path d="M241.499 219.869C241.024 219.869 240.629 219.473 240.629 218.998C240.629 218.523 241.024 218.128 241.499 218.128C241.974 218.128 242.37 218.523 242.37 218.998C242.37 219.473 241.974 219.869 241.499 219.869Z" fill="#CFD3DF"/>
<path d="M241.499 241.341C241.893 241.341 242.211 241.022 242.211 240.629C242.211 240.236 241.893 239.917 241.499 239.917C241.106 239.917 240.787 240.236 240.787 240.629C240.787 241.022 241.106 241.341 241.499 241.341Z" fill="#CFD3DF"/>
<path d="M241.499 262.814C241.791 262.814 242.027 262.578 242.027 262.286C242.027 261.995 241.791 261.759 241.499 261.759C241.208 261.759 240.972 261.995 240.972 262.286C240.972 262.578 241.208 262.814 241.499 262.814Z" fill="#CFD3DF"/>
<path d="M241.499 284.26C241.689 284.26 241.842 284.106 241.842 283.917C241.842 283.728 241.689 283.574 241.499 283.574C241.31 283.574 241.156 283.728 241.156 283.917C241.156 284.106 241.31 284.26 241.499 284.26Z" fill="#CFD3DF"/>
<path d="M241.499 305.732C241.394 305.732 241.314 305.653 241.314 305.548C241.314 305.442 241.394 305.363 241.499 305.363C241.605 305.363 241.684 305.442 241.684 305.548C241.657 305.653 241.578 305.732 241.499 305.732Z" fill="#CFD3DF"/>
<path d="M265.775 5.2758C267.232 5.2758 268.413 4.09477 268.413 2.6379C268.413 1.18103 267.232 0 265.775 0C264.318 0 263.137 1.18103 263.137 2.6379C263.137 4.09477 264.318 5.2758 265.775 5.2758Z" fill="#CFD3DF"/>
<path d="M265.775 26.7219C264.403 26.7219 263.322 25.614 263.322 24.2687C263.322 22.8969 264.43 21.8154 265.775 21.8154C267.147 21.8154 268.228 22.9233 268.228 24.2687C268.255 25.614 267.147 26.7219 265.775 26.7219Z" fill="#CFD3DF"/>
<path d="M265.775 48.1945C264.509 48.1945 263.48 47.1657 263.48 45.8995C263.48 44.6333 264.509 43.6045 265.775 43.6045C267.041 43.6045 268.07 44.6333 268.07 45.8995C268.07 47.1657 267.041 48.1945 265.775 48.1945Z" fill="#CFD3DF"/>
<path d="M265.775 69.6406C264.614 69.6406 263.665 68.6909 263.665 67.5302C263.665 66.3695 264.614 65.4199 265.775 65.4199C266.936 65.4199 267.885 66.3695 267.885 67.5302C267.885 68.6909 266.962 69.6406 265.775 69.6406Z" fill="#CFD3DF"/>
<path d="M265.775 91.1133C264.72 91.1133 263.85 90.2427 263.85 89.1876C263.85 88.106 264.72 87.262 265.775 87.262C266.857 87.262 267.701 88.1324 267.701 89.1876C267.727 90.2427 266.857 91.1133 265.775 91.1133Z" fill="#CFD3DF"/>
<path d="M265.775 112.559C264.799 112.559 264.008 111.768 264.008 110.792C264.008 109.816 264.799 109.025 265.775 109.025C266.751 109.025 267.543 109.816 267.543 110.792C267.543 111.794 266.751 112.559 265.775 112.559Z" fill="#CFD3DF"/>
<path d="M265.775 134.032C264.905 134.032 264.192 133.32 264.192 132.449C264.192 131.579 264.905 130.866 265.775 130.866C266.646 130.866 267.358 131.579 267.358 132.449C267.358 133.32 266.672 134.032 265.775 134.032Z" fill="#CFD3DF"/>
<path d="M265.775 155.504C265.01 155.504 264.377 154.871 264.377 154.106C264.377 153.341 265.01 152.708 265.775 152.708C266.54 152.708 267.173 153.341 267.173 154.106C267.199 154.871 266.566 155.504 265.775 155.504Z" fill="#CFD3DF"/>
<path d="M265.775 176.951C265.089 176.951 264.535 176.397 264.535 175.711C264.535 175.025 265.089 174.471 265.775 174.471C266.461 174.471 267.015 175.025 267.015 175.711C267.015 176.397 266.461 176.951 265.775 176.951Z" fill="#CFD3DF"/>
<path d="M265.775 198.423C265.195 198.423 264.72 197.948 264.72 197.367C264.72 196.787 265.195 196.312 265.775 196.312C266.356 196.312 266.83 196.787 266.83 197.367C266.83 197.948 266.382 198.423 265.775 198.423Z" fill="#CFD3DF"/>
<path d="M265.775 219.869C265.3 219.869 264.905 219.473 264.905 218.998C264.905 218.523 265.3 218.128 265.775 218.128C266.25 218.128 266.646 218.523 266.646 218.998C266.672 219.473 266.276 219.869 265.775 219.869Z" fill="#CFD3DF"/>
<path d="M265.775 241.341C265.379 241.341 265.063 241.025 265.063 240.629C265.063 240.233 265.379 239.917 265.775 239.917C266.171 239.917 266.487 240.233 266.487 240.629C266.487 241.025 266.171 241.341 265.775 241.341Z" fill="#CFD3DF"/>
<path d="M265.775 262.814C265.485 262.814 265.248 262.576 265.248 262.286C265.248 261.996 265.485 261.759 265.775 261.759C266.065 261.759 266.303 261.996 266.303 262.286C266.303 262.576 266.065 262.814 265.775 262.814Z" fill="#CFD3DF"/>
<path d="M265.775 284.26C265.59 284.26 265.432 284.102 265.432 283.917C265.432 283.732 265.59 283.574 265.775 283.574C265.96 283.574 266.118 283.732 266.118 283.917C266.144 284.102 265.986 284.26 265.775 284.26Z" fill="#CFD3DF"/>
<path d="M265.775 305.732C265.669 305.732 265.59 305.653 265.59 305.548C265.59 305.442 265.669 305.363 265.775 305.363C265.881 305.363 265.96 305.442 265.96 305.548C265.96 305.653 265.881 305.732 265.775 305.732Z" fill="#CFD3DF"/>
<path d="M290.051 5.2758C291.508 5.2758 292.689 4.09477 292.689 2.6379C292.689 1.18103 291.508 0 290.051 0C288.594 0 287.413 1.18103 287.413 2.6379C287.413 4.09477 288.594 5.2758 290.051 5.2758Z" fill="#CFD3DF"/>
<path d="M290.051 26.7219C288.679 26.7219 287.598 25.614 287.598 24.2687C287.598 22.8969 288.706 21.8154 290.051 21.8154C291.396 21.8154 292.504 22.9233 292.504 24.2687C292.53 25.614 291.423 26.7219 290.051 26.7219Z" fill="#CFD3DF"/>
<path d="M290.051 48.1945C288.785 48.1945 287.756 47.1657 287.756 45.8995C287.756 44.6333 288.785 43.6045 290.051 43.6045C291.317 43.6045 292.346 44.6333 292.346 45.8995C292.346 47.1657 291.317 48.1945 290.051 48.1945Z" fill="#CFD3DF"/>
<path d="M290.051 69.6406C288.89 69.6406 287.941 68.6909 287.941 67.5302C287.941 66.3695 288.89 65.4199 290.051 65.4199C291.212 65.4199 292.161 66.3695 292.161 67.5302C292.161 68.6909 291.212 69.6406 290.051 69.6406Z" fill="#CFD3DF"/>
<path d="M290.051 91.1133C288.996 91.1133 288.125 90.2427 288.125 89.1876C288.125 88.106 288.996 87.262 290.051 87.262C291.132 87.262 291.976 88.1324 291.976 89.1876C292.003 90.2427 291.132 91.1133 290.051 91.1133Z" fill="#CFD3DF"/>
<path d="M290.051 112.559C289.075 112.559 288.284 111.768 288.284 110.792C288.284 109.816 289.075 109.025 290.051 109.025C291.027 109.025 291.818 109.816 291.818 110.792C291.818 111.794 291.027 112.559 290.051 112.559Z" fill="#CFD3DF"/>
<path d="M290.051 134.032C289.18 134.032 288.468 133.32 288.468 132.449C288.468 131.579 289.18 130.866 290.051 130.866C290.921 130.866 291.634 131.579 291.634 132.449C291.634 133.32 290.921 134.032 290.051 134.032Z" fill="#CFD3DF"/>
<path d="M290.051 155.504C289.286 155.504 288.653 154.871 288.653 154.106C288.653 153.341 289.286 152.708 290.051 152.708C290.816 152.708 291.449 153.341 291.449 154.106C291.476 154.871 290.842 155.504 290.051 155.504Z" fill="#CFD3DF"/>
<path d="M290.051 176.951C289.365 176.951 288.811 176.397 288.811 175.711C288.811 175.025 289.365 174.471 290.051 174.471C290.737 174.471 291.291 175.025 291.291 175.711C291.291 176.397 290.737 176.951 290.051 176.951Z" fill="#CFD3DF"/>
<path d="M290.051 198.423C289.47 198.423 288.996 197.948 288.996 197.367C288.996 196.787 289.47 196.312 290.051 196.312C290.631 196.312 291.106 196.787 291.106 197.367C291.106 197.948 290.631 198.423 290.051 198.423Z" fill="#CFD3DF"/>
<path d="M290.051 219.869C289.576 219.869 289.18 219.473 289.18 218.998C289.18 218.523 289.576 218.128 290.051 218.128C290.526 218.128 290.922 218.523 290.922 218.998C290.948 219.473 290.552 219.869 290.051 219.869Z" fill="#CFD3DF"/>
<path d="M290.051 241.341C289.655 241.341 289.339 241.025 289.339 240.629C289.339 240.233 289.655 239.917 290.051 239.917C290.447 239.917 290.763 240.233 290.763 240.629C290.763 241.025 290.447 241.341 290.051 241.341Z" fill="#CFD3DF"/>
<path d="M290.051 262.814C289.761 262.814 289.523 262.576 289.523 262.286C289.523 261.996 289.761 261.759 290.051 261.759C290.341 261.759 290.579 261.996 290.579 262.286C290.579 262.576 290.341 262.814 290.051 262.814Z" fill="#CFD3DF"/>
<path d="M290.051 284.26C289.866 284.26 289.708 284.102 289.708 283.917C289.708 283.732 289.866 283.574 290.051 283.574C290.236 283.574 290.394 283.732 290.394 283.917C290.42 284.102 290.262 284.26 290.051 284.26Z" fill="#CFD3DF"/>
<path d="M290.051 305.732C289.945 305.732 289.866 305.653 289.866 305.548C289.866 305.442 289.945 305.363 290.051 305.363C290.156 305.363 290.236 305.442 290.236 305.548C290.236 305.653 290.156 305.732 290.051 305.732Z" fill="#CFD3DF"/>
<path d="M314.327 5.2758C315.784 5.2758 316.965 4.09477 316.965 2.6379C316.965 1.18103 315.784 0 314.327 0C312.87 0 311.689 1.18103 311.689 2.6379C311.689 4.09477 312.87 5.2758 314.327 5.2758Z" fill="#CFD3DF"/>
<path d="M314.327 26.7219C312.955 26.7219 311.874 25.614 311.874 24.2687C311.874 22.8969 312.981 21.8154 314.327 21.8154C315.698 21.8154 316.78 22.9233 316.78 24.2687C316.78 25.614 315.698 26.7219 314.327 26.7219Z" fill="#CFD3DF"/>
<path d="M314.327 48.1945C313.061 48.1945 312.032 47.1657 312.032 45.8995C312.032 44.6333 313.061 43.6045 314.327 43.6045C315.593 43.6045 316.622 44.6333 316.622 45.8995C316.622 47.1657 315.593 48.1945 314.327 48.1945Z" fill="#CFD3DF"/>
<path d="M314.327 69.6406C315.492 69.6406 316.437 68.6957 316.437 67.5302C316.437 66.3647 315.492 65.4199 314.327 65.4199C313.161 65.4199 312.217 66.3647 312.217 67.5302C312.217 68.6957 313.161 69.6406 314.327 69.6406Z" fill="#CFD3DF"/>
<path d="M314.327 91.1133C313.245 91.1133 312.401 90.2427 312.401 89.1876C312.401 88.106 313.272 87.262 314.327 87.262C315.382 87.262 316.252 88.1324 316.252 89.1876C316.252 90.2427 315.382 91.1133 314.327 91.1133Z" fill="#CFD3DF"/>
<path d="M314.327 112.559C313.351 112.559 312.559 111.768 312.559 110.792C312.559 109.816 313.351 109.025 314.327 109.025C315.303 109.025 316.094 109.816 316.094 110.792C316.094 111.794 315.303 112.559 314.327 112.559Z" fill="#CFD3DF"/>
<path d="M314.327 134.032C313.456 134.032 312.744 133.32 312.744 132.449C312.744 131.579 313.456 130.866 314.327 130.866C315.197 130.866 315.91 131.579 315.91 132.449C315.91 133.32 315.197 134.032 314.327 134.032Z" fill="#CFD3DF"/>
<path d="M314.327 155.504C313.562 155.504 312.929 154.871 312.929 154.106C312.929 153.341 313.562 152.708 314.327 152.708C315.092 152.708 315.725 153.341 315.725 154.106C315.725 154.871 315.092 155.504 314.327 155.504Z" fill="#CFD3DF"/>
<path d="M314.327 176.951C313.641 176.951 313.087 176.397 313.087 175.711C313.087 175.025 313.641 174.471 314.327 174.471C315.013 174.471 315.567 175.025 315.567 175.711C315.567 176.397 315.013 176.951 314.327 176.951Z" fill="#CFD3DF"/>
<path d="M314.327 198.423C313.746 198.423 313.272 197.948 313.272 197.367C313.272 196.787 313.746 196.312 314.327 196.312C314.907 196.312 315.382 196.787 315.382 197.367C315.382 197.948 314.907 198.423 314.327 198.423Z" fill="#CFD3DF"/>
<path d="M314.327 219.869C313.852 219.869 313.456 219.473 313.456 218.998C313.456 218.523 313.852 218.128 314.327 218.128C314.802 218.128 315.197 218.523 315.197 218.998C315.197 219.473 314.802 219.869 314.327 219.869Z" fill="#CFD3DF"/>
<path d="M314.327 241.341C313.931 241.341 313.615 241.025 313.615 240.629C313.615 240.233 313.931 239.917 314.327 239.917C314.722 239.917 315.039 240.233 315.039 240.629C315.039 241.025 314.722 241.341 314.327 241.341Z" fill="#CFD3DF"/>
<path d="M314.327 262.814C314.618 262.814 314.855 262.578 314.855 262.286C314.855 261.995 314.618 261.759 314.327 261.759C314.036 261.759 313.799 261.995 313.799 262.286C313.799 262.578 314.036 262.814 314.327 262.814Z" fill="#CFD3DF"/>
<path d="M314.327 284.26C314.142 284.26 313.984 284.102 313.984 283.917C313.984 283.732 314.142 283.574 314.327 283.574C314.511 283.574 314.67 283.732 314.67 283.917C314.67 284.102 314.511 284.26 314.327 284.26Z" fill="#CFD3DF"/>
<path d="M314.327 305.732C314.221 305.732 314.142 305.653 314.142 305.548C314.142 305.442 314.221 305.363 314.327 305.363C314.432 305.363 314.511 305.442 314.511 305.548C314.511 305.653 314.432 305.732 314.327 305.732Z" fill="#CFD3DF"/>
</svg>
