<svg width="418" height="307" viewBox="0 0 418 307" fill="none" xmlns="http://www.w3.org/2000/svg">
<path d="M2.6379 5.65788C4.09477 5.65788 5.2758 4.47685 5.2758 3.01998C5.2758 1.56311 4.09477 0.38208 2.6379 0.38208C1.18103 0.38208 0 1.56311 0 3.01998C0 4.47685 1.18103 5.65788 2.6379 5.65788Z" fill="#CFD3DF"/>
<path d="M2.63786 27.104C1.26615 27.104 0.184631 25.9961 0.184631 24.6507C0.184631 23.279 1.29253 22.1975 2.63786 22.1975C4.00956 22.1975 5.09108 23.3054 5.09108 24.6507C5.11746 25.9961 4.00956 27.104 2.63786 27.104Z" fill="#CFD3DF"/>
<path d="M2.63791 48.5766C1.37172 48.5766 0.342957 47.5478 0.342957 46.2816C0.342957 45.0154 1.37172 43.9866 2.63791 43.9866C3.90411 43.9866 4.93287 45.0154 4.93287 46.2816C4.93287 47.5478 3.90411 48.5766 2.63791 48.5766Z" fill="#CFD3DF"/>
<path d="M2.63787 70.0227C1.4772 70.0227 0.527588 69.073 0.527588 67.9123C0.527588 66.7516 1.4772 65.802 2.63787 65.802C3.79855 65.802 4.74816 66.7516 4.74816 67.9123C4.74816 69.073 3.79855 70.0227 2.63787 70.0227Z" fill="#CFD3DF"/>
<path d="M2.63787 91.4954C1.58271 91.4954 0.712097 90.6248 0.712097 89.5697C0.712097 88.4881 1.58271 87.644 2.63787 87.644C3.71941 87.644 4.56349 88.5145 4.56349 89.5697C4.58986 90.6248 3.71941 91.4954 2.63787 91.4954Z" fill="#CFD3DF"/>
<path d="M2.63789 112.942C1.66187 112.942 0.870544 112.15 0.870544 111.174C0.870544 110.198 1.66187 109.407 2.63789 109.407C3.61391 109.407 4.40524 110.198 4.40524 111.174C4.40524 112.176 3.61391 112.942 2.63789 112.942Z" fill="#CFD3DF"/>
<path d="M2.63789 134.414C1.76738 134.414 1.05505 133.702 1.05505 132.831C1.05505 131.961 1.76738 131.249 2.63789 131.249C3.5084 131.249 4.22056 131.961 4.22056 132.831C4.22056 133.702 3.5084 134.414 2.63789 134.414Z" fill="#CFD3DF"/>
<path d="M2.63791 155.886C1.87292 155.886 1.23975 155.253 1.23975 154.488C1.23975 153.723 1.87292 153.09 2.63791 153.09C3.4029 153.09 4.03591 153.723 4.03591 154.488C4.06229 155.253 3.42928 155.886 2.63791 155.886Z" fill="#CFD3DF"/>
<path d="M2.63785 177.333C1.95199 177.333 1.39795 176.779 1.39795 176.093C1.39795 175.407 1.95199 174.853 2.63785 174.853C3.3237 174.853 3.87758 175.407 3.87758 176.093C3.87758 176.779 3.3237 177.333 2.63785 177.333Z" fill="#CFD3DF"/>
<path d="M2.63793 198.805C2.05759 198.805 1.5827 198.33 1.5827 197.749C1.5827 197.169 2.05759 196.694 2.63793 196.694C3.21826 196.694 3.69299 197.169 3.69299 197.749C3.69299 198.33 3.21826 198.805 2.63793 198.805Z" fill="#CFD3DF"/>
<path d="M2.63789 220.251C2.16306 220.251 1.76733 219.855 1.76733 219.38C1.76733 218.905 2.16306 218.51 2.63789 218.51C3.11271 218.51 3.50844 218.905 3.50844 219.38C3.53482 219.855 3.13909 220.251 2.63789 220.251Z" fill="#CFD3DF"/>
<path d="M2.63788 241.723C2.2422 241.723 1.9256 241.407 1.9256 241.011C1.9256 240.615 2.2422 240.299 2.63788 240.299C3.03357 240.299 3.35001 240.615 3.35001 241.011C3.35001 241.407 3.03357 241.723 2.63788 241.723Z" fill="#CFD3DF"/>
<path d="M2.6379 263.196C2.34773 263.196 2.11029 262.958 2.11029 262.668C2.11029 262.378 2.34773 262.141 2.6379 262.141C2.92807 262.141 3.16551 262.378 3.16551 262.668C3.16551 262.958 2.92807 263.196 2.6379 263.196Z" fill="#CFD3DF"/>
<path d="M2.63786 284.642C2.45321 284.642 2.29492 284.484 2.29492 284.299C2.29492 284.114 2.45321 283.956 2.63786 283.956C2.82251 283.956 2.9808 284.114 2.9808 284.299C3.00718 284.484 2.84889 284.642 2.63786 284.642Z" fill="#CFD3DF"/>
<path d="M2.63792 306.114C2.5324 306.114 2.45325 306.035 2.45325 305.93C2.45325 305.824 2.5324 305.745 2.63792 305.745C2.74344 305.745 2.82259 305.824 2.82259 305.93C2.82259 306.035 2.74344 306.114 2.63792 306.114Z" fill="#CFD3DF"/>
<path d="M26.9137 5.65788C28.3706 5.65788 29.5516 4.47685 29.5516 3.01998C29.5516 1.56311 28.3706 0.38208 26.9137 0.38208C25.4568 0.38208 24.2758 1.56311 24.2758 3.01998C24.2758 4.47685 25.4568 5.65788 26.9137 5.65788Z" fill="#CFD3DF"/>
<path d="M26.9137 27.104C25.542 27.104 24.4604 25.9961 24.4604 24.6507C24.4604 23.279 25.5683 22.1975 26.9137 22.1975C28.2854 22.1975 29.3669 23.3054 29.3669 24.6507C29.3669 25.9961 28.2854 27.104 26.9137 27.104Z" fill="#CFD3DF"/>
<path d="M26.9137 48.5766C25.6475 48.5766 24.6188 47.5478 24.6188 46.2816C24.6188 45.0154 25.6475 43.9866 26.9137 43.9866C28.1799 43.9866 29.2087 45.0154 29.2087 46.2816C29.2087 47.5478 28.1799 48.5766 26.9137 48.5766Z" fill="#CFD3DF"/>
<path d="M26.9138 70.0227C28.0792 70.0227 29.024 69.0778 29.024 67.9123C29.024 66.7468 28.0792 65.802 26.9138 65.802C25.7483 65.802 24.8035 66.7468 24.8035 67.9123C24.8035 69.0778 25.7483 70.0227 26.9138 70.0227Z" fill="#CFD3DF"/>
<path d="M26.9137 91.4954C25.8586 91.4954 24.9881 90.6248 24.9881 89.5697C24.9881 88.4881 25.8586 87.644 26.9137 87.644C27.9952 87.644 28.8393 88.5145 28.8393 89.5697C28.8393 90.6248 27.9689 91.4954 26.9137 91.4954Z" fill="#CFD3DF"/>
<path d="M26.9137 112.942C25.9377 112.942 25.1464 112.15 25.1464 111.174C25.1464 110.198 25.9377 109.407 26.9137 109.407C27.8897 109.407 28.6811 110.198 28.6811 111.174C28.6811 112.176 27.8897 112.942 26.9137 112.942Z" fill="#CFD3DF"/>
<path d="M26.9137 134.414C27.7879 134.414 28.4964 133.705 28.4964 132.831C28.4964 131.957 27.7879 131.249 26.9137 131.249C26.0396 131.249 25.3311 131.957 25.3311 132.831C25.3311 133.705 26.0396 134.414 26.9137 134.414Z" fill="#CFD3DF"/>
<path d="M26.9137 155.886C26.1487 155.886 25.5156 155.253 25.5156 154.488C25.5156 153.723 26.1487 153.09 26.9137 153.09C27.6787 153.09 28.3117 153.723 28.3117 154.488C28.3117 155.253 27.6787 155.886 26.9137 155.886Z" fill="#CFD3DF"/>
<path d="M26.9138 177.333C26.2279 177.333 25.6739 176.779 25.6739 176.093C25.6739 175.407 26.2279 174.853 26.9138 174.853C27.5996 174.853 28.1535 175.407 28.1535 176.093C28.1535 176.779 27.5996 177.333 26.9138 177.333Z" fill="#CFD3DF"/>
<path d="M26.9137 198.805C26.3334 198.805 25.8585 198.33 25.8585 197.749C25.8585 197.169 26.3334 196.694 26.9137 196.694C27.4941 196.694 27.969 197.169 27.969 197.749C27.969 198.33 27.4941 198.805 26.9137 198.805Z" fill="#CFD3DF"/>
<path d="M26.9137 220.251C26.4389 220.251 26.0432 219.855 26.0432 219.38C26.0432 218.905 26.4389 218.51 26.9137 218.51C27.3885 218.51 27.7843 218.905 27.7843 219.38C27.7843 219.855 27.3885 220.251 26.9137 220.251Z" fill="#CFD3DF"/>
<path d="M26.9138 241.723C26.5181 241.723 26.2015 241.407 26.2015 241.011C26.2015 240.615 26.5181 240.299 26.9138 240.299C27.3094 240.299 27.626 240.615 27.626 241.011C27.626 241.407 27.3094 241.723 26.9138 241.723Z" fill="#CFD3DF"/>
<path d="M26.9137 263.196C27.2051 263.196 27.4413 262.96 27.4413 262.668C27.4413 262.377 27.2051 262.141 26.9137 262.141C26.6223 262.141 26.3861 262.377 26.3861 262.668C26.3861 262.96 26.6223 263.196 26.9137 263.196Z" fill="#CFD3DF"/>
<path d="M26.9137 284.642C26.7291 284.642 26.5708 284.484 26.5708 284.299C26.5708 284.114 26.7291 283.956 26.9137 283.956C27.0984 283.956 27.2567 284.114 27.2567 284.299C27.2567 284.484 27.0984 284.642 26.9137 284.642Z" fill="#CFD3DF"/>
<path d="M26.9137 306.114C26.8082 306.114 26.7291 306.035 26.7291 305.93C26.7291 305.824 26.8082 305.745 26.9137 305.745C27.0193 305.745 27.0984 305.824 27.0984 305.93C27.0984 306.035 27.0193 306.114 26.9137 306.114Z" fill="#CFD3DF"/>
<path d="M51.1895 5.65788C52.6464 5.65788 53.8274 4.47685 53.8274 3.01998C53.8274 1.56311 52.6464 0.38208 51.1895 0.38208C49.7327 0.38208 48.5516 1.56311 48.5516 3.01998C48.5516 4.47685 49.7327 5.65788 51.1895 5.65788Z" fill="#CFD3DF"/>
<path d="M51.1896 27.104C49.8178 27.104 48.7363 25.9961 48.7363 24.6507C48.7363 23.279 49.8442 22.1975 51.1896 22.1975C52.5349 22.1975 53.6428 23.3054 53.6428 24.6507C53.6428 25.9961 52.5349 27.104 51.1896 27.104Z" fill="#CFD3DF"/>
<path d="M51.1896 48.5766C49.9234 48.5766 48.8946 47.5478 48.8946 46.2816C48.8946 45.0154 49.9234 43.9866 51.1896 43.9866C52.4557 43.9866 53.4845 45.0154 53.4845 46.2816C53.4581 47.5478 52.4557 48.5766 51.1896 48.5766Z" fill="#CFD3DF"/>
<path d="M51.1896 70.0227C52.3551 70.0227 53.2999 69.0778 53.2999 67.9123C53.2999 66.7468 52.3551 65.802 51.1896 65.802C50.0241 65.802 49.0793 66.7468 49.0793 67.9123C49.0793 69.0778 50.0241 70.0227 51.1896 70.0227Z" fill="#CFD3DF"/>
<path d="M51.1896 91.4954C50.1081 91.4954 49.264 90.6248 49.264 89.5697C49.264 88.4881 50.1344 87.644 51.1896 87.644C52.2448 87.644 53.1152 88.5145 53.1152 89.5697C53.1152 90.6248 52.2448 91.4954 51.1896 91.4954Z" fill="#CFD3DF"/>
<path d="M51.1896 112.942C50.2136 112.942 49.4222 112.15 49.4222 111.174C49.4222 110.198 50.2136 109.407 51.1896 109.407C52.1656 109.407 52.9569 110.198 52.9569 111.174C52.9306 112.176 52.1656 112.942 51.1896 112.942Z" fill="#CFD3DF"/>
<path d="M51.1895 134.414C52.0637 134.414 52.7724 133.705 52.7724 132.831C52.7724 131.957 52.0637 131.249 51.1895 131.249C50.3154 131.249 49.6069 131.957 49.6069 132.831C49.6069 133.705 50.3154 134.414 51.1895 134.414Z" fill="#CFD3DF"/>
<path d="M51.1895 155.886C50.4245 155.886 49.7915 155.253 49.7915 154.488C49.7915 153.723 50.4245 153.09 51.1895 153.09C51.9545 153.09 52.5877 153.723 52.5877 154.488C52.5877 155.253 51.9545 155.886 51.1895 155.886Z" fill="#CFD3DF"/>
<path d="M51.1896 177.333C50.5037 177.333 49.9498 176.779 49.9498 176.093C49.9498 175.407 50.5037 174.853 51.1896 174.853C51.8754 174.853 52.4295 175.407 52.4295 176.093C52.4031 176.779 51.8754 177.333 51.1896 177.333Z" fill="#CFD3DF"/>
<path d="M51.1895 198.805C50.6092 198.805 50.1345 198.33 50.1345 197.749C50.1345 197.169 50.6092 196.694 51.1895 196.694C51.7699 196.694 52.2447 197.169 52.2447 197.749C52.2447 198.33 51.7699 198.805 51.1895 198.805Z" fill="#CFD3DF"/>
<path d="M51.1895 220.251C50.7147 220.251 50.319 219.855 50.319 219.38C50.319 218.905 50.7147 218.51 51.1895 218.51C51.6643 218.51 52.0601 218.905 52.0601 219.38C52.0601 219.855 51.6643 220.251 51.1895 220.251Z" fill="#CFD3DF"/>
<path d="M51.1896 241.723C50.7939 241.723 50.4773 241.407 50.4773 241.011C50.4773 240.615 50.7939 240.299 51.1896 240.299C51.5853 240.299 51.9019 240.615 51.9019 241.011C51.8755 241.407 51.5589 241.723 51.1896 241.723Z" fill="#CFD3DF"/>
<path d="M51.1895 263.196C51.4809 263.196 51.7171 262.96 51.7171 262.668C51.7171 262.377 51.4809 262.141 51.1895 262.141C50.8982 262.141 50.6619 262.377 50.6619 262.668C50.6619 262.96 50.8982 263.196 51.1895 263.196Z" fill="#CFD3DF"/>
<path d="M51.1896 284.642C51.0049 284.642 50.8466 284.484 50.8466 284.299C50.8466 284.114 51.0049 283.956 51.1896 283.956C51.3742 283.956 51.5325 284.114 51.5325 284.299C51.5325 284.484 51.3742 284.642 51.1896 284.642Z" fill="#CFD3DF"/>
<path d="M51.1896 306.114C51.084 306.114 51.0049 306.035 51.0049 305.93C51.0049 305.824 51.084 305.745 51.1896 305.745C51.2951 305.745 51.3742 305.824 51.3742 305.93C51.3478 306.035 51.2687 306.114 51.1896 306.114Z" fill="#CFD3DF"/>
<path d="M75.4654 5.65788C76.9222 5.65788 78.1032 4.47685 78.1032 3.01998C78.1032 1.56311 76.9222 0.38208 75.4654 0.38208C74.0085 0.38208 72.8275 1.56311 72.8275 3.01998C72.8275 4.47685 74.0085 5.65788 75.4654 5.65788Z" fill="#CFD3DF"/>
<path d="M75.4653 27.104C74.0936 27.104 73.0121 25.9961 73.0121 24.6507C73.0121 23.279 74.12 22.1975 75.4653 22.1975C76.8106 22.1975 77.9187 23.3054 77.9187 24.6507C77.9451 25.9961 76.837 27.104 75.4653 27.104Z" fill="#CFD3DF"/>
<path d="M75.4654 48.5766C74.1992 48.5766 73.1704 47.5478 73.1704 46.2816C73.1704 45.0154 74.1992 43.9866 75.4654 43.9866C76.7316 43.9866 77.7605 45.0154 77.7605 46.2816C77.7605 47.5478 76.7316 48.5766 75.4654 48.5766Z" fill="#CFD3DF"/>
<path d="M75.4653 70.0227C76.6308 70.0227 77.5758 69.0778 77.5758 67.9123C77.5758 66.7468 76.6308 65.802 75.4653 65.802C74.2998 65.802 73.355 66.7468 73.355 67.9123C73.355 69.0778 74.2998 70.0227 75.4653 70.0227Z" fill="#CFD3DF"/>
<path d="M75.4654 91.4954C74.3839 91.4954 73.5398 90.6248 73.5398 89.5697C73.5398 88.4881 74.4102 87.644 75.4654 87.644C76.5206 87.644 77.3912 88.5145 77.3912 89.5697C77.4176 90.6248 76.5469 91.4954 75.4654 91.4954Z" fill="#CFD3DF"/>
<path d="M75.4653 112.942C74.4893 112.942 73.698 112.15 73.698 111.174C73.698 110.198 74.4893 109.407 75.4653 109.407C76.4414 109.407 77.2329 110.198 77.2329 111.174C77.2329 112.176 76.4414 112.942 75.4653 112.942Z" fill="#CFD3DF"/>
<path d="M75.4653 134.414C76.3394 134.414 77.0481 133.705 77.0481 132.831C77.0481 131.957 76.3394 131.249 75.4653 131.249C74.5912 131.249 73.8826 131.957 73.8826 132.831C73.8826 133.705 74.5912 134.414 75.4653 134.414Z" fill="#CFD3DF"/>
<path d="M75.4653 155.886C74.7003 155.886 74.0673 155.253 74.0673 154.488C74.0673 153.723 74.7003 153.09 75.4653 153.09C76.2303 153.09 76.8635 153.723 76.8635 154.488C76.8899 155.253 76.2567 155.886 75.4653 155.886Z" fill="#CFD3DF"/>
<path d="M75.4653 177.333C74.7795 177.333 74.2256 176.779 74.2256 176.093C74.2256 175.407 74.7795 174.853 75.4653 174.853C76.1512 174.853 76.7052 175.407 76.7052 176.093C76.7052 176.779 76.1512 177.333 75.4653 177.333Z" fill="#CFD3DF"/>
<path d="M75.4653 198.805C74.885 198.805 74.4103 198.33 74.4103 197.749C74.4103 197.169 74.885 196.694 75.4653 196.694C76.0457 196.694 76.5206 197.169 76.5206 197.749C76.5206 198.33 76.0721 198.805 75.4653 198.805Z" fill="#CFD3DF"/>
<path d="M75.4654 220.251C74.9905 220.251 74.595 219.855 74.595 219.38C74.595 218.905 74.9905 218.51 75.4654 218.51C75.9402 218.51 76.3359 218.905 76.3359 219.38C76.3623 219.855 75.9666 220.251 75.4654 220.251Z" fill="#CFD3DF"/>
<path d="M75.4654 241.723C75.8587 241.723 76.1776 241.404 76.1776 241.011C76.1776 240.618 75.8587 240.299 75.4654 240.299C75.072 240.299 74.7532 240.618 74.7532 241.011C74.7532 241.404 75.072 241.723 75.4654 241.723Z" fill="#CFD3DF"/>
<path d="M75.4653 263.196C75.7567 263.196 75.9929 262.96 75.9929 262.668C75.9929 262.377 75.7567 262.141 75.4653 262.141C75.1739 262.141 74.9379 262.377 74.9379 262.668C74.9379 262.96 75.1739 263.196 75.4653 263.196Z" fill="#CFD3DF"/>
<path d="M75.4653 284.642C75.2807 284.642 75.1226 284.484 75.1226 284.299C75.1226 284.114 75.2807 283.956 75.4653 283.956C75.65 283.956 75.8083 284.114 75.8083 284.299C75.8347 284.484 75.6764 284.642 75.4653 284.642Z" fill="#CFD3DF"/>
<path d="M75.4653 306.114C75.3598 306.114 75.2808 306.035 75.2808 305.93C75.2808 305.824 75.3598 305.745 75.4653 305.745C75.5708 305.745 75.65 305.824 75.65 305.93C75.65 306.035 75.5708 306.114 75.4653 306.114Z" fill="#CFD3DF"/>
<path d="M99.7412 5.65788C101.198 5.65788 102.379 4.47685 102.379 3.01998C102.379 1.56311 101.198 0.38208 99.7412 0.38208C98.2843 0.38208 97.1033 1.56311 97.1033 3.01998C97.1033 4.47685 98.2843 5.65788 99.7412 5.65788Z" fill="#CFD3DF"/>
<path d="M99.7412 27.104C98.3695 27.104 97.2878 25.9961 97.2878 24.6507C97.2878 23.279 98.3958 22.1975 99.7412 22.1975C101.113 22.1975 102.194 23.3054 102.194 24.6507C102.221 25.9961 101.113 27.104 99.7412 27.104Z" fill="#CFD3DF"/>
<path d="M99.7412 48.5766C98.475 48.5766 97.4462 47.5478 97.4462 46.2816C97.4462 45.0154 98.475 43.9866 99.7412 43.9866C101.007 43.9866 102.036 45.0154 102.036 46.2816C102.036 47.5478 101.007 48.5766 99.7412 48.5766Z" fill="#CFD3DF"/>
<path d="M99.7412 70.0227C98.5805 70.0227 97.6307 69.073 97.6307 67.9123C97.6307 66.7516 98.5805 65.802 99.7412 65.802C100.902 65.802 101.851 66.7516 101.851 67.9123C101.851 69.073 100.902 70.0227 99.7412 70.0227Z" fill="#CFD3DF"/>
<path d="M99.7412 91.4954C98.686 91.4954 97.8154 90.6248 97.8154 89.5697C97.8154 88.4881 98.686 87.644 99.7412 87.644C100.823 87.644 101.667 88.5145 101.667 89.5697C101.693 90.6248 100.823 91.4954 99.7412 91.4954Z" fill="#CFD3DF"/>
<path d="M99.7412 112.942C98.7652 112.942 97.9737 112.15 97.9737 111.174C97.9737 110.198 98.7652 109.407 99.7412 109.407C100.717 109.407 101.509 110.198 101.509 111.174C101.509 112.176 100.717 112.942 99.7412 112.942Z" fill="#CFD3DF"/>
<path d="M99.7412 134.414C100.615 134.414 101.324 133.705 101.324 132.831C101.324 131.957 100.615 131.249 99.7412 131.249C98.867 131.249 98.1583 131.957 98.1583 132.831C98.1583 133.705 98.867 134.414 99.7412 134.414Z" fill="#CFD3DF"/>
<path d="M99.7412 155.886C98.9762 155.886 98.343 155.253 98.343 154.488C98.343 153.723 98.9762 153.09 99.7412 153.09C100.506 153.09 101.139 153.723 101.139 154.488C101.166 155.253 100.533 155.886 99.7412 155.886Z" fill="#CFD3DF"/>
<path d="M99.7412 177.333C99.0554 177.333 98.5013 176.779 98.5013 176.093C98.5013 175.407 99.0554 174.853 99.7412 174.853C100.427 174.853 100.981 175.407 100.981 176.093C100.981 176.779 100.427 177.333 99.7412 177.333Z" fill="#CFD3DF"/>
<path d="M99.7412 198.805C99.1609 198.805 98.686 198.33 98.686 197.749C98.686 197.169 99.1609 196.694 99.7412 196.694C100.322 196.694 100.796 197.169 100.796 197.749C100.796 198.33 100.322 198.805 99.7412 198.805Z" fill="#CFD3DF"/>
<path d="M99.7412 220.251C99.2663 220.251 98.8706 219.855 98.8706 219.38C98.8706 218.905 99.2663 218.51 99.7412 218.51C100.216 218.51 100.612 218.905 100.612 219.38C100.638 219.855 100.242 220.251 99.7412 220.251Z" fill="#CFD3DF"/>
<path d="M99.7412 241.723C99.3455 241.723 99.0289 241.407 99.0289 241.011C99.0289 240.615 99.3455 240.299 99.7412 240.299C100.137 240.299 100.453 240.615 100.453 241.011C100.453 241.407 100.137 241.723 99.7412 241.723Z" fill="#CFD3DF"/>
<path d="M99.7412 263.196C99.451 263.196 99.2136 262.958 99.2136 262.668C99.2136 262.378 99.451 262.141 99.7412 262.141C100.031 262.141 100.269 262.378 100.269 262.668C100.269 262.958 100.031 263.196 99.7412 263.196Z" fill="#CFD3DF"/>
<path d="M99.7411 284.642C99.5565 284.642 99.3982 284.484 99.3982 284.299C99.3982 284.114 99.5565 283.956 99.7411 283.956C99.9258 283.956 100.084 284.114 100.084 284.299C100.11 284.484 99.9522 284.642 99.7411 284.642Z" fill="#CFD3DF"/>
<path d="M99.7412 306.114C99.6357 306.114 99.5565 306.035 99.5565 305.93C99.5565 305.824 99.6357 305.745 99.7412 305.745C99.8467 305.745 99.9257 305.824 99.9257 305.93C99.9257 306.035 99.8467 306.114 99.7412 306.114Z" fill="#CFD3DF"/>
<path d="M124.017 5.65788C125.474 5.65788 126.655 4.47685 126.655 3.01998C126.655 1.56311 125.474 0.38208 124.017 0.38208C122.56 0.38208 121.379 1.56311 121.379 3.01998C121.379 4.47685 122.56 5.65788 124.017 5.65788Z" fill="#CFD3DF"/>
<path d="M124.017 27.104C122.645 27.104 121.564 25.9961 121.564 24.6507C121.564 23.279 122.672 22.1975 124.017 22.1975C125.389 22.1975 126.47 23.3054 126.47 24.6507C126.47 25.9961 125.389 27.104 124.017 27.104Z" fill="#CFD3DF"/>
<path d="M124.017 48.5766C122.751 48.5766 121.722 47.5478 121.722 46.2816C121.722 45.0154 122.751 43.9866 124.017 43.9866C125.283 43.9866 126.312 45.0154 126.312 46.2816C126.312 47.5478 125.283 48.5766 124.017 48.5766Z" fill="#CFD3DF"/>
<path d="M124.017 70.0227C122.856 70.0227 121.907 69.073 121.907 67.9123C121.907 66.7516 122.856 65.802 124.017 65.802C125.178 65.802 126.127 66.7516 126.127 67.9123C126.127 69.073 125.178 70.0227 124.017 70.0227Z" fill="#CFD3DF"/>
<path d="M124.017 91.4954C122.962 91.4954 122.091 90.6248 122.091 89.5697C122.091 88.4881 122.962 87.644 124.017 87.644C125.099 87.644 125.943 88.5145 125.943 89.5697C125.943 90.6248 125.072 91.4954 124.017 91.4954Z" fill="#CFD3DF"/>
<path d="M124.017 112.942C123.041 112.942 122.249 112.15 122.249 111.174C122.249 110.198 123.041 109.407 124.017 109.407C124.993 109.407 125.784 110.198 125.784 111.174C125.784 112.176 124.993 112.942 124.017 112.942Z" fill="#CFD3DF"/>
<path d="M124.017 134.414C123.146 134.414 122.434 133.702 122.434 132.831C122.434 131.961 123.146 131.249 124.017 131.249C124.887 131.249 125.6 131.961 125.6 132.831C125.6 133.702 124.887 134.414 124.017 134.414Z" fill="#CFD3DF"/>
<path d="M124.017 155.886C123.252 155.886 122.619 155.253 122.619 154.488C122.619 153.723 123.252 153.09 124.017 153.09C124.782 153.09 125.415 153.723 125.415 154.488C125.415 155.253 124.782 155.886 124.017 155.886Z" fill="#CFD3DF"/>
<path d="M124.017 177.333C123.331 177.333 122.777 176.779 122.777 176.093C122.777 175.407 123.331 174.853 124.017 174.853C124.703 174.853 125.257 175.407 125.257 176.093C125.257 176.779 124.703 177.333 124.017 177.333Z" fill="#CFD3DF"/>
<path d="M124.017 198.805C123.437 198.805 122.962 198.33 122.962 197.749C122.962 197.169 123.437 196.694 124.017 196.694C124.597 196.694 125.072 197.169 125.072 197.749C125.072 198.33 124.597 198.805 124.017 198.805Z" fill="#CFD3DF"/>
<path d="M124.017 220.251C123.542 220.251 123.146 219.855 123.146 219.38C123.146 218.905 123.542 218.51 124.017 218.51C124.492 218.51 124.887 218.905 124.887 219.38C124.887 219.855 124.492 220.251 124.017 220.251Z" fill="#CFD3DF"/>
<path d="M124.017 241.723C123.621 241.723 123.305 241.407 123.305 241.011C123.305 240.615 123.621 240.299 124.017 240.299C124.413 240.299 124.729 240.615 124.729 241.011C124.729 241.407 124.413 241.723 124.017 241.723Z" fill="#CFD3DF"/>
<path d="M124.017 263.196C123.727 263.196 123.489 262.958 123.489 262.668C123.489 262.378 123.727 262.141 124.017 262.141C124.307 262.141 124.545 262.378 124.545 262.668C124.545 262.958 124.307 263.196 124.017 263.196Z" fill="#CFD3DF"/>
<path d="M124.017 284.642C123.832 284.642 123.674 284.484 123.674 284.299C123.674 284.114 123.832 283.956 124.017 283.956C124.202 283.956 124.36 284.114 124.36 284.299C124.36 284.484 124.202 284.642 124.017 284.642Z" fill="#CFD3DF"/>
<path d="M124.017 306.114C123.911 306.114 123.832 306.035 123.832 305.93C123.832 305.824 123.911 305.745 124.017 305.745C124.122 305.745 124.202 305.824 124.202 305.93C124.202 306.035 124.122 306.114 124.017 306.114Z" fill="#CFD3DF"/>
<path d="M148.293 5.65788C149.75 5.65788 150.931 4.47685 150.931 3.01998C150.931 1.56311 149.75 0.38208 148.293 0.38208C146.836 0.38208 145.655 1.56311 145.655 3.01998C145.655 4.47685 146.836 5.65788 148.293 5.65788Z" fill="#CFD3DF"/>
<path d="M148.293 27.104C146.921 27.104 145.84 25.9961 145.84 24.6507C145.84 23.279 146.947 22.1975 148.293 22.1975C149.664 22.1975 150.746 23.3054 150.746 24.6507C150.746 25.9961 149.638 27.104 148.293 27.104Z" fill="#CFD3DF"/>
<path d="M148.293 48.5766C147.027 48.5766 145.998 47.5478 145.998 46.2816C145.998 45.0154 147.027 43.9866 148.293 43.9866C149.559 43.9866 150.588 45.0154 150.588 46.2816C150.561 47.5478 149.559 48.5766 148.293 48.5766Z" fill="#CFD3DF"/>
<path d="M148.293 70.0227C147.132 70.0227 146.182 69.073 146.182 67.9123C146.182 66.7516 147.132 65.802 148.293 65.802C149.453 65.802 150.403 66.7516 150.403 67.9123C150.403 69.073 149.453 70.0227 148.293 70.0227Z" fill="#CFD3DF"/>
<path d="M148.293 91.4954C147.211 91.4954 146.367 90.6248 146.367 89.5697C146.367 88.4881 147.238 87.644 148.293 87.644C149.348 87.644 150.218 88.5145 150.218 89.5697C150.218 90.6248 149.348 91.4954 148.293 91.4954Z" fill="#CFD3DF"/>
<path d="M148.293 112.942C147.317 112.942 146.525 112.15 146.525 111.174C146.525 110.198 147.317 109.407 148.293 109.407C149.269 109.407 150.06 110.198 150.06 111.174C150.034 112.176 149.269 112.942 148.293 112.942Z" fill="#CFD3DF"/>
<path d="M148.293 134.414C149.167 134.414 149.875 133.705 149.875 132.831C149.875 131.957 149.167 131.249 148.293 131.249C147.419 131.249 146.71 131.957 146.71 132.831C146.71 133.705 147.419 134.414 148.293 134.414Z" fill="#CFD3DF"/>
<path d="M148.293 155.886C147.528 155.886 146.895 155.253 146.895 154.488C146.895 153.723 147.528 153.09 148.293 153.09C149.058 153.09 149.691 153.723 149.691 154.488C149.691 155.253 149.058 155.886 148.293 155.886Z" fill="#CFD3DF"/>
<path d="M148.293 177.333C147.607 177.333 147.053 176.779 147.053 176.093C147.053 175.407 147.607 174.853 148.293 174.853C148.979 174.853 149.532 175.407 149.532 176.093C149.506 176.779 148.979 177.333 148.293 177.333Z" fill="#CFD3DF"/>
<path d="M148.293 198.805C147.712 198.805 147.237 198.33 147.237 197.749C147.237 197.169 147.712 196.694 148.293 196.694C148.873 196.694 149.348 197.169 149.348 197.749C149.348 198.33 148.873 198.805 148.293 198.805Z" fill="#CFD3DF"/>
<path d="M148.293 220.251C147.818 220.251 147.422 219.855 147.422 219.38C147.422 218.905 147.818 218.51 148.293 218.51C148.768 218.51 149.163 218.905 149.163 219.38C149.163 219.855 148.768 220.251 148.293 220.251Z" fill="#CFD3DF"/>
<path d="M148.293 241.723C148.686 241.723 149.005 241.404 149.005 241.011C149.005 240.618 148.686 240.299 148.293 240.299C147.899 240.299 147.58 240.618 147.58 241.011C147.58 241.404 147.899 241.723 148.293 241.723Z" fill="#CFD3DF"/>
<path d="M148.293 263.196C148.003 263.196 147.765 262.958 147.765 262.668C147.765 262.378 148.003 262.141 148.293 262.141C148.583 262.141 148.82 262.378 148.82 262.668C148.82 262.958 148.583 263.196 148.293 263.196Z" fill="#CFD3DF"/>
<path d="M148.293 284.642C148.108 284.642 147.95 284.484 147.95 284.299C147.95 284.114 148.108 283.956 148.293 283.956C148.477 283.956 148.636 284.114 148.636 284.299C148.636 284.484 148.477 284.642 148.293 284.642Z" fill="#CFD3DF"/>
<path d="M148.293 306.114C148.187 306.114 148.108 306.035 148.108 305.93C148.108 305.824 148.187 305.745 148.293 305.745C148.398 305.745 148.477 305.824 148.477 305.93C148.451 306.035 148.372 306.114 148.293 306.114Z" fill="#CFD3DF"/>
<path d="M172.569 5.65788C174.025 5.65788 175.207 4.47685 175.207 3.01998C175.207 1.56311 174.025 0.38208 172.569 0.38208C171.112 0.38208 169.931 1.56311 169.931 3.01998C169.931 4.47685 171.112 5.65788 172.569 5.65788Z" fill="#CFD3DF"/>
<path d="M172.569 27.104C171.197 27.104 170.115 25.9961 170.115 24.6507C170.115 23.279 171.223 22.1975 172.569 22.1975C173.94 22.1975 175.022 23.3054 175.022 24.6507C175.048 25.9961 173.94 27.104 172.569 27.104Z" fill="#CFD3DF"/>
<path d="M172.569 48.5766C171.302 48.5766 170.274 47.5478 170.274 46.2816C170.274 45.0154 171.302 43.9866 172.569 43.9866C173.835 43.9866 174.864 45.0154 174.864 46.2816C174.864 47.5478 173.835 48.5766 172.569 48.5766Z" fill="#CFD3DF"/>
<path d="M172.569 70.0227C173.734 70.0227 174.679 69.0778 174.679 67.9123C174.679 66.7468 173.734 65.802 172.569 65.802C171.403 65.802 170.458 66.7468 170.458 67.9123C170.458 69.0778 171.403 70.0227 172.569 70.0227Z" fill="#CFD3DF"/>
<path d="M172.569 91.4954C171.487 91.4954 170.643 90.6248 170.643 89.5697C170.643 88.4881 171.514 87.644 172.569 87.644C173.624 87.644 174.494 88.5145 174.494 89.5697C174.521 90.6248 173.65 91.4954 172.569 91.4954Z" fill="#CFD3DF"/>
<path d="M172.569 112.942C171.593 112.942 170.801 112.15 170.801 111.174C170.801 110.198 171.593 109.407 172.569 109.407C173.545 109.407 174.336 110.198 174.336 111.174C174.336 112.176 173.545 112.942 172.569 112.942Z" fill="#CFD3DF"/>
<path d="M172.569 134.414C173.443 134.414 174.151 133.705 174.151 132.831C174.151 131.957 173.443 131.249 172.569 131.249C171.695 131.249 170.986 131.957 170.986 132.831C170.986 133.705 171.695 134.414 172.569 134.414Z" fill="#CFD3DF"/>
<path d="M172.569 155.886C171.804 155.886 171.171 155.253 171.171 154.488C171.171 153.723 171.804 153.09 172.569 153.09C173.334 153.09 173.967 153.723 173.967 154.488C173.993 155.253 173.36 155.886 172.569 155.886Z" fill="#CFD3DF"/>
<path d="M172.569 177.333C171.883 177.333 171.329 176.779 171.329 176.093C171.329 175.407 171.883 174.853 172.569 174.853C173.254 174.853 173.808 175.407 173.808 176.093C173.808 176.779 173.254 177.333 172.569 177.333Z" fill="#CFD3DF"/>
<path d="M172.569 198.805C171.988 198.805 171.514 198.33 171.514 197.749C171.514 197.169 171.988 196.694 172.569 196.694C173.149 196.694 173.624 197.169 173.624 197.749C173.624 198.33 173.175 198.805 172.569 198.805Z" fill="#CFD3DF"/>
<path d="M172.569 220.251C172.094 220.251 171.698 219.855 171.698 219.38C171.698 218.905 172.094 218.51 172.569 218.51C173.043 218.51 173.439 218.905 173.439 219.38C173.466 219.855 173.07 220.251 172.569 220.251Z" fill="#CFD3DF"/>
<path d="M172.569 241.723C172.173 241.723 171.857 241.407 171.857 241.011C171.857 240.615 172.173 240.299 172.569 240.299C172.964 240.299 173.281 240.615 173.281 241.011C173.281 241.407 172.964 241.723 172.569 241.723Z" fill="#CFD3DF"/>
<path d="M172.569 263.196C172.86 263.196 173.096 262.96 173.096 262.668C173.096 262.377 172.86 262.141 172.569 262.141C172.277 262.141 172.041 262.377 172.041 262.668C172.041 262.96 172.277 263.196 172.569 263.196Z" fill="#CFD3DF"/>
<path d="M172.569 284.642C172.384 284.642 172.226 284.484 172.226 284.299C172.226 284.114 172.384 283.956 172.569 283.956C172.753 283.956 172.912 284.114 172.912 284.299C172.938 284.484 172.78 284.642 172.569 284.642Z" fill="#CFD3DF"/>
<path d="M172.569 306.114C172.463 306.114 172.384 306.035 172.384 305.93C172.384 305.824 172.463 305.745 172.569 305.745C172.674 305.745 172.753 305.824 172.753 305.93C172.753 306.035 172.674 306.114 172.569 306.114Z" fill="#CFD3DF"/>
<path d="M196.844 5.65788C198.301 5.65788 199.482 4.47685 199.482 3.01998C199.482 1.56311 198.301 0.38208 196.844 0.38208C195.388 0.38208 194.207 1.56311 194.207 3.01998C194.207 4.47685 195.388 5.65788 196.844 5.65788Z" fill="#CFD3DF"/>
<path d="M196.844 27.104C195.473 27.104 194.391 25.9961 194.391 24.6507C194.391 23.279 195.499 22.1975 196.844 22.1975C198.19 22.1975 199.298 23.3054 199.298 24.6507C199.324 25.9961 198.216 27.104 196.844 27.104Z" fill="#CFD3DF"/>
<path d="M196.844 48.5766C198.112 48.5766 199.139 47.5491 199.139 46.2816C199.139 45.0141 198.112 43.9866 196.844 43.9866C195.577 43.9866 194.549 45.0141 194.549 46.2816C194.549 47.5491 195.577 48.5766 196.844 48.5766Z" fill="#CFD3DF"/>
<path d="M196.844 70.0227C198.01 70.0227 198.955 69.0778 198.955 67.9123C198.955 66.7468 198.01 65.802 196.844 65.802C195.679 65.802 194.734 66.7468 194.734 67.9123C194.734 69.0778 195.679 70.0227 196.844 70.0227Z" fill="#CFD3DF"/>
<path d="M196.844 91.4954C195.789 91.4954 194.919 90.6248 194.919 89.5697C194.919 88.4881 195.789 87.644 196.844 87.644C197.926 87.644 198.77 88.5145 198.77 89.5697C198.797 90.6248 197.926 91.4954 196.844 91.4954Z" fill="#CFD3DF"/>
<path d="M196.844 112.942C195.868 112.942 195.077 112.15 195.077 111.174C195.077 110.198 195.868 109.407 196.844 109.407C197.82 109.407 198.612 110.198 198.612 111.174C198.612 112.176 197.82 112.942 196.844 112.942Z" fill="#CFD3DF"/>
<path d="M196.845 134.414C197.719 134.414 198.427 133.705 198.427 132.831C198.427 131.957 197.719 131.249 196.845 131.249C195.97 131.249 195.262 131.957 195.262 132.831C195.262 133.705 195.97 134.414 196.845 134.414Z" fill="#CFD3DF"/>
<path d="M196.844 155.886C196.079 155.886 195.446 155.253 195.446 154.488C195.446 153.723 196.079 153.09 196.844 153.09C197.609 153.09 198.243 153.723 198.243 154.488C198.269 155.253 197.636 155.886 196.844 155.886Z" fill="#CFD3DF"/>
<path d="M196.844 177.333C196.159 177.333 195.605 176.779 195.605 176.093C195.605 175.407 196.159 174.853 196.844 174.853C197.53 174.853 198.084 175.407 198.084 176.093C198.084 176.779 197.53 177.333 196.844 177.333Z" fill="#CFD3DF"/>
<path d="M196.844 198.805C196.264 198.805 195.789 198.33 195.789 197.749C195.789 197.169 196.264 196.694 196.844 196.694C197.425 196.694 197.9 197.169 197.9 197.749C197.9 198.33 197.425 198.805 196.844 198.805Z" fill="#CFD3DF"/>
<path d="M196.844 220.251C196.37 220.251 195.974 219.855 195.974 219.38C195.974 218.905 196.37 218.51 196.844 218.51C197.319 218.51 197.715 218.905 197.715 219.38C197.741 219.855 197.346 220.251 196.844 220.251Z" fill="#CFD3DF"/>
<path d="M196.844 241.723C197.238 241.723 197.557 241.404 197.557 241.011C197.557 240.618 197.238 240.299 196.844 240.299C196.451 240.299 196.132 240.618 196.132 241.011C196.132 241.404 196.451 241.723 196.844 241.723Z" fill="#CFD3DF"/>
<path d="M196.844 263.196C197.136 263.196 197.372 262.96 197.372 262.668C197.372 262.377 197.136 262.141 196.844 262.141C196.553 262.141 196.317 262.377 196.317 262.668C196.317 262.96 196.553 263.196 196.844 263.196Z" fill="#CFD3DF"/>
<path d="M196.845 284.642C197.034 284.642 197.187 284.488 197.187 284.299C197.187 284.11 197.034 283.956 196.845 283.956C196.655 283.956 196.502 284.11 196.502 284.299C196.502 284.488 196.655 284.642 196.845 284.642Z" fill="#CFD3DF"/>
<path d="M196.844 306.114C196.739 306.114 196.66 306.035 196.66 305.93C196.66 305.824 196.739 305.745 196.844 305.745C196.95 305.745 197.029 305.824 197.029 305.93C197.029 306.035 196.95 306.114 196.844 306.114Z" fill="#CFD3DF"/>
<path d="M221.12 5.65788C222.577 5.65788 223.758 4.47685 223.758 3.01998C223.758 1.56311 222.577 0.38208 221.12 0.38208C219.663 0.38208 218.482 1.56311 218.482 3.01998C218.482 4.47685 219.663 5.65788 221.12 5.65788Z" fill="#CFD3DF"/>
<path d="M221.12 27.104C219.749 27.104 218.667 25.9961 218.667 24.6507C218.667 23.279 219.775 22.1975 221.12 22.1975C222.492 22.1975 223.573 23.3054 223.573 24.6507C223.573 25.9961 222.492 27.104 221.12 27.104Z" fill="#CFD3DF"/>
<path d="M221.12 48.5766C219.854 48.5766 218.825 47.5478 218.825 46.2816C218.825 45.0154 219.854 43.9866 221.12 43.9866C222.386 43.9866 223.415 45.0154 223.415 46.2816C223.415 47.5478 222.386 48.5766 221.12 48.5766Z" fill="#CFD3DF"/>
<path d="M221.12 70.0227C222.286 70.0227 223.23 69.0778 223.23 67.9123C223.23 66.7468 222.286 65.802 221.12 65.802C219.955 65.802 219.01 66.7468 219.01 67.9123C219.01 69.0778 219.955 70.0227 221.12 70.0227Z" fill="#CFD3DF"/>
<path d="M221.12 91.4954C220.039 91.4954 219.194 90.6248 219.194 89.5697C219.194 88.4881 220.065 87.644 221.12 87.644C222.202 87.644 223.046 88.5145 223.046 89.5697C223.046 90.6248 222.175 91.4954 221.12 91.4954Z" fill="#CFD3DF"/>
<path d="M221.12 112.942C220.144 112.942 219.353 112.15 219.353 111.174C219.353 110.198 220.144 109.407 221.12 109.407C222.096 109.407 222.888 110.198 222.888 111.174C222.888 112.176 222.096 112.942 221.12 112.942Z" fill="#CFD3DF"/>
<path d="M221.12 134.414C221.994 134.414 222.703 133.705 222.703 132.831C222.703 131.957 221.994 131.249 221.12 131.249C220.246 131.249 219.537 131.957 219.537 132.831C219.537 133.705 220.246 134.414 221.12 134.414Z" fill="#CFD3DF"/>
<path d="M221.12 155.886C220.355 155.886 219.722 155.253 219.722 154.488C219.722 153.723 220.355 153.09 221.12 153.09C221.885 153.09 222.518 153.723 222.518 154.488C222.518 155.253 221.885 155.886 221.12 155.886Z" fill="#CFD3DF"/>
<path d="M221.12 177.333C220.434 177.333 219.88 176.779 219.88 176.093C219.88 175.407 220.434 174.853 221.12 174.853C221.806 174.853 222.36 175.407 222.36 176.093C222.36 176.779 221.806 177.333 221.12 177.333Z" fill="#CFD3DF"/>
<path d="M221.12 198.805C220.54 198.805 220.065 198.33 220.065 197.749C220.065 197.169 220.54 196.694 221.12 196.694C221.701 196.694 222.175 197.169 222.175 197.749C222.175 198.33 221.701 198.805 221.12 198.805Z" fill="#CFD3DF"/>
<path d="M221.12 220.251C220.645 220.251 220.25 219.855 220.25 219.38C220.25 218.905 220.645 218.51 221.12 218.51C221.595 218.51 221.991 218.905 221.991 219.38C221.991 219.855 221.595 220.251 221.12 220.251Z" fill="#CFD3DF"/>
<path d="M221.12 241.723C220.725 241.723 220.408 241.407 220.408 241.011C220.408 240.615 220.725 240.299 221.12 240.299C221.516 240.299 221.832 240.615 221.832 241.011C221.832 241.407 221.516 241.723 221.12 241.723Z" fill="#CFD3DF"/>
<path d="M221.12 263.196C221.412 263.196 221.648 262.96 221.648 262.668C221.648 262.377 221.412 262.141 221.12 262.141C220.829 262.141 220.593 262.377 220.593 262.668C220.593 262.96 220.829 263.196 221.12 263.196Z" fill="#CFD3DF"/>
<path d="M221.12 284.642C220.936 284.642 220.777 284.484 220.777 284.299C220.777 284.114 220.936 283.956 221.12 283.956C221.305 283.956 221.463 284.114 221.463 284.299C221.463 284.484 221.305 284.642 221.12 284.642Z" fill="#CFD3DF"/>
<path d="M221.12 306.114C221.015 306.114 220.936 306.035 220.936 305.93C220.936 305.824 221.015 305.745 221.12 305.745C221.226 305.745 221.305 305.824 221.305 305.93C221.305 306.035 221.226 306.114 221.12 306.114Z" fill="#CFD3DF"/>
<path d="M245.396 5.65788C246.853 5.65788 248.034 4.47685 248.034 3.01998C248.034 1.56311 246.853 0.38208 245.396 0.38208C243.939 0.38208 242.758 1.56311 242.758 3.01998C242.758 4.47685 243.939 5.65788 245.396 5.65788Z" fill="#CFD3DF"/>
<path d="M245.396 27.104C244.024 27.104 242.943 25.9961 242.943 24.6507C242.943 23.279 244.051 22.1975 245.396 22.1975C246.768 22.1975 247.849 23.3054 247.849 24.6507C247.849 25.9961 246.741 27.104 245.396 27.104Z" fill="#CFD3DF"/>
<path d="M245.396 48.5766C244.13 48.5766 243.101 47.5478 243.101 46.2816C243.101 45.0154 244.13 43.9866 245.396 43.9866C246.662 43.9866 247.691 45.0154 247.691 46.2816C247.665 47.5478 246.662 48.5766 245.396 48.5766Z" fill="#CFD3DF"/>
<path d="M245.396 70.0227C246.562 70.0227 247.506 69.0778 247.506 67.9123C247.506 66.7468 246.562 65.802 245.396 65.802C244.231 65.802 243.286 66.7468 243.286 67.9123C243.286 69.0778 244.231 70.0227 245.396 70.0227Z" fill="#CFD3DF"/>
<path d="M245.396 91.4954C244.315 91.4954 243.47 90.6248 243.47 89.5697C243.47 88.4881 244.341 87.644 245.396 87.644C246.451 87.644 247.322 88.5145 247.322 89.5697C247.322 90.6248 246.451 91.4954 245.396 91.4954Z" fill="#CFD3DF"/>
<path d="M245.396 112.942C244.42 112.942 243.629 112.15 243.629 111.174C243.629 110.198 244.42 109.407 245.396 109.407C246.372 109.407 247.163 110.198 247.163 111.174C247.137 112.176 246.372 112.942 245.396 112.942Z" fill="#CFD3DF"/>
<path d="M245.396 134.414C244.526 134.414 243.813 133.702 243.813 132.831C243.813 131.961 244.526 131.249 245.396 131.249C246.267 131.249 246.979 131.961 246.979 132.831C246.979 133.702 246.267 134.414 245.396 134.414Z" fill="#CFD3DF"/>
<path d="M245.396 155.886C244.631 155.886 243.998 155.253 243.998 154.488C243.998 153.723 244.631 153.09 245.396 153.09C246.161 153.09 246.794 153.723 246.794 154.488C246.794 155.253 246.161 155.886 245.396 155.886Z" fill="#CFD3DF"/>
<path d="M245.396 177.333C244.71 177.333 244.156 176.779 244.156 176.093C244.156 175.407 244.71 174.853 245.396 174.853C246.082 174.853 246.636 175.407 246.636 176.093C246.61 176.779 246.056 177.333 245.396 177.333Z" fill="#CFD3DF"/>
<path d="M245.396 198.805C244.816 198.805 244.341 198.33 244.341 197.749C244.341 197.169 244.816 196.694 245.396 196.694C245.976 196.694 246.451 197.169 246.451 197.749C246.451 198.33 245.976 198.805 245.396 198.805Z" fill="#CFD3DF"/>
<path d="M245.396 220.251C245.877 220.251 246.266 219.861 246.266 219.38C246.266 218.9 245.877 218.51 245.396 218.51C244.915 218.51 244.526 218.9 244.526 219.38C244.526 219.861 244.915 220.251 245.396 220.251Z" fill="#CFD3DF"/>
<path d="M245.396 241.723C245 241.723 244.684 241.407 244.684 241.011C244.684 240.615 245 240.299 245.396 240.299C245.792 240.299 246.108 240.615 246.108 241.011C246.082 241.407 245.765 241.723 245.396 241.723Z" fill="#CFD3DF"/>
<path d="M245.396 263.196C245.687 263.196 245.924 262.96 245.924 262.668C245.924 262.377 245.687 262.141 245.396 262.141C245.105 262.141 244.868 262.377 244.868 262.668C244.868 262.96 245.105 263.196 245.396 263.196Z" fill="#CFD3DF"/>
<path d="M245.396 284.642C245.211 284.642 245.053 284.484 245.053 284.299C245.053 284.114 245.211 283.956 245.396 283.956C245.581 283.956 245.739 284.114 245.739 284.299C245.739 284.484 245.581 284.642 245.396 284.642Z" fill="#CFD3DF"/>
<path d="M245.396 306.114C245.291 306.114 245.211 306.035 245.211 305.93C245.211 305.824 245.291 305.745 245.396 305.745C245.502 305.745 245.581 305.824 245.581 305.93C245.554 306.035 245.475 306.114 245.396 306.114Z" fill="#CFD3DF"/>
<path d="M269.672 5.65788C271.129 5.65788 272.31 4.47685 272.31 3.01998C272.31 1.56311 271.129 0.38208 269.672 0.38208C268.215 0.38208 267.034 1.56311 267.034 3.01998C267.034 4.47685 268.215 5.65788 269.672 5.65788Z" fill="#CFD3DF"/>
<path d="M269.672 27.104C268.3 27.104 267.219 25.9961 267.219 24.6507C267.219 23.279 268.327 22.1975 269.672 22.1975C271.044 22.1975 272.125 23.3054 272.125 24.6507C272.151 25.9961 271.044 27.104 269.672 27.104Z" fill="#CFD3DF"/>
<path d="M269.672 48.5766C268.406 48.5766 267.377 47.5478 267.377 46.2816C267.377 45.0154 268.406 43.9866 269.672 43.9866C270.938 43.9866 271.967 45.0154 271.967 46.2816C271.967 47.5478 270.938 48.5766 269.672 48.5766Z" fill="#CFD3DF"/>
<path d="M269.672 70.0227C268.511 70.0227 267.562 69.073 267.562 67.9123C267.562 66.7516 268.511 65.802 269.672 65.802C270.833 65.802 271.782 66.7516 271.782 67.9123C271.782 69.073 270.859 70.0227 269.672 70.0227Z" fill="#CFD3DF"/>
<path d="M269.672 91.4954C268.59 91.4954 267.746 90.6248 267.746 89.5697C267.746 88.4881 268.617 87.644 269.672 87.644C270.727 87.644 271.598 88.5145 271.598 89.5697C271.624 90.6248 270.753 91.4954 269.672 91.4954Z" fill="#CFD3DF"/>
<path d="M269.672 112.942C268.696 112.942 267.905 112.15 267.905 111.174C267.905 110.198 268.696 109.407 269.672 109.407C270.648 109.407 271.439 110.198 271.439 111.174C271.439 112.176 270.648 112.942 269.672 112.942Z" fill="#CFD3DF"/>
<path d="M269.672 134.414C268.801 134.414 268.089 133.702 268.089 132.831C268.089 131.961 268.801 131.249 269.672 131.249C270.542 131.249 271.255 131.961 271.255 132.831C271.255 133.702 270.569 134.414 269.672 134.414Z" fill="#CFD3DF"/>
<path d="M269.672 155.886C268.907 155.886 268.274 155.253 268.274 154.488C268.274 153.723 268.907 153.09 269.672 153.09C270.437 153.09 271.07 153.723 271.07 154.488C271.096 155.253 270.463 155.886 269.672 155.886Z" fill="#CFD3DF"/>
<path d="M269.672 177.333C268.986 177.333 268.432 176.779 268.432 176.093C268.432 175.407 268.986 174.853 269.672 174.853C270.358 174.853 270.912 175.407 270.912 176.093C270.912 176.779 270.358 177.333 269.672 177.333Z" fill="#CFD3DF"/>
<path d="M269.672 198.805C269.092 198.805 268.617 198.33 268.617 197.749C268.617 197.169 269.092 196.694 269.672 196.694C270.252 196.694 270.727 197.169 270.727 197.749C270.727 198.33 270.279 198.805 269.672 198.805Z" fill="#CFD3DF"/>
<path d="M269.672 220.251C269.197 220.251 268.801 219.855 268.801 219.38C268.801 218.905 269.197 218.51 269.672 218.51C270.147 218.51 270.542 218.905 270.542 219.38C270.569 219.855 270.173 220.251 269.672 220.251Z" fill="#CFD3DF"/>
<path d="M269.672 241.723C269.276 241.723 268.96 241.407 268.96 241.011C268.96 240.615 269.276 240.299 269.672 240.299C270.068 240.299 270.384 240.615 270.384 241.011C270.384 241.407 270.068 241.723 269.672 241.723Z" fill="#CFD3DF"/>
<path d="M269.672 263.196C269.382 263.196 269.144 262.958 269.144 262.668C269.144 262.378 269.382 262.141 269.672 262.141C269.962 262.141 270.2 262.378 270.2 262.668C270.2 262.958 269.988 263.196 269.672 263.196Z" fill="#CFD3DF"/>
<path d="M269.672 284.642C269.487 284.642 269.329 284.484 269.329 284.299C269.329 284.114 269.487 283.956 269.672 283.956C269.857 283.956 270.015 284.114 270.015 284.299C270.041 284.484 269.883 284.642 269.672 284.642Z" fill="#CFD3DF"/>
<path d="M269.672 306.114C269.566 306.114 269.487 306.035 269.487 305.93C269.487 305.824 269.566 305.745 269.672 305.745C269.777 305.745 269.857 305.824 269.857 305.93C269.857 306.035 269.777 306.114 269.672 306.114Z" fill="#CFD3DF"/>
<path d="M293.948 5.65788C295.405 5.65788 296.586 4.47685 296.586 3.01998C296.586 1.56311 295.405 0.38208 293.948 0.38208C292.491 0.38208 291.31 1.56311 291.31 3.01998C291.31 4.47685 292.491 5.65788 293.948 5.65788Z" fill="#CFD3DF"/>
<path d="M293.948 27.104C292.576 27.104 291.495 25.9961 291.495 24.6507C291.495 23.279 292.602 22.1975 293.948 22.1975C295.293 22.1975 296.401 23.3054 296.401 24.6507C296.427 25.9961 295.319 27.104 293.948 27.104Z" fill="#CFD3DF"/>
<path d="M293.948 48.5766C295.215 48.5766 296.243 47.5491 296.243 46.2816C296.243 45.0141 295.215 43.9866 293.948 43.9866C292.68 43.9866 291.653 45.0141 291.653 46.2816C291.653 47.5491 292.68 48.5766 293.948 48.5766Z" fill="#CFD3DF"/>
<path d="M293.948 70.0227C292.787 70.0227 291.837 69.073 291.837 67.9123C291.837 66.7516 292.787 65.802 293.948 65.802C295.108 65.802 296.058 66.7516 296.058 67.9123C296.058 69.073 295.108 70.0227 293.948 70.0227Z" fill="#CFD3DF"/>
<path d="M293.948 91.4954C292.893 91.4954 292.022 90.6248 292.022 89.5697C292.022 88.4881 292.893 87.644 293.948 87.644C295.029 87.644 295.873 88.5145 295.873 89.5697C295.9 90.6248 295.029 91.4954 293.948 91.4954Z" fill="#CFD3DF"/>
<path d="M293.948 112.942C292.972 112.942 292.18 112.15 292.18 111.174C292.18 110.198 292.972 109.407 293.948 109.407C294.924 109.407 295.715 110.198 295.715 111.174C295.715 112.176 294.924 112.942 293.948 112.942Z" fill="#CFD3DF"/>
<path d="M293.948 134.414C294.822 134.414 295.531 133.705 295.531 132.831C295.531 131.957 294.822 131.249 293.948 131.249C293.074 131.249 292.365 131.957 292.365 132.831C292.365 133.705 293.074 134.414 293.948 134.414Z" fill="#CFD3DF"/>
<path d="M293.948 155.886C293.183 155.886 292.55 155.253 292.55 154.488C292.55 153.723 293.183 153.09 293.948 153.09C294.713 153.09 295.346 153.723 295.346 154.488C295.372 155.253 294.739 155.886 293.948 155.886Z" fill="#CFD3DF"/>
<path d="M293.948 177.333C293.262 177.333 292.708 176.779 292.708 176.093C292.708 175.407 293.262 174.853 293.948 174.853C294.634 174.853 295.188 175.407 295.188 176.093C295.188 176.779 294.634 177.333 293.948 177.333Z" fill="#CFD3DF"/>
<path d="M293.948 198.805C293.367 198.805 292.893 198.33 292.893 197.749C292.893 197.169 293.367 196.694 293.948 196.694C294.528 196.694 295.003 197.169 295.003 197.749C295.003 198.33 294.528 198.805 293.948 198.805Z" fill="#CFD3DF"/>
<path d="M293.948 220.251C293.473 220.251 293.077 219.855 293.077 219.38C293.077 218.905 293.473 218.51 293.948 218.51C294.423 218.51 294.818 218.905 294.818 219.38C294.845 219.855 294.449 220.251 293.948 220.251Z" fill="#CFD3DF"/>
<path d="M293.948 241.723C293.552 241.723 293.236 241.407 293.236 241.011C293.236 240.615 293.552 240.299 293.948 240.299C294.343 240.299 294.66 240.615 294.66 241.011C294.66 241.407 294.343 241.723 293.948 241.723Z" fill="#CFD3DF"/>
<path d="M293.948 263.196C293.658 263.196 293.42 262.958 293.42 262.668C293.42 262.378 293.658 262.141 293.948 262.141C294.238 262.141 294.475 262.378 294.475 262.668C294.475 262.958 294.238 263.196 293.948 263.196Z" fill="#CFD3DF"/>
<path d="M293.948 284.642C294.137 284.642 294.291 284.488 294.291 284.299C294.291 284.11 294.137 283.956 293.948 283.956C293.758 283.956 293.605 284.11 293.605 284.299C293.605 284.488 293.758 284.642 293.948 284.642Z" fill="#CFD3DF"/>
<path d="M293.948 306.114C293.842 306.114 293.763 306.035 293.763 305.93C293.763 305.824 293.842 305.745 293.948 305.745C294.053 305.745 294.132 305.824 294.132 305.93C294.132 306.035 294.053 306.114 293.948 306.114Z" fill="#CFD3DF"/>
<path d="M318.224 5.65788C319.68 5.65788 320.861 4.47685 320.861 3.01998C320.861 1.56311 319.68 0.38208 318.224 0.38208C316.767 0.38208 315.586 1.56311 315.586 3.01998C315.586 4.47685 316.767 5.65788 318.224 5.65788Z" fill="#CFD3DF"/>
<path d="M318.223 27.104C316.852 27.104 315.77 25.9961 315.77 24.6507C315.77 23.279 316.878 22.1975 318.223 22.1975C319.569 22.1975 320.677 23.3054 320.677 24.6507C320.677 25.9961 319.595 27.104 318.223 27.104Z" fill="#CFD3DF"/>
<path d="M318.223 48.5766C319.491 48.5766 320.518 47.5491 320.518 46.2816C320.518 45.0141 319.491 43.9866 318.223 43.9866C316.956 43.9866 315.929 45.0141 315.929 46.2816C315.929 47.5491 316.956 48.5766 318.223 48.5766Z" fill="#CFD3DF"/>
<path d="M318.223 70.0227C319.389 70.0227 320.334 69.0778 320.334 67.9123C320.334 66.7468 319.389 65.802 318.223 65.802C317.058 65.802 316.113 66.7468 316.113 67.9123C316.113 69.0778 317.058 70.0227 318.223 70.0227Z" fill="#CFD3DF"/>
<path d="M318.223 91.4954C317.142 91.4954 316.298 90.6248 316.298 89.5697C316.298 88.4881 317.168 87.644 318.223 87.644C319.279 87.644 320.149 88.5145 320.149 89.5697C320.149 90.6248 319.279 91.4954 318.223 91.4954Z" fill="#CFD3DF"/>
<path d="M318.223 112.942C317.247 112.942 316.456 112.15 316.456 111.174C316.456 110.198 317.247 109.407 318.223 109.407C319.2 109.407 319.991 110.198 319.991 111.174C319.991 112.176 319.2 112.942 318.223 112.942Z" fill="#CFD3DF"/>
<path d="M318.224 134.414C319.098 134.414 319.806 133.705 319.806 132.831C319.806 131.957 319.098 131.249 318.224 131.249C317.349 131.249 316.641 131.957 316.641 132.831C316.641 133.705 317.349 134.414 318.224 134.414Z" fill="#CFD3DF"/>
<path d="M318.223 155.886C317.458 155.886 316.825 155.253 316.825 154.488C316.825 153.723 317.458 153.09 318.223 153.09C318.988 153.09 319.622 153.723 319.622 154.488C319.622 155.253 318.988 155.886 318.223 155.886Z" fill="#CFD3DF"/>
<path d="M318.224 177.333C317.538 177.333 316.984 176.779 316.984 176.093C316.984 175.407 317.538 174.853 318.224 174.853C318.909 174.853 319.463 175.407 319.463 176.093C319.463 176.779 318.909 177.333 318.224 177.333Z" fill="#CFD3DF"/>
<path d="M318.223 198.805C317.643 198.805 317.168 198.33 317.168 197.749C317.168 197.169 317.643 196.694 318.223 196.694C318.804 196.694 319.279 197.169 319.279 197.749C319.279 198.33 318.804 198.805 318.223 198.805Z" fill="#CFD3DF"/>
<path d="M318.223 220.251C318.704 220.251 319.094 219.861 319.094 219.38C319.094 218.9 318.704 218.51 318.223 218.51C317.743 218.51 317.353 218.9 317.353 219.38C317.353 219.861 317.743 220.251 318.223 220.251Z" fill="#CFD3DF"/>
<path d="M318.223 241.723C317.828 241.723 317.511 241.407 317.511 241.011C317.511 240.615 317.828 240.299 318.223 240.299C318.619 240.299 318.936 240.615 318.936 241.011C318.936 241.407 318.619 241.723 318.223 241.723Z" fill="#CFD3DF"/>
<path d="M318.223 263.196C318.515 263.196 318.751 262.96 318.751 262.668C318.751 262.377 318.515 262.141 318.223 262.141C317.932 262.141 317.696 262.377 317.696 262.668C317.696 262.96 317.932 263.196 318.223 263.196Z" fill="#CFD3DF"/>
<path d="M318.223 284.642C318.413 284.642 318.566 284.488 318.566 284.299C318.566 284.11 318.413 283.956 318.223 283.956C318.034 283.956 317.881 284.11 317.881 284.299C317.881 284.488 318.034 284.642 318.223 284.642Z" fill="#CFD3DF"/>
<path d="M318.223 306.114C318.118 306.114 318.039 306.035 318.039 305.93C318.039 305.824 318.118 305.745 318.223 305.745C318.329 305.745 318.408 305.824 318.408 305.93C318.408 306.035 318.329 306.114 318.223 306.114Z" fill="#CFD3DF"/>
<path d="M342.499 5.65788C343.956 5.65788 345.137 4.47685 345.137 3.01998C345.137 1.56311 343.956 0.38208 342.499 0.38208C341.042 0.38208 339.861 1.56311 339.861 3.01998C339.861 4.47685 341.042 5.65788 342.499 5.65788Z" fill="#CFD3DF"/>
<path d="M342.499 27.104C341.128 27.104 340.046 25.9961 340.046 24.6507C340.046 23.279 341.154 22.1975 342.499 22.1975C343.845 22.1975 344.953 23.3054 344.953 24.6507C344.953 25.9961 343.845 27.104 342.499 27.104Z" fill="#CFD3DF"/>
<path d="M342.499 48.5766C343.767 48.5766 344.794 47.5491 344.794 46.2816C344.794 45.0141 343.767 43.9866 342.499 43.9866C341.232 43.9866 340.204 45.0141 340.204 46.2816C340.204 47.5491 341.232 48.5766 342.499 48.5766Z" fill="#CFD3DF"/>
<path d="M342.499 70.0227C343.665 70.0227 344.61 69.0778 344.61 67.9123C344.61 66.7468 343.665 65.802 342.499 65.802C341.334 65.802 340.389 66.7468 340.389 67.9123C340.389 69.0778 341.334 70.0227 342.499 70.0227Z" fill="#CFD3DF"/>
<path d="M342.499 91.4954C341.418 91.4954 340.574 90.6248 340.574 89.5697C340.574 88.4881 341.444 87.644 342.499 87.644C343.554 87.644 344.425 88.5145 344.425 89.5697C344.425 90.6248 343.554 91.4954 342.499 91.4954Z" fill="#CFD3DF"/>
<path d="M342.499 112.942C341.523 112.942 340.732 112.15 340.732 111.174C340.732 110.198 341.523 109.407 342.499 109.407C343.475 109.407 344.267 110.198 344.267 111.174C344.24 112.176 343.475 112.942 342.499 112.942Z" fill="#CFD3DF"/>
<path d="M342.499 134.414C343.373 134.414 344.082 133.705 344.082 132.831C344.082 131.957 343.373 131.249 342.499 131.249C341.625 131.249 340.917 131.957 340.917 132.831C340.917 133.705 341.625 134.414 342.499 134.414Z" fill="#CFD3DF"/>
<path d="M342.499 155.886C341.734 155.886 341.101 155.253 341.101 154.488C341.101 153.723 341.734 153.09 342.499 153.09C343.264 153.09 343.897 153.723 343.897 154.488C343.897 155.253 343.264 155.886 342.499 155.886Z" fill="#CFD3DF"/>
<path d="M342.499 177.333C341.814 177.333 341.259 176.779 341.259 176.093C341.259 175.407 341.814 174.853 342.499 174.853C343.185 174.853 343.739 175.407 343.739 176.093C343.713 176.779 343.159 177.333 342.499 177.333Z" fill="#CFD3DF"/>
<path d="M342.499 198.805C341.919 198.805 341.444 198.33 341.444 197.749C341.444 197.169 341.919 196.694 342.499 196.694C343.08 196.694 343.554 197.169 343.554 197.749C343.554 198.33 343.08 198.805 342.499 198.805Z" fill="#CFD3DF"/>
<path d="M342.499 220.251C342.025 220.251 341.629 219.855 341.629 219.38C341.629 218.905 342.025 218.51 342.499 218.51C342.974 218.51 343.37 218.905 343.37 219.38C343.37 219.855 342.974 220.251 342.499 220.251Z" fill="#CFD3DF"/>
<path d="M342.499 241.723C342.893 241.723 343.211 241.404 343.211 241.011C343.211 240.618 342.893 240.299 342.499 240.299C342.106 240.299 341.787 240.618 341.787 241.011C341.787 241.404 342.106 241.723 342.499 241.723Z" fill="#CFD3DF"/>
<path d="M342.499 263.196C342.791 263.196 343.027 262.96 343.027 262.668C343.027 262.377 342.791 262.141 342.499 262.141C342.208 262.141 341.972 262.377 341.972 262.668C341.972 262.96 342.208 263.196 342.499 263.196Z" fill="#CFD3DF"/>
<path d="M342.499 284.642C342.689 284.642 342.842 284.488 342.842 284.299C342.842 284.11 342.689 283.956 342.499 283.956C342.31 283.956 342.156 284.11 342.156 284.299C342.156 284.488 342.31 284.642 342.499 284.642Z" fill="#CFD3DF"/>
<path d="M342.499 306.114C342.394 306.114 342.315 306.035 342.315 305.93C342.315 305.824 342.394 305.745 342.499 305.745C342.605 305.745 342.684 305.824 342.684 305.93C342.657 306.035 342.578 306.114 342.499 306.114Z" fill="#CFD3DF"/>
<path d="M366.775 5.65788C368.232 5.65788 369.413 4.47685 369.413 3.01998C369.413 1.56311 368.232 0.38208 366.775 0.38208C365.318 0.38208 364.137 1.56311 364.137 3.01998C364.137 4.47685 365.318 5.65788 366.775 5.65788Z" fill="#CFD3DF"/>
<path d="M366.775 27.104C365.403 27.104 364.322 25.9961 364.322 24.6507C364.322 23.279 365.43 22.1975 366.775 22.1975C368.147 22.1975 369.228 23.3054 369.228 24.6507C369.255 25.9961 368.147 27.104 366.775 27.104Z" fill="#CFD3DF"/>
<path d="M366.775 48.5766C365.509 48.5766 364.48 47.5478 364.48 46.2816C364.48 45.0154 365.509 43.9866 366.775 43.9866C368.041 43.9866 369.07 45.0154 369.07 46.2816C369.07 47.5478 368.041 48.5766 366.775 48.5766Z" fill="#CFD3DF"/>
<path d="M366.775 70.0227C365.615 70.0227 364.665 69.073 364.665 67.9123C364.665 66.7516 365.615 65.802 366.775 65.802C367.936 65.802 368.885 66.7516 368.885 67.9123C368.885 69.073 367.962 70.0227 366.775 70.0227Z" fill="#CFD3DF"/>
<path d="M366.775 91.4954C365.72 91.4954 364.85 90.6248 364.85 89.5697C364.85 88.4881 365.72 87.644 366.775 87.644C367.857 87.644 368.701 88.5145 368.701 89.5697C368.727 90.6248 367.857 91.4954 366.775 91.4954Z" fill="#CFD3DF"/>
<path d="M366.775 112.942C365.799 112.942 365.008 112.15 365.008 111.174C365.008 110.198 365.799 109.407 366.775 109.407C367.751 109.407 368.543 110.198 368.543 111.174C368.543 112.176 367.751 112.942 366.775 112.942Z" fill="#CFD3DF"/>
<path d="M366.775 134.414C365.905 134.414 365.192 133.702 365.192 132.831C365.192 131.961 365.905 131.249 366.775 131.249C367.646 131.249 368.358 131.961 368.358 132.831C368.358 133.702 367.672 134.414 366.775 134.414Z" fill="#CFD3DF"/>
<path d="M366.775 155.886C366.01 155.886 365.377 155.253 365.377 154.488C365.377 153.723 366.01 153.09 366.775 153.09C367.54 153.09 368.173 153.723 368.173 154.488C368.2 155.253 367.567 155.886 366.775 155.886Z" fill="#CFD3DF"/>
<path d="M366.775 177.333C366.089 177.333 365.535 176.779 365.535 176.093C365.535 175.407 366.089 174.853 366.775 174.853C367.461 174.853 368.015 175.407 368.015 176.093C368.015 176.779 367.461 177.333 366.775 177.333Z" fill="#CFD3DF"/>
<path d="M366.775 198.805C366.195 198.805 365.72 198.33 365.72 197.749C365.72 197.169 366.195 196.694 366.775 196.694C367.356 196.694 367.83 197.169 367.83 197.749C367.83 198.33 367.382 198.805 366.775 198.805Z" fill="#CFD3DF"/>
<path d="M366.775 220.251C366.3 220.251 365.905 219.855 365.905 219.38C365.905 218.905 366.3 218.51 366.775 218.51C367.25 218.51 367.646 218.905 367.646 219.38C367.672 219.855 367.276 220.251 366.775 220.251Z" fill="#CFD3DF"/>
<path d="M366.775 241.723C366.379 241.723 366.063 241.407 366.063 241.011C366.063 240.615 366.379 240.299 366.775 240.299C367.171 240.299 367.487 240.615 367.487 241.011C367.487 241.407 367.171 241.723 366.775 241.723Z" fill="#CFD3DF"/>
<path d="M366.775 263.196C366.485 263.196 366.247 262.958 366.247 262.668C366.247 262.378 366.485 262.141 366.775 262.141C367.065 262.141 367.303 262.378 367.303 262.668C367.303 262.958 367.065 263.196 366.775 263.196Z" fill="#CFD3DF"/>
<path d="M366.775 284.642C366.591 284.642 366.432 284.484 366.432 284.299C366.432 284.114 366.591 283.956 366.775 283.956C366.96 283.956 367.118 284.114 367.118 284.299C367.145 284.484 366.986 284.642 366.775 284.642Z" fill="#CFD3DF"/>
<path d="M366.775 306.114C366.67 306.114 366.591 306.035 366.591 305.93C366.591 305.824 366.67 305.745 366.775 305.745C366.881 305.745 366.96 305.824 366.96 305.93C366.96 306.035 366.881 306.114 366.775 306.114Z" fill="#CFD3DF"/>
<path d="M391.051 5.65788C392.508 5.65788 393.689 4.47685 393.689 3.01998C393.689 1.56311 392.508 0.38208 391.051 0.38208C389.594 0.38208 388.413 1.56311 388.413 3.01998C388.413 4.47685 389.594 5.65788 391.051 5.65788Z" fill="#CFD3DF"/>
<path d="M391.051 27.104C389.679 27.104 388.598 25.9961 388.598 24.6507C388.598 23.279 389.706 22.1975 391.051 22.1975C392.396 22.1975 393.504 23.3054 393.504 24.6507C393.53 25.9961 392.423 27.104 391.051 27.104Z" fill="#CFD3DF"/>
<path d="M391.051 48.5766C389.785 48.5766 388.756 47.5478 388.756 46.2816C388.756 45.0154 389.785 43.9866 391.051 43.9866C392.317 43.9866 393.346 45.0154 393.346 46.2816C393.346 47.5478 392.317 48.5766 391.051 48.5766Z" fill="#CFD3DF"/>
<path d="M391.051 70.0227C389.89 70.0227 388.941 69.073 388.941 67.9123C388.941 66.7516 389.89 65.802 391.051 65.802C392.212 65.802 393.161 66.7516 393.161 67.9123C393.161 69.073 392.212 70.0227 391.051 70.0227Z" fill="#CFD3DF"/>
<path d="M391.051 91.4954C389.996 91.4954 389.125 90.6248 389.125 89.5697C389.125 88.4881 389.996 87.644 391.051 87.644C392.132 87.644 392.977 88.5145 392.977 89.5697C393.003 90.6248 392.132 91.4954 391.051 91.4954Z" fill="#CFD3DF"/>
<path d="M391.051 112.942C390.075 112.942 389.284 112.15 389.284 111.174C389.284 110.198 390.075 109.407 391.051 109.407C392.027 109.407 392.818 110.198 392.818 111.174C392.818 112.176 392.027 112.942 391.051 112.942Z" fill="#CFD3DF"/>
<path d="M391.051 134.414C390.18 134.414 389.468 133.702 389.468 132.831C389.468 131.961 390.18 131.249 391.051 131.249C391.921 131.249 392.634 131.961 392.634 132.831C392.634 133.702 391.921 134.414 391.051 134.414Z" fill="#CFD3DF"/>
<path d="M391.051 155.886C390.286 155.886 389.653 155.253 389.653 154.488C389.653 153.723 390.286 153.09 391.051 153.09C391.816 153.09 392.449 153.723 392.449 154.488C392.475 155.253 391.842 155.886 391.051 155.886Z" fill="#CFD3DF"/>
<path d="M391.051 177.333C390.365 177.333 389.811 176.779 389.811 176.093C389.811 175.407 390.365 174.853 391.051 174.853C391.737 174.853 392.291 175.407 392.291 176.093C392.291 176.779 391.737 177.333 391.051 177.333Z" fill="#CFD3DF"/>
<path d="M391.051 198.805C390.471 198.805 389.996 198.33 389.996 197.749C389.996 197.169 390.471 196.694 391.051 196.694C391.631 196.694 392.106 197.169 392.106 197.749C392.106 198.33 391.631 198.805 391.051 198.805Z" fill="#CFD3DF"/>
<path d="M391.051 220.251C390.576 220.251 390.18 219.855 390.18 219.38C390.18 218.905 390.576 218.51 391.051 218.51C391.526 218.51 391.921 218.905 391.921 219.38C391.948 219.855 391.552 220.251 391.051 220.251Z" fill="#CFD3DF"/>
<path d="M391.051 241.723C390.655 241.723 390.339 241.407 390.339 241.011C390.339 240.615 390.655 240.299 391.051 240.299C391.447 240.299 391.763 240.615 391.763 241.011C391.763 241.407 391.447 241.723 391.051 241.723Z" fill="#CFD3DF"/>
<path d="M391.051 263.196C390.761 263.196 390.523 262.958 390.523 262.668C390.523 262.378 390.761 262.141 391.051 262.141C391.341 262.141 391.579 262.378 391.579 262.668C391.579 262.958 391.341 263.196 391.051 263.196Z" fill="#CFD3DF"/>
<path d="M391.051 284.642C390.866 284.642 390.708 284.484 390.708 284.299C390.708 284.114 390.866 283.956 391.051 283.956C391.235 283.956 391.394 284.114 391.394 284.299C391.42 284.484 391.262 284.642 391.051 284.642Z" fill="#CFD3DF"/>
<path d="M391.051 306.114C390.945 306.114 390.866 306.035 390.866 305.93C390.866 305.824 390.945 305.745 391.051 305.745C391.156 305.745 391.235 305.824 391.235 305.93C391.235 306.035 391.156 306.114 391.051 306.114Z" fill="#CFD3DF"/>
<path d="M415.327 5.65788C416.784 5.65788 417.965 4.47685 417.965 3.01998C417.965 1.56311 416.784 0.38208 415.327 0.38208C413.87 0.38208 412.689 1.56311 412.689 3.01998C412.689 4.47685 413.87 5.65788 415.327 5.65788Z" fill="#CFD3DF"/>
<path d="M415.327 27.104C413.955 27.104 412.874 25.9961 412.874 24.6507C412.874 23.279 413.981 22.1975 415.327 22.1975C416.698 22.1975 417.78 23.3054 417.78 24.6507C417.78 25.9961 416.698 27.104 415.327 27.104Z" fill="#CFD3DF"/>
<path d="M415.327 48.5766C414.061 48.5766 413.032 47.5478 413.032 46.2816C413.032 45.0154 414.061 43.9866 415.327 43.9866C416.593 43.9866 417.622 45.0154 417.622 46.2816C417.622 47.5478 416.593 48.5766 415.327 48.5766Z" fill="#CFD3DF"/>
<path d="M415.327 70.0227C416.492 70.0227 417.437 69.0778 417.437 67.9123C417.437 66.7468 416.492 65.802 415.327 65.802C414.161 65.802 413.216 66.7468 413.216 67.9123C413.216 69.0778 414.161 70.0227 415.327 70.0227Z" fill="#CFD3DF"/>
<path d="M415.327 91.4954C414.245 91.4954 413.401 90.6248 413.401 89.5697C413.401 88.4881 414.272 87.644 415.327 87.644C416.382 87.644 417.252 88.5145 417.252 89.5697C417.252 90.6248 416.382 91.4954 415.327 91.4954Z" fill="#CFD3DF"/>
<path d="M415.327 112.942C414.351 112.942 413.559 112.15 413.559 111.174C413.559 110.198 414.351 109.407 415.327 109.407C416.303 109.407 417.094 110.198 417.094 111.174C417.094 112.176 416.303 112.942 415.327 112.942Z" fill="#CFD3DF"/>
<path d="M415.327 134.414C414.456 134.414 413.744 133.702 413.744 132.831C413.744 131.961 414.456 131.249 415.327 131.249C416.197 131.249 416.91 131.961 416.91 132.831C416.91 133.702 416.197 134.414 415.327 134.414Z" fill="#CFD3DF"/>
<path d="M415.327 155.886C414.562 155.886 413.929 155.253 413.929 154.488C413.929 153.723 414.562 153.09 415.327 153.09C416.092 153.09 416.725 153.723 416.725 154.488C416.725 155.253 416.092 155.886 415.327 155.886Z" fill="#CFD3DF"/>
<path d="M415.327 177.333C414.641 177.333 414.087 176.779 414.087 176.093C414.087 175.407 414.641 174.853 415.327 174.853C416.013 174.853 416.567 175.407 416.567 176.093C416.567 176.779 416.013 177.333 415.327 177.333Z" fill="#CFD3DF"/>
<path d="M415.327 198.805C414.746 198.805 414.272 198.33 414.272 197.749C414.272 197.169 414.746 196.694 415.327 196.694C415.907 196.694 416.382 197.169 416.382 197.749C416.382 198.33 415.907 198.805 415.327 198.805Z" fill="#CFD3DF"/>
<path d="M415.327 220.251C414.852 220.251 414.456 219.855 414.456 219.38C414.456 218.905 414.852 218.51 415.327 218.51C415.802 218.51 416.197 218.905 416.197 219.38C416.197 219.855 415.802 220.251 415.327 220.251Z" fill="#CFD3DF"/>
<path d="M415.327 241.723C414.931 241.723 414.614 241.407 414.614 241.011C414.614 240.615 414.931 240.299 415.327 240.299C415.722 240.299 416.039 240.615 416.039 241.011C416.039 241.407 415.722 241.723 415.327 241.723Z" fill="#CFD3DF"/>
<path d="M415.327 263.196C415.618 263.196 415.854 262.96 415.854 262.668C415.854 262.377 415.618 262.141 415.327 262.141C415.035 262.141 414.799 262.377 414.799 262.668C414.799 262.96 415.035 263.196 415.327 263.196Z" fill="#CFD3DF"/>
<path d="M415.327 284.642C415.142 284.642 414.984 284.484 414.984 284.299C414.984 284.114 415.142 283.956 415.327 283.956C415.511 283.956 415.67 284.114 415.67 284.299C415.67 284.484 415.511 284.642 415.327 284.642Z" fill="#CFD3DF"/>
<path d="M415.327 306.114C415.221 306.114 415.142 306.035 415.142 305.93C415.142 305.824 415.221 305.745 415.327 305.745C415.432 305.745 415.511 305.824 415.511 305.93C415.511 306.035 415.432 306.114 415.327 306.114Z" fill="#CFD3DF"/>
</svg>
