<svg width="204" height="279" viewBox="0 0 204 279" fill="none" xmlns="http://www.w3.org/2000/svg">
<path d="M3.52028 277.127C3.52028 276.155 2.73224 275.367 1.76014 275.367C0.78804 275.367 0 276.155 0 277.127C0 278.099 0.78804 278.887 1.76014 278.887C2.73224 278.887 3.52028 278.099 3.52028 277.127Z" fill="#93949B"/>
<path d="M17.8302 277.127C17.8302 278.042 17.091 278.764 16.1933 278.764C15.278 278.764 14.5564 278.024 14.5564 277.127C14.5564 276.211 15.2956 275.49 16.1933 275.49C17.091 275.472 17.8302 276.211 17.8302 277.127Z" fill="#93949B"/>
<path d="M32.1578 277.127C32.1578 277.972 31.4713 278.658 30.6265 278.658C29.7816 278.658 29.0951 277.972 29.0951 277.127C29.0951 276.282 29.7816 275.596 30.6265 275.596C31.4713 275.596 32.1578 276.282 32.1578 277.127Z" fill="#93949B"/>
<path d="M46.4677 277.127C46.4677 277.901 45.834 278.535 45.0596 278.535C44.2851 278.535 43.6515 277.901 43.6515 277.127C43.6515 276.352 44.2851 275.719 45.0596 275.719C45.834 275.719 46.4677 276.352 46.4677 277.127Z" fill="#93949B"/>
<path d="M60.7952 277.127C60.7952 277.831 60.2144 278.412 59.5103 278.412C58.7887 278.412 58.2255 277.831 58.2255 277.127C58.2255 276.405 58.8063 275.842 59.5103 275.842C60.2144 275.824 60.7952 276.405 60.7952 277.127Z" fill="#93949B"/>
<path d="M75.1052 277.127C75.1052 277.778 74.5771 278.306 73.9258 278.306C73.2746 278.306 72.7466 277.778 72.7466 277.127C72.7466 276.476 73.2746 275.948 73.9258 275.948C74.5947 275.948 75.1052 276.476 75.1052 277.127Z" fill="#93949B"/>
<path d="M89.4327 277.127C89.4327 277.708 88.9575 278.183 88.3766 278.183C87.7958 278.183 87.3206 277.708 87.3206 277.127C87.3206 276.546 87.7958 276.071 88.3766 276.071C88.9575 276.071 89.4327 276.546 89.4327 277.127Z" fill="#93949B"/>
<path d="M103.76 277.127C103.76 277.637 103.338 278.06 102.828 278.06C102.317 278.06 101.895 277.637 101.895 277.127C101.895 276.616 102.317 276.194 102.828 276.194C103.338 276.176 103.76 276.599 103.76 277.127Z" fill="#93949B"/>
<path d="M118.07 277.127C118.07 277.585 117.701 277.954 117.243 277.954C116.785 277.954 116.416 277.585 116.416 277.127C116.416 276.669 116.785 276.3 117.243 276.3C117.701 276.3 118.07 276.669 118.07 277.127Z" fill="#93949B"/>
<path d="M132.397 277.127C132.397 277.514 132.081 277.831 131.693 277.831C131.306 277.831 130.989 277.514 130.989 277.127C130.989 276.74 131.306 276.423 131.693 276.423C132.081 276.423 132.397 276.74 132.397 277.127Z" fill="#93949B"/>
<path d="M146.707 277.127C146.707 277.444 146.443 277.708 146.127 277.708C145.81 277.708 145.546 277.444 145.546 277.127C145.546 276.81 145.81 276.546 146.127 276.546C146.443 276.528 146.707 276.792 146.707 277.127Z" fill="#93949B"/>
<path d="M161.035 277.127C161.035 277.391 160.824 277.602 160.56 277.602C160.296 277.602 160.084 277.391 160.084 277.127C160.084 276.863 160.296 276.652 160.56 276.652C160.824 276.652 161.035 276.863 161.035 277.127Z" fill="#93949B"/>
<path d="M175.362 277.127C175.362 277.32 175.204 277.479 175.01 277.479C174.817 277.479 174.658 277.32 174.658 277.127C174.658 276.933 174.817 276.775 175.01 276.775C175.204 276.775 175.362 276.933 175.362 277.127Z" fill="#93949B"/>
<path d="M189.672 277.127C189.672 277.25 189.567 277.356 189.444 277.356C189.32 277.356 189.215 277.25 189.215 277.127C189.215 277.004 189.32 276.898 189.444 276.898C189.567 276.88 189.672 276.986 189.672 277.127Z" fill="#93949B"/>
<path d="M204 277.127C204 277.197 203.947 277.25 203.877 277.25C203.806 277.25 203.754 277.197 203.754 277.127C203.754 277.056 203.806 277.004 203.877 277.004C203.947 277.004 204 277.056 204 277.127Z" fill="#93949B"/>
<path d="M3.52028 260.929C3.52028 259.957 2.73224 259.169 1.76014 259.169C0.78804 259.169 0 259.957 0 260.929C0 261.901 0.78804 262.689 1.76014 262.689C2.73224 262.689 3.52028 261.901 3.52028 260.929Z" fill="#93949B"/>
<path d="M17.8302 260.929C17.8302 261.844 17.091 262.566 16.1933 262.566C15.278 262.566 14.5564 261.826 14.5564 260.929C14.5564 260.013 15.2956 259.292 16.1933 259.292C17.091 259.292 17.8302 260.013 17.8302 260.929Z" fill="#93949B"/>
<path d="M32.1578 260.929C32.1578 261.774 31.4713 262.46 30.6265 262.46C29.7816 262.46 29.0951 261.774 29.0951 260.929C29.0951 260.084 29.7816 259.397 30.6265 259.397C31.4713 259.397 32.1578 260.084 32.1578 260.929Z" fill="#93949B"/>
<path d="M46.4677 260.929C46.4677 260.151 45.8373 259.521 45.0596 259.521C44.2819 259.521 43.6515 260.151 43.6515 260.929C43.6515 261.707 44.2819 262.337 45.0596 262.337C45.8373 262.337 46.4677 261.707 46.4677 260.929Z" fill="#93949B"/>
<path d="M60.7952 260.929C60.7952 261.633 60.2144 262.214 59.5103 262.214C58.7887 262.214 58.2255 261.633 58.2255 260.929C58.2255 260.207 58.8063 259.644 59.5103 259.644C60.2144 259.644 60.7952 260.225 60.7952 260.929Z" fill="#93949B"/>
<path d="M75.1052 260.929C75.1052 261.58 74.5771 262.108 73.9258 262.108C73.2746 262.108 72.7466 261.58 72.7466 260.929C72.7466 260.277 73.2746 259.749 73.9258 259.749C74.5947 259.749 75.1052 260.277 75.1052 260.929Z" fill="#93949B"/>
<path d="M89.4327 260.929C89.4327 260.346 88.9599 259.873 88.3766 259.873C87.7934 259.873 87.3206 260.346 87.3206 260.929C87.3206 261.512 87.7934 261.985 88.3766 261.985C88.9599 261.985 89.4327 261.512 89.4327 260.929Z" fill="#93949B"/>
<path d="M103.76 260.929C103.76 261.439 103.338 261.862 102.828 261.862C102.317 261.862 101.895 261.439 101.895 260.929C101.895 260.418 102.317 259.996 102.828 259.996C103.338 259.996 103.76 260.418 103.76 260.929Z" fill="#93949B"/>
<path d="M118.07 260.929C118.07 261.386 117.701 261.756 117.243 261.756C116.785 261.756 116.416 261.386 116.416 260.929C116.416 260.471 116.785 260.101 117.243 260.101C117.701 260.101 118.07 260.471 118.07 260.929Z" fill="#93949B"/>
<path d="M132.397 260.929C132.397 261.316 132.081 261.633 131.693 261.633C131.306 261.633 130.989 261.316 130.989 260.929C130.989 260.541 131.306 260.225 131.693 260.225C132.081 260.225 132.397 260.541 132.397 260.929Z" fill="#93949B"/>
<path d="M146.707 260.929C146.707 261.246 146.443 261.51 146.127 261.51C145.81 261.51 145.546 261.246 145.546 260.929C145.546 260.612 145.81 260.348 146.127 260.348C146.443 260.348 146.707 260.612 146.707 260.929Z" fill="#93949B"/>
<path d="M161.035 260.929C161.035 261.193 160.824 261.404 160.56 261.404C160.296 261.404 160.084 261.193 160.084 260.929C160.084 260.665 160.296 260.454 160.56 260.454C160.824 260.454 161.035 260.665 161.035 260.929Z" fill="#93949B"/>
<path d="M175.362 260.929C175.362 260.734 175.205 260.577 175.01 260.577C174.816 260.577 174.658 260.734 174.658 260.929C174.658 261.123 174.816 261.281 175.01 261.281C175.205 261.281 175.362 261.123 175.362 260.929Z" fill="#93949B"/>
<path d="M189.672 260.929C189.672 261.052 189.567 261.158 189.444 261.158C189.32 261.158 189.215 261.052 189.215 260.929C189.215 260.806 189.32 260.7 189.444 260.7C189.567 260.7 189.672 260.806 189.672 260.929Z" fill="#93949B"/>
<path d="M204 260.929C204 260.999 203.947 261.052 203.877 261.052C203.806 261.052 203.754 260.999 203.754 260.929C203.754 260.858 203.806 260.806 203.877 260.806C203.947 260.806 204 260.858 204 260.929Z" fill="#93949B"/>
<path d="M3.52028 244.731C3.52028 243.759 2.73224 242.971 1.76014 242.971C0.78804 242.971 0 243.759 0 244.731C0 245.703 0.78804 246.491 1.76014 246.491C2.73224 246.491 3.52028 245.703 3.52028 244.731Z" fill="#93949B"/>
<path d="M17.8302 244.731C17.8302 245.646 17.091 246.368 16.1933 246.368C15.278 246.368 14.5564 245.628 14.5564 244.731C14.5564 243.833 15.2956 243.094 16.1933 243.094C17.091 243.094 17.8302 243.833 17.8302 244.731Z" fill="#93949B"/>
<path d="M32.1578 244.731C32.1578 245.576 31.4713 246.262 30.6265 246.262C29.7816 246.262 29.0951 245.576 29.0951 244.731C29.0951 243.886 29.7816 243.199 30.6265 243.199C31.4713 243.217 32.1578 243.886 32.1578 244.731Z" fill="#93949B"/>
<path d="M46.4677 244.731C46.4677 243.953 45.8373 243.323 45.0596 243.323C44.2819 243.323 43.6515 243.953 43.6515 244.731C43.6515 245.509 44.2819 246.139 45.0596 246.139C45.8373 246.139 46.4677 245.509 46.4677 244.731Z" fill="#93949B"/>
<path d="M60.7952 244.731C60.7952 245.452 60.2144 246.016 59.5103 246.016C58.7887 246.016 58.2255 245.435 58.2255 244.731C58.2255 244.027 58.8063 243.446 59.5103 243.446C60.2144 243.446 60.7952 244.027 60.7952 244.731Z" fill="#93949B"/>
<path d="M75.1052 244.731C75.1052 245.382 74.5771 245.91 73.9258 245.91C73.2746 245.91 72.7466 245.382 72.7466 244.731C72.7466 244.079 73.2746 243.551 73.9258 243.551C74.5947 243.569 75.1052 244.079 75.1052 244.731Z" fill="#93949B"/>
<path d="M89.4327 244.731C89.4327 244.148 88.9599 243.675 88.3766 243.675C87.7934 243.675 87.3206 244.148 87.3206 244.731C87.3206 245.314 87.7934 245.787 88.3766 245.787C88.9599 245.787 89.4327 245.314 89.4327 244.731Z" fill="#93949B"/>
<path d="M103.76 244.731C103.76 245.241 103.338 245.664 102.828 245.664C102.317 245.664 101.895 245.241 101.895 244.731C101.895 244.22 102.317 243.798 102.828 243.798C103.338 243.798 103.76 244.22 103.76 244.731Z" fill="#93949B"/>
<path d="M118.07 244.731C118.07 245.188 117.701 245.558 117.243 245.558C116.785 245.558 116.416 245.188 116.416 244.731C116.416 244.273 116.785 243.903 117.243 243.903C117.701 243.921 118.07 244.273 118.07 244.731Z" fill="#93949B"/>
<path d="M132.397 244.731C132.397 245.118 132.081 245.435 131.693 245.435C131.306 245.435 130.989 245.118 130.989 244.731C130.989 244.343 131.306 244.027 131.693 244.027C132.081 244.027 132.397 244.343 132.397 244.731Z" fill="#93949B"/>
<path d="M146.707 244.731C146.707 245.048 146.443 245.312 146.127 245.312C145.81 245.312 145.546 245.048 145.546 244.731C145.546 244.414 145.81 244.15 146.127 244.15C146.443 244.15 146.707 244.414 146.707 244.731Z" fill="#93949B"/>
<path d="M161.035 244.731C161.035 244.995 160.824 245.206 160.56 245.206C160.296 245.206 160.084 244.995 160.084 244.731C160.084 244.467 160.296 244.256 160.56 244.256C160.824 244.273 161.035 244.484 161.035 244.731Z" fill="#93949B"/>
<path d="M175.362 244.731C175.362 244.536 175.205 244.379 175.01 244.379C174.816 244.379 174.658 244.536 174.658 244.731C174.658 244.925 174.816 245.083 175.01 245.083C175.205 245.083 175.362 244.925 175.362 244.731Z" fill="#93949B"/>
<path d="M189.672 244.731C189.672 244.854 189.567 244.96 189.444 244.96C189.32 244.96 189.215 244.854 189.215 244.731C189.215 244.608 189.32 244.502 189.444 244.502C189.567 244.502 189.672 244.608 189.672 244.731Z" fill="#93949B"/>
<path d="M204 244.731C204 244.801 203.947 244.854 203.877 244.854C203.806 244.854 203.754 244.801 203.754 244.731C203.754 244.66 203.806 244.608 203.877 244.608C203.947 244.625 204 244.678 204 244.731Z" fill="#93949B"/>
<path d="M3.52028 228.533C3.52028 227.561 2.73224 226.773 1.76014 226.773C0.78804 226.773 0 227.561 0 228.533C0 229.505 0.78804 230.293 1.76014 230.293C2.73224 230.293 3.52028 229.505 3.52028 228.533Z" fill="#93949B"/>
<path d="M17.8302 228.533C17.8302 229.448 17.091 230.17 16.1933 230.17C15.278 230.17 14.5564 229.43 14.5564 228.533C14.5564 227.635 15.2956 226.896 16.1933 226.896C17.091 226.878 17.8302 227.617 17.8302 228.533Z" fill="#93949B"/>
<path d="M32.1578 228.533C32.1578 229.378 31.4713 230.064 30.6265 230.064C29.7816 230.064 29.0951 229.378 29.0951 228.533C29.0951 227.688 29.7816 227.001 30.6265 227.001C31.4713 227.001 32.1578 227.688 32.1578 228.533Z" fill="#93949B"/>
<path d="M46.4677 228.533C46.4677 227.755 45.8373 227.125 45.0596 227.125C44.2819 227.125 43.6515 227.755 43.6515 228.533C43.6515 229.311 44.2819 229.941 45.0596 229.941C45.8373 229.941 46.4677 229.311 46.4677 228.533Z" fill="#93949B"/>
<path d="M60.7952 228.533C60.7952 229.254 60.2144 229.818 59.5103 229.818C58.7887 229.818 58.2255 229.237 58.2255 228.533C58.2255 227.829 58.8063 227.248 59.5103 227.248C60.2144 227.23 60.7952 227.811 60.7952 228.533Z" fill="#93949B"/>
<path d="M75.1052 228.533C75.1052 229.184 74.5771 229.712 73.9258 229.712C73.2746 229.712 72.7466 229.184 72.7466 228.533C72.7466 227.881 73.2746 227.353 73.9258 227.353C74.5947 227.353 75.1052 227.881 75.1052 228.533Z" fill="#93949B"/>
<path d="M89.4327 228.533C89.4327 227.95 88.9599 227.477 88.3766 227.477C87.7934 227.477 87.3206 227.95 87.3206 228.533C87.3206 229.116 87.7934 229.589 88.3766 229.589C88.9599 229.589 89.4327 229.116 89.4327 228.533Z" fill="#93949B"/>
<path d="M103.76 228.533C103.76 229.043 103.338 229.466 102.828 229.466C102.317 229.466 101.895 229.043 101.895 228.533C101.895 228.022 102.317 227.6 102.828 227.6C103.338 227.582 103.76 228.005 103.76 228.533Z" fill="#93949B"/>
<path d="M118.07 228.533C118.07 228.99 117.701 229.36 117.243 229.36C116.785 229.36 116.416 228.99 116.416 228.533C116.416 228.075 116.785 227.705 117.243 227.705C117.701 227.705 118.07 228.075 118.07 228.533Z" fill="#93949B"/>
<path d="M132.397 228.533C132.397 228.92 132.081 229.237 131.693 229.237C131.306 229.237 130.989 228.92 130.989 228.533C130.989 228.146 131.306 227.829 131.693 227.829C132.081 227.829 132.397 228.128 132.397 228.533Z" fill="#93949B"/>
<path d="M146.707 228.533C146.707 228.85 146.443 229.114 146.127 229.114C145.81 229.114 145.546 228.85 145.546 228.533C145.546 228.216 145.81 227.952 146.127 227.952C146.443 227.934 146.707 228.198 146.707 228.533Z" fill="#93949B"/>
<path d="M161.035 228.533C161.035 228.27 160.822 228.057 160.56 228.057C160.297 228.057 160.084 228.27 160.084 228.533C160.084 228.795 160.297 229.008 160.56 229.008C160.822 229.008 161.035 228.795 161.035 228.533Z" fill="#93949B"/>
<path d="M175.362 228.533C175.362 228.338 175.205 228.181 175.01 228.181C174.816 228.181 174.658 228.338 174.658 228.533C174.658 228.727 174.816 228.885 175.01 228.885C175.205 228.885 175.362 228.727 175.362 228.533Z" fill="#93949B"/>
<path d="M189.672 228.533C189.672 228.656 189.567 228.761 189.444 228.761C189.32 228.761 189.215 228.656 189.215 228.533C189.215 228.41 189.32 228.304 189.444 228.304C189.567 228.286 189.672 228.392 189.672 228.533Z" fill="#93949B"/>
<path d="M204 228.533C204 228.603 203.947 228.656 203.877 228.656C203.806 228.656 203.754 228.603 203.754 228.533C203.754 228.462 203.806 228.41 203.877 228.41C203.947 228.41 204 228.462 204 228.533Z" fill="#93949B"/>
<path d="M3.52028 212.335C3.52028 211.362 2.73224 210.574 1.76014 210.574C0.78804 210.574 0 211.362 0 212.335C0 213.307 0.78804 214.095 1.76014 214.095C2.73224 214.095 3.52028 213.307 3.52028 212.335Z" fill="#93949B"/>
<path d="M17.8302 212.335C17.8302 213.25 17.091 213.972 16.1933 213.972C15.278 213.972 14.5564 213.232 14.5564 212.335C14.5564 211.419 15.2956 210.698 16.1933 210.698C17.091 210.68 17.8302 211.419 17.8302 212.335Z" fill="#93949B"/>
<path d="M32.1578 212.334C32.1578 213.179 31.4713 213.866 30.6265 213.866C29.7816 213.866 29.0951 213.179 29.0951 212.334C29.0951 211.49 29.7816 210.803 30.6265 210.803C31.4713 210.803 32.1578 211.49 32.1578 212.334Z" fill="#93949B"/>
<path d="M46.4677 212.334C46.4677 213.109 45.834 213.743 45.0596 213.743C44.2851 213.743 43.6515 213.109 43.6515 212.334C43.6515 211.56 44.2851 210.926 45.0596 210.926C45.834 210.926 46.4677 211.56 46.4677 212.334Z" fill="#93949B"/>
<path d="M60.7952 212.335C60.7952 213.039 60.2144 213.62 59.5103 213.62C58.7887 213.62 58.2255 213.039 58.2255 212.335C58.2255 211.613 58.8063 211.05 59.5103 211.05C60.2144 211.032 60.7952 211.613 60.7952 212.335Z" fill="#93949B"/>
<path d="M75.1052 212.335C75.1052 212.986 74.5771 213.514 73.9258 213.514C73.2746 213.514 72.7466 212.986 72.7466 212.335C72.7466 211.683 73.2746 211.155 73.9258 211.155C74.5947 211.155 75.1052 211.683 75.1052 212.335Z" fill="#93949B"/>
<path d="M89.4327 212.334C89.4327 211.751 88.9599 211.278 88.3766 211.278C87.7934 211.278 87.3206 211.751 87.3206 212.334C87.3206 212.918 87.7934 213.391 88.3766 213.391C88.9599 213.391 89.4327 212.918 89.4327 212.334Z" fill="#93949B"/>
<path d="M103.76 212.335C103.76 212.845 103.338 213.267 102.828 213.267C102.317 213.267 101.895 212.845 101.895 212.335C101.895 211.824 102.317 211.402 102.828 211.402C103.338 211.384 103.76 211.806 103.76 212.335Z" fill="#93949B"/>
<path d="M118.07 212.335C118.07 212.792 117.701 213.162 117.243 213.162C116.785 213.162 116.416 212.792 116.416 212.335C116.416 211.877 116.785 211.507 117.243 211.507C117.701 211.507 118.07 211.877 118.07 212.335Z" fill="#93949B"/>
<path d="M132.397 212.335C132.397 212.722 132.081 213.039 131.693 213.039C131.306 213.039 130.989 212.722 130.989 212.335C130.989 211.947 131.306 211.631 131.693 211.631C132.081 211.631 132.397 211.947 132.397 212.335Z" fill="#93949B"/>
<path d="M146.707 212.335C146.707 212.651 146.443 212.915 146.127 212.915C145.81 212.915 145.546 212.651 145.546 212.335C145.546 212.018 145.81 211.754 146.127 211.754C146.443 211.736 146.707 212 146.707 212.335Z" fill="#93949B"/>
<path d="M161.035 212.335C161.035 212.599 160.824 212.81 160.56 212.81C160.296 212.81 160.084 212.599 160.084 212.335C160.084 212.071 160.296 211.859 160.56 211.859C160.824 211.859 161.035 212.071 161.035 212.335Z" fill="#93949B"/>
<path d="M175.362 212.334C175.362 212.528 175.204 212.687 175.01 212.687C174.817 212.687 174.658 212.528 174.658 212.334C174.658 212.141 174.817 211.983 175.01 211.983C175.204 211.983 175.362 212.141 175.362 212.334Z" fill="#93949B"/>
<path d="M189.672 212.335C189.672 212.458 189.567 212.563 189.444 212.563C189.32 212.563 189.215 212.458 189.215 212.335C189.215 212.211 189.32 212.106 189.444 212.106C189.567 212.088 189.672 212.194 189.672 212.335Z" fill="#93949B"/>
<path d="M204 212.335C204 212.405 203.947 212.458 203.877 212.458C203.806 212.458 203.754 212.405 203.754 212.335C203.754 212.264 203.806 212.211 203.877 212.211C203.947 212.211 204 212.264 204 212.335Z" fill="#93949B"/>
<path d="M3.52028 196.137C3.52028 195.164 2.73224 194.376 1.76014 194.376C0.78804 194.376 0 195.164 0 196.137C0 197.109 0.78804 197.897 1.76014 197.897C2.73224 197.897 3.52028 197.109 3.52028 196.137Z" fill="#93949B"/>
<path d="M17.8302 196.137C17.8302 197.052 17.091 197.774 16.1933 197.774C15.278 197.774 14.5564 197.034 14.5564 196.137C14.5564 195.221 15.2956 194.5 16.1933 194.5C17.091 194.5 17.8302 195.221 17.8302 196.137Z" fill="#93949B"/>
<path d="M32.1578 196.137C32.1578 196.982 31.4713 197.668 30.6265 197.668C29.7816 197.668 29.0951 196.982 29.0951 196.137C29.0951 195.292 29.7816 194.605 30.6265 194.605C31.4713 194.605 32.1578 195.292 32.1578 196.137Z" fill="#93949B"/>
<path d="M46.4677 196.137C46.4677 196.911 45.834 197.545 45.0596 197.545C44.2851 197.545 43.6515 196.911 43.6515 196.137C43.6515 195.362 44.2851 194.729 45.0596 194.729C45.834 194.729 46.4677 195.362 46.4677 196.137Z" fill="#93949B"/>
<path d="M60.7952 196.137C60.7952 196.841 60.2144 197.422 59.5103 197.422C58.7887 197.422 58.2255 196.841 58.2255 196.137C58.2255 195.415 58.8063 194.852 59.5103 194.852C60.2144 194.852 60.7952 195.433 60.7952 196.137Z" fill="#93949B"/>
<path d="M75.1052 196.137C75.1052 196.788 74.5771 197.316 73.9258 197.316C73.2746 197.316 72.7466 196.788 72.7466 196.137C72.7466 195.485 73.2746 194.957 73.9258 194.957C74.5947 194.957 75.1052 195.485 75.1052 196.137Z" fill="#93949B"/>
<path d="M89.4327 196.137C89.4327 196.717 88.9575 197.193 88.3766 197.193C87.7958 197.193 87.3206 196.717 87.3206 196.137C87.3206 195.556 87.7958 195.081 88.3766 195.081C88.9575 195.081 89.4327 195.556 89.4327 196.137Z" fill="#93949B"/>
<path d="M103.76 196.137C103.76 196.647 103.338 197.069 102.828 197.069C102.317 197.069 101.895 196.647 101.895 196.137C101.895 195.626 102.317 195.204 102.828 195.204C103.338 195.204 103.76 195.626 103.76 196.137Z" fill="#93949B"/>
<path d="M118.07 196.137C118.07 196.594 117.701 196.964 117.243 196.964C116.785 196.964 116.416 196.594 116.416 196.137C116.416 195.679 116.785 195.309 117.243 195.309C117.701 195.309 118.07 195.679 118.07 196.137Z" fill="#93949B"/>
<path d="M132.397 196.137C132.397 196.524 132.081 196.841 131.693 196.841C131.306 196.841 130.989 196.524 130.989 196.137C130.989 195.749 131.306 195.433 131.693 195.433C132.081 195.433 132.397 195.749 132.397 196.137Z" fill="#93949B"/>
<path d="M146.707 196.137C146.707 196.453 146.443 196.718 146.127 196.718C145.81 196.718 145.546 196.453 145.546 196.137C145.546 195.82 145.81 195.556 146.127 195.556C146.443 195.556 146.707 195.82 146.707 196.137Z" fill="#93949B"/>
<path d="M161.035 196.137C161.035 196.401 160.824 196.612 160.56 196.612C160.296 196.612 160.084 196.401 160.084 196.137C160.084 195.873 160.296 195.661 160.56 195.661C160.824 195.661 161.035 195.873 161.035 196.137Z" fill="#93949B"/>
<path d="M175.362 196.137C175.362 196.33 175.204 196.489 175.01 196.489C174.817 196.489 174.658 196.33 174.658 196.137C174.658 195.943 174.817 195.785 175.01 195.785C175.204 195.785 175.362 195.943 175.362 196.137Z" fill="#93949B"/>
<path d="M189.672 196.137C189.672 196.26 189.567 196.365 189.444 196.365C189.32 196.365 189.215 196.26 189.215 196.137C189.215 196.013 189.32 195.908 189.444 195.908C189.567 195.908 189.672 196.013 189.672 196.137Z" fill="#93949B"/>
<path d="M204 196.137C204 196.207 203.947 196.26 203.877 196.26C203.806 196.26 203.754 196.207 203.754 196.137C203.754 196.066 203.806 196.013 203.877 196.013C203.947 196.013 204 196.066 204 196.137Z" fill="#93949B"/>
<path d="M3.52028 179.939C3.52028 178.966 2.73224 178.178 1.76014 178.178C0.78804 178.178 0 178.966 0 179.939C0 180.911 0.78804 181.699 1.76014 181.699C2.73224 181.699 3.52028 180.911 3.52028 179.939Z" fill="#93949B"/>
<path d="M17.8302 179.939C17.8302 180.854 17.091 181.576 16.1933 181.576C15.278 181.576 14.5564 180.836 14.5564 179.939C14.5564 179.023 15.2956 178.302 16.1933 178.302C17.091 178.302 17.8302 179.041 17.8302 179.939Z" fill="#93949B"/>
<path d="M32.1578 179.939C32.1578 180.784 31.4713 181.47 30.6265 181.47C29.7816 181.47 29.0951 180.784 29.0951 179.939C29.0951 179.094 29.7816 178.407 30.6265 178.407C31.4713 178.425 32.1578 179.094 32.1578 179.939Z" fill="#93949B"/>
<path d="M46.4677 179.939C46.4677 180.713 45.834 181.347 45.0596 181.347C44.2851 181.347 43.6515 180.713 43.6515 179.939C43.6515 179.164 44.2851 178.531 45.0596 178.531C45.834 178.531 46.4677 179.164 46.4677 179.939Z" fill="#93949B"/>
<path d="M60.7952 179.939C60.7952 180.66 60.2144 181.223 59.5103 181.223C58.7887 181.223 58.2255 180.643 58.2255 179.939C58.2255 179.234 58.8063 178.654 59.5103 178.654C60.2144 178.654 60.7952 179.234 60.7952 179.939Z" fill="#93949B"/>
<path d="M75.1052 179.939C75.1052 180.59 74.5771 181.118 73.9258 181.118C73.2746 181.118 72.7466 180.59 72.7466 179.939C72.7466 179.287 73.2746 178.759 73.9258 178.759C74.5947 178.777 75.1052 179.287 75.1052 179.939Z" fill="#93949B"/>
<path d="M89.4327 179.939C89.4327 179.355 88.9599 178.883 88.3766 178.883C87.7934 178.883 87.3206 179.355 87.3206 179.939C87.3206 180.522 87.7934 180.995 88.3766 180.995C88.9599 180.995 89.4327 180.522 89.4327 179.939Z" fill="#93949B"/>
<path d="M103.76 179.939C103.76 180.449 103.338 180.871 102.828 180.871C102.317 180.871 101.895 180.449 101.895 179.939C101.895 179.428 102.317 179.006 102.828 179.006C103.338 179.006 103.76 179.428 103.76 179.939Z" fill="#93949B"/>
<path d="M118.07 179.939C118.07 180.396 117.701 180.766 117.243 180.766C116.785 180.766 116.416 180.396 116.416 179.939C116.416 179.481 116.785 179.111 117.243 179.111C117.701 179.129 118.07 179.481 118.07 179.939Z" fill="#93949B"/>
<path d="M132.397 179.939C132.397 180.326 132.081 180.643 131.693 180.643C131.306 180.643 130.989 180.326 130.989 179.939C130.989 179.551 131.306 179.235 131.693 179.235C132.081 179.235 132.397 179.551 132.397 179.939Z" fill="#93949B"/>
<path d="M146.707 179.939C146.707 180.255 146.443 180.52 146.127 180.52C145.81 180.52 145.546 180.255 145.546 179.939C145.546 179.622 145.81 179.358 146.127 179.358C146.443 179.358 146.707 179.622 146.707 179.939Z" fill="#93949B"/>
<path d="M161.035 179.939C161.035 179.676 160.822 179.463 160.56 179.463C160.297 179.463 160.084 179.676 160.084 179.939C160.084 180.201 160.297 180.414 160.56 180.414C160.822 180.414 161.035 180.201 161.035 179.939Z" fill="#93949B"/>
<path d="M175.362 179.939C175.362 180.132 175.204 180.291 175.01 180.291C174.817 180.291 174.658 180.132 174.658 179.939C174.658 179.745 174.817 179.587 175.01 179.587C175.204 179.587 175.362 179.745 175.362 179.939Z" fill="#93949B"/>
<path d="M189.672 179.939C189.672 180.062 189.567 180.167 189.444 180.167C189.32 180.167 189.215 180.062 189.215 179.939C189.215 179.815 189.32 179.71 189.444 179.71C189.567 179.71 189.672 179.815 189.672 179.939Z" fill="#93949B"/>
<path d="M204 179.939C204 180.009 203.947 180.062 203.877 180.062C203.806 180.062 203.754 180.009 203.754 179.939C203.754 179.868 203.806 179.815 203.877 179.815C203.947 179.833 204 179.886 204 179.939Z" fill="#93949B"/>
<path d="M3.52028 163.741C3.52028 162.768 2.73224 161.98 1.76014 161.98C0.78804 161.98 0 162.768 0 163.741C0 164.713 0.78804 165.501 1.76014 165.501C2.73224 165.501 3.52028 164.713 3.52028 163.741Z" fill="#93949B"/>
<path d="M17.8302 163.741C17.8302 164.656 17.091 165.377 16.1933 165.377C15.278 165.377 14.5564 164.638 14.5564 163.741C14.5564 162.825 15.2956 162.104 16.1933 162.104C17.091 162.086 17.8302 162.825 17.8302 163.741Z" fill="#93949B"/>
<path d="M32.1578 163.741C32.1578 164.586 31.4713 165.272 30.6265 165.272C29.7816 165.272 29.0951 164.586 29.0951 163.741C29.0951 162.896 29.7816 162.209 30.6265 162.209C31.4713 162.209 32.1578 162.896 32.1578 163.741Z" fill="#93949B"/>
<path d="M46.4677 163.741C46.4677 162.963 45.8373 162.333 45.0596 162.333C44.2819 162.333 43.6515 162.963 43.6515 163.741C43.6515 164.518 44.2819 165.149 45.0596 165.149C45.8373 165.149 46.4677 164.518 46.4677 163.741Z" fill="#93949B"/>
<path d="M60.7952 163.741C60.7952 164.462 60.2144 165.025 59.5103 165.025C58.7887 165.025 58.2255 164.445 58.2255 163.741C58.2255 163.036 58.8063 162.456 59.5103 162.456C60.2144 162.438 60.7952 163.019 60.7952 163.741Z" fill="#93949B"/>
<path d="M75.1052 163.741C75.1052 164.392 74.5771 164.92 73.9258 164.92C73.2746 164.92 72.7466 164.392 72.7466 163.741C72.7466 163.089 73.2746 162.561 73.9258 162.561C74.5947 162.561 75.1052 163.089 75.1052 163.741Z" fill="#93949B"/>
<path d="M89.4327 163.741C89.4327 163.157 88.9599 162.684 88.3766 162.684C87.7934 162.684 87.3206 163.157 87.3206 163.741C87.3206 164.324 87.7934 164.797 88.3766 164.797C88.9599 164.797 89.4327 164.324 89.4327 163.741Z" fill="#93949B"/>
<path d="M103.76 163.741C103.76 164.251 103.338 164.673 102.828 164.673C102.317 164.673 101.895 164.251 101.895 163.741C101.895 163.23 102.317 162.808 102.828 162.808C103.338 162.79 103.76 163.212 103.76 163.741Z" fill="#93949B"/>
<path d="M118.07 163.741C118.07 164.198 117.701 164.568 117.243 164.568C116.785 164.568 116.416 164.198 116.416 163.741C116.416 163.283 116.785 162.913 117.243 162.913C117.701 162.913 118.07 163.283 118.07 163.741Z" fill="#93949B"/>
<path d="M132.397 163.741C132.397 164.128 132.081 164.445 131.693 164.445C131.306 164.445 130.989 164.128 130.989 163.741C130.989 163.353 131.306 163.036 131.693 163.036C132.081 163.036 132.397 163.336 132.397 163.741Z" fill="#93949B"/>
<path d="M146.707 163.741C146.707 164.057 146.443 164.321 146.127 164.321C145.81 164.321 145.546 164.057 145.546 163.741C145.546 163.424 145.81 163.16 146.127 163.16C146.443 163.142 146.707 163.406 146.707 163.741Z" fill="#93949B"/>
<path d="M161.035 163.741C161.035 164.005 160.824 164.216 160.56 164.216C160.296 164.216 160.084 164.005 160.084 163.741C160.084 163.477 160.296 163.265 160.56 163.265C160.824 163.265 161.035 163.477 161.035 163.741Z" fill="#93949B"/>
<path d="M175.362 163.74C175.362 163.546 175.205 163.388 175.01 163.388C174.816 163.388 174.658 163.546 174.658 163.74C174.658 163.935 174.816 164.093 175.01 164.093C175.205 164.093 175.362 163.935 175.362 163.74Z" fill="#93949B"/>
<path d="M189.672 163.741C189.672 163.864 189.567 163.969 189.444 163.969C189.32 163.969 189.215 163.864 189.215 163.741C189.215 163.617 189.32 163.512 189.444 163.512C189.567 163.494 189.672 163.6 189.672 163.741Z" fill="#93949B"/>
<path d="M204 163.741C204 163.811 203.947 163.864 203.877 163.864C203.806 163.864 203.754 163.811 203.754 163.741C203.754 163.67 203.806 163.617 203.877 163.617C203.947 163.617 204 163.67 204 163.741Z" fill="#93949B"/>
<path d="M3.52028 147.542C3.52028 146.57 2.73224 145.782 1.76014 145.782C0.78804 145.782 0 146.57 0 147.542C0 148.515 0.78804 149.303 1.76014 149.303C2.73224 149.303 3.52028 148.515 3.52028 147.542Z" fill="#93949B"/>
<path d="M17.8302 147.543C17.8302 148.458 17.091 149.179 16.1933 149.179C15.278 149.179 14.5564 148.44 14.5564 147.543C14.5564 146.645 15.2956 145.906 16.1933 145.906C17.091 145.888 17.8302 146.627 17.8302 147.543Z" fill="#93949B"/>
<path d="M32.1578 147.542C32.1578 146.697 31.4722 146.011 30.6265 146.011C29.7807 146.011 29.0951 146.697 29.0951 147.542C29.0951 148.388 29.7807 149.074 30.6265 149.074C31.4722 149.074 32.1578 148.388 32.1578 147.542Z" fill="#93949B"/>
<path d="M46.4677 147.543C46.4677 146.765 45.8373 146.134 45.0596 146.134C44.2819 146.134 43.6515 146.765 43.6515 147.543C43.6515 148.32 44.2819 148.951 45.0596 148.951C45.8373 148.951 46.4677 148.32 46.4677 147.543Z" fill="#93949B"/>
<path d="M60.7952 147.543C60.7952 148.247 60.2144 148.827 59.5103 148.827C58.7887 148.827 58.2255 148.247 58.2255 147.543C58.2255 146.821 58.8063 146.258 59.5103 146.258C60.2144 146.24 60.7952 146.821 60.7952 147.543Z" fill="#93949B"/>
<path d="M75.1052 147.542C75.1052 148.194 74.5771 148.722 73.9258 148.722C73.2746 148.722 72.7466 148.194 72.7466 147.542C72.7466 146.891 73.2746 146.363 73.9258 146.363C74.5947 146.363 75.1052 146.891 75.1052 147.542Z" fill="#93949B"/>
<path d="M89.4327 147.542C89.4327 146.959 88.9599 146.486 88.3766 146.486C87.7934 146.486 87.3206 146.959 87.3206 147.542C87.3206 148.126 87.7934 148.599 88.3766 148.599C88.9599 148.599 89.4327 148.126 89.4327 147.542Z" fill="#93949B"/>
<path d="M103.76 147.542C103.76 148.053 103.338 148.475 102.828 148.475C102.317 148.475 101.895 148.053 101.895 147.542C101.895 147.032 102.317 146.609 102.828 146.609C103.338 146.592 103.76 147.014 103.76 147.542Z" fill="#93949B"/>
<path d="M118.07 147.542C118.07 148 117.701 148.37 117.243 148.37C116.785 148.37 116.416 148 116.416 147.542C116.416 147.085 116.785 146.715 117.243 146.715C117.701 146.715 118.07 147.085 118.07 147.542Z" fill="#93949B"/>
<path d="M132.397 147.542C132.397 147.93 132.081 148.246 131.693 148.246C131.306 148.246 130.989 147.93 130.989 147.542C130.989 147.155 131.306 146.838 131.693 146.838C132.081 146.838 132.397 147.155 132.397 147.542Z" fill="#93949B"/>
<path d="M146.707 147.543C146.707 147.859 146.443 148.123 146.127 148.123C145.81 148.123 145.546 147.859 145.546 147.543C145.546 147.226 145.81 146.962 146.127 146.962C146.443 146.944 146.707 147.208 146.707 147.543Z" fill="#93949B"/>
<path d="M161.035 147.542C161.035 147.28 160.822 147.067 160.56 147.067C160.297 147.067 160.084 147.28 160.084 147.542C160.084 147.805 160.297 148.018 160.56 148.018C160.822 148.018 161.035 147.805 161.035 147.542Z" fill="#93949B"/>
<path d="M175.362 147.542C175.362 147.348 175.205 147.19 175.01 147.19C174.816 147.19 174.658 147.348 174.658 147.542C174.658 147.737 174.816 147.894 175.01 147.894C175.205 147.894 175.362 147.737 175.362 147.542Z" fill="#93949B"/>
<path d="M189.672 147.542C189.672 147.416 189.57 147.314 189.444 147.314C189.317 147.314 189.215 147.416 189.215 147.542C189.215 147.669 189.317 147.771 189.444 147.771C189.57 147.771 189.672 147.669 189.672 147.542Z" fill="#93949B"/>
<path d="M204 147.543C204 147.613 203.947 147.666 203.877 147.666C203.806 147.666 203.754 147.613 203.754 147.543C203.754 147.472 203.806 147.419 203.877 147.419C203.947 147.419 204 147.472 204 147.543Z" fill="#93949B"/>
<path d="M3.52028 131.344C3.52028 130.372 2.73224 129.584 1.76014 129.584C0.78804 129.584 0 130.372 0 131.344C0 132.316 0.78804 133.104 1.76014 133.104C2.73224 133.104 3.52028 132.316 3.52028 131.344Z" fill="#93949B"/>
<path d="M17.8302 131.344C17.8302 132.26 17.091 132.981 16.1933 132.981C15.278 132.981 14.5564 132.242 14.5564 131.344C14.5564 130.429 15.2956 129.708 16.1933 129.708C17.091 129.708 17.8302 130.429 17.8302 131.344Z" fill="#93949B"/>
<path d="M32.1578 131.344C32.1578 132.189 31.4713 132.876 30.6265 132.876C29.7816 132.876 29.0951 132.189 29.0951 131.344C29.0951 130.499 29.7816 129.813 30.6265 129.813C31.4713 129.813 32.1578 130.499 32.1578 131.344Z" fill="#93949B"/>
<path d="M46.4677 131.344C46.4677 130.567 45.8373 129.936 45.0596 129.936C44.2819 129.936 43.6515 130.567 43.6515 131.344C43.6515 132.122 44.2819 132.753 45.0596 132.753C45.8373 132.753 46.4677 132.122 46.4677 131.344Z" fill="#93949B"/>
<path d="M60.7952 131.344C60.7952 132.066 60.2144 132.629 59.5103 132.629C58.7887 132.629 58.2255 132.048 58.2255 131.344C58.2255 130.623 58.8063 130.06 59.5103 130.06C60.2144 130.06 60.7952 130.64 60.7952 131.344Z" fill="#93949B"/>
<path d="M75.1052 131.344C75.1052 131.996 74.5771 132.524 73.9258 132.524C73.2746 132.524 72.7466 131.996 72.7466 131.344C72.7466 130.693 73.2746 130.165 73.9258 130.165C74.5947 130.165 75.1052 130.693 75.1052 131.344Z" fill="#93949B"/>
<path d="M89.4327 131.344C89.4327 130.761 88.9599 130.288 88.3766 130.288C87.7934 130.288 87.3206 130.761 87.3206 131.344C87.3206 131.928 87.7934 132.401 88.3766 132.401C88.9599 132.401 89.4327 131.928 89.4327 131.344Z" fill="#93949B"/>
<path d="M103.76 131.344C103.76 131.855 103.338 132.277 102.828 132.277C102.317 132.277 101.895 131.855 101.895 131.344C101.895 130.834 102.317 130.412 102.828 130.412C103.338 130.412 103.76 130.834 103.76 131.344Z" fill="#93949B"/>
<path d="M118.07 131.344C118.07 131.802 117.701 132.172 117.243 132.172C116.785 132.172 116.416 131.802 116.416 131.344C116.416 130.887 116.785 130.517 117.243 130.517C117.701 130.517 118.07 130.887 118.07 131.344Z" fill="#93949B"/>
<path d="M132.397 131.344C132.397 131.732 132.081 132.049 131.693 132.049C131.306 132.049 130.989 131.732 130.989 131.344C130.989 130.957 131.306 130.64 131.693 130.64C132.081 130.64 132.397 130.957 132.397 131.344Z" fill="#93949B"/>
<path d="M146.707 131.344C146.707 131.661 146.443 131.925 146.127 131.925C145.81 131.925 145.546 131.661 145.546 131.344C145.546 131.028 145.81 130.764 146.127 130.764C146.443 130.764 146.707 131.028 146.707 131.344Z" fill="#93949B"/>
<path d="M161.035 131.344C161.035 131.608 160.824 131.82 160.56 131.82C160.296 131.82 160.084 131.608 160.084 131.344C160.084 131.08 160.296 130.869 160.56 130.869C160.824 130.869 161.035 131.08 161.035 131.344Z" fill="#93949B"/>
<path d="M175.362 131.344C175.362 131.15 175.205 130.993 175.01 130.993C174.816 130.993 174.658 131.15 174.658 131.344C174.658 131.539 174.816 131.697 175.01 131.697C175.205 131.697 175.362 131.539 175.362 131.344Z" fill="#93949B"/>
<path d="M189.672 131.344C189.672 131.468 189.567 131.573 189.444 131.573C189.32 131.573 189.215 131.468 189.215 131.344C189.215 131.221 189.32 131.116 189.444 131.116C189.567 131.116 189.672 131.221 189.672 131.344Z" fill="#93949B"/>
<path d="M204 131.344C204 131.415 203.947 131.468 203.877 131.468C203.806 131.468 203.754 131.415 203.754 131.344C203.754 131.274 203.806 131.221 203.877 131.221C203.947 131.221 204 131.274 204 131.344Z" fill="#93949B"/>
<path d="M3.52028 115.146C3.52028 114.174 2.73224 113.386 1.76014 113.386C0.78804 113.386 0 114.174 0 115.146C0 116.118 0.78804 116.906 1.76014 116.906C2.73224 116.906 3.52028 116.118 3.52028 115.146Z" fill="#93949B"/>
<path d="M17.8302 115.146C17.8302 116.062 17.091 116.783 16.1933 116.783C15.278 116.783 14.5564 116.044 14.5564 115.146C14.5564 114.231 15.2956 113.509 16.1933 113.509C17.091 113.509 17.8302 114.249 17.8302 115.146Z" fill="#93949B"/>
<path d="M32.1578 115.146C32.1578 115.991 31.4713 116.678 30.6265 116.678C29.7816 116.678 29.0951 115.991 29.0951 115.146C29.0951 114.301 29.7816 113.615 30.6265 113.615C31.4713 113.633 32.1578 114.301 32.1578 115.146Z" fill="#93949B"/>
<path d="M46.4677 115.146C46.4677 114.369 45.8373 113.738 45.0596 113.738C44.2819 113.738 43.6515 114.369 43.6515 115.146C43.6515 115.924 44.2819 116.554 45.0596 116.554C45.8373 116.554 46.4677 115.924 46.4677 115.146Z" fill="#93949B"/>
<path d="M60.7952 115.146C60.7952 115.868 60.2144 116.431 59.5103 116.431C58.7887 116.431 58.2255 115.85 58.2255 115.146C58.2255 114.442 58.8063 113.862 59.5103 113.862C60.2144 113.862 60.7952 114.442 60.7952 115.146Z" fill="#93949B"/>
<path d="M75.1052 115.146C75.1052 115.798 74.5771 116.326 73.9258 116.326C73.2746 116.326 72.7466 115.798 72.7466 115.146C72.7466 114.495 73.2746 113.967 73.9258 113.967C74.5947 113.985 75.1052 114.495 75.1052 115.146Z" fill="#93949B"/>
<path d="M89.4327 115.146C89.4327 115.727 88.9575 116.203 88.3766 116.203C87.7958 116.203 87.3206 115.727 87.3206 115.146C87.3206 114.566 87.7958 114.09 88.3766 114.09C88.9575 114.09 89.4327 114.566 89.4327 115.146Z" fill="#93949B"/>
<path d="M103.76 115.146C103.76 115.657 103.338 116.079 102.828 116.079C102.317 116.079 101.895 115.657 101.895 115.146C101.895 114.636 102.317 114.214 102.828 114.214C103.338 114.214 103.76 114.636 103.76 115.146Z" fill="#93949B"/>
<path d="M118.07 115.146C118.07 115.604 117.701 115.974 117.243 115.974C116.785 115.974 116.416 115.604 116.416 115.146C116.416 114.689 116.785 114.319 117.243 114.319C117.701 114.337 118.07 114.706 118.07 115.146Z" fill="#93949B"/>
<path d="M132.397 115.146C132.397 115.533 132.081 115.85 131.693 115.85C131.306 115.85 130.989 115.533 130.989 115.146C130.989 114.759 131.306 114.442 131.693 114.442C132.081 114.442 132.397 114.759 132.397 115.146Z" fill="#93949B"/>
<path d="M146.707 115.146C146.707 114.826 146.447 114.566 146.127 114.566C145.806 114.566 145.546 114.826 145.546 115.146C145.546 115.467 145.806 115.727 146.127 115.727C146.447 115.727 146.707 115.467 146.707 115.146Z" fill="#93949B"/>
<path d="M161.035 115.146C161.035 115.41 160.824 115.622 160.56 115.622C160.296 115.622 160.084 115.41 160.084 115.146C160.084 114.882 160.296 114.671 160.56 114.671C160.824 114.689 161.035 114.9 161.035 115.146Z" fill="#93949B"/>
<path d="M175.362 115.146C175.362 114.952 175.205 114.794 175.01 114.794C174.816 114.794 174.658 114.952 174.658 115.146C174.658 115.341 174.816 115.498 175.01 115.498C175.205 115.498 175.362 115.341 175.362 115.146Z" fill="#93949B"/>
<path d="M189.672 115.146C189.672 115.27 189.567 115.375 189.444 115.375C189.32 115.375 189.215 115.27 189.215 115.146C189.215 115.023 189.32 114.917 189.444 114.917C189.567 114.917 189.672 115.023 189.672 115.146Z" fill="#93949B"/>
<path d="M204 115.146C204 115.217 203.947 115.27 203.877 115.27C203.806 115.27 203.754 115.217 203.754 115.146C203.754 115.076 203.806 115.023 203.877 115.023C203.947 115.041 204 115.094 204 115.146Z" fill="#93949B"/>
<path d="M3.52028 98.9484C3.52028 97.9763 2.73224 97.1882 1.76014 97.1882C0.78804 97.1882 0 97.9763 0 98.9484C0 99.9205 0.78804 100.708 1.76014 100.708C2.73224 100.708 3.52028 99.9205 3.52028 98.9484Z" fill="#93949B"/>
<path d="M17.8302 98.9484C17.8302 99.8637 17.091 100.585 16.1933 100.585C15.278 100.585 14.5564 99.8461 14.5564 98.9484C14.5564 98.0331 15.2956 97.3115 16.1933 97.3115C17.091 97.2939 17.8302 98.0331 17.8302 98.9484Z" fill="#93949B"/>
<path d="M32.1578 98.9484C32.1578 99.7933 31.4713 100.48 30.6265 100.48C29.7816 100.48 29.0951 99.7933 29.0951 98.9484C29.0951 98.1036 29.7816 97.4171 30.6265 97.4171C31.4713 97.4171 32.1578 98.1036 32.1578 98.9484Z" fill="#93949B"/>
<path d="M46.4677 98.9484C46.4677 99.7228 45.834 100.356 45.0596 100.356C44.2851 100.356 43.6515 99.7228 43.6515 98.9484C43.6515 98.1739 44.2851 97.5403 45.0596 97.5403C45.834 97.5403 46.4677 98.1563 46.4677 98.9484Z" fill="#93949B"/>
<path d="M60.7952 98.9484C60.7952 99.6701 60.2144 100.233 59.5103 100.233C58.7887 100.233 58.2255 99.6525 58.2255 98.9484C58.2255 98.2444 58.8063 97.6635 59.5103 97.6635C60.2144 97.6459 60.7952 98.2268 60.7952 98.9484Z" fill="#93949B"/>
<path d="M75.1052 98.9484C75.1052 99.5997 74.5771 100.128 73.9258 100.128C73.2746 100.128 72.7466 99.5997 72.7466 98.9484C72.7466 98.2972 73.2746 97.7692 73.9258 97.7692C74.5947 97.7692 75.1052 98.2972 75.1052 98.9484Z" fill="#93949B"/>
<path d="M89.4327 98.9485C89.4327 99.5293 88.9575 100.005 88.3766 100.005C87.7958 100.005 87.3206 99.5293 87.3206 98.9485C87.3206 98.3676 87.7958 97.8924 88.3766 97.8924C88.9575 97.8924 89.4327 98.35 89.4327 98.9485Z" fill="#93949B"/>
<path d="M103.76 98.9484C103.76 99.4588 103.338 99.8812 102.828 99.8812C102.317 99.8812 101.895 99.4588 101.895 98.9484C101.895 98.438 102.317 98.0155 102.828 98.0155C103.338 97.9979 103.76 98.4204 103.76 98.9484Z" fill="#93949B"/>
<path d="M118.07 98.9484C118.07 99.4061 117.701 99.7756 117.243 99.7756C116.785 99.7756 116.416 99.4061 116.416 98.9484C116.416 98.4908 116.785 98.1211 117.243 98.1211C117.701 98.1211 118.07 98.4908 118.07 98.9484Z" fill="#93949B"/>
<path d="M132.397 98.9484C132.397 99.3356 132.081 99.6525 131.693 99.6525C131.306 99.6525 130.989 99.3356 130.989 98.9484C130.989 98.5611 131.306 98.2443 131.693 98.2443C132.081 98.2443 132.397 98.5435 132.397 98.9484Z" fill="#93949B"/>
<path d="M146.707 98.9484C146.707 99.2652 146.443 99.5293 146.127 99.5293C145.81 99.5293 145.546 99.2652 145.546 98.9484C145.546 98.6316 145.81 98.3675 146.127 98.3675C146.443 98.3499 146.707 98.614 146.707 98.9484Z" fill="#93949B"/>
<path d="M161.035 98.9484C161.035 99.2125 160.824 99.4237 160.56 99.4237C160.296 99.4237 160.084 99.2125 160.084 98.9484C160.084 98.6844 160.296 98.4732 160.56 98.4732C160.824 98.4732 161.035 98.6844 161.035 98.9484Z" fill="#93949B"/>
<path d="M175.362 98.9485C175.362 99.1421 175.204 99.3005 175.01 99.3005C174.817 99.3005 174.658 99.1421 174.658 98.9485C174.658 98.7549 174.817 98.5964 175.01 98.5964C175.204 98.5964 175.362 98.7373 175.362 98.9485Z" fill="#93949B"/>
<path d="M189.672 98.9484C189.672 99.0716 189.567 99.1772 189.444 99.1772C189.32 99.1772 189.215 99.0716 189.215 98.9484C189.215 98.8252 189.32 98.7196 189.444 98.7196C189.567 98.702 189.672 98.8076 189.672 98.9484Z" fill="#93949B"/>
<path d="M204 98.9484C204 99.0188 203.947 99.0717 203.877 99.0717C203.806 99.0717 203.754 99.0188 203.754 98.9484C203.754 98.878 203.806 98.8252 203.877 98.8252C203.947 98.8252 204 98.878 204 98.9484Z" fill="#93949B"/>
<path d="M3.52028 82.7504C3.52028 81.7783 2.73224 80.9902 1.76014 80.9902C0.78804 80.9902 0 81.7783 0 82.7504C0 83.7225 0.78804 84.5105 1.76014 84.5105C2.73224 84.5105 3.52028 83.7225 3.52028 82.7504Z" fill="#93949B"/>
<path d="M17.8302 82.7503C17.8302 83.6656 17.091 84.3872 16.1933 84.3872C15.278 84.3872 14.5564 83.648 14.5564 82.7503C14.5564 81.8526 15.2956 81.1134 16.1933 81.1134C17.091 81.0958 17.8302 81.835 17.8302 82.7503Z" fill="#93949B"/>
<path d="M32.1578 82.7503C32.1578 81.9046 31.4722 81.219 30.6265 81.219C29.7807 81.219 29.0951 81.9046 29.0951 82.7503C29.0951 83.596 29.7807 84.2816 30.6265 84.2816C31.4722 84.2816 32.1578 83.596 32.1578 82.7503Z" fill="#93949B"/>
<path d="M46.4677 82.7504C46.4677 83.5248 45.834 84.1584 45.0596 84.1584C44.2851 84.1584 43.6515 83.5248 43.6515 82.7504C43.6515 81.9759 44.2851 81.3423 45.0596 81.3423C45.834 81.3423 46.4677 81.9759 46.4677 82.7504Z" fill="#93949B"/>
<path d="M60.7952 82.7503C60.7952 83.4543 60.2144 84.0352 59.5103 84.0352C58.7887 84.0352 58.2255 83.4543 58.2255 82.7503C58.2255 82.0286 58.8063 81.4653 59.5103 81.4653C60.2144 81.4477 60.7952 82.0286 60.7952 82.7503Z" fill="#93949B"/>
<path d="M75.1052 82.7503C75.1052 83.4016 74.5771 83.9296 73.9258 83.9296C73.2746 83.9296 72.7466 83.4016 72.7466 82.7503C72.7466 82.0991 73.2746 81.571 73.9258 81.571C74.5947 81.571 75.1052 82.0991 75.1052 82.7503Z" fill="#93949B"/>
<path d="M89.4327 82.7504C89.4327 82.1671 88.9599 81.6942 88.3766 81.6942C87.7934 81.6942 87.3206 82.1671 87.3206 82.7504C87.3206 83.3336 87.7934 83.8064 88.3766 83.8064C88.9599 83.8064 89.4327 83.3336 89.4327 82.7504Z" fill="#93949B"/>
<path d="M103.76 82.7503C103.76 83.2607 103.338 83.6831 102.828 83.6831C102.317 83.6831 101.895 83.2607 101.895 82.7503C101.895 82.2398 102.317 81.8174 102.828 81.8174C103.338 81.7998 103.76 82.2222 103.76 82.7503Z" fill="#93949B"/>
<path d="M118.07 82.7503C118.07 83.2079 117.701 83.5775 117.243 83.5775C116.785 83.5775 116.416 83.2079 116.416 82.7503C116.416 82.2927 116.785 81.923 117.243 81.923C117.701 81.923 118.07 82.2927 118.07 82.7503Z" fill="#93949B"/>
<path d="M132.397 82.7504C132.397 83.1376 132.081 83.4543 131.693 83.4543C131.306 83.4543 130.989 83.1376 130.989 82.7504C130.989 82.3631 131.306 82.0463 131.693 82.0463C132.081 82.0463 132.397 82.3631 132.397 82.7504Z" fill="#93949B"/>
<path d="M146.707 82.7503C146.707 83.0671 146.443 83.3312 146.127 83.3312C145.81 83.3312 145.546 83.0671 145.546 82.7503C145.546 82.4335 145.81 82.1694 146.127 82.1694C146.443 82.1518 146.707 82.4159 146.707 82.7503Z" fill="#93949B"/>
<path d="M161.035 82.7503C161.035 83.0143 160.824 83.2255 160.56 83.2255C160.296 83.2255 160.084 83.0143 160.084 82.7503C160.084 82.4863 160.296 82.275 160.56 82.275C160.824 82.275 161.035 82.4863 161.035 82.7503Z" fill="#93949B"/>
<path d="M175.362 82.7502C175.362 82.9439 175.204 83.1023 175.01 83.1023C174.817 83.1023 174.658 82.9439 174.658 82.7502C174.658 82.5566 174.817 82.3982 175.01 82.3982C175.204 82.3982 175.362 82.5566 175.362 82.7502Z" fill="#93949B"/>
<path d="M189.672 82.7503C189.672 82.6239 189.57 82.5215 189.444 82.5215C189.317 82.5215 189.215 82.6239 189.215 82.7503C189.215 82.8767 189.317 82.9791 189.444 82.9791C189.57 82.9791 189.672 82.8767 189.672 82.7503Z" fill="#93949B"/>
<path d="M204 82.7503C204 82.8207 203.947 82.8735 203.877 82.8735C203.806 82.8735 203.754 82.8207 203.754 82.7503C203.754 82.6799 203.806 82.6271 203.877 82.6271C203.947 82.6271 204 82.6799 204 82.7503Z" fill="#93949B"/>
<path d="M3.52028 66.5522C3.52028 65.5801 2.73224 64.7921 1.76014 64.7921C0.78804 64.7921 0 65.5801 0 66.5522C0 67.5243 0.78804 68.3124 1.76014 68.3124C2.73224 68.3124 3.52028 67.5243 3.52028 66.5522Z" fill="#93949B"/>
<path d="M17.8302 66.5522C17.8302 67.4674 17.091 68.1891 16.1933 68.1891C15.278 68.1891 14.5564 67.4498 14.5564 66.5522C14.5564 65.6545 15.2956 64.9153 16.1933 64.9153C17.091 64.9153 17.8302 65.6369 17.8302 66.5522Z" fill="#93949B"/>
<path d="M32.1578 66.5523C32.1578 65.7066 31.4722 65.021 30.6265 65.021C29.7807 65.021 29.0951 65.7066 29.0951 66.5523C29.0951 67.398 29.7807 68.0836 30.6265 68.0836C31.4722 68.0836 32.1578 67.398 32.1578 66.5523Z" fill="#93949B"/>
<path d="M46.4677 66.5522C46.4677 65.7746 45.8373 65.144 45.0596 65.144C44.2819 65.144 43.6515 65.7746 43.6515 66.5522C43.6515 67.3299 44.2819 67.9603 45.0596 67.9603C45.8373 67.9603 46.4677 67.3299 46.4677 66.5522Z" fill="#93949B"/>
<path d="M60.7952 66.5523C60.7952 67.2739 60.2144 67.8372 59.5103 67.8372C58.7887 67.8372 58.2255 67.2563 58.2255 66.5523C58.2255 65.8482 58.8063 65.2673 59.5103 65.2673C60.2144 65.2673 60.7952 65.8482 60.7952 66.5523Z" fill="#93949B"/>
<path d="M75.1052 66.5523C75.1052 67.2036 74.5771 67.7316 73.9258 67.7316C73.2746 67.7316 72.7466 67.2036 72.7466 66.5523C72.7466 65.9011 73.2746 65.3729 73.9258 65.3729C74.5947 65.3729 75.1052 65.9011 75.1052 66.5523Z" fill="#93949B"/>
<path d="M89.4327 66.5522C89.4327 65.969 88.9599 65.4961 88.3766 65.4961C87.7934 65.4961 87.3206 65.969 87.3206 66.5522C87.3206 67.1355 87.7934 67.6083 88.3766 67.6083C88.9599 67.6083 89.4327 67.1355 89.4327 66.5522Z" fill="#93949B"/>
<path d="M103.76 66.5523C103.76 67.0627 103.338 67.4851 102.828 67.4851C102.317 67.4851 101.895 67.0627 101.895 66.5523C101.895 66.0419 102.317 65.6194 102.828 65.6194C103.338 65.6194 103.76 66.0419 103.76 66.5523Z" fill="#93949B"/>
<path d="M118.07 66.5522C118.07 67.0098 117.701 67.3794 117.243 67.3794C116.785 67.3794 116.416 67.0098 116.416 66.5522C116.416 66.0945 116.785 65.7249 117.243 65.7249C117.701 65.7249 118.07 66.0945 118.07 66.5522Z" fill="#93949B"/>
<path d="M132.397 66.5522C132.397 66.9395 132.081 67.2562 131.693 67.2562C131.306 67.2562 130.989 66.9395 130.989 66.5522C130.989 66.165 131.306 65.8481 131.693 65.8481C132.081 65.8481 132.397 66.165 132.397 66.5522Z" fill="#93949B"/>
<path d="M146.707 66.5523C146.707 66.2315 146.447 65.9714 146.127 65.9714C145.806 65.9714 145.546 66.2315 145.546 66.5523C145.546 66.8731 145.806 67.1331 146.127 67.1331C146.447 67.1331 146.707 66.8731 146.707 66.5523Z" fill="#93949B"/>
<path d="M161.035 66.5522C161.035 66.8162 160.824 67.0273 160.56 67.0273C160.296 67.0273 160.084 66.8162 160.084 66.5522C160.084 66.2882 160.296 66.0769 160.56 66.0769C160.824 66.0769 161.035 66.2882 161.035 66.5522Z" fill="#93949B"/>
<path d="M175.362 66.5522C175.362 66.3578 175.205 66.2002 175.01 66.2002C174.816 66.2002 174.658 66.3578 174.658 66.5522C174.658 66.7467 174.816 66.9042 175.01 66.9042C175.205 66.9042 175.362 66.7467 175.362 66.5522Z" fill="#93949B"/>
<path d="M189.672 66.5523C189.672 66.4259 189.57 66.3235 189.444 66.3235C189.317 66.3235 189.215 66.4259 189.215 66.5523C189.215 66.6787 189.317 66.7811 189.444 66.7811C189.57 66.7811 189.672 66.6787 189.672 66.5523Z" fill="#93949B"/>
<path d="M204 66.5522C204 66.6226 203.947 66.6754 203.877 66.6754C203.806 66.6754 203.754 66.6226 203.754 66.5522C203.754 66.4818 203.806 66.429 203.877 66.429C203.947 66.429 204 66.4818 204 66.5522Z" fill="#93949B"/>
<path d="M3.52028 50.3542C3.52028 49.3821 2.73224 48.5941 1.76014 48.5941C0.78804 48.5941 0 49.3821 0 50.3542C0 51.3263 0.78804 52.1144 1.76014 52.1144C2.73224 52.1144 3.52028 51.3263 3.52028 50.3542Z" fill="#93949B"/>
<path d="M17.8302 50.3542C17.8302 51.2695 17.091 51.9912 16.1933 51.9912C15.278 51.9912 14.5564 51.2519 14.5564 50.3542C14.5564 49.4565 15.2956 48.7173 16.1933 48.7173C17.091 48.7173 17.8302 49.4565 17.8302 50.3542Z" fill="#93949B"/>
<path d="M32.1578 50.3542C32.1578 49.5085 31.4722 48.8229 30.6265 48.8229C29.7807 48.8229 29.0951 49.5085 29.0951 50.3542C29.0951 51.1999 29.7807 51.8856 30.6265 51.8856C31.4722 51.8856 32.1578 51.1999 32.1578 50.3542Z" fill="#93949B"/>
<path d="M46.4677 50.3543C46.4677 49.5766 45.8373 48.9462 45.0596 48.9462C44.2819 48.9462 43.6515 49.5766 43.6515 50.3543C43.6515 51.1319 44.2819 51.7625 45.0596 51.7625C45.8373 51.7625 46.4677 51.1319 46.4677 50.3543Z" fill="#93949B"/>
<path d="M60.7952 50.3543C60.7952 51.076 60.2144 51.6393 59.5103 51.6393C58.7887 51.6393 58.2255 51.0584 58.2255 50.3543C58.2255 49.6503 58.8063 49.0694 59.5103 49.0694C60.2144 49.0694 60.7952 49.6503 60.7952 50.3543Z" fill="#93949B"/>
<path d="M75.1052 50.3542C75.1052 51.0055 74.5771 51.5336 73.9258 51.5336C73.2746 51.5336 72.7466 51.0055 72.7466 50.3542C72.7466 49.7029 73.2746 49.1749 73.9258 49.1749C74.5947 49.1925 75.1052 49.7029 75.1052 50.3542Z" fill="#93949B"/>
<path d="M89.4327 50.3543C89.4327 49.771 88.9599 49.2982 88.3766 49.2982C87.7934 49.2982 87.3206 49.771 87.3206 50.3543C87.3206 50.9375 87.7934 51.4104 88.3766 51.4104C88.9599 51.4104 89.4327 50.9375 89.4327 50.3543Z" fill="#93949B"/>
<path d="M103.76 50.3542C103.76 50.8646 103.338 51.2871 102.828 51.2871C102.317 51.2871 101.895 50.8646 101.895 50.3542C101.895 49.8437 102.317 49.4214 102.828 49.4214C103.338 49.4214 103.76 49.8437 103.76 50.3542Z" fill="#93949B"/>
<path d="M118.07 50.3543C118.07 50.812 117.701 51.1816 117.243 51.1816C116.785 51.1816 116.416 50.812 116.416 50.3543C116.416 49.8967 116.785 49.5271 117.243 49.5271C117.701 49.5447 118.07 49.9143 118.07 50.3543Z" fill="#93949B"/>
<path d="M132.397 50.3543C132.397 50.7415 132.081 51.0583 131.693 51.0583C131.306 51.0583 130.989 50.7415 130.989 50.3543C130.989 49.967 131.306 49.6503 131.693 49.6503C132.081 49.6503 132.397 49.967 132.397 50.3543Z" fill="#93949B"/>
<path d="M146.707 50.3542C146.707 50.671 146.443 50.9351 146.127 50.9351C145.81 50.9351 145.546 50.671 145.546 50.3542C145.546 50.0374 145.81 49.7734 146.127 49.7734C146.443 49.7734 146.707 50.0374 146.707 50.3542Z" fill="#93949B"/>
<path d="M161.035 50.3542C161.035 50.0917 160.822 49.879 160.56 49.879C160.297 49.879 160.084 50.0917 160.084 50.3542C160.084 50.6167 160.297 50.8295 160.56 50.8295C160.822 50.8295 161.035 50.6167 161.035 50.3542Z" fill="#93949B"/>
<path d="M175.362 50.3542C175.362 50.1598 175.205 50.0023 175.01 50.0023C174.816 50.0023 174.658 50.1598 174.658 50.3542C174.658 50.5487 174.816 50.7063 175.01 50.7063C175.205 50.7063 175.362 50.5487 175.362 50.3542Z" fill="#93949B"/>
<path d="M189.672 50.3543C189.672 50.2279 189.57 50.1256 189.444 50.1256C189.317 50.1256 189.215 50.2279 189.215 50.3543C189.215 50.4807 189.317 50.5831 189.444 50.5831C189.57 50.5831 189.672 50.4807 189.672 50.3543Z" fill="#93949B"/>
<path d="M204 50.3542C204 50.4246 203.947 50.4774 203.877 50.4774C203.806 50.4774 203.754 50.4246 203.754 50.3542C203.754 50.2838 203.806 50.2311 203.877 50.2311C203.947 50.2487 204 50.3014 204 50.3542Z" fill="#93949B"/>
<path d="M3.52028 34.1562C3.52028 33.1841 2.73224 32.3961 1.76014 32.3961C0.78804 32.3961 0 33.1841 0 34.1562C0 35.1283 0.78804 35.9164 1.76014 35.9164C2.73224 35.9164 3.52028 35.1283 3.52028 34.1562Z" fill="#93949B"/>
<path d="M17.8302 34.1562C17.8302 35.0714 17.091 35.7931 16.1933 35.7931C15.278 35.7931 14.5564 35.0538 14.5564 34.1562C14.5564 33.2409 15.2956 32.5193 16.1933 32.5193C17.091 32.5017 17.8302 33.2409 17.8302 34.1562Z" fill="#93949B"/>
<path d="M32.1578 34.1562C32.1578 35.0011 31.4713 35.6875 30.6265 35.6875C29.7816 35.6875 29.0951 35.0011 29.0951 34.1562C29.0951 33.3113 29.7816 32.6249 30.6265 32.6249C31.4713 32.6249 32.1578 33.3113 32.1578 34.1562Z" fill="#93949B"/>
<path d="M46.4677 34.1562C46.4677 34.9307 45.834 35.5643 45.0596 35.5643C44.2851 35.5643 43.6515 34.9307 43.6515 34.1562C43.6515 33.3818 44.2851 32.7482 45.0596 32.7482C45.834 32.7482 46.4677 33.3642 46.4677 34.1562Z" fill="#93949B"/>
<path d="M60.7952 34.1562C60.7952 34.8602 60.2144 35.441 59.5103 35.441C58.7887 35.441 58.2255 34.8602 58.2255 34.1562C58.2255 33.4345 58.8063 32.8713 59.5103 32.8713C60.2144 32.8537 60.7952 33.4345 60.7952 34.1562Z" fill="#93949B"/>
<path d="M75.1052 34.1562C75.1052 34.8074 74.5771 35.3354 73.9258 35.3354C73.2746 35.3354 72.7466 34.8074 72.7466 34.1562C72.7466 33.5049 73.2746 32.9769 73.9258 32.9769C74.5947 32.9769 75.1052 33.5049 75.1052 34.1562Z" fill="#93949B"/>
<path d="M89.4327 34.1563C89.4327 34.7371 88.9575 35.2124 88.3766 35.2124C87.7958 35.2124 87.3206 34.7371 87.3206 34.1563C87.3206 33.5754 87.7958 33.1002 88.3766 33.1002C88.9575 33.1002 89.4327 33.5578 89.4327 34.1563Z" fill="#93949B"/>
<path d="M103.76 34.1562C103.76 34.6666 103.338 35.0891 102.828 35.0891C102.317 35.0891 101.895 34.6666 101.895 34.1562C101.895 33.6457 102.317 33.2234 102.828 33.2234C103.338 33.2058 103.76 33.6281 103.76 34.1562Z" fill="#93949B"/>
<path d="M118.07 34.1563C118.07 34.614 117.701 34.9836 117.243 34.9836C116.785 34.9836 116.416 34.614 116.416 34.1563C116.416 33.6987 116.785 33.3291 117.243 33.3291C117.701 33.3291 118.07 33.6987 118.07 34.1563Z" fill="#93949B"/>
<path d="M132.397 34.1563C132.397 34.5435 132.081 34.8604 131.693 34.8604C131.306 34.8604 130.989 34.5435 130.989 34.1563C130.989 33.769 131.306 33.4523 131.693 33.4523C132.081 33.4523 132.397 33.7514 132.397 34.1563Z" fill="#93949B"/>
<path d="M146.707 34.1562C146.707 34.473 146.443 34.7371 146.127 34.7371C145.81 34.7371 145.546 34.473 145.546 34.1562C145.546 33.8394 145.81 33.5753 146.127 33.5753C146.443 33.5577 146.707 33.8218 146.707 34.1562Z" fill="#93949B"/>
<path d="M161.035 34.1563C161.035 34.4203 160.824 34.6316 160.56 34.6316C160.296 34.6316 160.084 34.4203 160.084 34.1563C160.084 33.8923 160.296 33.681 160.56 33.681C160.824 33.681 161.035 33.8923 161.035 34.1563Z" fill="#93949B"/>
<path d="M175.362 34.1563C175.362 34.3499 175.204 34.5083 175.01 34.5083C174.817 34.5083 174.658 34.3499 174.658 34.1563C174.658 33.9626 174.817 33.8042 175.01 33.8042C175.204 33.8042 175.362 33.9626 175.362 34.1563Z" fill="#93949B"/>
<path d="M189.672 34.1562C189.672 34.2794 189.567 34.385 189.444 34.385C189.32 34.385 189.215 34.2794 189.215 34.1562C189.215 34.033 189.32 33.9274 189.444 33.9274C189.567 33.9098 189.672 34.0154 189.672 34.1562Z" fill="#93949B"/>
<path d="M204 34.1562C204 34.2266 203.947 34.2794 203.877 34.2794C203.806 34.2794 203.754 34.2266 203.754 34.1562C203.754 34.0858 203.806 34.033 203.877 34.033C203.947 34.033 204 34.0858 204 34.1562Z" fill="#93949B"/>
<path d="M3.52028 17.9581C3.52028 16.986 2.73224 16.198 1.76014 16.198C0.78804 16.198 0 16.986 0 17.9581C0 18.9302 0.78804 19.7183 1.76014 19.7183C2.73224 19.7183 3.52028 18.9302 3.52028 17.9581Z" fill="#93949B"/>
<path d="M17.8302 17.9582C17.8302 18.8734 17.091 19.5951 16.1933 19.5951C15.278 19.5951 14.5564 18.8558 14.5564 17.9582C14.5564 17.0605 15.2956 16.3213 16.1933 16.3213C17.091 16.3037 17.8302 17.0429 17.8302 17.9582Z" fill="#93949B"/>
<path d="M32.1578 17.9582C32.1578 18.8031 31.4713 19.4895 30.6265 19.4895C29.7816 19.4895 29.0951 18.8031 29.0951 17.9582C29.0951 17.1133 29.7816 16.4269 30.6265 16.4269C31.4713 16.4269 32.1578 17.1133 32.1578 17.9582Z" fill="#93949B"/>
<path d="M46.4677 17.9581C46.4677 18.7326 45.834 19.3662 45.0596 19.3662C44.2851 19.3662 43.6515 18.7326 43.6515 17.9581C43.6515 17.1837 44.2851 16.55 45.0596 16.55C45.834 16.55 46.4677 17.1837 46.4677 17.9581Z" fill="#93949B"/>
<path d="M60.7952 17.9582C60.7952 18.6622 60.2144 19.243 59.5103 19.243C58.7887 19.243 58.2255 18.6622 58.2255 17.9582C58.2255 17.2365 58.8063 16.6733 59.5103 16.6733C60.2144 16.6557 60.7952 17.2365 60.7952 17.9582Z" fill="#93949B"/>
<path d="M75.1052 17.9582C75.1052 18.6094 74.5771 19.1375 73.9258 19.1375C73.2746 19.1375 72.7466 18.6094 72.7466 17.9582C72.7466 17.3069 73.2746 16.7789 73.9258 16.7789C74.5947 16.7789 75.1052 17.3069 75.1052 17.9582Z" fill="#93949B"/>
<path d="M89.4327 17.9581C89.4327 18.539 88.9575 19.0142 88.3766 19.0142C87.7958 19.0142 87.3206 18.539 87.3206 17.9581C87.3206 17.3773 87.7958 16.9021 88.3766 16.9021C88.9575 16.9021 89.4327 17.3773 89.4327 17.9581Z" fill="#93949B"/>
<path d="M103.76 17.9582C103.76 18.4686 103.338 18.8911 102.828 18.8911C102.317 18.8911 101.895 18.4686 101.895 17.9582C101.895 17.4477 102.317 17.0253 102.828 17.0253C103.338 17.0077 103.76 17.4301 103.76 17.9582Z" fill="#93949B"/>
<path d="M118.07 17.9582C118.07 18.4158 117.701 18.7854 117.243 18.7854C116.785 18.7854 116.416 18.4158 116.416 17.9582C116.416 17.5006 116.785 17.131 117.243 17.131C117.701 17.131 118.07 17.5006 118.07 17.9582Z" fill="#93949B"/>
<path d="M132.397 17.9581C132.397 18.3454 132.081 18.6622 131.693 18.6622C131.306 18.6622 130.989 18.3454 130.989 17.9581C130.989 17.5709 131.306 17.254 131.693 17.254C132.081 17.254 132.397 17.5709 132.397 17.9581Z" fill="#93949B"/>
<path d="M146.707 17.9582C146.707 18.275 146.443 18.5391 146.127 18.5391C145.81 18.5391 145.546 18.275 145.546 17.9582C145.546 17.6414 145.81 17.3773 146.127 17.3773C146.443 17.3597 146.707 17.6238 146.707 17.9582Z" fill="#93949B"/>
<path d="M161.035 17.9582C161.035 18.2222 160.824 18.4335 160.56 18.4335C160.296 18.4335 160.084 18.2222 160.084 17.9582C160.084 17.6942 160.296 17.4829 160.56 17.4829C160.824 17.4829 161.035 17.6942 161.035 17.9582Z" fill="#93949B"/>
<path d="M175.362 17.9581C175.362 18.1517 175.204 18.3102 175.01 18.3102C174.817 18.3102 174.658 18.1517 174.658 17.9581C174.658 17.7645 174.817 17.6061 175.01 17.6061C175.204 17.6061 175.362 17.7645 175.362 17.9581Z" fill="#93949B"/>
<path d="M189.672 17.9582C189.672 18.0814 189.567 18.187 189.444 18.187C189.32 18.187 189.215 18.0814 189.215 17.9582C189.215 17.835 189.32 17.7294 189.444 17.7294C189.567 17.7118 189.672 17.8174 189.672 17.9582Z" fill="#93949B"/>
<path d="M204 17.9582C204 18.0286 203.947 18.0814 203.877 18.0814C203.806 18.0814 203.754 18.0286 203.754 17.9582C203.754 17.8878 203.806 17.835 203.877 17.835C203.947 17.835 204 17.8878 204 17.9582Z" fill="#93949B"/>
<path d="M3.52028 1.76013C3.52028 0.788028 2.73224 -1.19209e-05 1.76014 -1.19209e-05C0.78804 -1.19209e-05 0 0.788028 0 1.76013C0 2.73222 0.78804 3.52026 1.76014 3.52026C2.73224 3.52026 3.52028 2.73222 3.52028 1.76013Z" fill="#93949B"/>
<path d="M17.8302 1.76006C17.8302 2.67533 17.091 3.39697 16.1933 3.39697C15.278 3.39697 14.5564 2.65773 14.5564 1.76006C14.5564 0.844786 15.2956 0.123142 16.1933 0.123142C17.091 0.123142 17.8302 0.844786 17.8302 1.76006Z" fill="#93949B"/>
<path d="M32.1578 1.76019C32.1578 2.60506 31.4713 3.2915 30.6265 3.2915C29.7816 3.2915 29.0951 2.60506 29.0951 1.76019C29.0951 0.915327 29.7816 0.228882 30.6265 0.228882C31.4713 0.228882 32.1578 0.915327 32.1578 1.76019Z" fill="#93949B"/>
<path d="M46.4677 1.76012C46.4677 0.982446 45.8373 0.352035 45.0596 0.352035C44.2819 0.352035 43.6515 0.982446 43.6515 1.76012C43.6515 2.5378 44.2819 3.16821 45.0596 3.16821C45.8373 3.16821 46.4677 2.5378 46.4677 1.76012Z" fill="#93949B"/>
<path d="M60.7952 1.76006C60.7952 2.48171 60.2144 3.04492 59.5103 3.04492C58.7887 3.04492 58.2255 2.46411 58.2255 1.76006C58.2255 1.056 58.8063 0.47519 59.5103 0.47519C60.2144 0.47519 60.7952 1.056 60.7952 1.76006Z" fill="#93949B"/>
<path d="M75.1052 1.76019C75.1052 2.41144 74.5771 2.93945 73.9258 2.93945C73.2746 2.93945 72.7466 2.41144 72.7466 1.76019C72.7466 1.10894 73.2746 0.580929 73.9258 0.580929C74.5947 0.580929 75.1052 1.10894 75.1052 1.76019Z" fill="#93949B"/>
<path d="M89.4327 1.76012C89.4327 2.34097 88.9575 2.81616 88.3766 2.81616C87.7958 2.81616 87.3206 2.34097 87.3206 1.76012C87.3206 1.17928 87.7958 0.703975 88.3766 0.703975C88.9575 0.703975 89.4327 1.17928 89.4327 1.76012Z" fill="#93949B"/>
<path d="M103.76 1.76005C103.76 2.27049 103.338 2.69287 102.828 2.69287C102.317 2.69287 101.895 2.27049 101.895 1.76005C101.895 1.24961 102.317 0.827129 102.828 0.827129C103.338 0.827129 103.76 1.24961 103.76 1.76005Z" fill="#93949B"/>
<path d="M118.07 1.76019C118.07 2.21782 117.701 2.5874 117.243 2.5874C116.785 2.5874 116.416 2.21782 116.416 1.76019C116.416 1.30255 116.785 0.932868 117.243 0.932868C117.701 0.932868 118.07 1.30255 118.07 1.76019Z" fill="#93949B"/>
<path d="M132.397 1.76012C132.397 2.14735 132.081 2.46411 131.693 2.46411C131.306 2.46411 130.989 2.14735 130.989 1.76012C130.989 1.37289 131.306 1.05602 131.693 1.05602C132.081 1.05602 132.397 1.37289 132.397 1.76012Z" fill="#93949B"/>
<path d="M146.707 1.76019C146.707 2.07701 146.443 2.34106 146.127 2.34106C145.81 2.34106 145.546 2.07701 145.546 1.76019C145.546 1.44336 145.81 1.17931 146.127 1.17931C146.443 1.17931 146.707 1.44336 146.707 1.76019Z" fill="#93949B"/>
<path d="M161.035 1.76008C161.035 2.0241 160.824 2.23535 160.56 2.23535C160.296 2.23535 160.084 2.0241 160.084 1.76008C160.084 1.49606 160.296 1.28481 160.56 1.28481C160.824 1.28481 161.035 1.49606 161.035 1.76008Z" fill="#93949B"/>
<path d="M175.362 1.76001C175.362 1.56559 175.205 1.40796 175.01 1.40796C174.816 1.40796 174.658 1.56559 174.658 1.76001C174.658 1.95443 174.816 2.11206 175.01 2.11206C175.205 2.11206 175.362 1.95443 175.362 1.76001Z" fill="#93949B"/>
<path d="M189.672 1.76019C189.672 1.8834 189.567 1.98901 189.444 1.98901C189.32 1.98901 189.215 1.8834 189.215 1.76019C189.215 1.63698 189.32 1.53136 189.444 1.53136C189.567 1.53136 189.672 1.63698 189.672 1.76019Z" fill="#93949B"/>
<path d="M204 1.76008C204 1.83048 203.947 1.8833 203.877 1.8833C203.806 1.8833 203.754 1.83048 203.754 1.76008C203.754 1.68967 203.806 1.63686 203.877 1.63686C203.947 1.63686 204 1.68967 204 1.76008Z" fill="#93949B"/>
</svg>
