<svg width="15" height="15" viewBox="0 0 15 15" fill="none" xmlns="http://www.w3.org/2000/svg">
<path d="M8.91305 10.2767C8.91305 10.2767 10.0097 9.64887 10.2967 9.49801C10.583 9.34661 10.8796 9.30842 11.0597 9.41838C11.3324 9.58522 13.6226 11.1087 13.8154 11.2436C14.0082 11.3787 14.1011 11.7646 13.836 12.1427C13.5719 12.5208 12.3537 14.0159 11.8375 13.9999C11.3205 13.9831 9.17088 13.936 5.11733 9.88124C1.06459 5.82789 1.01666 3.67771 1.00014 3.16068C0.983615 2.64392 2.47861 1.42542 2.85669 1.16108C3.23532 0.897017 3.62179 0.996415 3.75613 1.18221C3.90888 1.39373 5.41471 3.67662 5.58046 3.93825C5.69393 4.11701 5.65223 4.4152 5.50083 4.70174C5.35025 4.98883 4.72246 6.08545 4.72246 6.08545C4.72246 6.08545 5.165 6.84028 6.66162 8.33666C8.15851 9.83331 8.91305 10.2767 8.91305 10.2767Z" stroke="#3962D1" stroke-miterlimit="10"/>
</svg>
