<svg width="13" height="10" viewBox="0 0 13 10" fill="none" xmlns="http://www.w3.org/2000/svg">
<path d="M12.184 1.28526L11.6956 0.796875L7.17155 5.32088C6.60605 5.88639 5.65498 5.88639 5.08948 5.32088L0.565475 0.822581L0.0770874 1.31097L3.44439 4.67827L0.0770874 8.04557L0.565475 8.53396L3.93278 5.16666L4.6011 5.83498C5.01237 6.24625 5.55217 6.47759 6.11767 6.47759C6.68317 6.47759 7.22296 6.24625 7.63424 5.83498L8.30256 5.16666L11.6699 8.53396L12.1582 8.04557L8.79094 4.67827L12.184 1.28526Z" fill="#3962D1"/>
<path d="M11.2329 9.40788H1.07959C0.488388 9.40788 0 8.91949 0 8.32829V1.07959C0 0.488386 0.488388 0 1.07959 0H11.2329C11.8241 0 12.3125 0.488386 12.3125 1.07959V8.32829C12.3125 8.91949 11.8241 9.40788 11.2329 9.40788ZM1.05389 0.694023C0.848251 0.694023 0.694025 0.848249 0.694025 1.05389V8.30258C0.694025 8.50822 0.848251 8.66245 1.05389 8.66245H11.2072C11.4128 8.66245 11.5671 8.50822 11.5671 8.30258V1.05389C11.5671 0.848249 11.4128 0.694023 11.2072 0.694023H1.05389Z" fill="#3962D1"/>
</svg>
