<svg width="60" height="53" viewBox="0 0 60 53" fill="none" xmlns="http://www.w3.org/2000/svg">
<path d="M57.4015 15.05H57.8814C57.8494 16.1059 57.6894 18.3136 57.3055 18.6975C56.9215 19.0815 58.1694 19.6894 58.8413 19.9454C59.1293 20.0414 59.6285 20.3677 59.3214 20.9053C59.0142 21.4428 58.2334 22.2811 57.8814 22.6331V23.401L59.8973 25.3207C59.9933 25.4167 60.1085 25.6663 59.8013 25.8967C59.4941 26.127 58.3934 27.0805 57.8814 27.5285V28.2004L59.3214 30.1202C59.4493 30.2161 59.5901 30.4657 59.1294 30.6961C58.6686 30.9265 57.7216 31.624 57.3056 31.9439L57.2096 32.5199L58.3615 34.5356C58.4575 34.7276 58.5918 35.1691 58.3615 35.3995C58.1311 35.6299 56.5377 35.9435 55.7698 36.0714C55.5458 36.1994 55.2515 36.8777 55.8658 38.5671L54.6179 39.1431C54.106 39.1751 53.0437 39.3158 52.8901 39.623C52.7366 39.9302 52.6982 40.3909 52.6982 40.5829L51.7383 40.007L55.7698 26.1846L54.7139 19.3695L55.5778 15.5299L57.4015 15.05Z" fill="#C6A636"/>
<path fill-rule="evenodd" clip-rule="evenodd" d="M32.9904 0.960085C32.4521 1.47669 31.9434 1.89962 31.8599 1.89962C31.7767 1.89962 31.4326 1.67597 31.0955 1.40259C30.7584 1.12922 30.4825 0.956438 30.4825 1.01864C30.4825 1.08084 30.3032 0.958934 30.084 0.747759C29.8648 0.536585 29.5724 0.363806 29.4339 0.363806C29.1881 0.363806 28.5184 1.08602 28.4997 1.37168C28.4943 1.45097 28.3076 1.69152 28.0845 1.90653C27.8612 2.12174 27.7406 2.39415 27.8163 2.51222C27.896 2.63662 27.8644 2.67348 27.741 2.59995C27.6239 2.53026 27.4978 2.56079 27.4607 2.66791C27.4219 2.78002 26.7347 2.618 25.8372 2.28511C24.9813 1.96758 24.2174 1.70764 24.1399 1.70764C23.9797 1.70764 23.3033 3.88274 23.2593 4.5393C23.2223 5.09277 22.878 5.08778 21.4104 4.51242C20.7667 4.25997 20.135 4.09257 20.0063 4.13999C19.8778 4.1876 19.6046 4.91576 19.3996 5.75835L19.0266 7.29033L17.8312 7.16612C17.1738 7.09777 16.4117 7.02962 16.1378 7.01445L15.6397 6.987V8.79734V10.6075L14.2451 10.6676C12.3749 10.748 12.2904 10.7895 12.4625 11.5445C12.5404 11.8866 12.6333 12.4543 12.6686 12.806C12.704 13.1575 12.7899 13.6183 12.8596 13.8298C12.9983 14.251 12.4472 14.7851 12.0322 14.6317C11.9017 14.5833 11.7381 14.6325 11.6688 14.7406C11.5995 14.8488 11.4202 14.892 11.2703 14.8365C11.1205 14.7813 10.9412 14.8244 10.8719 14.9325C10.8025 15.0408 10.6149 15.0809 10.4549 15.0218C9.89584 14.815 9.94705 15.4833 10.5908 16.7972C10.9476 17.5256 11.3132 18.1714 11.403 18.2322C11.4929 18.2931 11.2062 18.5091 10.7663 18.7122C10.3262 18.9153 9.96518 19.1464 9.96378 19.2255C9.96259 19.3046 9.82711 19.3695 9.66274 19.3695C9.49838 19.3695 9.36389 19.4353 9.36389 19.516C9.36389 19.5964 9.16227 19.7477 8.91562 19.8519C8.1954 20.1564 8.36236 20.6076 9.71673 22.0172L10.3686 22.6955L9.91597 23.1916C9.66712 23.4646 9.39537 23.717 9.31209 23.7529C9.0515 23.8654 7.96927 24.9591 7.96927 25.1104C7.96927 25.1895 8.48349 25.7458 9.11187 26.3465C10.1015 27.2926 10.2212 27.4832 10.007 27.7715C9.87114 27.9547 9.6982 28.234 9.6229 28.3924C9.54739 28.5508 9.36868 28.7946 9.22563 28.934C9.08258 29.0735 8.96543 29.3112 8.96543 29.4619C8.96543 29.6128 8.87578 29.7362 8.7662 29.7362C8.20476 29.7362 9.12163 30.866 9.69601 30.8818C9.82372 30.8852 9.9582 30.9551 9.99486 31.0369C10.0313 31.1187 10.3469 31.3573 10.6962 31.5671L11.3313 31.9484L10.7368 33.1419C10.2592 34.1008 10.1847 34.4118 10.3579 34.7236C10.4764 34.9369 10.6695 35.1116 10.787 35.1116C10.9048 35.1116 11.4261 35.2995 11.9461 35.5293L12.8913 35.9473L12.541 37.4608L12.191 38.9745L12.72 39.1782C13.0108 39.2903 13.4731 39.4061 13.747 39.4355C14.0209 39.4648 14.2451 39.5042 14.2451 39.5226C14.2451 39.5691 14.9842 39.7369 15.3006 39.7622C15.4919 39.7776 15.5496 40.1683 15.5221 41.2623C15.5018 42.0761 15.5528 42.8471 15.6353 42.9757C15.7403 43.1393 16.2635 43.1861 17.375 43.1314C19.2032 43.0412 19.2657 43.097 19.351 44.8949C19.4064 46.0656 19.7883 46.7091 20.2836 46.4666C20.4689 46.3758 21.0688 46.1988 21.6166 46.0733C22.1645 45.9477 22.772 45.7991 22.9664 45.7431C23.1609 45.6872 23.2966 45.7127 23.2677 45.7999C23.239 45.887 23.3221 46.2174 23.4526 46.5342C23.5833 46.851 23.7895 47.4853 23.9112 47.9437C24.1168 48.7191 24.1698 48.7688 24.6675 48.6532C24.9619 48.5849 25.315 48.3875 25.4519 48.2148C25.5889 48.042 25.7009 47.9621 25.7009 48.0372C25.7009 48.1122 26.049 48.0028 26.4741 47.7938C27.2161 47.429 27.2605 47.4275 27.5699 47.7569C27.7474 47.9458 27.8924 48.2015 27.8924 48.3251C27.8924 48.4488 27.9656 48.55 28.0548 48.55C28.1441 48.55 28.3668 48.8523 28.5497 49.2219C28.9085 49.9472 29.2863 50.0694 29.6965 49.5932C29.8389 49.4279 30.2225 49.1595 30.5488 48.9969C30.8751 48.8343 31.3298 48.5329 31.5589 48.3271C31.9725 47.9558 31.9781 47.9562 32.3399 48.387C33.4871 49.7521 33.9672 50.2777 34.067 50.2777C34.2707 50.2777 35.5639 49.0581 35.517 48.9103C35.4919 48.8306 35.6487 48.711 35.8657 48.6448C36.0827 48.5784 36.2602 48.4436 36.2602 48.3451C36.2602 48.0416 36.6306 48.1437 37.5094 48.6889C39.16 49.7133 39.8464 49.9504 39.8464 49.4962C39.8464 49.3829 39.9585 49.17 40.0954 49.0228C40.6365 48.4415 40.8425 48.1771 40.8425 48.0644C40.8425 47.9996 40.9736 47.8204 41.1336 47.6661C41.3681 47.4401 41.5133 47.43 41.8807 47.6137C42.8181 48.0829 43.0363 48.166 43.3301 48.166C43.4961 48.166 43.6318 48.2555 43.6318 48.3647C43.6318 48.4975 43.7523 48.5014 43.9954 48.376C44.1954 48.2727 44.6116 47.6156 44.9204 46.9155C45.4039 45.8193 45.5408 45.6567 45.9052 45.7448C47.3442 46.0928 48.4653 46.2681 48.6996 46.1815C48.8482 46.1264 49.0409 45.6221 49.1278 45.06C49.2146 44.4983 49.3025 43.9736 49.3228 43.8945C49.3431 43.8154 49.3708 43.6319 49.3846 43.4869C49.4013 43.3103 49.7221 43.2095 50.3558 43.1817C50.8764 43.1587 51.616 43.1255 51.9995 43.1078L52.6968 43.0757L52.6864 41.5002C52.6763 39.9636 52.6884 39.9221 53.1845 39.8187C53.4642 39.7603 53.9171 39.6658 54.191 39.6086C54.465 39.5514 54.8236 39.4731 54.988 39.4345C55.1523 39.3959 55.434 39.3579 55.6142 39.3499C56.0084 39.332 56.2722 38.768 56.0062 38.5117C55.9016 38.4109 55.86 38.2182 55.9136 38.0832C55.9674 37.9484 55.9194 37.7833 55.8072 37.7165C55.6948 37.6497 55.65 37.4769 55.7076 37.3326C55.765 37.1882 55.7247 37.0181 55.6179 36.9546C55.5112 36.891 55.4655 36.685 55.5167 36.4971C55.6106 36.1511 56.2431 35.811 57.2106 35.586C57.998 35.403 58.2599 34.0513 57.6662 33.2346C57.4957 32.9998 57.417 32.8079 57.4915 32.8079C57.5658 32.8079 57.5071 32.6689 57.3608 32.4992C57.1347 32.2365 57.1532 32.1494 57.4859 31.9152C57.8597 31.6518 57.8784 31.3536 57.9149 25.0727C57.936 21.4609 57.9077 18.6087 57.8523 18.7348C57.7967 18.8608 57.6302 18.9191 57.4819 18.8642C57.2576 18.7813 57.2612 18.6521 57.5037 18.0929C57.6638 17.7233 57.8481 16.8719 57.9133 16.2007C58.0219 15.0802 58.0008 14.9846 57.6553 15.0339C57.4485 15.0637 57.1446 15.0216 56.9803 14.941C56.8159 14.8602 56.391 14.6904 56.0359 14.5636C55.3167 14.3069 55.3121 14.0558 55.9991 12.5726C56.1901 12.1602 56.3021 11.7115 56.2479 11.5754C56.1935 11.4393 55.4173 11.1686 54.5226 10.974L52.896 10.6202L52.9446 8.84514C52.9839 7.41626 52.9353 7.04863 52.6954 6.95993C52.5316 6.89927 51.7604 7.00025 50.9816 7.18416C49.4975 7.53452 49.2491 7.46714 49.1967 6.69904C49.168 6.27976 49.0212 5.12809 48.9393 4.68328C48.8664 4.28589 48.3416 4.22215 47.2179 4.47403C45.9678 4.7545 45.4236 4.80941 45.4095 4.6566C45.3641 4.16264 44.6735 2.26034 44.4645 2.05339C44.39 1.97948 44.0601 2.0388 43.7314 2.18509C42.9876 2.51625 41.2049 3.08335 41.1388 3.00982C41.1117 2.98006 40.8533 2.50204 40.5642 1.94761C40.2753 1.39318 39.9507 0.939736 39.843 0.939736C39.7352 0.939736 39.6471 0.810152 39.6471 0.651771C39.6471 0.49339 39.5798 0.365342 39.4977 0.367261C39.2973 0.372061 37.7745 1.37284 37.3597 1.77253C36.8497 2.26399 36.6178 2.17299 35.481 1.03572C34.9006 0.454995 34.3228 -0.0111245 34.1973 0.000202139C34.0718 0.0113368 33.5285 0.443284 32.9904 0.960085ZM24.107 15.2305C24.107 15.4111 24.3654 15.5275 24.8542 15.5664L25.6013 15.626L25.6565 18.4576C25.7083 21.1173 25.7352 21.2893 26.0994 21.2893C26.4636 21.2893 26.4905 21.1173 26.5423 18.4576L26.5974 15.626L27.3446 15.5664C27.8333 15.5275 28.0917 15.4111 28.0917 15.2305C28.0917 15.0084 27.7004 14.954 26.0994 14.954C24.4983 14.954 24.107 15.0084 24.107 15.2305ZM30.818 15.2322C29.877 15.5555 29.4064 15.9558 29.0024 16.7763C28.2796 18.2439 28.792 19.8946 30.2677 20.8527C31.1836 21.4475 33.191 21.4676 34.2408 20.8923C35.3425 20.2887 35.738 19.645 35.8229 18.3182C35.8846 17.3509 35.8203 17.052 35.4294 16.4898C34.5143 15.1744 32.5471 14.6378 30.818 15.2322ZM37.0571 18.1216V21.2893H37.5552H38.0533V18.4016V15.5138L39.5973 15.5699L41.1414 15.626L41.1965 18.4576C41.2485 21.1305 41.2736 21.2893 41.6448 21.2893C42.0202 21.2893 42.0379 21.147 42.0379 18.1216V14.954H39.5475H37.0571V18.1216ZM3.66166e-07 15.7333C3.66166e-07 15.9506 0.0896545 16.0752 0.199232 16.0099C0.457835 15.8559 0.457835 15.338 0.199232 15.338C0.0896545 15.338 3.66166e-07 15.5159 3.66166e-07 15.7333ZM31.1039 15.9398C29.0444 16.9381 29.1064 19.4501 31.2164 20.4974C32.1719 20.9715 33.2847 20.7183 34.3153 19.7924C35.7856 18.471 34.8096 15.9992 32.674 15.6356C32.1664 15.5492 31.7392 15.6319 31.1039 15.9398ZM14.9424 28.1044C14.9424 30.3625 14.9655 30.5041 15.3341 30.5041C15.6959 30.5041 15.7301 30.3458 15.7823 28.4404L15.8389 26.3766H17.0343H18.2297L18.2863 28.4404C18.3385 30.3458 18.3728 30.5041 18.7346 30.5041C19.1031 30.5041 19.1262 30.3625 19.1262 28.1044V25.7047H17.0343H14.9424V28.1044ZM21.9653 25.991C21.6093 26.1401 21.3178 26.1799 21.3178 26.0795C21.3178 25.9789 21.1385 25.8967 20.9193 25.8967C20.5374 25.8967 20.5209 26.0248 20.5209 28.9683C20.5209 31.9119 20.5374 32.04 20.9193 32.04C21.2658 32.04 21.3178 31.9119 21.3178 31.0595C21.3178 30.196 21.3594 30.0972 21.6665 30.231C21.8583 30.3145 22.4753 30.4176 23.038 30.46C24.2714 30.5529 25.1628 30.1695 25.5979 29.3586C26.7676 27.1789 24.3906 24.9752 21.9653 25.991ZM28.5674 25.8368C27.8269 25.9771 27.0593 26.9407 26.9509 27.866C26.762 29.4813 27.7837 30.5041 29.5859 30.5041C30.7745 30.5041 31.5446 30.1066 31.9498 29.2838C32.9994 27.1526 31.2156 25.335 28.5674 25.8368ZM34.4671 27.7474C33.974 28.8675 33.4586 29.8259 33.3215 29.8768C33.1747 29.9313 33.0725 30.3152 33.0725 30.8127C33.0725 31.528 33.133 31.656 33.4709 31.656C33.7809 31.656 33.8694 31.528 33.8694 31.0801V30.5041H35.8617H37.854V31.0801C37.854 31.5664 37.9315 31.656 38.3521 31.656C38.8076 31.656 38.8502 31.5842 38.8502 30.8146C38.8502 30.1755 38.7663 29.9513 38.5015 29.8827C38.2812 29.8257 37.8232 29.0413 37.2563 27.7497C36.4564 25.9268 36.3062 25.7068 35.8617 25.7086C35.4186 25.7103 35.2648 25.9351 34.4671 27.7474ZM41.119 25.8368C40.8875 25.8806 40.4514 26.1647 40.1498 26.4678C39.0652 27.5588 39.3254 29.5594 40.6367 30.2129C41.3988 30.5926 43.0199 30.5884 43.5873 30.2052C43.9882 29.9347 44.0302 29.9347 44.0302 30.2052C44.0302 30.3761 44.201 30.5041 44.4287 30.5041C44.805 30.5041 44.8271 30.3761 44.8271 28.2004C44.8271 26.0248 44.805 25.8967 44.4287 25.8967C44.2095 25.8967 44.0302 25.9779 44.0302 26.0774C44.0302 26.1766 43.7836 26.134 43.4823 25.9825C42.9607 25.7203 42.0349 25.6633 41.119 25.8368ZM45.9626 25.9447C46.066 26.0768 46.4929 26.5972 46.9115 27.1014L47.6726 28.018L46.7479 29.1653C46.2393 29.7963 45.8233 30.3557 45.8233 30.4083C45.8233 30.4611 46.0478 30.5041 46.3224 30.5041C46.692 30.5041 47.041 30.2302 47.6672 29.4489L48.5129 28.3936L48.5727 29.4489C48.6277 30.4189 48.6711 30.5041 49.1106 30.5041C49.5531 30.5041 49.5934 30.4216 49.6486 29.4003L49.7083 28.2964L50.579 29.4003C51.295 30.3081 51.5548 30.5041 52.0415 30.5041H52.6336L51.6437 29.2903L50.6537 28.0766L51.5259 26.9532C52.0055 26.3354 52.398 25.8017 52.398 25.7673C52.398 25.7329 52.1826 25.7047 51.9194 25.7047C51.5646 25.7047 51.2044 26.0115 50.5248 26.8927L49.6087 28.0804V26.8927C49.6087 25.76 49.586 25.7047 49.1206 25.7047C48.6675 25.7047 48.6281 25.7823 48.5727 26.7827L48.5129 27.8606L47.716 26.7869C47.0685 25.9144 46.8117 25.7122 46.3469 25.709C45.9211 25.7059 45.8227 25.7662 45.9626 25.9447ZM22.6128 26.4621C21.3397 26.9643 20.9867 28.6445 21.9808 29.4686C22.2871 29.7224 22.7913 29.9282 23.1067 29.9282C23.8048 29.9282 24.8229 29.1426 24.9492 28.5066C25.0865 27.8138 24.6155 26.9213 23.9327 26.5811C23.2603 26.2461 23.1794 26.2388 22.6128 26.4621ZM28.9882 26.4621C27.6336 26.9963 27.4021 28.8727 28.5977 29.6276C29.2867 30.0626 29.9672 29.9981 30.6663 29.4312C31.6697 28.6178 31.477 27.1634 30.2872 26.5705C29.6367 26.2465 29.5528 26.2394 28.9882 26.4621ZM41.3169 26.6473C40.1285 27.3456 40.0522 28.6844 41.1533 29.5191C41.8634 30.0572 42.6547 30.0373 43.2958 29.4646C44.2958 28.5715 44.1625 27.3548 42.9892 26.6654C42.1857 26.1935 42.0909 26.1923 41.3169 26.6473ZM35.1377 28.3465L34.5133 29.8322L35.1875 29.8917C35.5583 29.9246 36.1675 29.9246 36.5415 29.8917L37.2211 29.8322L36.5913 28.3444C36.2448 27.5262 35.9165 26.8575 35.8617 26.8587C35.8069 26.8599 35.4812 27.5295 35.1377 28.3465ZM0.0314786 34.7276C0.0314786 34.9916 0.0767045 35.0997 0.131892 34.9676C0.187278 34.8357 0.187278 34.6197 0.131892 34.4877C0.0767045 34.3558 0.0314786 34.4637 0.0314786 34.7276ZM0.151815 52.7172C0.399659 52.7631 0.758276 52.7613 0.948742 52.7134C1.13921 52.6654 0.93639 52.6277 0.49808 52.6298C0.0597699 52.632 -0.0960294 52.6713 0.151815 52.7172Z" fill="#C6A636"/>
</svg>
