<svg width="75" height="75" viewBox="0 0 75 75" fill="none" xmlns="http://www.w3.org/2000/svg">
<path d="M44.5024 35.7582C44.9767 35.7582 45.4316 35.5801 45.767 35.263C46.1024 34.9459 46.2908 34.5159 46.2908 34.0674C46.2908 32.3955 46.7346 29.5897 49.7013 29.5897C52.6679 29.5897 53.1129 32.3952 53.1129 34.0674C53.1129 34.5159 53.3013 34.9459 53.6367 35.263C53.9721 35.5801 54.4271 35.7582 54.9014 35.7582H63.4983C63.9726 35.7582 64.4275 35.5801 64.7629 35.263C65.0984 34.9459 65.2868 34.5159 65.2868 34.0674V9.78587C65.286 8.85935 64.8963 7.97099 64.2033 7.31585C63.5103 6.6607 62.5706 6.2923 61.5906 6.29154H56.5835C56.0427 2.42048 53.4616 0 49.7007 0C45.9399 0 43.36 2.42048 42.8192 6.29154H10.2206C9.24055 6.29234 8.3009 6.66074 7.60791 7.31588C6.91492 7.97102 6.52523 8.85936 6.52439 9.78587V40.6211C2.506 41.1678 0 43.5944 0 47.1108C0 50.6271 2.506 53.0525 6.52439 53.5993V58.3497C6.52523 59.2762 6.91492 60.1646 7.60791 60.8197C8.3009 61.4749 9.24055 61.8433 10.2206 61.8441H33.9959C34.9759 61.8433 35.9156 61.4749 36.6086 60.8197C37.3015 60.1646 37.6912 59.2762 37.6921 58.3497V35.7582H44.5024ZM43.1843 9.67214C43.3144 9.67211 43.444 9.65901 43.5712 9.63307C43.6734 9.62443 43.8131 9.61591 43.9542 9.60739C44.5932 9.56694 46.2906 9.46186 46.2906 7.8571C46.2906 6.18508 46.7344 3.3806 49.701 3.3806C52.6676 3.3806 53.1124 6.18508 53.1124 7.8571C53.1124 9.46023 54.8097 9.56694 55.4488 9.60739C55.5886 9.61591 55.727 9.62442 55.8291 9.63181C55.957 9.65891 56.0876 9.67244 56.2186 9.67214H61.589C61.6048 9.67201 61.6205 9.67486 61.6352 9.68053C61.6499 9.6862 61.6632 9.69457 61.6744 9.70515C61.6856 9.71574 61.6944 9.72833 61.7004 9.74219C61.7064 9.75605 61.7094 9.77089 61.7093 9.78587V32.3776H56.5648C55.9865 28.5787 53.4197 26.2096 49.7002 26.2096C45.9807 26.2096 43.4151 28.5787 42.8368 32.3776H37.6921V25.3583C37.6925 24.9166 37.5099 24.4923 37.1835 24.1762C36.857 23.8602 36.4127 23.6776 35.9456 23.6675C33.8354 23.621 31.3203 23.0254 31.3203 20.4496C31.3203 17.8738 33.8354 17.2781 35.9456 17.2317C36.4127 17.2215 36.857 17.0389 37.1834 16.7229C37.5099 16.4068 37.6924 15.9826 37.6921 15.5409V9.67214H43.1843ZM34.1162 58.35C34.116 58.3801 34.1033 58.409 34.0808 58.4303C34.0583 58.4516 34.0278 58.4637 33.9959 58.4638H10.2206C10.1887 58.4637 10.1582 58.4516 10.1357 58.4303C10.1131 58.409 10.1004 58.3801 10.1003 58.35V52.0251C10.1003 51.5767 9.91186 51.1466 9.57646 50.8295C9.24105 50.5125 8.78614 50.3343 8.31181 50.3343C6.5432 50.3343 3.57538 49.9149 3.57538 47.1103C3.57538 44.3057 6.54293 43.885 8.31181 43.885C8.54668 43.885 8.77924 43.8412 8.99623 43.7563C9.21322 43.6713 9.41038 43.5468 9.57646 43.3897C9.74253 43.2327 9.87427 43.0463 9.96415 42.8412C10.054 42.6361 10.1003 42.4162 10.1003 42.1942V35.7566H15.2442C15.8225 39.5556 18.3893 41.9235 22.1088 41.9235C25.8283 41.9235 28.394 39.5556 28.9722 35.7566H34.1162V58.35Z" fill="#3962D1"/>
<path d="M74.9739 64.8654C74.9725 64.418 74.7834 63.9894 74.4481 63.6736C74.1128 63.3579 73.6587 63.1808 73.1854 63.1813H73.1776C71.8584 63.2267 70.5537 62.9091 69.4218 62.267C69.0016 61.9777 68.6649 61.5934 68.4427 61.1492C68.2205 60.705 68.1198 60.2151 68.15 59.7245V59.7233C68.1345 56.6974 71.2654 56.2302 73.1336 56.2216C73.3682 56.2207 73.6004 56.1761 73.8168 56.0903C74.0332 56.0045 74.2296 55.8793 74.3948 55.7218C74.56 55.5642 74.6907 55.3775 74.7795 55.1721C74.8684 54.9668 74.9135 54.7469 74.9124 54.5251L74.8814 47.1059C74.8795 46.6586 74.6903 46.2302 74.3551 45.9146C74.0199 45.5989 73.566 45.4217 73.0929 45.4217H73.0864L66.1532 45.4474C65.9784 44.1353 65.4704 42.8827 64.6723 41.7966C64.0605 40.9984 63.2504 40.3546 62.3135 39.9219C61.3766 39.4892 60.3416 39.2808 59.2995 39.315H59.2597C58.2096 39.284 57.1676 39.4992 56.2269 39.9417C55.2862 40.3841 54.476 41.0399 53.8687 41.8505C53.0824 42.9447 52.587 44.2022 52.4247 45.5161L45.496 45.5412C45.2608 45.5417 45.0281 45.586 44.8112 45.6717C44.5942 45.7573 44.3972 45.8826 44.2316 46.0404C44.0659 46.1982 43.9349 46.3853 43.8459 46.591C43.7569 46.7968 43.7117 47.0171 43.7129 47.2394L43.8307 71.5227C43.8351 72.4464 44.2264 73.3309 44.9188 73.9825C45.6113 74.6342 46.5486 75 47.5257 75H47.5437L71.3217 74.896C72.3014 74.8908 73.2389 74.5184 73.9284 73.8604C74.618 73.2025 75.0033 72.3128 74.9997 71.3866L74.9739 64.8654Z" fill="#3962D1"/>
</svg>
