<svg width="63" height="75" viewBox="0 0 63 75" fill="none" xmlns="http://www.w3.org/2000/svg">
<path d="M55.4286 18.7207C55.4286 18.7207 56.6157 19.9148 57.4524 18.723L59.0497 16.4344C59.6075 15.6293 58.8868 15.0727 58.813 15.0176L49.1274 8.25H49.1251C48.5286 7.83516 48.1325 8.08711 47.9251 8.32032L47.7517 8.56993L46.2763 10.6816C46.2692 10.6898 45.4442 11.993 46.7638 12.682V12.6832C48.6505 13.6113 52.111 15.5684 55.4263 18.7277L55.4286 18.7207Z" fill="#3962D1"/>
<path d="M39.131 0.0832062H23.8685C22.6837 0.0832062 21.7134 1.03477 21.7134 2.23828V4.01719C21.7134 5.21953 22.6837 6.18985 23.8685 6.18985H24.6231V7.4461C24.6243 9.25196 25.7646 9.40196 26.3364 9.36328C26.4337 9.34922 26.5345 9.33399 26.6411 9.31992C26.6423 9.31992 26.6563 9.31641 26.6563 9.31641H26.6552C28.6872 9.03867 32.0517 8.77266 35.9106 9.26368L35.913 9.26016C35.913 9.26016 38.3845 9.71836 38.3774 7.44493V6.18867H39.1321C40.3181 6.18867 41.2872 5.21953 41.2872 4.01602V2.23828C41.286 1.03594 40.3157 0.0832062 39.131 0.0832062Z" fill="#3962D1"/>
<path d="M31.4999 12.0715C14.1468 12.0715 0.0795898 26.1398 0.0795898 43.4953C0.0795898 60.8473 14.1468 74.9156 31.4999 74.9156C48.8542 74.9156 62.9202 60.8461 62.9202 43.4953C62.9202 26.1398 48.8542 12.0715 31.4999 12.0715ZM33.512 43.4859C31.6663 43.4883 31.5093 42.2039 31.4999 41.8336V20.1035C31.5538 19.3477 31.9464 17.9238 34.1343 18.2918C34.1776 18.2977 34.2187 18.3023 34.2644 18.3082C34.405 18.3316 34.5374 18.3504 34.6394 18.3586C41.0144 19.2539 54.9983 23.4 56.7456 42.198C56.6964 42.7207 56.3999 43.4824 55.0909 43.4906C43.8386 43.459 36.7194 43.4731 33.512 43.4859Z" fill="#3962D1"/>
</svg>
