<svg width="75" height="75" viewBox="0 0 75 75" fill="none" xmlns="http://www.w3.org/2000/svg">
<path d="M58.8783 44.3349C58.6747 43.4046 58.1778 42.5273 57.3955 41.8175C56.6069 41.1125 55.6462 40.687 54.6494 40.5314L38.6219 37.3148L43.2584 40.5058L35.9381 64.3045L31.8157 46.6263L27.6922 64.3045L20.3737 40.5062L25.0095 37.3152L8.98086 40.5318C7.98486 40.687 7.02299 41.1128 6.23549 41.8179C5.45249 42.5273 4.95562 43.405 4.75199 44.3353L0 65.981L8.96286 69.2081C11.9411 72.4154 20.2706 74.7756 30.2617 75H31.8153H33.3678C43.3601 74.776 51.6896 72.4154 54.6663 69.2081L63.6307 65.981L58.8783 44.3349Z" fill="#3962D1"/>
<path d="M31.8154 39.7306L28.1201 41.1034L31.8154 46.6273L35.5099 41.1034L31.8154 39.7306Z" fill="#3962D1"/>
<path d="M45.5317 18.4148C45.5317 8.59046 41.634 0.891029 31.8154 0.891029C21.9956 0.891029 18.0982 8.59046 18.0982 18.4148C17.0715 18.971 16.3976 20.2746 17.4052 23.0688C17.9145 24.4723 18.8115 25.648 19.5716 26.2632C22.3695 33.4882 27.873 39.0662 31.8154 39.0662C35.7558 39.0662 41.2601 33.4878 44.0576 26.2632C44.8192 25.648 45.7151 24.4727 46.2236 23.0688C47.2335 20.2746 46.5592 18.9706 45.5317 18.4148Z" fill="#3962D1"/>
<path d="M55.2552 14.5489H47.9712C48.0181 14.9782 48.0578 15.413 48.0893 15.8576H55.2548V14.5489H55.2552Z" fill="#3962D1"/>
<path d="M69.9848 10.0378H47.105C47.228 10.4636 47.3352 10.9027 47.4372 11.3472H69.9848V10.0378Z" fill="#3962D1"/>
<path d="M74.138 0.894858C73.5627 0.299064 72.8086 0 72.0545 0H39.6343C41.0724 0.783633 42.3474 1.80683 43.4439 3.0552H72.0545V24.4408H64.1701L58.202 30.6309V24.4408H48.5424C48.0785 25.569 47.4159 26.6361 46.652 27.4968H55.2556V35.8993C55.2556 36.2408 55.451 36.5659 55.7746 36.7055C56.099 36.8451 56.4586 36.7592 56.6923 36.5161L65.3904 27.4964H72.0545C72.8086 27.4964 73.5624 27.1973 74.138 26.6007C74.7132 26.0042 75.0001 25.2225 75.0001 24.4404V3.0552C75.0001 2.27312 74.7132 1.49221 74.138 0.894858Z" fill="#3962D1"/>
<path d="M69.985 5.52876H45.2114C45.4559 5.94916 45.6873 6.38473 45.9029 6.83819H69.985V5.52876V5.52876Z" fill="#3962D1"/>
</svg>
