<svg width="75" height="75" viewBox="0 0 75 75" fill="none" xmlns="http://www.w3.org/2000/svg">
<path d="M63.9925 75H11.0075C8.08901 74.997 5.29094 73.8364 3.22728 71.7727C1.16363 69.7091 0.0029634 66.911 0 63.9925V36.9403C0.0029634 34.0218 1.16363 31.2238 3.22728 29.1601C5.29094 27.0965 8.08901 25.9358 11.0075 25.9328H29.6381C31.073 25.9328 32.4492 25.3628 33.4638 24.3482C34.4785 23.3335 35.0485 21.9573 35.0485 20.5224C35.0515 17.6039 36.2121 14.8059 38.2758 12.7422C40.3394 10.6785 43.1375 9.51789 46.056 9.51492H63.9925C66.911 9.51789 69.7091 10.6785 71.7727 12.7422C73.8364 14.8059 74.997 17.6039 75 20.5224V63.9925C74.9965 66.9108 73.8357 69.7086 71.7722 71.7722C69.7086 73.8357 66.9108 74.9965 63.9925 75V75ZM11.0075 31.5298C9.57252 31.5298 8.19635 32.0999 7.1817 33.1145C6.16704 34.1292 5.59701 35.5054 5.59701 36.9403V63.9925C5.59701 65.4275 6.16704 66.8036 7.1817 67.8183C8.19635 68.833 9.57252 69.403 11.0075 69.403H63.9925C65.4275 69.403 66.8036 68.833 67.8183 67.8183C68.833 66.8036 69.403 65.4275 69.403 63.9925V20.5224C69.403 19.0874 68.833 17.7113 67.8183 16.6966C66.8036 15.682 65.4275 15.1119 63.9925 15.1119H46.056C44.621 15.1119 43.2449 15.682 42.2302 16.6966C41.2156 17.7113 40.6455 19.0874 40.6455 20.5224C40.6421 23.4407 39.4812 26.2385 37.4177 28.302C35.3541 30.3656 32.5564 31.5264 29.6381 31.5298H11.0075Z" fill="#3962D1"/>
<path d="M12.1266 31.5298C11.3844 31.5298 10.6726 31.235 10.1478 30.7102C9.62297 30.1854 9.32812 29.4736 9.32812 28.7313V2.79851C9.32812 2.0563 9.62297 1.34449 10.1478 0.819664C10.6726 0.294842 11.3844 0 12.1266 0H62.8729C63.6151 0 64.3269 0.294842 64.8517 0.819664C65.3766 1.34449 65.6714 2.0563 65.6714 2.79851V12.3134C65.6714 13.0556 65.3766 13.7675 64.8517 14.2923C64.3269 14.8171 63.6151 15.1119 62.8729 15.1119C62.1307 15.1119 61.4189 14.8171 60.8941 14.2923C60.3692 13.7675 60.0744 13.0556 60.0744 12.3134V5.59701H14.9251V28.7313C14.9251 29.4736 14.6303 30.1854 14.1055 30.7102C13.5807 31.235 12.8688 31.5298 12.1266 31.5298Z" fill="#3962D1"/>
<g clip-path="url(#clip0_351_4357)">
<path d="M45.8223 43.0148H48.6587C49.0348 43.0148 49.3955 43.1642 49.6615 43.4302C49.9274 43.6962 50.0769 44.0569 50.0769 44.433V61.4514C50.0769 61.8275 49.9274 62.1882 49.6615 62.4542C49.3955 62.7201 49.0348 62.8696 48.6587 62.8696H25.9675C25.5914 62.8696 25.2307 62.7201 24.9647 62.4542C24.6987 62.1882 24.5493 61.8275 24.5493 61.4514V44.433C24.5493 44.0569 24.6987 43.6962 24.9647 43.4302C25.2307 43.1642 25.5914 43.0148 25.9675 43.0148H28.8039V41.5966C28.8039 39.3398 29.7004 37.1755 31.2962 35.5797C32.892 33.9839 35.0563 33.0874 37.3131 33.0874C39.5699 33.0874 41.7342 33.9839 43.33 35.5797C44.9258 37.1755 45.8223 39.3398 45.8223 41.5966V43.0148ZM35.8949 53.9803V57.1968H38.7313V53.9803C39.272 53.6681 39.6946 53.1862 39.9336 52.6094C40.1725 52.0325 40.2144 51.3929 40.0528 50.7898C39.8912 50.1867 39.5351 49.6538 39.0398 49.2737C38.5444 48.8935 37.9375 48.6875 37.3131 48.6875C36.6887 48.6875 36.0818 48.8935 35.5864 49.2737C35.091 49.6538 34.7349 50.1867 34.5733 50.7898C34.4117 51.3929 34.4537 52.0325 34.6926 52.6094C34.9315 53.1862 35.3542 53.6681 35.8949 53.9803V53.9803ZM42.9859 43.0148V41.5966C42.9859 40.0921 42.3882 38.6492 41.3243 37.5853C40.2605 36.5215 38.8176 35.9238 37.3131 35.9238C35.8086 35.9238 34.3657 36.5215 33.3018 37.5853C32.238 38.6492 31.6403 40.0921 31.6403 41.5966V43.0148H42.9859Z" fill="#3962D1"/>
</g>
<defs>
<clipPath id="clip0_351_4357">
<rect width="34.0367" height="34.0367" fill="white" transform="translate(20.2949 31.6692)"/>
</clipPath>
</defs>
</svg>
