<svg width="16" height="10" viewBox="0 0 16 10" fill="none" xmlns="http://www.w3.org/2000/svg">
<path d="M8.47922 0.850563C8.51058 0.850563 11.6047 0.850562 13.6474 0.991887L13.7374 0.999738C14.0101 1.02329 14.3047 1.05077 14.5938 1.33735C14.7301 1.4682 14.8856 1.93143 14.9388 2.2625C15.025 2.9885 15.0705 3.71841 15.0751 4.4491V5.52735C15.0703 6.25846 15.0248 6.98881 14.9388 7.71526C14.8883 8.03847 14.7288 8.50824 14.5951 8.63125C14.3074 8.91651 14.006 8.94399 13.7401 8.96886L13.6474 8.97802C11.6401 9.10887 8.61695 9.12196 8.48058 9.12196C8.32376 9.12196 4.6624 9.08663 3.49376 8.9911C3.42422 8.98063 3.3574 8.97147 3.27831 8.96362C2.9674 8.92829 2.61422 8.88773 2.36058 8.63517C2.22422 8.50432 2.06876 8.0424 2.01694 7.71264C1.93074 6.98664 1.88522 6.25672 1.88058 5.52604V4.45826C1.88543 3.72758 1.93095 2.99767 2.01694 2.27166C2.07013 1.93797 2.22831 1.47474 2.36194 1.34651C2.65104 1.05993 2.9524 1.03376 3.21831 1.0089L3.30831 1.00105C5.35376 0.861031 8.44513 0.859723 8.47513 0.859723H8.47922V0.850563ZM8.47922 0.00915987C8.47922 0.00915987 5.33058 0.00915966 3.23195 0.153101C2.93876 0.185815 2.30058 0.188432 1.73194 0.753729C1.28331 1.18555 1.13604 2.16566 1.13604 2.16566C1.04068 2.92658 0.988332 3.6919 0.979218 4.45826V5.53651C0.985707 6.3058 1.03578 7.07419 1.12922 7.83826C1.12922 7.83826 1.27513 8.81837 1.72513 9.24889C2.29649 9.81419 3.04513 9.79717 3.37922 9.85737C4.57922 9.96598 8.47922 10 8.47922 10C8.47922 10 11.6306 10 13.7306 9.85213C14.0238 9.81942 14.6633 9.81549 15.2306 9.2502C15.6792 8.81968 15.8265 7.83957 15.8265 7.83957C15.9208 7.07554 15.9718 6.30716 15.9792 5.53782V4.45957C15.9727 3.69027 15.9226 2.92189 15.8292 2.15781C15.8292 2.15781 15.6833 1.1777 15.2333 0.745878C14.6633 0.180581 14.0238 0.176655 13.7333 0.14525C11.6306 -1.71591e-07 8.47922 0 8.47922 0V0.00915987Z" fill="#C6A636"/>
<path d="M7.13333 2.85522V7.14468L10.9501 4.99995L7.13333 2.85522Z" fill="#C6A636"/>
</svg>
